<svg xmlns="http://www.w3.org/2000/svg" xmlns:xlink="http://www.w3.org/1999/xlink" width="1920" height="300" viewBox="0 0 1920 300"><defs><clipPath id="b"><rect width="1920" height="300"/></clipPath></defs><g id="a" clip-path="url(#b)"><rect width="1920" height="300" fill="#fff"/><g fill="#2496ed" stroke="#707070" stroke-width="1"><rect width="1920" height="300" stroke="none"/><rect x="0.5" y="0.5" width="1919" height="299" fill="none"/></g><g transform="translate(510.037 -430.487)"><path d="M554.441,562.377a7.784,7.784,0,0,0-8.052,7.506V609.19a43.546,43.546,0,0,0-61.143,6.688,43.992,43.992,0,0,0-9.554,27.3,43.476,43.476,0,1,0,86.938,1.5V570.429a8.045,8.045,0,0,0-2.32-5.732,8.613,8.613,0,0,0-5.869-2.32m-10.236,91.305a27.185,27.185,0,0,1-35.758,14.6,27.28,27.28,0,0,1,0-50.088,27.185,27.185,0,0,1,35.758,14.6,26.43,26.43,0,0,1,0,20.881m101-41.217a43.9,43.9,0,1,0,12.829,32.209v-1.5a43.624,43.624,0,0,0-3.276-16.651,41.46,41.46,0,0,0-9.554-14.057m-5.6,41.081a26.749,26.749,0,0,1-5.869,8.6,28.32,28.32,0,0,1-8.6,5.869,27.276,27.276,0,0,1-35.758-14.467,27.186,27.186,0,0,1,14.467-35.621,27.436,27.436,0,0,1,21.291,0,26.752,26.752,0,0,1,8.6,5.869,28.32,28.32,0,0,1,5.869,8.6,27.093,27.093,0,0,1,0,21.154m185.341-45.857a8.1,8.1,0,0,0-.682-3.139,10.94,10.94,0,0,0-1.774-2.593,8.741,8.741,0,0,0-2.593-1.774,8.1,8.1,0,0,0-3.139-.682,8.466,8.466,0,0,0-4.367,1.228l-46.4,30.162V570.566a8.045,8.045,0,0,0-2.32-5.732,8.107,8.107,0,0,0-13.921,5.6V678.385a8.045,8.045,0,0,0,2.32,5.732,7.916,7.916,0,0,0,11.464,0,7.518,7.518,0,0,0,2.32-5.732V650.407l9.417-6.142,35.894,40.262a7.394,7.394,0,0,0,5.459,2.047,6.221,6.221,0,0,0,3.139-.682,8,8,0,0,0,2.593-1.774,10.936,10.936,0,0,0,1.774-2.593,8.1,8.1,0,0,0,.682-3.139,8.458,8.458,0,0,0-2.184-5.6l-33.3-37.532L821.807,614.1a6.97,6.97,0,0,0,3.139-6.415m-134.706,16.1a27.339,27.339,0,0,1,8.735-5.869,28.546,28.546,0,0,1,10.645-2.184,27.341,27.341,0,0,1,9.417,1.638,28.94,28.94,0,0,1,8.325,5.05,8.347,8.347,0,0,0,5.323,1.774,7.34,7.34,0,0,0,5.869-2.32,8.368,8.368,0,0,0,2.32-5.869,7.758,7.758,0,0,0-2.866-6.142,40.957,40.957,0,0,0-28.388-10.509,43.538,43.538,0,1,0,28.251,76.565,8.143,8.143,0,0,0,2.593-6.005,7.784,7.784,0,0,0-7.506-8.052h-.546a8.685,8.685,0,0,0-5.186,1.638,28.259,28.259,0,0,1-8.189,5.05,27.915,27.915,0,0,1-9.417,1.638,26.09,26.09,0,0,1-10.645-2.184,28.927,28.927,0,0,1-8.735-5.869,27.308,27.308,0,0,1-.136-38.487c.136.273.136.273.136.136m295.89-18.7a14.973,14.973,0,0,0-5.459-3.276,32.7,32.7,0,0,0-7.234-1.638,66.689,66.689,0,0,0-7.37-.409,41.2,41.2,0,0,0-14.6,2.593,44.607,44.607,0,0,0-12.693,7.1v-1.638a8.128,8.128,0,0,0-16.241,0v70.833a8.128,8.128,0,0,0,16.241,0V643.31a26.09,26.09,0,0,1,2.184-10.645,24.747,24.747,0,0,1,5.869-8.6,27,27,0,0,1,19.244-8.052,31.251,31.251,0,0,1,10.645,1.911,7.4,7.4,0,0,0,3.412.819,6.22,6.22,0,0,0,3.139-.682,8,8,0,0,0,2.593-1.774,8.745,8.745,0,0,0,1.774-2.593,8.1,8.1,0,0,0,.682-3.139,7.009,7.009,0,0,0-2.184-5.459m-75.337,21.427a44.328,44.328,0,0,0-40.262-26.75A43.469,43.469,0,1,0,898.918,676.2l.273-.273a6.426,6.426,0,0,0,1.774-2.047,8.267,8.267,0,0,0-2.047-11.464,8.042,8.042,0,0,0-9.963.955c-.273.273-1.092.955-1.092,1.092l-.136.136a24.685,24.685,0,0,1-7.779,4.5,24.368,24.368,0,0,1-9.417,1.5,27.14,27.14,0,0,1-16.378-5.323,25.1,25.1,0,0,1-6.005-6.005,24.32,24.32,0,0,1-3.821-7.779h61.416a8.045,8.045,0,0,0,5.732-2.32,7.063,7.063,0,0,0,2.32-5.732,44.276,44.276,0,0,0-3-16.924m-66.466,8.735a23.008,23.008,0,0,1,3.821-7.779,25.1,25.1,0,0,1,6.005-6.005,31.238,31.238,0,0,1,7.643-3.958,27.767,27.767,0,0,1,17.2,0A27.619,27.619,0,0,1,896.6,635.258Zm114.1,39.579a5.664,5.664,0,1,0,5.732,5.732A5.651,5.651,0,0,0,958.424,674.837Zm0,10.1a4.44,4.44,0,1,1,4.231-4.64v.273a4.169,4.169,0,0,1-4.094,4.367Z" transform="translate(-128.907 -25.905)" fill="#fff"/><path d="M830.881,671.782a1.492,1.492,0,0,0,.546-2.593,4.359,4.359,0,0,0-1.911-.409,11.746,11.746,0,0,0-2.184.136v5.6h1.228v-2.184h.546a1.1,1.1,0,0,1,1.228.819c.136.409.273.955.41,1.365h1.365a2.634,2.634,0,0,1-.409-1.365,1.3,1.3,0,0,0-.819-1.365m-1.638-.409h-.682v-1.638h.682c.819,0,1.228.409,1.228.819.137.546-.546.955-1.228.819M331.909,571.878c-.819-.682-8.189-6.278-24.021-6.278a76.345,76.345,0,0,0-12.42,1.092c-3-20.882-20.336-30.981-21.018-31.527l-4.231-2.457-2.73,3.958a58.361,58.361,0,0,0-7.506,17.469c-2.866,11.874-1.092,23.065,4.913,32.619-7.234,4.094-18.971,5.05-21.427,5.186H49.667a9.145,9.145,0,0,0-9.144,9.144A138.1,138.1,0,0,0,48.984,650.9c6.688,17.469,16.651,30.435,29.48,38.351,14.467,8.871,38.078,13.921,64.692,13.921A198.411,198.411,0,0,0,179.05,699.9,148.139,148.139,0,0,0,226,682.837a128.507,128.507,0,0,0,31.936-26.2c15.422-17.333,24.567-36.713,31.254-53.91h2.73c16.787,0,27.16-6.688,32.892-12.42a36.348,36.348,0,0,0,8.735-12.829l1.228-3.549Z" transform="translate(0 -17.118)" fill="#fff"/><path d="M78.144,569.227h25.931a2.3,2.3,0,0,0,2.32-2.32v-23.2a2.3,2.3,0,0,0-2.32-2.32H78.144a2.3,2.3,0,0,0-2.32,2.32v23.2A2.389,2.389,0,0,0,78.144,569.227Zm35.758,0h25.931a2.3,2.3,0,0,0,2.32-2.32v-23.2a2.3,2.3,0,0,0-2.32-2.32H113.9a2.3,2.3,0,0,0-2.32,2.32v23.2a2.389,2.389,0,0,0,2.32,2.32m36.44,0h25.931a2.3,2.3,0,0,0,2.32-2.32v-23.2a2.3,2.3,0,0,0-2.32-2.32H150.343a2.3,2.3,0,0,0-2.32,2.32v23.2A2.221,2.221,0,0,0,150.343,569.227Zm35.894,0h25.931a2.3,2.3,0,0,0,2.32-2.32v-23.2a2.3,2.3,0,0,0-2.32-2.32H186.237a2.3,2.3,0,0,0-2.32,2.32v23.2A2.3,2.3,0,0,0,186.237,569.227ZM113.9,536.062h25.931a2.392,2.392,0,0,0,2.32-2.32v-23.2a2.3,2.3,0,0,0-2.32-2.32H113.9a2.3,2.3,0,0,0-2.32,2.32v23.2a2.494,2.494,0,0,0,2.32,2.32m36.44,0h25.931a2.392,2.392,0,0,0,2.32-2.32v-23.2a2.3,2.3,0,0,0-2.32-2.32H150.343a2.3,2.3,0,0,0-2.32,2.32v23.2a2.3,2.3,0,0,0,2.32,2.32m35.894,0h25.931a2.392,2.392,0,0,0,2.32-2.32v-23.2a2.392,2.392,0,0,0-2.32-2.32H186.237a2.3,2.3,0,0,0-2.32,2.32v23.2a2.392,2.392,0,0,0,2.32,2.32m0-33.3h25.931a2.3,2.3,0,0,0,2.32-2.32v-23.2a2.392,2.392,0,0,0-2.32-2.32H186.237a2.3,2.3,0,0,0-2.32,2.32v23.2a2.392,2.392,0,0,0,2.32,2.32M222.4,569.227h25.931a2.3,2.3,0,0,0,2.32-2.32v-23.2a2.3,2.3,0,0,0-2.32-2.32H222.4a2.3,2.3,0,0,0-2.32,2.32v23.2a2.389,2.389,0,0,0,2.32,2.32" transform="translate(-10.462)" fill="#fff"/></g></g></svg>