<?xml version="1.0" standalone="no"?>
<!DOCTYPE svg PUBLIC "-//W3C//DTD SVG 1.1//EN" "http://www.w3.org/Graphics/SVG/1.1/DTD/svg11.dtd" >
<svg>
<metadata>
Created by FontForge 20120731 at Thu Jan 31 19:07:11 2019
 By www-data
Copyright (c) 2016 by Oleh Lishchuk. All rights reserved.
</metadata>
<defs>
<font id="OpinionProExtraCondensed-Thin" horiz-adv-x="364" >
  <font-face 
    font-family="Opinion Pro ExCn Th"
    font-weight="250"
    font-stretch="extra-condensed"
    units-per-em="1000"
    panose-1="2 1 0 0 3 0 0 0 0 4"
    ascent="750"
    descent="-250"
    x-height="530"
    cap-height="700"
    bbox="-34 -210 781 910"
    underline-thickness="50"
    underline-position="-50"
    stemv="20"
    unicode-range="U+0020-FB02"
  />
<missing-glyph horiz-adv-x="317" 
d="M38 0v700h15v-700h-15zM83 0v700h16v-700h-16zM128 0v700h16v-700h-16zM173 0v700h16v-700h-16zM218 0v700h15v-700h-15zM263 0v700h16v-700h-16z" />
    <glyph glyph-name="fi" unicode="fi" horiz-adv-x="343" 
d="M15 530h74v80c0 53 32 90 79 90h29v-20h-29c-35 0 -59 -29 -59 -70v-80h88v-20h-88v-510h-20v510h-74v20zM265 0v530h20v-530h-20zM265 622v51h20v-51h-20z" />
    <glyph glyph-name="fl" unicode="fl" 
d="M15 530h74v80c0 53 32 90 79 90h29v-20h-29c-35 0 -59 -29 -59 -70v-80h88v-20h-88v-510h-20v510h-74v20zM353 20v-20h-8c-47 0 -80 37 -80 90v610h20v-610c0 -41 25 -70 60 -70h8z" />
    <glyph glyph-name=".notdef" horiz-adv-x="317" 
d="M38 0v700h15v-700h-15zM83 0v700h16v-700h-16zM128 0v700h16v-700h-16zM173 0v700h16v-700h-16zM218 0v700h15v-700h-15zM263 0v700h16v-700h-16z" />
    <glyph glyph-name="caron" unicode="&#x2c7;" horiz-adv-x="288" 
d="M229 692l-85 -79l-85 79l5 11l80 -67l80 67z" />
    <glyph glyph-name="cedilla" unicode="&#xb8;" horiz-adv-x="159" 
d="M75 0h16l-5 -42c21 0 36 -18 36 -46c0 -29 -17 -45 -40 -45c-28 0 -44 25 -44 25l6 15s16 -20 37 -20c14 0 23 8 23 24c0 24 -18 32 -36 32z" />
    <glyph glyph-name="circumflex" unicode="&#x2c6;" horiz-adv-x="287" 
d="M59 624l85 79l85 -79l-5 -11l-80 67l-80 -67z" />
    <glyph glyph-name="commaaccent" unicode="&#xf6c3;" horiz-adv-x="165" 
d="M59 -180l22 120h22l-33 -124z" />
    <glyph glyph-name="dieresis" unicode="&#xa8;" horiz-adv-x="248" 
d="M58 613v51h19v-51h-19zM171 613v51h19v-51h-19z" />
    <glyph glyph-name="dotaccent" unicode="&#x2d9;" horiz-adv-x="137" 
d="M59 623v51h20v-51h-20z" />
    <glyph glyph-name="hungarumlaut" unicode="&#x2dd;" horiz-adv-x="301" 
d="M59 622l68 102l15 -12l-75 -99zM132 621l99 97l12 -14l-105 -93z" />
    <glyph glyph-name="grave" unicode="`" horiz-adv-x="235" 
d="M69 703l107 -79l-5 -11l-112 74z" />
    <glyph glyph-name="macron" unicode="&#xaf;" horiz-adv-x="255" 
d="M59 633h138v-20h-138v20z" />
    <glyph glyph-name="ogonek" unicode="&#x2db;" horiz-adv-x="159" 
d="M81 -133c-22 0 -43 17 -43 57c0 47 30 76 30 76h16s-28 -32 -28 -76c0 -26 10 -39 26 -39c21 0 31 22 31 22l6 -11s-9 -29 -38 -29z" />
    <glyph glyph-name="ring" unicode="&#x2da;" horiz-adv-x="287" 
d="M80 677c0 35 28 63 63 63s64 -28 64 -63s-29 -64 -64 -64s-63 29 -63 64zM99 677c0 -25 19 -45 44 -45s45 20 45 45s-20 44 -45 44s-44 -19 -44 -44z" />
    <glyph glyph-name="tilde" unicode="&#x2dc;" horiz-adv-x="315" 
d="M120 682c39 0 46 -49 78 -49s45 50 45 50l13 -9s-16 -60 -59 -60c-39 0 -48 49 -79 49s-44 -50 -44 -50l-15 9s18 60 61 60z" />
    <glyph glyph-name="space" unicode=" " horiz-adv-x="142" 
 />
    <glyph glyph-name="A" unicode="A" horiz-adv-x="368" 
d="M28 0h-21l166 700h22l166 -700h-21l-48 202h-216zM184 658l-104 -436h207z" />
    <glyph glyph-name="Aacute" unicode="&#xc1;" horiz-adv-x="368" 
d="M28 0h-21l166 700h22l166 -700h-21l-48 202h-216zM184 658l-104 -436h207zM133 794l107 79l10 -16l-112 -74z" />
    <glyph glyph-name="Abreve" unicode="&#x102;" horiz-adv-x="368" 
d="M28 0h-21l166 700h22l166 -700h-21l-48 202h-216zM184 658l-104 -436h207zM246 884h18c0 -66 -33 -101 -80 -101s-80 35 -80 101h18c0 -53 25 -81 62 -81c36 0 62 28 62 81z" />
    <glyph glyph-name="Acircumflex" unicode="&#xc2;" horiz-adv-x="368" 
d="M28 0h-21l166 700h22l166 -700h-21l-48 202h-216zM184 658l-104 -436h207zM99 794l85 79l85 -79l-5 -11l-80 67l-80 -67z" />
    <glyph glyph-name="Agrave" unicode="&#xc0;" horiz-adv-x="368" 
d="M28 0h-21l166 700h22l166 -700h-21l-48 202h-216zM184 658l-104 -436h207zM128 873l107 -79l-5 -11l-112 74z" />
    <glyph glyph-name="Adieresis" unicode="&#xc4;" horiz-adv-x="368" 
d="M28 0h-21l166 700h22l166 -700h-21l-48 202h-216zM184 658l-104 -436h207zM118 783v51h19v-51h-19zM231 783v51h19v-51h-19z" />
    <glyph glyph-name="Amacron" unicode="&#x100;" horiz-adv-x="368" 
d="M28 0h-21l166 700h22l166 -700h-21l-48 202h-216zM184 658l-104 -436h207zM115 803h138v-20h-138v20z" />
    <glyph glyph-name="Aogonek" unicode="&#x104;" horiz-adv-x="368" 
d="M28 0h-21l166 700h22l166 -700h-2s-28 -32 -28 -76c0 -26 10 -39 26 -39c21 0 31 22 31 22l6 -11s-9 -29 -38 -29c-22 0 -43 17 -43 57c0 47 30 76 30 76h-3l-48 202h-216zM184 658l-104 -436h207z" />
    <glyph glyph-name="Aring" unicode="&#xc5;" horiz-adv-x="368" 
d="M28 0h-21l166 700h22l166 -700h-21l-48 202h-216zM184 658l-104 -436h207zM121 847c0 35 28 63 63 63s64 -28 64 -63s-29 -64 -64 -64s-63 29 -63 64zM140 847c0 -25 19 -45 44 -45s45 20 45 45s-20 44 -45 44s-44 -19 -44 -44z" />
    <glyph glyph-name="Atilde" unicode="&#xc3;" horiz-adv-x="368" 
d="M28 0h-21l166 700h22l166 -700h-21l-48 202h-216zM184 658l-104 -436h207zM146 852c39 0 46 -49 78 -49s45 50 45 50l13 -9s-16 -60 -59 -60c-39 0 -48 49 -79 49s-44 -50 -44 -50l-15 9s18 60 61 60z" />
    <glyph glyph-name="AE" unicode="&#xc6;" horiz-adv-x="484" 
d="M29 0h-22l218 700h226v-20h-193v-325h174v-20h-174v-315h193v-20h-214v202h-146zM97 222h140v449z" />
    <glyph glyph-name="AEacute" unicode="&#x1fc;" horiz-adv-x="484" 
d="M29 0h-22l218 700h226v-20h-193v-325h174v-20h-174v-315h193v-20h-214v202h-146zM97 222h140v449zM191 794l107 79l10 -16l-112 -74z" />
    <glyph glyph-name="B" unicode="B" horiz-adv-x="380" 
d="M65 0v700h111c88 0 150 -61 150 -148v-47c0 -66 -36 -117 -91 -138c66 -18 109 -79 109 -161v-39c0 -98 -61 -167 -150 -167h-129zM194 355h-108v-335h108c76 0 130 61 130 149v38c0 87 -54 148 -130 148zM176 680h-90v-305h90c76 0 130 54 130 129v47
c0 75 -54 129 -130 129z" />
    <glyph glyph-name="C" unicode="C" horiz-adv-x="408" 
d="M338 205h20v-30c0 -106 -62 -180 -150 -180s-150 74 -150 180v350c0 106 62 180 150 180s150 -74 150 -180v-32h-20v32c0 94 -54 160 -130 160s-129 -66 -129 -160v-350c0 -94 53 -160 129 -160s130 66 130 160v30z" />
    <glyph glyph-name="Cacute" unicode="&#x106;" horiz-adv-x="408" 
d="M338 205h20v-30c0 -106 -62 -180 -150 -180s-150 74 -150 180v350c0 106 62 180 150 180s150 -74 150 -180v-32h-20v32c0 94 -54 160 -130 160s-129 -66 -129 -160v-350c0 -94 53 -160 129 -160s130 66 130 160v30zM153 794l107 79l10 -16l-112 -74z" />
    <glyph glyph-name="Ccaron" unicode="&#x10c;" horiz-adv-x="408" 
d="M338 205h20v-30c0 -106 -62 -180 -150 -180s-150 74 -150 180v350c0 106 62 180 150 180s150 -74 150 -180v-32h-20v32c0 94 -54 160 -130 160s-129 -66 -129 -160v-350c0 -94 53 -160 129 -160s130 66 130 160v30zM289 862l-85 -79l-85 79l5 11l80 -67l80 67z" />
    <glyph glyph-name="Ccedilla" unicode="&#xc7;" horiz-adv-x="408" 
d="M338 205h20v-30c0 -104 -59 -176 -144 -180l-4 -37c21 0 36 -18 36 -46c0 -29 -17 -45 -40 -45c-28 0 -44 25 -44 25l6 15s16 -20 37 -20c14 0 23 8 23 24c0 24 -18 32 -36 32l6 52c-83 5 -140 78 -140 180v350c0 106 62 180 150 180s150 -74 150 -180v-32h-20v32
c0 94 -54 160 -130 160s-129 -66 -129 -160v-350c0 -94 53 -160 129 -160s130 66 130 160v30z" />
    <glyph glyph-name="Ccircumflex" unicode="&#x108;" horiz-adv-x="408" 
d="M338 205h20v-30c0 -106 -62 -180 -150 -180s-150 74 -150 180v350c0 106 62 180 150 180s150 -74 150 -180v-32h-20v32c0 94 -54 160 -130 160s-129 -66 -129 -160v-350c0 -94 53 -160 129 -160s130 66 130 160v30zM119 794l85 79l85 -79l-5 -11l-80 67l-80 -67z" />
    <glyph glyph-name="Cdotaccent" unicode="&#x10a;" horiz-adv-x="408" 
d="M338 205h20v-30c0 -106 -62 -180 -150 -180s-150 74 -150 180v350c0 106 62 180 150 180s150 -74 150 -180v-32h-20v32c0 94 -54 160 -130 160s-129 -66 -129 -160v-350c0 -94 53 -160 129 -160s130 66 130 160v30zM194 793v51h20v-51h-20z" />
    <glyph glyph-name="D" unicode="D" horiz-adv-x="412" 
d="M65 0v700h139c89 0 150 -74 150 -180v-340c0 -106 -61 -180 -150 -180h-139zM204 680h-118v-660h118c76 0 130 66 130 160v340c0 94 -54 160 -130 160z" />
    <glyph glyph-name="Dcaron" unicode="&#x10e;" horiz-adv-x="412" 
d="M65 0v700h139c89 0 150 -74 150 -180v-340c0 -106 -61 -180 -150 -180h-139zM204 680h-118v-660h118c76 0 130 66 130 160v340c0 94 -54 160 -130 160zM290 862l-85 -79l-85 79l5 11l80 -67l80 67z" />
    <glyph glyph-name="Dcroat" unicode="&#x110;" horiz-adv-x="412" 
d="M65 0v360h-52v20h52v320h139c88 0 150 -74 150 -180v-340c0 -106 -62 -180 -150 -180h-139zM200 380v-20h-115v-340h119c76 0 129 66 129 160v340c0 94 -53 160 -129 160h-119v-300h115z" />
    <glyph glyph-name="Eth" unicode="&#xd0;" horiz-adv-x="412" 
d="M65 0v360h-52v20h52v320h139c88 0 150 -74 150 -180v-340c0 -106 -62 -180 -150 -180h-139zM200 380v-20h-115v-340h119c76 0 129 66 129 160v340c0 94 -53 160 -129 160h-119v-300h115z" />
    <glyph glyph-name="Thorn" unicode="&#xde;" horiz-adv-x="386" 
d="M194 160h-108v-160h-21v700h21v-150h108c88 0 150 -74 150 -180v-30c0 -106 -62 -180 -150 -180zM194 530h-108v-350h108c76 0 129 66 129 160v30c0 94 -53 160 -129 160z" />
    <glyph glyph-name="E" unicode="E" horiz-adv-x="333" 
d="M300 20v-20h-235v700h235v-20h-214v-325h196v-20h-196v-315h214z" />
    <glyph glyph-name="Eacute" unicode="&#xc9;" horiz-adv-x="333" 
d="M300 20v-20h-235v700h235v-20h-214v-325h196v-20h-196v-315h214zM116 794l107 79l10 -16l-112 -74z" />
    <glyph glyph-name="Ebreve" unicode="&#x114;" horiz-adv-x="333" 
d="M300 20v-20h-235v700h235v-20h-214v-325h196v-20h-196v-315h214zM229 884h18c0 -66 -33 -101 -80 -101s-80 35 -80 101h18c0 -53 25 -81 62 -81c36 0 62 28 62 81z" />
    <glyph glyph-name="Ecaron" unicode="&#x11a;" horiz-adv-x="333" 
d="M300 20v-20h-235v700h235v-20h-214v-325h196v-20h-196v-315h214zM251 862l-85 -79l-85 79l5 11l80 -67l80 67z" />
    <glyph glyph-name="Ecircumflex" unicode="&#xca;" horiz-adv-x="333" 
d="M300 20v-20h-235v700h235v-20h-214v-325h196v-20h-196v-315h214zM81 794l85 79l85 -79l-5 -11l-80 67l-80 -67z" />
    <glyph glyph-name="Edieresis" unicode="&#xcb;" horiz-adv-x="333" 
d="M300 20v-20h-235v700h235v-20h-214v-325h196v-20h-196v-315h214zM101 783v51h19v-51h-19zM214 783v51h19v-51h-19z" />
    <glyph glyph-name="Edotaccent" unicode="&#x116;" horiz-adv-x="333" 
d="M300 20v-20h-235v700h235v-20h-214v-325h196v-20h-196v-315h214zM157 793v51h20v-51h-20z" />
    <glyph glyph-name="Egrave" unicode="&#xc8;" horiz-adv-x="333" 
d="M300 20v-20h-235v700h235v-20h-214v-325h196v-20h-196v-315h214zM111 873l107 -79l-5 -11l-112 74z" />
    <glyph glyph-name="Emacron" unicode="&#x112;" horiz-adv-x="333" 
d="M300 20v-20h-235v700h235v-20h-214v-325h196v-20h-196v-315h214zM97 803h138v-20h-138v20z" />
    <glyph glyph-name="Eogonek" unicode="&#x118;" horiz-adv-x="333" 
d="M262 -133c-22 0 -43 17 -43 57c0 47 30 76 30 76h-184v700h235v-20h-214v-325h196v-20h-196v-315h214v-20h-35s-28 -32 -28 -76c0 -26 10 -39 26 -39c21 0 31 22 31 22l6 -11s-9 -29 -38 -29z" />
    <glyph glyph-name="F" unicode="F" horiz-adv-x="332" 
d="M264 355v-20h-178v-335h-21v700h235v-20h-214v-325h178z" />
    <glyph glyph-name="G" unicode="G" horiz-adv-x="409" 
d="M214 350h144v-175c0 -106 -62 -180 -150 -180s-150 74 -150 180v350c0 106 62 180 150 180s150 -74 150 -180v-32h-20v32c0 94 -54 160 -130 160s-129 -66 -129 -160v-350c0 -94 53 -160 129 -160s130 66 130 160v155h-124v20z" />
    <glyph glyph-name="Gbreve" unicode="&#x11e;" horiz-adv-x="409" 
d="M214 350h144v-175c0 -106 -62 -180 -150 -180s-150 74 -150 180v350c0 106 62 180 150 180s150 -74 150 -180v-32h-20v32c0 94 -54 160 -130 160s-129 -66 -129 -160v-350c0 -94 53 -160 129 -160s130 66 130 160v155h-124v20zM266 884h18c0 -66 -33 -101 -80 -101
s-80 35 -80 101h18c0 -53 25 -81 62 -81c36 0 62 28 62 81z" />
    <glyph glyph-name="Gcircumflex" unicode="&#x11c;" horiz-adv-x="409" 
d="M214 350h144v-175c0 -106 -62 -180 -150 -180s-150 74 -150 180v350c0 106 62 180 150 180s150 -74 150 -180v-32h-20v32c0 94 -54 160 -130 160s-129 -66 -129 -160v-350c0 -94 53 -160 129 -160s130 66 130 160v155h-124v20zM119 794l85 79l85 -79l-5 -11l-80 67
l-80 -67z" />
    <glyph glyph-name="Gcommaaccent" unicode="&#x122;" horiz-adv-x="409" 
d="M214 350h144v-175c0 -106 -62 -180 -150 -180s-150 74 -150 180v350c0 106 62 180 150 180s150 -74 150 -180v-32h-20v32c0 94 -54 160 -130 160s-129 -66 -129 -160v-350c0 -94 53 -160 129 -160s130 66 130 160v155h-124v20zM182 -180l22 120h22l-33 -124z" />
    <glyph glyph-name="Gdotaccent" unicode="&#x120;" horiz-adv-x="409" 
d="M214 350h144v-175c0 -106 -62 -180 -150 -180s-150 74 -150 180v350c0 106 62 180 150 180s150 -74 150 -180v-32h-20v32c0 94 -54 160 -130 160s-129 -66 -129 -160v-350c0 -94 53 -160 129 -160s130 66 130 160v155h-124v20zM195 793v51h20v-51h-20z" />
    <glyph glyph-name="H" unicode="H" horiz-adv-x="430" 
d="M86 0h-21v700h21v-345h259v345h20v-700h-20v335h-259v-335z" />
    <glyph glyph-name="Hbar" unicode="&#x126;" horiz-adv-x="430" 
d="M86 0h-21v595h-51v20h51v85h21v-85h259v85h20v-85h50v-20h-50v-595h-20v335h-259v-335zM86 595v-240h259v240h-259z" />
    <glyph glyph-name="Hcircumflex" unicode="&#x124;" horiz-adv-x="430" 
d="M86 0h-21v700h21v-345h259v345h20v-700h-20v335h-259v-335zM130 794l85 79l85 -79l-5 -11l-80 67l-80 -67z" />
    <glyph glyph-name="I" unicode="I" horiz-adv-x="151" 
d="M65 0v700h21v-700h-21z" />
    <glyph glyph-name="Iacute" unicode="&#xcd;" horiz-adv-x="151" 
d="M65 0v700h21v-700h-21zM25 794l107 79l10 -16l-112 -74z" />
    <glyph glyph-name="Ibreve" unicode="&#x12c;" horiz-adv-x="151" 
d="M65 0v700h21v-700h-21zM137 884h18c0 -66 -33 -101 -80 -101s-80 35 -80 101h18c0 -53 25 -81 62 -81c36 0 62 28 62 81z" />
    <glyph glyph-name="Icircumflex" unicode="&#xce;" horiz-adv-x="151" 
d="M65 0v700h21v-700h-21zM-10 794l85 79l85 -79l-5 -11l-80 67l-80 -67z" />
    <glyph glyph-name="Idieresis" unicode="&#xcf;" horiz-adv-x="151" 
d="M65 0v700h21v-700h-21zM9 783v51h19v-51h-19zM122 783v51h19v-51h-19z" />
    <glyph glyph-name="Idotaccent" unicode="&#x130;" horiz-adv-x="151" 
d="M65 0v700h21v-700h-21zM65 793v51h20v-51h-20z" />
    <glyph glyph-name="Igrave" unicode="&#xcc;" horiz-adv-x="151" 
d="M65 0v700h21v-700h-21zM20 873l107 -79l-5 -11l-112 74z" />
    <glyph glyph-name="Imacron" unicode="&#x12a;" horiz-adv-x="151" 
d="M65 0v700h21v-700h-21zM6 803h138v-20h-138v20z" />
    <glyph glyph-name="Iogonek" unicode="&#x12e;" horiz-adv-x="150" 
d="M65 0v700h21v-700h-2s-28 -32 -28 -76c0 -26 10 -39 26 -39c21 0 31 22 31 22l6 -11s-9 -29 -38 -29c-22 0 -43 17 -43 57c0 47 30 76 30 76h-3z" />
    <glyph glyph-name="Itilde" unicode="&#x128;" horiz-adv-x="151" 
d="M65 0v700h21v-700h-21zM38 852c39 0 46 -49 78 -49s45 50 45 50l13 -9s-16 -60 -59 -60c-39 0 -48 49 -79 49s-44 -50 -44 -50l-15 9s18 60 61 60z" />
    <glyph glyph-name="IJ" unicode="&#x132;" horiz-adv-x="387" 
d="M159 15h18c77 0 131 74 131 180v505h21v-505c0 -118 -63 -200 -152 -200h-18v20zM65 0v700h21v-700h-21z" />
    <glyph glyph-name="J" unicode="J" horiz-adv-x="236" 
d="M8 15h18c77 0 131 74 131 180v505h21v-505c0 -118 -63 -200 -152 -200h-18v20z" />
    <glyph glyph-name="Jcircumflex" unicode="&#x134;" horiz-adv-x="236" 
d="M8 15h18c77 0 131 74 131 180v505h21v-505c0 -118 -63 -200 -152 -200h-18v20zM76 799l85 79l85 -79l-5 -11l-80 67l-80 -67z" />
    <glyph glyph-name="K" unicode="K" horiz-adv-x="361" 
d="M65 0v700h21v-700h-21zM322 0l-210 362l200 338h25l-200 -338l210 -362h-25z" />
    <glyph glyph-name="Kcommaaccent" unicode="&#x136;" horiz-adv-x="361" 
d="M65 0v700h21v-700h-21zM322 0l-210 362l200 338h25l-200 -338l210 -362h-25zM159 -180l22 120h22l-33 -124z" />
    <glyph glyph-name="L" unicode="L" horiz-adv-x="334" 
d="M65 0v700h21v-680h215v-20h-236z" />
    <glyph glyph-name="Lacute" unicode="&#x139;" horiz-adv-x="334" 
d="M65 0v700h21v-680h215v-20h-236zM45 794l107 79l10 -16l-112 -74z" />
    <glyph glyph-name="Lcaron" unicode="&#x13d;" horiz-adv-x="334" 
d="M65 0v700h21v-680h215v-20h-236zM216 540l18 160h22l-28 -163z" />
    <glyph glyph-name="Lcommaaccent" unicode="&#x13b;" horiz-adv-x="334" 
d="M65 0v700h21v-680h215v-20h-236zM145 -180l22 120h22l-33 -124z" />
    <glyph glyph-name="Ldot" unicode="&#x13f;" horiz-adv-x="334" 
d="M65 0v700h21v-680h215v-20h-236zM228 325v80h28v-80h-28z" />
    <glyph glyph-name="Lslash" unicode="&#x141;" horiz-adv-x="342" 
d="M19 245l54 63v392h21v-367l74 87l13 -15l-87 -103v-282h215v-20h-236v278l-41 -48z" />
    <glyph glyph-name="M" unicode="M" horiz-adv-x="496" 
d="M85 0h-20v700h19l163 -523l165 523h19v-700h-20v634l-155 -493h-17l-154 493v-634z" />
    <glyph glyph-name="N" unicode="N" horiz-adv-x="430" 
d="M85 0h-20v700h20l260 -647v647h20v-700h-19l-261 647v-647z" />
    <glyph glyph-name="Nacute" unicode="&#x143;" horiz-adv-x="430" 
d="M85 0h-20v700h20l260 -647v647h20v-700h-19l-261 647v-647zM164 794l107 79l10 -16l-112 -74z" />
    <glyph glyph-name="Ncaron" unicode="&#x147;" horiz-adv-x="430" 
d="M85 0h-20v700h20l260 -647v647h20v-700h-19l-261 647v-647zM300 862l-85 -79l-85 79l5 11l80 -67l80 67z" />
    <glyph glyph-name="Ncommaaccent" unicode="&#x145;" horiz-adv-x="430" 
d="M85 0h-20v700h20l260 -647v647h20v-700h-19l-261 647v-647zM192 -180l22 120h22l-33 -124z" />
    <glyph glyph-name="Ntilde" unicode="&#xd1;" horiz-adv-x="430" 
d="M85 0h-20v700h20l260 -647v647h20v-700h-19l-261 647v-647zM177 852c39 0 46 -49 78 -49s45 50 45 50l13 -9s-16 -60 -59 -60c-39 0 -48 49 -79 49s-44 -50 -44 -50l-15 9s18 60 61 60z" />
    <glyph glyph-name="Eng" unicode="&#x14a;" horiz-adv-x="430" 
d="M85 0h-20v700h20l260 -647v647h20v-710c0 -118 -62 -200 -152 -200h-18v20h18c77 0 132 74 132 180v12l-260 645v-647z" />
    <glyph glyph-name="O" unicode="O" horiz-adv-x="416" 
d="M358 175c0 -106 -62 -180 -150 -180s-150 74 -150 180v350c0 106 62 180 150 180s150 -74 150 -180v-350zM338 175v350c0 94 -54 160 -130 160s-129 -66 -129 -160v-350c0 -94 53 -160 129 -160s130 66 130 160z" />
    <glyph glyph-name="Oacute" unicode="&#xd3;" horiz-adv-x="416" 
d="M358 175c0 -106 -62 -180 -150 -180s-150 74 -150 180v350c0 106 62 180 150 180s150 -74 150 -180v-350zM338 175v350c0 94 -54 160 -130 160s-129 -66 -129 -160v-350c0 -94 53 -160 129 -160s130 66 130 160zM156 794l107 79l10 -16l-112 -74z" />
    <glyph glyph-name="Obreve" unicode="&#x14e;" horiz-adv-x="416" 
d="M358 175c0 -106 -62 -180 -150 -180s-150 74 -150 180v350c0 106 62 180 150 180s150 -74 150 -180v-350zM338 175v350c0 94 -54 160 -130 160s-129 -66 -129 -160v-350c0 -94 53 -160 129 -160s130 66 130 160zM270 884h18c0 -66 -33 -101 -80 -101s-80 35 -80 101h18
c0 -53 25 -81 62 -81c36 0 62 28 62 81z" />
    <glyph glyph-name="Ocircumflex" unicode="&#xd4;" horiz-adv-x="416" 
d="M358 175c0 -106 -62 -180 -150 -180s-150 74 -150 180v350c0 106 62 180 150 180s150 -74 150 -180v-350zM338 175v350c0 94 -54 160 -130 160s-129 -66 -129 -160v-350c0 -94 53 -160 129 -160s130 66 130 160zM123 794l85 79l85 -79l-5 -11l-80 67l-80 -67z" />
    <glyph glyph-name="Odieresis" unicode="&#xd6;" horiz-adv-x="416" 
d="M358 175c0 -106 -62 -180 -150 -180s-150 74 -150 180v350c0 106 62 180 150 180s150 -74 150 -180v-350zM338 175v350c0 94 -54 160 -130 160s-129 -66 -129 -160v-350c0 -94 53 -160 129 -160s130 66 130 160zM142 783v51h19v-51h-19zM255 783v51h19v-51h-19z" />
    <glyph glyph-name="Ograve" unicode="&#xd2;" horiz-adv-x="416" 
d="M358 175c0 -106 -62 -180 -150 -180s-150 74 -150 180v350c0 106 62 180 150 180s150 -74 150 -180v-350zM338 175v350c0 94 -54 160 -130 160s-129 -66 -129 -160v-350c0 -94 53 -160 129 -160s130 66 130 160zM151 873l107 -79l-5 -11l-112 74z" />
    <glyph glyph-name="Ohungarumlaut" unicode="&#x150;" horiz-adv-x="416" 
d="M358 175c0 -106 -62 -180 -150 -180s-150 74 -150 180v350c0 106 62 180 150 180s150 -74 150 -180v-350zM338 175v350c0 94 -54 160 -130 160s-129 -66 -129 -160v-350c0 -94 53 -160 129 -160s130 66 130 160zM123 792l68 102l15 -12l-75 -99zM196 791l99 97l12 -14
l-105 -93z" />
    <glyph glyph-name="Omacron" unicode="&#x14c;" horiz-adv-x="416" 
d="M358 175c0 -106 -62 -180 -150 -180s-150 74 -150 180v350c0 106 62 180 150 180s150 -74 150 -180v-350zM338 175v350c0 94 -54 160 -130 160s-129 -66 -129 -160v-350c0 -94 53 -160 129 -160s130 66 130 160zM139 803h138v-20h-138v20z" />
    <glyph glyph-name="Oslash" unicode="&#xd8;" horiz-adv-x="415" 
d="M54 -5l29 73c-16 29 -25 66 -25 107v350c0 106 61 180 150 180c46 0 85 -21 112 -55l22 55h20l-30 -74c16 -29 26 -65 26 -106v-350c0 -106 -62 -180 -150 -180c-47 0 -86 20 -112 54l-22 -54h-20zM78 175c0 -31 5 -58 15 -82l217 534c-23 36 -59 58 -102 58
c-77 0 -130 -66 -130 -160v-350zM337 175v350c0 30 -6 57 -16 80l-216 -533c23 -36 59 -57 103 -57c76 0 129 66 129 160z" />
    <glyph glyph-name="Oslashacute" unicode="&#x1fe;" horiz-adv-x="415" 
d="M54 -5l29 73c-16 29 -25 66 -25 107v350c0 106 61 180 150 180c46 0 85 -21 112 -55l22 55h20l-30 -74c16 -29 26 -65 26 -106v-350c0 -106 -62 -180 -150 -180c-47 0 -86 20 -112 54l-22 -54h-20zM78 175c0 -31 5 -58 15 -82l217 534c-23 36 -59 58 -102 58
c-77 0 -130 -66 -130 -160v-350zM337 175v350c0 30 -6 57 -16 80l-216 -533c23 -36 59 -57 103 -57c76 0 129 66 129 160zM156 794l107 79l10 -16l-112 -74z" />
    <glyph glyph-name="Otilde" unicode="&#xd5;" horiz-adv-x="416" 
d="M358 175c0 -106 -62 -180 -150 -180s-150 74 -150 180v350c0 106 62 180 150 180s150 -74 150 -180v-350zM338 175v350c0 94 -54 160 -130 160s-129 -66 -129 -160v-350c0 -94 53 -160 129 -160s130 66 130 160zM170 852c39 0 46 -49 78 -49s45 50 45 50l13 -9
s-16 -60 -59 -60c-39 0 -48 49 -79 49s-44 -50 -44 -50l-15 9s18 60 61 60z" />
    <glyph glyph-name="OE" unicode="&#x152;" horiz-adv-x="606" 
d="M338 0v79c-25 -52 -72 -84 -130 -84c-88 0 -150 74 -150 180v350c0 106 62 180 150 180c58 0 105 -32 130 -85v80h235v-20h-214v-325h196v-20h-196v-315h214v-20h-235zM338 168v364c-3 90 -56 153 -130 153c-76 0 -129 -66 -129 -160v-350c0 -94 53 -160 129 -160
c74 0 127 62 130 153z" />
    <glyph glyph-name="P" unicode="P" horiz-adv-x="386" 
d="M194 310h-108v-310h-21v700h129c88 0 150 -74 150 -180v-30c0 -106 -62 -180 -150 -180zM194 680h-108v-350h108c76 0 129 66 129 160v30c0 94 -53 160 -129 160z" />
    <glyph glyph-name="Q" unicode="Q" horiz-adv-x="416" 
d="M362 -107l-70 130c-23 -18 -52 -28 -84 -28c-88 0 -150 74 -150 180v350c0 106 62 180 150 180s150 -74 150 -180v-350c0 -59 -19 -108 -51 -140l70 -130zM338 175v350c0 94 -54 160 -130 160s-129 -66 -129 -160v-350c0 -94 53 -160 129 -160s130 66 130 160z" />
    <glyph glyph-name="R" unicode="R" horiz-adv-x="394" 
d="M187 310h-101v-310h-21v700h122c88 0 150 -74 150 -180v-30c0 -91 -46 -158 -114 -176l131 -314h-20l-130 311c-5 -1 -11 -1 -17 -1zM187 680h-101v-350h101c76 0 129 66 129 160v30c0 94 -53 160 -129 160z" />
    <glyph glyph-name="Racute" unicode="&#x154;" horiz-adv-x="394" 
d="M187 310h-101v-310h-21v700h122c88 0 150 -74 150 -180v-30c0 -91 -46 -158 -114 -176l131 -314h-20l-130 311c-5 -1 -11 -1 -17 -1zM187 680h-101v-350h101c76 0 129 66 129 160v30c0 94 -53 160 -129 160zM146 794l107 79l10 -16l-112 -74z" />
    <glyph glyph-name="Rcaron" unicode="&#x158;" horiz-adv-x="394" 
d="M187 310h-101v-310h-21v700h122c88 0 150 -74 150 -180v-30c0 -91 -46 -158 -114 -176l131 -314h-20l-130 311c-5 -1 -11 -1 -17 -1zM187 680h-101v-350h101c76 0 129 66 129 160v30c0 94 -53 160 -129 160zM282 862l-85 -79l-85 79l5 11l80 -67l80 67z" />
    <glyph glyph-name="Rcommaaccent" unicode="&#x156;" horiz-adv-x="394" 
d="M187 310h-101v-310h-21v700h122c88 0 150 -74 150 -180v-30c0 -91 -46 -158 -114 -176l131 -314h-20l-130 311c-5 -1 -11 -1 -17 -1zM187 680h-101v-350h101c76 0 129 66 129 160v30c0 94 -53 160 -129 160zM175 -180l22 120h22l-33 -124z" />
    <glyph glyph-name="S" unicode="S" horiz-adv-x="368" 
d="M297 505v20c0 94 -47 160 -116 160c-67 0 -114 -62 -114 -150c0 -59 21 -109 56 -132l137 -91c40 -27 65 -80 65 -146c0 -101 -59 -171 -142 -171c-86 0 -144 74 -144 180v25h20v-25c0 -94 50 -160 124 -160c71 0 121 62 121 151c0 57 -20 106 -56 130l-136 91
c-41 28 -66 81 -66 148c0 100 57 170 135 170c81 0 137 -74 137 -180v-20h-21z" />
    <glyph glyph-name="Sacute" unicode="&#x15a;" horiz-adv-x="368" 
d="M297 505v20c0 94 -47 160 -116 160c-67 0 -114 -62 -114 -150c0 -59 21 -109 56 -132l137 -91c40 -27 65 -80 65 -146c0 -101 -59 -171 -142 -171c-86 0 -144 74 -144 180v25h20v-25c0 -94 50 -160 124 -160c71 0 121 62 121 151c0 57 -20 106 -56 130l-136 91
c-41 28 -66 81 -66 148c0 100 57 170 135 170c81 0 137 -74 137 -180v-20h-21zM133 794l107 79l10 -16l-112 -74z" />
    <glyph glyph-name="Scaron" unicode="&#x160;" horiz-adv-x="368" 
d="M297 505v20c0 94 -47 160 -116 160c-67 0 -114 -62 -114 -150c0 -59 21 -109 56 -132l137 -91c40 -27 65 -80 65 -146c0 -101 -59 -171 -142 -171c-86 0 -144 74 -144 180v25h20v-25c0 -94 50 -160 124 -160c71 0 121 62 121 151c0 57 -20 106 -56 130l-136 91
c-41 28 -66 81 -66 148c0 100 57 170 135 170c81 0 137 -74 137 -180v-20h-21zM269 862l-85 -79l-85 79l5 11l80 -67l80 67z" />
    <glyph glyph-name="Scedilla" unicode="&#x15e;" horiz-adv-x="368" 
d="M297 505v20c0 94 -47 160 -116 160c-67 0 -114 -62 -114 -150c0 -59 21 -109 56 -132l137 -91c40 -27 65 -80 65 -146c0 -97 -54 -165 -131 -170l-4 -38c21 0 36 -18 36 -46c0 -29 -17 -45 -40 -45c-28 0 -44 25 -44 25l6 15s16 -20 37 -20c14 0 23 8 23 24
c0 24 -18 32 -36 32l6 52c-83 3 -139 76 -139 180v25h20v-25c0 -94 50 -160 124 -160c71 0 121 62 121 151c0 57 -20 106 -56 130l-136 91c-41 28 -66 81 -66 148c0 100 57 170 135 170c81 0 137 -74 137 -180v-20h-21z" />
    <glyph glyph-name="Scircumflex" unicode="&#x15c;" horiz-adv-x="368" 
d="M297 505v20c0 94 -47 160 -116 160c-67 0 -114 -62 -114 -150c0 -59 21 -109 56 -132l137 -91c40 -27 65 -80 65 -146c0 -101 -59 -171 -142 -171c-86 0 -144 74 -144 180v25h20v-25c0 -94 50 -160 124 -160c71 0 121 62 121 151c0 57 -20 106 -56 130l-136 91
c-41 28 -66 81 -66 148c0 100 57 170 135 170c81 0 137 -74 137 -180v-20h-21zM99 794l85 79l85 -79l-5 -11l-80 67l-80 -67z" />
    <glyph glyph-name="Scommaaccent" unicode="&#x218;" horiz-adv-x="368" 
d="M297 505v20c0 94 -47 160 -116 160c-67 0 -114 -62 -114 -150c0 -59 21 -109 56 -132l137 -91c40 -27 65 -80 65 -146c0 -101 -59 -171 -142 -171c-86 0 -144 74 -144 180v25h20v-25c0 -94 50 -160 124 -160c71 0 121 62 121 151c0 57 -20 106 -56 130l-136 91
c-41 28 -66 81 -66 148c0 100 57 170 135 170c81 0 137 -74 137 -180v-20h-21zM149 -180l22 120h22l-33 -124z" />
    <glyph glyph-name="T" unicode="T" horiz-adv-x="358" 
d="M343 700v-20h-154v-680h-20v680h-154v20h328z" />
    <glyph glyph-name="Tbar" unicode="&#x166;" horiz-adv-x="358" 
d="M299 390v-20h-110v-370h-20v370h-110v20h110v290h-154v20h328v-20h-154v-290h110z" />
    <glyph glyph-name="Tcaron" unicode="&#x164;" horiz-adv-x="358" 
d="M343 700v-20h-154v-680h-20v680h-154v20h328zM263 862l-85 -79l-85 79l5 11l80 -67l80 67z" />
    <glyph glyph-name="Tcommaaccent" unicode="&#x162;" horiz-adv-x="358" 
d="M343 700v-20h-154v-680h-20v680h-154v20h328zM149 -180l22 120h22l-33 -124z" />
    <glyph glyph-name="uni021A" unicode="&#x21a;" horiz-adv-x="358" 
d="M343 700v-20h-154v-680h-20v680h-154v20h328zM149 -180l22 120h22l-33 -124z" />
    <glyph glyph-name="U" unicode="U" horiz-adv-x="416" 
d="M338 700h20v-525c0 -106 -62 -180 -150 -180s-150 74 -150 180v525h21v-525c0 -94 53 -160 129 -160s130 66 130 160v525z" />
    <glyph glyph-name="Uacute" unicode="&#xda;" horiz-adv-x="416" 
d="M338 700h20v-525c0 -106 -62 -180 -150 -180s-150 74 -150 180v525h21v-525c0 -94 53 -160 129 -160s130 66 130 160v525zM157 794l107 79l10 -16l-112 -74z" />
    <glyph glyph-name="Ubreve" unicode="&#x16c;" horiz-adv-x="416" 
d="M338 700h20v-525c0 -106 -62 -180 -150 -180s-150 74 -150 180v525h21v-525c0 -94 53 -160 129 -160s130 66 130 160v525zM270 884h18c0 -66 -33 -101 -80 -101s-80 35 -80 101h18c0 -53 25 -81 62 -81c36 0 62 28 62 81z" />
    <glyph glyph-name="Ucircumflex" unicode="&#xdb;" horiz-adv-x="416" 
d="M338 700h20v-525c0 -106 -62 -180 -150 -180s-150 74 -150 180v525h21v-525c0 -94 53 -160 129 -160s130 66 130 160v525zM123 794l85 79l85 -79l-5 -11l-80 67l-80 -67z" />
    <glyph glyph-name="Udieresis" unicode="&#xdc;" horiz-adv-x="416" 
d="M338 700h20v-525c0 -106 -62 -180 -150 -180s-150 74 -150 180v525h21v-525c0 -94 53 -160 129 -160s130 66 130 160v525zM142 783v51h19v-51h-19zM255 783v51h19v-51h-19z" />
    <glyph glyph-name="Ugrave" unicode="&#xd9;" horiz-adv-x="416" 
d="M338 700h20v-525c0 -106 -62 -180 -150 -180s-150 74 -150 180v525h21v-525c0 -94 53 -160 129 -160s130 66 130 160v525zM152 873l107 -79l-5 -11l-112 74z" />
    <glyph glyph-name="Uhungarumlaut" unicode="&#x170;" horiz-adv-x="416" 
d="M338 700h20v-525c0 -106 -62 -180 -150 -180s-150 74 -150 180v525h21v-525c0 -94 53 -160 129 -160s130 66 130 160v525zM124 792l68 102l15 -12l-75 -99zM197 791l99 97l12 -14l-105 -93z" />
    <glyph glyph-name="Umacron" unicode="&#x16a;" horiz-adv-x="416" 
d="M338 700h20v-525c0 -106 -62 -180 -150 -180s-150 74 -150 180v525h21v-525c0 -94 53 -160 129 -160s130 66 130 160v525zM139 803h138v-20h-138v20z" />
    <glyph glyph-name="Uogonek" unicode="&#x172;" horiz-adv-x="416" 
d="M243 -133c-22 0 -43 17 -43 57c0 37 18 63 26 72c-6 0 -12 -1 -18 -1c-88 0 -150 74 -150 180v525h21v-525c0 -94 53 -160 129 -160s130 66 130 160v525h20v-525c0 -90 -45 -157 -113 -175h1s-28 -32 -28 -76c0 -26 10 -39 26 -39c21 0 31 22 31 22l6 -11s-9 -29 -38 -29
z" />
    <glyph glyph-name="Uring" unicode="&#x16e;" horiz-adv-x="416" 
d="M338 700h20v-525c0 -106 -62 -180 -150 -180s-150 74 -150 180v525h21v-525c0 -94 53 -160 129 -160s130 66 130 160v525zM144 847c0 35 28 63 63 63s64 -28 64 -63s-29 -64 -64 -64s-63 29 -63 64zM163 847c0 -25 19 -45 44 -45s45 20 45 45s-20 44 -45 44
s-44 -19 -44 -44z" />
    <glyph glyph-name="Utilde" unicode="&#x168;" horiz-adv-x="416" 
d="M338 700h20v-525c0 -106 -62 -180 -150 -180s-150 74 -150 180v525h21v-525c0 -94 53 -160 129 -160s130 66 130 160v525zM170 852c39 0 46 -49 78 -49s45 50 45 50l13 -9s-16 -60 -59 -60c-39 0 -48 49 -79 49s-44 -50 -44 -50l-15 9s18 60 61 60z" />
    <glyph glyph-name="V" unicode="V" horiz-adv-x="383" 
d="M343 700h22l-163 -700h-21l-163 700h21l152 -657z" />
    <glyph glyph-name="W" unicode="W" horiz-adv-x="545" 
d="M513 700h21l-126 -700h-21l-115 651l-114 -651h-21l-126 700h21l115 -647l115 647h21l114 -647z" />
    <glyph glyph-name="Wacute" unicode="&#x1e82;" horiz-adv-x="545" 
d="M513 700h21l-126 -700h-21l-115 651l-114 -651h-21l-126 700h21l115 -647l115 647h21l114 -647zM221 794l107 79l10 -16l-112 -74z" />
    <glyph glyph-name="Wcircumflex" unicode="&#x174;" horiz-adv-x="545" 
d="M513 700h21l-126 -700h-21l-115 651l-114 -651h-21l-126 700h21l115 -647l115 647h21l114 -647zM187 794l85 79l85 -79l-5 -11l-80 67l-80 -67z" />
    <glyph glyph-name="Wdieresis" unicode="&#x1e84;" horiz-adv-x="545" 
d="M513 700h21l-126 -700h-21l-115 651l-114 -651h-21l-126 700h21l115 -647l115 647h21l114 -647zM206 783v51h19v-51h-19zM319 783v51h19v-51h-19z" />
    <glyph glyph-name="Wgrave" unicode="&#x1e80;" horiz-adv-x="545" 
d="M513 700h21l-126 -700h-21l-115 651l-114 -651h-21l-126 700h21l115 -647l115 647h21l114 -647zM216 873l107 -79l-5 -11l-112 74z" />
    <glyph glyph-name="X" unicode="X" horiz-adv-x="360" 
d="M312 700h23l-143 -338l153 -362h-23l-143 341l-142 -341h-23l153 362l-142 338h23l131 -317z" />
    <glyph glyph-name="Y" unicode="Y" horiz-adv-x="346" 
d="M162 0v300l-155 400h21l144 -376l146 376h21l-156 -400v-300h-21z" />
    <glyph glyph-name="Yacute" unicode="&#xdd;" horiz-adv-x="346" 
d="M162 0v300l-155 400h21l144 -376l146 376h21l-156 -400v-300h-21zM122 794l107 79l10 -16l-112 -74z" />
    <glyph glyph-name="Ycircumflex" unicode="&#x176;" horiz-adv-x="346" 
d="M162 0v300l-155 400h21l144 -376l146 376h21l-156 -400v-300h-21zM88 794l85 79l85 -79l-5 -11l-80 67l-80 -67z" />
    <glyph glyph-name="Ydieresis" unicode="&#x178;" horiz-adv-x="346" 
d="M162 0v300l-155 400h21l144 -376l146 376h21l-156 -400v-300h-21zM220 783v51h19v-51h-19zM107 783v51h19v-51h-19z" />
    <glyph glyph-name="Ygrave" unicode="&#x1ef2;" horiz-adv-x="346" 
d="M162 0v300l-155 400h21l144 -376l146 376h21l-156 -400v-300h-21zM117 873l107 -79l-5 -11l-112 74z" />
    <glyph glyph-name="Z" unicode="Z" horiz-adv-x="342" 
d="M36 680v20h277v-20l-259 -660h259v-20h-281v20l258 660h-254z" />
    <glyph glyph-name="Zacute" unicode="&#x179;" horiz-adv-x="342" 
d="M36 680v20h277v-20l-259 -660h259v-20h-281v20l258 660h-254zM119 794l107 79l10 -16l-112 -74z" />
    <glyph glyph-name="Zcaron" unicode="&#x17d;" horiz-adv-x="342" 
d="M36 680v20h277v-20l-259 -660h259v-20h-281v20l258 660h-254zM256 862l-85 -79l-85 79l5 11l80 -67l80 67z" />
    <glyph glyph-name="Zdotaccent" unicode="&#x17b;" horiz-adv-x="342" 
d="M36 680v20h277v-20l-259 -660h259v-20h-281v20l258 660h-254zM161 793v51h20v-51h-20z" />
    <glyph glyph-name="uni018F" unicode="&#x18f;" horiz-adv-x="409" 
d="M58 175v175h280v175c0 94 -54 160 -130 160s-129 -66 -129 -160v-32h-21v32c0 106 62 180 150 180s150 -74 150 -180v-350c0 -106 -62 -180 -150 -180s-150 74 -150 180zM79 330v-155c0 -94 53 -160 129 -160s130 66 130 160v155h-259z" />
    <glyph glyph-name="A.smcp" horiz-adv-x="297" 
d="M31 0h-21l127 525h23l127 -525h-21l-35 147h-165zM148 489l-77 -322h155z" />
    <glyph glyph-name="Aacute.smcp" horiz-adv-x="297" 
d="M31 0h-21l127 525h23l127 -525h-21l-35 147h-165zM148 489l-77 -322h155zM96 592l107 79l10 -16l-112 -74z" />
    <glyph glyph-name="Abreve.smcp" horiz-adv-x="297" 
d="M31 0h-21l127 525h23l127 -525h-21l-35 147h-165zM148 489l-77 -322h155zM210 681h18c0 -66 -33 -101 -80 -101s-80 35 -80 101h18c0 -53 25 -81 62 -81c36 0 62 28 62 81z" />
    <glyph glyph-name="Acircumflex.smcp" horiz-adv-x="297" 
d="M31 0h-21l127 525h23l127 -525h-21l-35 147h-165zM148 489l-77 -322h155zM63 592l85 79l85 -79l-5 -11l-80 67l-80 -67z" />
    <glyph glyph-name="Agrave.smcp" horiz-adv-x="297" 
d="M31 0h-21l127 525h23l127 -525h-21l-35 147h-165zM148 489l-77 -322h155zM94 671l107 -79l-5 -11l-112 74z" />
    <glyph glyph-name="Adieresis.smcp" horiz-adv-x="297" 
d="M31 0h-21l127 525h23l127 -525h-21l-35 147h-165zM148 489l-77 -322h155zM82 584v51h19v-51h-19zM195 584v51h19v-51h-19z" />
    <glyph glyph-name="Amacron.smcp" horiz-adv-x="297" 
d="M31 0h-21l127 525h23l127 -525h-21l-35 147h-165zM148 489l-77 -322h155zM79 606h138v-20h-138v20z" />
    <glyph glyph-name="Aogonek.smcp" horiz-adv-x="297" 
d="M31 0h-21l127 525h23l127 -525h-9c-8 -11 -22 -35 -22 -68c0 -26 10 -39 26 -39c21 0 31 22 31 22l6 -11s-9 -29 -38 -29c-22 0 -43 17 -43 57c0 38 19 64 27 72l-34 143h-165zM148 489l-77 -322h155z" />
    <glyph glyph-name="Aring.smcp" horiz-adv-x="297" 
d="M31 0h-21l127 525h23l127 -525h-21l-35 147h-165zM148 489l-77 -322h155zM86 642c0 35 28 63 63 63s64 -28 64 -63s-29 -64 -64 -64s-63 29 -63 64zM105 642c0 -25 19 -45 44 -45s45 20 45 45s-20 44 -45 44s-44 -19 -44 -44z" />
    <glyph glyph-name="Atilde.smcp" horiz-adv-x="297" 
d="M31 0h-21l127 525h23l127 -525h-21l-35 147h-165zM148 489l-77 -322h155zM111 652c39 0 46 -49 78 -49s45 50 45 50l13 -9s-16 -60 -59 -60c-39 0 -48 49 -79 49s-44 -50 -44 -50l-15 9s18 60 61 60z" />
    <glyph glyph-name="AE.smcp" horiz-adv-x="385" 
d="M32 0h-22l165 525h180v-19h-146v-237h131v-19h-131v-230h146v-20h-168v147h-110zM83 167h104v332z" />
    <glyph glyph-name="AEacute.smcp" horiz-adv-x="385" 
d="M32 0h-22l165 525h180v-19h-146v-237h131v-19h-131v-230h146v-20h-168v147h-110zM83 167h104v332zM140 592l107 79l10 -16l-112 -74z" />
    <glyph glyph-name="B.smcp" horiz-adv-x="305" 
d="M54 0v525h89c68 0 117 -46 117 -112v-35c0 -49 -27 -87 -68 -103c49 -15 81 -61 81 -120v-30c0 -73 -48 -125 -117 -125h-102zM156 264h-81v-244h81c57 0 97 43 97 107v30c0 62 -40 107 -97 107zM142 506h-67v-223h67c57 0 97 39 97 93v36c0 54 -40 94 -97 94z" />
    <glyph glyph-name="C.smcp" horiz-adv-x="324" 
d="M262 155h20v-24c0 -80 -48 -135 -117 -135s-117 55 -117 135v263c0 80 48 135 117 135s117 -55 117 -135v-25h-20v26c0 68 -41 115 -97 115s-96 -47 -96 -115v-265c0 -68 40 -115 96 -115s97 48 97 115v25z" />
    <glyph glyph-name="Cacute.smcp" horiz-adv-x="324" 
d="M109 592l107 79l10 -16l-112 -74zM262 155h20v-24c0 -80 -48 -135 -117 -135s-117 55 -117 135v263c0 80 48 135 117 135s117 -55 117 -135v-25h-20v26c0 68 -41 115 -97 115s-96 -47 -96 -115v-265c0 -68 40 -115 96 -115s97 48 97 115v25z" />
    <glyph glyph-name="Ccaron.smcp" horiz-adv-x="324" 
d="M247 660l-85 -79l-85 79l5 11l80 -67l80 67zM262 155h20v-24c0 -80 -48 -135 -117 -135s-117 55 -117 135v263c0 80 48 135 117 135s117 -55 117 -135v-25h-20v26c0 68 -41 115 -97 115s-96 -47 -96 -115v-265c0 -68 40 -115 96 -115s97 48 97 115v25z" />
    <glyph glyph-name="Ccedilla.smcp" horiz-adv-x="324" 
d="M262 155h20v-24c0 -78 -45 -131 -111 -135l-3 -31c21 0 36 -18 36 -46c0 -29 -17 -45 -40 -45c-28 0 -44 25 -44 25l6 15s16 -20 37 -20c14 0 23 8 23 24c0 24 -18 32 -36 32l5 47c-64 4 -107 58 -107 134v263c0 80 48 135 117 135s117 -55 117 -135v-25h-20v26
c0 68 -41 115 -97 115s-96 -47 -96 -115v-265c0 -68 40 -115 96 -115s97 48 97 115v25z" />
    <glyph glyph-name="Ccircumflex.smcp" horiz-adv-x="324" 
d="M262 155h20v-24c0 -80 -48 -135 -117 -135s-117 55 -117 135v263c0 80 48 135 117 135s117 -55 117 -135v-25h-20v26c0 68 -41 115 -97 115s-96 -47 -96 -115v-265c0 -68 40 -115 96 -115s97 48 97 115v25zM77 592l85 79l85 -79l-5 -11l-80 67l-80 -67z" />
    <glyph glyph-name="Cdotaccent.smcp" horiz-adv-x="324" 
d="M262 155h20v-24c0 -80 -48 -135 -117 -135s-117 55 -117 135v263c0 80 48 135 117 135s117 -55 117 -135v-25h-20v26c0 68 -41 115 -97 115s-96 -47 -96 -115v-265c0 -68 40 -115 96 -115s97 48 97 115v25zM152 591v51h20v-51h-20z" />
    <glyph glyph-name="D.smcp" horiz-adv-x="328" 
d="M54 0v525h109c69 0 117 -55 117 -135v-255c0 -80 -48 -135 -117 -135h-109zM163 506h-88v-486h88c56 0 96 47 96 114v257c0 68 -40 115 -96 115z" />
    <glyph glyph-name="Dcaron.smcp" horiz-adv-x="328" 
d="M54 0v525h109c69 0 117 -55 117 -135v-255c0 -80 -48 -135 -117 -135h-109zM163 506h-88v-486h88c56 0 96 47 96 114v257c0 68 -40 115 -96 115zM248 660l-85 -79l-85 79l5 11l80 -67l80 67z" />
    <glyph glyph-name="Dcroat.smcp" horiz-adv-x="327" 
d="M53 0v268h-39v18h39v239h109c69 0 117 -55 117 -135v-255c0 -80 -48 -135 -117 -135h-109zM159 286v-18h-85v-248h88c56 0 96 47 96 114v257c0 68 -40 115 -96 115h-88v-220h85z" />
    <glyph glyph-name="Eth.smcp" horiz-adv-x="327" 
d="M53 0v268h-39v18h39v239h109c69 0 117 -55 117 -135v-255c0 -80 -48 -135 -117 -135h-109zM159 286v-18h-85v-248h88c56 0 96 47 96 114v257c0 68 -40 115 -96 115h-88v-220h85z" />
    <glyph glyph-name="Thorn.smcp" horiz-adv-x="309" 
d="M156 119h-81v-119h-21v525h21v-111h81c68 0 117 -56 117 -135v-25c0 -79 -49 -135 -117 -135zM156 394h-81v-255h81c56 0 96 47 96 114v27c0 67 -40 114 -96 114z" />
    <glyph glyph-name="E.smcp" horiz-adv-x="267" 
d="M237 20v-20h-183v525h183v-19h-162v-237h148v-19h-148v-230h162z" />
    <glyph glyph-name="Eacute.smcp" horiz-adv-x="267" 
d="M237 20v-20h-183v525h183v-19h-162v-237h148v-19h-148v-230h162zM81 592l107 79l10 -16l-112 -74z" />
    <glyph glyph-name="Ebreve.smcp" horiz-adv-x="267" 
d="M54 0v525h183v-19h-162v-237h148v-19h-148v-230h162v-20h-183zM197 681h18c0 -66 -33 -101 -80 -101s-80 35 -80 101h18c0 -53 25 -81 62 -81c36 0 62 28 62 81z" />
    <glyph glyph-name="Ecaron.smcp" horiz-adv-x="267" 
d="M54 0v525h183v-19h-162v-237h148v-19h-148v-230h162v-20h-183zM219 660l-85 -79l-85 79l5 11l80 -67l80 67z" />
    <glyph glyph-name="Ecircumflex.smcp" horiz-adv-x="267" 
d="M54 0v525h183v-19h-162v-237h148v-19h-148v-230h162v-20h-183zM49 592l85 79l85 -79l-5 -11l-80 67l-80 -67z" />
    <glyph glyph-name="Edieresis.smcp" horiz-adv-x="267" 
d="M54 0v525h183v-19h-162v-237h148v-19h-148v-230h162v-20h-183zM67 584v51h19v-51h-19zM180 584v51h19v-51h-19z" />
    <glyph glyph-name="Edotaccent.smcp" horiz-adv-x="267" 
d="M237 20v-20h-183v525h183v-19h-162v-237h148v-19h-148v-230h162zM124 591v51h20v-51h-20z" />
    <glyph glyph-name="Egrave.smcp" horiz-adv-x="267" 
d="M237 20v-20h-183v525h183v-19h-162v-237h148v-19h-148v-230h162zM79 671l107 -79l-5 -11l-112 74z" />
    <glyph glyph-name="Emacron.smcp" horiz-adv-x="267" 
d="M54 0v525h183v-19h-162v-237h148v-19h-148v-230h162v-20h-183zM64 606h138v-20h-138v20z" />
    <glyph glyph-name="Eogonek.smcp" horiz-adv-x="267" 
d="M206 -125c-22 0 -43 17 -43 57c0 33 14 57 23 68h-132v525h183v-19h-162v-237h148v-19h-148v-230h162v-20h-34c-8 -11 -22 -35 -22 -68c0 -26 10 -39 26 -39c21 0 31 22 31 22l6 -11s-9 -29 -38 -29z" />
    <glyph glyph-name="F.smcp" horiz-adv-x="266" 
d="M210 269v-19h-135v-250h-21v525h183v-19h-162v-237h135z" />
    <glyph glyph-name="G.smcp" horiz-adv-x="325" 
d="M169 265h113v-134c0 -80 -48 -135 -117 -135s-117 55 -117 135v263c0 80 48 135 117 135s117 -55 117 -135v-25h-20v26c0 68 -41 115 -97 115s-96 -47 -96 -115v-265c0 -68 40 -115 96 -115s97 48 97 115v115h-93v20z" />
    <glyph glyph-name="Gbreve.smcp" horiz-adv-x="325" 
d="M169 265h113v-134c0 -80 -48 -135 -117 -135s-117 55 -117 135v263c0 80 48 135 117 135s117 -55 117 -135v-25h-20v26c0 68 -41 115 -97 115s-96 -47 -96 -115v-265c0 -68 40 -115 96 -115s97 48 97 115v115h-93v20zM224 681h18c0 -66 -33 -101 -80 -101s-80 35 -80 101
h18c0 -53 25 -81 62 -81c36 0 62 28 62 81z" />
    <glyph glyph-name="Gcircumflex.smcp" horiz-adv-x="325" 
d="M169 265h113v-134c0 -80 -48 -135 -117 -135s-117 55 -117 135v263c0 80 48 135 117 135s117 -55 117 -135v-25h-20v26c0 68 -41 115 -97 115s-96 -47 -96 -115v-265c0 -68 40 -115 96 -115s97 48 97 115v115h-93v20zM77 592l85 79l85 -79l-5 -11l-80 67l-80 -67z" />
    <glyph glyph-name="Gcommaaccent.smcp" horiz-adv-x="325" 
d="M169 265h113v-134c0 -80 -48 -135 -117 -135s-117 55 -117 135v263c0 80 48 135 117 135s117 -55 117 -135v-25h-20v26c0 68 -41 115 -97 115s-96 -47 -96 -115v-265c0 -68 40 -115 96 -115s97 48 97 115v115h-93v20zM140 -157l22 120h22l-33 -124z" />
    <glyph glyph-name="Gdotaccent.smcp" horiz-adv-x="325" 
d="M169 265h113v-134c0 -80 -48 -135 -117 -135s-117 55 -117 135v263c0 80 48 135 117 135s117 -55 117 -135v-25h-20v26c0 68 -41 115 -97 115s-96 -47 -96 -115v-265c0 -68 40 -115 96 -115s97 48 97 115v115h-93v20zM153 591v51h20v-51h-20z" />
    <glyph glyph-name="H.smcp" horiz-adv-x="342" 
d="M75 0h-21v525h21v-256h193v256h20v-525h-20v250h-193v-250z" />
    <glyph glyph-name="Hbar.smcp" horiz-adv-x="341" 
d="M75 0h-22v445h-38v17h38v63h22v-63h192v63h20v-63h38v-17h-38v-445h-20v250h-192v-250zM75 445v-176h192v176h-192z" />
    <glyph glyph-name="Hcircumflex.smcp" horiz-adv-x="342" 
d="M75 0h-21v525h21v-256h193v256h20v-525h-20v250h-193v-250zM85 592l85 79l85 -79l-5 -11l-80 67l-80 -67z" />
    <glyph glyph-name="I.smcp" horiz-adv-x="128" 
d="M54 0v525h21v-525h-21z" />
    <glyph glyph-name="Iacute.smcp" horiz-adv-x="128" 
d="M12 592l107 79l10 -16l-112 -74zM54 0v525h21v-525h-21z" />
    <glyph glyph-name="Ibreve.smcp" horiz-adv-x="128" 
d="M126 681h18c0 -66 -33 -101 -80 -101s-80 35 -80 101h18c0 -53 25 -81 62 -81c36 0 62 28 62 81zM54 0v525h21v-525h-21z" />
    <glyph glyph-name="Icircumflex.smcp" horiz-adv-x="128" 
d="M54 0v525h21v-525h-21zM-21 592l85 79l85 -79l-5 -11l-80 67l-80 -67z" />
    <glyph glyph-name="Idieresis.smcp" horiz-adv-x="128" 
d="M54 0v525h21v-525h-21zM-2 584v51h19v-51h-19zM111 584v51h19v-51h-19z" />
    <glyph glyph-name="Idotaccent.smcp" horiz-adv-x="128" 
d="M54 0v525h21v-525h-21zM54 591v51h20v-51h-20z" />
    <glyph glyph-name="Igrave.smcp" horiz-adv-x="128" 
d="M10 671l107 -79l-5 -11l-112 74zM54 0v525h21v-525h-21z" />
    <glyph glyph-name="Imacron.smcp" horiz-adv-x="128" 
d="M54 0v525h21v-525h-21zM-5 606h138v-20h-138v20z" />
    <glyph glyph-name="Iogonek.smcp" horiz-adv-x="128" 
d="M68 -125c-22 0 -43 17 -43 57c0 44 25 71 29 75v518h21v-525h-10c-8 -11 -22 -35 -22 -68c0 -26 10 -39 26 -39c21 0 31 22 31 22l6 -11s-9 -29 -38 -29z" />
    <glyph glyph-name="Itilde.smcp" horiz-adv-x="128" 
d="M54 0v525h21v-525h-21zM27 652c39 0 46 -49 78 -49s45 50 45 50l13 -9s-16 -60 -59 -60c-39 0 -48 49 -79 49s-44 -50 -44 -50l-15 9s18 60 61 60z" />
    <glyph glyph-name="IJ.smcp" horiz-adv-x="313" 
d="M115 15h14c58 0 99 54 99 131v379h21v-379c0 -89 -50 -150 -120 -150h-14v19zM54 0v525h21v-525h-21z" />
    <glyph glyph-name="J.smcp" horiz-adv-x="179" 
d="M-3 15h14c58 0 99 54 99 131v379h21v-379c0 -89 -50 -150 -120 -150h-14v19z" />
    <glyph glyph-name="Jcircumflex.smcp" horiz-adv-x="179" 
d="M-3 15h14c58 0 99 54 99 131v379h21v-379c0 -89 -50 -150 -120 -150h-14v19zM31 595l85 79l85 -79l-5 -11l-80 67l-80 -67z" />
    <glyph glyph-name="K.smcp" horiz-adv-x="291" 
d="M54 0v525h21v-525h-21zM252 0l-159 272l151 253h24l-151 -253l159 -272h-24z" />
    <glyph glyph-name="Kcommaaccent.smcp" horiz-adv-x="291" 
d="M54 0v525h21v-525h-21zM252 0l-159 272l151 253h24l-151 -253l159 -272h-24zM123 -157l22 120h22l-33 -124z" />
    <glyph glyph-name="L.smcp" horiz-adv-x="268" 
d="M54 0v525h21v-505h163v-20h-184z" />
    <glyph glyph-name="Lacute.smcp" horiz-adv-x="268" 
d="M54 0v525h21v-505h163v-20h-184zM29 592l107 79l10 -16l-112 -74z" />
    <glyph glyph-name="Lcaron.smcp" horiz-adv-x="268" 
d="M54 0v525h21v-505h163v-20h-184zM165 365l18 160h22l-28 -163z" />
    <glyph glyph-name="Lcommaaccent.smcp" horiz-adv-x="268" 
d="M54 0v525h21v-505h163v-20h-184zM111 -157l22 120h22l-33 -124z" />
    <glyph glyph-name="Ldot.smcp" horiz-adv-x="268" 
d="M54 0v525h21v-505h163v-20h-184zM178 238v80h28v-80h-28z" />
    <glyph glyph-name="Lslash.smcp" horiz-adv-x="275" 
d="M19 186l42 46v293h21v-270l56 61l11 -13l-67 -73v-210h163v-20h-184v207l-31 -34z" />
    <glyph glyph-name="M.smcp" horiz-adv-x="394" 
d="M74 0h-20v525h19l123 -384l125 384h19v-525h-20v464l-116 -359h-15l-115 356v-461z" />
    <glyph glyph-name="N.smcp" horiz-adv-x="342" 
d="M74 0h-20v525h20l194 -473v473h20v-525h-19l-195 473v-473z" />
    <glyph glyph-name="Nacute.smcp" horiz-adv-x="342" 
d="M74 0h-20v525h20l194 -473v473h20v-525h-19l-195 473v-473zM118 592l107 79l10 -16l-112 -74z" />
    <glyph glyph-name="Ncaron.smcp" horiz-adv-x="342" 
d="M74 0h-20v525h20l194 -473v473h20v-525h-19l-195 473v-473zM255 660l-85 -79l-85 79l5 11l80 -67l80 67z" />
    <glyph glyph-name="Ncommaaccent.smcp" horiz-adv-x="342" 
d="M74 0h-20v525h20l194 -473v473h20v-525h-19l-195 473v-473zM147 -157l22 120h22l-33 -124z" />
    <glyph glyph-name="Ntilde.smcp" horiz-adv-x="342" 
d="M74 0h-20v525h20l194 -473v473h20v-525h-19l-195 473v-473zM132 652c39 0 46 -49 78 -49s45 50 45 50l13 -9s-16 -60 -59 -60c-39 0 -48 49 -79 49s-44 -50 -44 -50l-15 9s18 60 61 60z" />
    <glyph glyph-name="Eng.smcp" horiz-adv-x="342" 
d="M74 0h-20v525h20l194 -473v473h20v-533c0 -89 -49 -150 -120 -150h-14v20h14c58 0 100 53 100 131v9l-194 471v-473z" />
    <glyph glyph-name="O.smcp" horiz-adv-x="330" 
d="M282 131c0 -80 -48 -135 -117 -135s-117 55 -117 135v263c0 80 48 135 117 135s117 -55 117 -135v-263zM262 130v265c0 68 -41 115 -97 115s-96 -47 -96 -115v-265c0 -68 40 -115 96 -115s97 48 97 115z" />
    <glyph glyph-name="Oacute.smcp" horiz-adv-x="330" 
d="M112 592l107 79l10 -16l-112 -74zM282 131c0 -80 -48 -135 -117 -135s-117 55 -117 135v263c0 80 48 135 117 135s117 -55 117 -135v-263zM262 130v265c0 68 -41 115 -97 115s-96 -47 -96 -115v-265c0 -68 40 -115 96 -115s97 48 97 115z" />
    <glyph glyph-name="Obreve.smcp" horiz-adv-x="330" 
d="M227 681h18c0 -66 -33 -101 -80 -101s-80 35 -80 101h18c0 -53 25 -81 62 -81c36 0 62 28 62 81zM282 131c0 -80 -48 -135 -117 -135s-117 55 -117 135v263c0 80 48 135 117 135s117 -55 117 -135v-263zM262 130v265c0 68 -41 115 -97 115s-96 -47 -96 -115v-265
c0 -68 40 -115 96 -115s97 48 97 115z" />
    <glyph glyph-name="Ocircumflex.smcp" horiz-adv-x="330" 
d="M282 131c0 -80 -48 -135 -117 -135s-117 55 -117 135v263c0 80 48 135 117 135s117 -55 117 -135v-263zM262 130v265c0 68 -41 115 -97 115s-96 -47 -96 -115v-265c0 -68 40 -115 96 -115s97 48 97 115zM80 592l85 79l85 -79l-5 -11l-80 67l-80 -67z" />
    <glyph glyph-name="Odieresis.smcp" horiz-adv-x="330" 
d="M282 131c0 -80 -48 -135 -117 -135s-117 55 -117 135v263c0 80 48 135 117 135s117 -55 117 -135v-263zM262 130v265c0 68 -41 115 -97 115s-96 -47 -96 -115v-265c0 -68 40 -115 96 -115s97 48 97 115zM99 584v51h19v-51h-19zM212 584v51h19v-51h-19z" />
    <glyph glyph-name="Ograve.smcp" horiz-adv-x="330" 
d="M110 671l107 -79l-5 -11l-112 74zM282 131c0 -80 -48 -135 -117 -135s-117 55 -117 135v263c0 80 48 135 117 135s117 -55 117 -135v-263zM262 130v265c0 68 -41 115 -97 115s-96 -47 -96 -115v-265c0 -68 40 -115 96 -115s97 48 97 115z" />
    <glyph glyph-name="Ohungarumlaut.smcp" horiz-adv-x="330" 
d="M282 131c0 -80 -48 -135 -117 -135s-117 55 -117 135v263c0 80 48 135 117 135s117 -55 117 -135v-263zM262 130v265c0 68 -41 115 -97 115s-96 -47 -96 -115v-265c0 -68 40 -115 96 -115s97 48 97 115zM78 589l68 102l15 -12l-75 -99zM151 588l99 97l12 -14l-105 -93z
" />
    <glyph glyph-name="Omacron.smcp" horiz-adv-x="330" 
d="M282 131c0 -80 -48 -135 -117 -135s-117 55 -117 135v263c0 80 48 135 117 135s117 -55 117 -135v-263zM262 130v265c0 68 -41 115 -97 115s-96 -47 -96 -115v-265c0 -68 40 -115 96 -115s97 48 97 115zM96 606h138v-20h-138v20z" />
    <glyph glyph-name="Oslash.smcp" horiz-adv-x="330" 
d="M45 -4l23 55c-12 22 -19 49 -19 80v263c0 80 47 135 117 135c35 0 64 -14 85 -39l17 39h18l-23 -56c13 -21 20 -48 20 -79v-263c0 -80 -49 -135 -117 -135c-36 0 -66 14 -87 39l-16 -39h-18zM69 130c0 -20 3 -39 9 -54l164 391c-17 27 -44 43 -76 43
c-58 0 -97 -47 -97 -115v-265zM261 130v265c0 19 -3 37 -9 52l-164 -391c17 -26 44 -41 78 -41c56 0 95 48 95 115z" />
    <glyph glyph-name="Oslashacute.smcp" horiz-adv-x="330" 
d="M45 -4l23 55c-12 22 -19 49 -19 80v263c0 80 47 135 117 135c35 0 64 -14 85 -39l17 39h18l-23 -56c13 -21 20 -48 20 -79v-263c0 -80 -49 -135 -117 -135c-36 0 -66 14 -87 39l-16 -39h-18zM69 130c0 -20 3 -39 9 -54l164 391c-17 27 -44 43 -76 43
c-58 0 -97 -47 -97 -115v-265zM261 130v265c0 19 -3 37 -9 52l-164 -391c17 -26 44 -41 78 -41c56 0 95 48 95 115zM112 592l107 79l10 -16l-112 -74z" />
    <glyph glyph-name="Otilde.smcp" horiz-adv-x="330" 
d="M282 131c0 -80 -48 -135 -117 -135s-117 55 -117 135v263c0 80 48 135 117 135s117 -55 117 -135v-263zM262 130v265c0 68 -41 115 -97 115s-96 -47 -96 -115v-265c0 -68 40 -115 96 -115s97 48 97 115zM127 652c39 0 46 -49 78 -49s45 50 45 50l13 -9s-16 -60 -59 -60
c-39 0 -48 49 -79 49s-44 -50 -44 -50l-15 9s18 60 61 60z" />
    <glyph glyph-name="OE.smcp" horiz-adv-x="474" 
d="M262 0v52c-21 -35 -55 -56 -97 -56c-69 0 -117 55 -117 135v263c0 80 48 135 117 135c42 0 76 -21 97 -56v52h182v-19h-161v-237h147v-19h-147v-230h161v-20h-182zM165 15c54 0 95 45 97 110v270c0 68 -41 115 -97 115s-96 -47 -96 -115v-265c0 -68 40 -115 96 -115z" />
    <glyph glyph-name="P.smcp" horiz-adv-x="309" 
d="M156 231h-81v-231h-21v525h102c68 0 117 -55 117 -135v-24c0 -80 -49 -135 -117 -135zM155 506h-80v-256h80c57 0 96 47 96 115v26c0 68 -39 115 -96 115z" />
    <glyph glyph-name="Q.smcp" horiz-adv-x="331" 
d="M283 -80l-54 95c-18 -12 -40 -19 -64 -19c-69 0 -117 55 -117 135v263c0 80 48 135 117 135s117 -55 117 -135v-263c0 -44 -15 -80 -39 -104l55 -96zM262 130v265c0 68 -41 115 -97 115s-96 -47 -96 -115v-265c0 -68 40 -115 96 -115s97 48 97 115z" />
    <glyph glyph-name="R.smcp" horiz-adv-x="315" 
d="M75 231v-231h-21v525h97c68 0 117 -55 117 -135v-24c0 -67 -35 -117 -86 -131l99 -235h-20l-98 231h-88zM150 506h-75v-256h75c57 0 96 47 96 115v26c0 68 -39 115 -96 115z" />
    <glyph glyph-name="Racute.smcp" horiz-adv-x="315" 
d="M75 231v-231h-21v525h97c68 0 117 -55 117 -135v-24c0 -67 -35 -117 -86 -131l99 -235h-20l-98 231h-88zM150 506h-75v-256h75c57 0 96 47 96 115v26c0 68 -39 115 -96 115zM105 592l107 79l10 -16l-112 -74z" />
    <glyph glyph-name="Rcaron.smcp" horiz-adv-x="315" 
d="M75 231v-231h-21v525h97c68 0 117 -55 117 -135v-24c0 -67 -35 -117 -86 -131l99 -235h-20l-98 231h-88zM150 506h-75v-256h75c57 0 96 47 96 115v26c0 68 -39 115 -96 115zM242 660l-85 -79l-85 79l5 11l80 -67l80 67z" />
    <glyph glyph-name="Rcommaaccent.smcp" horiz-adv-x="315" 
d="M75 231v-231h-21v525h97c68 0 117 -55 117 -135v-24c0 -67 -35 -117 -86 -131l99 -235h-20l-98 231h-88zM150 506h-75v-256h75c57 0 96 47 96 115v26c0 68 -39 115 -96 115zM135 -157l22 120h22l-33 -124z" />
    <glyph glyph-name="S.smcp" horiz-adv-x="295" 
d="M232 378v17c0 67 -36 115 -87 115c-49 0 -85 -44 -85 -109c0 -43 16 -79 42 -96l106 -70c31 -21 50 -61 50 -110c0 -77 -46 -129 -111 -129c-67 0 -113 55 -113 135v20h20v-20c0 -68 38 -116 93 -116c52 0 90 44 90 110c0 41 -15 77 -43 95l-104 69
c-32 21 -51 62 -51 112c0 76 45 128 106 128c64 0 108 -55 108 -134v-17h-21z" />
    <glyph glyph-name="Sacute.smcp" horiz-adv-x="295" 
d="M95 592l107 79l10 -16l-112 -74zM232 378v17c0 67 -36 115 -87 115c-49 0 -85 -44 -85 -109c0 -43 16 -79 42 -96l106 -70c31 -21 50 -61 50 -110c0 -77 -46 -129 -111 -129c-67 0 -113 55 -113 135v20h20v-20c0 -68 38 -116 93 -116c52 0 90 44 90 110
c0 41 -15 77 -43 95l-104 69c-32 21 -51 62 -51 112c0 76 45 128 106 128c64 0 108 -55 108 -134v-17h-21z" />
    <glyph glyph-name="Scaron.smcp" horiz-adv-x="295" 
d="M232 660l-85 -79l-85 79l5 11l80 -67l80 67zM232 378v17c0 67 -36 115 -87 115c-49 0 -85 -44 -85 -109c0 -43 16 -79 42 -96l106 -70c31 -21 50 -61 50 -110c0 -77 -46 -129 -111 -129c-67 0 -113 55 -113 135v20h20v-20c0 -68 38 -116 93 -116c52 0 90 44 90 110
c0 41 -15 77 -43 95l-104 69c-32 21 -51 62 -51 112c0 76 45 128 106 128c64 0 108 -55 108 -134v-17h-21z" />
    <glyph glyph-name="Scedilla.smcp" horiz-adv-x="295" 
d="M232 378v17c0 67 -36 115 -87 115c-49 0 -85 -44 -85 -109c0 -43 16 -79 42 -96l106 -70c31 -21 50 -61 50 -110c0 -74 -42 -124 -102 -128l-3 -32c21 0 36 -18 36 -46c0 -29 -17 -45 -40 -45c-28 0 -44 25 -44 25l6 15s16 -20 37 -20c14 0 23 8 23 24
c0 24 -18 32 -36 32l5 46c-63 4 -106 57 -106 135v20h20v-20c0 -68 38 -116 93 -116c52 0 90 44 90 110c0 41 -15 77 -43 95l-104 69c-32 21 -51 62 -51 112c0 76 45 128 106 128c64 0 108 -55 108 -134v-17h-21z" />
    <glyph glyph-name="Scircumflex.smcp" horiz-adv-x="295" 
d="M232 378v17c0 67 -36 115 -87 115c-49 0 -85 -44 -85 -109c0 -43 16 -79 42 -96l106 -70c31 -21 50 -61 50 -110c0 -77 -46 -129 -111 -129c-67 0 -113 55 -113 135v20h20v-20c0 -68 38 -116 93 -116c52 0 90 44 90 110c0 41 -15 77 -43 95l-104 69
c-32 21 -51 62 -51 112c0 76 45 128 106 128c64 0 108 -55 108 -134v-17h-21zM62 592l85 79l85 -79l-5 -11l-80 67l-80 -67z" />
    <glyph glyph-name="Scommaaccent.smcp" horiz-adv-x="295" 
d="M232 378v17c0 67 -36 115 -87 115c-49 0 -85 -44 -85 -109c0 -43 16 -79 42 -96l106 -70c31 -21 50 -61 50 -110c0 -77 -46 -129 -111 -129c-67 0 -113 55 -113 135v20h20v-20c0 -68 38 -116 93 -116c52 0 90 44 90 110c0 41 -15 77 -43 95l-104 69
c-32 21 -51 62 -51 112c0 76 45 128 106 128c64 0 108 -55 108 -134v-17h-21zM115 -157l22 120h22l-33 -124z" />
    <glyph glyph-name="T.smcp" horiz-adv-x="286" 
d="M270 525v-19h-117v-506h-20v506h-117v19h254z" />
    <glyph glyph-name="Tbar.smcp" horiz-adv-x="286" 
d="M236 294v-18h-83v-276h-20v276h-84v18h84v212h-117v19h254v-19h-117v-212h83z" />
    <glyph glyph-name="Tcaron.smcp" horiz-adv-x="287" 
d="M270 525v-19h-117v-506h-20v506h-117v19h254zM229 660l-85 -79l-85 79l5 11l80 -67l80 67z" />
    <glyph glyph-name="Tcommaaccent.smcp" horiz-adv-x="286" 
d="M270 525v-19h-117v-506h-20v506h-117v19h254zM115 -157l22 120h22l-33 -124z" />
    <glyph glyph-name="uni021A.smcp" horiz-adv-x="286" 
d="M270 525v-19h-117v-506h-20v506h-117v19h254zM115 -157l22 120h22l-33 -124z" />
    <glyph glyph-name="U.smcp" horiz-adv-x="330" 
d="M262 525h20v-394c0 -80 -48 -135 -117 -135s-117 55 -117 135v394h21v-395c0 -68 40 -115 96 -115s97 48 97 115v395z" />
    <glyph glyph-name="Uacute.smcp" horiz-adv-x="330" 
d="M113 592l107 79l10 -16l-112 -74zM262 525h20v-394c0 -80 -48 -135 -117 -135s-117 55 -117 135v394h21v-395c0 -68 40 -115 96 -115s97 48 97 115v395z" />
    <glyph glyph-name="Ubreve.smcp" horiz-adv-x="330" 
d="M227 681h18c0 -66 -33 -101 -80 -101s-80 35 -80 101h18c0 -53 25 -81 62 -81c36 0 62 28 62 81zM262 525h20v-394c0 -80 -48 -135 -117 -135s-117 55 -117 135v394h21v-395c0 -68 40 -115 96 -115s97 48 97 115v395z" />
    <glyph glyph-name="Ucircumflex.smcp" horiz-adv-x="330" 
d="M262 525h20v-394c0 -80 -48 -135 -117 -135s-117 55 -117 135v394h21v-395c0 -68 40 -115 96 -115s97 48 97 115v395zM80 592l85 79l85 -79l-5 -11l-80 67l-80 -67z" />
    <glyph glyph-name="Udieresis.smcp" horiz-adv-x="330" 
d="M262 525h20v-394c0 -80 -48 -135 -117 -135s-117 55 -117 135v394h21v-395c0 -68 40 -115 96 -115s97 48 97 115v395zM99 584v51h19v-51h-19zM212 584v51h19v-51h-19z" />
    <glyph glyph-name="Ugrave.smcp" horiz-adv-x="330" 
d="M111 671l107 -79l-5 -11l-112 74zM262 525h20v-394c0 -80 -48 -135 -117 -135s-117 55 -117 135v394h21v-395c0 -68 40 -115 96 -115s97 48 97 115v395z" />
    <glyph glyph-name="Uhungarumlaut.smcp" horiz-adv-x="330" 
d="M262 525h20v-394c0 -80 -48 -135 -117 -135s-117 55 -117 135v394h21v-395c0 -68 40 -115 96 -115s97 48 97 115v395zM79 589l68 102l15 -12l-75 -99zM152 588l99 97l12 -14l-105 -93z" />
    <glyph glyph-name="Umacron.smcp" horiz-adv-x="330" 
d="M262 525h20v-394c0 -80 -48 -135 -117 -135s-117 55 -117 135v394h21v-395c0 -68 40 -115 96 -115s97 48 97 115v395zM96 606h138v-20h-138v20z" />
    <glyph glyph-name="Uogonek.smcp" horiz-adv-x="330" 
d="M193 -125c-22 0 -43 17 -43 57c0 29 11 52 20 64h-5c-69 0 -117 55 -117 135v394h21v-395c0 -68 40 -115 96 -115s97 48 97 115v395h20v-394c0 -71 -37 -121 -93 -132c-8 -12 -21 -35 -21 -67c0 -26 10 -39 26 -39c21 0 31 22 31 22l6 -11s-9 -29 -38 -29z" />
    <glyph glyph-name="Uring.smcp" horiz-adv-x="330" 
d="M102 642c0 35 28 63 63 63s64 -28 64 -63s-29 -64 -64 -64s-63 29 -63 64zM121 642c0 -25 19 -45 44 -45s45 20 45 45s-20 44 -45 44s-44 -19 -44 -44zM262 525h20v-394c0 -80 -48 -135 -117 -135s-117 55 -117 135v394h21v-395c0 -68 40 -115 96 -115s97 48 97 115v395z
" />
    <glyph glyph-name="Utilde.smcp" horiz-adv-x="330" 
d="M262 525h20v-394c0 -80 -48 -135 -117 -135s-117 55 -117 135v394h21v-395c0 -68 40 -115 96 -115s97 48 97 115v395zM127 652c39 0 46 -49 78 -49s45 50 45 50l13 -9s-16 -60 -59 -60c-39 0 -48 49 -79 49s-44 -50 -44 -50l-15 9s18 60 61 60z" />
    <glyph glyph-name="V.smcp" horiz-adv-x="308" 
d="M267 525h23l-126 -525h-21l-125 525h21l114 -485z" />
    <glyph glyph-name="W.smcp" horiz-adv-x="431" 
d="M397 525h21l-96 -525h-21l-85 480l-85 -480h-21l-97 525h21l86 -478l85 478h21l85 -478z" />
    <glyph glyph-name="Wacute.smcp" horiz-adv-x="431" 
d="M397 525h21l-96 -525h-21l-85 480l-85 -480h-21l-97 525h21l86 -478l85 478h21l85 -478zM163 592l107 79l10 -16l-112 -74z" />
    <glyph glyph-name="Wcircumflex.smcp" horiz-adv-x="431" 
d="M397 525h21l-96 -525h-21l-85 480l-85 -480h-21l-97 525h21l86 -478l85 478h21l85 -478zM130 592l85 79l85 -79l-5 -11l-80 67l-80 -67z" />
    <glyph glyph-name="Wdieresis.smcp" horiz-adv-x="431" 
d="M397 525h21l-96 -525h-21l-85 480l-85 -480h-21l-97 525h21l86 -478l85 478h21l85 -478zM149 584v51h19v-51h-19zM262 584v51h19v-51h-19z" />
    <glyph glyph-name="Wgrave.smcp" horiz-adv-x="431" 
d="M397 525h21l-96 -525h-21l-85 480l-85 -480h-21l-97 525h21l86 -478l85 478h21l85 -478zM161 671l107 -79l-5 -11l-112 74z" />
    <glyph glyph-name="X.smcp" horiz-adv-x="290" 
d="M243 525h23l-109 -254l117 -271h-23l-107 249l-106 -249h-23l117 271l-109 254h23l98 -232z" />
    <glyph glyph-name="Y.smcp" horiz-adv-x="280" 
d="M129 0v223l-119 302h21l109 -279l109 279h21l-120 -302v-223h-21z" />
    <glyph glyph-name="Yacute.smcp" horiz-adv-x="280" 
d="M129 0v223l-119 302h21l109 -279l109 279h21l-120 -302v-223h-21zM88 592l107 79l10 -16l-112 -74z" />
    <glyph glyph-name="Ycircumflex.smcp" horiz-adv-x="280" 
d="M129 0v223l-119 302h21l109 -279l109 279h21l-120 -302v-223h-21zM56 592l85 79l85 -79l-5 -11l-80 67l-80 -67z" />
    <glyph glyph-name="Ydieresis.smcp" horiz-adv-x="280" 
d="M129 0v223l-119 302h21l109 -279l109 279h21l-120 -302v-223h-21zM187 584v51h19v-51h-19zM74 584v51h19v-51h-19z" />
    <glyph glyph-name="Ygrave.smcp" horiz-adv-x="280" 
d="M129 0v223l-119 302h21l109 -279l109 279h21l-120 -302v-223h-21zM86 671l107 -79l-5 -11l-112 74z" />
    <glyph glyph-name="Z.smcp" horiz-adv-x="273" 
d="M31 506v19h216v-18l-195 -487h195v-20h-219v18l196 488h-193z" />
    <glyph glyph-name="Zacute.smcp" horiz-adv-x="273" 
d="M31 506v19h216v-18l-195 -487h195v-20h-219v18l196 488h-193zM83 592l107 79l10 -16l-112 -74z" />
    <glyph glyph-name="Zcaron.smcp" horiz-adv-x="273" 
d="M31 506v19h216v-18l-195 -487h195v-20h-219v18l196 488h-193zM222 660l-85 -79l-85 79l5 11l80 -67l80 67z" />
    <glyph glyph-name="Zdotaccent.smcp" horiz-adv-x="273" 
d="M31 506v19h216v-18l-195 -487h195v-20h-219v18l196 488h-193zM127 591v51h20v-51h-20z" />
    <glyph glyph-name="uni018F.smcp" horiz-adv-x="325" 
d="M48 131v134h214v130c0 68 -41 115 -97 115s-96 -47 -96 -115v-26h-21v25c0 80 48 135 117 135s117 -55 117 -135v-263c0 -80 -48 -135 -117 -135s-117 55 -117 135zM69 245v-115c0 -67 40 -115 96 -115s97 47 97 115v115h-193z" />
    <glyph glyph-name="a" unicode="a" horiz-adv-x="353" 
d="M74 355h-20v30c0 88 50 150 121 150c70 0 120 -62 120 -150v-385h-20v68c-20 -45 -59 -73 -110 -73c-69 0 -118 54 -118 130v30c0 76 55 119 127 125l101 9v96c0 76 -42 130 -100 130c-59 0 -101 -54 -101 -130v-30zM275 145v124l-101 -9c-67 -6 -107 -46 -107 -105v-30
c0 -64 42 -110 101 -110c63 0 107 54 107 130z" />
    <glyph glyph-name="aacute" unicode="&#xe1;" horiz-adv-x="353" 
d="M74 355h-20v30c0 88 50 150 121 150c70 0 120 -62 120 -150v-385h-20v68c-20 -45 -59 -73 -110 -73c-69 0 -118 54 -118 130v30c0 76 55 119 127 125l101 9v96c0 76 -42 130 -100 130c-59 0 -101 -54 -101 -130v-30zM275 145v124l-101 -9c-67 -6 -107 -46 -107 -105v-30
c0 -64 42 -110 101 -110c63 0 107 54 107 130zM125 624l107 79l10 -16l-112 -74z" />
    <glyph glyph-name="abreve" unicode="&#x103;" horiz-adv-x="353" 
d="M74 355h-20v30c0 88 50 150 121 150c70 0 120 -62 120 -150v-385h-20v68c-20 -45 -59 -73 -110 -73c-69 0 -118 54 -118 130v30c0 76 55 119 127 125l101 9v96c0 76 -42 130 -100 130c-59 0 -101 -54 -101 -130v-30zM275 145v124l-101 -9c-67 -6 -107 -46 -107 -105v-30
c0 -64 42 -110 101 -110c63 0 107 54 107 130zM238 714h18c0 -66 -33 -101 -80 -101s-80 35 -80 101h18c0 -53 25 -81 62 -81c36 0 62 28 62 81z" />
    <glyph glyph-name="acircumflex" unicode="&#xe2;" horiz-adv-x="353" 
d="M74 355h-20v30c0 88 50 150 121 150c70 0 120 -62 120 -150v-385h-20v68c-20 -45 -59 -73 -110 -73c-69 0 -118 54 -118 130v30c0 76 55 119 127 125l101 9v96c0 76 -42 130 -100 130c-59 0 -101 -54 -101 -130v-30zM275 145v124l-101 -9c-67 -6 -107 -46 -107 -105v-30
c0 -64 42 -110 101 -110c63 0 107 54 107 130zM91 624l85 79l85 -79l-5 -11l-80 67l-80 -67z" />
    <glyph glyph-name="adieresis" unicode="&#xe4;" horiz-adv-x="353" 
d="M74 355h-20v30c0 88 50 150 121 150c70 0 120 -62 120 -150v-385h-20v68c-20 -45 -59 -73 -110 -73c-69 0 -118 54 -118 130v30c0 76 55 119 127 125l101 9v96c0 76 -42 130 -100 130c-59 0 -101 -54 -101 -130v-30zM168 15c61 0 105 51 107 124v130l-101 -9
c-67 -6 -107 -46 -107 -105v-30c0 -64 42 -110 101 -110zM110 613v51h19v-51h-19zM223 613v51h19v-51h-19z" />
    <glyph glyph-name="agrave" unicode="&#xe0;" horiz-adv-x="353" 
d="M74 355h-20v30c0 88 50 150 121 150c70 0 120 -62 120 -150v-385h-20v68c-20 -45 -59 -73 -110 -73c-69 0 -118 54 -118 130v30c0 76 55 119 127 125l101 9v96c0 76 -42 130 -100 130c-59 0 -101 -54 -101 -130v-30zM168 15c61 0 105 51 107 124v130l-101 -9
c-67 -6 -107 -46 -107 -105v-30c0 -64 42 -110 101 -110zM120 703l107 -79l-5 -11l-112 74z" />
    <glyph glyph-name="amacron" unicode="&#x101;" horiz-adv-x="353" 
d="M74 355h-20v30c0 88 50 150 121 150c70 0 120 -62 120 -150v-385h-20v68c-20 -45 -59 -73 -110 -73c-69 0 -118 54 -118 130v30c0 76 55 119 127 125l101 9v96c0 76 -42 130 -100 130c-59 0 -101 -54 -101 -130v-30zM168 15c61 0 105 51 107 124v130l-101 -9
c-67 -6 -107 -46 -107 -105v-30c0 -64 42 -110 101 -110zM107 633h138v-20h-138v20z" />
    <glyph glyph-name="aogonek" unicode="&#x105;" horiz-adv-x="353" 
d="M290 -133c-22 0 -43 17 -43 57c0 47 30 76 30 76h-2v68c-20 -45 -59 -73 -110 -73c-69 0 -118 54 -118 130v30c0 76 55 119 127 125l101 9v96c0 76 -42 130 -100 130c-59 0 -101 -54 -101 -130v-30h-20v30c0 88 50 150 121 150c70 0 120 -62 120 -150v-385h-2
s-28 -32 -28 -76c0 -26 10 -39 26 -39c21 0 31 22 31 22l6 -11s-9 -29 -38 -29zM275 145v124l-101 -9c-67 -6 -107 -46 -107 -105v-30c0 -64 42 -110 101 -110c63 0 107 54 107 130z" />
    <glyph glyph-name="aring" unicode="&#xe5;" horiz-adv-x="353" 
d="M74 355h-20v30c0 88 50 150 121 150c70 0 120 -62 120 -150v-385h-20v68c-20 -45 -59 -73 -110 -73c-69 0 -118 54 -118 130v30c0 76 55 119 127 125l101 9v96c0 76 -42 130 -100 130c-59 0 -101 -54 -101 -130v-30zM168 15c61 0 105 51 107 124v130l-101 -9
c-67 -6 -107 -46 -107 -105v-30c0 -64 42 -110 101 -110zM111 677c0 35 28 63 63 63s64 -28 64 -63s-29 -64 -64 -64s-63 29 -63 64zM130 677c0 -25 19 -45 44 -45s45 20 45 45s-20 44 -45 44s-44 -19 -44 -44z" />
    <glyph glyph-name="atilde" unicode="&#xe3;" horiz-adv-x="353" 
d="M74 355h-20v30c0 88 50 150 121 150c70 0 120 -62 120 -150v-385h-20v68c-20 -45 -59 -73 -110 -73c-69 0 -118 54 -118 130v30c0 76 55 119 127 125l101 9v96c0 76 -42 130 -100 130c-59 0 -101 -54 -101 -130v-30zM275 145v124l-101 -9c-67 -6 -107 -46 -107 -105v-30
c0 -64 42 -110 101 -110c63 0 107 54 107 130zM138 682c39 0 46 -49 78 -49s45 50 45 50l13 -9s-16 -60 -59 -60c-39 0 -48 49 -79 49s-44 -50 -44 -50l-15 9s18 60 61 60z" />
    <glyph glyph-name="ae" unicode="&#xe6;" horiz-adv-x="581" 
d="M534 265h-235v-120c0 -76 44 -130 107 -130s108 54 108 130v20h20v-20c0 -88 -53 -150 -128 -150c-59 0 -103 37 -120 96c-16 -59 -59 -96 -117 -96c-70 0 -119 54 -119 130v30c0 76 55 114 127 120l101 9v101c0 76 -42 130 -100 130c-59 0 -101 -54 -101 -130v-30h-20
v30c0 88 50 150 121 150c52 0 93 -35 110 -88c19 53 62 88 118 88c75 0 128 -62 128 -150v-120zM514 285v100c0 76 -45 130 -108 130s-107 -54 -107 -130v-100h215zM171 15c61 0 105 51 107 124v125l-101 -9c-67 -6 -107 -41 -107 -100v-30c0 -64 42 -110 101 -110z" />
    <glyph glyph-name="aeacute" unicode="&#x1fd;" horiz-adv-x="581" 
d="M534 265h-235v-120c0 -76 44 -130 107 -130s108 54 108 130v20h20v-20c0 -88 -53 -150 -128 -150c-59 0 -103 37 -120 96c-16 -59 -59 -96 -117 -96c-70 0 -119 54 -119 130v30c0 76 55 114 127 120l101 9v101c0 76 -42 130 -100 130c-59 0 -101 -54 -101 -130v-30h-20
v30c0 88 50 150 121 150c52 0 93 -35 110 -88c19 53 62 88 118 88c75 0 128 -62 128 -150v-120zM514 285v100c0 76 -45 130 -108 130s-107 -54 -107 -130v-100h215zM278 145v119l-101 -9c-67 -6 -107 -41 -107 -100v-30c0 -64 42 -110 101 -110c63 0 107 54 107 130z
M239 624l107 79l10 -16l-112 -74z" />
    <glyph glyph-name="b" unicode="b" horiz-adv-x="357" 
d="M58 0v700h20v-238c20 45 58 73 109 73c70 0 119 -58 119 -140v-260c0 -82 -49 -140 -119 -140c-51 0 -89 27 -109 72v-67h-20zM185 15c59 0 101 50 101 120v260c0 70 -42 120 -101 120c-62 0 -105 -52 -107 -125v-245c0 -76 44 -130 107 -130z" />
    <glyph glyph-name="c" unicode="c" horiz-adv-x="349" 
d="M286 355v30c0 76 -44 130 -107 130c-64 0 -108 -54 -108 -130v-240c0 -76 44 -130 108 -130c63 0 107 54 107 130v30h20v-30c0 -88 -53 -150 -127 -150c-75 0 -128 62 -128 150v240c0 88 53 150 128 150c74 0 127 -62 127 -150v-30h-20z" />
    <glyph glyph-name="cacute" unicode="&#x107;" horiz-adv-x="349" 
d="M286 355v30c0 76 -44 130 -107 130c-64 0 -108 -54 -108 -130v-240c0 -76 44 -130 108 -130c63 0 107 54 107 130v30h20v-30c0 -88 -53 -150 -127 -150c-75 0 -128 62 -128 150v240c0 88 53 150 128 150c74 0 127 -62 127 -150v-30h-20zM123 624l107 79l10 -16l-112 -74z
" />
    <glyph glyph-name="ccaron" unicode="&#x10d;" horiz-adv-x="349" 
d="M286 355v30c0 76 -44 130 -107 130c-64 0 -108 -54 -108 -130v-240c0 -76 44 -130 108 -130c63 0 107 54 107 130v30h20v-30c0 -88 -53 -150 -127 -150c-75 0 -128 62 -128 150v240c0 88 53 150 128 150c74 0 127 -62 127 -150v-30h-20zM259 692l-85 -79l-85 79l5 11
l80 -67l80 67z" />
    <glyph glyph-name="ccedilla" unicode="&#xe7;" horiz-adv-x="349" 
d="M286 355v30c0 76 -44 130 -107 130c-64 0 -108 -54 -108 -130v-240c0 -76 44 -130 108 -130c63 0 107 54 107 130v30h20v-30c0 -86 -51 -147 -122 -150l-4 -37c21 0 36 -18 36 -46c0 -29 -17 -45 -40 -45c-28 0 -44 25 -44 25l6 15s16 -20 37 -20c14 0 23 8 23 24
c0 24 -18 32 -36 32l6 53c-69 5 -117 65 -117 149v240c0 88 53 150 128 150c74 0 127 -62 127 -150v-30h-20z" />
    <glyph glyph-name="ccircumflex" unicode="&#x109;" horiz-adv-x="349" 
d="M286 355v30c0 76 -44 130 -107 130c-64 0 -108 -54 -108 -130v-240c0 -76 44 -130 108 -130c63 0 107 54 107 130v30h20v-30c0 -88 -53 -150 -127 -150c-75 0 -128 62 -128 150v240c0 88 53 150 128 150c74 0 127 -62 127 -150v-30h-20zM89 624l85 79l85 -79l-5 -11
l-80 67l-80 -67z" />
    <glyph glyph-name="cdotaccent" unicode="&#x10b;" horiz-adv-x="349" 
d="M286 355v30c0 76 -44 130 -107 130c-64 0 -108 -54 -108 -130v-240c0 -76 44 -130 108 -130c63 0 107 54 107 130v30h20v-30c0 -88 -53 -150 -127 -150c-75 0 -128 62 -128 150v240c0 88 53 150 128 150c74 0 127 -62 127 -150v-30h-20zM164 623v51h20v-51h-20z" />
    <glyph glyph-name="d" unicode="d" horiz-adv-x="357" 
d="M299 0h-20v67c-20 -45 -59 -72 -109 -72c-70 0 -119 58 -119 140v260c0 82 49 140 119 140c50 0 89 -28 109 -73v238h20v-700zM172 15c61 0 105 51 107 124v246c0 76 -44 130 -107 130c-59 0 -101 -50 -101 -120v-260c0 -70 42 -120 101 -120z" />
    <glyph glyph-name="dcaron" unicode="&#x10f;" horiz-adv-x="403" 
d="M299 0h-20v67c-20 -45 -59 -72 -109 -72c-70 0 -119 58 -119 140v260c0 82 49 140 119 140c50 0 89 -28 109 -73v238h20v-700zM172 15c61 0 105 51 107 124v251c-2 73 -46 125 -107 125c-59 0 -101 -50 -101 -120v-260c0 -70 42 -120 101 -120zM365 540l18 160h22
l-28 -163z" />
    <glyph glyph-name="dcroat" unicode="&#x111;" horiz-adv-x="357" 
d="M299 0h-20v67c-20 -45 -59 -72 -109 -72c-70 0 -119 58 -119 140v260c0 82 49 140 119 140c50 0 89 -28 109 -73v148h-97v20h97v70h20v-70h44v-20h-44v-610zM172 15c61 0 105 51 107 124v251c-2 73 -46 125 -107 125c-59 0 -101 -50 -101 -120v-260
c0 -70 42 -120 101 -120z" />
    <glyph glyph-name="eth" unicode="&#xf0;" horiz-adv-x="357" 
d="M306 385v-240c0 -88 -53 -150 -127 -150c-75 0 -128 62 -128 150v240c0 88 53 150 128 150c45 0 82 -23 104 -61c-9 108 -38 165 -92 191l-25 -80l-16 6l25 81c-26 9 -56 13 -91 13v20c38 0 70 -5 97 -14l20 67l17 -6l-21 -67c81 -37 109 -128 109 -300zM286 145v240
c0 76 -44 130 -107 130c-64 0 -108 -54 -108 -130v-240c0 -76 44 -130 108 -130c63 0 107 54 107 130z" />
    <glyph glyph-name="thorn" unicode="&#xfe;" horiz-adv-x="357" 
d="M58 -200v900h20v-238c20 45 58 73 109 73c70 0 119 -58 119 -140v-260c0 -82 -49 -140 -119 -140c-51 0 -89 27 -109 72v-267h-20zM185 15c59 0 101 50 101 120v260c0 70 -42 120 -101 120c-62 0 -105 -52 -107 -125v-245c0 -76 44 -130 107 -130z" />
    <glyph glyph-name="e" unicode="e" horiz-adv-x="353" 
d="M51 145v240c0 88 53 150 128 150c74 0 127 -62 127 -150v-130h-235v-110c0 -76 44 -130 108 -130c63 0 107 54 107 130v20h20v-20c0 -88 -53 -150 -127 -150c-75 0 -128 62 -128 150zM179 515c-64 0 -108 -54 -108 -130v-110h215v110c0 76 -44 130 -107 130z" />
    <glyph glyph-name="eacute" unicode="&#xe9;" horiz-adv-x="353" 
d="M51 145v240c0 88 53 150 128 150c74 0 127 -62 127 -150v-130h-235v-110c0 -76 44 -130 108 -130c63 0 107 54 107 130v20h20v-20c0 -88 -53 -150 -127 -150c-75 0 -128 62 -128 150zM179 515c-64 0 -108 -54 -108 -130v-110h215v110c0 76 -44 130 -107 130zM125 624
l107 79l10 -16l-112 -74z" />
    <glyph glyph-name="ebreve" unicode="&#x115;" horiz-adv-x="353" 
d="M51 145v240c0 88 53 150 128 150c74 0 127 -62 127 -150v-130h-235v-110c0 -76 44 -130 108 -130c63 0 107 54 107 130v20h20v-20c0 -88 -53 -150 -127 -150c-75 0 -128 62 -128 150zM179 515c-64 0 -108 -54 -108 -130v-110h215v110c0 76 -44 130 -107 130zM238 714h18
c0 -66 -33 -101 -80 -101s-80 35 -80 101h18c0 -53 25 -81 62 -81c36 0 62 28 62 81z" />
    <glyph glyph-name="ecaron" unicode="&#x11b;" horiz-adv-x="353" 
d="M51 145v240c0 88 53 150 128 150c74 0 127 -62 127 -150v-130h-235v-110c0 -76 44 -130 108 -130c63 0 107 54 107 130v20h20v-20c0 -88 -53 -150 -127 -150c-75 0 -128 62 -128 150zM179 515c-64 0 -108 -54 -108 -130v-110h215v110c0 76 -44 130 -107 130zM261 692
l-85 -79l-85 79l5 11l80 -67l80 67z" />
    <glyph glyph-name="ecircumflex" unicode="&#xea;" horiz-adv-x="353" 
d="M51 145v240c0 88 53 150 128 150c74 0 127 -62 127 -150v-130h-235v-110c0 -76 44 -130 108 -130c63 0 107 54 107 130v20h20v-20c0 -88 -53 -150 -127 -150c-75 0 -128 62 -128 150zM179 515c-64 0 -108 -54 -108 -130v-110h215v110c0 76 -44 130 -107 130zM91 624
l85 79l85 -79l-5 -11l-80 67l-80 -67z" />
    <glyph glyph-name="edieresis" unicode="&#xeb;" horiz-adv-x="353" 
d="M51 145v240c0 88 53 150 128 150c74 0 127 -62 127 -150v-130h-235v-110c0 -76 44 -130 108 -130c63 0 107 54 107 130v20h20v-20c0 -88 -53 -150 -127 -150c-75 0 -128 62 -128 150zM179 515c-64 0 -108 -54 -108 -130v-110h215v110c0 76 -44 130 -107 130zM110 613v51
h19v-51h-19zM223 613v51h19v-51h-19z" />
    <glyph glyph-name="edotaccent" unicode="&#x117;" horiz-adv-x="353" 
d="M51 145v240c0 88 53 150 128 150c74 0 127 -62 127 -150v-130h-235v-110c0 -76 44 -130 108 -130c63 0 107 54 107 130v20h20v-20c0 -88 -53 -150 -127 -150c-75 0 -128 62 -128 150zM179 515c-64 0 -108 -54 -108 -130v-110h215v110c0 76 -44 130 -107 130zM166 623v51
h20v-51h-20z" />
    <glyph glyph-name="egrave" unicode="&#xe8;" horiz-adv-x="353" 
d="M51 145v240c0 88 53 150 128 150c74 0 127 -62 127 -150v-130h-235v-110c0 -76 44 -130 108 -130c63 0 107 54 107 130v20h20v-20c0 -88 -53 -150 -127 -150c-75 0 -128 62 -128 150zM179 515c-64 0 -108 -54 -108 -130v-110h215v110c0 76 -44 130 -107 130zM120 703
l107 -79l-5 -11l-112 74z" />
    <glyph glyph-name="emacron" unicode="&#x113;" horiz-adv-x="353" 
d="M51 145v240c0 88 53 150 128 150c74 0 127 -62 127 -150v-130h-235v-110c0 -76 44 -130 108 -130c63 0 107 54 107 130v20h20v-20c0 -88 -53 -150 -127 -150c-75 0 -128 62 -128 150zM179 515c-64 0 -108 -54 -108 -130v-110h215v110c0 76 -44 130 -107 130zM107 633h138
v-20h-138v20z" />
    <glyph glyph-name="eogonek" unicode="&#x119;" horiz-adv-x="353" 
d="M51 145v240c0 88 53 150 128 150c74 0 127 -62 127 -150v-130h-235v-110c0 -76 44 -130 108 -130c63 0 107 54 107 130v20h20v-20c0 -78 -41 -135 -101 -147c-5 -5 -26 -34 -26 -74c0 -26 10 -39 26 -39c21 0 31 22 31 22l6 -11s-9 -29 -38 -29c-22 0 -43 17 -43 57
c0 36 18 61 26 71h-8c-75 0 -128 62 -128 150zM179 515c-64 0 -108 -54 -108 -130v-110h215v110c0 76 -44 130 -107 130z" />
    <glyph glyph-name="f" unicode="f" horiz-adv-x="207" 
d="M15 530h74v80c0 53 32 90 79 90h29v-20h-29c-35 0 -59 -29 -59 -70v-80h88v-20h-88v-510h-20v510h-74v20z" />
    <glyph glyph-name="g" unicode="g" horiz-adv-x="357" 
d="M175 -190c61 0 104 54 104 130v127c-20 -45 -59 -72 -109 -72c-70 0 -119 58 -119 140v260c0 82 49 140 119 140c50 0 89 -28 109 -73v68h20v-590c0 -88 -51 -150 -124 -150c-72 0 -124 58 -124 141v9h20v-9c0 -71 43 -121 104 -121zM172 15c63 0 107 54 107 130v245
c-2 73 -46 125 -107 125c-59 0 -101 -50 -101 -120v-260c0 -70 42 -120 101 -120z" />
    <glyph glyph-name="gbreve" unicode="&#x11f;" horiz-adv-x="357" 
d="M175 -190c61 0 104 54 104 130v127c-20 -45 -59 -72 -109 -72c-70 0 -119 58 -119 140v260c0 82 49 140 119 140c50 0 89 -28 109 -73v68h20v-590c0 -88 -51 -150 -124 -150c-72 0 -124 58 -124 141v9h20v-9c0 -71 43 -121 104 -121zM172 15c61 0 105 51 107 124v246
c0 76 -44 130 -107 130c-59 0 -101 -50 -101 -120v-260c0 -70 42 -120 101 -120zM240 714h18c0 -66 -33 -101 -80 -101s-80 35 -80 101h18c0 -53 25 -81 62 -81c36 0 62 28 62 81z" />
    <glyph glyph-name="gcircumflex" unicode="&#x11d;" horiz-adv-x="357" 
d="M175 -190c61 0 104 54 104 130v127c-20 -45 -59 -72 -109 -72c-70 0 -119 58 -119 140v260c0 82 49 140 119 140c50 0 89 -28 109 -73v68h20v-590c0 -88 -51 -150 -124 -150c-72 0 -124 58 -124 141v9h20v-9c0 -71 43 -121 104 -121zM172 15c61 0 105 51 107 124v251
c-2 73 -46 125 -107 125c-59 0 -101 -50 -101 -120v-260c0 -70 42 -120 101 -120zM93 624l85 79l85 -79l-5 -11l-80 67l-80 -67z" />
    <glyph glyph-name="gcommaaccent" unicode="&#x123;" horiz-adv-x="357" 
d="M175 -190c61 0 104 54 104 130v127c-20 -45 -59 -72 -109 -72c-70 0 -119 58 -119 140v260c0 82 49 140 119 140c50 0 89 -28 109 -73v68h20v-590c0 -88 -51 -150 -124 -150c-72 0 -124 58 -124 141v9h20v-9c0 -71 43 -121 104 -121zM172 15c63 0 107 54 107 130v240
c0 76 -44 130 -107 130c-59 0 -101 -50 -101 -120v-260c0 -70 42 -120 101 -120zM192 757l-18 -160h-22l28 163z" />
    <glyph glyph-name="gdotaccent" unicode="&#x121;" horiz-adv-x="357" 
d="M175 -190c61 0 104 54 104 130v127c-20 -45 -59 -72 -109 -72c-70 0 -119 58 -119 140v260c0 82 49 140 119 140c50 0 89 -28 109 -73v68h20v-590c0 -88 -51 -150 -124 -150c-72 0 -124 58 -124 141v9h20v-9c0 -71 43 -121 104 -121zM172 15c61 0 105 51 107 124v251
c-2 73 -46 125 -107 125c-59 0 -101 -50 -101 -120v-260c0 -70 42 -120 101 -120zM168 623v51h20v-51h-20z" />
    <glyph glyph-name="h" unicode="h" 
d="M58 0v700h20v-238c20 45 58 73 109 73c70 0 119 -58 119 -140v-395h-20v395c0 70 -42 120 -101 120c-62 0 -105 -52 -107 -125v-390h-20z" />
    <glyph glyph-name="hbar" unicode="&#x127;" 
d="M14 622h44v78h20v-78h105v-20h-105v-138c20 44 58 71 109 71c70 0 119 -58 119 -140v-395h-20v395c0 70 -42 120 -102 120c-61 0 -104 -52 -106 -125v-390h-20v602h-44v20z" />
    <glyph glyph-name="hcircumflex" unicode="&#x125;" 
d="M58 0v700h20v-238c20 45 58 73 109 73c70 0 119 -58 119 -140v-395h-20v395c0 70 -42 120 -101 120c-62 0 -105 -52 -107 -125v-390h-20zM-18 754l85 79l85 -79l-5 -11l-80 67l-80 -67z" />
    <glyph glyph-name="i" unicode="i" horiz-adv-x="136" 
d="M58 0v530h20v-530h-20zM58 622v51h20v-51h-20z" />
    <glyph glyph-name="iacute" unicode="&#xed;" horiz-adv-x="136" 
d="M17 624l107 79l10 -16l-112 -74zM58 0v530h20v-530h-20z" />
    <glyph glyph-name="ibreve" unicode="&#x12d;" horiz-adv-x="136" 
d="M130 714h18c0 -66 -33 -101 -80 -101s-80 35 -80 101h18c0 -53 25 -81 62 -81c36 0 62 28 62 81zM58 0v530h20v-530h-20z" />
    <glyph glyph-name="icircumflex" unicode="&#xee;" horiz-adv-x="136" 
d="M58 0v530h20v-530h-20zM-17 624l85 79l85 -79l-5 -11l-80 67l-80 -67z" />
    <glyph glyph-name="idieresis" unicode="&#xef;" horiz-adv-x="136" 
d="M2 613v51h19v-51h-19zM115 613v51h19v-51h-19zM58 0v530h20v-530h-20z" />
    <glyph glyph-name="igrave" unicode="&#xec;" horiz-adv-x="136" 
d="M12 703l107 -79l-5 -11l-112 74zM58 0v530h20v-530h-20z" />
    <glyph glyph-name="imacron" unicode="&#x12b;" horiz-adv-x="136" 
d="M-1 633h138v-20h-138v20zM58 0v530h20v-530h-20z" />
    <glyph glyph-name="iogonek" unicode="&#x12f;" horiz-adv-x="136" 
d="M58 0v530h20v-530h-20zM71 -133c-22 0 -43 17 -43 57c0 47 30 76 30 76h16s-28 -32 -28 -76c0 -26 10 -39 26 -39c21 0 31 22 31 22l6 -11s-9 -29 -38 -29zM58 622v51h20v-51h-20z" />
    <glyph glyph-name="itilde" unicode="&#x129;" horiz-adv-x="136" 
d="M58 0v530h20v-530h-20zM30 682c39 0 46 -49 78 -49s45 50 45 50l13 -9s-16 -60 -59 -60c-39 0 -48 49 -79 49s-44 -50 -44 -50l-15 9s18 60 61 60z" />
    <glyph glyph-name="ij" unicode="&#x133;" horiz-adv-x="271" 
d="M133 -180c35 0 60 29 60 70v640h20v-640c0 -53 -33 -90 -80 -90h-8v20h8zM58 0v530h20v-530h-20zM193 622v51h20v-51h-20zM58 622v51h20v-51h-20z" />
    <glyph glyph-name="dotlessi" unicode="&#x131;" horiz-adv-x="136" 
d="M58 0v530h20v-530h-20z" />
    <glyph glyph-name="j" unicode="j" horiz-adv-x="136" 
d="M78 -110h-20v640h20v-640zM-10 -200v20h8c35 0 60 29 60 70h20c0 -53 -33 -90 -80 -90h-8zM58 622v51h20v-51h-20z" />
    <glyph glyph-name="jcircumflex" unicode="&#x135;" horiz-adv-x="136" 
d="M-2 -180c35 0 60 29 60 70v640h20v-640c0 -53 -33 -90 -80 -90h-8v20h8zM-17 624l85 79l85 -79l-5 -11l-80 67l-80 -67z" />
    <glyph glyph-name="dotlessj" unicode="&#x237;" horiz-adv-x="136" 
d="M78 -110h-20v640h20v-640zM-10 -200v20h8c35 0 60 29 60 70h20c0 -53 -33 -90 -80 -90h-8z" />
    <glyph glyph-name="k" unicode="k" horiz-adv-x="309" 
d="M270 0l-171 276l161 254h24l-161 -254l172 -276h-25zM58 0v700h20v-700h-20z" />
    <glyph glyph-name="kcommaaccent" unicode="&#x137;" horiz-adv-x="309" 
d="M270 0l-171 276l161 254h24l-161 -254l172 -276h-25zM58 0v700h20v-700h-20zM132 -180l22 120h22l-33 -124z" />
    <glyph glyph-name="l" unicode="l" horiz-adv-x="157" 
d="M146 20v-20h-8c-47 0 -80 37 -80 90v610h20v-610c0 -41 25 -70 60 -70h8z" />
    <glyph glyph-name="lacute" unicode="&#x13a;" horiz-adv-x="157" 
d="M146 20v-20h-8c-47 0 -80 37 -80 90v610h20v-610c0 -41 25 -70 60 -70h8zM27 789l107 79l10 -16l-112 -74z" />
    <glyph glyph-name="lcaron" unicode="&#x13e;" horiz-adv-x="182" 
d="M146 20v-20h-8c-47 0 -80 37 -80 90v610h20v-610c0 -41 25 -70 60 -70h8zM145 540l18 160h22l-28 -163z" />
    <glyph glyph-name="lcommaaccent" unicode="&#x13c;" horiz-adv-x="157" 
d="M146 20v-20h-8c-47 0 -80 37 -80 90v610h20v-610c0 -41 25 -70 60 -70h8zM71 -180l22 120h22l-33 -124z" />
    <glyph glyph-name="ldot" unicode="&#x140;" horiz-adv-x="249" 
d="M146 20v-20h-8c-47 0 -80 37 -80 90v610h20v-610c0 -41 25 -70 60 -70h8zM179 300v80h28v-80h-28z" />
    <glyph glyph-name="lslash" unicode="&#x142;" horiz-adv-x="157" 
d="M146 20v-20h-8c-47 0 -79 37 -79 90v203l-33 -39l-13 15l46 54v377h20v-354l60 71l13 -15l-73 -86v-226c0 -41 24 -70 59 -70h8z" />
    <glyph glyph-name="m" unicode="m" horiz-adv-x="564" 
d="M272 0v395c0 70 -39 120 -94 120c-58 0 -100 -54 -100 -130v-385h-20v530h20v-66c19 44 55 71 102 71c51 0 90 -35 105 -89c17 54 56 89 109 89c66 0 112 -58 112 -140v-395h-20v395c0 70 -39 120 -94 120c-57 0 -98 -52 -100 -125v-390h-20z" />
    <glyph glyph-name="n" unicode="n" 
d="M58 0v530h20v-68c20 45 58 73 109 73c70 0 119 -58 119 -140v-395h-20v395c0 70 -42 120 -101 120c-62 0 -105 -52 -107 -125v-390h-20z" />
    <glyph glyph-name="nacute" unicode="&#x144;" 
d="M58 0v530h20v-68c20 45 58 73 109 73c70 0 119 -58 119 -140v-395h-20v395c0 70 -42 120 -101 120c-62 0 -105 -52 -107 -125v-390h-20zM130 624l107 79l10 -16l-112 -74z" />
    <glyph glyph-name="ncaron" unicode="&#x148;" 
d="M78 385v-385h-20v530h20v-68c20 45 58 73 109 73c70 0 119 -58 119 -140v-395h-20v395c0 70 -42 120 -101 120c-63 0 -107 -54 -107 -130zM267 692l-85 -79l-85 79l5 11l80 -67l80 67z" />
    <glyph glyph-name="ncommaaccent" unicode="&#x146;" 
d="M58 0v530h20v-68c20 45 58 73 109 73c70 0 119 -58 119 -140v-395h-20v395c0 70 -42 120 -101 120c-62 0 -105 -52 -107 -125v-390h-20zM159 -180l22 120h22l-33 -124z" />
    <glyph glyph-name="ntilde" unicode="&#xf1;" 
d="M58 0v530h20v-68c20 45 58 73 109 73c70 0 119 -58 119 -140v-395h-20v395c0 70 -42 120 -101 120c-62 0 -105 -52 -107 -125v-390h-20zM144 682c39 0 46 -49 78 -49s45 50 45 50l13 -9s-16 -60 -59 -60c-39 0 -48 49 -79 49s-44 -50 -44 -50l-15 9s18 60 61 60z" />
    <glyph glyph-name="eng" unicode="&#x14b;" 
d="M218 -200v20h8c35 0 60 29 60 70v505c0 70 -42 120 -101 120c-62 0 -105 -52 -107 -125v-390h-20v530h20v-68c20 45 58 73 109 73c70 0 119 -58 119 -140v-505c0 -53 -33 -90 -80 -90h-8z" />
    <glyph glyph-name="o" unicode="o" horiz-adv-x="357" 
d="M306 145c0 -88 -53 -150 -127 -150c-75 0 -128 62 -128 150v240c0 88 53 150 128 150c74 0 127 -62 127 -150v-240zM286 145v240c0 76 -44 130 -107 130c-64 0 -108 -54 -108 -130v-240c0 -76 44 -130 108 -130c63 0 107 54 107 130z" />
    <glyph glyph-name="oacute" unicode="&#xf3;" horiz-adv-x="357" 
d="M306 145c0 -88 -53 -150 -127 -150c-75 0 -128 62 -128 150v240c0 88 53 150 128 150c74 0 127 -62 127 -150v-240zM286 145v240c0 76 -44 130 -107 130c-64 0 -108 -54 -108 -130v-240c0 -76 44 -130 108 -130c63 0 107 54 107 130zM127 624l107 79l10 -16l-112 -74z
" />
    <glyph glyph-name="obreve" unicode="&#x14f;" horiz-adv-x="357" 
d="M306 145c0 -88 -53 -150 -127 -150c-75 0 -128 62 -128 150v240c0 88 53 150 128 150c74 0 127 -62 127 -150v-240zM286 145v240c0 76 -44 130 -107 130c-64 0 -108 -54 -108 -130v-240c0 -76 44 -130 108 -130c63 0 107 54 107 130zM240 714h18c0 -66 -33 -101 -80 -101
s-80 35 -80 101h18c0 -53 25 -81 62 -81c36 0 62 28 62 81z" />
    <glyph glyph-name="ocircumflex" unicode="&#xf4;" horiz-adv-x="357" 
d="M306 145c0 -88 -53 -150 -127 -150c-75 0 -128 62 -128 150v240c0 88 53 150 128 150c74 0 127 -62 127 -150v-240zM286 145v240c0 76 -44 130 -107 130c-64 0 -108 -54 -108 -130v-240c0 -76 44 -130 108 -130c63 0 107 54 107 130zM93 624l85 79l85 -79l-5 -11l-80 67
l-80 -67z" />
    <glyph glyph-name="odieresis" unicode="&#xf6;" horiz-adv-x="357" 
d="M306 145c0 -88 -53 -150 -127 -150c-75 0 -128 62 -128 150v240c0 88 53 150 128 150c74 0 127 -62 127 -150v-240zM286 145v240c0 76 -44 130 -107 130c-64 0 -108 -54 -108 -130v-240c0 -76 44 -130 108 -130c63 0 107 54 107 130zM112 613v51h19v-51h-19zM225 613v51
h19v-51h-19z" />
    <glyph glyph-name="ograve" unicode="&#xf2;" horiz-adv-x="357" 
d="M306 145c0 -88 -53 -150 -127 -150c-75 0 -128 62 -128 150v240c0 88 53 150 128 150c74 0 127 -62 127 -150v-240zM286 145v240c0 76 -44 130 -107 130c-64 0 -108 -54 -108 -130v-240c0 -76 44 -130 108 -130c63 0 107 54 107 130zM122 703l107 -79l-5 -11l-112 74z
" />
    <glyph glyph-name="ohungarumlaut" unicode="&#x151;" horiz-adv-x="357" 
d="M306 145c0 -88 -53 -150 -127 -150c-75 0 -128 62 -128 150v240c0 88 53 150 128 150c74 0 127 -62 127 -150v-240zM286 145v240c0 76 -44 130 -107 130c-64 0 -108 -54 -108 -130v-240c0 -76 44 -130 108 -130c63 0 107 54 107 130zM94 622l68 102l15 -12l-75 -99z
M167 621l99 97l12 -14l-105 -93z" />
    <glyph glyph-name="omacron" unicode="&#x14d;" horiz-adv-x="357" 
d="M306 145c0 -88 -53 -150 -127 -150c-75 0 -128 62 -128 150v240c0 88 53 150 128 150c74 0 127 -62 127 -150v-240zM286 145v240c0 76 -44 130 -107 130c-64 0 -108 -54 -108 -130v-240c0 -76 44 -130 108 -130c63 0 107 54 107 130zM109 633h138v-20h-138v20z" />
    <glyph glyph-name="oslash" unicode="&#xf8;" horiz-adv-x="356" 
d="M48 -5l26 58c-15 25 -23 56 -23 92v240c0 88 52 150 127 150c38 0 70 -16 93 -43l19 43h19l-27 -59c15 -25 24 -56 24 -91v-240c0 -88 -53 -150 -128 -150c-38 0 -69 15 -92 42l-18 -42h-20zM71 145c0 -26 5 -49 14 -68l176 394c-19 27 -48 44 -83 44
c-63 0 -107 -54 -107 -130v-240zM286 145v240c0 25 -5 48 -14 67l-176 -394c19 -27 47 -43 82 -43c63 0 108 54 108 130z" />
    <glyph glyph-name="oslashacute" unicode="&#x1ff;" horiz-adv-x="356" 
d="M48 -5l26 58c-15 25 -23 56 -23 92v240c0 88 52 150 127 150c38 0 70 -16 93 -43l19 43h19l-27 -59c15 -25 24 -56 24 -91v-240c0 -88 -53 -150 -128 -150c-38 0 -69 15 -92 42l-18 -42h-20zM71 145c0 -26 5 -49 14 -68l176 394c-19 27 -48 44 -83 44
c-63 0 -107 -54 -107 -130v-240zM286 145v240c0 25 -5 48 -14 67l-176 -394c19 -27 47 -43 82 -43c63 0 108 54 108 130zM127 624l107 79l10 -16l-112 -74z" />
    <glyph glyph-name="otilde" unicode="&#xf5;" horiz-adv-x="357" 
d="M306 145c0 -88 -53 -150 -127 -150c-75 0 -128 62 -128 150v240c0 88 53 150 128 150c74 0 127 -62 127 -150v-240zM286 145v240c0 76 -44 130 -107 130c-64 0 -108 -54 -108 -130v-240c0 -76 44 -130 108 -130c63 0 107 54 107 130zM140 682c39 0 46 -49 78 -49
s45 50 45 50l13 -9s-16 -60 -59 -60c-39 0 -48 49 -79 49s-44 -50 -44 -50l-15 9s18 60 61 60z" />
    <glyph glyph-name="oe" unicode="&#x153;" horiz-adv-x="589" 
d="M542 255h-235v-110c0 -76 44 -130 107 -130s108 54 108 130v20h20v-20c0 -88 -53 -150 -128 -150c-56 0 -100 34 -118 89c-18 -55 -62 -89 -117 -89c-75 0 -128 62 -128 150v240c0 88 53 150 128 150c55 0 99 -35 117 -89c18 54 62 89 118 89c75 0 128 -62 128 -150v-130
zM286 145v240c0 76 -44 130 -107 130c-64 0 -108 -54 -108 -130v-240c0 -76 44 -130 108 -130c63 0 107 54 107 130zM522 275v110c0 76 -45 130 -108 130s-107 -54 -107 -130v-110h215z" />
    <glyph glyph-name="p" unicode="p" horiz-adv-x="357" 
d="M58 -200v730h20v-68c20 45 58 73 109 73c70 0 119 -58 119 -140v-260c0 -82 -49 -140 -119 -140c-51 0 -89 27 -109 72v-267h-20zM185 15c59 0 101 50 101 120v260c0 70 -42 120 -101 120c-62 0 -105 -52 -107 -125v-245c0 -76 44 -130 107 -130z" />
    <glyph glyph-name="q" unicode="q" horiz-adv-x="357" 
d="M299 530v-730h-20v267c-20 -45 -59 -72 -109 -72c-70 0 -119 58 -119 140v260c0 82 49 140 119 140c50 0 89 -28 109 -73v68h20zM172 15c61 0 105 51 107 124v246c0 76 -44 130 -107 130c-59 0 -101 -50 -101 -120v-260c0 -70 42 -120 101 -120z" />
    <glyph glyph-name="r" unicode="r" horiz-adv-x="224" 
d="M78 365v-365h-20v530h20v-82c22 54 66 87 124 87v-20c-72 0 -124 -62 -124 -150z" />
    <glyph glyph-name="racute" unicode="&#x155;" horiz-adv-x="224" 
d="M58 0v530h20v-82c22 54 66 87 124 87v-20c-70 0 -122 -59 -124 -144v-371h-20zM59 624l107 79l10 -16l-112 -74z" />
    <glyph glyph-name="rcaron" unicode="&#x159;" horiz-adv-x="224" 
d="M78 365v-365h-20v530h20v-82c22 54 66 87 124 87v-20c-72 0 -124 -62 -124 -150zM196 692l-85 -79l-85 79l5 11l80 -67l80 67z" />
    <glyph glyph-name="rcommaaccent" unicode="&#x157;" horiz-adv-x="224" 
d="M78 365v-365h-20v530h20v-82c22 54 66 87 124 87v-20c-72 0 -124 -62 -124 -150zM46 -180l22 120h22l-33 -124z" />
    <glyph glyph-name="s" unicode="s" horiz-adv-x="321" 
d="M158 535c68 0 114 -62 114 -150v-10h-20v10c0 76 -38 130 -95 130c-52 0 -91 -46 -91 -110c0 -42 18 -76 47 -95l113 -73c35 -22 57 -62 57 -112c0 -76 -50 -130 -119 -130c-73 0 -122 62 -122 150v10h20v-10c0 -76 41 -130 102 -130c57 0 99 46 99 110
c0 42 -18 75 -47 94l-113 73c-35 22 -57 62 -57 113c0 76 47 130 112 130z" />
    <glyph glyph-name="sacute" unicode="&#x15b;" horiz-adv-x="321" 
d="M158 535c68 0 114 -62 114 -150v-10h-20v10c0 76 -38 130 -95 130c-52 0 -91 -46 -91 -110c0 -42 18 -76 47 -95l113 -73c35 -22 57 -62 57 -112c0 -76 -50 -130 -119 -130c-73 0 -122 62 -122 150v10h20v-10c0 -76 41 -130 102 -130c57 0 99 46 99 110
c0 42 -18 75 -47 94l-113 73c-35 22 -57 62 -57 113c0 76 47 130 112 130zM110 624l107 79l10 -16l-112 -74z" />
    <glyph glyph-name="scaron" unicode="&#x161;" horiz-adv-x="321" 
d="M158 535c68 0 114 -62 114 -150v-10h-20v10c0 76 -38 130 -95 130c-52 0 -91 -46 -91 -110c0 -42 18 -76 47 -95l113 -73c35 -22 57 -62 57 -112c0 -76 -50 -130 -119 -130c-73 0 -122 62 -122 150v10h20v-10c0 -76 41 -130 102 -130c57 0 99 46 99 110
c0 42 -18 75 -47 94l-113 73c-35 22 -57 62 -57 113c0 76 47 130 112 130zM245 692l-85 -79l-85 79l5 11l80 -67l80 67z" />
    <glyph glyph-name="scedilla" unicode="&#x15f;" horiz-adv-x="321" 
d="M158 535c68 0 114 -62 114 -150v-10h-20v10c0 76 -38 130 -95 130c-52 0 -91 -46 -91 -110c0 -42 18 -76 47 -95l113 -73c35 -22 57 -62 57 -112c0 -74 -47 -126 -113 -130l-4 -37c21 0 36 -18 36 -46c0 -29 -17 -45 -40 -45c-28 0 -44 25 -44 25l6 15s16 -20 37 -20
c14 0 23 8 23 24c0 24 -18 32 -36 32l6 53c-68 4 -112 65 -112 149v10h20v-10c0 -76 41 -130 102 -130c57 0 99 46 99 110c0 42 -18 75 -47 94l-113 73c-35 22 -57 62 -57 113c0 76 47 130 112 130z" />
    <glyph glyph-name="scircumflex" unicode="&#x15d;" horiz-adv-x="321" 
d="M158 535c68 0 114 -62 114 -150v-10h-20v10c0 76 -38 130 -95 130c-52 0 -91 -46 -91 -110c0 -42 18 -76 47 -95l113 -73c35 -22 57 -62 57 -112c0 -76 -50 -130 -119 -130c-73 0 -122 62 -122 150v10h20v-10c0 -76 41 -130 102 -130c57 0 99 46 99 110
c0 42 -18 75 -47 94l-113 73c-35 22 -57 62 -57 113c0 76 47 130 112 130zM75 624l85 79l85 -79l-5 -11l-80 67l-80 -67z" />
    <glyph glyph-name="scommaaccent" unicode="&#x219;" horiz-adv-x="321" 
d="M158 535c68 0 114 -62 114 -150v-10h-20v10c0 76 -38 130 -95 130c-52 0 -91 -46 -91 -110c0 -42 18 -76 47 -95l113 -73c35 -22 57 -62 57 -112c0 -76 -50 -130 -119 -130c-73 0 -122 62 -122 150v10h20v-10c0 -76 41 -130 102 -130c57 0 99 46 99 110
c0 42 -18 75 -47 94l-113 73c-35 22 -57 62 -57 113c0 76 47 130 112 130zM138 -180l22 120h22l-33 -124z" />
    <glyph glyph-name="t" unicode="t" horiz-adv-x="248" 
d="M205 20v-20h-29c-47 0 -80 37 -80 90v420h-81v20h81v120h20v-120h89v-20h-89v-420c0 -41 25 -70 60 -70h29z" />
    <glyph glyph-name="tbar" unicode="&#x167;" horiz-adv-x="244" 
d="M15 530h81v120h20v-120h89v-20h-89v-193h81v-20h-81v-207c0 -41 25 -70 60 -70h29v-20h-29c-47 0 -80 37 -80 90v207h-73v20h73v193h-81v20z" />
    <glyph glyph-name="tcaron" unicode="&#x165;" horiz-adv-x="250" 
d="M205 20v-20h-29c-47 0 -80 37 -80 90v420h-81v20h81v120h20v-120h89v-20h-89v-420c0 -41 25 -70 60 -70h29zM195 590l18 160h22l-28 -163z" />
    <glyph glyph-name="tcommaaccent" unicode="&#x163;" horiz-adv-x="248" 
d="M205 20v-20h-29c-47 0 -80 37 -80 90v420h-81v20h81v120h20v-120h89v-20h-89v-420c0 -41 25 -70 60 -70h29zM112 -180l22 120h22l-33 -124z" />
    <glyph glyph-name="uni021B" unicode="&#x21b;" horiz-adv-x="248" 
d="M205 20v-20h-29c-47 0 -80 37 -80 90v420h-81v20h81v120h20v-120h89v-20h-89v-420c0 -41 25 -70 60 -70h29zM112 -180l22 120h22l-33 -124z" />
    <glyph glyph-name="u" unicode="u" 
d="M286 145v385h20v-530h-20v67c-20 -45 -59 -72 -109 -72c-70 0 -119 58 -119 140v395h20v-395c0 -70 42 -120 101 -120c63 0 107 54 107 130z" />
    <glyph glyph-name="uacute" unicode="&#xfa;" 
d="M306 530v-530h-20v67c-20 -45 -59 -72 -109 -72c-70 0 -119 58 -119 140v395h20v-395c0 -70 42 -120 101 -120c61 0 105 51 107 124v391h20zM130 624l107 79l10 -16l-112 -74z" />
    <glyph glyph-name="ubreve" unicode="&#x16d;" 
d="M306 530v-530h-20v67c-20 -45 -59 -72 -109 -72c-70 0 -119 58 -119 140v395h20v-395c0 -70 42 -120 101 -120c61 0 105 51 107 124v391h20zM244 714h18c0 -66 -33 -101 -80 -101s-80 35 -80 101h18c0 -53 25 -81 62 -81c36 0 62 28 62 81z" />
    <glyph glyph-name="ucircumflex" unicode="&#xfb;" 
d="M306 530v-530h-20v67c-20 -45 -59 -72 -109 -72c-70 0 -119 58 -119 140v395h20v-395c0 -70 42 -120 101 -120c61 0 105 51 107 124v391h20zM97 624l85 79l85 -79l-5 -11l-80 67l-80 -67z" />
    <glyph glyph-name="udieresis" unicode="&#xfc;" 
d="M286 145v385h20v-530h-20v67c-20 -45 -59 -72 -109 -72c-70 0 -119 58 -119 140v395h20v-395c0 -70 42 -120 101 -120c63 0 107 54 107 130zM229 613v51h19v-51h-19zM116 613v51h19v-51h-19z" />
    <glyph glyph-name="uhungarumlaut" unicode="&#x171;" 
d="M286 145v385h20v-530h-20v67c-20 -45 -59 -72 -109 -72c-70 0 -119 58 -119 140v395h20v-395c0 -70 42 -120 101 -120c63 0 107 54 107 130zM170 621l99 97l12 -14l-105 -93zM97 622l68 102l15 -12l-75 -99z" />
    <glyph glyph-name="ugrave" unicode="&#xf9;" 
d="M306 530v-530h-20v67c-20 -45 -59 -72 -109 -72c-70 0 -119 58 -119 140v395h20v-395c0 -70 42 -120 101 -120c61 0 105 51 107 124v391h20zM125 703l107 -79l-5 -11l-112 74z" />
    <glyph glyph-name="umacron" unicode="&#x16b;" 
d="M286 145v385h20v-530h-20v67c-20 -45 -59 -72 -109 -72c-70 0 -119 58 -119 140v395h20v-395c0 -70 42 -120 101 -120c63 0 107 54 107 130zM113 633h138v-20h-138v20z" />
    <glyph glyph-name="uogonek" unicode="&#x173;" 
d="M301 -133c-22 0 -43 17 -43 57c0 47 30 76 30 76h-2v67c-20 -45 -59 -72 -109 -72c-70 0 -119 58 -119 140v395h20v-395c0 -70 42 -120 101 -120c61 0 105 51 107 124v391h20v-530h-2s-28 -32 -28 -76c0 -26 10 -39 26 -39c21 0 31 22 31 22l6 -11s-9 -29 -38 -29z" />
    <glyph glyph-name="uring" unicode="&#x16f;" 
d="M306 530v-530h-20v67c-20 -45 -59 -72 -109 -72c-70 0 -119 58 -119 140v395h20v-395c0 -70 42 -120 101 -120c61 0 105 51 107 124v391h20zM118 677c0 35 28 63 63 63s64 -28 64 -63s-29 -64 -64 -64s-63 29 -63 64zM137 677c0 -25 19 -45 44 -45s45 20 45 45
s-20 44 -45 44s-44 -19 -44 -44z" />
    <glyph glyph-name="utilde" unicode="&#x169;" 
d="M286 145v385h20v-530h-20v67c-20 -45 -59 -72 -109 -72c-70 0 -119 58 -119 140v395h20v-395c0 -70 42 -120 101 -120c63 0 107 54 107 130zM144 682c39 0 46 -49 78 -49s45 50 45 50l13 -9s-16 -60 -59 -60c-39 0 -48 49 -79 49s-44 -50 -44 -50l-15 9s18 60 61 60z" />
    <glyph glyph-name="v" unicode="v" horiz-adv-x="321" 
d="M150 0l-136 530h20l127 -502l126 502h20l-136 -530h-21z" />
    <glyph glyph-name="w" unicode="w" horiz-adv-x="482" 
d="M334 0l-93 487l-92 -487h-23l-112 530h21l102 -499l93 499h22l93 -499l102 499h21l-112 -530h-22z" />
    <glyph glyph-name="wacute" unicode="&#x1e83;" horiz-adv-x="482" 
d="M334 0l-93 487l-92 -487h-23l-112 530h21l102 -499l93 499h22l93 -499l102 499h21l-112 -530h-22zM190 624l107 79l10 -16l-112 -74z" />
    <glyph glyph-name="wcircumflex" unicode="&#x175;" horiz-adv-x="482" 
d="M334 0l-93 487l-92 -487h-23l-112 530h21l102 -499l93 499h22l93 -499l102 499h21l-112 -530h-22zM156 624l85 79l85 -79l-5 -11l-80 67l-80 -67z" />
    <glyph glyph-name="wdieresis" unicode="&#x1e85;" horiz-adv-x="482" 
d="M334 0l-93 487l-92 -487h-23l-112 530h21l102 -499l93 499h22l93 -499l102 499h21l-112 -530h-22zM175 613v51h19v-51h-19zM288 613v51h19v-51h-19z" />
    <glyph glyph-name="wgrave" unicode="&#x1e81;" horiz-adv-x="482" 
d="M334 0l-93 487l-92 -487h-23l-112 530h21l102 -499l93 499h22l93 -499l102 499h21l-112 -530h-22zM185 703l107 -79l-5 -11l-112 74z" />
    <glyph glyph-name="x" unicode="x" horiz-adv-x="309" 
d="M272 0l-117 257l-118 -257h-23l128 276l-117 254h23l107 -235l106 235h23l-117 -254l128 -276h-23z" />
    <glyph glyph-name="y" unicode="y" horiz-adv-x="324" 
d="M310 530l-197 -730h-20l54 202l-133 528h20l123 -491l132 491h21z" />
    <glyph glyph-name="yacute" unicode="&#xfd;" horiz-adv-x="324" 
d="M310 530l-197 -730h-20l54 202l-133 528h20l123 -491l132 491h21zM111 624l107 79l10 -16l-112 -74z" />
    <glyph glyph-name="ycircumflex" unicode="&#x177;" horiz-adv-x="324" 
d="M310 530l-197 -730h-20l54 202l-133 528h20l123 -491l132 491h21zM76 624l85 79l85 -79l-5 -11l-80 67l-80 -67z" />
    <glyph glyph-name="ydieresis" unicode="&#xff;" horiz-adv-x="324" 
d="M310 530l-197 -730h-20l54 202l-133 528h20l123 -491l132 491h21zM209 613v51h19v-51h-19zM96 613v51h19v-51h-19z" />
    <glyph glyph-name="ygrave" unicode="&#x1ef3;" horiz-adv-x="324" 
d="M310 530l-197 -730h-20l54 202l-133 528h20l123 -491l132 491h21zM106 703l107 -79l-5 -11l-112 74z" />
    <glyph glyph-name="z" unicode="z" horiz-adv-x="336" 
d="M51 510v20h241v-20l-225 -490h223v-20h-245v20l226 490h-220z" />
    <glyph glyph-name="zacute" unicode="&#x17a;" horiz-adv-x="336" 
d="M51 510v20h241v-20l-225 -490h223v-20h-245v20l226 490h-220zM117 624l107 79l10 -16l-112 -74z" />
    <glyph glyph-name="zcaron" unicode="&#x17e;" horiz-adv-x="336" 
d="M51 510v20h241v-20l-225 -490h223v-20h-245v20l226 490h-220zM254 692l-85 -79l-85 79l5 11l80 -67l80 67z" />
    <glyph glyph-name="zdotaccent" unicode="&#x17c;" horiz-adv-x="336" 
d="M51 510v20h241v-20l-225 -490h223v-20h-245v20l226 490h-220zM158 623v51h20v-51h-20z" />
    <glyph glyph-name="germandbls" unicode="&#xdf;" horiz-adv-x="396" 
d="M58 0v580c0 82 46 125 105 125c72 0 102 -63 102 -121c0 -106 -94 -100 -94 -184c0 -38 19 -72 45 -90l105 -73c33 -23 53 -62 53 -112c0 -76 -47 -130 -112 -130c-68 0 -114 62 -114 150v10h20v-10c0 -76 38 -130 95 -130c52 0 92 46 92 110c0 42 -17 75 -45 94l-105 73
c-35 24 -53 62 -53 107c0 104 93 86 93 185c0 51 -26 101 -82 101c-48 0 -85 -36 -85 -105v-580h-20z" />
    <glyph glyph-name="uni01DD" unicode="&#x1dd;" horiz-adv-x="353" 
d="M47 365v20c0 88 53 150 128 150c74 0 127 -62 127 -150v-240c0 -88 -53 -150 -127 -150c-75 0 -128 62 -128 150v130h235v110c0 76 -44 130 -107 130c-64 0 -108 -54 -108 -130v-20h-20zM175 15c63 0 107 54 107 130v110h-215v-110c0 -76 44 -130 108 -130z" />
    <glyph glyph-name="germandbls.smcp" horiz-adv-x="319" 
d="M48 0v434c0 62 36 95 84 95c57 0 81 -47 81 -92c0 -79 -71 -76 -71 -138c0 -27 14 -52 34 -65l79 -53c26 -18 42 -48 42 -87c0 -57 -37 -98 -88 -98c-53 0 -89 46 -89 113v8h19v-9c0 -55 29 -93 71 -93c38 0 68 33 68 79c0 30 -13 55 -34 69l-80 53c-27 18 -41 48 -41 82
c0 78 70 66 70 139c0 37 -20 73 -61 73c-36 0 -64 -26 -64 -76v-434h-20z" />
    <glyph glyph-name="zero" unicode="0" horiz-adv-x="409" 
d="M355 350c0 -281 -62 -355 -151 -355c-88 0 -150 74 -150 355s62 355 150 355c89 0 151 -74 151 -355zM334 350c0 269 -53 335 -130 335c-76 0 -130 -66 -130 -335s54 -335 130 -335c77 0 130 66 130 335z" />
    <glyph glyph-name="one" unicode="1" horiz-adv-x="246" 
d="M27 607l117 93h18v-700h-20v674l-105 -84z" />
    <glyph glyph-name="two" unicode="2" horiz-adv-x="370" 
d="M41 0v20c230 408 257 433 257 503c0 93 -48 162 -116 162c-67 0 -115 -66 -115 -160v-20h-20v20c0 106 56 180 135 180c80 0 136 -78 136 -182c0 -78 -30 -105 -254 -503h260v-20h-283z" />
    <glyph glyph-name="three" unicode="3" horiz-adv-x="380" 
d="M195 705c77 0 131 -57 131 -166c0 -87 -33 -153 -88 -172c62 -19 106 -57 106 -171c0 -125 -63 -201 -149 -201s-144 74 -144 180v20h20v-20c0 -94 50 -160 123 -160c75 0 130 69 130 180c0 104 -53 160 -129 160h-24v20h5c76 0 130 60 130 164c0 99 -49 146 -112 146
c-73 0 -123 -66 -123 -160v-22h-20v22c0 106 58 180 144 180z" />
    <glyph glyph-name="four" unicode="4" horiz-adv-x="384" 
d="M355 168h-57v-168h-20v168h-242v20l243 512h19v-512h57v-20zM58 188h220v464z" />
    <glyph glyph-name="five" unicode="5" horiz-adv-x="373" 
d="M316 680h-207l-20 -278s49 23 100 23c95 0 148 -78 148 -209c0 -139 -59 -221 -149 -221c-80 0 -138 66 -138 160v20h20v-20c0 -82 50 -140 118 -140c74 0 128 71 128 200c0 122 -48 190 -129 190c-52 0 -107 -27 -107 -27l-11 9l23 313h224v-20z" />
    <glyph glyph-name="six" unicode="6" horiz-adv-x="405" 
d="M205 455c84 0 146 -75 146 -230s-62 -230 -147 -230c-84 0 -153 74 -153 349c0 267 65 361 158 361c64 0 110 -43 120 -109h-20c-16 63 -52 89 -97 89c-137 0 -144 -239 -139 -380c15 113 73 150 132 150zM205 435c-64 0 -122 -54 -122 -204c0 -145 54 -216 124 -216
c69 0 124 68 124 210s-55 210 -126 210z" />
    <glyph glyph-name="seven" unicode="7" horiz-adv-x="304" 
d="M19 700h257v-20l-160 -680h-21l159 680h-235v20z" />
    <glyph glyph-name="eight" unicode="8" horiz-adv-x="393" 
d="M346 188c0 -123 -63 -193 -149 -193c-87 0 -150 70 -150 193c0 106 46 160 105 179c-55 19 -87 84 -87 169c0 111 55 169 132 169c76 0 131 -58 131 -169c0 -85 -32 -150 -86 -169c58 -19 104 -73 104 -179zM326 188c0 107 -54 167 -129 167c-76 0 -130 -60 -130 -167
c0 -108 55 -173 130 -173s129 65 129 173zM197 685c-62 0 -111 -43 -111 -147c0 -99 45 -163 111 -163c65 0 111 64 111 163c0 104 -50 147 -111 147z" />
    <glyph glyph-name="nine" unicode="9" horiz-adv-x="398" 
d="M195 265c-83 0 -144 71 -144 220c0 148 60 220 142 220c83 0 151 -74 151 -347c0 -267 -65 -363 -159 -363c-68 0 -117 51 -126 129h20c11 -74 55 -109 105 -109c136 0 143 260 138 390c-15 -103 -67 -140 -127 -140zM194 285c61 0 118 51 118 194
c0 138 -53 206 -121 206c-66 0 -120 -65 -120 -200s53 -200 123 -200z" />
    <glyph glyph-name="comma" unicode="," horiz-adv-x="145" 
d="M36 -120l23 200h27l-35 -204z" />
    <glyph glyph-name="period" unicode="." horiz-adv-x="146" 
d="M59 0v80h28v-80h-28z" />
    <glyph glyph-name="currency" unicode="&#xa4;" horiz-adv-x="536" 
d="M84 350c0 47 17 91 46 123l-80 81l14 13l79 -81c33 30 77 49 125 49s91 -18 124 -48l80 80l14 -13l-81 -81c30 -33 48 -76 48 -123c0 -48 -18 -91 -48 -124l81 -81l-14 -13l-81 80c-32 -29 -76 -46 -123 -46c-48 0 -92 18 -124 48l-80 -81l-14 13l81 81
c-29 32 -47 75 -47 123zM102 350c0 -92 74 -166 166 -166s167 74 167 166s-75 167 -167 167s-166 -75 -166 -167z" />
    <glyph glyph-name="cent" unicode="&#xa2;" horiz-adv-x="349" 
d="M286 440v30c0 76 -44 130 -107 130c-64 0 -108 -54 -108 -130v-240c0 -76 44 -130 108 -130c63 0 107 54 107 130v30h20v-30c0 -86 -50 -147 -121 -150v-85h-17v85c-69 6 -117 66 -117 150v240c0 83 48 143 117 149v86h17v-85c71 -4 121 -65 121 -150v-30h-20z" />
    <glyph glyph-name="dollar" unicode="$" horiz-adv-x="368" 
d="M297 505v20c0 94 -47 160 -116 160c-67 0 -114 -62 -114 -150c0 -59 21 -109 56 -132l137 -91c40 -27 65 -80 65 -146c0 -98 -55 -166 -133 -171v-100h-17v100c-82 5 -136 77 -136 180v25h20v-25c0 -94 50 -160 124 -160c71 0 121 62 121 151c0 57 -20 106 -56 130
l-136 91c-41 28 -66 81 -66 148c0 97 54 166 129 170v100h17v-101c75 -6 126 -78 126 -179v-20h-21z" />
    <glyph glyph-name="Euro" unicode="&#x20ac;" horiz-adv-x="410" 
d="M15 401v20h45v104c0 106 62 180 150 180s150 -74 150 -180v-32h-20v32c0 94 -54 160 -130 160s-129 -66 -129 -160v-104h158v-20h-158v-100h158v-20h-158v-106c0 -94 53 -160 129 -160s130 66 130 160v30h20v-30c0 -106 -62 -180 -150 -180s-150 74 -150 180v106h-45v20
h45v100h-45z" />
    <glyph glyph-name="sterling" unicode="&#xa3;" horiz-adv-x="292" 
d="M22 310v20h49c-14 63 -28 123 -28 191c0 133 55 184 116 184c69 0 118 -66 118 -160v-15h-20v15c0 81 -40 140 -96 140c-52 0 -98 -52 -98 -163c0 -63 15 -125 30 -192h127v-20h-123c17 -83 32 -176 16 -290h164v-20h-256v20h71c16 120 1 209 -16 290h-54z" />
    <glyph glyph-name="yen" unicode="&#xa5;" horiz-adv-x="346" 
d="M63 200v20h99v80l-155 400h21l144 -376l146 376h21l-156 -400v-80h99v-20h-99v-80h99v-20h-99v-100h-21v100h-99v20h99v80h-99z" />
    <glyph glyph-name="uni20B4" unicode="&#x20b4;" horiz-adv-x="349" 
d="M28 280v20h281v-20h-216c-22 -27 -33 -68 -33 -113c0 -90 46 -152 111 -152c67 0 112 66 112 160h21c0 -106 -53 -180 -133 -180c-77 0 -132 70 -132 172c0 45 10 84 29 113h-40zM28 400v20h215c21 27 34 69 34 115c0 88 -44 150 -104 150c-63 0 -106 -66 -106 -160h-20
c0 106 51 180 126 180c72 0 124 -70 124 -170c0 -46 -11 -86 -30 -115h42v-20h-281z" />
    <glyph glyph-name="florin" unicode="&#x192;" horiz-adv-x="207" 
d="M39 530h72l12 80c8 53 47 90 94 90h29l-4 -20h-29c-35 0 -64 -29 -70 -70l-12 -80h90l-4 -20h-89l-102 -710h-20l102 710h-73z" />
    <glyph glyph-name="numbersign" unicode="#" horiz-adv-x="457" 
d="M257 0l19 160h-146l-18 -160h-19l18 160h-89l3 20h89l40 340h-89l2 20h89l19 160h19l-19 -160h146l19 160h19l-19 -160h88l-3 -20h-88l-40 -340h88l-2 -20h-88l-19 -160h-19zM172 520l-39 -340h145l40 340h-146z" />
    <glyph glyph-name="zero.fitted" horiz-adv-x="380" 
d="M334 350c0 -281 -59 -355 -144 -355s-144 74 -144 355s59 355 144 355s144 -74 144 -355zM313 350c0 269 -50 335 -123 335s-124 -66 -124 -335s51 -335 124 -335s123 66 123 335z" />
    <glyph glyph-name="one.fitted" horiz-adv-x="380" 
d="M53 607l138 93h19v-680h133v-20h-285v20h132v656l-127 -86z" />
    <glyph glyph-name="two.fitted" horiz-adv-x="380" 
d="M44 0v20c234 408 261 433 261 503c0 93 -49 162 -118 162c-68 0 -117 -66 -117 -160v-20h-20v20c0 106 57 180 137 180c81 0 138 -78 138 -182c0 -78 -31 -105 -258 -503h264v-20h-287z" />
    <glyph glyph-name="three.fitted" horiz-adv-x="380" 
d="M195 705c78 0 133 -57 133 -166c0 -87 -33 -153 -89 -172c63 -19 107 -57 107 -171c0 -125 -64 -201 -151 -201s-146 74 -146 180v20h20v-20c0 -94 51 -160 125 -160c76 0 133 69 133 180c0 104 -54 160 -132 160h-24v20h5c77 0 132 60 132 164c0 99 -50 146 -114 146
c-74 0 -125 -66 -125 -160v-22h-20v22c0 106 59 180 146 180z" />
    <glyph glyph-name="four.fitted" horiz-adv-x="380" 
d="M352 168h-57v-168h-20v168h-240v20l241 512h19v-512h57v-20zM57 188h218v464z" />
    <glyph glyph-name="five.fitted" horiz-adv-x="380" 
d="M321 680h-209l-21 -278s50 23 101 23c97 0 150 -78 150 -209c0 -139 -59 -221 -150 -221c-81 0 -140 66 -140 160v20h20v-20c0 -82 51 -140 120 -140c74 0 129 71 129 200c0 122 -48 190 -130 190c-53 0 -109 -27 -109 -27l-11 9l24 313h226v-20z" />
    <glyph glyph-name="six.fitted" horiz-adv-x="380" 
d="M193 455c80 0 140 -75 140 -230s-60 -230 -142 -230c-81 0 -147 74 -147 349c0 267 63 361 152 361c62 0 106 -43 116 -109h-20c-15 63 -50 89 -93 89c-131 0 -138 -239 -133 -380c14 113 70 150 127 150zM192 435c-61 0 -116 -54 -116 -204c0 -145 51 -216 118 -216
c66 0 119 68 119 210s-53 210 -121 210z" />
    <glyph glyph-name="seven.fitted" horiz-adv-x="380" 
d="M37 700h295v-20l-185 -680h-21l184 680h-273v20z" />
    <glyph glyph-name="eight.fitted" horiz-adv-x="380" 
d="M337 188c0 -123 -62 -193 -147 -193s-147 70 -147 193c0 106 45 160 103 179c-54 19 -85 84 -85 169c0 111 54 169 129 169s129 -58 129 -169c0 -85 -31 -150 -84 -169c57 -19 102 -73 102 -179zM317 188c0 107 -53 167 -127 167s-127 -60 -127 -167
c0 -108 54 -173 127 -173c74 0 127 65 127 173zM190 685c-60 0 -108 -43 -108 -147c0 -99 44 -163 108 -163s109 64 109 163c0 104 -49 147 -109 147z" />
    <glyph glyph-name="nine.fitted" horiz-adv-x="380" 
d="M186 265c-81 0 -140 71 -140 220c0 148 58 220 138 220c81 0 147 -74 147 -347c0 -267 -63 -363 -155 -363c-66 0 -114 51 -122 129h20c10 -74 53 -109 101 -109c132 0 139 260 134 390c-14 -103 -65 -140 -123 -140zM185 285c59 0 114 51 114 194
c0 138 -51 206 -117 206c-64 0 -116 -65 -116 -200s51 -200 119 -200z" />
    <glyph glyph-name="onesuperior" unicode="&#xb9;" horiz-adv-x="137" 
d="M16 654l62 46h15v-350h-20v324l-49 -36z" />
    <glyph glyph-name="twosuperior" unicode="&#xb2;" horiz-adv-x="191" 
d="M22 350v15c109 202 121 214 121 246c0 43 -20 74 -49 74c-28 0 -49 -31 -49 -73v-11h-20v11c0 54 28 91 69 91s69 -39 69 -92c0 -37 -14 -52 -117 -242h120v-19h-144z" />
    <glyph glyph-name="threesuperior" unicode="&#xb3;" horiz-adv-x="196" 
d="M100 703c39 0 67 -30 67 -86c0 -43 -15 -74 -39 -84c28 -11 47 -32 47 -85c0 -63 -32 -101 -75 -101s-73 38 -73 91v10h21v-12c0 -41 21 -71 52 -71s55 31 55 83c0 49 -23 75 -54 75h-14v18h6c31 0 54 27 54 75c0 47 -21 69 -48 69c-30 0 -51 -30 -51 -71v-12h-21v10
c0 53 30 91 73 91z" />
    <glyph glyph-name="onehalf" unicode="&#xbd;" horiz-adv-x="471" 
d="M60 0l318 710l17 -10l-319 -710zM302 0v15c109 202 121 214 121 246c0 43 -20 74 -49 74c-28 0 -49 -31 -49 -73v-11h-20v11c0 54 28 91 69 91s69 -39 69 -92c0 -37 -14 -52 -117 -242h120v-19h-144zM16 654l62 46h15v-350h-20v324l-49 -36z" />
    <glyph glyph-name="onequarter" unicode="&#xbc;" horiz-adv-x="433" 
d="M415 82h-26v-82h-20v82h-114v16l116 252h18v-250h26v-18zM60 0l318 710l17 -10l-319 -710zM276 100h93v204zM16 654l62 46h15v-350h-20v324l-49 -36z" />
    <glyph glyph-name="threequarters" unicode="&#xbe;" horiz-adv-x="448" 
d="M430 82h-26v-82h-20v82h-114v16l116 252h18v-250h26v-18zM75 0l318 710l17 -10l-319 -710zM100 703c39 0 67 -30 67 -86c0 -43 -15 -74 -39 -84c28 -11 47 -32 47 -85c0 -63 -32 -101 -75 -101s-73 38 -73 91v10h21v-12c0 -41 21 -71 52 -71s55 31 55 83
c0 49 -23 75 -54 75h-14v18h6c31 0 54 27 54 75c0 47 -21 69 -48 69c-30 0 -51 -30 -51 -71v-12h-21v10c0 53 30 91 73 91zM291 100h93v204z" />
    <glyph glyph-name="zero.sup" horiz-adv-x="208" 
d="M180 525c0 -140 -32 -178 -76 -178c-45 0 -76 38 -76 178s31 178 76 178c44 0 76 -38 76 -178zM159 525c0 130 -23 160 -55 160c-33 0 -55 -30 -55 -160c0 -131 22 -160 55 -160c32 0 55 30 55 160z" />
    <glyph glyph-name="one.sup" horiz-adv-x="137" 
d="M16 654l62 46h15v-350h-20v324l-49 -36z" />
    <glyph glyph-name="two.sup" horiz-adv-x="191" 
d="M22 350v15c109 202 121 214 121 246c0 43 -20 74 -49 74c-28 0 -49 -31 -49 -73v-11h-20v11c0 54 28 91 69 91s69 -39 69 -92c0 -37 -14 -52 -117 -242h120v-19h-144z" />
    <glyph glyph-name="three.sup" horiz-adv-x="196" 
d="M100 703c39 0 67 -30 67 -86c0 -43 -15 -74 -39 -84c28 -11 47 -32 47 -85c0 -63 -32 -101 -75 -101s-73 38 -73 91v10h21v-12c0 -41 21 -71 52 -71s55 31 55 83c0 49 -23 75 -54 75h-14v18h6c31 0 54 27 54 75c0 47 -21 69 -48 69c-30 0 -51 -30 -51 -71v-12h-21v10
c0 53 30 91 73 91z" />
    <glyph glyph-name="four.sup" horiz-adv-x="198" 
d="M180 432h-26v-82h-20v82h-114v16l116 252h18v-250h26v-18zM41 450h93v204z" />
    <glyph glyph-name="five.sup" horiz-adv-x="194" 
d="M160 681h-97l-9 -127s22 11 46 11c45 0 73 -39 73 -106c0 -68 -29 -112 -76 -112c-41 0 -71 34 -71 83v10h21v-12c0 -37 21 -63 50 -63c32 0 55 33 55 94c0 58 -21 89 -57 89c-24 0 -46 -14 -46 -14l-14 5l11 161h114v-19z" />
    <glyph glyph-name="six.sup" horiz-adv-x="205" 
d="M106 578c39 0 71 -35 71 -116c0 -79 -31 -115 -74 -115s-77 37 -77 175c0 135 32 181 78 181c33 0 56 -21 63 -61h-20c-7 31 -22 43 -41 43c-56 0 -60 -99 -59 -170c8 47 33 63 59 63zM103 560c-26 0 -52 -23 -52 -95c0 -70 24 -100 53 -100s53 30 53 98s-24 97 -54 97z
" />
    <glyph glyph-name="seven.sup" horiz-adv-x="163" 
d="M14 700h132v-16l-78 -334h-21l78 332h-111v18z" />
    <glyph glyph-name="eight.sup" horiz-adv-x="201" 
d="M176 444c0 -62 -32 -97 -75 -97c-44 0 -76 35 -76 97c0 51 20 78 47 89c-24 10 -39 41 -39 83c0 56 28 87 68 87c39 0 67 -31 67 -87c0 -42 -15 -73 -39 -83c27 -11 47 -38 47 -89zM155 445c0 51 -23 78 -54 78c-32 0 -55 -27 -55 -78c0 -50 23 -80 55 -80
c31 0 54 30 54 80zM101 685c-27 0 -47 -21 -47 -69c0 -47 19 -75 47 -75c27 0 46 28 46 75c0 48 -20 69 -46 69z" />
    <glyph glyph-name="nine.sup" horiz-adv-x="203" 
d="M97 481c-39 0 -71 34 -71 111s31 111 72 111c43 0 77 -37 77 -175c0 -135 -33 -181 -80 -181c-35 0 -61 25 -65 69h20c5 -35 24 -51 45 -51c56 0 59 108 59 175c-8 -44 -31 -59 -57 -59zM99 500c25 0 50 21 50 90c0 66 -23 95 -51 95s-51 -28 -51 -93s22 -92 52 -92z" />
    <glyph glyph-name="comma.sup" horiz-adv-x="87" 
d="M20 293l12 102h23l-22 -106z" />
    <glyph glyph-name="period.sup" horiz-adv-x="88" 
d="M32 350v45h24v-45h-24z" />
    <glyph glyph-name="parenleft.sup" horiz-adv-x="105" 
d="M91 279l-10 -7s-51 71 -51 228s51 228 51 228l10 -7s-41 -72 -41 -221s41 -221 41 -221z" />
    <glyph glyph-name="parenright.sup" horiz-adv-x="105" 
d="M25 272l-11 7s41 72 41 221s-41 221 -41 221l11 7s50 -71 50 -228s-50 -228 -50 -228z" />
    <glyph glyph-name="hyphen.sup" horiz-adv-x="113" 
d="M25 501v18h63v-18h-63z" />
    <glyph glyph-name="zero.sub" horiz-adv-x="208" 
d="M180 75c0 -140 -32 -178 -76 -178c-45 0 -76 38 -76 178s31 178 76 178c44 0 76 -38 76 -178zM159 75c0 130 -23 160 -55 160c-33 0 -55 -30 -55 -160c0 -131 22 -160 55 -160c32 0 55 30 55 160z" />
    <glyph glyph-name="one.sub" horiz-adv-x="137" 
d="M16 204l62 46h15v-350h-20v324l-49 -36z" />
    <glyph glyph-name="two.sub" horiz-adv-x="191" 
d="M22 -100v15c109 202 121 214 121 246c0 43 -20 74 -49 74c-28 0 -49 -31 -49 -73v-11h-20v11c0 54 28 91 69 91s69 -39 69 -92c0 -37 -14 -52 -117 -242h120v-19h-144z" />
    <glyph glyph-name="three.sub" horiz-adv-x="196" 
d="M100 253c39 0 67 -30 67 -86c0 -43 -15 -74 -39 -84c28 -11 47 -32 47 -85c0 -63 -32 -101 -75 -101s-73 38 -73 91v10h21v-12c0 -41 21 -71 52 -71s55 31 55 83c0 49 -23 75 -54 75h-14v18h6c31 0 54 27 54 75c0 47 -21 69 -48 69c-30 0 -51 -30 -51 -71v-12h-21v10
c0 53 30 91 73 91z" />
    <glyph glyph-name="four.sub" horiz-adv-x="198" 
d="M180 -18h-26v-82h-20v82h-114v16l116 252h18v-250h26v-18zM41 0h93v204z" />
    <glyph glyph-name="five.sub" horiz-adv-x="194" 
d="M160 231h-97l-9 -127s22 11 46 11c45 0 73 -39 73 -106c0 -68 -29 -112 -76 -112c-41 0 -71 34 -71 83v10h21v-12c0 -37 21 -63 50 -63c32 0 55 33 55 94c0 58 -21 89 -57 89c-24 0 -46 -14 -46 -14l-14 5l11 161h114v-19z" />
    <glyph glyph-name="six.sub" horiz-adv-x="205" 
d="M106 128c39 0 71 -35 71 -116c0 -79 -31 -115 -74 -115s-77 37 -77 175c0 135 32 181 78 181c33 0 56 -21 63 -61h-20c-7 31 -22 43 -41 43c-56 0 -60 -99 -59 -170c8 47 33 63 59 63zM103 110c-26 0 -52 -23 -52 -95c0 -70 24 -100 53 -100s53 30 53 98s-24 97 -54 97z
" />
    <glyph glyph-name="seven.sub" horiz-adv-x="163" 
d="M14 250h132v-16l-78 -334h-21l78 332h-111v18z" />
    <glyph glyph-name="eight.sub" horiz-adv-x="201" 
d="M176 -6c0 -62 -32 -97 -75 -97c-44 0 -76 35 -76 97c0 51 20 78 47 89c-24 10 -39 41 -39 83c0 56 28 87 68 87c39 0 67 -31 67 -87c0 -42 -15 -73 -39 -83c27 -11 47 -38 47 -89zM155 -5c0 51 -23 78 -54 78c-32 0 -55 -27 -55 -78c0 -50 23 -80 55 -80
c31 0 54 30 54 80zM101 235c-27 0 -47 -21 -47 -69c0 -47 19 -75 47 -75c27 0 46 28 46 75c0 48 -20 69 -46 69z" />
    <glyph glyph-name="nine.sub" horiz-adv-x="203" 
d="M97 31c-39 0 -71 34 -71 111s31 111 72 111c43 0 77 -37 77 -175c0 -135 -33 -181 -80 -181c-35 0 -61 25 -65 69h20c5 -35 24 -51 45 -51c56 0 59 108 59 175c-8 -44 -31 -59 -57 -59zM99 50c25 0 50 21 50 90c0 66 -23 95 -51 95s-51 -28 -51 -93s22 -92 52 -92z" />
    <glyph glyph-name="comma.sub" horiz-adv-x="87" 
d="M20 -157l12 102h23l-22 -106z" />
    <glyph glyph-name="period.sub" horiz-adv-x="88" 
d="M32 -100v45h24v-45h-24z" />
    <glyph glyph-name="parenleft.sub" horiz-adv-x="105" 
d="M91 -171l-10 -7s-51 71 -51 228s51 228 51 228l10 -7s-41 -72 -41 -221s41 -221 41 -221z" />
    <glyph glyph-name="parenright.sub" horiz-adv-x="105" 
d="M25 -178l-11 7s41 72 41 221s-41 221 -41 221l11 7s50 -71 50 -228s-50 -228 -50 -228z" />
    <glyph glyph-name="hyphen.sub" horiz-adv-x="113" 
d="M25 51v18h63v-18h-63z" />
    <glyph glyph-name="exclam" unicode="!" horiz-adv-x="146" 
d="M59 0v80h28v-80h-28zM65 190l-4 510h23l-3 -510h-16z" />
    <glyph glyph-name="quotedbl" unicode="&#x22;" horiz-adv-x="162" 
d="M37 488v212h19v-212h-19zM107 488v212h19v-212h-19z" />
    <glyph glyph-name="quotesingle" unicode="'" horiz-adv-x="93" 
d="M37 488v212h19v-212h-19z" />
    <glyph glyph-name="quotesinglbase" unicode="&#x201a;" horiz-adv-x="145" 
d="M36 -120l23 200h27l-35 -204z" />
    <glyph glyph-name="quotedblbase" unicode="&#x201e;" horiz-adv-x="223" 
d="M36 -120l23 200h27l-35 -204zM114 -120l22 200h28l-35 -204z" />
    <glyph glyph-name="quoteleft" unicode="&#x2018;" horiz-adv-x="144" 
d="M97 696l-22 -200h-28l35 204z" />
    <glyph glyph-name="quoteright" unicode="&#x2019;" horiz-adv-x="144" 
d="M47 500l23 200h27l-35 -204z" />
    <glyph glyph-name="quotedblleft" unicode="&#x201c;" horiz-adv-x="222" 
d="M175 696l-23 -200h-27l34 204zM97 696l-22 -200h-28l35 204z" />
    <glyph glyph-name="quotedblright" unicode="&#x201d;" horiz-adv-x="222" 
d="M47 500l23 200h27l-35 -204zM125 500l22 200h28l-35 -204z" />
    <glyph glyph-name="ampersand" unicode="&#x26;" horiz-adv-x="420" 
d="M299 505v20c0 94 -43 160 -105 160c-61 0 -104 -64 -104 -145c0 -66 28 -89 57 -136l172 -275c19 39 39 89 62 152l17 -10c-25 -68 -46 -121 -66 -162l64 -101l-15 -13l-60 94c-37 -68 -74 -94 -129 -94c-94 0 -149 78 -149 180v35c0 63 26 123 81 192
c-29 43 -54 72 -54 138c0 93 52 165 125 165s125 -74 125 -180v-20h-21zM193 15c47 0 80 27 116 94l-173 274c-51 -69 -73 -119 -73 -173v-35c0 -93 55 -160 130 -160z" />
    <glyph glyph-name="asterisk" unicode="*" horiz-adv-x="384" 
d="M182 700h20v-122l115 40l7 -19l-115 -39l72 -98l-16 -12l-72 98l-71 -99l-17 11l71 99l-116 37l6 19l116 -37v122z" />
    <glyph glyph-name="plus" unicode="+" horiz-adv-x="380" 
d="M180 540h20v-180h162v-20h-162v-180h-20v180h-162v20h162v180z" />
    <glyph glyph-name="plusminus" unicode="&#xb1;" horiz-adv-x="380" 
d="M180 610h20v-180h162v-20h-162v-180h-20v180h-162v20h162v180zM18 130v20h344v-20h-344z" />
    <glyph glyph-name="slash" unicode="/" horiz-adv-x="274" 
d="M0 -142l256 892l18 -8l-256 -892z" />
    <glyph glyph-name="backslash" unicode="\" horiz-adv-x="274" 
d="M18 750l256 -892l-18 -8l-256 892z" />
    <glyph glyph-name="fraction" unicode="&#x2044;" horiz-adv-x="335" 
d="M0 0l318 710l17 -10l-319 -710z" />
    <glyph glyph-name="at" unicode="@" horiz-adv-x="479" 
d="M421 -125v-20s-83 -30 -159 -30c-149 0 -204 104 -204 260v190c0 154 89 260 207 260c96 0 156 -74 156 -180v-355h-20v68c-20 -45 -59 -73 -110 -73c-69 0 -118 54 -118 130v45c0 76 56 118 128 125l100 9v51c0 92 -51 160 -135 160c-106 0 -187 -100 -187 -240v-190
c0 -144 48 -240 181 -240c72 0 161 30 161 30zM401 145v139l-100 -9c-67 -6 -108 -46 -108 -105v-45c0 -64 42 -110 101 -110c63 0 107 54 107 130z" />
    <glyph glyph-name="parenleft" unicode="(" horiz-adv-x="184" 
d="M165 -146l-12 -9s-95 143 -95 455s94 455 94 455l13 -9s-87 -144 -87 -446s87 -446 87 -446z" />
    <glyph glyph-name="parenright" unicode=")" horiz-adv-x="184" 
d="M31 -155l-12 9s87 144 87 446s-87 446 -87 446l13 9s94 -143 94 -455s-95 -455 -95 -455z" />
    <glyph glyph-name="bracketleft" unicode="[" horiz-adv-x="218" 
d="M58 -150v900h138v-20h-118v-860h118v-20h-138z" />
    <glyph glyph-name="bracketright" unicode="]" horiz-adv-x="218" 
d="M160 750v-900h-138v20h118v860h-118v20h138z" />
    <glyph glyph-name="braceleft" unicode="{" horiz-adv-x="189" 
d="M101 220v-270c0 -58 19 -80 66 -80v-20c-58 0 -86 28 -86 100v270c0 49 -17 70 -59 70v20c42 0 59 21 59 70v270c0 72 28 100 86 100v-20c-47 0 -66 -22 -66 -80v-270c0 -41 -11 -67 -36 -80c25 -13 36 -40 36 -80z" />
    <glyph glyph-name="braceright" unicode="}" horiz-adv-x="189" 
d="M89 380v270c0 58 -20 80 -67 80v20c59 0 86 -28 86 -100v-270c0 -49 17 -70 59 -70v-20c-42 0 -59 -21 -59 -70v-270c0 -72 -27 -100 -86 -100v20c47 0 67 22 67 80v270c0 40 10 67 34 80c-24 13 -34 39 -34 80z" />
    <glyph glyph-name="exclamdown" unicode="&#xa1;" horiz-adv-x="146" 
d="M61 -170l4 510h16l3 -510h-23zM59 450v80h28v-80h-28z" />
    <glyph glyph-name="questiondown" unicode="&#xbf;" horiz-adv-x="360" 
d="M194 530v-80h-28v80h28zM180 -175c-85 0 -136 87 -136 181c0 152 125 246 125 246v88h20v-99s-124 -93 -124 -236c0 -83 41 -160 115 -160c69 0 116 66 116 160v27h20v-27c0 -106 -56 -180 -136 -180z" />
    <glyph glyph-name="guillemotleft" unicode="&#xab;" horiz-adv-x="344" 
d="M162 131l-125 169l125 169l12 -14l-111 -155l111 -155zM288 131l-124 169l124 169l13 -14l-111 -155l111 -155z" />
    <glyph glyph-name="guillemotright" unicode="&#xbb;" horiz-adv-x="344" 
d="M180 300l-124 -169l-13 14l111 155l-111 155l13 14zM307 300l-125 -169l-12 14l111 155l-111 155l12 14z" />
    <glyph glyph-name="guilsinglleft" unicode="&#x2039;" horiz-adv-x="218" 
d="M162 131l-125 169l125 169l12 -15l-111 -154l111 -154z" />
    <glyph glyph-name="guilsinglright" unicode="&#x203a;" horiz-adv-x="217" 
d="M180 300l-124 -169l-13 14l111 155l-110 155l12 14z" />
    <glyph glyph-name="hyphen" unicode="-" horiz-adv-x="209" 
d="M44 315v20h121v-20h-121z" />
    <glyph glyph-name="endash" unicode="&#x2013;" 
d="M44 315v20h276v-20h-276z" />
    <glyph glyph-name="emdash" unicode="&#x2014;" horiz-adv-x="564" 
d="M44 315v20h476v-20h-476z" />
    <glyph glyph-name="periodcentered" unicode="&#xb7;" horiz-adv-x="146" 
d="M59 285v80h28v-80h-28z" />
    <glyph glyph-name="colon" unicode=":" horiz-adv-x="146" 
d="M59 0v80h28v-80h-28zM59 450v80h28v-80h-28z" />
    <glyph glyph-name="semicolon" unicode=";" horiz-adv-x="145" 
d="M59 450v80h27v-80h-27zM36 -120l23 200h27l-35 -204z" />
    <glyph glyph-name="less" unicode="&#x3c;" horiz-adv-x="380" 
d="M27 339v23l326 200v-23l-308 -189l308 -188v-23z" />
    <glyph glyph-name="equal" unicode="=" horiz-adv-x="380" 
d="M27 440v20h326v-20h-326zM27 240v20h326v-20h-326z" />
    <glyph glyph-name="logicalnot" unicode="&#xac;" horiz-adv-x="380" 
d="M18 390v20h344v-200h-20v180h-324z" />
    <glyph glyph-name="greater" unicode="&#x3e;" horiz-adv-x="380" 
d="M353 362v-23l-326 -200v23l307 188l-307 189v23z" />
    <glyph glyph-name="question" unicode="?" horiz-adv-x="360" 
d="M166 0v80h28v-80h-28zM180 705c85 0 136 -87 136 -181c0 -152 -125 -246 -125 -246v-88h-20v99s125 93 125 236c0 83 -42 160 -116 160c-69 0 -115 -66 -115 -160v-27h-21v27c0 106 56 180 136 180z" />
    <glyph glyph-name="asciicircum" unicode="^" horiz-adv-x="380" 
d="M178 700h23l140 -279h-22l-130 256l-128 -256h-22z" />
    <glyph glyph-name="underscore" unicode="_" horiz-adv-x="141" 
d="M0 -70v20h141v-20h-141z" />
    <glyph glyph-name="bar" unicode="|" horiz-adv-x="135" 
d="M58 -150v900h19v-900h-19z" />
    <glyph glyph-name="brokenbar" unicode="&#xa6;" horiz-adv-x="135" 
d="M77 350h-19v400h19v-400zM58 250h19v-400h-19v400z" />
    <glyph glyph-name="percent" unicode="%" horiz-adv-x="577" 
d="M237 525c0 -142 -38 -180 -93 -180s-93 38 -93 180s38 180 93 180s93 -38 93 -180zM218 525c0 128 -30 160 -74 160s-74 -32 -74 -160s30 -160 74 -160s74 32 74 160zM121 0l318 710l17 -10l-319 -710zM526 175c0 -142 -38 -180 -94 -180c-54 0 -92 38 -92 180
s38 180 92 180c56 0 94 -38 94 -180zM507 175c0 128 -31 160 -75 160c-43 0 -73 -32 -73 -160s30 -160 73 -160c44 0 75 32 75 160z" />
    <glyph glyph-name="perthousand" unicode="&#x2030;" horiz-adv-x="805" 
d="M237 525c0 -142 -38 -180 -93 -180s-93 38 -93 180s38 180 93 180s93 -38 93 -180zM218 525c0 128 -30 160 -74 160s-74 -32 -74 -160s30 -160 74 -160s74 32 74 160zM121 0l318 710l17 -10l-319 -710zM526 175c0 -142 -38 -180 -94 -180c-54 0 -92 38 -92 180
s38 180 92 180c56 0 94 -38 94 -180zM507 175c0 128 -31 160 -75 160c-43 0 -73 -32 -73 -160s30 -160 73 -160c44 0 75 32 75 160zM755 175c0 -142 -38 -180 -93 -180s-93 38 -93 180s38 180 93 180s93 -38 93 -180zM736 175c0 128 -30 160 -74 160c-43 0 -74 -32 -74 -160
s31 -160 74 -160c44 0 74 32 74 160z" />
    <glyph glyph-name="ellipsis" unicode="&#x2026;" horiz-adv-x="435" 
d="M59 0v80h28v-80h-28zM204 0v80h27v-80h-27zM348 0v80h28v-80h-28z" />
    <glyph glyph-name="asciitilde" unicode="~" horiz-adv-x="380" 
d="M117 391c67 0 79 -60 140 -60c60 0 90 60 90 60l15 -9s-31 -71 -105 -71c-68 0 -79 60 -140 60c-60 0 -83 -60 -83 -60l-16 9s25 71 99 71z" />
    <glyph glyph-name="dagger" unicode="&#x2020;" horiz-adv-x="288" 
d="M15 500v20h120v230h19v-230h119v-20h-119v-650h-19v650h-120z" />
    <glyph glyph-name="daggerdbl" unicode="&#x2021;" horiz-adv-x="288" 
d="M15 500v20h120v230h19v-230h119v-20h-119v-400h119v-20h-119v-230h-19v230h-120v20h120v400h-120z" />
    <glyph glyph-name="figuredash" unicode="&#x2012;" horiz-adv-x="380" 
d="M-9 340v20h398v-20h-398z" />
    <glyph glyph-name="minus" unicode="&#x2212;" horiz-adv-x="380" 
d="M18 340v20h344v-20h-344z" />
    <glyph glyph-name="bullet" unicode="&#x2022;" horiz-adv-x="377" 
d="M80 325c0 60 49 109 109 109s109 -49 109 -109s-49 -109 -109 -109s-109 49 -109 109z" />
    <glyph glyph-name="trademark" unicode="&#x2122;" horiz-adv-x="421" 
d="M225 350h-20v350h18l73 -245l74 245h18v-350h-19v285l-66 -217h-13l-65 214v-282zM171 700v-19h-69v-331h-21v331h-69v19h159z" />
    <glyph glyph-name="section" unicode="&#xa7;" horiz-adv-x="321" 
d="M62 149v-10c0 -73 41 -125 102 -125c57 0 99 44 99 104c0 40 -18 70 -47 88l-113 69c-35 21 -57 59 -57 107c0 43 18 78 48 100c-30 21 -48 56 -48 100c0 72 48 123 111 123c69 0 115 -62 115 -150v-10h-20v10c0 76 -38 130 -95 130c-52 0 -91 -44 -91 -103
c0 -37 15 -70 47 -90l113 -69c35 -21 57 -58 57 -105c0 -43 -20 -78 -50 -100c31 -21 50 -57 50 -101c0 -71 -50 -122 -118 -122c-74 0 -123 60 -123 144v10h20zM216 407l-105 64c-29 -18 -45 -52 -45 -89s15 -70 47 -90l102 -63c29 18 48 50 48 90c0 39 -18 70 -47 88z" />
    <glyph glyph-name="copyright" unicode="&#xa9;" horiz-adv-x="852" 
d="M781 350c0 -281 -146 -355 -355 -355c-208 0 -354 74 -354 355s146 355 354 355c209 0 355 -74 355 -355zM762 350c0 269 -138 335 -336 335c-196 0 -334 -66 -334 -335s138 -335 334 -335c198 0 336 66 336 335zM480 279h21v-17c0 -53 -31 -90 -75 -90s-75 37 -75 90
v176c0 53 31 90 75 90s75 -37 75 -90v-18h-21v20c0 41 -23 69 -54 69s-54 -28 -54 -69v-180c0 -41 23 -69 54 -69s54 28 54 69v19z" />
    <glyph glyph-name="ordfeminine" unicode="&#xaa;" horiz-adv-x="216" 
d="M53 595h-20v18c0 54 31 90 74 90c42 0 73 -36 73 -90v-231h-20v34c-13 -22 -35 -37 -62 -37c-40 0 -68 31 -68 78v20c0 47 33 73 76 77l54 4v57c0 41 -23 70 -53 70c-31 0 -54 -29 -54 -70v-20zM160 467v73l-53 -5c-36 -3 -57 -25 -57 -57v-21c0 -36 22 -60 53 -60
c33 0 57 29 57 70z" />
    <glyph glyph-name="uni00AD" unicode="&#xad;" horiz-adv-x="209" 
d="M44 315v20h121v-20h-121z" />
    <glyph glyph-name="registered" unicode="&#xae;" horiz-adv-x="852" 
d="M781 350c0 -281 -146 -355 -355 -355c-208 0 -354 74 -354 355s146 355 354 355c209 0 355 -74 355 -355zM762 350c0 269 -138 335 -336 335c-196 0 -334 -66 -334 -335s138 -335 334 -335c198 0 336 66 336 335zM388 326v-151h-21v350h65c43 0 75 -37 75 -90v-19
c0 -43 -21 -75 -51 -86l59 -155h-21l-56 151h-50zM431 506h-43v-161h43c32 0 54 28 54 69v23c0 41 -22 69 -54 69z" />
    <glyph glyph-name="degree" unicode="&#xb0;" horiz-adv-x="343" 
d="M60 593c0 62 50 112 111 112c62 0 112 -50 112 -112c0 -61 -50 -111 -112 -111c-61 0 -111 50 -111 111zM80 593c0 -52 39 -91 91 -91c53 0 92 39 92 91c0 53 -39 92 -92 92c-52 0 -91 -39 -91 -92z" />
    <glyph glyph-name="paragraph" unicode="&#xb6;" horiz-adv-x="356" 
d="M199 700v-700h-19v310c-88 0 -150 74 -150 180v30c0 106 62 180 150 180h19zM291 700v-700h-19v700h19z" />
    <glyph glyph-name="ordmasculine" unicode="&#xba;" horiz-adv-x="217" 
d="M185 469c0 -54 -32 -90 -76 -90c-45 0 -77 36 -77 90v144c0 54 32 90 77 90c44 0 76 -36 76 -90v-144zM165 467v148c0 41 -23 70 -56 70c-34 0 -57 -29 -57 -70v-148c0 -41 23 -70 57 -70c33 0 56 29 56 70z" />
    <glyph glyph-name="multiply" unicode="&#xd7;" horiz-adv-x="380" 
d="M304 491l14 -14l-115 -127l115 -127l-14 -14l-114 126l-114 -126l-14 14l114 127l-114 127l14 14l114 -126z" />
    <glyph glyph-name="divide" unicode="&#xf7;" horiz-adv-x="380" 
d="M18 340v20h344v-20h-344zM175 120v80h30v-80h-30zM175 500v80h30v-80h-30z" />
    <glyph glyph-name="afii61352" unicode="&#x2116;" horiz-adv-x="663" 
d="M612 525c0 -142 -38 -180 -93 -180s-93 38 -93 180s38 180 93 180s93 -38 93 -180zM85 0h-20v700h20l260 -647v647h20v-700h-19l-261 647v-647zM593 525c0 128 -30 160 -74 160s-74 -32 -74 -160s30 -160 74 -160s74 32 74 160z" />
    <glyph glyph-name="zero.smcp" horiz-adv-x="325" 
d="M280 263c0 -211 -48 -267 -118 -267c-68 0 -117 56 -117 267c0 210 49 266 117 266c70 0 118 -56 118 -266zM259 263c0 199 -39 247 -97 247c-56 0 -97 -48 -97 -247c0 -200 41 -248 97 -248c58 0 97 48 97 248z" />
    <glyph glyph-name="one.smcp" horiz-adv-x="204" 
d="M25 455l93 70h17v-525h-20v500l-81 -61z" />
    <glyph glyph-name="two.smcp" horiz-adv-x="298" 
d="M36 0v18c177 305 197 323 197 374c0 68 -36 118 -86 118s-86 -48 -86 -117v-15h-20v15c0 80 44 136 106 136s106 -59 106 -137c0 -58 -24 -78 -194 -373h199v-19h-222z" />
    <glyph glyph-name="three.smcp" horiz-adv-x="304" 
d="M156 529c60 0 103 -44 103 -126c0 -65 -26 -113 -67 -128c47 -15 80 -44 80 -128c0 -94 -49 -151 -116 -151c-68 0 -113 56 -113 136v14h20v-16c0 -67 38 -115 92 -115c56 0 97 50 97 132c0 76 -39 117 -96 117h-19v19h5c56 0 96 43 96 120c0 72 -36 107 -83 107
c-54 0 -92 -48 -92 -115v-18h-20v17c0 79 45 135 113 135z" />
    <glyph glyph-name="four.smcp" horiz-adv-x="308" 
d="M281 125h-43v-125h-20v125h-186v18l187 382h19v-381h43v-19zM54 144h164v336z" />
    <glyph glyph-name="five.smcp" horiz-adv-x="299" 
d="M250 506h-159l-15 -203s37 17 76 17c73 0 115 -58 115 -157c0 -104 -45 -167 -117 -167c-62 0 -108 50 -108 122v14h20v-16c0 -59 38 -101 89 -101c55 0 95 52 95 147c0 90 -36 140 -97 140c-40 0 -80 -21 -80 -21l-13 7l18 237h176v-19z" />
    <glyph glyph-name="six.smcp" horiz-adv-x="322" 
d="M164 342c65 0 113 -56 113 -173c0 -118 -48 -173 -114 -173s-120 56 -120 262c0 201 51 271 123 271c50 0 86 -32 95 -85h-20c-12 47 -39 66 -73 66c-101 0 -107 -169 -103 -275c11 80 55 107 99 107zM163 322c-47 0 -91 -38 -91 -149c0 -107 41 -158 93 -158
c51 0 92 49 92 154s-41 153 -94 153z" />
    <glyph glyph-name="seven.smcp" horiz-adv-x="248" 
d="M20 525h202v-18l-124 -507h-21l123 506h-180v19z" />
    <glyph glyph-name="eight.smcp" horiz-adv-x="314" 
d="M274 141c0 -92 -50 -145 -117 -145c-68 0 -117 53 -117 145c0 78 35 119 80 134c-42 15 -66 62 -66 126c0 84 43 128 103 128s103 -44 103 -128c0 -64 -24 -111 -65 -126c44 -15 79 -56 79 -134zM254 142c0 78 -41 122 -97 122s-97 -44 -97 -122c0 -80 41 -127 97 -127
s97 47 97 127zM157 510c-46 0 -82 -32 -82 -108c0 -73 33 -119 82 -119s83 46 83 119c0 76 -37 108 -83 108z" />
    <glyph glyph-name="nine.smcp" horiz-adv-x="317" 
d="M155 198c-64 0 -112 52 -112 166c0 112 47 165 111 165c66 0 118 -56 118 -261c0 -201 -50 -272 -124 -272c-53 0 -92 38 -99 99h20c8 -54 42 -80 79 -80c100 0 106 184 103 282c-12 -73 -51 -99 -96 -99zM155 217c46 0 88 36 88 142c0 103 -39 151 -90 151
c-49 0 -90 -47 -90 -147c0 -99 40 -146 92 -146z" />
    <glyph glyph-name="Euro.smcp" horiz-adv-x="328" 
d="M17 300v17h35v77c0 80 49 135 117 135c69 0 117 -55 117 -135v-25h-20v26c0 68 -41 115 -97 115s-96 -47 -96 -115v-78h119v-17h-119v-73h119v-17h-119v-80c0 -68 40 -115 96 -115s97 48 97 115v25h20v-24c0 -80 -48 -135 -117 -135c-68 0 -117 55 -117 135v79h-35v17h35
v73h-35z" />
    <glyph glyph-name="sterling.smcp" horiz-adv-x="239" 
d="M22 233v17h37c-11 46 -21 90 -21 140c0 101 42 139 91 139c54 0 93 -50 93 -120v-10h-20v10c0 58 -30 101 -72 101c-38 0 -72 -37 -72 -118c0 -47 12 -93 23 -142h96v-17h-93c13 -61 25 -129 12 -214h126v-19h-201v19h55c11 89 0 154 -13 214h-41z" />
    <glyph glyph-name="yen.smcp" horiz-adv-x="280" 
d="M53 150v17h76v56l-119 302h21l109 -279l109 279h21l-120 -302v-56h76v-17h-76v-59h76v-17h-76v-74h-21v74h-76v17h76v59h-76z" />
    <glyph glyph-name="uni20B4.smcp" horiz-adv-x="282" 
d="M26 209v18h221v-18h-166c-17 -21 -26 -52 -26 -84c0 -65 35 -110 83 -110c50 0 84 48 84 116h21c0 -79 -42 -135 -105 -135c-60 0 -104 52 -104 129c0 33 8 62 22 84h-30zM26 299v17h164c18 21 27 51 27 85c0 64 -33 109 -77 109c-47 0 -79 -48 -79 -116h-21
c0 80 41 135 100 135c57 0 98 -53 98 -128c0 -34 -8 -63 -22 -85h31v-17h-221z" />
    <glyph glyph-name="numbersign.smcp" horiz-adv-x="366" 
d="M204 0l14 119h-110l-14 -119h-18l14 119h-68l3 19h68l30 250h-68l2 18h68l15 119h18l-15 -119h110l15 119h19l-15 -119h67l-2 -18h-67l-31 -250h67l-2 -19h-68l-14 -119h-18zM141 388l-30 -250h110l30 250h-110z" />
    <glyph glyph-name="zero.fitted.smcp" horiz-adv-x="307" 
d="M267 263c0 -211 -47 -267 -114 -267c-66 0 -113 56 -113 267c0 210 47 266 113 266c67 0 114 -56 114 -266zM246 263c0 199 -38 247 -93 247c-54 0 -93 -48 -93 -247c0 -200 39 -248 93 -248c55 0 93 48 93 248z" />
    <glyph glyph-name="one.fitted.smcp" horiz-adv-x="307" 
d="M45 455l109 70h17v-506h102v-19h-223v19h101v481l-97 -61z" />
    <glyph glyph-name="two.fitted.smcp" horiz-adv-x="306" 
d="M38 0v18c181 305 201 323 201 374c0 68 -37 118 -88 118c-52 0 -88 -48 -88 -117v-15h-20v15c0 80 44 136 108 136c63 0 108 -59 108 -137c0 -58 -24 -78 -197 -373h202v-19h-226z" />
    <glyph glyph-name="three.fitted.smcp" horiz-adv-x="306" 
d="M156 529c62 0 105 -44 105 -126c0 -65 -25 -113 -67 -128c48 -15 81 -44 81 -128c0 -94 -50 -151 -118 -151c-69 0 -115 56 -115 136v14h20v-16c0 -67 39 -115 94 -115c57 0 100 50 100 132c0 76 -41 117 -99 117h-19v19h5c57 0 98 43 98 120c0 72 -37 107 -85 107
c-56 0 -94 -48 -94 -115v-18h-20v17c0 79 46 135 114 135z" />
    <glyph glyph-name="four.fitted.smcp" horiz-adv-x="306" 
d="M279 125h-43v-125h-20v125h-185v18l186 379v3h19v-381h43v-19zM53 144h163v336z" />
    <glyph glyph-name="five.fitted.smcp" horiz-adv-x="306" 
d="M255 506h-161l-16 -203s38 17 77 17c75 0 117 -58 117 -157c0 -104 -45 -167 -118 -167c-64 0 -110 50 -110 122v14h20v-16c0 -59 39 -101 91 -101c55 0 96 52 96 147c0 90 -36 140 -98 140c-41 0 -82 -21 -82 -21l-13 7l19 237h178v-19z" />
    <glyph glyph-name="six.fitted.smcp" horiz-adv-x="307" 
d="M156 342c62 0 110 -56 110 -173c0 -118 -48 -173 -112 -173s-116 56 -116 262c0 201 49 271 119 271c49 0 84 -32 93 -85h-21c-11 47 -37 66 -69 66c-98 0 -104 -169 -100 -275c11 80 53 107 96 107zM154 322c-45 0 -87 -38 -87 -149c0 -107 39 -158 89 -158
s89 49 89 154s-40 153 -91 153z" />
    <glyph glyph-name="seven.fitted.smcp" horiz-adv-x="307" 
d="M34 525h231v-18l-143 -507h-21l142 506h-209v19z" />
    <glyph glyph-name="eight.fitted.smcp" horiz-adv-x="307" 
d="M269 141c0 -92 -49 -145 -115 -145c-67 0 -116 53 -116 145c0 78 34 119 78 134c-40 15 -64 62 -64 126c0 84 42 128 102 128c59 0 102 -44 102 -128c0 -64 -24 -111 -64 -126c43 -15 77 -56 77 -134zM249 142c0 78 -40 122 -95 122c-56 0 -96 -44 -96 -122
c0 -80 41 -127 96 -127s95 47 95 127zM154 510c-46 0 -81 -32 -81 -108c0 -73 33 -119 81 -119s81 46 81 119c0 76 -36 108 -81 108z" />
    <glyph glyph-name="nine.fitted.smcp" horiz-adv-x="307" 
d="M150 198c-63 0 -110 52 -110 166c0 112 46 165 109 165c64 0 116 -56 116 -261c0 -201 -50 -272 -122 -272c-52 0 -91 38 -97 99h20c8 -54 40 -80 76 -80c99 0 104 184 101 282c-11 -73 -50 -99 -93 -99zM150 217c44 0 86 36 86 142c0 103 -39 151 -89 151
c-48 0 -87 -47 -87 -147c0 -99 39 -146 90 -146z" />
    <glyph glyph-name="exclam.smcp" horiz-adv-x="126" 
d="M50 0v63h26v-63h-26zM55 144l-4 381h23l-3 -381h-16z" />
    <glyph glyph-name="ampersand.smcp" horiz-adv-x="337" 
d="M234 379v17c0 67 -32 114 -78 114c-45 0 -77 -45 -77 -105c0 -47 20 -65 42 -99l131 -202c14 28 29 65 46 110l17 -10c-19 -50 -35 -89 -51 -119l50 -76l-15 -13l-45 69c-29 -50 -58 -69 -101 -69c-73 0 -116 58 -116 134v28c0 46 20 91 63 143c-23 32 -42 55 -42 104
c0 71 41 124 99 124s99 -55 99 -133v-17h-22zM154 15c35 0 61 20 88 68l-131 200c-37 -49 -54 -86 -54 -125v-28c0 -67 41 -115 97 -115z" />
    <glyph glyph-name="slash.smcp" horiz-adv-x="203" 
d="M5 -30l176 593l17 -8l-176 -593z" />
    <glyph glyph-name="backslash.smcp" horiz-adv-x="207" 
d="M22 563l177 -593l-17 -8l-177 593z" />
    <glyph glyph-name="at.smcp" horiz-adv-x="382" 
d="M334 38v-20s-65 -22 -124 -22c-118 0 -162 79 -162 195v143c0 116 70 195 162 195c76 0 124 -56 124 -135v-266h-20v48c-16 -31 -46 -52 -84 -52c-53 0 -90 39 -90 97v35c0 58 44 90 100 95l74 6v38c0 66 -39 115 -103 115c-80 0 -142 -73 -142 -176v-143
c0 -106 37 -176 140 -176c55 0 125 23 125 23zM235 143c43 0 76 34 79 84v111l-74 -6c-50 -4 -80 -33 -80 -75v-36c0 -46 31 -78 75 -78z" />
    <glyph glyph-name="parenleft.smcp" horiz-adv-x="155" 
d="M135 -33l-11 -9s-76 95 -76 305c0 209 75 304 75 304l12 -9s-67 -96 -67 -295c0 -200 67 -296 67 -296z" />
    <glyph glyph-name="parenright.smcp" horiz-adv-x="155" 
d="M31 -42l-11 9s67 96 67 296c0 199 -67 295 -67 295l12 9s75 -95 75 -304c0 -210 -76 -305 -76 -305z" />
    <glyph glyph-name="bracketleft.smcp" horiz-adv-x="180" 
d="M48 -38v601h110v-19h-90v-563h90v-19h-110z" />
    <glyph glyph-name="bracketright.smcp" horiz-adv-x="180" 
d="M132 563v-601h-110v19h90v563h-90v19h110z" />
    <glyph glyph-name="braceleft.smcp" horiz-adv-x="159" 
d="M88 202v-162c0 -42 14 -59 50 -59v-19c-47 0 -70 23 -70 78v162c0 35 -14 51 -46 51v19c32 0 46 16 46 52v161c0 55 23 78 70 78v-19c-36 0 -50 -17 -50 -59v-161c0 -31 -10 -52 -29 -62c19 -10 29 -30 29 -60z" />
    <glyph glyph-name="braceright.smcp" horiz-adv-x="159" 
d="M73 324v161c0 42 -15 59 -51 59v19c48 0 71 -23 71 -78v-161c0 -36 13 -52 45 -52v-19c-32 0 -45 -16 -45 -51v-162c0 -55 -23 -78 -71 -78v19c36 0 51 17 51 59v162c0 30 9 50 28 60c-19 10 -28 31 -28 62z" />
    <glyph glyph-name="exclamdown.smcp" horiz-adv-x="126" 
d="M51 0l4 382h16l3 -382h-23zM50 463v62h26v-62h-26z" />
    <glyph glyph-name="questiondown.smcp" horiz-adv-x="290" 
d="M158 525v-62h-26v62h26zM145 -4c-66 0 -107 64 -107 136c0 114 96 183 96 183v66h20v-76s-95 -69 -95 -174c0 -61 31 -116 86 -116c51 0 86 48 86 115v21h21v-21c0 -79 -44 -134 -107 -134z" />
    <glyph glyph-name="question.smcp" horiz-adv-x="290" 
d="M132 0v63h26v-63h-26zM145 529c66 0 107 -64 107 -136c0 -114 -96 -183 -96 -183v-66h-20v76s95 69 95 174c0 61 -31 116 -86 116c-52 0 -86 -47 -86 -115v-21h-21v21c0 79 44 134 107 134z" />
    <glyph glyph-name="bar.smcp" horiz-adv-x="114" 
d="M48 -38v601h18v-601h-18z" />
    <glyph glyph-name="brokenbar.smcp" horiz-adv-x="114" 
d="M66 300h-18v263h18v-263zM48 225h18v-263h-18v263z" />
    <glyph glyph-name="percent.smcp" horiz-adv-x="459" 
d="M190 394c0 -107 -30 -135 -73 -135c-44 0 -74 28 -74 135c0 106 30 135 74 135c43 0 73 -29 73 -135zM172 394c0 94 -23 117 -55 117c-33 0 -56 -23 -56 -117c0 -95 23 -118 56 -118c32 0 55 23 55 118zM98 0l247 534l16 -9l-248 -534zM416 131c0 -106 -30 -135 -74 -135
c-43 0 -73 29 -73 135c0 107 30 136 73 136c44 0 74 -29 74 -136zM398 131c0 94 -23 117 -56 117c-32 0 -55 -23 -55 -117s23 -117 55 -117c33 0 56 23 56 117z" />
    <glyph glyph-name="perthousand.smcp" horiz-adv-x="637" 
d="M190 394c0 -107 -30 -135 -73 -135c-44 0 -74 28 -74 135c0 106 30 135 74 135c43 0 73 -29 73 -135zM172 394c0 94 -23 117 -55 117c-33 0 -56 -23 -56 -117c0 -95 23 -118 56 -118c32 0 55 23 55 118zM98 0l247 534l16 -9l-248 -534zM416 131c0 -106 -30 -135 -74 -135
c-43 0 -73 29 -73 135c0 107 30 136 73 136c44 0 74 -29 74 -136zM398 131c0 94 -23 117 -56 117c-32 0 -55 -23 -55 -117s23 -117 55 -117c33 0 56 23 56 117zM595 131c0 -106 -30 -135 -73 -135c-44 0 -74 29 -74 135c0 107 30 136 74 136c43 0 73 -29 73 -136zM577 131
c0 94 -22 117 -55 117c-32 0 -55 -23 -55 -117s23 -117 55 -117c33 0 55 23 55 117z" />
    <glyph glyph-name="dagger.smcp" horiz-adv-x="236" 
d="M16 373v19h93v133h19v-133h92v-19h-92v-373h-19v373h-93z" />
    <glyph glyph-name="daggerdbl.smcp" horiz-adv-x="236" 
d="M16 373v19h93v133h19v-133h92v-19h-92v-221h92v-18h-92v-134h-19v134h-93v18h93v221h-93z" />
    <glyph glyph-name="section.smcp" horiz-adv-x="258" 
d="M56 113v-9c0 -53 30 -90 76 -90c42 0 73 32 73 75c0 29 -13 51 -35 64l-86 51c-28 16 -45 45 -45 82c0 31 14 58 37 74c-23 16 -37 43 -37 76c0 55 38 93 87 93c55 0 91 -46 91 -112v-9h-20v9c0 55 -28 93 -71 93c-38 0 -67 -31 -67 -74c0 -27 11 -51 35 -65l86 -51
c28 -16 45 -45 45 -81c0 -32 -15 -58 -38 -74c23 -16 38 -44 38 -77c0 -54 -39 -92 -93 -92c-58 0 -96 45 -96 108v9h20zM169 304l-77 46c-21 -13 -33 -38 -33 -64c0 -27 11 -52 35 -66l75 -44c22 12 36 35 36 64c0 28 -14 51 -36 64z" />
    <glyph glyph-name="paragraph.smcp" horiz-adv-x="288" 
d="M162 525v-525h-18v231c-69 0 -117 55 -117 135v23c0 80 48 136 117 136h18zM235 525v-525h-18v525h18z" />
    <glyph glyph-name="afii61352.smcp" horiz-adv-x="524" 
d="M481 394c0 -107 -30 -135 -74 -135c-43 0 -73 28 -73 135c0 106 30 135 73 135c44 0 74 -29 74 -135zM74 0h-20v525h20l194 -473v473h20v-525h-19l-195 473v-473zM462 394c0 94 -22 117 -55 117c-32 0 -55 -23 -55 -117c0 -95 23 -118 55 -118c33 0 55 23 55 118z" />
    <glyph glyph-name="afii10017" unicode="&#x410;" horiz-adv-x="368" 
d="M28 0h-21l166 700h22l166 -700h-21l-48 202h-216zM184 658l-104 -436h207z" />
    <glyph glyph-name="afii10018" unicode="&#x411;" horiz-adv-x="386" 
d="M194 0h-129v700h241v-20h-220v-285h108c88 0 150 -74 150 -180v-35c0 -106 -62 -180 -150 -180zM194 375h-108v-355h108c76 0 130 66 130 160v35c0 94 -54 160 -130 160z" />
    <glyph glyph-name="afii10019" unicode="&#x412;" horiz-adv-x="380" 
d="M65 0v700h111c88 0 150 -61 150 -148v-47c0 -66 -36 -117 -91 -138c66 -18 109 -79 109 -161v-39c0 -98 -61 -167 -150 -167h-129zM194 355h-108v-335h108c76 0 130 61 130 149v38c0 87 -54 148 -130 148zM176 680h-90v-305h90c76 0 130 54 130 129v47
c0 75 -54 129 -130 129z" />
    <glyph glyph-name="afii10020" unicode="&#x413;" horiz-adv-x="295" 
d="M280 700v-20h-194v-680h-21v700h215z" />
    <glyph glyph-name="afii10021" unicode="&#x414;" horiz-adv-x="463" 
d="M15 -150v170h41c48 44 66 69 66 605v75h257v-680h70v-170h-20v150h-393v-150h-21zM142 625c0 -462 -9 -561 -64 -605h280v660h-216v-55z" />
    <glyph glyph-name="afii10022" unicode="&#x415;" horiz-adv-x="333" 
d="M300 20v-20h-235v700h235v-20h-214v-325h196v-20h-196v-315h214z" />
    <glyph glyph-name="afii10023" unicode="&#x401;" horiz-adv-x="333" 
d="M300 20v-20h-235v700h235v-20h-214v-325h196v-20h-196v-315h214zM101 783v51h19v-51h-19zM214 783v51h19v-51h-19z" />
    <glyph glyph-name="afii10024" unicode="&#x416;" horiz-adv-x="544" 
d="M262 0v700h21v-700h-21zM508 0l-203 362l192 338h23l-192 -338l203 -362h-23zM240 362l-203 -362h-23l203 362l-192 338h23z" />
    <glyph glyph-name="afii10025" unicode="&#x417;" horiz-adv-x="387" 
d="M199 705c79 0 133 -63 133 -153v-47c0 -66 -34 -117 -87 -138c63 -17 106 -77 106 -156v-49c0 -98 -63 -167 -150 -167c-90 0 -151 74 -151 180v30h21v-30c0 -94 52 -160 130 -160c75 0 129 61 129 149v48c0 84 -53 143 -129 143h-53v20h34c76 0 130 54 130 129v47
c0 78 -46 134 -113 134c-74 0 -128 -66 -128 -160v-32h-21v32c0 106 62 180 149 180z" />
    <glyph glyph-name="afii10026" unicode="&#x418;" horiz-adv-x="431" 
d="M85 0h-20v700h21v-645l260 645h20v-700h-21v647z" />
    <glyph glyph-name="afii10027" unicode="&#x419;" horiz-adv-x="431" 
d="M85 0h-20v700h21v-645l260 645h20v-700h-21v647zM286 880h19v-16c0 -53 -36 -90 -87 -90s-87 37 -87 90v16h19v-15c0 -41 28 -71 68 -71s68 30 68 71v15z" />
    <glyph glyph-name="afii10028" unicode="&#x41a;" horiz-adv-x="361" 
d="M65 0v700h21v-700h-21zM322 0l-210 362l200 338h25l-200 -338l210 -362h-25z" />
    <glyph glyph-name="afii10029" unicode="&#x41b;" horiz-adv-x="425" 
d="M10 15h5c65 0 89 19 89 610v75h256v-700h-20v680h-216v-55c0 -590 -21 -630 -109 -630h-5v20z" />
    <glyph glyph-name="afii10030" unicode="&#x41c;" horiz-adv-x="496" 
d="M85 0h-20v700h19l163 -523l165 523h19v-700h-20v634l-155 -493h-17l-154 493v-634z" />
    <glyph glyph-name="afii10031" unicode="&#x41d;" horiz-adv-x="430" 
d="M86 0h-21v700h21v-345h259v345h20v-700h-20v335h-259v-335z" />
    <glyph glyph-name="afii10032" unicode="&#x41e;" horiz-adv-x="416" 
d="M358 175c0 -106 -62 -180 -150 -180s-150 74 -150 180v350c0 106 62 180 150 180s150 -74 150 -180v-350zM338 175v350c0 94 -54 160 -130 160s-129 -66 -129 -160v-350c0 -94 53 -160 129 -160s130 66 130 160z" />
    <glyph glyph-name="afii10033" unicode="&#x41f;" horiz-adv-x="430" 
d="M86 0h-21v700h300v-700h-20v680h-259v-680z" />
    <glyph glyph-name="afii10034" unicode="&#x420;" horiz-adv-x="386" 
d="M194 310h-108v-310h-21v700h129c88 0 150 -74 150 -180v-30c0 -106 -62 -180 -150 -180zM194 680h-108v-350h108c76 0 129 66 129 160v30c0 94 -53 160 -129 160z" />
    <glyph glyph-name="afii10035" unicode="&#x421;" horiz-adv-x="408" 
d="M338 205h20v-30c0 -106 -62 -180 -150 -180s-150 74 -150 180v350c0 106 62 180 150 180s150 -74 150 -180v-32h-20v32c0 94 -54 160 -130 160s-129 -66 -129 -160v-350c0 -94 53 -160 129 -160s130 66 130 160v30z" />
    <glyph glyph-name="afii10036" unicode="&#x422;" horiz-adv-x="358" 
d="M343 700v-20h-154v-680h-20v680h-154v20h328z" />
    <glyph glyph-name="afii10037" unicode="&#x423;" horiz-adv-x="339" 
d="M7 700h21l149 -460l133 460h22l-183 -631c-13 -44 -41 -74 -82 -74h-19v20h19c30 0 54 27 63 60l38 131z" />
    <glyph glyph-name="afii10038" unicode="&#x424;" horiz-adv-x="482" 
d="M295 70h-44v-75h-20v75h-44c-84 0 -143 74 -143 180v200c0 106 59 180 143 180h44v75h20v-75h44c84 0 143 -74 143 -180v-200c0 -106 -59 -180 -143 -180zM295 610h-44v-520h44c72 0 123 66 123 160v200c0 94 -51 160 -123 160zM65 250c0 -94 50 -160 122 -160h44v520
h-44c-72 0 -122 -66 -122 -160v-200z" />
    <glyph glyph-name="afii10039" unicode="&#x425;" horiz-adv-x="360" 
d="M312 700h23l-143 -338l153 -362h-23l-143 341l-142 -341h-23l153 362l-142 338h23l131 -317z" />
    <glyph glyph-name="afii10040" unicode="&#x426;" horiz-adv-x="451" 
d="M345 700h20v-680h71v-170h-21v150h-350v700h21v-680h259v680z" />
    <glyph glyph-name="afii10041" unicode="&#x427;" horiz-adv-x="387" 
d="M65 700v-190c0 -94 53 -160 129 -160c56 0 93 5 109 8v342h20v-700h-20v338c-15 -2 -53 -8 -108 -8c-90 0 -151 74 -151 180v190h21z" />
    <glyph glyph-name="afii10042" unicode="&#x428;" horiz-adv-x="652" 
d="M567 700h20v-700h-522v700h21v-680h230v680h20v-680h231v680z" />
    <glyph glyph-name="afii10043" unicode="&#x429;" horiz-adv-x="673" 
d="M567 700h20v-680h71v-170h-21v150h-572v700h21v-680h230v680h20v-680h231v680z" />
    <glyph glyph-name="afii10044" unicode="&#x42a;" horiz-adv-x="461" 
d="M15 680v20h146v-310h108c88 0 150 -74 150 -180v-30c0 -106 -62 -180 -150 -180h-129v680h-125zM269 370h-108v-350h108c76 0 130 66 130 160v30c0 94 -54 160 -130 160z" />
    <glyph glyph-name="afii10045" unicode="&#x42b;" horiz-adv-x="501" 
d="M65 0v700h21v-310h108c88 0 150 -74 150 -180v-30c0 -106 -62 -180 -150 -180h-129zM194 370h-108v-350h108c76 0 129 66 129 160v30c0 94 -53 160 -129 160zM416 0v700h20v-700h-20z" />
    <glyph glyph-name="afii10046" unicode="&#x42c;" horiz-adv-x="387" 
d="M65 0v700h21v-310h108c88 0 150 -74 150 -180v-30c0 -106 -62 -180 -150 -180h-129zM194 370h-108v-350h108c76 0 129 66 129 160v30c0 94 -53 160 -129 160z" />
    <glyph glyph-name="afii10047" unicode="&#x42d;" horiz-adv-x="408" 
d="M57 205h21v-30c0 -94 53 -160 129 -160s130 66 130 160v165h-157v20h157v165c0 94 -54 160 -130 160s-129 -66 -129 -160v-32h-21v32c0 106 62 180 150 180s150 -74 150 -180v-350c0 -106 -62 -180 -150 -180s-150 74 -150 180v30z" />
    <glyph glyph-name="afii10048" unicode="&#x42e;" horiz-adv-x="545" 
d="M86 0h-21v700h21v-345h116v170c0 106 58 180 142 180s143 -74 143 -180v-350c0 -106 -59 -180 -143 -180s-142 74 -142 180v160h-116v-335zM467 175v350c0 94 -51 160 -123 160s-122 -66 -122 -160v-350c0 -94 50 -160 122 -160s123 66 123 160z" />
    <glyph glyph-name="afii10049" unicode="&#x42f;" horiz-adv-x="394" 
d="M331 700v-700h-20v310h-110l-126 -310h-22l128 312c-73 14 -122 83 -122 178v30c0 106 62 180 150 180h122zM80 490c0 -94 53 -160 129 -160h102v350h-102c-76 0 -129 -66 -129 -160v-30z" />
    <glyph glyph-name="afii10050" unicode="&#x490;" horiz-adv-x="280" 
d="M86 0h-21v700h190v130h21v-150h-190v-680z" />
    <glyph glyph-name="afii10051" unicode="&#x402;" horiz-adv-x="490" 
d="M297 -5v20c76 0 130 74 130 180v15c0 94 -53 160 -129 160c-56 0 -93 -5 -109 -8v-362h-20v680h-154v20h328v-20h-154v-298c15 3 53 8 108 8c89 0 151 -74 151 -180v-15c0 -118 -62 -200 -151 -200z" />
    <glyph glyph-name="afii10052" unicode="&#x403;" horiz-adv-x="295" 
d="M280 700v-20h-194v-680h-21v700h215zM96 794l107 79l10 -16l-112 -74z" />
    <glyph glyph-name="afii10053" unicode="&#x404;" horiz-adv-x="408" 
d="M331 205h20v-30c0 -106 -62 -180 -150 -180s-150 74 -150 180v350c0 106 62 180 150 180s150 -74 150 -180v-32h-20v32c0 94 -54 160 -130 160s-129 -66 -129 -160v-165h179v-20h-179v-165c0 -94 53 -160 129 -160s130 66 130 160v30z" />
    <glyph glyph-name="afii10054" unicode="&#x405;" horiz-adv-x="368" 
d="M297 505v20c0 94 -47 160 -116 160c-67 0 -114 -62 -114 -150c0 -59 21 -109 56 -132l137 -91c40 -27 65 -80 65 -146c0 -101 -59 -171 -142 -171c-86 0 -144 74 -144 180v25h20v-25c0 -94 50 -160 124 -160c71 0 121 62 121 151c0 57 -20 106 -56 130l-136 91
c-41 28 -66 81 -66 148c0 100 57 170 135 170c81 0 137 -74 137 -180v-20h-21z" />
    <glyph glyph-name="afii10055" unicode="&#x406;" horiz-adv-x="151" 
d="M65 0v700h21v-700h-21z" />
    <glyph glyph-name="afii10056" unicode="&#x407;" horiz-adv-x="151" 
d="M9 783v51h19v-51h-19zM122 783v51h19v-51h-19zM65 0v700h21v-700h-21z" />
    <glyph glyph-name="afii10057" unicode="&#x408;" horiz-adv-x="236" 
d="M8 15h18c77 0 131 74 131 180v505h21v-505c0 -118 -63 -200 -152 -200h-18v20z" />
    <glyph glyph-name="afii10058" unicode="&#x409;" horiz-adv-x="662" 
d="M10 -5v20h5c65 0 89 19 89 610v75h256v-310h109c88 0 150 -74 150 -180v-30c0 -106 -62 -180 -150 -180h-129v680h-216v-55c0 -590 -21 -630 -109 -630h-5zM469 370h-109v-350h109c76 0 129 66 129 160v30c0 94 -53 160 -129 160z" />
    <glyph glyph-name="afii10059" unicode="&#x40a;" horiz-adv-x="666" 
d="M65 0v700h21v-325h259v325h20v-325h108c89 0 150 -74 150 -180v-15c0 -106 -61 -180 -150 -180h-128v355h-259v-355h-21zM473 355h-108v-335h108c76 0 130 66 130 160v15c0 94 -54 160 -130 160z" />
    <glyph glyph-name="afii10060" unicode="&#x40b;" horiz-adv-x="490" 
d="M427 0v210c0 94 -53 160 -129 160c-56 0 -93 -5 -109 -8v-362h-20v680h-154v20h328v-20h-154v-298c15 3 53 8 108 8c89 0 151 -74 151 -180v-210h-21z" />
    <glyph glyph-name="afii10061" unicode="&#x40c;" horiz-adv-x="361" 
d="M130 794l107 79l10 -16l-112 -74zM65 0v700h21v-700h-21zM322 0l-210 362l200 338h25l-200 -338l210 -362h-25z" />
    <glyph glyph-name="afii10062" unicode="&#x40e;" horiz-adv-x="339" 
d="M7 700h21l149 -460l133 460h22l-183 -631c-13 -44 -41 -74 -82 -74h-19v20h19c30 0 54 27 63 60l38 131zM237 880h19v-16c0 -53 -36 -90 -87 -90s-86 37 -86 90v16h18v-15c0 -41 28 -71 68 -71s68 30 68 71v15z" />
    <glyph glyph-name="afii10145" unicode="&#x40f;" horiz-adv-x="429" 
d="M65 700h21v-680h259v680h20v-700h-140v-150h-20v150h-140v700z" />
    <glyph glyph-name="uni040D" unicode="&#x40d;" horiz-adv-x="431" 
d="M85 0h-20v700h21v-645l260 645h20v-700h-21v647zM159 873l107 -79l-5 -11l-112 74z" />
    <glyph glyph-name="uni0400" unicode="&#x400;" horiz-adv-x="333" 
d="M300 20v-20h-235v700h235v-20h-214v-325h196v-20h-196v-315h214zM111 873l107 -79l-5 -11l-112 74z" />
    <glyph glyph-name="uni04D8" unicode="&#x4d8;" horiz-adv-x="409" 
d="M58 175v175h280v175c0 94 -54 160 -130 160s-129 -66 -129 -160v-32h-21v32c0 106 62 180 150 180s150 -74 150 -180v-350c0 -106 -62 -180 -150 -180s-150 74 -150 180zM79 330v-155c0 -94 53 -160 129 -160s130 66 130 160v155h-259z" />
    <glyph glyph-name="afii10017.smcp" horiz-adv-x="297" 
d="M31 0h-21l127 525h23l127 -525h-21l-35 147h-165zM148 489l-77 -322h155z" />
    <glyph glyph-name="afii10018.smcp" horiz-adv-x="309" 
d="M156 0h-102v525h189v-19h-168v-208h81c68 0 117 -55 117 -135v-28c0 -80 -49 -135 -117 -135zM156 279h-81v-259h81c56 0 97 47 97 114v30c0 67 -41 115 -97 115z" />
    <glyph glyph-name="afii10019.smcp" horiz-adv-x="305" 
d="M54 0v525h89c68 0 117 -46 117 -112v-35c0 -49 -27 -87 -68 -103c49 -15 81 -61 81 -120v-30c0 -73 -48 -125 -117 -125h-102zM156 264h-81v-244h81c57 0 97 43 97 107v30c0 62 -40 107 -97 107zM142 506h-67v-223h67c57 0 97 39 97 93v36c0 54 -40 94 -97 94z" />
    <glyph glyph-name="afii10020.smcp" horiz-adv-x="239" 
d="M223 525v-19h-148v-506h-21v525h169z" />
    <glyph glyph-name="afii10021.smcp" horiz-adv-x="370" 
d="M300 525v-505h54v-132h-21v112h-296v-112h-21v132h34c34 31 48 61 48 446v59h202zM118 466c0 -327 -7 -411 -47 -446h208v486h-161v-40z" />
    <glyph glyph-name="afii10022.smcp" horiz-adv-x="267" 
d="M237 20v-20h-183v525h183v-19h-162v-237h148v-19h-148v-230h162z" />
    <glyph glyph-name="afii10023.smcp" horiz-adv-x="267" 
d="M54 0v525h183v-19h-162v-237h148v-19h-148v-230h162v-20h-183zM67 584v51h19v-51h-19zM180 584v51h19v-51h-19z" />
    <glyph glyph-name="afii10024.smcp" horiz-adv-x="434" 
d="M206 0v525h22v-525h-22zM396 0l-153 272l145 253h22l-144 -253l153 -272h-23zM191 272l-153 -272h-23l154 272l-145 253h23z" />
    <glyph glyph-name="afii10025.smcp" horiz-adv-x="309" 
d="M158 529c62 0 105 -47 105 -115v-36c0 -49 -26 -87 -66 -103c48 -14 80 -58 80 -116v-38c0 -73 -49 -125 -117 -125c-70 0 -118 55 -118 135v24h21v-25c0 -67 39 -115 97 -115c56 0 96 44 96 108v38c0 60 -39 103 -96 103h-41v19h27c56 0 96 39 96 93v37
c0 56 -34 97 -84 97c-55 0 -95 -47 -95 -115v-26h-21v25c0 80 48 135 116 135z" />
    <glyph glyph-name="afii10026.smcp" horiz-adv-x="343" 
d="M73 0h-19v525h21v-474l195 474h19v-525h-21v473z" />
    <glyph glyph-name="afii10027.smcp" horiz-adv-x="343" 
d="M73 0h-19v525h21v-474l195 474h19v-525h-21v473zM224 660h18v-12c0 -40 -29 -68 -69 -68s-68 28 -68 68v12h18v-12c0 -29 21 -51 50 -51c30 0 51 22 51 51v12z" />
    <glyph glyph-name="afii10028.smcp" horiz-adv-x="291" 
d="M54 0v525h21v-525h-21zM252 0l-159 272l151 253h24l-151 -253l159 -272h-24z" />
    <glyph glyph-name="afii10029.smcp" horiz-adv-x="340" 
d="M13 15h4c50 0 68 16 68 451v59h201v-525h-20v506h-161v-40c0 -438 -16 -470 -88 -470h-4v19z" />
    <glyph glyph-name="afii10030.smcp" horiz-adv-x="394" 
d="M74 0h-20v525h19l123 -384l125 384h19v-525h-20v464l-116 -359h-15l-115 356v-461z" />
    <glyph glyph-name="afii10031.smcp" horiz-adv-x="342" 
d="M75 0h-21v525h21v-256h193v256h20v-525h-20v250h-193v-250z" />
    <glyph glyph-name="afii10032.smcp" horiz-adv-x="330" 
d="M282 131c0 -80 -48 -135 -117 -135s-117 55 -117 135v263c0 80 48 135 117 135s117 -55 117 -135v-263zM262 130v265c0 68 -41 115 -97 115s-96 -47 -96 -115v-265c0 -68 40 -115 96 -115s97 48 97 115z" />
    <glyph glyph-name="afii10033.smcp" horiz-adv-x="342" 
d="M75 0h-21v525h234v-525h-20v506h-193v-506z" />
    <glyph glyph-name="afii10034.smcp" horiz-adv-x="309" 
d="M156 231h-81v-231h-21v525h102c68 0 117 -55 117 -135v-24c0 -80 -49 -135 -117 -135zM155 506h-80v-256h80c57 0 96 47 96 115v26c0 68 -39 115 -96 115z" />
    <glyph glyph-name="afii10035.smcp" horiz-adv-x="324" 
d="M262 155h20v-24c0 -80 -48 -135 -117 -135s-117 55 -117 135v263c0 80 48 135 117 135s117 -55 117 -135v-25h-20v26c0 68 -41 115 -97 115s-96 -47 -96 -115v-265c0 -68 40 -115 96 -115s97 48 97 115v25z" />
    <glyph glyph-name="afii10036.smcp" horiz-adv-x="286" 
d="M270 525v-19h-117v-506h-20v506h-117v19h254z" />
    <glyph glyph-name="afii10037.smcp" horiz-adv-x="275" 
d="M10 525h21l112 -339l100 339h22l-140 -470c-10 -35 -33 -59 -67 -59h-15v21h15c23 0 41 19 48 43l28 94z" />
    <glyph glyph-name="afii10038.smcp" horiz-adv-x="387" 
d="M237 52h-33v-56h-21v56h-33c-66 0 -112 55 -112 135v151c0 80 46 135 112 135h33v56h21v-56h33c66 0 112 -55 112 -135v-151c0 -80 -46 -135 -112 -135zM237 454h-33v-382h33c53 0 91 47 91 114v153c0 68 -38 115 -91 115zM59 186c0 -67 38 -114 91 -114h33v382h-33
c-53 0 -91 -47 -91 -115v-153z" />
    <glyph glyph-name="afii10039.smcp" horiz-adv-x="290" 
d="M243 525h23l-109 -254l117 -271h-23l-107 249l-106 -249h-23l117 271l-109 254h23l98 -232z" />
    <glyph glyph-name="afii10040.smcp" horiz-adv-x="359" 
d="M268 525h20v-505h55v-132h-21v112h-268v525h21v-505h193v505z" />
    <glyph glyph-name="afii10041.smcp" horiz-adv-x="310" 
d="M59 525v-146c0 -68 40 -114 97 -114c40 0 67 3 80 5v255h21v-525h-21v250c-13 -2 -41 -5 -80 -5c-70 0 -118 55 -118 135v145h21z" />
    <glyph glyph-name="afii10042.smcp" horiz-adv-x="513" 
d="M438 525h21v-525h-405v525h21v-505h171v505h20v-505h172v505z" />
    <glyph glyph-name="afii10043.smcp" horiz-adv-x="529" 
d="M438 525h21v-505h54v-132h-21v112h-438v525h21v-505h171v505h20v-505h172v505z" />
    <glyph glyph-name="afii10044.smcp" horiz-adv-x="366" 
d="M16 506v19h117v-230h80c69 0 117 -56 117 -135v-25c0 -80 -48 -135 -117 -135h-101v506h-96zM213 275h-80v-255h80c57 0 97 47 97 114v26c0 68 -40 115 -97 115z" />
    <glyph glyph-name="afii10045.smcp" horiz-adv-x="401" 
d="M54 0v525h21v-230h81c68 0 117 -56 117 -135v-25c0 -80 -49 -135 -117 -135h-102zM156 275h-81v-255h81c56 0 96 47 96 114v26c0 68 -40 115 -96 115zM326 0v525h21v-525h-21z" />
    <glyph glyph-name="afii10046.smcp" horiz-adv-x="310" 
d="M54 0v525h21v-230h81c68 0 117 -56 117 -135v-25c0 -80 -49 -135 -117 -135h-102zM156 275h-81v-255h81c56 0 96 47 96 114v26c0 68 -40 115 -96 115z" />
    <glyph glyph-name="afii10047.smcp" horiz-adv-x="324" 
d="M47 155h21v-25c0 -67 40 -115 96 -115s97 47 97 115v123h-118v19h118v123c0 68 -41 115 -97 115s-96 -47 -96 -115v-26h-21v25c0 80 48 135 117 135s117 -55 117 -135v-263c0 -80 -48 -135 -117 -135s-117 55 -117 135v24z" />
    <glyph glyph-name="afii10048.smcp" horiz-adv-x="433" 
d="M75 0h-21v525h21v-256h87v125c0 80 46 135 111 135c66 0 112 -55 112 -135v-263c0 -80 -46 -135 -112 -135c-65 0 -111 55 -111 135v119h-87v-250zM364 130v265c0 68 -37 115 -91 115c-53 0 -90 -47 -90 -115v-265c0 -68 37 -115 90 -115c54 0 91 48 91 115z" />
    <glyph glyph-name="afii10049.smcp" horiz-adv-x="314" 
d="M262 525v-525h-21v231h-81l-95 -231h-22l98 233c-56 11 -93 62 -93 133v24c0 80 48 135 117 135h97zM69 365c0 -68 40 -115 96 -115h76v256h-76c-56 0 -96 -47 -96 -115v-26z" />
    <glyph glyph-name="afii10050.smcp" horiz-adv-x="227" 
d="M75 0h-21v525h144v97h21v-116h-144v-506z" />
    <glyph glyph-name="afii10051.smcp" horiz-adv-x="388" 
d="M233 -4v19c57 0 97 54 97 130v15c0 68 -39 114 -96 114c-41 0 -69 -4 -81 -6v-268h-20v506h-117v19h254v-19h-117v-218c12 2 40 6 81 6c69 0 118 -55 118 -135v-14c0 -88 -49 -149 -119 -149z" />
    <glyph glyph-name="afii10052.smcp" horiz-adv-x="239" 
d="M223 525v-19h-148v-506h-21v525h169zM66 592l107 79l10 -16l-112 -74z" />
    <glyph glyph-name="afii10053.smcp" horiz-adv-x="324" 
d="M257 155h20v-24c0 -80 -48 -135 -117 -135s-117 55 -117 135v263c0 80 48 135 117 135s117 -55 117 -135v-25h-20v26c0 68 -41 115 -97 115s-96 -47 -96 -115v-123h135v-19h-135v-123c0 -68 40 -115 96 -115s97 48 97 115v25z" />
    <glyph glyph-name="afii10054.smcp" horiz-adv-x="295" 
d="M232 378v17c0 67 -36 115 -87 115c-49 0 -85 -44 -85 -109c0 -43 16 -79 42 -96l106 -70c31 -21 50 -61 50 -110c0 -77 -46 -129 -111 -129c-67 0 -113 55 -113 135v20h20v-20c0 -68 38 -116 93 -116c52 0 90 44 90 110c0 41 -15 77 -43 95l-104 69
c-32 21 -51 62 -51 112c0 76 45 128 106 128c64 0 108 -55 108 -134v-17h-21z" />
    <glyph glyph-name="afii10055.smcp" horiz-adv-x="128" 
d="M54 0v525h21v-525h-21z" />
    <glyph glyph-name="afii10056.smcp" horiz-adv-x="128" 
d="M-2 584v51h19v-51h-19zM111 584v51h19v-51h-19zM54 0v525h21v-525h-21z" />
    <glyph glyph-name="afii10057.smcp" horiz-adv-x="194" 
d="M12 15h14c58 0 99 54 99 131v379h21v-379c0 -89 -50 -150 -120 -150h-14v19z" />
    <glyph glyph-name="afii10058.smcp" horiz-adv-x="521" 
d="M13 -4v19h4c50 0 68 16 68 451v59h201v-230h81c69 0 117 -56 117 -135v-25c0 -80 -48 -135 -117 -135h-101v506h-161v-40c0 -438 -16 -470 -88 -470h-4zM367 275h-81v-255h81c57 0 96 47 96 114v26c0 68 -39 115 -96 115z" />
    <glyph glyph-name="afii10059.smcp" horiz-adv-x="523" 
d="M54 0v525h21v-241h193v241h20v-241h81c69 0 117 -56 117 -135v-14c0 -80 -48 -135 -117 -135h-101v264h-193v-264h-21zM368 264h-80v-244h80c57 0 97 47 97 114v15c0 68 -40 115 -97 115z" />
    <glyph glyph-name="afii10060.smcp" horiz-adv-x="389" 
d="M330 0v160c0 68 -39 115 -96 115c-41 0 -69 -4 -81 -6v-269h-20v506h-117v19h254v-19h-117v-218c12 2 40 6 81 6c69 0 118 -55 118 -135v-159h-22z" />
    <glyph glyph-name="afii10061.smcp" horiz-adv-x="291" 
d="M93 592l107 79l10 -16l-112 -74zM54 0v525h21v-525h-21zM252 0l-159 272l151 253h24l-151 -253l159 -272h-24z" />
    <glyph glyph-name="afii10062.smcp" horiz-adv-x="275" 
d="M10 525h21l112 -339l100 339h22l-140 -470c-10 -35 -33 -59 -67 -59h-15v21h15c23 0 41 19 48 43l28 94zM188 660h17v-12c0 -40 -28 -68 -68 -68s-67 28 -67 68v12h17v-12c0 -29 20 -51 50 -51s51 22 51 51v12z" />
    <glyph glyph-name="afii10145.smcp" horiz-adv-x="341" 
d="M54 525h21v-505h193v505h20v-525h-107v-112h-20v112h-107v525z" />
    <glyph glyph-name="uni0400.smcp" horiz-adv-x="267" 
d="M237 20v-20h-183v525h183v-19h-162v-237h148v-19h-148v-230h162zM79 671l107 -79l-5 -11l-112 74z" />
    <glyph glyph-name="uni040D.smcp" horiz-adv-x="343" 
d="M73 0h-19v525h21v-474l195 474h19v-525h-21v473zM116 671l107 -79l-5 -11l-112 74z" />
    <glyph glyph-name="uni04D8.smcp" horiz-adv-x="325" 
d="M48 131v134h214v130c0 68 -41 115 -97 115s-96 -47 -96 -115v-26h-21v25c0 80 48 135 117 135s117 -55 117 -135v-263c0 -80 -48 -135 -117 -135s-117 55 -117 135zM69 245v-115c0 -67 40 -115 96 -115s97 47 97 115v115h-193z" />
    <glyph glyph-name="afii10065" unicode="&#x430;" horiz-adv-x="353" 
d="M74 355h-20v30c0 88 50 150 121 150c70 0 120 -62 120 -150v-385h-20v68c-20 -45 -59 -73 -110 -73c-69 0 -118 54 -118 130v30c0 76 55 119 127 125l101 9v96c0 76 -42 130 -100 130c-59 0 -101 -54 -101 -130v-30zM275 145v124l-101 -9c-67 -6 -107 -46 -107 -105v-30
c0 -64 42 -110 101 -110c63 0 107 54 107 130z" />
    <glyph glyph-name="afii10066" unicode="&#x431;" horiz-adv-x="357" 
d="M179 -5c-75 0 -128 62 -128 150v360c0 107 39 177 107 186l135 19l1 -20l-134 -19c-56 -8 -89 -70 -89 -166v-52c20 50 60 77 113 77c72 0 122 -58 122 -140v-245c0 -88 -53 -150 -127 -150zM179 15c62 0 107 54 107 130v245c0 70 -43 120 -105 120
c-63 0 -110 -52 -110 -125v-240c0 -76 44 -130 108 -130z" />
    <glyph glyph-name="afii10067" unicode="&#x432;" horiz-adv-x="338" 
d="M58 0v530h102c75 0 128 -52 128 -126v-16c0 -54 -29 -97 -73 -116c53 -15 87 -63 87 -124v-18c0 -76 -52 -130 -127 -130h-117zM282 149c0 65 -44 111 -107 111h-97v-240h97c63 0 107 46 107 111v18zM268 403c0 63 -45 107 -108 107h-82v-230h82c63 0 108 44 108 107v16z
" />
    <glyph glyph-name="afii10068" unicode="&#x433;" horiz-adv-x="271" 
d="M58 0v530h195v-20h-175v-510h-20z" />
    <glyph glyph-name="afii10069" unicode="&#x434;" horiz-adv-x="366" 
d="M7 -140v160h26c40 41 58 83 58 470v40h212v-510h50v-160h-20v140h-306v-140h-20zM111 490c0 -353 -9 -417 -56 -470h228v490h-172v-20z" />
    <glyph glyph-name="afii10070" unicode="&#x435;" horiz-adv-x="353" 
d="M51 145v240c0 88 53 150 128 150c74 0 127 -62 127 -150v-130h-235v-110c0 -76 44 -130 108 -130c63 0 107 54 107 130v20h20v-20c0 -88 -53 -150 -127 -150c-75 0 -128 62 -128 150zM179 515c-64 0 -108 -54 -108 -130v-110h215v110c0 76 -44 130 -107 130z" />
    <glyph glyph-name="afii10071" unicode="&#x451;" horiz-adv-x="353" 
d="M306 165v-20c0 -88 -53 -150 -127 -150c-75 0 -128 62 -128 150v240c0 88 53 150 128 150c74 0 127 -62 127 -150v-130h-235v-110c0 -76 44 -130 108 -130c63 0 107 54 107 130v20h20zM179 515c-64 0 -108 -54 -108 -130v-110h215v110c0 76 -44 130 -107 130zM223 613v51
h19v-51h-19zM110 613v51h19v-51h-19z" />
    <glyph glyph-name="afii10072" unicode="&#x436;" horiz-adv-x="472" 
d="M434 0l-170 276l160 254h23l-160 -254l171 -276h-24zM226 0v530h20v-530h-20zM13 0l172 276l-161 254h24l160 -254l-171 -276h-24z" />
    <glyph glyph-name="afii10073" unicode="&#x437;" horiz-adv-x="334" 
d="M169 535c69 0 115 -54 115 -130v-17c0 -54 -22 -97 -57 -116c43 -15 71 -63 71 -124v-19c0 -78 -53 -134 -126 -134c-77 0 -129 62 -129 150v20h20v-20c0 -76 44 -130 109 -130c61 0 106 48 106 115v19c0 65 -39 111 -93 111h-52v20h37c55 0 94 44 94 107v17
c0 65 -38 111 -95 111c-61 0 -106 -54 -106 -130v-20h-20v20c0 88 53 150 126 150z" />
    <glyph glyph-name="afii10074" unicode="&#x438;" horiz-adv-x="375" 
d="M297 0v482l-220 -482h-19v530h20v-482l220 482h19v-530h-20z" />
    <glyph glyph-name="afii10075" unicode="&#x439;" horiz-adv-x="375" 
d="M297 0v482l-220 -482h-19v530h20v-482l220 482h19v-530h-20zM255 710h19v-16c0 -53 -36 -90 -87 -90s-86 37 -86 90v16h18v-15c0 -41 28 -71 68 -71s68 30 68 71v15z" />
    <glyph glyph-name="afii10076" unicode="&#x43a;" horiz-adv-x="310" 
d="M272 0l-172 276l161 254h24l-162 -254l173 -276h-24zM58 0v530h20v-530h-20z" />
    <glyph glyph-name="afii10077" unicode="&#x43b;" horiz-adv-x="362" 
d="M11 20h8c48 0 74 43 74 470v40h211v-530h-20v510h-172v-20c0 -441 -24 -490 -93 -490h-8v20z" />
    <glyph glyph-name="afii10078" unicode="&#x43c;" horiz-adv-x="447" 
d="M58 0v530h19l147 -415l146 415h19v-530h-19v469l-140 -393h-12l-140 393v-469h-20z" />
    <glyph glyph-name="afii10079" unicode="&#x43d;" 
d="M286 0v265h-208v-265h-20v530h20v-245h208v245h20v-530h-20z" />
    <glyph glyph-name="afii10080" unicode="&#x43e;" horiz-adv-x="357" 
d="M306 145c0 -88 -53 -150 -127 -150c-75 0 -128 62 -128 150v240c0 88 53 150 128 150c74 0 127 -62 127 -150v-240zM286 145v240c0 76 -44 130 -107 130c-64 0 -108 -54 -108 -130v-240c0 -76 44 -130 108 -130c63 0 107 54 107 130z" />
    <glyph glyph-name="afii10081" unicode="&#x43f;" 
d="M286 0v510h-208v-510h-20v530h248v-530h-20z" />
    <glyph glyph-name="afii10082" unicode="&#x440;" horiz-adv-x="357" 
d="M58 -200v730h20v-68c20 45 58 73 109 73c70 0 119 -58 119 -140v-260c0 -82 -49 -140 -119 -140c-51 0 -89 27 -109 72v-267h-20zM185 15c59 0 101 50 101 120v260c0 70 -42 120 -101 120c-62 0 -105 -52 -107 -125v-245c0 -76 44 -130 107 -130z" />
    <glyph glyph-name="afii10083" unicode="&#x441;" horiz-adv-x="349" 
d="M286 355v30c0 76 -44 130 -107 130c-64 0 -108 -54 -108 -130v-240c0 -76 44 -130 108 -130c63 0 107 54 107 130v30h20v-30c0 -88 -53 -150 -127 -150c-75 0 -128 62 -128 150v240c0 88 53 150 128 150c74 0 127 -62 127 -150v-30h-20z" />
    <glyph glyph-name="afii10084" unicode="&#x442;" horiz-adv-x="320" 
d="M22 510v20h276v-20h-128v-510h-20v510h-128z" />
    <glyph glyph-name="afii10085" unicode="&#x443;" horiz-adv-x="324" 
d="M310 530l-197 -730h-20l54 202l-133 528h20l123 -491l132 491h21z" />
    <glyph glyph-name="afii10086" unicode="&#x444;" horiz-adv-x="492" 
d="M237 -200v261c-18 -41 -49 -66 -88 -66c-58 0 -98 58 -98 140v260c0 82 40 140 98 140c39 0 70 -26 88 -67v232h20v-230c17 40 48 65 88 65c57 0 97 -58 97 -140v-260c0 -82 -40 -140 -97 -140c-40 0 -71 24 -88 65v-260h-20zM152 15c48 0 83 51 85 124v251
c-2 73 -37 125 -85 125s-81 -50 -81 -120v-260c0 -70 33 -120 81 -120zM341 15c48 0 81 50 81 120v260c0 70 -33 120 -81 120c-49 0 -84 -54 -84 -130v-246c1 -73 36 -124 84 -124z" />
    <glyph glyph-name="afii10087" unicode="&#x445;" horiz-adv-x="309" 
d="M272 0l-117 257l-118 -257h-23l128 276l-117 254h23l107 -235l106 235h23l-117 -254l128 -276h-23z" />
    <glyph glyph-name="afii10088" unicode="&#x446;" horiz-adv-x="377" 
d="M58 0v530h20v-510h208v510h20v-510h64v-160h-20v140h-292z" />
    <glyph glyph-name="afii10089" unicode="&#x447;" horiz-adv-x="339" 
d="M281 530v-530h-20v253c-15 -8 -50 -23 -96 -23c-86 0 -125 54 -125 130v170h20v-170c0 -64 33 -110 105 -110c44 0 80 15 96 23v257h20z" />
    <glyph glyph-name="afii10090" unicode="&#x448;" horiz-adv-x="563" 
d="M58 0v530h20v-510h194v510h20v-510h193v510h20v-530h-447z" />
    <glyph glyph-name="afii10091" unicode="&#x449;" horiz-adv-x="576" 
d="M549 -140v140h-491v530h20v-510h194v510h20v-510h193v510h20v-510h64v-160h-20z" />
    <glyph glyph-name="afii10092" unicode="&#x44a;" horiz-adv-x="374" 
d="M8 510v20h123v-220h93c75 0 128 -57 128 -145v-20c0 -88 -53 -145 -128 -145h-113v510h-103zM224 290h-93v-270h93c63 0 108 49 108 125v20c0 76 -45 125 -108 125z" />
    <glyph glyph-name="afii10093" unicode="&#x44b;" horiz-adv-x="438" 
d="M58 0v530h20v-220h93c75 0 128 -57 128 -145v-20c0 -88 -53 -145 -128 -145h-113zM171 290h-93v-270h93c63 0 108 49 108 125v20c0 76 -45 125 -108 125zM360 0v530h20v-530h-20z" />
    <glyph glyph-name="afii10094" unicode="&#x44c;" horiz-adv-x="321" 
d="M58 0v530h20v-220h93c75 0 128 -57 128 -145v-20c0 -88 -53 -145 -128 -145h-113zM171 290h-93v-270h93c63 0 108 49 108 125v20c0 76 -45 125 -108 125z" />
    <glyph glyph-name="afii10095" unicode="&#x44d;" horiz-adv-x="349" 
d="M171 515c-64 0 -108 -54 -108 -130v-30h-20v30c0 88 53 150 128 150c74 0 127 -62 127 -150v-240c0 -88 -53 -150 -127 -150c-75 0 -128 62 -128 150v30h20v-30c0 -76 44 -130 108 -130c63 0 107 54 107 130v112h-127v20h127v108c0 76 -44 130 -107 130z" />
    <glyph glyph-name="afii10096" unicode="&#x44e;" horiz-adv-x="471" 
d="M420 145c0 -88 -49 -150 -117 -150c-69 0 -117 62 -117 150v120h-108v-265h-20v530h20v-245h108v100c0 88 48 150 117 150c68 0 117 -62 117 -150v-240zM400 145v240c0 76 -41 130 -97 130c-57 0 -97 -54 -97 -130v-240c0 -76 40 -130 97 -130c56 0 97 54 97 130z" />
    <glyph glyph-name="afii10097" unicode="&#x44f;" horiz-adv-x="334" 
d="M276 530v-530h-20v236h-88l-108 -236h-23l111 237c-63 9 -105 57 -105 134v24c0 85 52 135 127 135h106zM63 371c0 -73 44 -115 107 -115h86v254h-86c-63 0 -107 -42 -107 -115v-24z" />
    <glyph glyph-name="afii10098" unicode="&#x491;" horiz-adv-x="264" 
d="M227 645h19v-135h-168v-510h-20v530h169v115z" />
    <glyph glyph-name="afii10099" unicode="&#x452;" 
d="M187 535c70 0 119 -58 119 -140v-505c0 -53 -33 -90 -80 -90h-8v20h8c35 0 60 29 60 70v505c0 70 -42 120 -102 120c-61 0 -104 -52 -106 -125v-390h-20v602h-44v20h44v78h20v-78h105v-20h-105v-138c20 44 58 71 109 71z" />
    <glyph glyph-name="afii10100" unicode="&#x453;" horiz-adv-x="271" 
d="M58 0v530h195v-20h-175v-510h-20zM76 624l107 79l10 -16l-112 -74z" />
    <glyph glyph-name="afii10101" unicode="&#x454;" horiz-adv-x="349" 
d="M172 515c-64 0 -108 -54 -108 -130v-108h156v-20h-156v-112c0 -76 44 -130 108 -130c63 0 107 54 107 130v30h20v-30c0 -88 -53 -150 -127 -150c-75 0 -128 62 -128 150v240c0 88 53 150 128 150c74 0 127 -62 127 -150v-30h-20v30c0 76 -44 130 -107 130z" />
    <glyph glyph-name="afii10102" unicode="&#x455;" horiz-adv-x="321" 
d="M158 535c68 0 114 -62 114 -150v-10h-20v10c0 76 -38 130 -95 130c-52 0 -91 -46 -91 -110c0 -42 18 -76 47 -95l113 -73c35 -22 57 -62 57 -112c0 -76 -50 -130 -119 -130c-73 0 -122 62 -122 150v10h20v-10c0 -76 41 -130 102 -130c57 0 99 46 99 110
c0 42 -18 75 -47 94l-113 73c-35 22 -57 62 -57 113c0 76 47 130 112 130z" />
    <glyph glyph-name="afii10103" unicode="&#x456;" horiz-adv-x="136" 
d="M58 0v530h20v-530h-20zM58 622v51h20v-51h-20z" />
    <glyph glyph-name="afii10104" unicode="&#x457;" horiz-adv-x="135" 
d="M57 0v530h20v-530h-20zM12 622v51h19v-51h-19zM104 622v51h19v-51h-19z" />
    <glyph glyph-name="afii10105" unicode="&#x458;" horiz-adv-x="136" 
d="M78 -110h-20v640h20v-640zM-10 -200v20h8c35 0 60 29 60 70h20c0 -53 -33 -90 -80 -90h-8zM58 622v51h20v-51h-20z" />
    <glyph glyph-name="afii10106" unicode="&#x459;" horiz-adv-x="542" 
d="M279 0v510h-172v-20c0 -441 -24 -490 -93 -490h-8v20h8c48 0 74 43 74 470v40h211v-220h93c75 0 128 -57 128 -145v-20c0 -88 -53 -145 -128 -145h-113zM392 290h-93v-270h93c63 0 108 49 108 125v20c0 76 -45 125 -108 125z" />
    <glyph glyph-name="afii10107" unicode="&#x45a;" horiz-adv-x="548" 
d="M286 0v280h-208v-280h-20v530h20v-230h208v230h20v-230h93c75 0 128 -57 128 -145v-10c0 -88 -53 -145 -128 -145h-113zM399 280h-93v-260h93c63 0 108 49 108 125v10c0 76 -45 125 -108 125z" />
    <glyph glyph-name="afii10108" unicode="&#x45b;" 
d="M14 622h44v78h20v-78h105v-20h-105v-138c20 44 58 71 109 71c70 0 119 -58 119 -140v-395h-20v395c0 70 -42 120 -102 120c-61 0 -104 -52 -106 -125v-390h-20v602h-44v20z" />
    <glyph glyph-name="afii10109" unicode="&#x45c;" horiz-adv-x="310" 
d="M100 624l107 79l10 -16l-112 -74zM272 0l-172 276l161 254h24l-162 -254l173 -276h-24zM58 0v530h20v-530h-20z" />
    <glyph glyph-name="afii10110" unicode="&#x45e;" horiz-adv-x="324" 
d="M310 530l-197 -730h-20l54 202l-133 528h20l123 -491l132 491h21zM231 710h18v-16c0 -53 -35 -90 -86 -90s-87 37 -87 90v16h19v-15c0 -41 28 -71 68 -71s68 30 68 71v15z" />
    <glyph glyph-name="afii10193" unicode="&#x45f;" 
d="M58 0v530h20v-510h208v510h20v-530h-114v-140h-20v140h-114z" />
    <glyph glyph-name="uni0450" unicode="&#x450;" horiz-adv-x="353" 
d="M51 145v240c0 88 53 150 128 150c74 0 127 -62 127 -150v-130h-235v-110c0 -76 44 -130 108 -130c63 0 107 54 107 130v20h20v-20c0 -88 -53 -150 -127 -150c-75 0 -128 62 -128 150zM179 515c-64 0 -108 -54 -108 -130v-110h215v110c0 76 -44 130 -107 130zM120 703
l107 -79l-5 -11l-112 74z" />
    <glyph glyph-name="uni045D" unicode="&#x45d;" horiz-adv-x="375" 
d="M297 0v482l-220 -482h-19v530h20v-482l220 482h19v-530h-20zM131 703l107 -79l-5 -11l-112 74z" />
    <glyph glyph-name="afii10846" unicode="&#x4d9;" horiz-adv-x="353" 
d="M47 365v20c0 88 53 150 128 150c74 0 127 -62 127 -150v-240c0 -88 -53 -150 -127 -150c-75 0 -128 62 -128 150v130h235v110c0 76 -44 130 -107 130c-64 0 -108 -54 -108 -130v-20h-20zM175 15c63 0 107 54 107 130v110h-215v-110c0 -76 44 -130 108 -130z" />
    <glyph glyph-name="Aringacute" unicode="&#x1fa;" horiz-adv-x="368" 
d="M28 0h-21l166 700h22l166 -700h-21l-48 202h-216zM184 658l-104 -436h207zM121 777c0 32 23 58 54 62l89 66l10 -16l-77 -51c29 -6 51 -31 51 -61c0 -35 -29 -64 -64 -64s-63 29 -63 64zM140 777c0 -25 19 -45 44 -45s45 20 45 45s-20 44 -45 44c-7 0 -14 -2 -19 -4
l-3 -2c-14 -7 -22 -21 -22 -38z" />
    <glyph glyph-name="aringacute" unicode="&#x1fb;" horiz-adv-x="353" 
d="M74 355h-20v30c0 88 50 150 121 150c70 0 120 -62 120 -150v-385h-20v68c-20 -45 -59 -73 -110 -73c-69 0 -118 54 -118 130v30c0 76 55 119 127 125l101 9v96c0 76 -42 130 -100 130c-59 0 -101 -54 -101 -130v-30zM275 145v124l-101 -9c-67 -6 -107 -46 -107 -105v-30
c0 -64 42 -110 101 -110c63 0 107 54 107 130zM114 609c0 31 21 56 51 61l91 68l10 -16l-78 -51c30 -5 53 -31 53 -62c0 -35 -29 -64 -64 -64s-63 29 -63 64zM133 609c0 -25 19 -45 44 -45s45 20 45 45s-20 44 -45 44s-44 -19 -44 -44z" />
    <glyph glyph-name="at.case" horiz-adv-x="479" 
d="M421 45v-20s-83 -30 -159 -30c-149 0 -204 104 -204 260v190c0 154 89 260 207 260c96 0 156 -74 156 -180v-355h-20v68c-20 -45 -59 -73 -110 -73c-69 0 -118 54 -118 130v45c0 76 56 119 128 125l100 9v51c0 92 -51 160 -135 160c-106 0 -187 -100 -187 -240v-190
c0 -144 48 -240 181 -240c72 0 161 30 161 30zM401 315v139l-100 -9c-67 -6 -108 -46 -108 -105v-45c0 -64 42 -110 101 -110c63 0 107 54 107 130z" />
    <glyph glyph-name="exclamdown.case" horiz-adv-x="146" 
d="M61 0l4 510h16l3 -510h-23zM59 620v80h28v-80h-28z" />
    <glyph glyph-name="questiondown.case" horiz-adv-x="360" 
d="M194 700v-80h-28v80h28zM180 -5c-85 0 -136 87 -136 181c0 152 125 246 125 246v88h20v-99s-124 -93 -124 -236c0 -83 41 -160 115 -160c69 0 116 66 116 160v27h20v-27c0 -106 -56 -180 -136 -180z" />
    <glyph glyph-name="dagger.case" horiz-adv-x="288" 
d="M15 500v20h120v180h19v-180h119v-20h-119v-500h-19v500h-120z" />
    <glyph glyph-name="daggerdbl.case" horiz-adv-x="288" 
d="M15 500v20h120v180h19v-180h119v-20h-119v-300h119v-20h-119v-180h-19v180h-120v20h120v300h-120z" />
    <glyph glyph-name="slash.case" horiz-adv-x="245" 
d="M0 -42l227 792l18 -8l-227 -792z" />
    <glyph glyph-name="backslash.case" horiz-adv-x="248" 
d="M18 750l228 -792l-18 -8l-228 792z" />
    <glyph glyph-name="parenleft.case" horiz-adv-x="184" 
d="M165 -46l-12 -9s-95 127 -95 405s94 405 94 405l13 -9s-87 -128 -87 -396s87 -396 87 -396z" />
    <glyph glyph-name="parenright.case" horiz-adv-x="184" 
d="M31 -55l-12 9s87 128 87 396s-87 396 -87 396l13 9s94 -127 94 -405s-95 -405 -95 -405z" />
    <glyph glyph-name="bracketleft.case" horiz-adv-x="218" 
d="M58 -50v800h138v-20h-118v-760h118v-20h-138z" />
    <glyph glyph-name="bracketright.case" horiz-adv-x="218" 
d="M160 750v-800h-138v20h118v760h-118v20h138z" />
    <glyph glyph-name="braceleft.case" horiz-adv-x="189" 
d="M101 270v-220c0 -58 19 -80 66 -80v-20c-58 0 -86 28 -86 100v220c0 49 -17 70 -59 70v20c42 0 59 21 59 70v220c0 72 28 100 86 100v-20c-47 0 -66 -22 -66 -80v-220c0 -41 -11 -67 -36 -80c25 -13 36 -40 36 -80z" />
    <glyph glyph-name="braceright.case" horiz-adv-x="189" 
d="M89 430v220c0 58 -20 80 -67 80v20c59 0 86 -28 86 -100v-220c0 -49 17 -70 59 -70v-20c-42 0 -59 -21 -59 -70v-220c0 -72 -27 -100 -86 -100v20c47 0 67 22 67 80v220c0 40 10 67 34 80c-24 13 -34 39 -34 80z" />
    <glyph glyph-name="guillemotleft.case" horiz-adv-x="344" 
d="M162 181l-125 169l125 169l12 -14l-111 -155l111 -155zM288 181l-124 169l124 169l13 -14l-111 -155l111 -155z" />
    <glyph glyph-name="guillemotright.case" horiz-adv-x="344" 
d="M180 350l-124 -169l-13 14l111 155l-111 155l13 14zM307 350l-125 -169l-12 14l111 155l-111 155l12 14z" />
    <glyph glyph-name="guilsinglleft.case" horiz-adv-x="218" 
d="M162 181l-125 169l125 169l12 -15l-111 -154l111 -154z" />
    <glyph glyph-name="guilsinglright.case" horiz-adv-x="217" 
d="M180 350l-124 -169l-13 14l111 155l-110 155l12 14z" />
    <glyph glyph-name="hyphen.case" horiz-adv-x="209" 
d="M44 340v20h121v-20h-121z" />
    <glyph glyph-name="endash.case" 
d="M44 340v20h276v-20h-276z" />
    <glyph glyph-name="emdash.case" horiz-adv-x="564" 
d="M44 340v20h476v-20h-476z" />
    <glyph glyph-name="bar.case" horiz-adv-x="135" 
d="M58 -50v800h19v-800h-19z" />
    <glyph glyph-name="brokenbar.case" horiz-adv-x="135" 
d="M77 400h-19v350h19v-350zM58 300h19v-350h-19v350z" />
    <glyph glyph-name="a.ord" horiz-adv-x="216" 
d="M53 595h-20v18c0 54 31 90 74 90c42 0 73 -36 73 -90v-231h-20v34c-13 -22 -35 -37 -62 -37c-40 0 -68 31 -68 78v20c0 47 33 73 76 77l54 4v57c0 41 -23 70 -53 70c-31 0 -54 -29 -54 -70v-20zM160 467v73l-53 -5c-36 -3 -57 -25 -57 -57v-21c0 -36 22 -60 53 -60
c33 0 57 29 57 70z" />
    <glyph glyph-name="b.ord" horiz-adv-x="218" 
d="M36 382v420h20v-137c13 22 34 38 61 38c40 0 69 -33 69 -83v-158c0 -50 -29 -83 -69 -83c-27 0 -48 15 -61 37v-34h-20zM112 397c31 0 54 27 54 65v158c0 38 -23 65 -54 65c-33 0 -56 -29 -56 -70v-148c0 -41 23 -70 56 -70z" />
    <glyph glyph-name="c.ord" horiz-adv-x="213" 
d="M165 595v20c0 41 -23 70 -56 70c-34 0 -57 -29 -57 -70v-148c0 -41 23 -70 57 -70c33 0 56 29 56 70v20h20v-18c0 -54 -32 -90 -76 -90c-45 0 -77 36 -77 90v144c0 54 32 90 77 90c44 0 76 -36 76 -90v-18h-20z" />
    <glyph glyph-name="d.ord" horiz-adv-x="218" 
d="M182 382h-20v34c-13 -22 -35 -37 -62 -37c-40 0 -68 34 -68 84v156c0 50 28 84 68 84c27 0 49 -16 62 -38v137h20v-420zM105 397c31 0 55 26 57 64v160c-2 38 -26 64 -57 64s-53 -27 -53 -66v-156c0 -39 22 -66 53 -66z" />
    <glyph glyph-name="e.ord" horiz-adv-x="215" 
d="M32 469v144c0 54 32 90 77 90c44 0 76 -36 76 -90v-81h-133v-65c0 -41 23 -70 57 -70c33 0 56 29 56 70v14h20v-12c0 -54 -32 -90 -76 -90c-45 0 -77 36 -77 90zM109 685c-34 0 -57 -29 -57 -70v-64h113v64c0 41 -23 70 -56 70z" />
    <glyph glyph-name="egrave.ord" horiz-adv-x="215" 
d="M32 469v144c0 54 32 90 77 90c44 0 76 -36 76 -90v-81h-133v-65c0 -41 23 -70 57 -70c33 0 56 29 56 70v14h20v-12c0 -54 -32 -90 -76 -90c-45 0 -77 36 -77 90zM109 685c-34 0 -57 -29 -57 -70v-64h113v64c0 41 -23 70 -56 70zM75 806l64 -51l-4 -9l-69 46z" />
    <glyph glyph-name="f.ord" horiz-adv-x="136" 
d="M13 700h42v43c0 35 22 59 53 59h17v-18h-17c-20 0 -33 -16 -33 -39v-45h50v-18h-50v-300h-20v300h-42v18z" />
    <glyph glyph-name="g.ord" horiz-adv-x="218" 
d="M107 274c32 0 55 30 55 71v71c-13 -22 -35 -37 -62 -37c-40 0 -68 34 -68 84v156c0 50 28 84 68 84c27 0 49 -16 62 -38v35h20v-353c0 -53 -31 -91 -75 -91c-43 0 -75 35 -75 85v5h20v-5c0 -39 23 -67 55 -67zM105 397c33 0 57 29 57 70v154c-2 38 -26 64 -57 64
s-53 -27 -53 -66v-156c0 -39 22 -66 53 -66z" />
    <glyph glyph-name="h.ord" horiz-adv-x="222" 
d="M56 615v-233h-20v420h20v-137c13 22 34 38 61 38c40 0 69 -33 69 -83v-238h-20v238c0 38 -23 65 -54 65c-33 0 -56 -29 -56 -70z" />
    <glyph glyph-name="i.ord" horiz-adv-x="92" 
d="M36 382v318h20v-318h-20zM36 753v37h20v-37h-20z" />
    <glyph glyph-name="j.ord" horiz-adv-x="92" 
d="M56 321h-20v379h20v-379zM-3 262v18h6c19 0 33 17 33 41h20c0 -35 -22 -59 -53 -59h-6zM36 753v37h20v-37h-20z" />
    <glyph glyph-name="k.ord" horiz-adv-x="195" 
d="M160 382l-95 165l88 153h23l-89 -153l96 -165h-23zM36 382v420h20v-420h-20z" />
    <glyph glyph-name="l.ord" horiz-adv-x="106" 
d="M95 400v-18h-6c-31 0 -53 23 -53 57v363h20v-363c0 -23 14 -39 33 -39h6z" />
    <glyph glyph-name="m.ord" horiz-adv-x="338" 
d="M159 382v238c0 38 -21 65 -50 65c-30 0 -51 -26 -53 -64v-239h-20v318h20v-33c12 21 32 36 58 36c28 0 50 -18 59 -47c12 27 34 47 64 47c38 0 65 -33 65 -83v-238h-20v238c0 38 -21 65 -50 65c-30 0 -52 -27 -53 -65v-238h-20z" />
    <glyph glyph-name="n.ord" horiz-adv-x="222" 
d="M56 615v-233h-20v318h20v-35c13 22 34 38 61 38c40 0 69 -33 69 -83v-238h-20v238c0 38 -23 65 -54 65c-33 0 -56 -29 -56 -70z" />
    <glyph glyph-name="o.ord" horiz-adv-x="217" 
d="M185 469c0 -54 -32 -90 -76 -90c-45 0 -77 36 -77 90v144c0 54 32 90 77 90c44 0 76 -36 76 -90v-144zM165 467v148c0 41 -23 70 -56 70c-34 0 -57 -29 -57 -70v-148c0 -41 23 -70 57 -70c33 0 56 29 56 70z" />
    <glyph glyph-name="p.ord" horiz-adv-x="218" 
d="M36 262v438h20v-35c13 22 34 38 61 38c40 0 69 -34 69 -84v-156c0 -50 -29 -84 -69 -84c-27 0 -48 15 -61 37v-154h-20zM112 397c31 0 54 27 54 66v156c0 39 -23 66 -54 66c-33 0 -56 -29 -56 -70v-148c0 -41 23 -70 56 -70z" />
    <glyph glyph-name="q.ord" horiz-adv-x="218" 
d="M182 700v-438h-20v154c-13 -22 -35 -37 -62 -37c-40 0 -68 34 -68 84v156c0 50 28 84 68 84c27 0 49 -16 62 -38v35h20zM105 397c31 0 55 26 57 64v160c-2 38 -26 64 -57 64s-53 -27 -53 -66v-156c0 -39 22 -66 53 -66z" />
    <glyph glyph-name="r.ord" horiz-adv-x="143" 
d="M36 382v318h20v-42c14 26 38 45 70 45v-19c-38 0 -67 -31 -70 -76v-226h-20z" />
    <glyph glyph-name="s.ord" horiz-adv-x="200" 
d="M99 703c41 0 69 -36 69 -90v-7h-20v8c0 42 -20 71 -50 71c-27 0 -48 -25 -48 -61c0 -23 10 -43 25 -53l64 -42c21 -14 35 -40 35 -71c0 -47 -30 -79 -72 -79c-44 0 -74 36 -74 90v7h20v-8c0 -42 22 -71 54 -71c30 0 53 25 53 60c0 24 -10 43 -27 54l-63 42
c-21 14 -35 39 -35 71c0 47 29 79 69 79z" />
    <glyph glyph-name="t.ord" horiz-adv-x="154" 
d="M131 400v-18h-17c-32 0 -54 23 -54 58v242h-46v18h46v71h20v-71h51v-18h-51v-242c0 -24 14 -40 34 -40h17z" />
    <glyph glyph-name="u.ord" horiz-adv-x="222" 
d="M186 700v-318h-20v34c-13 -22 -35 -37 -62 -37c-40 0 -68 33 -68 83v238h20v-238c0 -38 22 -65 53 -65s55 26 57 64v239h20z" />
    <glyph glyph-name="uacute.ord" horiz-adv-x="222" 
d="M166 467v233h20v-318h-20v34c-13 -22 -35 -37 -62 -37c-40 0 -68 33 -68 83v238h20v-238c0 -38 22 -65 53 -65c33 0 57 29 57 70zM78 755l64 51l10 -14l-70 -46z" />
    <glyph glyph-name="v.ord" horiz-adv-x="199" 
d="M89 382l-77 318h20l68 -286l67 286h20l-78 -318h-20z" />
    <glyph glyph-name="w.ord" horiz-adv-x="296" 
d="M199 382l-51 274l-51 -274h-19l-66 318h20l56 -280l51 280h18l51 -280l56 280h20l-66 -318h-19z" />
    <glyph glyph-name="x.ord" horiz-adv-x="191" 
d="M158 382l-62 146l-63 -146h-21l73 165l-67 153h21l57 -133l56 133h22l-67 -153l72 -165h-21z" />
    <glyph glyph-name="y.ord" horiz-adv-x="200" 
d="M188 700l-111 -438h-19l30 120l-76 318h19l67 -281l71 281h19z" />
    <glyph glyph-name="z.ord" horiz-adv-x="173" 
d="M17 682v18h143v-17l-124 -283h123v-18h-145v17l123 283h-120z" />
    <glyph glyph-name="minus.sup" horiz-adv-x="200" 
d="M13 516v18h174v-18h-174z" />
    <glyph glyph-name="minus.sub" horiz-adv-x="200" 
d="M13 66v18h174v-18h-174z" />
    <glyph glyph-name="plus.sup" horiz-adv-x="200" 
d="M91 621h18v-87h78v-18h-78v-86h-18v86h-78v18h78v87z" />
    <glyph glyph-name="plusminus.sup" horiz-adv-x="200" 
d="M91 656h18v-87h78v-18h-78v-86h-18v86h-78v18h78v87zM13 410v18h174v-18h-174z" />
    <glyph glyph-name="plus.sub" horiz-adv-x="200" 
d="M91 171h18v-87h78v-18h-78v-86h-18v86h-78v18h78v87z" />
    <glyph glyph-name="plusminus.sub" horiz-adv-x="200" 
d="M91 206h18v-87h78v-18h-78v-86h-18v86h-78v18h78v87zM13 -40v18h174v-18h-174z" />
    <glyph glyph-name="Aringacute.smcp" horiz-adv-x="297" 
d="M31 0h-21l127 525h4c-32 3 -55 31 -55 64c0 35 28 63 63 63h4l99 73l10 -16l-92 -61c25 -8 43 -32 43 -59c0 -33 -26 -61 -57 -64h4l127 -525h-21l-35 147h-165zM148 489l-77 -322h155zM105 589c0 -25 19 -45 44 -45s45 20 45 45s-20 44 -45 44s-44 -19 -44 -44z" />
    <glyph glyph-name="dollar.smcp" horiz-adv-x="295" 
d="M232 378v17c0 67 -36 115 -87 115c-49 0 -85 -44 -85 -109c0 -43 16 -79 42 -96l106 -70c31 -21 50 -61 50 -110c0 -74 -42 -125 -103 -128v-75h-16v75c-63 3 -105 57 -105 134v20h20v-20c0 -68 38 -116 93 -116c52 0 90 44 90 110c0 41 -15 77 -43 95l-104 69
c-32 21 -51 62 -51 112c0 73 42 124 100 128v74h16v-75c58 -5 98 -58 98 -133v-17h-21z" />
    <glyph glyph-name="arrowleft" unicode="&#x2190;" horiz-adv-x="580" 
d="M247 161l-207 189l207 189l13 -15l-180 -164h460v-20h-460l180 -164z" />
    <glyph glyph-name="arrowright" unicode="&#x2192;" horiz-adv-x="580" 
d="M540 350l-207 -189l-13 15l180 164h-460v20h460l-180 164l13 15z" />
    <glyph glyph-name="arrowup" unicode="&#x2191;" horiz-adv-x="580" 
d="M101 393l189 207l189 -207l-15 -13l-164 180v-460h-20v460l-164 -180z" />
    <glyph glyph-name="arrowdown" unicode="&#x2193;" horiz-adv-x="580" 
d="M290 100l-189 207l15 13l164 -180v460h20v-460l164 180l15 -13z" />
    <glyph glyph-name="uni2196" unicode="&#x2196;" horiz-adv-x="580" 
d="M126 247l-13 280l280 -13l-1 -20l-244 11l326 -325l-14 -14l-326 325l12 -243z" />
    <glyph glyph-name="uni2197" unicode="&#x2197;" horiz-adv-x="580" 
d="M474 527l-13 -280l-20 1l11 243l-325 -325l-14 14l325 325l-243 -11l-1 20z" />
    <glyph glyph-name="uni2198" unicode="&#x2198;" horiz-adv-x="580" 
d="M467 173l-280 13l1 20l243 -12l-325 326l14 14l325 -326l-11 244l20 1z" />
    <glyph glyph-name="uni2199" unicode="&#x2199;" horiz-adv-x="580" 
d="M106 173l13 280l20 -1l-12 -244l326 326l14 -14l-326 -326l244 12l1 -20z" />
    <glyph glyph-name="acute" unicode="&#xb4;" horiz-adv-x="235" 
d="M59 624l107 79l10 -16l-112 -74z" />
    <glyph glyph-name="zero.dnom" horiz-adv-x="208" 
d="M180 175c0 -140 -32 -178 -76 -178c-45 0 -76 38 -76 178s31 178 76 178c44 0 76 -38 76 -178zM159 175c0 130 -23 160 -55 160c-33 0 -55 -30 -55 -160c0 -131 22 -160 55 -160c32 0 55 30 55 160z" />
    <glyph glyph-name="one.dnom" horiz-adv-x="137" 
d="M16 304l62 46h15v-350h-20v324l-49 -36z" />
    <glyph glyph-name="two.dnom" horiz-adv-x="191" 
d="M22 0v15c109 202 121 214 121 246c0 43 -20 74 -49 74c-28 0 -49 -31 -49 -73v-11h-20v11c0 54 28 91 69 91s69 -39 69 -92c0 -37 -14 -52 -117 -242h120v-19h-144z" />
    <glyph glyph-name="three.dnom" horiz-adv-x="196" 
d="M100 353c39 0 67 -30 67 -86c0 -43 -15 -74 -39 -84c28 -11 47 -32 47 -85c0 -63 -32 -101 -75 -101s-73 38 -73 91v10h21v-12c0 -41 21 -71 52 -71s55 31 55 83c0 49 -23 75 -54 75h-14v18h6c31 0 54 27 54 75c0 47 -21 69 -48 69c-30 0 -51 -30 -51 -71v-12h-21v10
c0 53 30 91 73 91z" />
    <glyph glyph-name="four.dnom" horiz-adv-x="198" 
d="M180 82h-26v-82h-20v82h-114v16l116 252h18v-250h26v-18zM41 100h93v204z" />
    <glyph glyph-name="five.dnom" horiz-adv-x="194" 
d="M160 331h-97l-9 -127s22 11 46 11c45 0 73 -39 73 -106c0 -68 -29 -112 -76 -112c-41 0 -71 34 -71 83v10h21v-12c0 -37 21 -63 50 -63c32 0 55 33 55 94c0 58 -21 89 -57 89c-24 0 -46 -14 -46 -14l-14 5l11 161h114v-19z" />
    <glyph glyph-name="six.dnom" horiz-adv-x="205" 
d="M106 228c39 0 71 -35 71 -116c0 -79 -31 -115 -74 -115s-77 37 -77 175c0 135 32 181 78 181c33 0 56 -21 63 -61h-20c-7 31 -22 43 -41 43c-56 0 -60 -99 -59 -170c8 47 33 63 59 63zM103 210c-26 0 -52 -23 -52 -95c0 -70 24 -100 53 -100s53 30 53 98s-24 97 -54 97z
" />
    <glyph glyph-name="seven.dnom" horiz-adv-x="163" 
d="M14 350h132v-16l-78 -334h-21l78 332h-111v18z" />
    <glyph glyph-name="eight.dnom" horiz-adv-x="201" 
d="M176 94c0 -62 -32 -97 -75 -97c-44 0 -76 35 -76 97c0 51 20 78 47 89c-24 10 -39 41 -39 83c0 56 28 87 68 87c39 0 67 -31 67 -87c0 -42 -15 -73 -39 -83c27 -11 47 -38 47 -89zM155 95c0 51 -23 78 -54 78c-32 0 -55 -27 -55 -78c0 -50 23 -80 55 -80
c31 0 54 30 54 80zM101 335c-27 0 -47 -21 -47 -69c0 -47 19 -75 47 -75c27 0 46 28 46 75c0 48 -20 69 -46 69z" />
    <glyph glyph-name="nine.dnom" horiz-adv-x="203" 
d="M97 131c-39 0 -71 34 -71 111s31 111 72 111c43 0 77 -37 77 -175c0 -135 -33 -181 -80 -181c-35 0 -61 25 -65 69h20c5 -35 24 -51 45 -51c56 0 59 108 59 175c-8 -44 -31 -59 -57 -59zM99 150c25 0 50 21 50 90c0 66 -23 95 -51 95s-51 -28 -51 -93s22 -92 52 -92z" />
    <glyph glyph-name="comma.dnom" horiz-adv-x="87" 
d="M20 -57l12 102h23l-22 -106z" />
    <glyph glyph-name="period.dnom" horiz-adv-x="88" 
d="M32 0v45h24v-45h-24z" />
    <glyph glyph-name="parenleft.dnom" horiz-adv-x="105" 
d="M91 -71l-10 -7s-51 71 -51 228s51 228 51 228l10 -7s-41 -72 -41 -221s41 -221 41 -221z" />
    <glyph glyph-name="parenright.dnom" horiz-adv-x="105" 
d="M25 -78l-11 7s41 72 41 221s-41 221 -41 221l11 7s50 -71 50 -228s-50 -228 -50 -228z" />
    <glyph glyph-name="hyphen.dnom" horiz-adv-x="113" 
d="M25 151v18h63v-18h-63z" />
    <glyph glyph-name="minus.dnom" horiz-adv-x="200" 
d="M13 166v18h174v-18h-174z" />
    <glyph glyph-name="plus.dnom" horiz-adv-x="200" 
d="M91 271h18v-87h78v-18h-78v-86h-18v86h-78v18h78v87z" />
    <glyph glyph-name="plusminus.dnom" horiz-adv-x="200" 
d="M91 306h18v-87h78v-18h-78v-86h-18v86h-78v18h78v87zM13 60v18h174v-18h-174z" />
    <glyph glyph-name="breve" unicode="&#x2d8;" horiz-adv-x="277" 
d="M201 714h18c0 -66 -33 -101 -80 -101s-80 35 -80 101h18c0 -53 25 -81 62 -81c36 0 62 28 62 81z" />
    <glyph glyph-name="uni0259" unicode="&#x259;" horiz-adv-x="353" 
d="M47 365v20c0 88 53 150 128 150c74 0 127 -62 127 -150v-240c0 -88 -53 -150 -127 -150c-75 0 -128 62 -128 150v130h235v110c0 76 -44 130 -107 130c-64 0 -108 -54 -108 -130v-20h-20zM175 15c63 0 107 54 107 130v110h-215v-110c0 -76 44 -130 108 -130z" />
    <glyph glyph-name="uni0492" unicode="&#x492;" horiz-adv-x="295" 
d="M201 390v-20h-115v-370h-21v370h-51v20h51v310h215v-20h-194v-290h115z" />
    <glyph glyph-name="uni0493" unicode="&#x493;" horiz-adv-x="278" 
d="M186 300v-20h-101v-280h-20v280h-51v20h51v230h195v-20h-175v-210h101z" />
    <glyph glyph-name="uni0496" unicode="&#x496;" horiz-adv-x="549" 
d="M508 0l-203 362l192 338h23l-192 -338l192 -342h15v-170h-21v150h-6zM240 362l-203 -362h-23l203 362l-192 338h23zM262 0v700h21v-700h-21z" />
    <glyph glyph-name="uni0497" unicode="&#x497;" horiz-adv-x="474" 
d="M433 0l-170 276l160 254h24l-160 -254l158 -256h15v-160h-20v140h-7zM14 0l172 276l-161 254h25l160 -254l-171 -276h-25zM226 0v530h20v-530h-20z" />
    <glyph glyph-name="uni049A" unicode="&#x49a;" horiz-adv-x="365" 
d="M323 0l-210 362l200 338h24l-200 -338l198 -342h15v-170h-20v150h-7zM65 0v700h21v-700h-21z" />
    <glyph glyph-name="uni049B" unicode="&#x49b;" horiz-adv-x="311" 
d="M271 0l-172 276l161 254h25l-162 -254l160 -256h14v-160h-20v140h-6zM58 0v530h20v-530h-20z" />
    <glyph glyph-name="uni04A2" unicode="&#x4a2;" horiz-adv-x="451" 
d="M86 0h-21v700h21v-345h259v345h20v-680h71v-170h-21v150h-70v335h-259v-335z" />
    <glyph glyph-name="uni04A3" unicode="&#x4a3;" horiz-adv-x="377" 
d="M286 0v265h-208v-265h-20v530h20v-245h208v245h20v-510h64v-160h-20v140h-64z" />
    <glyph glyph-name="uni04AE" unicode="&#x4ae;" horiz-adv-x="346" 
d="M162 0v300l-155 400h21l144 -376l146 376h21l-156 -400v-300h-21z" />
    <glyph glyph-name="uni04AF" unicode="&#x4af;" horiz-adv-x="321" 
d="M151 -200v200l-137 530h20l127 -502l126 502h20l-136 -530v-200h-20z" />
    <glyph glyph-name="uni04B0" unicode="&#x4b0;" horiz-adv-x="346" 
d="M41 280v20h121l-155 400h21l144 -376l146 376h21l-156 -400h121v-20h-121v-280h-21v280h-121z" />
    <glyph glyph-name="uni04B1" unicode="&#x4b1;" horiz-adv-x="321" 
d="M55 -20v20h96l-137 530h22l125 -493l124 493h22l-136 -530h96v-20h-96v-180h-20v180h-96z" />
    <glyph glyph-name="uni04B2" unicode="&#x4b2;" horiz-adv-x="365" 
d="M331 -150v150h-9l-143 341l-142 -341h-23l153 362l-142 338h23l131 -317l133 317h23l-143 -338l144 -342h15v-170h-20z" />
    <glyph glyph-name="uni04B3" unicode="&#x4b3;" horiz-adv-x="311" 
d="M272 0l-117 257l-118 -257h-23l128 276l-117 254h23l107 -235l106 235h23l-117 -254l118 -256h12v-160h-20v140h-5z" />
    <glyph glyph-name="uni04B6" unicode="&#x4b6;" horiz-adv-x="401" 
d="M65 700v-190c0 -94 53 -160 129 -160c56 0 93 5 109 8v342h20v-680h64v-170h-21v150h-63v338c-15 -2 -53 -8 -108 -8c-90 0 -151 74 -151 180v190h21z" />
    <glyph glyph-name="uni04B7" unicode="&#x4b7;" horiz-adv-x="352" 
d="M325 -140v140h-64v253c-15 -8 -50 -23 -96 -23c-86 0 -125 54 -125 130v170h20v-170c0 -64 33 -110 105 -110c44 0 80 15 96 23v257h20v-510h64v-160h-20z" />
    <glyph glyph-name="uni04BA" unicode="&#x4ba;" horiz-adv-x="387" 
d="M323 0v190c0 94 -54 160 -130 160c-57 0 -94 -5 -109 -8v-342h-20v700h20v-339c15 3 53 9 108 9c90 0 151 -74 151 -180v-190h-20z" />
    <glyph glyph-name="uni04BB" unicode="&#x4bb;" 
d="M58 0v700h20v-238c20 45 58 73 109 73c70 0 119 -58 119 -140v-395h-20v395c0 70 -42 120 -101 120c-62 0 -105 -52 -107 -125v-390h-20z" />
    <glyph glyph-name="uni04E8" unicode="&#x4e8;" horiz-adv-x="416" 
d="M358 175c0 -106 -62 -180 -150 -180s-150 74 -150 180v350c0 106 62 180 150 180s150 -74 150 -180v-350zM338 355v170c0 94 -54 160 -130 160s-129 -66 -129 -160v-170h259zM338 175v160h-259v-160c0 -94 53 -160 129 -160s130 66 130 160z" />
    <glyph glyph-name="uni04E9" unicode="&#x4e9;" horiz-adv-x="357" 
d="M306 145c0 -88 -53 -150 -127 -150c-75 0 -128 62 -128 150v240c0 88 53 150 128 150c74 0 127 -62 127 -150v-240zM286 145v120h-215v-120c0 -76 44 -130 108 -130c63 0 107 54 107 130zM286 285v100c0 76 -44 130 -107 130c-64 0 -108 -54 -108 -130v-100h215z" />
    <glyph glyph-name="uni04EE" unicode="&#x4ee;" horiz-adv-x="340" 
d="M7 700h21l149 -460l133 460h22l-183 -631c-13 -44 -41 -74 -82 -74h-19v20h19c30 0 54 27 63 60l38 131zM100 803h138v-20h-138v20z" />
    <glyph glyph-name="uni04EF" unicode="&#x4ef;" horiz-adv-x="324" 
d="M310 530l-197 -730h-20l54 202l-133 528h20l123 -491l132 491h21zM92 633h138v-20h-138v20z" />
    <glyph glyph-name="section.001" horiz-adv-x="321" 
d="M252 545v10c0 76 -38 130 -95 130c-52 0 -91 -47 -91 -112c0 -40 16 -74 47 -98l166 -128l-9 -16l-167 127c-34 26 -57 62 -57 114c0 77 48 133 111 133c69 0 115 -62 115 -150v-10h-20zM62 149v-10c0 -73 41 -125 102 -125c57 0 99 47 99 113c0 44 -19 74 -47 96
l-166 128l9 17l167 -127c33 -25 57 -62 57 -114c0 -77 -50 -132 -118 -132c-74 0 -123 60 -123 144v10h20z" />
    <glyph glyph-name="uni0492.smcp" horiz-adv-x="238" 
d="M161 293v-17h-86v-276h-22v276h-38v17h38v232h169v-19h-147v-213h86z" />
    <glyph glyph-name="uni0496.smcp" horiz-adv-x="439" 
d="M396 0l-153 272l145 253h22l-144 -253l142 -252h15v-132h-21v112h-6zM191 272l-153 -272h-23l154 272l-145 253h23zM206 0v525h22v-525h-22z" />
    <glyph glyph-name="uni049A.smcp" horiz-adv-x="296" 
d="M253 0l-159 272l151 253h23l-151 -253l148 -252h15v-132h-21v112h-6zM54 0v525h21v-525h-21z" />
    <glyph glyph-name="uni04A2.smcp" horiz-adv-x="359" 
d="M75 0h-21v525h21v-256h193v256h20v-505h55v-132h-21v112h-54v250h-193v-250z" />
    <glyph glyph-name="uni04AE.smcp" horiz-adv-x="280" 
d="M129 0v223l-119 302h21l109 -279l109 279h21l-120 -302v-223h-21z" />
    <glyph glyph-name="uni04B0.smcp" horiz-adv-x="280" 
d="M37 205v18h92l-119 302h21l108 -278l110 278h21l-120 -302h92v-18h-92v-205h-21v205h-92z" />
    <glyph glyph-name="uni04B6.smcp" horiz-adv-x="323" 
d="M59 525v-146c0 -67 40 -114 96 -114c41 0 68 3 81 5v255h21v-505h50v-132h-22v112h-49v250c-13 -2 -41 -5 -80 -5c-70 0 -118 55 -118 135v145h21z" />
    <glyph glyph-name="uni04BA.smcp" horiz-adv-x="310" 
d="M252 0v146c0 67 -41 115 -97 115c-43 0 -70 -4 -82 -7v-254h-20v525h20v-251c12 2 40 6 81 6c70 0 118 -55 118 -135v-145h-20z" />
    <glyph glyph-name="uni04E8.smcp" horiz-adv-x="330" 
d="M282 131c0 -80 -48 -135 -117 -135s-117 55 -117 135v263c0 80 48 135 117 135s117 -55 117 -135v-263zM262 269v126c0 68 -41 115 -97 115s-96 -47 -96 -115v-126h193zM262 130v120h-193v-120c0 -68 40 -115 96 -115s97 48 97 115z" />
    <glyph glyph-name="uni04B2.smcp" horiz-adv-x="296" 
d="M259 -112v112h-8l-107 249l-106 -249h-23l117 271l-109 254h23l98 -232l99 232h23l-109 -254l107 -251h16v-132h-21z" />
    <glyph glyph-name="uni04EE.smcp" horiz-adv-x="277" 
d="M10 525h21l112 -339l100 339h22l-140 -470c-10 -35 -33 -59 -67 -59h-15v21h15c23 0 41 19 48 43l28 94zM68 606h138v-20h-138v20z" />
    <glyph glyph-name="section.001.smcp" horiz-adv-x="258" 
d="M197 408v9c0 55 -28 93 -71 93c-38 0 -67 -34 -67 -81c0 -29 12 -55 35 -72l128 -95l-9 -15l-129 94c-27 20 -45 48 -45 87c0 59 38 101 87 101c55 0 91 -46 91 -112v-9h-20zM56 113v-9c0 -53 30 -90 76 -90c42 0 73 34 73 82c0 32 -14 54 -35 70l-128 95l9 16l129 -94
c26 -19 45 -48 45 -87c0 -59 -39 -100 -93 -100c-58 0 -96 45 -96 108v9h20z" />
    </font>
</defs>
</svg>
