<?xml version="1.0" standalone="no"?>
<!DOCTYPE svg PUBLIC "-//W3C//DTD SVG 1.1//EN" "http://www.w3.org/Graphics/SVG/1.1/DTD/svg11.dtd" >
<svg>
<metadata>
Created by FontForge 20120731 at Sun Jan 27 20:30:46 2019
 By www-data
Copyright (c) 2016 by Oleh Lishchuk. All rights reserved.
</metadata>
<defs>
<font id="OpinionProCondensed-Thin" horiz-adv-x="478" >
  <font-face 
    font-family="Opinion Pro Cn Th"
    font-weight="250"
    font-stretch="condensed"
    units-per-em="1000"
    panose-1="2 1 0 0 3 0 0 0 0 4"
    ascent="750"
    descent="-250"
    x-height="530"
    cap-height="700"
    bbox="-43 -210 979 910"
    underline-thickness="50"
    underline-position="-50"
    stemv="20"
    unicode-range="U+0020-FB02"
  />
<missing-glyph horiz-adv-x="411" 
d="M49 0v700h19v-700h-19zM108 0v700h19v-700h-19zM166 0v700h20v-700h-20zM225 0v700h19v-700h-19zM283 0v700h19v-700h-19zM342 0v700h19v-700h-19z" />
    <glyph glyph-name="fi" unicode="fi" horiz-adv-x="443" 
d="M20 530h97v80c0 53 38 90 97 90h40v-20h-40c-47 0 -77 -29 -77 -70v-80h117v-20h-117v-510h-20v510h-97v20zM345 0v530h20v-530h-20zM345 622v51h20v-51h-20z" />
    <glyph glyph-name="fl" unicode="fl" horiz-adv-x="464" 
d="M20 530h97v80c0 53 38 90 97 90h40v-20h-40c-47 0 -77 -29 -77 -70v-80h117v-20h-117v-510h-20v510h-97v20zM449 20v-20h-10c-59 0 -94 37 -94 90v610h20v-610c0 -41 27 -70 74 -70h10z" />
    <glyph glyph-name=".notdef" horiz-adv-x="411" 
d="M49 0v700h19v-700h-19zM108 0v700h19v-700h-19zM166 0v700h20v-700h-20zM225 0v700h19v-700h-19zM283 0v700h19v-700h-19zM342 0v700h19v-700h-19z" />
    <glyph glyph-name="caron" unicode="&#x2c7;" horiz-adv-x="375" 
d="M296 692l-109 -79l-109 79l6 11l103 -67l104 67z" />
    <glyph glyph-name="cedilla" unicode="&#xb8;" horiz-adv-x="203" 
d="M96 0h19l-6 -42c26 0 46 -18 46 -46c0 -29 -22 -45 -51 -45c-34 0 -55 25 -55 25l8 15s20 -20 47 -20c19 0 31 8 31 24c0 24 -24 32 -47 32z" />
    <glyph glyph-name="circumflex" unicode="&#x2c6;" horiz-adv-x="374" 
d="M78 624l109 79l109 -79l-5 -11l-104 67l-103 -67z" />
    <glyph glyph-name="commaaccent" unicode="&#xf6c3;" horiz-adv-x="214" 
d="M78 -180l29 120h25l-42 -124z" />
    <glyph glyph-name="dieresis" unicode="&#xa8;" horiz-adv-x="322" 
d="M78 613v51h20v-51h-20zM224 613v51h20v-51h-20z" />
    <glyph glyph-name="dotaccent" unicode="&#x2d9;" horiz-adv-x="175" 
d="M78 623v51h20v-51h-20z" />
    <glyph glyph-name="hungarumlaut" unicode="&#x2dd;" horiz-adv-x="391" 
d="M78 622l89 102l16 -12l-96 -99zM172 621l128 97l13 -14l-134 -93z" />
    <glyph glyph-name="grave" unicode="`" horiz-adv-x="306" 
d="M89 703l139 -79l-6 -11l-144 74z" />
    <glyph glyph-name="macron" unicode="&#xaf;" horiz-adv-x="333" 
d="M78 633h178v-20h-178v20z" />
    <glyph glyph-name="ogonek" unicode="&#x2db;" horiz-adv-x="204" 
d="M103 -133c-26 0 -49 17 -49 57c0 47 35 76 35 76h17s-34 -32 -34 -76c0 -26 12 -39 32 -39c26 0 37 22 37 22l8 -11s-11 -29 -46 -29z" />
    <glyph glyph-name="ring" unicode="&#x2da;" horiz-adv-x="287" 
d="M80 677c0 35 28 63 63 63s64 -28 64 -63s-29 -64 -64 -64s-63 29 -63 64zM99 677c0 -25 19 -45 44 -45s45 20 45 45s-20 44 -45 44s-44 -19 -44 -44z" />
    <glyph glyph-name="tilde" unicode="&#x2dc;" horiz-adv-x="411" 
d="M156 682c50 0 59 -49 102 -49s60 50 60 50l15 -9s-21 -60 -76 -60c-50 0 -61 49 -103 49s-59 -50 -59 -50l-17 9s23 60 78 60z" />
    <glyph glyph-name="space" unicode=" " horiz-adv-x="185" 
 />
    <glyph glyph-name="A" unicode="A" 
d="M30 0h-21l219 700h22l219 -700h-21l-64 202h-291zM238 666l-139 -444h279z" />
    <glyph glyph-name="Aacute" unicode="&#xc1;" 
d="M30 0h-21l219 700h22l219 -700h-21l-64 202h-291zM238 666l-139 -444h279zM174 794l139 79l10 -16l-143 -74z" />
    <glyph glyph-name="Abreve" unicode="&#x102;" 
d="M30 0h-21l219 700h22l219 -700h-21l-64 202h-291zM238 666l-139 -444h279zM322 884h20c0 -66 -43 -101 -103 -101s-103 35 -103 101h20c0 -53 34 -81 83 -81c48 0 83 28 83 81z" />
    <glyph glyph-name="Acircumflex" unicode="&#xc2;" 
d="M30 0h-21l219 700h22l219 -700h-21l-64 202h-291zM238 666l-139 -444h279zM130 794l109 79l109 -79l-6 -11l-103 67l-104 -67z" />
    <glyph glyph-name="Agrave" unicode="&#xc0;" 
d="M30 0h-21l219 700h22l219 -700h-21l-64 202h-291zM238 666l-139 -444h279zM165 873l139 -79l-6 -11l-143 74z" />
    <glyph glyph-name="Adieresis" unicode="&#xc4;" 
d="M30 0h-21l219 700h22l219 -700h-21l-64 202h-291zM238 666l-139 -444h279zM156 783v51h20v-51h-20zM302 783v51h20v-51h-20z" />
    <glyph glyph-name="Amacron" unicode="&#x100;" 
d="M30 0h-21l219 700h22l219 -700h-21l-64 202h-291zM238 666l-139 -444h279zM150 803h178v-20h-178v20z" />
    <glyph glyph-name="Aogonek" unicode="&#x104;" 
d="M30 0h-21l219 700h22l219 -700h-2s-34 -32 -34 -76c0 -26 12 -39 32 -39c26 0 38 22 38 22l7 -11s-11 -29 -45 -29c-27 0 -50 17 -50 57c0 44 29 73 33 76l-64 202h-291zM238 666l-139 -444h279z" />
    <glyph glyph-name="Aring" unicode="&#xc5;" 
d="M30 0h-21l219 700h22l219 -700h-21l-64 202h-291zM238 666l-139 -444h279zM176 847c0 35 28 63 63 63s64 -28 64 -63s-29 -64 -64 -64s-63 29 -63 64zM195 847c0 -25 19 -45 44 -45s45 20 45 45s-20 44 -45 44s-44 -19 -44 -44z" />
    <glyph glyph-name="Atilde" unicode="&#xc3;" 
d="M30 0h-21l219 700h22l219 -700h-21l-64 202h-291zM238 666l-139 -444h279zM189 852c50 0 59 -49 102 -49s60 50 60 50l15 -9s-21 -60 -76 -60c-50 0 -61 49 -103 49c-43 0 -59 -50 -59 -50l-17 9s23 60 78 60z" />
    <glyph glyph-name="AE" unicode="&#xc6;" horiz-adv-x="632" 
d="M31 0h-22l291 700h289v-20h-258v-325h233v-20h-233v-315h258v-20h-278v202h-196zM123 222h188v451z" />
    <glyph glyph-name="AEacute" unicode="&#x1fc;" horiz-adv-x="632" 
d="M31 0h-22l291 700h289v-20h-258v-325h233v-20h-233v-315h258v-20h-278v202h-196zM123 222h188v451zM251 794l139 79l11 -16l-144 -74z" />
    <glyph glyph-name="B" unicode="B" horiz-adv-x="497" 
d="M87 0v700h148c115 0 189 -61 189 -148v-47c0 -66 -42 -117 -112 -138c85 -18 136 -79 136 -161v-39c0 -98 -73 -167 -189 -167h-172zM259 355h-151v-335h151c103 0 170 61 170 149v38c0 87 -67 148 -170 148zM235 680h-127v-305h127c103 0 169 54 169 129v47
c0 75 -66 129 -169 129z" />
    <glyph glyph-name="C" unicode="C" horiz-adv-x="536" 
d="M448 205h20v-30c0 -106 -80 -180 -195 -180s-195 74 -195 180v350c0 106 80 180 195 180s195 -74 195 -180v-32h-20v32c0 94 -72 160 -175 160s-175 -66 -175 -160v-350c0 -94 72 -160 175 -160s175 66 175 160v30z" />
    <glyph glyph-name="Cacute" unicode="&#x106;" horiz-adv-x="536" 
d="M448 205h20v-30c0 -106 -80 -180 -195 -180s-195 74 -195 180v350c0 106 80 180 195 180s195 -74 195 -180v-32h-20v32c0 94 -72 160 -175 160s-175 -66 -175 -160v-350c0 -94 72 -160 175 -160s175 66 175 160v30zM203 794l139 79l10 -16l-144 -74z" />
    <glyph glyph-name="Ccaron" unicode="&#x10c;" horiz-adv-x="536" 
d="M448 205h20v-30c0 -106 -80 -180 -195 -180s-195 74 -195 180v350c0 106 80 180 195 180s195 -74 195 -180v-32h-20v32c0 94 -72 160 -175 160s-175 -66 -175 -160v-350c0 -94 72 -160 175 -160s175 66 175 160v30zM377 862l-109 -79l-109 79l5 11l104 -67l103 67z" />
    <glyph glyph-name="Ccedilla" unicode="&#xc7;" horiz-adv-x="536" 
d="M448 205h20v-30c0 -104 -77 -177 -188 -180l-5 -37c26 0 46 -18 46 -46c0 -29 -22 -45 -51 -45c-34 0 -55 25 -55 25l8 15s20 -20 47 -20c19 0 31 8 31 24c0 24 -24 32 -47 32l7 52c-109 5 -183 77 -183 180v350c0 106 80 180 195 180s195 -74 195 -180v-32h-20v32
c0 94 -72 160 -175 160s-175 -66 -175 -160v-350c0 -94 72 -160 175 -160s175 66 175 160v30z" />
    <glyph glyph-name="Ccircumflex" unicode="&#x108;" horiz-adv-x="536" 
d="M448 205h20v-30c0 -106 -80 -180 -195 -180s-195 74 -195 180v350c0 106 80 180 195 180s195 -74 195 -180v-32h-20v32c0 94 -72 160 -175 160s-175 -66 -175 -160v-350c0 -94 72 -160 175 -160s175 66 175 160v30zM159 794l109 79l109 -79l-6 -11l-103 67l-104 -67z" />
    <glyph glyph-name="Cdotaccent" unicode="&#x10a;" horiz-adv-x="536" 
d="M448 205h20v-30c0 -106 -80 -180 -195 -180s-195 74 -195 180v350c0 106 80 180 195 180s195 -74 195 -180v-32h-20v32c0 94 -72 160 -175 160s-175 -66 -175 -160v-350c0 -94 72 -160 175 -160s175 66 175 160v30zM258 793v51h20v-51h-20z" />
    <glyph glyph-name="D" unicode="D" horiz-adv-x="541" 
d="M87 0v700h187c115 0 189 -74 189 -180v-340c0 -106 -74 -180 -189 -180h-187zM274 680h-166v-660h166c103 0 169 66 169 160v340c0 94 -66 160 -169 160z" />
    <glyph glyph-name="Dcaron" unicode="&#x10e;" horiz-adv-x="541" 
d="M87 0v700h187c115 0 189 -74 189 -180v-340c0 -106 -74 -180 -189 -180h-187zM274 680h-166v-660h166c103 0 169 66 169 160v340c0 94 -66 160 -169 160zM378 862l-109 -79l-109 79l6 11l103 -67l104 67z" />
    <glyph glyph-name="Dcroat" unicode="&#x110;" horiz-adv-x="541" 
d="M87 0v360h-69v20h69v320h187c114 0 189 -74 189 -180v-340c0 -106 -75 -180 -189 -180h-187zM262 380v-20h-155v-340h167c103 0 168 66 168 160v340c0 94 -65 160 -168 160h-167v-300h155z" />
    <glyph glyph-name="Eth" unicode="&#xd0;" horiz-adv-x="541" 
d="M87 0v360h-69v20h69v320h187c114 0 189 -74 189 -180v-340c0 -106 -75 -180 -189 -180h-187zM262 380v-20h-155v-340h167c103 0 168 66 168 160v340c0 94 -65 160 -168 160h-167v-300h155z" />
    <glyph glyph-name="Thorn" unicode="&#xde;" horiz-adv-x="505" 
d="M259 160h-151v-160h-21v700h21v-150h151c115 0 190 -74 190 -180v-30c0 -106 -75 -180 -190 -180zM259 530h-151v-350h151c103 0 169 66 169 160v30c0 94 -66 160 -169 160z" />
    <glyph glyph-name="E" unicode="E" horiz-adv-x="443" 
d="M399 20v-20h-312v700h312v-20h-291v-325h268v-20h-268v-315h291z" />
    <glyph glyph-name="Eacute" unicode="&#xc9;" horiz-adv-x="443" 
d="M399 20v-20h-312v700h312v-20h-291v-325h268v-20h-268v-315h291zM166 794l139 79l10 -16l-143 -74z" />
    <glyph glyph-name="Ebreve" unicode="&#x114;" horiz-adv-x="443" 
d="M399 20v-20h-312v700h312v-20h-291v-325h268v-20h-268v-315h291zM314 884h19c0 -66 -42 -101 -102 -101c-61 0 -103 35 -103 101h20c0 -53 34 -81 83 -81c48 0 83 28 83 81z" />
    <glyph glyph-name="Ecaron" unicode="&#x11a;" horiz-adv-x="443" 
d="M399 20v-20h-312v700h312v-20h-291v-325h268v-20h-268v-315h291zM339 862l-109 -79l-109 79l5 11l104 -67l104 67z" />
    <glyph glyph-name="Ecircumflex" unicode="&#xca;" horiz-adv-x="443" 
d="M399 20v-20h-312v700h312v-20h-291v-325h268v-20h-268v-315h291zM121 794l109 79l109 -79l-5 -11l-104 67l-104 -67z" />
    <glyph glyph-name="Edieresis" unicode="&#xcb;" horiz-adv-x="443" 
d="M399 20v-20h-312v700h312v-20h-291v-325h268v-20h-268v-315h291zM147 783v51h20v-51h-20zM294 783v51h20v-51h-20z" />
    <glyph glyph-name="Edotaccent" unicode="&#x116;" horiz-adv-x="443" 
d="M399 20v-20h-312v700h312v-20h-291v-325h268v-20h-268v-315h291zM221 793v51h20v-51h-20z" />
    <glyph glyph-name="Egrave" unicode="&#xc8;" horiz-adv-x="443" 
d="M399 20v-20h-312v700h312v-20h-291v-325h268v-20h-268v-315h291zM157 873l139 -79l-6 -11l-143 74z" />
    <glyph glyph-name="Emacron" unicode="&#x112;" horiz-adv-x="443" 
d="M399 20v-20h-312v700h312v-20h-291v-325h268v-20h-268v-315h291zM141 803h178v-20h-178v20z" />
    <glyph glyph-name="Eogonek" unicode="&#x118;" horiz-adv-x="443" 
d="M345 -133c-26 0 -50 17 -50 57c0 44 30 73 34 76h-242v700h312v-20h-291v-325h268v-20h-268v-315h291v-20h-51s-34 -32 -34 -76c0 -26 12 -39 32 -39c26 0 37 22 37 22l8 -11s-11 -29 -46 -29z" />
    <glyph glyph-name="F" unicode="F" horiz-adv-x="443" 
d="M351 355v-20h-243v-335h-21v700h313v-20h-292v-325h243z" />
    <glyph glyph-name="G" unicode="G" horiz-adv-x="536" 
d="M281 350h187v-175c0 -106 -80 -180 -195 -180s-195 74 -195 180v350c0 106 80 180 195 180s195 -74 195 -180v-32h-20v32c0 94 -72 160 -175 160s-175 -66 -175 -160v-350c0 -94 72 -160 175 -160s175 66 175 160v155h-167v20z" />
    <glyph glyph-name="Gbreve" unicode="&#x11e;" horiz-adv-x="536" 
d="M281 350h187v-175c0 -106 -80 -180 -195 -180s-195 74 -195 180v350c0 106 80 180 195 180s195 -74 195 -180v-32h-20v32c0 94 -72 160 -175 160s-175 -66 -175 -160v-350c0 -94 72 -160 175 -160s175 66 175 160v155h-167v20zM351 884h19c0 -66 -42 -101 -102 -101
c-61 0 -103 35 -103 101h20c0 -53 34 -81 83 -81c48 0 83 28 83 81z" />
    <glyph glyph-name="Gcircumflex" unicode="&#x11c;" horiz-adv-x="536" 
d="M281 350h187v-175c0 -106 -80 -180 -195 -180s-195 74 -195 180v350c0 106 80 180 195 180s195 -74 195 -180v-32h-20v32c0 94 -72 160 -175 160s-175 -66 -175 -160v-350c0 -94 72 -160 175 -160s175 66 175 160v155h-167v20zM159 794l109 79l109 -79l-6 -11l-103 67
l-104 -67z" />
    <glyph glyph-name="Gcommaaccent" unicode="&#x122;" horiz-adv-x="536" 
d="M281 350h187v-175c0 -106 -80 -180 -195 -180s-195 74 -195 180v350c0 106 80 180 195 180s195 -74 195 -180v-32h-20v32c0 94 -72 160 -175 160s-175 -66 -175 -160v-350c0 -94 72 -160 175 -160s175 66 175 160v155h-167v20zM241 -180l29 120h24l-41 -124z" />
    <glyph glyph-name="Gdotaccent" unicode="&#x120;" horiz-adv-x="536" 
d="M281 350h187v-175c0 -106 -80 -180 -195 -180s-195 74 -195 180v350c0 106 80 180 195 180s195 -74 195 -180v-32h-20v32c0 94 -72 160 -175 160s-175 -66 -175 -160v-350c0 -94 72 -160 175 -160s175 66 175 160v155h-167v20zM258 793v51h21v-51h-21z" />
    <glyph glyph-name="H" unicode="H" horiz-adv-x="565" 
d="M108 0h-21v700h21v-345h350v345h19v-700h-19v335h-350v-335z" />
    <glyph glyph-name="Hbar" unicode="&#x126;" horiz-adv-x="565" 
d="M108 0h-21v595h-68v20h68v85h21v-85h350v85h19v-85h67v-20h-67v-595h-19v335h-350v-335zM108 595v-240h350v240h-350z" />
    <glyph glyph-name="Hcircumflex" unicode="&#x124;" horiz-adv-x="565" 
d="M108 0h-21v700h21v-345h350v345h19v-700h-19v335h-350v-335zM173 794l109 79l109 -79l-5 -11l-104 67l-103 -67z" />
    <glyph glyph-name="I" unicode="I" horiz-adv-x="195" 
d="M87 0v700h21v-700h-21z" />
    <glyph glyph-name="Iacute" unicode="&#xcd;" horiz-adv-x="195" 
d="M87 0v700h21v-700h-21zM33 794l139 79l11 -16l-144 -74z" />
    <glyph glyph-name="Ibreve" unicode="&#x12c;" horiz-adv-x="195" 
d="M87 0v700h21v-700h-21zM180 884h20c0 -66 -42 -101 -103 -101c-60 0 -102 35 -102 101h19c0 -53 34 -81 83 -81s83 28 83 81z" />
    <glyph glyph-name="Icircumflex" unicode="&#xce;" horiz-adv-x="195" 
d="M87 0v700h21v-700h-21zM-12 794l109 79l109 -79l-5 -11l-104 67l-103 -67z" />
    <glyph glyph-name="Idieresis" unicode="&#xcf;" horiz-adv-x="195" 
d="M87 0v700h21v-700h-21zM14 783v51h20v-51h-20zM161 783v51h20v-51h-20z" />
    <glyph glyph-name="Idotaccent" unicode="&#x130;" horiz-adv-x="195" 
d="M87 0v700h21v-700h-21zM87 793v51h21v-51h-21z" />
    <glyph glyph-name="Igrave" unicode="&#xcc;" horiz-adv-x="195" 
d="M87 0v700h21v-700h-21zM24 873l139 -79l-5 -11l-144 74z" />
    <glyph glyph-name="Imacron" unicode="&#x12a;" horiz-adv-x="195" 
d="M87 0v700h21v-700h-21zM9 803h177v-20h-177v20z" />
    <glyph glyph-name="Iogonek" unicode="&#x12e;" horiz-adv-x="195" 
d="M87 0v700h21v-700h-2s-33 -32 -33 -76c0 -26 12 -39 31 -39c26 0 38 22 38 22l7 -11s-10 -29 -45 -29c-26 0 -50 17 -50 57c0 44 30 73 34 76h-1z" />
    <glyph glyph-name="Itilde" unicode="&#x128;" horiz-adv-x="195" 
d="M87 0v700h21v-700h-21zM48 852c50 0 59 -49 102 -49c44 0 60 50 60 50l15 -9s-21 -60 -76 -60c-50 0 -60 49 -103 49c-42 0 -59 -50 -59 -50l-17 9s23 60 78 60z" />
    <glyph glyph-name="IJ" unicode="&#x132;" horiz-adv-x="502" 
d="M205 15h24c103 0 174 74 174 180v505h21v-505c0 -118 -81 -200 -195 -200h-24v20zM87 0v700h21v-700h-21z" />
    <glyph glyph-name="J" unicode="J" horiz-adv-x="306" 
d="M10 15h23c103 0 175 74 175 180v505h20v-505c0 -118 -80 -200 -195 -200h-23v20z" />
    <glyph glyph-name="Jcircumflex" unicode="&#x134;" horiz-adv-x="306" 
d="M10 15h23c103 0 175 74 175 180v505h20v-505c0 -118 -80 -200 -195 -200h-23v20zM101 799l109 79l109 -79l-5 -11l-104 67l-103 -67z" />
    <glyph glyph-name="K" unicode="K" horiz-adv-x="470" 
d="M87 0v700h21v-700h-21zM424 0l-280 362l267 338h27l-267 -338l280 -362h-27z" />
    <glyph glyph-name="Kcommaaccent" unicode="&#x136;" horiz-adv-x="470" 
d="M87 0v700h21v-700h-21zM424 0l-280 362l267 338h27l-267 -338l280 -362h-27zM209 -180l29 120h24l-41 -124z" />
    <glyph glyph-name="L" unicode="L" horiz-adv-x="438" 
d="M87 0v700h21v-680h286v-20h-307z" />
    <glyph glyph-name="Lacute" unicode="&#x139;" horiz-adv-x="438" 
d="M87 0v700h21v-680h286v-20h-307zM57 794l139 79l10 -16l-143 -74z" />
    <glyph glyph-name="Lcaron" unicode="&#x13d;" horiz-adv-x="438" 
d="M87 0v700h21v-680h286v-20h-307zM284 540l23 160h24l-34 -163z" />
    <glyph glyph-name="Lcommaaccent" unicode="&#x13b;" horiz-adv-x="438" 
d="M87 0v700h21v-680h286v-20h-307zM192 -180l29 120h25l-42 -124z" />
    <glyph glyph-name="Ldot" unicode="&#x13f;" horiz-adv-x="438" 
d="M87 0v700h21v-680h286v-20h-307zM301 325v80h30v-80h-30z" />
    <glyph glyph-name="Lslash" unicode="&#x141;" horiz-adv-x="448" 
d="M26 245l71 65v390h21v-370l98 90l13 -15l-111 -102v-283h285v-20h-306v283l-58 -53z" />
    <glyph glyph-name="M" unicode="M" horiz-adv-x="651" 
d="M107 0h-20v700h20l217 -527l219 527h20v-700h-20v648l-210 -507h-17l-209 507v-648z" />
    <glyph glyph-name="N" unicode="N" horiz-adv-x="565" 
d="M107 0h-20v700h21l350 -660v660h19v-700h-19l-351 658v-658z" />
    <glyph glyph-name="Nacute" unicode="&#x143;" horiz-adv-x="565" 
d="M107 0h-20v700h21l350 -660v660h19v-700h-19l-351 658v-658zM217 794l139 79l11 -16l-144 -74z" />
    <glyph glyph-name="Ncaron" unicode="&#x147;" horiz-adv-x="565" 
d="M107 0h-20v700h21l350 -660v660h19v-700h-19l-351 658v-658zM391 862l-109 -79l-109 79l6 11l103 -67l104 67z" />
    <glyph glyph-name="Ncommaaccent" unicode="&#x145;" horiz-adv-x="565" 
d="M107 0h-20v700h21l350 -660v660h19v-700h-19l-351 658v-658zM255 -180l29 120h24l-41 -124z" />
    <glyph glyph-name="Ntilde" unicode="&#xd1;" horiz-adv-x="565" 
d="M107 0h-20v700h21l350 -660v660h19v-700h-19l-351 658v-658zM232 852c51 0 59 -49 102 -49c44 0 60 50 60 50l16 -9s-22 -60 -77 -60c-50 0 -60 49 -102 49c-43 0 -60 -50 -60 -50l-17 9s24 60 78 60z" />
    <glyph glyph-name="Eng" unicode="&#x14a;" horiz-adv-x="565" 
d="M107 0h-20v700h21l350 -660v660h19v-710c0 -118 -79 -200 -195 -200h-23v20h23c103 0 176 74 176 180v11l-351 657v-658z" />
    <glyph glyph-name="O" unicode="O" horiz-adv-x="546" 
d="M468 175c0 -106 -80 -180 -195 -180s-195 74 -195 180v350c0 106 80 180 195 180s195 -74 195 -180v-350zM448 175v350c0 94 -72 160 -175 160s-175 -66 -175 -160v-350c0 -94 72 -160 175 -160s175 66 175 160z" />
    <glyph glyph-name="Oacute" unicode="&#xd3;" horiz-adv-x="546" 
d="M468 175c0 -106 -80 -180 -195 -180s-195 74 -195 180v350c0 106 80 180 195 180s195 -74 195 -180v-350zM448 175v350c0 94 -72 160 -175 160s-175 -66 -175 -160v-350c0 -94 72 -160 175 -160s175 66 175 160zM207 794l139 79l10 -16l-143 -74z" />
    <glyph glyph-name="Obreve" unicode="&#x14e;" horiz-adv-x="546" 
d="M468 175c0 -106 -80 -180 -195 -180s-195 74 -195 180v350c0 106 80 180 195 180s195 -74 195 -180v-350zM448 175v350c0 94 -72 160 -175 160s-175 -66 -175 -160v-350c0 -94 72 -160 175 -160s175 66 175 160zM356 884h20c0 -66 -43 -101 -103 -101s-103 35 -103 101
h20c0 -53 34 -81 83 -81c48 0 83 28 83 81z" />
    <glyph glyph-name="Ocircumflex" unicode="&#xd4;" horiz-adv-x="546" 
d="M468 175c0 -106 -80 -180 -195 -180s-195 74 -195 180v350c0 106 80 180 195 180s195 -74 195 -180v-350zM448 175v350c0 94 -72 160 -175 160s-175 -66 -175 -160v-350c0 -94 72 -160 175 -160s175 66 175 160zM164 794l109 79l109 -79l-6 -11l-103 67l-104 -67z" />
    <glyph glyph-name="Odieresis" unicode="&#xd6;" horiz-adv-x="546" 
d="M468 175c0 -106 -80 -180 -195 -180s-195 74 -195 180v350c0 106 80 180 195 180s195 -74 195 -180v-350zM448 175v350c0 94 -72 160 -175 160s-175 -66 -175 -160v-350c0 -94 72 -160 175 -160s175 66 175 160zM190 783v51h20v-51h-20zM336 783v51h20v-51h-20z" />
    <glyph glyph-name="Ograve" unicode="&#xd2;" horiz-adv-x="546" 
d="M468 175c0 -106 -80 -180 -195 -180s-195 74 -195 180v350c0 106 80 180 195 180s195 -74 195 -180v-350zM448 175v350c0 94 -72 160 -175 160s-175 -66 -175 -160v-350c0 -94 72 -160 175 -160s175 66 175 160zM198 873l139 -79l-6 -11l-144 74z" />
    <glyph glyph-name="Ohungarumlaut" unicode="&#x150;" horiz-adv-x="546" 
d="M468 175c0 -106 -80 -180 -195 -180s-195 74 -195 180v350c0 106 80 180 195 180s195 -74 195 -180v-350zM448 175v350c0 94 -72 160 -175 160s-175 -66 -175 -160v-350c0 -94 72 -160 175 -160s175 66 175 160zM165 792l89 102l16 -12l-96 -99zM259 791l127 97l14 -14
l-134 -93z" />
    <glyph glyph-name="Omacron" unicode="&#x14c;" horiz-adv-x="546" 
d="M468 175c0 -106 -80 -180 -195 -180s-195 74 -195 180v350c0 106 80 180 195 180s195 -74 195 -180v-350zM448 175v350c0 94 -72 160 -175 160s-175 -66 -175 -160v-350c0 -94 72 -160 175 -160s175 66 175 160zM184 803h178v-20h-178v20z" />
    <glyph glyph-name="Oslash" unicode="&#xd8;" horiz-adv-x="545" 
d="M74 -5l38 72c-22 29 -34 66 -34 108v350c0 106 80 180 195 180c61 0 113 -21 147 -57l31 57h21l-39 -73c22 -29 35 -66 35 -107v-350c0 -106 -80 -180 -195 -180c-61 0 -113 21 -147 56l-30 -56h-22zM98 175c0 -33 9 -63 25 -88l287 541c-31 36 -79 57 -137 57
c-104 0 -175 -66 -175 -160v-350zM448 175v350c0 33 -9 63 -25 87l-287 -542c31 -35 78 -55 137 -55c103 0 175 66 175 160z" />
    <glyph glyph-name="Oslashacute" unicode="&#x1fe;" horiz-adv-x="545" 
d="M74 -5l38 72c-22 29 -34 66 -34 108v350c0 106 80 180 195 180c61 0 113 -21 147 -57l31 57h21l-39 -73c22 -29 35 -66 35 -107v-350c0 -106 -80 -180 -195 -180c-61 0 -113 21 -147 56l-30 -56h-22zM98 175c0 -33 9 -63 25 -88l287 541c-31 36 -79 57 -137 57
c-104 0 -175 -66 -175 -160v-350zM448 175v350c0 33 -9 63 -25 87l-287 -542c31 -35 78 -55 137 -55c103 0 175 66 175 160zM207 794l139 79l10 -16l-143 -74z" />
    <glyph glyph-name="Otilde" unicode="&#xd5;" horiz-adv-x="546" 
d="M468 175c0 -106 -80 -180 -195 -180s-195 74 -195 180v350c0 106 80 180 195 180s195 -74 195 -180v-350zM448 175v350c0 94 -72 160 -175 160s-175 -66 -175 -160v-350c0 -94 72 -160 175 -160s175 66 175 160zM223 852c50 0 59 -49 102 -49s60 50 60 50l15 -9
s-21 -60 -76 -60c-50 0 -61 49 -103 49s-59 -50 -59 -50l-17 9s23 60 78 60z" />
    <glyph glyph-name="OE" unicode="&#x152;" horiz-adv-x="799" 
d="M449 0v92c-30 -60 -94 -97 -176 -97c-115 0 -195 74 -195 180v350c0 106 80 180 195 180c82 0 146 -38 176 -97v92h306v-20h-286v-325h262v-20h-262v-315h286v-20h-306zM448 175v350c0 94 -72 160 -175 160s-175 -66 -175 -160v-350c0 -94 72 -160 175 -160
s175 66 175 160z" />
    <glyph glyph-name="P" unicode="P" horiz-adv-x="505" 
d="M260 310h-152v-310h-21v700h173c114 0 189 -74 189 -180v-30c0 -106 -75 -180 -189 -180zM260 680h-152v-350h152c103 0 168 66 168 160v30c0 94 -65 160 -168 160z" />
    <glyph glyph-name="Q" unicode="Q" horiz-adv-x="546" 
d="M477 -107l-90 132c-31 -20 -70 -30 -114 -30c-115 0 -195 74 -195 180v350c0 106 80 180 195 180s195 -74 195 -180v-350c0 -58 -24 -107 -65 -139l89 -131zM448 175v350c0 94 -72 160 -175 160s-175 -66 -175 -160v-350c0 -94 72 -160 175 -160s175 66 175 160z" />
    <glyph glyph-name="R" unicode="R" horiz-adv-x="516" 
d="M108 310v-310h-21v700h163c115 0 189 -74 189 -180v-30c0 -94 -58 -163 -151 -177l173 -313h-22l-172 310h-159zM250 680h-142v-350h142c103 0 169 66 169 160v30c0 94 -66 160 -169 160z" />
    <glyph glyph-name="Racute" unicode="&#x154;" horiz-adv-x="516" 
d="M108 310v-310h-21v700h163c115 0 189 -74 189 -180v-30c0 -94 -58 -163 -151 -177l173 -313h-22l-172 310h-159zM250 680h-142v-350h142c103 0 169 66 169 160v30c0 94 -66 160 -169 160zM193 794l139 79l10 -16l-144 -74z" />
    <glyph glyph-name="Rcaron" unicode="&#x158;" horiz-adv-x="516" 
d="M108 310v-310h-21v700h163c115 0 189 -74 189 -180v-30c0 -94 -58 -163 -151 -177l173 -313h-22l-172 310h-159zM250 680h-142v-350h142c103 0 169 66 169 160v30c0 94 -66 160 -169 160zM367 862l-109 -79l-109 79l5 11l104 -67l104 67z" />
    <glyph glyph-name="Rcommaaccent" unicode="&#x156;" horiz-adv-x="516" 
d="M108 310v-310h-21v700h163c115 0 189 -74 189 -180v-30c0 -94 -58 -163 -151 -177l173 -313h-22l-172 310h-159zM250 680h-142v-350h142c103 0 169 66 169 160v30c0 94 -66 160 -169 160zM231 -180l29 120h25l-42 -124z" />
    <glyph glyph-name="S" unicode="S" horiz-adv-x="482" 
d="M394 505v20c0 94 -64 160 -157 160c-90 0 -154 -62 -154 -150c0 -59 29 -108 76 -132l179 -91c53 -27 86 -80 86 -146c0 -101 -76 -171 -184 -171c-112 0 -187 74 -187 180v25h20v-25c0 -94 67 -160 167 -160c96 0 163 62 163 151c0 57 -28 105 -76 130l-178 91
c-53 28 -87 81 -87 148c0 100 74 170 175 170c105 0 177 -74 177 -180v-20h-20z" />
    <glyph glyph-name="Sacute" unicode="&#x15a;" horiz-adv-x="482" 
d="M394 505v20c0 94 -64 160 -157 160c-90 0 -154 -62 -154 -150c0 -59 29 -108 76 -132l179 -91c53 -27 86 -80 86 -146c0 -101 -76 -171 -184 -171c-112 0 -187 74 -187 180v25h20v-25c0 -94 67 -160 167 -160c96 0 163 62 163 151c0 57 -28 105 -76 130l-178 91
c-53 28 -87 81 -87 148c0 100 74 170 175 170c105 0 177 -74 177 -180v-20h-20zM176 794l139 79l11 -16l-144 -74z" />
    <glyph glyph-name="Scaron" unicode="&#x160;" horiz-adv-x="482" 
d="M394 505v20c0 94 -64 160 -157 160c-90 0 -154 -62 -154 -150c0 -59 29 -108 76 -132l179 -91c53 -27 86 -80 86 -146c0 -101 -76 -171 -184 -171c-112 0 -187 74 -187 180v25h20v-25c0 -94 67 -160 167 -160c96 0 163 62 163 151c0 57 -28 105 -76 130l-178 91
c-53 28 -87 81 -87 148c0 100 74 170 175 170c105 0 177 -74 177 -180v-20h-20zM350 862l-109 -79l-109 79l5 11l104 -67l103 67z" />
    <glyph glyph-name="Scedilla" unicode="&#x15e;" horiz-adv-x="482" 
d="M394 505v20c0 94 -64 160 -157 160c-90 0 -154 -62 -154 -150c0 -59 29 -108 76 -132l179 -91c53 -27 86 -80 86 -146c0 -97 -70 -165 -171 -170l-5 -38c26 0 45 -18 45 -46c0 -29 -21 -45 -50 -45c-35 0 -55 25 -55 25l7 15s21 -20 48 -20c19 0 30 8 30 24
c0 24 -24 32 -46 32l7 52c-109 3 -181 75 -181 180v25h20v-25c0 -94 67 -160 167 -160c96 0 163 62 163 151c0 57 -28 105 -76 130l-178 91c-53 28 -87 81 -87 148c0 100 74 170 175 170c105 0 177 -74 177 -180v-20h-20z" />
    <glyph glyph-name="Scircumflex" unicode="&#x15c;" horiz-adv-x="482" 
d="M394 505v20c0 94 -64 160 -157 160c-90 0 -154 -62 -154 -150c0 -59 29 -108 76 -132l179 -91c53 -27 86 -80 86 -146c0 -101 -76 -171 -184 -171c-112 0 -187 74 -187 180v25h20v-25c0 -94 67 -160 167 -160c96 0 163 62 163 151c0 57 -28 105 -76 130l-178 91
c-53 28 -87 81 -87 148c0 100 74 170 175 170c105 0 177 -74 177 -180v-20h-20zM132 794l109 79l109 -79l-6 -11l-103 67l-104 -67z" />
    <glyph glyph-name="Scommaaccent" unicode="&#x218;" horiz-adv-x="482" 
d="M394 505v20c0 94 -64 160 -157 160c-90 0 -154 -62 -154 -150c0 -59 29 -108 76 -132l179 -91c53 -27 86 -80 86 -146c0 -101 -76 -171 -184 -171c-112 0 -187 74 -187 180v25h20v-25c0 -94 67 -160 167 -160c96 0 163 62 163 151c0 57 -28 105 -76 130l-178 91
c-53 28 -87 81 -87 148c0 100 74 170 175 170c105 0 177 -74 177 -180v-20h-20zM197 -180l29 120h25l-42 -124z" />
    <glyph glyph-name="T" unicode="T" horiz-adv-x="469" 
d="M449 700v-20h-205v-680h-20v680h-204v20h429z" />
    <glyph glyph-name="Tbar" unicode="&#x166;" horiz-adv-x="469" 
d="M390 390v-20h-146v-370h-20v370h-146v20h146v290h-204v20h429v-20h-205v-290h146z" />
    <glyph glyph-name="Tcaron" unicode="&#x164;" horiz-adv-x="469" 
d="M449 700v-20h-205v-680h-20v680h-204v20h429zM343 862l-109 -79l-110 79l6 11l104 -67l103 67z" />
    <glyph glyph-name="Tcommaaccent" unicode="&#x162;" horiz-adv-x="469" 
d="M449 700v-20h-205v-680h-20v680h-204v20h429zM197 -180l29 120h25l-42 -124z" />
    <glyph glyph-name="uni021A" unicode="&#x21a;" horiz-adv-x="469" 
d="M449 700v-20h-205v-680h-20v680h-204v20h429zM197 -180l29 120h25l-42 -124z" />
    <glyph glyph-name="U" unicode="U" horiz-adv-x="546" 
d="M448 700h20v-525c0 -106 -81 -180 -195 -180c-115 0 -195 74 -195 180v525h20v-525c0 -94 72 -160 175 -160s175 66 175 160v525z" />
    <glyph glyph-name="Uacute" unicode="&#xda;" horiz-adv-x="546" 
d="M448 700h20v-525c0 -106 -81 -180 -195 -180c-115 0 -195 74 -195 180v525h20v-525c0 -94 72 -160 175 -160s175 66 175 160v525zM208 794l138 79l11 -16l-144 -74z" />
    <glyph glyph-name="Ubreve" unicode="&#x16c;" horiz-adv-x="546" 
d="M448 700h20v-525c0 -106 -81 -180 -195 -180c-115 0 -195 74 -195 180v525h20v-525c0 -94 72 -160 175 -160s175 66 175 160v525zM356 884h20c0 -66 -43 -101 -103 -101s-103 35 -103 101h20c0 -53 34 -81 83 -81c48 0 83 28 83 81z" />
    <glyph glyph-name="Ucircumflex" unicode="&#xdb;" horiz-adv-x="546" 
d="M448 700h20v-525c0 -106 -81 -180 -195 -180c-115 0 -195 74 -195 180v525h20v-525c0 -94 72 -160 175 -160s175 66 175 160v525zM163 794l110 79l109 -79l-6 -11l-103 67l-104 -67z" />
    <glyph glyph-name="Udieresis" unicode="&#xdc;" horiz-adv-x="546" 
d="M448 700h20v-525c0 -106 -81 -180 -195 -180c-115 0 -195 74 -195 180v525h20v-525c0 -94 72 -160 175 -160s175 66 175 160v525zM190 783v51h20v-51h-20zM336 783v51h20v-51h-20z" />
    <glyph glyph-name="Ugrave" unicode="&#xd9;" horiz-adv-x="546" 
d="M448 700h20v-525c0 -106 -81 -180 -195 -180c-115 0 -195 74 -195 180v525h20v-525c0 -94 72 -160 175 -160s175 66 175 160v525zM199 873l139 -79l-6 -11l-144 74z" />
    <glyph glyph-name="Uhungarumlaut" unicode="&#x170;" horiz-adv-x="546" 
d="M448 700h20v-525c0 -106 -81 -180 -195 -180c-115 0 -195 74 -195 180v525h20v-525c0 -94 72 -160 175 -160s175 66 175 160v525zM166 792l89 102l16 -12l-96 -99zM259 791l128 97l13 -14l-134 -93z" />
    <glyph glyph-name="Umacron" unicode="&#x16a;" horiz-adv-x="546" 
d="M448 700h20v-525c0 -106 -81 -180 -195 -180c-115 0 -195 74 -195 180v525h20v-525c0 -94 72 -160 175 -160s175 66 175 160v525zM184 803h178v-20h-178v20z" />
    <glyph glyph-name="Uogonek" unicode="&#x172;" horiz-adv-x="546" 
d="M319 -133c-27 0 -50 17 -50 57c0 38 22 63 31 72c-9 -1 -18 -1 -27 -1c-115 0 -195 74 -195 180v525h20v-525c0 -94 72 -160 175 -160s175 66 175 160v525h20v-525c0 -91 -59 -157 -147 -175c0 0 -34 -32 -34 -76c0 -26 12 -39 32 -39c26 0 38 22 38 22l7 -11
s-11 -29 -45 -29z" />
    <glyph glyph-name="Uring" unicode="&#x16e;" horiz-adv-x="546" 
d="M448 700h20v-525c0 -106 -81 -180 -195 -180c-115 0 -195 74 -195 180v525h20v-525c0 -94 72 -160 175 -160s175 66 175 160v525zM208 847c0 35 28 63 63 63s64 -28 64 -63s-29 -64 -64 -64s-63 29 -63 64zM227 847c0 -25 19 -45 44 -45s45 20 45 45s-20 44 -45 44
s-44 -19 -44 -44z" />
    <glyph glyph-name="Utilde" unicode="&#x168;" horiz-adv-x="546" 
d="M448 700h20v-525c0 -106 -81 -180 -195 -180c-115 0 -195 74 -195 180v525h20v-525c0 -94 72 -160 175 -160s175 66 175 160v525zM223 852c50 0 59 -49 102 -49s60 50 60 50l15 -9s-22 -60 -76 -60c-50 0 -61 49 -103 49c-43 0 -59 -50 -59 -50l-17 9s23 60 78 60z" />
    <glyph glyph-name="V" unicode="V" horiz-adv-x="499" 
d="M453 700h21l-214 -700h-21l-214 700h20l204 -668z" />
    <glyph glyph-name="W" unicode="W" horiz-adv-x="713" 
d="M677 700h21l-166 -700h-21l-155 659l-154 -659h-22l-165 700h21l155 -658l155 658h21l155 -658z" />
    <glyph glyph-name="Wacute" unicode="&#x1e82;" horiz-adv-x="713" 
d="M677 700h21l-166 -700h-21l-155 659l-154 -659h-22l-165 700h21l155 -658l155 658h21l155 -658zM291 794l139 79l11 -16l-144 -74z" />
    <glyph glyph-name="Wcircumflex" unicode="&#x174;" horiz-adv-x="713" 
d="M677 700h21l-166 -700h-21l-155 659l-154 -659h-22l-165 700h21l155 -658l155 658h21l155 -658zM247 794l109 79l109 -79l-6 -11l-103 67l-104 -67z" />
    <glyph glyph-name="Wdieresis" unicode="&#x1e84;" horiz-adv-x="713" 
d="M677 700h21l-166 -700h-21l-155 659l-154 -659h-22l-165 700h21l155 -658l155 658h21l155 -658zM419 783v51h20v-51h-20zM273 783v51h19v-51h-19z" />
    <glyph glyph-name="Wgrave" unicode="&#x1e80;" horiz-adv-x="713" 
d="M677 700h21l-166 -700h-21l-155 659l-154 -659h-22l-165 700h21l155 -658l155 658h21l155 -658zM282 873l139 -79l-6 -11l-143 74z" />
    <glyph glyph-name="X" unicode="X" horiz-adv-x="469" 
d="M411 700h24l-188 -338l202 -362h-25l-190 343l-190 -343h-25l202 362l-187 338h25l175 -319z" />
    <glyph glyph-name="Y" unicode="Y" horiz-adv-x="449" 
d="M214 0v300l-205 400h22l192 -380l194 380h22l-205 -400v-300h-20z" />
    <glyph glyph-name="Yacute" unicode="&#xdd;" horiz-adv-x="449" 
d="M214 0v300l-205 400h22l192 -380l194 380h22l-205 -400v-300h-20zM159 794l139 79l11 -16l-144 -74z" />
    <glyph glyph-name="Ycircumflex" unicode="&#x176;" horiz-adv-x="449" 
d="M214 0v300l-205 400h22l192 -380l194 380h22l-205 -400v-300h-20zM115 794l109 79l109 -79l-5 -11l-104 67l-103 -67z" />
    <glyph glyph-name="Ydieresis" unicode="&#x178;" horiz-adv-x="449" 
d="M214 0v300l-205 400h22l192 -380l194 380h22l-205 -400v-300h-20zM288 783v51h20v-51h-20zM141 783v51h20v-51h-20z" />
    <glyph glyph-name="Ygrave" unicode="&#x1ef2;" horiz-adv-x="449" 
d="M214 0v300l-205 400h22l192 -380l194 380h22l-205 -400v-300h-20zM151 873l138 -79l-5 -11l-144 74z" />
    <glyph glyph-name="Z" unicode="Z" horiz-adv-x="448" 
d="M49 680v20h360v-20l-342 -660h342v-20h-365v20l341 660h-336z" />
    <glyph glyph-name="Zacute" unicode="&#x179;" horiz-adv-x="448" 
d="M49 680v20h360v-20l-342 -660h342v-20h-365v20l341 660h-336zM158 794l139 79l11 -16l-144 -74z" />
    <glyph glyph-name="Zcaron" unicode="&#x17d;" horiz-adv-x="448" 
d="M49 680v20h360v-20l-342 -660h342v-20h-365v20l341 660h-336zM333 862l-109 -79l-109 79l6 11l103 -67l104 67z" />
    <glyph glyph-name="Zdotaccent" unicode="&#x17b;" horiz-adv-x="448" 
d="M49 680v20h360v-20l-342 -660h342v-20h-365v20l341 660h-336zM214 793v51h20v-51h-20z" />
    <glyph glyph-name="uni018F" unicode="&#x18f;" horiz-adv-x="536" 
d="M78 175v175h370v175c0 94 -72 160 -175 160s-175 -66 -175 -160v-32h-20v32c0 106 80 180 195 180s195 -74 195 -180v-350c0 -106 -80 -180 -195 -180s-195 74 -195 180zM98 330v-155c0 -94 72 -160 175 -160s175 66 175 160v155h-350z" />
    <glyph glyph-name="A.smcp" horiz-adv-x="389" 
d="M36 0h-22l169 525h23l168 -525h-21l-47 147h-223zM194 495l-105 -328h210z" />
    <glyph glyph-name="Aacute.smcp" horiz-adv-x="389" 
d="M36 0h-22l169 525h23l168 -525h-21l-47 147h-223zM194 495l-105 -328h210zM127 592l139 79l11 -16l-144 -74z" />
    <glyph glyph-name="Abreve.smcp" horiz-adv-x="389" 
d="M36 0h-22l169 525h23l168 -525h-21l-47 147h-223zM194 495l-105 -328h210zM277 681h20c0 -66 -42 -101 -103 -101c-60 0 -102 35 -102 101h19c0 -53 34 -81 83 -81s83 28 83 81z" />
    <glyph glyph-name="Acircumflex.smcp" horiz-adv-x="389" 
d="M36 0h-22l169 525h23l168 -525h-21l-47 147h-223zM194 495l-105 -328h210zM85 592l109 79l109 -79l-5 -11l-104 67l-104 -67z" />
    <glyph glyph-name="Agrave.smcp" horiz-adv-x="389" 
d="M36 0h-22l169 525h23l168 -525h-21l-47 147h-223zM194 495l-105 -328h210zM122 671l139 -79l-5 -11l-144 74z" />
    <glyph glyph-name="Adieresis.smcp" horiz-adv-x="389" 
d="M36 0h-22l169 525h23l168 -525h-21l-47 147h-223zM194 495l-105 -328h210zM111 584v51h20v-51h-20zM257 584v51h20v-51h-20z" />
    <glyph glyph-name="Amacron.smcp" horiz-adv-x="389" 
d="M36 0h-22l169 525h23l168 -525h-21l-47 147h-223zM194 495l-105 -328h210zM105 606h178v-20h-178v20z" />
    <glyph glyph-name="Aogonek.smcp" horiz-adv-x="389" 
d="M36 0h-22l169 525h23l168 -525h-11c-9 -11 -26 -35 -26 -68c0 -26 12 -39 32 -39c25 0 37 22 37 22l7 -11s-10 -29 -45 -29c-26 0 -50 17 -50 57c0 39 24 66 33 73l-45 142h-223zM194 495l-105 -328h210z" />
    <glyph glyph-name="Aring.smcp" horiz-adv-x="389" 
d="M36 0h-22l169 525h23l168 -525h-21l-47 147h-223zM194 495l-105 -328h210zM132 642c0 35 28 63 63 63s64 -28 64 -63s-29 -64 -64 -64s-63 29 -63 64zM151 642c0 -25 19 -45 44 -45s45 20 45 45s-20 44 -45 44s-44 -19 -44 -44z" />
    <glyph glyph-name="Atilde.smcp" horiz-adv-x="389" 
d="M36 0h-22l169 525h23l168 -525h-21l-47 147h-223zM194 495l-105 -328h210zM145 652c50 0 59 -49 102 -49s60 50 60 50l15 -9s-21 -60 -76 -60c-50 0 -61 49 -103 49c-43 0 -59 -50 -59 -50l-17 9s23 60 78 60z" />
    <glyph glyph-name="AE.smcp" horiz-adv-x="506" 
d="M37 0h-22l221 525h229v-19h-196v-237h177v-19h-177v-230h196v-20h-217v147h-150zM107 167h141v336z" />
    <glyph glyph-name="AEacute.smcp" horiz-adv-x="506" 
d="M37 0h-22l221 525h229v-19h-196v-237h177v-19h-177v-230h196v-20h-217v147h-150zM107 167h141v336zM186 592l139 79l11 -16l-144 -74z" />
    <glyph glyph-name="B.smcp" horiz-adv-x="402" 
d="M74 0v525h118c89 0 147 -46 147 -112v-35c0 -49 -32 -87 -84 -103c63 -15 102 -61 102 -120v-30c0 -73 -58 -125 -147 -125h-136zM210 264h-115v-244h115c77 0 127 43 127 107v30c0 62 -50 107 -127 107zM191 506h-96v-223h96c78 0 127 39 127 93v36c0 54 -49 94 -127 94
z" />
    <glyph glyph-name="C.smcp" horiz-adv-x="430" 
d="M350 155h21v-24c0 -80 -63 -135 -152 -135c-90 0 -152 55 -152 135v263c0 80 62 135 152 135c89 0 152 -55 152 -135v-25h-21v26c0 68 -54 115 -131 115s-131 -47 -131 -115v-265c0 -68 54 -115 131 -115s131 48 131 115v25z" />
    <glyph glyph-name="Cacute.smcp" horiz-adv-x="430" 
d="M147 592l139 79l10 -16l-143 -74zM350 155h21v-24c0 -80 -63 -135 -152 -135c-90 0 -152 55 -152 135v263c0 80 62 135 152 135c89 0 152 -55 152 -135v-25h-21v26c0 68 -54 115 -131 115s-131 -47 -131 -115v-265c0 -68 54 -115 131 -115s131 48 131 115v25z" />
    <glyph glyph-name="Ccaron.smcp" horiz-adv-x="430" 
d="M324 660l-109 -79l-110 79l6 11l104 -67l103 67zM350 155h21v-24c0 -80 -63 -135 -152 -135c-90 0 -152 55 -152 135v263c0 80 62 135 152 135c89 0 152 -55 152 -135v-25h-21v26c0 68 -54 115 -131 115s-131 -47 -131 -115v-265c0 -68 54 -115 131 -115s131 48 131 115
v25z" />
    <glyph glyph-name="Ccedilla.smcp" horiz-adv-x="430" 
d="M350 155h21v-24c0 -78 -60 -132 -145 -135l-4 -31c26 0 46 -18 46 -46c0 -29 -22 -45 -51 -45c-35 0 -55 25 -55 25l7 15s21 -20 48 -20c19 0 30 8 30 24c0 24 -24 32 -46 32l6 47c-84 4 -140 57 -140 134v263c0 80 62 135 152 135c89 0 152 -55 152 -135v-25h-21v26
c0 68 -54 115 -131 115s-131 -47 -131 -115v-265c0 -68 54 -115 131 -115s131 48 131 115v25z" />
    <glyph glyph-name="Ccircumflex.smcp" horiz-adv-x="430" 
d="M350 155h21v-24c0 -80 -63 -135 -152 -135c-90 0 -152 55 -152 135v263c0 80 62 135 152 135c89 0 152 -55 152 -135v-25h-21v26c0 68 -54 115 -131 115s-131 -47 -131 -115v-265c0 -68 54 -115 131 -115s131 48 131 115v25zM105 592l110 79l109 -79l-6 -11l-103 67
l-104 -67z" />
    <glyph glyph-name="Cdotaccent.smcp" horiz-adv-x="430" 
d="M350 155h21v-24c0 -80 -63 -135 -152 -135c-90 0 -152 55 -152 135v263c0 80 62 135 152 135c89 0 152 -55 152 -135v-25h-21v26c0 68 -54 115 -131 115s-131 -47 -131 -115v-265c0 -68 54 -115 131 -115s131 48 131 115v25zM205 591v51h20v-51h-20z" />
    <glyph glyph-name="D.smcp" horiz-adv-x="434" 
d="M74 0v525h146c90 0 148 -55 148 -135v-255c0 -80 -58 -135 -148 -135h-146zM220 506h-125v-486h125c77 0 127 47 127 114v257c0 68 -50 115 -127 115z" />
    <glyph glyph-name="Dcaron.smcp" horiz-adv-x="434" 
d="M74 0v525h146c90 0 148 -55 148 -135v-255c0 -80 -58 -135 -148 -135h-146zM220 506h-125v-486h125c77 0 127 47 127 114v257c0 68 -50 115 -127 115zM325 660l-109 -79l-109 79l6 11l103 -67l104 67z" />
    <glyph glyph-name="Dcroat.smcp" horiz-adv-x="433" 
d="M73 0v268h-52v18h52v239h146c90 0 148 -55 148 -135v-255c0 -80 -58 -135 -148 -135h-146zM210 286v-18h-116v-248h125c77 0 127 47 127 114v257c0 68 -50 115 -127 115h-125v-220h116z" />
    <glyph glyph-name="Eth.smcp" horiz-adv-x="433" 
d="M73 0v268h-52v18h52v239h146c90 0 148 -55 148 -135v-255c0 -80 -58 -135 -148 -135h-146zM210 286v-18h-116v-248h125c77 0 127 47 127 114v257c0 68 -50 115 -127 115h-125v-220h116z" />
    <glyph glyph-name="Thorn.smcp" horiz-adv-x="408" 
d="M210 119h-115v-119h-21v525h21v-111h115c89 0 148 -56 148 -135v-25c0 -79 -59 -135 -148 -135zM210 394h-115v-255h115c77 0 127 47 127 114v27c0 67 -50 114 -127 114z" />
    <glyph glyph-name="E.smcp" horiz-adv-x="354" 
d="M313 20v-20h-239v525h239v-19h-218v-237h199v-19h-199v-230h218z" />
    <glyph glyph-name="Eacute.smcp" horiz-adv-x="354" 
d="M313 20v-20h-239v525h239v-19h-218v-237h199v-19h-199v-230h218zM110 592l139 79l10 -16l-143 -74z" />
    <glyph glyph-name="Ebreve.smcp" horiz-adv-x="354" 
d="M74 0v525h239v-19h-218v-237h199v-19h-199v-230h218v-20h-239zM261 681h20c0 -66 -43 -101 -103 -101s-103 35 -103 101h20c0 -53 34 -81 83 -81c48 0 83 28 83 81z" />
    <glyph glyph-name="Ecaron.smcp" horiz-adv-x="354" 
d="M74 0v525h239v-19h-218v-237h199v-19h-199v-230h218v-20h-239zM286 660l-109 -79l-109 79l6 11l103 -67l104 67z" />
    <glyph glyph-name="Ecircumflex.smcp" horiz-adv-x="354" 
d="M74 0v525h239v-19h-218v-237h199v-19h-199v-230h218v-20h-239zM68 592l109 79l109 -79l-5 -11l-104 67l-103 -67z" />
    <glyph glyph-name="Edieresis.smcp" horiz-adv-x="354" 
d="M74 0v525h239v-19h-218v-237h199v-19h-199v-230h218v-20h-239zM93 584v51h20v-51h-20zM240 584v51h20v-51h-20z" />
    <glyph glyph-name="Edotaccent.smcp" horiz-adv-x="354" 
d="M313 20v-20h-239v525h239v-19h-218v-237h199v-19h-199v-230h218zM167 591v51h20v-51h-20z" />
    <glyph glyph-name="Egrave.smcp" horiz-adv-x="354" 
d="M313 20v-20h-239v525h239v-19h-218v-237h199v-19h-199v-230h218zM105 671l139 -79l-6 -11l-144 74z" />
    <glyph glyph-name="Emacron.smcp" horiz-adv-x="354" 
d="M74 0v525h239v-19h-218v-237h199v-19h-199v-230h218v-20h-239zM88 606h177v-20h-177v20z" />
    <glyph glyph-name="Eogonek.smcp" horiz-adv-x="354" 
d="M274 -125c-26 0 -50 17 -50 57c0 33 17 57 27 68h-177v525h239v-19h-218v-237h199v-19h-199v-230h218v-20h-45c-9 -11 -26 -35 -26 -68c0 -26 13 -39 32 -39c26 0 38 22 38 22l7 -11s-11 -29 -45 -29z" />
    <glyph glyph-name="F.smcp" horiz-adv-x="354" 
d="M276 269v-19h-181v-250h-21v525h239v-19h-218v-237h181z" />
    <glyph glyph-name="G.smcp" horiz-adv-x="430" 
d="M225 265h146v-134c0 -80 -63 -135 -152 -135c-90 0 -152 55 -152 135v263c0 80 62 135 152 135c89 0 152 -55 152 -135v-25h-21v26c0 68 -54 115 -131 115s-131 -47 -131 -115v-265c0 -68 54 -115 131 -115s131 48 131 115v115h-125v20z" />
    <glyph glyph-name="Gbreve.smcp" horiz-adv-x="430" 
d="M225 265h146v-134c0 -80 -63 -135 -152 -135c-90 0 -152 55 -152 135v263c0 80 62 135 152 135c89 0 152 -55 152 -135v-25h-21v26c0 68 -54 115 -131 115s-131 -47 -131 -115v-265c0 -68 54 -115 131 -115s131 48 131 115v115h-125v20zM297 681h20
c0 -66 -42 -101 -102 -101c-61 0 -103 35 -103 101h20c0 -53 33 -81 83 -81c48 0 82 28 82 81z" />
    <glyph glyph-name="Gcircumflex.smcp" horiz-adv-x="430" 
d="M225 265h146v-134c0 -80 -63 -135 -152 -135c-90 0 -152 55 -152 135v263c0 80 62 135 152 135c89 0 152 -55 152 -135v-25h-21v26c0 68 -54 115 -131 115s-131 -47 -131 -115v-265c0 -68 54 -115 131 -115s131 48 131 115v115h-125v20zM105 592l110 79l109 -79l-6 -11
l-103 67l-104 -67z" />
    <glyph glyph-name="Gcommaaccent.smcp" horiz-adv-x="430" 
d="M225 265h146v-134c0 -80 -63 -135 -152 -135c-90 0 -152 55 -152 135v263c0 80 62 135 152 135c89 0 152 -55 152 -135v-25h-21v26c0 68 -54 115 -131 115s-131 -47 -131 -115v-265c0 -68 54 -115 131 -115s131 48 131 115v115h-125v20zM188 -157l29 120h24l-41 -124z
" />
    <glyph glyph-name="Gdotaccent.smcp" horiz-adv-x="430" 
d="M225 265h146v-134c0 -80 -63 -135 -152 -135c-90 0 -152 55 -152 135v263c0 80 62 135 152 135c89 0 152 -55 152 -135v-25h-21v26c0 68 -54 115 -131 115s-131 -47 -131 -115v-265c0 -68 54 -115 131 -115s131 48 131 115v115h-125v20zM205 591v51h20v-51h-20z" />
    <glyph glyph-name="H.smcp" horiz-adv-x="453" 
d="M95 0h-21v525h21v-256h263v256h21v-525h-21v250h-263v-250z" />
    <glyph glyph-name="Hbar.smcp" horiz-adv-x="452" 
d="M95 0h-21v445h-52v17h52v63h21v-63h263v63h20v-63h51v-17h-51v-445h-20v250h-263v-250zM95 445v-176h263v176h-263z" />
    <glyph glyph-name="Hcircumflex.smcp" horiz-adv-x="453" 
d="M95 0h-21v525h21v-256h263v256h21v-525h-21v250h-263v-250zM116 592l110 79l109 -79l-6 -11l-103 67l-104 -67z" />
    <glyph glyph-name="I.smcp" horiz-adv-x="169" 
d="M74 0v525h21v-525h-21z" />
    <glyph glyph-name="Iacute.smcp" horiz-adv-x="169" 
d="M18 592l139 79l10 -16l-143 -74zM74 0v525h21v-525h-21z" />
    <glyph glyph-name="Ibreve.smcp" horiz-adv-x="169" 
d="M167 681h20c0 -66 -42 -101 -102 -101c-61 0 -103 35 -103 101h20c0 -53 33 -81 83 -81c48 0 82 28 82 81zM74 0v525h21v-525h-21z" />
    <glyph glyph-name="Icircumflex.smcp" horiz-adv-x="169" 
d="M74 0v525h21v-525h-21zM-25 592l110 79l109 -79l-6 -11l-103 67l-104 -67z" />
    <glyph glyph-name="Idieresis.smcp" horiz-adv-x="169" 
d="M74 0v525h21v-525h-21zM1 584v51h20v-51h-20zM148 584v51h19v-51h-19z" />
    <glyph glyph-name="Idotaccent.smcp" horiz-adv-x="169" 
d="M74 0v525h21v-525h-21zM75 591v51h20v-51h-20z" />
    <glyph glyph-name="Igrave.smcp" horiz-adv-x="169" 
d="M13 671l139 -79l-6 -11l-143 74zM74 0v525h21v-525h-21z" />
    <glyph glyph-name="Imacron.smcp" horiz-adv-x="169" 
d="M74 0v525h21v-525h-21zM-4 606h177v-20h-177v20z" />
    <glyph glyph-name="Iogonek.smcp" horiz-adv-x="169" 
d="M89 -125c-26 0 -50 17 -50 57c0 44 30 71 35 75v518h21v-525h-11c-9 -11 -26 -35 -26 -68c0 -26 12 -39 32 -39c25 0 37 22 37 22l7 -11s-10 -29 -45 -29z" />
    <glyph glyph-name="Itilde.smcp" horiz-adv-x="169" 
d="M74 0v525h21v-525h-21zM35 652c50 0 59 -49 102 -49c44 0 60 50 60 50l15 -9s-21 -60 -76 -60c-50 0 -60 49 -102 49c-43 0 -60 -50 -60 -50l-17 9s24 60 78 60z" />
    <glyph glyph-name="IJ.smcp" horiz-adv-x="409" 
d="M154 15h18c78 0 133 54 133 131v379h21v-379c0 -89 -63 -150 -154 -150h-18v19zM74 0v525h21v-525h-21z" />
    <glyph glyph-name="J.smcp" horiz-adv-x="240" 
d="M1 15h18c78 0 133 54 133 131v379h21v-379c0 -89 -63 -150 -154 -150h-18v19z" />
    <glyph glyph-name="Jcircumflex.smcp" horiz-adv-x="240" 
d="M1 15h18c78 0 133 54 133 131v379h21v-379c0 -89 -63 -150 -154 -150h-18v19zM48 595l109 79l109 -79l-5 -11l-104 67l-103 -67z" />
    <glyph glyph-name="K.smcp" horiz-adv-x="382" 
d="M74 0v525h21v-525h-21zM334 0l-213 272l203 253h26l-203 -253l213 -272h-26z" />
    <glyph glyph-name="Kcommaaccent.smcp" horiz-adv-x="382" 
d="M74 0v525h21v-525h-21zM334 0l-213 272l203 253h26l-203 -253l213 -272h-26zM164 -157l29 120h25l-42 -124z" />
    <glyph glyph-name="L.smcp" horiz-adv-x="355" 
d="M74 0v525h21v-505h218v-20h-239z" />
    <glyph glyph-name="Lacute.smcp" horiz-adv-x="355" 
d="M74 0v525h21v-505h218v-20h-239zM38 592l139 79l11 -16l-144 -74z" />
    <glyph glyph-name="Lcaron.smcp" horiz-adv-x="355" 
d="M74 0v525h21v-505h218v-20h-239zM219 365l24 160h23l-34 -163z" />
    <glyph glyph-name="Lcommaaccent.smcp" horiz-adv-x="355" 
d="M74 0v525h21v-505h218v-20h-239zM150 -157l29 120h24l-41 -124z" />
    <glyph glyph-name="Ldot.smcp" horiz-adv-x="355" 
d="M74 0v525h21v-505h218v-20h-239zM237 238v80h30v-80h-30z" />
    <glyph glyph-name="Lslash.smcp" horiz-adv-x="363" 
d="M27 186l56 48v291h20v-274l75 65l11 -13l-86 -74v-209h218v-20h-238v211l-45 -38z" />
    <glyph glyph-name="M.smcp" horiz-adv-x="520" 
d="M95 0h-21v525h20l165 -387l167 387h20v-525h-20v477l-159 -372h-15l-157 367v-472z" />
    <glyph glyph-name="N.smcp" horiz-adv-x="453" 
d="M95 0h-21v525h21l264 -484v484h20v-525h-20l-264 482v-482z" />
    <glyph glyph-name="Nacute.smcp" horiz-adv-x="453" 
d="M95 0h-21v525h21l264 -484v484h20v-525h-20l-264 482v-482zM159 592l139 79l10 -16l-144 -74z" />
    <glyph glyph-name="Ncaron.smcp" horiz-adv-x="453" 
d="M95 0h-21v525h21l264 -484v484h20v-525h-20l-264 482v-482zM335 660l-109 -79l-110 79l6 11l104 -67l103 67z" />
    <glyph glyph-name="Ncommaaccent.smcp" horiz-adv-x="453" 
d="M95 0h-21v525h21l264 -484v484h20v-525h-20l-264 482v-482zM198 -157l29 120h25l-42 -124z" />
    <glyph glyph-name="Ntilde.smcp" horiz-adv-x="453" 
d="M95 0h-21v525h21l264 -484v484h20v-525h-20l-264 482v-482zM175 652c51 0 59 -49 102 -49c44 0 60 50 60 50l16 -9s-22 -60 -77 -60c-50 0 -60 49 -102 49c-43 0 -60 -50 -60 -50l-17 9s24 60 78 60z" />
    <glyph glyph-name="Eng.smcp" horiz-adv-x="453" 
d="M95 0h-21v525h21l263 -482v482h21v-533c0 -89 -63 -150 -154 -150h-19v20h19c78 0 133 53 133 131v10l-263 479v-482z" />
    <glyph glyph-name="O.smcp" horiz-adv-x="437" 
d="M371 131c0 -80 -63 -135 -152 -135c-90 0 -152 55 -152 135v263c0 80 62 135 152 135c89 0 152 -55 152 -135v-263zM350 130v265c0 68 -54 115 -131 115s-131 -47 -131 -115v-265c0 -68 54 -115 131 -115s131 48 131 115z" />
    <glyph glyph-name="Oacute.smcp" horiz-adv-x="437" 
d="M151 592l139 79l10 -16l-143 -74zM371 131c0 -80 -63 -135 -152 -135c-90 0 -152 55 -152 135v263c0 80 62 135 152 135c89 0 152 -55 152 -135v-263zM350 130v265c0 68 -54 115 -131 115s-131 -47 -131 -115v-265c0 -68 54 -115 131 -115s131 48 131 115z" />
    <glyph glyph-name="Obreve.smcp" horiz-adv-x="437" 
d="M301 681h20c0 -66 -42 -101 -102 -101c-61 0 -103 35 -103 101h20c0 -53 33 -81 83 -81c48 0 82 28 82 81zM371 131c0 -80 -63 -135 -152 -135c-90 0 -152 55 -152 135v263c0 80 62 135 152 135c89 0 152 -55 152 -135v-263zM350 130v265c0 68 -54 115 -131 115
s-131 -47 -131 -115v-265c0 -68 54 -115 131 -115s131 48 131 115z" />
    <glyph glyph-name="Ocircumflex.smcp" horiz-adv-x="437" 
d="M371 131c0 -80 -63 -135 -152 -135c-90 0 -152 55 -152 135v263c0 80 62 135 152 135c89 0 152 -55 152 -135v-263zM350 130v265c0 68 -54 115 -131 115s-131 -47 -131 -115v-265c0 -68 54 -115 131 -115s131 48 131 115zM109 592l110 79l109 -79l-6 -11l-103 67
l-104 -67z" />
    <glyph glyph-name="Odieresis.smcp" horiz-adv-x="437" 
d="M371 131c0 -80 -63 -135 -152 -135c-90 0 -152 55 -152 135v263c0 80 62 135 152 135c89 0 152 -55 152 -135v-263zM350 130v265c0 68 -54 115 -131 115s-131 -47 -131 -115v-265c0 -68 54 -115 131 -115s131 48 131 115zM135 584v51h20v-51h-20zM282 584v51h20v-51h-20z
" />
    <glyph glyph-name="Ograve.smcp" horiz-adv-x="437" 
d="M146 671l139 -79l-6 -11l-144 74zM371 131c0 -80 -63 -135 -152 -135c-90 0 -152 55 -152 135v263c0 80 62 135 152 135c89 0 152 -55 152 -135v-263zM350 130v265c0 68 -54 115 -131 115s-131 -47 -131 -115v-265c0 -68 54 -115 131 -115s131 48 131 115z" />
    <glyph glyph-name="Ohungarumlaut.smcp" horiz-adv-x="437" 
d="M371 131c0 -80 -63 -135 -152 -135c-90 0 -152 55 -152 135v263c0 80 62 135 152 135c89 0 152 -55 152 -135v-263zM350 130v265c0 68 -54 115 -131 115s-131 -47 -131 -115v-265c0 -68 54 -115 131 -115s131 48 131 115zM108 589l90 102l15 -12l-96 -99zM202 588l128 97
l13 -14l-134 -93z" />
    <glyph glyph-name="Omacron.smcp" horiz-adv-x="437" 
d="M371 131c0 -80 -63 -135 -152 -135c-90 0 -152 55 -152 135v263c0 80 62 135 152 135c89 0 152 -55 152 -135v-263zM350 130v265c0 68 -54 115 -131 115s-131 -47 -131 -115v-265c0 -68 54 -115 131 -115s131 48 131 115zM130 606h177v-20h-177v20z" />
    <glyph glyph-name="Oslash.smcp" horiz-adv-x="437" 
d="M63 -4l30 55c-17 21 -26 49 -26 80v263c0 80 62 135 152 135c46 0 86 -15 113 -41l23 41h20l-30 -55c16 -22 26 -49 26 -80v-263c0 -80 -63 -135 -152 -135c-48 0 -87 15 -114 41l-22 -41h-20zM87 130c0 -23 5 -43 16 -60l219 399c-23 26 -59 41 -103 41
c-78 0 -132 -47 -132 -115v-265zM350 130v265c0 22 -6 42 -16 59l-219 -399c24 -25 60 -40 104 -40c77 0 131 48 131 115z" />
    <glyph glyph-name="Oslashacute.smcp" horiz-adv-x="437" 
d="M63 -4l30 55c-17 21 -26 49 -26 80v263c0 80 62 135 152 135c46 0 86 -15 113 -41l23 41h20l-30 -55c16 -22 26 -49 26 -80v-263c0 -80 -63 -135 -152 -135c-48 0 -87 15 -114 41l-22 -41h-20zM87 130c0 -23 5 -43 16 -60l219 399c-23 26 -59 41 -103 41
c-78 0 -132 -47 -132 -115v-265zM350 130v265c0 22 -6 42 -16 59l-219 -399c24 -25 60 -40 104 -40c77 0 131 48 131 115zM151 592l139 79l10 -16l-143 -74z" />
    <glyph glyph-name="Otilde.smcp" horiz-adv-x="437" 
d="M371 131c0 -80 -63 -135 -152 -135c-90 0 -152 55 -152 135v263c0 80 62 135 152 135c89 0 152 -55 152 -135v-263zM350 130v265c0 68 -54 115 -131 115s-131 -47 -131 -115v-265c0 -68 54 -115 131 -115s131 48 131 115zM169 652c50 0 59 -49 102 -49s60 50 60 50l15 -9
s-22 -60 -76 -60c-50 0 -61 49 -103 49c-43 0 -59 -50 -59 -50l-17 9s23 60 78 60z" />
    <glyph glyph-name="OE.smcp" horiz-adv-x="630" 
d="M351 0v60c-26 -40 -73 -64 -132 -64c-90 0 -152 55 -152 135v263c0 80 62 135 152 135c59 0 106 -25 132 -64v60h238v-19h-217v-237h198v-19h-198v-230h217v-20h-238zM350 130v265c0 68 -54 115 -131 115s-131 -47 -131 -115v-265c0 -68 54 -115 131 -115s131 48 131 115
z" />
    <glyph glyph-name="P.smcp" horiz-adv-x="408" 
d="M210 231h-115v-231h-21v525h136c89 0 147 -55 147 -135v-24c0 -80 -58 -135 -147 -135zM209 506h-114v-256h114c78 0 127 47 127 115v26c0 68 -49 115 -127 115z" />
    <glyph glyph-name="Q.smcp" horiz-adv-x="438" 
d="M375 -80l-70 97c-24 -13 -53 -21 -86 -21c-90 0 -152 55 -152 135v263c0 80 62 135 152 135c89 0 152 -55 152 -135v-263c0 -44 -19 -79 -50 -103l69 -97zM350 130v265c0 68 -54 115 -131 115s-131 -47 -131 -115v-265c0 -68 54 -115 131 -115s131 48 131 115z" />
    <glyph glyph-name="R.smcp" horiz-adv-x="416" 
d="M95 231v-231h-21v525h129c89 0 147 -55 147 -135v-24c0 -70 -44 -121 -114 -133l131 -233h-21l-130 231h-121zM202 506h-107v-256h107c78 0 127 47 127 115v26c0 68 -49 115 -127 115z" />
    <glyph glyph-name="Racute.smcp" horiz-adv-x="416" 
d="M95 231v-231h-21v525h129c89 0 147 -55 147 -135v-24c0 -70 -44 -121 -114 -133l131 -233h-21l-130 231h-121zM202 506h-107v-256h107c78 0 127 47 127 115v26c0 68 -49 115 -127 115zM141 592l138 79l11 -16l-144 -74z" />
    <glyph glyph-name="Rcaron.smcp" horiz-adv-x="416" 
d="M95 231v-231h-21v525h129c89 0 147 -55 147 -135v-24c0 -70 -44 -121 -114 -133l131 -233h-21l-130 231h-121zM202 506h-107v-256h107c78 0 127 47 127 115v26c0 68 -49 115 -127 115zM317 660l-109 -79l-110 79l6 11l104 -67l103 67z" />
    <glyph glyph-name="Rcommaaccent.smcp" horiz-adv-x="416" 
d="M95 231v-231h-21v525h129c89 0 147 -55 147 -135v-24c0 -70 -44 -121 -114 -133l131 -233h-21l-130 231h-121zM202 506h-107v-256h107c78 0 127 47 127 115v26c0 68 -49 115 -127 115zM181 -157l29 120h24l-42 -124z" />
    <glyph glyph-name="S.smcp" horiz-adv-x="389" 
d="M310 378v17c0 67 -49 115 -118 115c-68 0 -116 -44 -116 -109c0 -43 22 -78 57 -96l139 -70c40 -21 66 -61 66 -110c0 -77 -60 -129 -144 -129c-87 0 -146 55 -146 135v20h20v-20c0 -68 51 -116 126 -116c71 0 123 44 123 110c0 41 -21 76 -58 95l-137 69
c-42 21 -67 62 -67 112c0 76 57 128 137 128c82 0 139 -55 139 -134v-17h-21z" />
    <glyph glyph-name="Sacute.smcp" horiz-adv-x="389" 
d="M128 592l138 79l11 -16l-144 -74zM310 378v17c0 67 -49 115 -118 115c-68 0 -116 -44 -116 -109c0 -43 22 -78 57 -96l139 -70c40 -21 66 -61 66 -110c0 -77 -60 -129 -144 -129c-87 0 -146 55 -146 135v20h20v-20c0 -68 51 -116 126 -116c71 0 123 44 123 110
c0 41 -21 76 -58 95l-137 69c-42 21 -67 62 -67 112c0 76 57 128 137 128c82 0 139 -55 139 -134v-17h-21z" />
    <glyph glyph-name="Scaron.smcp" horiz-adv-x="389" 
d="M304 660l-109 -79l-110 79l6 11l104 -67l103 67zM310 378v17c0 67 -49 115 -118 115c-68 0 -116 -44 -116 -109c0 -43 22 -78 57 -96l139 -70c40 -21 66 -61 66 -110c0 -77 -60 -129 -144 -129c-87 0 -146 55 -146 135v20h20v-20c0 -68 51 -116 126 -116
c71 0 123 44 123 110c0 41 -21 76 -58 95l-137 69c-42 21 -67 62 -67 112c0 76 57 128 137 128c82 0 139 -55 139 -134v-17h-21z" />
    <glyph glyph-name="Scedilla.smcp" horiz-adv-x="389" 
d="M310 378v17c0 67 -49 115 -118 115c-68 0 -116 -44 -116 -109c0 -43 22 -78 57 -96l139 -70c40 -21 66 -61 66 -110c0 -74 -55 -124 -133 -128l-4 -32c27 0 46 -18 46 -46c0 -29 -22 -45 -50 -45c-35 0 -56 25 -56 25l8 15s20 -20 48 -20c18 0 30 8 30 24
c0 24 -24 32 -47 32l6 46c-83 3 -138 57 -138 135v20h20v-20c0 -68 51 -116 126 -116c71 0 123 44 123 110c0 41 -21 76 -58 95l-137 69c-42 21 -67 62 -67 112c0 76 57 128 137 128c82 0 139 -55 139 -134v-17h-21z" />
    <glyph glyph-name="Scircumflex.smcp" horiz-adv-x="389" 
d="M310 378v17c0 67 -49 115 -118 115c-68 0 -116 -44 -116 -109c0 -43 22 -78 57 -96l139 -70c40 -21 66 -61 66 -110c0 -77 -60 -129 -144 -129c-87 0 -146 55 -146 135v20h20v-20c0 -68 51 -116 126 -116c71 0 123 44 123 110c0 41 -21 76 -58 95l-137 69
c-42 21 -67 62 -67 112c0 76 57 128 137 128c82 0 139 -55 139 -134v-17h-21zM85 592l110 79l109 -79l-6 -11l-103 67l-104 -67z" />
    <glyph glyph-name="Scommaaccent.smcp" horiz-adv-x="389" 
d="M310 378v17c0 67 -49 115 -118 115c-68 0 -116 -44 -116 -109c0 -43 22 -78 57 -96l139 -70c40 -21 66 -61 66 -110c0 -77 -60 -129 -144 -129c-87 0 -146 55 -146 135v20h20v-20c0 -68 51 -116 126 -116c71 0 123 44 123 110c0 41 -21 76 -58 95l-137 69
c-42 21 -67 62 -67 112c0 76 57 128 137 128c82 0 139 -55 139 -134v-17h-21zM154 -157l29 120h25l-42 -124z" />
    <glyph glyph-name="T.smcp" horiz-adv-x="378" 
d="M355 525v-19h-156v-506h-20v506h-156v19h332z" />
    <glyph glyph-name="Tbar.smcp" horiz-adv-x="378" 
d="M310 294v-18h-111v-276h-20v276h-112v18h112v212h-156v19h332v-19h-156v-212h111z" />
    <glyph glyph-name="Tcaron.smcp" horiz-adv-x="379" 
d="M355 525v-19h-156v-506h-20v506h-156v19h332zM299 660l-109 -79l-109 79l5 11l104 -67l103 67z" />
    <glyph glyph-name="Tcommaaccent.smcp" horiz-adv-x="378" 
d="M355 525v-19h-156v-506h-20v506h-156v19h332zM154 -157l29 120h25l-42 -124z" />
    <glyph glyph-name="uni021A.smcp" horiz-adv-x="378" 
d="M355 525v-19h-156v-506h-20v506h-156v19h332zM154 -157l29 120h25l-42 -124z" />
    <glyph glyph-name="U.smcp" horiz-adv-x="437" 
d="M350 525h21v-394c0 -80 -63 -135 -152 -135c-90 0 -152 55 -152 135v394h21v-395c0 -68 54 -115 131 -115s131 48 131 115v395z" />
    <glyph glyph-name="Uacute.smcp" horiz-adv-x="437" 
d="M152 592l138 79l11 -16l-144 -74zM350 525h21v-394c0 -80 -63 -135 -152 -135c-90 0 -152 55 -152 135v394h21v-395c0 -68 54 -115 131 -115s131 48 131 115v395z" />
    <glyph glyph-name="Ubreve.smcp" horiz-adv-x="437" 
d="M302 681h19c0 -66 -42 -101 -102 -101c-61 0 -103 35 -103 101h20c0 -53 34 -81 83 -81c48 0 83 28 83 81zM350 525h21v-394c0 -80 -63 -135 -152 -135c-90 0 -152 55 -152 135v394h21v-395c0 -68 54 -115 131 -115s131 48 131 115v395z" />
    <glyph glyph-name="Ucircumflex.smcp" horiz-adv-x="437" 
d="M350 525h21v-394c0 -80 -63 -135 -152 -135c-90 0 -152 55 -152 135v394h21v-395c0 -68 54 -115 131 -115s131 48 131 115v395zM109 592l110 79l109 -79l-6 -11l-103 67l-104 -67z" />
    <glyph glyph-name="Udieresis.smcp" horiz-adv-x="437" 
d="M350 525h21v-394c0 -80 -63 -135 -152 -135c-90 0 -152 55 -152 135v394h21v-395c0 -68 54 -115 131 -115s131 48 131 115v395zM135 584v51h20v-51h-20zM282 584v51h20v-51h-20z" />
    <glyph glyph-name="Ugrave.smcp" horiz-adv-x="437" 
d="M147 671l139 -79l-6 -11l-144 74zM350 525h21v-394c0 -80 -63 -135 -152 -135c-90 0 -152 55 -152 135v394h21v-395c0 -68 54 -115 131 -115s131 48 131 115v395z" />
    <glyph glyph-name="Uhungarumlaut.smcp" horiz-adv-x="437" 
d="M350 525h21v-394c0 -80 -63 -135 -152 -135c-90 0 -152 55 -152 135v394h21v-395c0 -68 54 -115 131 -115s131 48 131 115v395zM109 589l89 102l16 -12l-96 -99zM203 588l127 97l14 -14l-134 -93z" />
    <glyph glyph-name="Umacron.smcp" horiz-adv-x="437" 
d="M350 525h21v-394c0 -80 -63 -135 -152 -135c-90 0 -152 55 -152 135v394h21v-395c0 -68 54 -115 131 -115s131 48 131 115v395zM130 606h177v-20h-177v20z" />
    <glyph glyph-name="Uogonek.smcp" horiz-adv-x="437" 
d="M254 -125c-26 0 -49 17 -49 57c0 29 13 52 23 64h-9c-90 0 -152 55 -152 135v394h21v-395c0 -68 54 -115 131 -115s131 48 131 115v395h21v-394c0 -71 -50 -123 -123 -133c-10 -12 -25 -35 -25 -66c0 -26 12 -39 32 -39c26 0 37 22 37 22l8 -11s-11 -29 -46 -29z" />
    <glyph glyph-name="Uring.smcp" horiz-adv-x="437" 
d="M154 642c0 35 28 63 63 63s64 -28 64 -63s-29 -64 -64 -64s-63 29 -63 64zM173 642c0 -25 19 -45 44 -45s45 20 45 45s-20 44 -45 44s-44 -19 -44 -44zM350 525h21v-394c0 -80 -63 -135 -152 -135c-90 0 -152 55 -152 135v394h21v-395c0 -68 54 -115 131 -115
s131 48 131 115v395z" />
    <glyph glyph-name="Utilde.smcp" horiz-adv-x="437" 
d="M350 525h21v-394c0 -80 -63 -135 -152 -135c-90 0 -152 55 -152 135v394h21v-395c0 -68 54 -115 131 -115s131 48 131 115v395zM168 652c50 0 59 -49 102 -49c44 0 60 50 60 50l15 -9s-21 -60 -76 -60c-50 0 -60 49 -102 49c-43 0 -60 -50 -60 -50l-17 9s24 60 78 60z
" />
    <glyph glyph-name="V.smcp" horiz-adv-x="404" 
d="M355 525h23l-165 -525h-22l-165 525h21l155 -493z" />
    <glyph glyph-name="W.smcp" horiz-adv-x="568" 
d="M528 525h21l-127 -525h-22l-116 489l-116 -489h-21l-128 525h21l117 -486l116 486h22l116 -488z" />
    <glyph glyph-name="Wacute.smcp" horiz-adv-x="568" 
d="M528 525h21l-127 -525h-22l-116 489l-116 -489h-21l-128 525h21l117 -486l116 486h22l116 -488zM217 592l139 79l10 -16l-143 -74z" />
    <glyph glyph-name="Wcircumflex.smcp" horiz-adv-x="568" 
d="M528 525h21l-127 -525h-22l-116 489l-116 -489h-21l-128 525h21l117 -486l116 486h22l116 -488zM174 592l110 79l109 -79l-6 -11l-103 67l-104 -67z" />
    <glyph glyph-name="Wdieresis.smcp" horiz-adv-x="568" 
d="M528 525h21l-127 -525h-22l-116 489l-116 -489h-21l-128 525h21l117 -486l116 486h22l116 -488zM200 584v51h20v-51h-20zM347 584v51h20v-51h-20z" />
    <glyph glyph-name="Wgrave.smcp" horiz-adv-x="568" 
d="M528 525h21l-127 -525h-22l-116 489l-116 -489h-21l-128 525h21l117 -486l116 486h22l116 -488zM212 671l139 -79l-6 -11l-144 74z" />
    <glyph glyph-name="X.smcp" horiz-adv-x="381" 
d="M323 525h24l-144 -254l155 -271h-25l-143 251l-143 -251h-25l155 271l-144 254h25l132 -234z" />
    <glyph glyph-name="Y.smcp" horiz-adv-x="367" 
d="M172 0v223l-157 302h22l146 -283l146 283h23l-159 -302v-223h-21z" />
    <glyph glyph-name="Yacute.smcp" horiz-adv-x="367" 
d="M172 0v223l-157 302h22l146 -283l146 283h23l-159 -302v-223h-21zM116 592l139 79l11 -16l-144 -74z" />
    <glyph glyph-name="Ycircumflex.smcp" horiz-adv-x="367" 
d="M172 0v223l-157 302h22l146 -283l146 283h23l-159 -302v-223h-21zM75 592l109 79l109 -79l-6 -11l-103 67l-104 -67z" />
    <glyph glyph-name="Ydieresis.smcp" horiz-adv-x="367" 
d="M172 0v223l-157 302h22l146 -283l146 283h23l-159 -302v-223h-21zM247 584v51h20v-51h-20zM100 584v51h20v-51h-20z" />
    <glyph glyph-name="Ygrave.smcp" horiz-adv-x="367" 
d="M172 0v223l-157 302h22l146 -283l146 283h23l-159 -302v-223h-21zM112 671l139 -79l-6 -11l-144 74z" />
    <glyph glyph-name="Z.smcp" horiz-adv-x="362" 
d="M44 506v19h281v-18l-259 -487h259v-20h-285v18l260 488h-256z" />
    <glyph glyph-name="Zacute.smcp" horiz-adv-x="362" 
d="M44 506v19h281v-18l-259 -487h259v-20h-285v18l260 488h-256zM113 592l139 79l10 -16l-143 -74z" />
    <glyph glyph-name="Zcaron.smcp" horiz-adv-x="362" 
d="M44 506v19h281v-18l-259 -487h259v-20h-285v18l260 488h-256zM291 660l-109 -79l-110 79l6 11l104 -67l103 67z" />
    <glyph glyph-name="Zdotaccent.smcp" horiz-adv-x="362" 
d="M44 506v19h281v-18l-259 -487h259v-20h-285v18l260 488h-256zM171 591v51h20v-51h-20z" />
    <glyph glyph-name="uni018F.smcp" horiz-adv-x="430" 
d="M67 131v134h283v130c0 68 -54 115 -131 115s-131 -47 -131 -115v-26h-21v25c0 80 62 135 152 135c89 0 152 -55 152 -135v-263c0 -80 -63 -135 -152 -135c-90 0 -152 55 -152 135zM88 245v-115c0 -67 54 -115 131 -115s131 47 131 115v115h-262z" />
    <glyph glyph-name="a" unicode="a" horiz-adv-x="463" 
d="M93 355h-20v30c0 88 65 150 156 150c92 0 156 -62 156 -150v-385h-20v77c-26 -51 -82 -82 -152 -82c-91 0 -150 54 -150 130v30c0 76 66 119 160 125l142 9v96c0 76 -57 130 -136 130s-136 -54 -136 -130v-30zM214 15c83 0 148 51 151 124v130l-142 -9
c-91 -6 -140 -46 -140 -105v-30c0 -64 51 -110 131 -110z" />
    <glyph glyph-name="aacute" unicode="&#xe1;" horiz-adv-x="463" 
d="M93 355h-20v30c0 88 65 150 156 150c92 0 156 -62 156 -150v-385h-20v77c-26 -51 -82 -82 -152 -82c-91 0 -150 54 -150 130v30c0 76 66 119 160 125l142 9v96c0 76 -57 130 -136 130s-136 -54 -136 -130v-30zM365 145v124l-142 -9c-91 -6 -140 -46 -140 -105v-30
c0 -64 51 -110 131 -110c85 0 151 54 151 130zM166 624l139 79l11 -16l-144 -74z" />
    <glyph glyph-name="abreve" unicode="&#x103;" horiz-adv-x="463" 
d="M93 355h-20v30c0 88 65 150 156 150c92 0 156 -62 156 -150v-385h-20v77c-26 -51 -82 -82 -152 -82c-91 0 -150 54 -150 130v30c0 76 66 119 160 125l142 9v96c0 76 -57 130 -136 130s-136 -54 -136 -130v-30zM365 145v124l-142 -9c-91 -6 -140 -46 -140 -105v-30
c0 -64 51 -110 131 -110c85 0 151 54 151 130zM314 714h20c0 -66 -43 -101 -103 -101s-103 35 -103 101h20c0 -53 34 -81 83 -81c48 0 83 28 83 81z" />
    <glyph glyph-name="acircumflex" unicode="&#xe2;" horiz-adv-x="463" 
d="M93 355h-20v30c0 88 65 150 156 150c92 0 156 -62 156 -150v-385h-20v77c-26 -51 -82 -82 -152 -82c-91 0 -150 54 -150 130v30c0 76 66 119 160 125l142 9v96c0 76 -57 130 -136 130s-136 -54 -136 -130v-30zM214 15c83 0 148 51 151 124v130l-142 -9
c-91 -6 -140 -46 -140 -105v-30c0 -64 51 -110 131 -110zM122 624l109 79l109 -79l-5 -11l-104 67l-104 -67z" />
    <glyph glyph-name="adieresis" unicode="&#xe4;" horiz-adv-x="463" 
d="M93 355h-20v30c0 88 65 150 156 150c92 0 156 -62 156 -150v-385h-20v77c-26 -51 -82 -82 -152 -82c-91 0 -150 54 -150 130v30c0 76 66 119 160 125l142 9v96c0 76 -57 130 -136 130s-136 -54 -136 -130v-30zM365 145v124l-142 -9c-91 -6 -140 -46 -140 -105v-30
c0 -64 51 -110 131 -110c85 0 151 54 151 130zM147 613v51h20v-51h-20zM294 613v51h20v-51h-20z" />
    <glyph glyph-name="agrave" unicode="&#xe0;" horiz-adv-x="463" 
d="M93 355h-20v30c0 88 65 150 156 150c92 0 156 -62 156 -150v-385h-20v77c-26 -51 -82 -82 -152 -82c-91 0 -150 54 -150 130v30c0 76 66 119 160 125l142 9v96c0 76 -57 130 -136 130s-136 -54 -136 -130v-30zM214 15c83 0 148 51 151 124v130l-142 -9
c-91 -6 -140 -46 -140 -105v-30c0 -64 51 -110 131 -110zM157 703l139 -79l-5 -11l-144 74z" />
    <glyph glyph-name="amacron" unicode="&#x101;" horiz-adv-x="463" 
d="M93 355h-20v30c0 88 65 150 156 150c92 0 156 -62 156 -150v-385h-20v77c-26 -51 -82 -82 -152 -82c-91 0 -150 54 -150 130v30c0 76 66 119 160 125l142 9v96c0 76 -57 130 -136 130s-136 -54 -136 -130v-30zM365 145v124l-142 -9c-91 -6 -140 -46 -140 -105v-30
c0 -64 51 -110 131 -110c85 0 151 54 151 130zM142 633h178v-20h-178v20z" />
    <glyph glyph-name="aogonek" unicode="&#x105;" horiz-adv-x="463" 
d="M381 -133c-26 0 -50 17 -50 57c0 44 30 73 34 76v77c-26 -51 -82 -82 -152 -82c-91 0 -150 54 -150 130v30c0 76 66 119 160 125l142 9v96c0 76 -57 130 -136 130s-136 -54 -136 -130v-30h-20v30c0 88 65 150 156 150c92 0 156 -62 156 -150v-385h-2s-33 -32 -33 -76
c0 -26 12 -39 31 -39c26 0 38 22 38 22l7 -11s-10 -29 -45 -29zM365 145v124l-142 -9c-91 -6 -140 -46 -140 -105v-30c0 -64 51 -110 131 -110c85 0 151 54 151 130z" />
    <glyph glyph-name="aring" unicode="&#xe5;" horiz-adv-x="463" 
d="M93 355h-20v30c0 88 65 150 156 150c92 0 156 -62 156 -150v-385h-20v77c-26 -51 -82 -82 -152 -82c-91 0 -150 54 -150 130v30c0 76 66 119 160 125l142 9v96c0 76 -57 130 -136 130s-136 -54 -136 -130v-30zM214 15c83 0 148 51 151 124v130l-142 -9
c-91 -6 -140 -46 -140 -105v-30c0 -64 51 -110 131 -110zM166 677c0 35 28 63 63 63s64 -28 64 -63s-29 -64 -64 -64s-63 29 -63 64zM185 677c0 -25 19 -45 44 -45s45 20 45 45s-20 44 -45 44s-44 -19 -44 -44z" />
    <glyph glyph-name="atilde" unicode="&#xe3;" horiz-adv-x="463" 
d="M93 355h-20v30c0 88 65 150 156 150c92 0 156 -62 156 -150v-385h-20v77c-26 -51 -82 -82 -152 -82c-91 0 -150 54 -150 130v30c0 76 66 119 160 125l142 9v96c0 76 -57 130 -136 130s-136 -54 -136 -130v-30zM365 145v124l-142 -9c-91 -6 -140 -46 -140 -105v-30
c0 -64 51 -110 131 -110c85 0 151 54 151 130zM181 682c50 0 59 -49 102 -49c44 0 60 50 60 50l15 -9s-21 -60 -76 -60c-50 0 -60 49 -103 49c-42 0 -59 -50 -59 -50l-17 9s23 60 78 60z" />
    <glyph glyph-name="ae" unicode="&#xe6;" horiz-adv-x="766" 
d="M703 265h-312v-120c0 -76 60 -130 145 -130c86 0 147 54 147 130v20h20v-20c0 -88 -69 -150 -167 -150c-78 0 -138 40 -158 102c-20 -62 -81 -102 -160 -102c-92 0 -150 54 -150 130v30c0 76 66 114 159 120l143 9v101c0 76 -57 130 -136 130c-80 0 -136 -54 -136 -130
v-30h-20v30c0 88 64 150 156 150c70 0 125 -38 146 -96c22 58 80 96 156 96c98 0 167 -62 167 -150v-120zM683 285v100c0 76 -61 130 -147 130c-85 0 -145 -54 -145 -130v-100h292zM370 145v119l-143 -9c-90 -6 -139 -41 -139 -100v-30c0 -64 51 -110 130 -110
c86 0 152 54 152 130z" />
    <glyph glyph-name="aeacute" unicode="&#x1fd;" horiz-adv-x="766" 
d="M703 265h-312v-120c0 -76 60 -130 145 -130c86 0 147 54 147 130v20h20v-20c0 -88 -69 -150 -167 -150c-78 0 -138 40 -158 102c-20 -62 -81 -102 -160 -102c-92 0 -150 54 -150 130v30c0 76 66 114 159 120l143 9v101c0 76 -57 130 -136 130c-80 0 -136 -54 -136 -130
v-30h-20v30c0 88 64 150 156 150c70 0 125 -38 146 -96c22 58 80 96 156 96c98 0 167 -62 167 -150v-120zM683 285v100c0 76 -61 130 -147 130c-85 0 -145 -54 -145 -130v-100h292zM218 15c84 0 149 51 152 124v125l-143 -9c-90 -6 -139 -41 -139 -100v-30
c0 -64 51 -110 130 -110zM317 624l139 79l11 -16l-144 -74z" />
    <glyph glyph-name="b" unicode="b" horiz-adv-x="468" 
d="M78 0v700h20v-245c24 49 76 80 145 80c93 0 157 -58 157 -140v-260c0 -82 -64 -140 -157 -140c-69 0 -121 31 -145 80v-75h-20zM243 15c80 0 137 50 137 120v260c0 70 -57 120 -137 120c-83 0 -142 -52 -145 -125v-245c0 -76 60 -130 145 -130z" />
    <glyph glyph-name="c" unicode="c" horiz-adv-x="458" 
d="M380 355v30c0 76 -60 130 -146 130s-146 -54 -146 -130v-240c0 -76 60 -130 146 -130s146 54 146 130v30h20v-30c0 -88 -69 -150 -166 -150s-166 62 -166 150v240c0 88 69 150 166 150s166 -62 166 -150v-30h-20z" />
    <glyph glyph-name="cacute" unicode="&#x107;" horiz-adv-x="458" 
d="M380 355v30c0 76 -60 130 -146 130s-146 -54 -146 -130v-240c0 -76 60 -130 146 -130s146 54 146 130v30h20v-30c0 -88 -69 -150 -166 -150s-166 62 -166 150v240c0 88 69 150 166 150s166 -62 166 -150v-30h-20zM163 624l139 79l11 -16l-144 -74z" />
    <glyph glyph-name="ccaron" unicode="&#x10d;" horiz-adv-x="458" 
d="M380 355v30c0 76 -60 130 -146 130s-146 -54 -146 -130v-240c0 -76 60 -130 146 -130s146 54 146 130v30h20v-30c0 -88 -69 -150 -166 -150s-166 62 -166 150v240c0 88 69 150 166 150s166 -62 166 -150v-30h-20zM338 692l-109 -79l-109 79l5 11l104 -67l103 67z" />
    <glyph glyph-name="ccedilla" unicode="&#xe7;" horiz-adv-x="458" 
d="M380 355v30c0 76 -60 130 -146 130s-146 -54 -146 -130v-240c0 -76 60 -130 146 -130s146 54 146 130v30h20v-30c0 -86 -66 -147 -159 -150l-6 -37c27 0 46 -18 46 -46c0 -29 -21 -45 -50 -45c-35 0 -55 25 -55 25l7 15s20 -20 48 -20c19 0 30 8 30 24
c0 24 -24 32 -47 32l8 53c-91 4 -154 64 -154 149v240c0 88 69 150 166 150s166 -62 166 -150v-30h-20z" />
    <glyph glyph-name="ccircumflex" unicode="&#x109;" horiz-adv-x="458" 
d="M380 355v30c0 76 -60 130 -146 130s-146 -54 -146 -130v-240c0 -76 60 -130 146 -130s146 54 146 130v30h20v-30c0 -88 -69 -150 -166 -150s-166 62 -166 150v240c0 88 69 150 166 150s166 -62 166 -150v-30h-20zM120 624l109 79l109 -79l-6 -11l-103 67l-104 -67z" />
    <glyph glyph-name="cdotaccent" unicode="&#x10b;" horiz-adv-x="458" 
d="M380 355v30c0 76 -60 130 -146 130s-146 -54 -146 -130v-240c0 -76 60 -130 146 -130s146 54 146 130v30h20v-30c0 -88 -69 -150 -166 -150s-166 62 -166 150v240c0 88 69 150 166 150s166 -62 166 -150v-30h-20zM219 623v51h20v-51h-20z" />
    <glyph glyph-name="d" unicode="d" horiz-adv-x="468" 
d="M390 0h-20v75c-25 -49 -77 -80 -145 -80c-92 0 -157 58 -157 140v260c0 82 65 140 157 140c68 0 120 -31 145 -80v245h20v-700zM225 15c85 0 145 54 145 130v245c-3 73 -62 125 -145 125c-80 0 -137 -50 -137 -120v-260c0 -70 57 -120 137 -120z" />
    <glyph glyph-name="dcaron" unicode="&#x10f;" horiz-adv-x="525" 
d="M390 0h-20v75c-25 -49 -77 -80 -145 -80c-92 0 -157 58 -157 140v260c0 82 65 140 157 140c68 0 120 -31 145 -80v245h20v-700zM225 15c85 0 145 54 145 130v245c-3 73 -62 125 -145 125c-80 0 -137 -50 -137 -120v-260c0 -70 57 -120 137 -120zM479 540l24 160h23
l-34 -163z" />
    <glyph glyph-name="dcroat" unicode="&#x111;" horiz-adv-x="468" 
d="M390 0h-20v75c-25 -49 -77 -80 -145 -80c-92 0 -157 58 -157 140v260c0 82 65 140 157 140c68 0 120 -31 145 -80v155h-128v20h128v70h20v-70h59v-20h-59v-610zM225 15c83 0 142 51 145 124v246c0 76 -60 130 -145 130c-80 0 -137 -50 -137 -120v-260
c0 -70 57 -120 137 -120z" />
    <glyph glyph-name="eth" unicode="&#xf0;" horiz-adv-x="468" 
d="M202 592l30 80c-33 9 -73 13 -119 13v20c50 0 92 -5 127 -14l26 68l18 -7l-26 -67c104 -36 141 -126 142 -294v-246c0 -88 -69 -150 -166 -150s-166 62 -166 150v240c0 88 69 150 166 150c64 0 115 -27 143 -71c-11 117 -51 176 -127 203l-32 -82zM380 145v240
c0 76 -60 130 -146 130s-146 -54 -146 -130v-240c0 -76 60 -130 146 -130s146 54 146 130z" />
    <glyph glyph-name="thorn" unicode="&#xfe;" horiz-adv-x="468" 
d="M78 -200v900h20v-245c24 49 76 80 145 80c93 0 157 -58 157 -140v-260c0 -82 -64 -140 -157 -140c-69 0 -121 31 -145 80v-275h-20zM243 15c80 0 137 50 137 120v260c0 70 -57 120 -137 120c-83 0 -142 -52 -145 -125v-245c0 -76 60 -130 145 -130z" />
    <glyph glyph-name="e" unicode="e" horiz-adv-x="463" 
d="M68 145v240c0 88 69 150 166 150s166 -62 166 -150v-130h-312v-110c0 -76 60 -130 146 -130s146 54 146 130v20h20v-20c0 -88 -69 -150 -166 -150s-166 62 -166 150zM234 515c-86 0 -146 -54 -146 -130v-110h292v110c0 76 -60 130 -146 130z" />
    <glyph glyph-name="eacute" unicode="&#xe9;" horiz-adv-x="463" 
d="M68 145v240c0 88 69 150 166 150s166 -62 166 -150v-130h-312v-110c0 -76 60 -130 146 -130s146 54 146 130v20h20v-20c0 -88 -69 -150 -166 -150s-166 62 -166 150zM234 515c-86 0 -146 -54 -146 -130v-110h292v110c0 76 -60 130 -146 130zM166 624l139 79l11 -16
l-144 -74z" />
    <glyph glyph-name="ebreve" unicode="&#x115;" horiz-adv-x="463" 
d="M68 145v240c0 88 69 150 166 150s166 -62 166 -150v-130h-312v-110c0 -76 60 -130 146 -130s146 54 146 130v20h20v-20c0 -88 -69 -150 -166 -150s-166 62 -166 150zM234 515c-86 0 -146 -54 -146 -130v-110h292v110c0 76 -60 130 -146 130zM314 714h20
c0 -66 -43 -101 -103 -101s-103 35 -103 101h20c0 -53 34 -81 83 -81c48 0 83 28 83 81z" />
    <glyph glyph-name="ecaron" unicode="&#x11b;" horiz-adv-x="463" 
d="M68 145v240c0 88 69 150 166 150s166 -62 166 -150v-130h-312v-110c0 -76 60 -130 146 -130s146 54 146 130v20h20v-20c0 -88 -69 -150 -166 -150s-166 62 -166 150zM234 515c-86 0 -146 -54 -146 -130v-110h292v110c0 76 -60 130 -146 130zM340 692l-109 -79l-109 79
l5 11l104 -67l104 67z" />
    <glyph glyph-name="ecircumflex" unicode="&#xea;" horiz-adv-x="463" 
d="M68 145v240c0 88 69 150 166 150s166 -62 166 -150v-130h-312v-110c0 -76 60 -130 146 -130s146 54 146 130v20h20v-20c0 -88 -69 -150 -166 -150s-166 62 -166 150zM234 515c-86 0 -146 -54 -146 -130v-110h292v110c0 76 -60 130 -146 130zM122 624l109 79l109 -79
l-5 -11l-104 67l-104 -67z" />
    <glyph glyph-name="edieresis" unicode="&#xeb;" horiz-adv-x="463" 
d="M68 145v240c0 88 69 150 166 150s166 -62 166 -150v-130h-312v-110c0 -76 60 -130 146 -130s146 54 146 130v20h20v-20c0 -88 -69 -150 -166 -150s-166 62 -166 150zM234 515c-86 0 -146 -54 -146 -130v-110h292v110c0 76 -60 130 -146 130zM147 613v51h20v-51h-20z
M294 613v51h20v-51h-20z" />
    <glyph glyph-name="edotaccent" unicode="&#x117;" horiz-adv-x="463" 
d="M68 145v240c0 88 69 150 166 150s166 -62 166 -150v-130h-312v-110c0 -76 60 -130 146 -130s146 54 146 130v20h20v-20c0 -88 -69 -150 -166 -150s-166 62 -166 150zM234 515c-86 0 -146 -54 -146 -130v-110h292v110c0 76 -60 130 -146 130zM221 623v51h20v-51h-20z" />
    <glyph glyph-name="egrave" unicode="&#xe8;" horiz-adv-x="463" 
d="M68 145v240c0 88 69 150 166 150s166 -62 166 -150v-130h-312v-110c0 -76 60 -130 146 -130s146 54 146 130v20h20v-20c0 -88 -69 -150 -166 -150s-166 62 -166 150zM234 515c-86 0 -146 -54 -146 -130v-110h292v110c0 76 -60 130 -146 130zM157 703l139 -79l-5 -11
l-144 74z" />
    <glyph glyph-name="emacron" unicode="&#x113;" horiz-adv-x="463" 
d="M68 145v240c0 88 69 150 166 150s166 -62 166 -150v-130h-312v-110c0 -76 60 -130 146 -130s146 54 146 130v20h20v-20c0 -88 -69 -150 -166 -150s-166 62 -166 150zM234 515c-86 0 -146 -54 -146 -130v-110h292v110c0 76 -60 130 -146 130zM142 633h178v-20h-178v20z
" />
    <glyph glyph-name="eogonek" unicode="&#x119;" horiz-adv-x="463" 
d="M68 145v240c0 88 69 150 166 150s166 -62 166 -150v-130h-312v-110c0 -76 60 -130 146 -130s146 54 146 130v20h20v-20c0 -78 -54 -134 -132 -147c-5 -4 -32 -33 -32 -74c0 -26 12 -39 32 -39c26 0 38 22 38 22l7 -11s-11 -29 -45 -29c-27 0 -50 17 -50 57
c0 37 20 62 30 72c-5 -1 -10 -1 -14 -1c-97 0 -166 62 -166 150zM234 515c-86 0 -146 -54 -146 -130v-110h292v110c0 76 -60 130 -146 130z" />
    <glyph glyph-name="f" unicode="f" horiz-adv-x="267" 
d="M20 530h97v80c0 53 38 90 97 90h40v-20h-40c-47 0 -77 -29 -77 -70v-80h117v-20h-117v-510h-20v510h-97v20z" />
    <glyph glyph-name="g" unicode="g" horiz-adv-x="468" 
d="M229 -190c83 0 141 54 141 130v135c-25 -49 -77 -80 -145 -80c-92 0 -157 58 -157 140v260c0 82 65 140 157 140c68 0 120 -31 145 -80v75h20v-590c0 -88 -66 -150 -161 -150c-94 0 -161 58 -161 141v9h20v-9c0 -71 59 -121 141 -121zM225 15c85 0 145 54 145 130v245
c-3 73 -62 125 -145 125c-80 0 -137 -50 -137 -120v-260c0 -70 57 -120 137 -120z" />
    <glyph glyph-name="gbreve" unicode="&#x11f;" horiz-adv-x="468" 
d="M229 -190c83 0 141 54 141 130v135c-25 -49 -77 -80 -145 -80c-92 0 -157 58 -157 140v260c0 82 65 140 157 140c68 0 120 -31 145 -80v75h20v-590c0 -88 -66 -150 -161 -150c-94 0 -161 58 -161 141v9h20v-9c0 -71 59 -121 141 -121zM225 15c83 0 142 51 145 124v251
c-3 73 -62 125 -145 125c-80 0 -137 -50 -137 -120v-260c0 -70 57 -120 137 -120zM316 714h20c0 -66 -42 -101 -102 -101c-61 0 -103 35 -103 101h20c0 -53 33 -81 83 -81c48 0 82 28 82 81z" />
    <glyph glyph-name="gcircumflex" unicode="&#x11d;" horiz-adv-x="468" 
d="M229 -190c83 0 141 54 141 130v135c-25 -49 -77 -80 -145 -80c-92 0 -157 58 -157 140v260c0 82 65 140 157 140c68 0 120 -31 145 -80v75h20v-590c0 -88 -66 -150 -161 -150c-94 0 -161 58 -161 141v9h20v-9c0 -71 59 -121 141 -121zM225 15c85 0 145 54 145 130v245
c-3 73 -62 125 -145 125c-80 0 -137 -50 -137 -120v-260c0 -70 57 -120 137 -120zM124 624l110 79l109 -79l-6 -11l-103 67l-104 -67z" />
    <glyph glyph-name="gcommaaccent" unicode="&#x123;" horiz-adv-x="468" 
d="M229 -190c83 0 141 54 141 130v135c-25 -49 -77 -80 -145 -80c-92 0 -157 58 -157 140v260c0 82 65 140 157 140c68 0 120 -31 145 -80v75h20v-590c0 -88 -66 -150 -161 -150c-94 0 -161 58 -161 141v9h20v-9c0 -71 59 -121 141 -121zM225 15c83 0 142 51 145 124v251
c-3 73 -62 125 -145 125c-80 0 -137 -50 -137 -120v-260c0 -70 57 -120 137 -120zM249 757l-23 -160h-24l34 163z" />
    <glyph glyph-name="gdotaccent" unicode="&#x121;" horiz-adv-x="468" 
d="M229 -190c83 0 141 54 141 130v135c-25 -49 -77 -80 -145 -80c-92 0 -157 58 -157 140v260c0 82 65 140 157 140c68 0 120 -31 145 -80v75h20v-590c0 -88 -66 -150 -161 -150c-94 0 -161 58 -161 141v9h20v-9c0 -71 59 -121 141 -121zM225 15c85 0 145 54 145 130v240
c0 76 -60 130 -145 130c-80 0 -137 -50 -137 -120v-260c0 -70 57 -120 137 -120zM223 623v51h21v-51h-21z" />
    <glyph glyph-name="h" unicode="h" 
d="M78 0v700h20v-245c24 49 76 80 145 80c93 0 157 -58 157 -140v-395h-20v395c0 70 -57 120 -137 120c-83 0 -142 -52 -145 -125v-390h-20z" />
    <glyph glyph-name="hbar" unicode="&#x127;" 
d="M19 622h59v78h20v-78h138v-20h-138v-145c25 48 77 78 145 78c93 0 157 -58 157 -140v-395h-20v395c0 70 -57 120 -138 120c-82 0 -141 -52 -144 -125v-390h-20v602h-59v20z" />
    <glyph glyph-name="hcircumflex" unicode="&#x125;" 
d="M98 385v-385h-20v700h20v-245c24 49 76 80 145 80c93 0 157 -58 157 -140v-395h-20v395c0 70 -57 120 -137 120c-85 0 -145 -54 -145 -130zM-22 754l109 79l109 -79l-6 -11l-103 67l-104 -67z" />
    <glyph glyph-name="i" unicode="i" horiz-adv-x="176" 
d="M78 0v530h20v-530h-20zM78 622v51h20v-51h-20z" />
    <glyph glyph-name="iacute" unicode="&#xed;" horiz-adv-x="176" 
d="M23 624l139 79l11 -16l-144 -74zM78 0v530h20v-530h-20z" />
    <glyph glyph-name="ibreve" unicode="&#x12d;" horiz-adv-x="176" 
d="M171 714h20c0 -66 -43 -101 -103 -101s-103 35 -103 101h20c0 -53 34 -81 83 -81c48 0 83 28 83 81zM78 0v530h20v-530h-20z" />
    <glyph glyph-name="icircumflex" unicode="&#xee;" horiz-adv-x="176" 
d="M78 0v530h20v-530h-20zM-21 624l109 79l109 -79l-6 -11l-103 67l-104 -67z" />
    <glyph glyph-name="idieresis" unicode="&#xef;" horiz-adv-x="176" 
d="M5 613v51h20v-51h-20zM151 613v51h20v-51h-20zM78 0v530h20v-530h-20z" />
    <glyph glyph-name="igrave" unicode="&#xec;" horiz-adv-x="176" 
d="M14 703l139 -79l-5 -11l-144 74zM78 0v530h20v-530h-20z" />
    <glyph glyph-name="imacron" unicode="&#x12b;" horiz-adv-x="176" 
d="M-1 633h178v-20h-178v20zM78 0v530h20v-530h-20z" />
    <glyph glyph-name="iogonek" unicode="&#x12f;" horiz-adv-x="176" 
d="M92 -133c-26 0 -50 17 -50 57c0 47 36 76 36 76v530h20v-530h-3s-34 -32 -34 -76c0 -26 12 -39 32 -39c25 0 37 22 37 22l7 -11s-10 -29 -45 -29zM78 622v51h20v-51h-20z" />
    <glyph glyph-name="itilde" unicode="&#x129;" horiz-adv-x="176" 
d="M78 0v530h20v-530h-20zM38 682c50 0 59 -49 102 -49s60 50 60 50l15 -9s-21 -60 -76 -60c-50 0 -61 49 -103 49s-59 -50 -59 -50l-17 9s23 60 78 60z" />
    <glyph glyph-name="ij" unicode="&#x133;" horiz-adv-x="351" 
d="M163 -200v20h10c47 0 80 29 80 70v640h20v-640c0 -53 -41 -90 -100 -90h-10zM78 0v530h20v-530h-20zM253 622v51h20v-51h-20zM78 622v51h20v-51h-20z" />
    <glyph glyph-name="dotlessi" unicode="&#x131;" horiz-adv-x="176" 
d="M78 0v530h20v-530h-20z" />
    <glyph glyph-name="j" unicode="j" horiz-adv-x="176" 
d="M-12 -200v20h10c47 0 80 29 80 70v640h20v-640c0 -53 -41 -90 -100 -90h-10zM78 622v51h20v-51h-20z" />
    <glyph glyph-name="jcircumflex" unicode="&#x135;" horiz-adv-x="176" 
d="M-2 -180c47 0 80 29 80 70v640h20v-640c0 -53 -41 -90 -100 -90h-10v20h10zM-21 624l109 79l109 -79l-6 -11l-103 67l-104 -67z" />
    <glyph glyph-name="dotlessj" unicode="&#x237;" horiz-adv-x="176" 
d="M-2 -180c47 0 80 29 80 70v640h20v-640c0 -53 -41 -90 -100 -90h-10v20h10z" />
    <glyph glyph-name="k" unicode="k" horiz-adv-x="403" 
d="M355 0l-228 276l215 254h27l-215 -254l229 -276h-28zM78 0v700h20v-700h-20z" />
    <glyph glyph-name="kcommaaccent" unicode="&#x137;" horiz-adv-x="403" 
d="M355 0l-228 276l215 254h27l-215 -254l229 -276h-28zM78 0v700h20v-700h-20zM174 -180l29 120h25l-42 -124z" />
    <glyph glyph-name="l" unicode="l" horiz-adv-x="196" 
d="M182 20v-20h-10c-59 0 -94 37 -94 90v610h20v-610c0 -41 27 -70 74 -70h10z" />
    <glyph glyph-name="lacute" unicode="&#x13a;" horiz-adv-x="196" 
d="M182 20v-20h-10c-59 0 -94 37 -94 90v610h20v-610c0 -41 27 -70 74 -70h10zM36 789l139 79l10 -16l-143 -74z" />
    <glyph glyph-name="lcaron" unicode="&#x13e;" horiz-adv-x="233" 
d="M182 20v-20h-10c-59 0 -94 37 -94 90v610h20v-610c0 -41 27 -70 74 -70h10zM188 540l23 160h24l-34 -163z" />
    <glyph glyph-name="lcommaaccent" unicode="&#x13c;" horiz-adv-x="196" 
d="M182 20v-20h-10c-59 0 -94 37 -94 90v610h20v-610c0 -41 27 -70 74 -70h10zM93 -180l30 120h24l-42 -124z" />
    <glyph glyph-name="ldot" unicode="&#x140;" horiz-adv-x="322" 
d="M182 20v-20h-10c-59 0 -94 37 -94 90v610h20v-610c0 -41 27 -70 74 -70h10zM234 300v80h30v-80h-30z" />
    <glyph glyph-name="lslash" unicode="&#x142;" horiz-adv-x="202" 
d="M181 20v-20h-10c-58 0 -93 37 -93 90v207l-47 -43l-13 15l60 55v376h20v-358l81 75l13 -15l-94 -87v-225c0 -41 27 -70 73 -70h10z" />
    <glyph glyph-name="m" unicode="m" horiz-adv-x="741" 
d="M360 0v395c0 70 -52 120 -127 120c-78 0 -135 -54 -135 -130v-385h-20v530h20v-73c24 48 72 78 135 78c70 0 123 -38 140 -96c20 58 72 96 142 96c87 0 148 -58 148 -140v-395h-20v395c0 70 -53 120 -127 120c-77 0 -133 -52 -136 -125v-390h-20z" />
    <glyph glyph-name="n" unicode="n" 
d="M78 0v530h20v-75c24 49 76 80 145 80c93 0 157 -58 157 -140v-395h-20v395c0 70 -57 120 -137 120c-83 0 -142 -52 -145 -125v-390h-20z" />
    <glyph glyph-name="nacute" unicode="&#x144;" 
d="M78 0v530h20v-75c24 49 76 80 145 80c93 0 157 -58 157 -140v-395h-20v395c0 70 -57 120 -137 120c-83 0 -142 -52 -145 -125v-390h-20zM173 624l139 79l10 -16l-144 -74z" />
    <glyph glyph-name="ncaron" unicode="&#x148;" 
d="M78 0v530h20v-75c24 49 76 80 145 80c93 0 157 -58 157 -140v-395h-20v395c0 70 -57 120 -137 120c-83 0 -142 -52 -145 -125v-390h-20zM348 692l-109 -79l-109 79l5 11l104 -67l103 67z" />
    <glyph glyph-name="ncommaaccent" unicode="&#x146;" 
d="M78 0v530h20v-75c24 49 76 80 145 80c93 0 157 -58 157 -140v-395h-20v395c0 70 -57 120 -137 120c-83 0 -142 -52 -145 -125v-390h-20zM211 -180l29 120h25l-42 -124z" />
    <glyph glyph-name="ntilde" unicode="&#xf1;" 
d="M78 0v530h20v-75c24 49 76 80 145 80c93 0 157 -58 157 -140v-395h-20v395c0 70 -57 120 -137 120c-83 0 -142 -52 -145 -125v-390h-20zM189 682c50 0 59 -49 102 -49s60 50 60 50l15 -9s-21 -60 -76 -60c-50 0 -61 49 -103 49s-59 -50 -59 -50l-17 9s23 60 78 60z" />
    <glyph glyph-name="eng" unicode="&#x14b;" 
d="M290 -200v20h10c46 0 80 29 80 70v505c0 70 -57 120 -137 120c-83 0 -142 -52 -145 -125v-390h-20v530h20v-75c24 49 76 80 145 80c93 0 157 -58 157 -140v-505c0 -53 -41 -90 -100 -90h-10z" />
    <glyph glyph-name="o" unicode="o" horiz-adv-x="468" 
d="M400 145c0 -88 -69 -150 -166 -150s-166 62 -166 150v240c0 88 69 150 166 150s166 -62 166 -150v-240zM380 145v240c0 76 -60 130 -146 130s-146 -54 -146 -130v-240c0 -76 60 -130 146 -130s146 54 146 130z" />
    <glyph glyph-name="oacute" unicode="&#xf3;" horiz-adv-x="468" 
d="M400 145c0 -88 -69 -150 -166 -150s-166 62 -166 150v240c0 88 69 150 166 150s166 -62 166 -150v-240zM380 145v240c0 76 -60 130 -146 130s-146 -54 -146 -130v-240c0 -76 60 -130 146 -130s146 54 146 130zM169 624l138 79l11 -16l-144 -74z" />
    <glyph glyph-name="obreve" unicode="&#x14f;" horiz-adv-x="468" 
d="M400 145c0 -88 -69 -150 -166 -150s-166 62 -166 150v240c0 88 69 150 166 150s166 -62 166 -150v-240zM380 145v240c0 76 -60 130 -146 130s-146 -54 -146 -130v-240c0 -76 60 -130 146 -130s146 54 146 130zM317 714h20c0 -66 -43 -101 -103 -101s-103 35 -103 101h20
c0 -53 34 -81 83 -81c48 0 83 28 83 81z" />
    <glyph glyph-name="ocircumflex" unicode="&#xf4;" horiz-adv-x="468" 
d="M400 145c0 -88 -69 -150 -166 -150s-166 62 -166 150v240c0 88 69 150 166 150s166 -62 166 -150v-240zM380 145v240c0 76 -60 130 -146 130s-146 -54 -146 -130v-240c0 -76 60 -130 146 -130s146 54 146 130zM124 624l110 79l109 -79l-6 -11l-103 67l-104 -67z" />
    <glyph glyph-name="odieresis" unicode="&#xf6;" horiz-adv-x="468" 
d="M400 145c0 -88 -69 -150 -166 -150s-166 62 -166 150v240c0 88 69 150 166 150s166 -62 166 -150v-240zM380 145v240c0 76 -60 130 -146 130s-146 -54 -146 -130v-240c0 -76 60 -130 146 -130s146 54 146 130zM151 613v51h20v-51h-20zM297 613v51h20v-51h-20z" />
    <glyph glyph-name="ograve" unicode="&#xf2;" horiz-adv-x="468" 
d="M400 145c0 -88 -69 -150 -166 -150s-166 62 -166 150v240c0 88 69 150 166 150s166 -62 166 -150v-240zM380 145v240c0 76 -60 130 -146 130s-146 -54 -146 -130v-240c0 -76 60 -130 146 -130s146 54 146 130zM160 703l139 -79l-6 -11l-144 74z" />
    <glyph glyph-name="ohungarumlaut" unicode="&#x151;" horiz-adv-x="468" 
d="M400 145c0 -88 -69 -150 -166 -150s-166 62 -166 150v240c0 88 69 150 166 150s166 -62 166 -150v-240zM380 145v240c0 76 -60 130 -146 130s-146 -54 -146 -130v-240c0 -76 60 -130 146 -130s146 54 146 130zM127 622l89 102l16 -12l-96 -99zM220 621l128 97l13 -14
l-134 -93z" />
    <glyph glyph-name="omacron" unicode="&#x14d;" horiz-adv-x="468" 
d="M400 145c0 -88 -69 -150 -166 -150s-166 62 -166 150v240c0 88 69 150 166 150s166 -62 166 -150v-240zM380 145v240c0 76 -60 130 -146 130s-146 -54 -146 -130v-240c0 -76 60 -130 146 -130s146 54 146 130zM145 633h178v-20h-178v20z" />
    <glyph glyph-name="oslash" unicode="&#xf8;" horiz-adv-x="468" 
d="M66 -5l33 57c-20 25 -31 57 -31 93v240c0 88 68 150 166 150c50 0 92 -17 122 -45l26 45h21l-34 -58c20 -25 31 -57 31 -92v-240c0 -88 -69 -150 -166 -150c-50 0 -92 16 -121 43l-25 -43h-22zM88 145c0 -28 8 -53 22 -74l235 401c-26 27 -65 43 -111 43
c-86 0 -146 -54 -146 -130v-240zM380 145v240c0 27 -8 52 -23 72l-234 -401c26 -26 65 -41 111 -41c85 0 146 54 146 130z" />
    <glyph glyph-name="oslashacute" unicode="&#x1ff;" horiz-adv-x="468" 
d="M66 -5l33 57c-20 25 -31 57 -31 93v240c0 88 68 150 166 150c50 0 92 -17 122 -45l26 45h21l-34 -58c20 -25 31 -57 31 -92v-240c0 -88 -69 -150 -166 -150c-50 0 -92 16 -121 43l-25 -43h-22zM88 145c0 -28 8 -53 22 -74l235 401c-26 27 -65 43 -111 43
c-86 0 -146 -54 -146 -130v-240zM380 145v240c0 27 -8 52 -23 72l-234 -401c26 -26 65 -41 111 -41c85 0 146 54 146 130zM169 624l138 79l11 -16l-144 -74z" />
    <glyph glyph-name="otilde" unicode="&#xf5;" horiz-adv-x="468" 
d="M400 145c0 -88 -69 -150 -166 -150s-166 62 -166 150v240c0 88 69 150 166 150s166 -62 166 -150v-240zM380 145v240c0 76 -60 130 -146 130s-146 -54 -146 -130v-240c0 -76 60 -130 146 -130s146 54 146 130zM184 682c50 0 59 -49 102 -49s60 50 60 50l15 -9
s-22 -60 -76 -60c-50 0 -61 49 -103 49c-43 0 -59 -50 -59 -50l-17 9s23 60 78 60z" />
    <glyph glyph-name="oe" unicode="&#x153;" horiz-adv-x="776" 
d="M713 255h-312v-110c0 -76 60 -130 146 -130c85 0 146 54 146 130v20h20v-20c0 -88 -69 -150 -166 -150c-77 0 -135 38 -157 96c-22 -58 -80 -96 -156 -96c-97 0 -166 62 -166 150v240c0 88 69 150 166 150c76 0 134 -38 156 -97c22 59 80 97 157 97
c97 0 166 -62 166 -150v-130zM380 145v240c0 76 -60 130 -146 130s-146 -54 -146 -130v-240c0 -76 60 -130 146 -130s146 54 146 130zM693 275v110c0 76 -61 130 -146 130c-86 0 -146 -54 -146 -130v-110h292z" />
    <glyph glyph-name="p" unicode="p" horiz-adv-x="468" 
d="M78 -200v730h20v-75c24 49 76 80 145 80c93 0 157 -58 157 -140v-260c0 -82 -64 -140 -157 -140c-69 0 -121 31 -145 80v-275h-20zM243 15c80 0 137 50 137 120v260c0 70 -57 120 -137 120c-83 0 -142 -52 -145 -125v-245c0 -76 60 -130 145 -130z" />
    <glyph glyph-name="q" unicode="q" horiz-adv-x="468" 
d="M390 530v-730h-20v275c-25 -49 -77 -80 -145 -80c-92 0 -157 58 -157 140v260c0 82 65 140 157 140c68 0 120 -31 145 -80v75h20zM225 15c85 0 145 54 145 130v245c-3 73 -62 125 -145 125c-80 0 -137 -50 -137 -120v-260c0 -70 57 -120 137 -120z" />
    <glyph glyph-name="r" unicode="r" horiz-adv-x="292" 
d="M78 0v530h20v-89c27 58 86 94 164 94v-20c-93 0 -161 -59 -164 -144v-371h-20z" />
    <glyph glyph-name="racute" unicode="&#x155;" horiz-adv-x="292" 
d="M78 0v530h20v-89c27 58 86 94 164 94v-20c-93 0 -161 -59 -164 -144v-371h-20zM79 624l139 79l11 -16l-144 -74z" />
    <glyph glyph-name="rcaron" unicode="&#x159;" horiz-adv-x="292" 
d="M78 0v530h20v-89c27 58 86 94 164 94v-20c-93 0 -161 -59 -164 -144v-371h-20zM254 692l-109 -79l-109 79l5 11l104 -67l103 67z" />
    <glyph glyph-name="rcommaaccent" unicode="&#x157;" horiz-adv-x="292" 
d="M98 365v-365h-20v530h20v-89c27 58 86 94 164 94v-20c-95 0 -164 -62 -164 -150zM61 -180l29 120h25l-42 -124z" />
    <glyph glyph-name="s" unicode="s" horiz-adv-x="420" 
d="M206 535c88 0 148 -62 148 -150v-10h-20v10c0 76 -52 130 -129 130c-70 0 -122 -46 -122 -110c0 -42 23 -76 63 -95l149 -73c45 -22 72 -62 72 -112c0 -76 -63 -130 -152 -130c-95 0 -159 62 -159 150v10h20v-10c0 -76 56 -130 138 -130c77 0 133 46 133 110
c0 43 -24 75 -62 94l-150 73c-45 22 -72 62 -72 113c0 76 59 130 143 130z" />
    <glyph glyph-name="sacute" unicode="&#x15b;" horiz-adv-x="420" 
d="M206 535c88 0 148 -62 148 -150v-10h-20v10c0 76 -52 130 -129 130c-70 0 -122 -46 -122 -110c0 -42 23 -76 63 -95l149 -73c45 -22 72 -62 72 -112c0 -76 -63 -130 -152 -130c-95 0 -159 62 -159 150v10h20v-10c0 -76 56 -130 138 -130c77 0 133 46 133 110
c0 43 -24 75 -62 94l-150 73c-45 22 -72 62 -72 113c0 76 59 130 143 130zM145 624l139 79l11 -16l-144 -74z" />
    <glyph glyph-name="scaron" unicode="&#x161;" horiz-adv-x="420" 
d="M206 535c88 0 148 -62 148 -150v-10h-20v10c0 76 -52 130 -129 130c-70 0 -122 -46 -122 -110c0 -42 23 -76 63 -95l149 -73c45 -22 72 -62 72 -112c0 -76 -63 -130 -152 -130c-95 0 -159 62 -159 150v10h20v-10c0 -76 56 -130 138 -130c77 0 133 46 133 110
c0 43 -24 75 -62 94l-150 73c-45 22 -72 62 -72 113c0 76 59 130 143 130zM318 692l-109 -79l-109 79l6 11l103 -67l104 67z" />
    <glyph glyph-name="scedilla" unicode="&#x15f;" horiz-adv-x="420" 
d="M206 535c88 0 148 -62 148 -150v-10h-20v10c0 76 -52 130 -129 130c-70 0 -122 -46 -122 -110c0 -42 23 -76 63 -95l149 -73c45 -22 72 -62 72 -112c0 -74 -60 -127 -146 -130l-5 -37c27 0 46 -18 46 -46c0 -29 -22 -45 -50 -45c-35 0 -56 25 -56 25l8 15s20 -20 48 -20
c18 0 30 8 30 24c0 24 -24 32 -47 32l8 53c-88 4 -147 64 -147 149v10h20v-10c0 -76 56 -130 138 -130c77 0 133 46 133 110c0 43 -24 75 -62 94l-150 73c-45 22 -72 62 -72 113c0 76 59 130 143 130z" />
    <glyph glyph-name="scircumflex" unicode="&#x15d;" horiz-adv-x="420" 
d="M206 535c88 0 148 -62 148 -150v-10h-20v10c0 76 -52 130 -129 130c-70 0 -122 -46 -122 -110c0 -42 23 -76 63 -95l149 -73c45 -22 72 -62 72 -112c0 -76 -63 -130 -152 -130c-95 0 -159 62 -159 150v10h20v-10c0 -76 56 -130 138 -130c77 0 133 46 133 110
c0 43 -24 75 -62 94l-150 73c-45 22 -72 62 -72 113c0 76 59 130 143 130zM100 624l109 79l109 -79l-5 -11l-104 67l-103 -67z" />
    <glyph glyph-name="scommaaccent" unicode="&#x219;" horiz-adv-x="420" 
d="M206 535c88 0 148 -62 148 -150v-10h-20v10c0 76 -52 130 -129 130c-70 0 -122 -46 -122 -110c0 -42 23 -76 63 -95l149 -73c45 -22 72 -62 72 -112c0 -76 -63 -130 -152 -130c-95 0 -159 62 -159 150v10h20v-10c0 -76 56 -130 138 -130c77 0 133 46 133 110
c0 43 -24 75 -62 94l-150 73c-45 22 -72 62 -72 113c0 76 59 130 143 130zM183 -180l29 120h24l-41 -124z" />
    <glyph glyph-name="t" unicode="t" horiz-adv-x="321" 
d="M264 20v-20h-37c-59 0 -100 37 -100 90v420h-107v20h107v120h20v-120h117v-20h-117v-420c0 -41 33 -70 80 -70h37z" />
    <glyph glyph-name="tbar" unicode="&#x167;" horiz-adv-x="316" 
d="M20 530h107v120h20v-120h117v-20h-117v-193h107v-20h-107v-207c0 -41 33 -70 80 -70h37v-20h-37c-59 0 -100 37 -100 90v207h-97v20h97v193h-107v20z" />
    <glyph glyph-name="tcaron" unicode="&#x165;" horiz-adv-x="321" 
d="M264 20v-20h-37c-59 0 -100 37 -100 90v420h-107v20h107v120h20v-120h117v-20h-117v-420c0 -41 33 -70 80 -70h37zM253 590l23 160h24l-34 -163z" />
    <glyph glyph-name="tcommaaccent" unicode="&#x163;" horiz-adv-x="321" 
d="M264 20v-20h-37c-59 0 -100 37 -100 90v420h-107v20h107v120h20v-120h117v-20h-117v-420c0 -41 33 -70 80 -70h37zM146 -180l29 120h25l-42 -124z" />
    <glyph glyph-name="uni021B" unicode="&#x21b;" horiz-adv-x="321" 
d="M264 20v-20h-37c-59 0 -100 37 -100 90v420h-107v20h107v120h20v-120h117v-20h-117v-420c0 -41 33 -70 80 -70h37zM146 -180l29 120h25l-42 -124z" />
    <glyph glyph-name="u" unicode="u" 
d="M400 530v-530h-20v75c-25 -49 -78 -80 -145 -80c-92 0 -157 58 -157 140v395h20v-395c0 -70 57 -120 137 -120c83 0 142 51 145 124v391h20z" />
    <glyph glyph-name="uacute" unicode="&#xfa;" 
d="M400 530v-530h-20v75c-25 -49 -78 -80 -145 -80c-92 0 -157 58 -157 140v395h20v-395c0 -70 57 -120 137 -120c83 0 142 51 145 124v391h20zM173 624l139 79l10 -16l-144 -74z" />
    <glyph glyph-name="ubreve" unicode="&#x16d;" 
d="M400 530v-530h-20v75c-25 -49 -78 -80 -145 -80c-92 0 -157 58 -157 140v395h20v-395c0 -70 57 -120 137 -120c83 0 142 51 145 124v391h20zM322 714h19c0 -66 -42 -101 -102 -101c-61 0 -103 35 -103 101h20c0 -53 34 -81 83 -81c48 0 83 28 83 81z" />
    <glyph glyph-name="ucircumflex" unicode="&#xfb;" 
d="M380 145v385h20v-530h-20v75c-25 -49 -78 -80 -145 -80c-92 0 -157 58 -157 140v395h20v-395c0 -70 57 -120 137 -120c85 0 145 54 145 130zM130 624l109 79l109 -79l-6 -11l-103 67l-104 -67z" />
    <glyph glyph-name="udieresis" unicode="&#xfc;" 
d="M400 530v-530h-20v75c-25 -49 -78 -80 -145 -80c-92 0 -157 58 -157 140v395h20v-395c0 -70 57 -120 137 -120c83 0 142 51 145 124v391h20zM302 613v51h20v-51h-20zM156 613v51h19v-51h-19z" />
    <glyph glyph-name="uhungarumlaut" unicode="&#x171;" 
d="M400 530v-530h-20v75c-25 -49 -78 -80 -145 -80c-92 0 -157 58 -157 140v395h20v-395c0 -70 57 -120 137 -120c83 0 142 51 145 124v391h20zM225 621l127 97l14 -14l-135 -93zM131 622l89 102l16 -12l-96 -99z" />
    <glyph glyph-name="ugrave" unicode="&#xf9;" 
d="M400 530v-530h-20v75c-25 -49 -78 -80 -145 -80c-92 0 -157 58 -157 140v395h20v-395c0 -70 57 -120 137 -120c83 0 142 51 145 124v391h20zM164 703l139 -79l-6 -11l-144 74z" />
    <glyph glyph-name="umacron" unicode="&#x16b;" 
d="M380 145v385h20v-530h-20v75c-25 -49 -78 -80 -145 -80c-92 0 -157 58 -157 140v395h20v-395c0 -70 57 -120 137 -120c85 0 145 54 145 130zM150 633h178v-20h-178v20z" />
    <glyph glyph-name="uogonek" unicode="&#x173;" 
d="M380 145v385h20v-530h-2s-34 -32 -34 -76c0 -26 13 -39 32 -39c26 0 38 22 38 22l7 -11s-11 -29 -45 -29c-26 0 -50 17 -50 57c0 44 30 73 34 76v75c-25 -49 -78 -80 -145 -80c-92 0 -157 58 -157 140v395h20v-395c0 -70 57 -120 137 -120c85 0 145 54 145 130z" />
    <glyph glyph-name="uring" unicode="&#x16f;" 
d="M380 145v385h20v-530h-20v75c-25 -49 -78 -80 -145 -80c-92 0 -157 58 -157 140v395h20v-395c0 -70 57 -120 137 -120c85 0 145 54 145 130zM173 677c0 35 28 63 63 63s64 -28 64 -63s-29 -64 -64 -64s-63 29 -63 64zM192 677c0 -25 19 -45 44 -45s45 20 45 45
s-20 44 -45 44s-44 -19 -44 -44z" />
    <glyph glyph-name="utilde" unicode="&#x169;" 
d="M400 530v-530h-20v75c-25 -49 -78 -80 -145 -80c-92 0 -157 58 -157 140v395h20v-395c0 -70 57 -120 137 -120c83 0 142 51 145 124v391h20zM189 682c50 0 59 -49 102 -49s60 50 60 50l15 -9s-21 -60 -76 -60c-50 0 -61 49 -103 49s-59 -50 -59 -50l-17 9s23 60 78 60z
" />
    <glyph glyph-name="v" unicode="v" horiz-adv-x="421" 
d="M199 0l-180 530h21l171 -504l170 504h20l-180 -530h-22z" />
    <glyph glyph-name="w" unicode="w" horiz-adv-x="630" 
d="M440 0l-125 493l-125 -493h-24l-147 530h22l137 -502l125 502h23l126 -502l137 502h21l-146 -530h-24z" />
    <glyph glyph-name="wacute" unicode="&#x1e83;" horiz-adv-x="630" 
d="M440 0l-125 493l-125 -493h-24l-147 530h22l137 -502l125 502h23l126 -502l137 502h21l-146 -530h-24zM250 624l138 79l11 -16l-144 -74z" />
    <glyph glyph-name="wcircumflex" unicode="&#x175;" horiz-adv-x="630" 
d="M440 0l-125 493l-125 -493h-24l-147 530h22l137 -502l125 502h23l126 -502l137 502h21l-146 -530h-24zM205 624l110 79l109 -79l-6 -11l-103 67l-104 -67z" />
    <glyph glyph-name="wdieresis" unicode="&#x1e85;" horiz-adv-x="630" 
d="M440 0l-125 493l-125 -493h-24l-147 530h22l137 -502l125 502h23l126 -502l137 502h21l-146 -530h-24zM232 613v51h20v-51h-20zM378 613v51h20v-51h-20z" />
    <glyph glyph-name="wgrave" unicode="&#x1e81;" horiz-adv-x="630" 
d="M440 0l-125 493l-125 -493h-24l-147 530h22l137 -502l125 502h23l126 -502l137 502h21l-146 -530h-24zM241 703l139 -79l-6 -11l-144 74z" />
    <glyph glyph-name="x" unicode="x" horiz-adv-x="405" 
d="M361 0l-158 258l-159 -258h-25l170 276l-155 254h24l145 -236l144 236h24l-155 -254l170 -276h-25z" />
    <glyph glyph-name="y" unicode="y" horiz-adv-x="424" 
d="M405 530l-261 -730h-21l72 201l-176 529h21l165 -499l178 499h22z" />
    <glyph glyph-name="yacute" unicode="&#xfd;" horiz-adv-x="424" 
d="M405 530l-261 -730h-21l72 201l-176 529h21l165 -499l178 499h22zM147 624l139 79l11 -16l-144 -74z" />
    <glyph glyph-name="ycircumflex" unicode="&#x177;" horiz-adv-x="424" 
d="M405 530l-261 -730h-21l72 201l-176 529h21l165 -499l178 499h22zM102 624l109 79l109 -79l-5 -11l-104 67l-103 -67z" />
    <glyph glyph-name="ydieresis" unicode="&#xff;" horiz-adv-x="424" 
d="M405 530l-261 -730h-21l72 201l-176 529h21l165 -499l178 499h22zM275 613v51h20v-51h-20zM128 613v51h20v-51h-20z" />
    <glyph glyph-name="ygrave" unicode="&#x1ef3;" horiz-adv-x="424" 
d="M405 530l-261 -730h-21l72 201l-176 529h21l165 -499l178 499h22zM138 703l139 -79l-6 -11l-144 74z" />
    <glyph glyph-name="z" unicode="z" horiz-adv-x="421" 
d="M58 510v20h315v-20l-300 -490h297v-20h-321v20l300 490h-291z" />
    <glyph glyph-name="zacute" unicode="&#x17a;" horiz-adv-x="421" 
d="M58 510v20h315v-20l-300 -490h297v-20h-321v20l300 490h-291zM145 624l139 79l11 -16l-144 -74z" />
    <glyph glyph-name="zcaron" unicode="&#x17e;" horiz-adv-x="421" 
d="M58 510v20h315v-20l-300 -490h297v-20h-321v20l300 490h-291zM321 692l-109 -79l-110 79l6 11l104 -67l103 67z" />
    <glyph glyph-name="zdotaccent" unicode="&#x17c;" horiz-adv-x="421" 
d="M58 510v20h315v-20l-300 -490h297v-20h-321v20l300 490h-291zM200 623v51h21v-51h-21z" />
    <glyph glyph-name="germandbls" unicode="&#xdf;" horiz-adv-x="511" 
d="M78 0v580c0 82 59 125 134 125c92 0 124 -64 124 -120c0 -109 -118 -101 -118 -185c0 -38 25 -72 61 -90l139 -73c42 -22 65 -62 65 -111c0 -77 -58 -131 -142 -131c-88 0 -148 62 -148 150v10h20v-10c0 -76 52 -130 129 -130c70 0 121 46 121 111c0 41 -19 74 -57 93
l-139 73c-44 23 -69 61 -69 108c0 103 118 84 118 185c0 50 -28 100 -104 100c-64 0 -114 -36 -114 -105v-580h-20z" />
    <glyph glyph-name="uni01DD" unicode="&#x1dd;" horiz-adv-x="463" 
d="M63 365v20c0 88 69 150 166 150s166 -62 166 -150v-240c0 -88 -69 -150 -166 -150s-166 62 -166 150v130h312v110c0 76 -60 130 -146 130s-146 -54 -146 -130v-20h-20zM229 15c86 0 146 54 146 130v110h-292v-110c0 -76 60 -130 146 -130z" />
    <glyph glyph-name="germandbls.smcp" horiz-adv-x="415" 
d="M67 0v434c0 62 46 95 106 95c73 0 98 -48 98 -91c0 -82 -89 -77 -89 -139c0 -27 19 -52 46 -65l105 -53c33 -18 52 -48 52 -86c0 -58 -46 -99 -111 -99c-69 0 -116 46 -116 113v8h20v-9c0 -55 39 -93 96 -93c53 0 91 33 91 80c0 29 -15 54 -43 68l-106 53
c-34 18 -54 47 -54 83c0 77 89 64 89 138c0 37 -22 73 -78 73c-49 0 -86 -26 -86 -76v-434h-20z" />
    <glyph glyph-name="zero" unicode="0" horiz-adv-x="536" 
d="M463 350c0 -281 -80 -355 -195 -355s-195 74 -195 355s80 355 195 355s195 -74 195 -355zM443 350c0 269 -72 335 -175 335s-175 -66 -175 -335s72 -335 175 -335s175 66 175 335z" />
    <glyph glyph-name="one" unicode="1" horiz-adv-x="317" 
d="M37 607l149 93h20v-700h-20v676l-139 -86z" />
    <glyph glyph-name="two" unicode="2" horiz-adv-x="483" 
d="M55 0v20c303 408 339 434 339 504c0 92 -65 161 -156 161c-90 0 -155 -66 -155 -160v-20h-20v20c0 106 73 180 175 180c103 0 176 -76 176 -182c0 -78 -39 -105 -333 -503h340v-20h-366z" />
    <glyph glyph-name="three" unicode="3" horiz-adv-x="497" 
d="M255 705c99 0 169 -57 169 -166c0 -87 -43 -153 -116 -172c82 -19 141 -57 141 -171c0 -125 -82 -201 -194 -201s-187 74 -187 180v20h20v-20c0 -94 67 -160 166 -160c101 0 175 69 175 180c0 104 -72 160 -175 160h-30v20h5c103 0 176 60 176 164c0 99 -67 146 -151 146
c-99 0 -166 -66 -166 -160v-22h-20v22c0 106 75 180 187 180z" />
    <glyph glyph-name="four" unicode="4" horiz-adv-x="502" 
d="M463 168h-75v-168h-20v168h-319v20l319 512h20v-512h75v-20zM71 188h297v473z" />
    <glyph glyph-name="five" unicode="5" horiz-adv-x="487" 
d="M413 680h-273l-26 -278s65 23 133 23c124 0 192 -78 192 -209c0 -139 -77 -221 -193 -221c-103 0 -178 66 -178 160v20h20v-20c0 -82 67 -140 158 -140c100 0 172 71 172 200c0 122 -64 190 -173 190c-68 0 -143 -27 -143 -27l-9 9l30 313h290v-20z" />
    <glyph glyph-name="six" unicode="6" horiz-adv-x="531" 
d="M269 455c109 0 189 -75 189 -230s-80 -230 -190 -230c-109 0 -199 74 -199 349c0 267 85 361 206 361c83 0 142 -43 154 -109h-20c-21 63 -70 89 -130 89c-188 0 -194 -244 -187 -388c19 116 94 158 177 158zM269 435c-86 0 -164 -54 -164 -204c0 -145 72 -216 167 -216
c92 0 166 68 166 210s-73 210 -169 210z" />
    <glyph glyph-name="seven" unicode="7" horiz-adv-x="394" 
d="M25 700h332v-20l-209 -680h-21l208 680h-310v20z" />
    <glyph glyph-name="eight" unicode="8" horiz-adv-x="514" 
d="M451 188c0 -123 -82 -193 -193 -193c-113 0 -195 70 -195 193c0 106 61 160 140 179c-74 19 -116 84 -116 169c0 111 71 169 171 169c98 0 169 -58 169 -169c0 -85 -42 -150 -115 -169c78 -19 139 -73 139 -179zM431 188c0 107 -72 167 -173 167
c-103 0 -175 -60 -175 -167c0 -108 73 -173 175 -173c101 0 173 65 173 173zM258 685c-83 0 -150 -43 -150 -147c0 -99 61 -163 150 -163c88 0 149 64 149 163c0 104 -67 147 -149 147z" />
    <glyph glyph-name="nine" unicode="9" horiz-adv-x="521" 
d="M254 265c-106 0 -185 71 -185 220c0 148 78 220 184 220c107 0 195 -74 195 -347c0 -267 -84 -363 -206 -363c-88 0 -150 50 -163 129h20c15 -74 74 -109 142 -109c185 0 192 263 185 396c-20 -104 -89 -146 -172 -146zM254 285c83 0 159 51 159 194
c0 138 -71 206 -163 206c-89 0 -161 -65 -161 -200s71 -200 165 -200z" />
    <glyph glyph-name="comma" unicode="," horiz-adv-x="186" 
d="M49 -120l29 200h30l-43 -204z" />
    <glyph glyph-name="period" unicode="." horiz-adv-x="186" 
d="M78 0v80h30v-80h-30z" />
    <glyph glyph-name="currency" unicode="&#xa4;" horiz-adv-x="536" 
d="M84 350c0 47 17 91 46 123l-80 81l14 13l79 -81c33 30 77 49 125 49s91 -18 124 -48l80 80l14 -13l-81 -81c30 -33 48 -76 48 -123c0 -48 -18 -91 -48 -124l81 -81l-14 -13l-81 80c-32 -29 -76 -46 -123 -46c-48 0 -92 18 -124 48l-80 -81l-14 13l81 81
c-29 32 -47 75 -47 123zM102 350c0 -92 74 -166 166 -166s167 74 167 166s-75 167 -167 167s-166 -75 -166 -167z" />
    <glyph glyph-name="cent" unicode="&#xa2;" horiz-adv-x="458" 
d="M380 440v30c0 76 -60 130 -146 130s-146 -54 -146 -130v-240c0 -76 60 -130 146 -130s146 54 146 130v30h20v-30c0 -86 -66 -147 -159 -150v-85h-19v85c-91 5 -154 65 -154 150v240c0 84 63 144 154 149v86h19v-85c93 -3 159 -64 159 -150v-30h-20z" />
    <glyph glyph-name="dollar" unicode="$" horiz-adv-x="482" 
d="M394 505v20c0 94 -64 160 -157 160c-90 0 -154 -62 -154 -150c0 -59 29 -108 76 -132l179 -91c53 -27 86 -80 86 -146c0 -98 -72 -167 -174 -171v-100h-19v100c-107 4 -178 77 -178 180v25h20v-25c0 -94 67 -160 167 -160c96 0 163 62 163 151c0 57 -28 105 -76 130
l-178 91c-53 28 -87 81 -87 148c0 98 71 167 169 170v100h19v-101c98 -6 164 -78 164 -179v-20h-20z" />
    <glyph glyph-name="Euro" unicode="&#x20ac;" horiz-adv-x="536" 
d="M19 401v20h59v104c0 106 80 180 195 180s195 -74 195 -180v-32h-20v32c0 94 -72 160 -175 160s-175 -66 -175 -160v-104h212v-20h-212v-100h212v-20h-212v-106c0 -94 72 -160 175 -160s175 66 175 160v30h20v-30c0 -106 -80 -180 -195 -180s-195 74 -195 180v106h-59v20
h59v100h-59z" />
    <glyph glyph-name="sterling" unicode="&#xa3;" horiz-adv-x="379" 
d="M29 310v20h65c-19 63 -37 123 -37 191c0 133 72 184 150 184c89 0 152 -66 152 -160v-15h-20v15c0 81 -54 140 -129 140c-70 0 -133 -52 -133 -163c0 -63 20 -125 39 -192h170v-20h-164c23 -83 42 -176 19 -290h218v-20h-331v20h93c21 120 2 209 -21 290h-71z" />
    <glyph glyph-name="yen" unicode="&#xa5;" horiz-adv-x="449" 
d="M82 200v20h132v80l-205 400h23l191 -379l194 379h22l-205 -400v-80h131v-20h-131v-80h131v-20h-131v-100h-20v100h-132v20h132v80h-132z" />
    <glyph glyph-name="uni20B4" unicode="&#x20b4;" horiz-adv-x="454" 
d="M38 280v20h363v-20h-284c-28 -27 -44 -68 -44 -113c0 -90 62 -152 150 -152c90 0 151 66 151 160h20c0 -106 -68 -180 -171 -180c-100 0 -170 70 -170 173c0 44 12 83 37 112h-52zM38 400v20h283c27 27 44 68 44 115c0 88 -59 150 -140 150c-85 0 -142 -66 -142 -160h-20
c0 106 66 180 162 180c93 0 160 -70 160 -170c0 -46 -14 -86 -37 -115h53v-20h-363z" />
    <glyph glyph-name="florin" unicode="&#x192;" horiz-adv-x="268" 
d="M52 530h97l15 80c10 53 58 90 117 90h38l-5 -20h-37c-47 0 -85 -29 -93 -70l-15 -80h117l-4 -20h-117l-134 -710h-20l134 710h-97z" />
    <glyph glyph-name="numbersign" unicode="#" horiz-adv-x="595" 
d="M337 0l24 160h-194l-24 -160h-20l24 160h-118l3 20h118l52 340h-117l2 20h118l25 160h20l-25 -160h195l25 160h20l-25 -160h116l-3 -20h-116l-52 -340h115l-2 -20h-116l-25 -160h-20zM222 520l-52 -340h194l53 340h-195z" />
    <glyph glyph-name="zero.fitted" horiz-adv-x="494" 
d="M433 350c0 -281 -76 -355 -186 -355s-186 74 -186 355s76 355 186 355s186 -74 186 -355zM413 350c0 269 -68 335 -166 335s-166 -66 -166 -335s68 -335 166 -335s166 66 166 335z" />
    <glyph glyph-name="one.fitted" horiz-adv-x="494" 
d="M70 607l177 93h21v-680h172v-20h-363v20h171v657l-167 -87z" />
    <glyph glyph-name="two.fitted" horiz-adv-x="494" 
d="M59 0v20c306 408 343 434 343 504c0 92 -66 161 -159 161c-91 0 -157 -66 -157 -160v-20h-20v20c0 106 74 180 178 180s178 -76 178 -182c0 -78 -39 -105 -338 -503h345v-20h-370z" />
    <glyph glyph-name="three.fitted" horiz-adv-x="494" 
d="M254 705c99 0 170 -57 170 -166c0 -87 -44 -153 -118 -172c83 -19 142 -57 142 -171c0 -125 -82 -201 -195 -201c-111 0 -187 74 -187 180v20h20v-20c0 -94 68 -160 166 -160c102 0 177 69 177 180c0 104 -72 160 -176 160h-30v20h5c103 0 176 60 176 164
c0 99 -67 146 -151 146c-99 0 -167 -66 -167 -160v-22h-20v22c0 106 76 180 188 180z" />
    <glyph glyph-name="four.fitted" horiz-adv-x="494" 
d="M457 168h-75v-168h-20v168h-315v20l315 512h20v-512h75v-20zM69 188h293v472z" />
    <glyph glyph-name="five.fitted" horiz-adv-x="494" 
d="M418 680h-275l-27 -278s66 23 134 23c126 0 194 -78 194 -209c0 -139 -77 -221 -194 -221c-104 0 -180 66 -180 160v20h20v-20c0 -82 67 -140 160 -140c100 0 173 71 173 200c0 122 -65 190 -174 190c-69 0 -145 -27 -145 -27l-9 9l31 313h292v-20z" />
    <glyph glyph-name="six.fitted" horiz-adv-x="494" 
d="M251 455c103 0 181 -75 181 -230s-78 -230 -183 -230s-190 74 -190 349c0 267 81 361 197 361c80 0 136 -43 148 -109h-20c-20 63 -67 89 -125 89c-178 0 -185 -244 -177 -388c18 116 89 158 169 158zM250 435c-82 0 -156 -54 -156 -204c0 -145 69 -216 159 -216
c88 0 159 68 159 210s-71 210 -162 210z" />
    <glyph glyph-name="seven.fitted" horiz-adv-x="494" 
d="M48 700h382v-20l-241 -680h-21l241 680h-361v20z" />
    <glyph glyph-name="eight.fitted" horiz-adv-x="494" 
d="M437 188c0 -123 -80 -193 -190 -193s-190 70 -190 193c0 106 60 160 136 179c-71 19 -112 84 -112 169c0 111 69 169 166 169c96 0 166 -58 166 -169c0 -85 -41 -150 -112 -169c76 -19 136 -73 136 -179zM417 188c0 107 -71 167 -170 167c-100 0 -170 -60 -170 -167
c0 -108 72 -173 170 -173c99 0 170 65 170 173zM247 685c-80 0 -146 -43 -146 -147c0 -99 60 -163 146 -163s146 64 146 163c0 104 -66 147 -146 147z" />
    <glyph glyph-name="nine.fitted" horiz-adv-x="494" 
d="M240 265c-102 0 -179 71 -179 220c0 148 76 220 178 220c105 0 190 -74 190 -347c0 -267 -82 -363 -200 -363c-85 0 -146 50 -158 129h20c15 -74 71 -109 136 -109c180 0 187 263 179 396c-19 -104 -86 -146 -166 -146zM240 285c80 0 153 51 153 194
c0 138 -68 206 -156 206c-86 0 -156 -65 -156 -200s69 -200 159 -200z" />
    <glyph glyph-name="onesuperior" unicode="&#xb9;" horiz-adv-x="173" 
d="M21 654l79 46h16v-350h-21v327l-66 -39z" />
    <glyph glyph-name="twosuperior" unicode="&#xb2;" horiz-adv-x="247" 
d="M29 350v15c145 202 162 215 162 246c0 43 -29 74 -69 74s-68 -31 -68 -73v-11h-21v11c0 54 36 91 89 91s89 -38 89 -92c0 -37 -19 -52 -156 -242h160v-19h-186z" />
    <glyph glyph-name="threesuperior" unicode="&#xb3;" horiz-adv-x="254" 
d="M130 703c50 0 86 -30 86 -86c0 -43 -20 -74 -53 -84c38 -11 64 -32 64 -85c0 -63 -41 -101 -97 -101s-95 38 -95 91v10h22v-12c0 -41 29 -71 72 -71c44 0 77 31 77 83c0 49 -31 75 -76 75h-17v18h6c45 0 77 27 77 75c0 47 -30 69 -67 69c-43 0 -72 -30 -72 -71v-12h-22
v10c0 53 39 91 95 91z" />
    <glyph glyph-name="onehalf" unicode="&#xbd;" horiz-adv-x="575" 
d="M57 0l415 710l17 -10l-415 -710zM357 0v15c145 202 162 215 162 246c0 43 -29 74 -69 74s-68 -31 -68 -73v-11h-21v11c0 54 36 91 89 91s89 -38 89 -92c0 -37 -19 -52 -156 -242h160v-19h-186zM21 654l79 46h16v-350h-21v327l-66 -39z" />
    <glyph glyph-name="onequarter" unicode="&#xbc;" horiz-adv-x="538" 
d="M515 82h-35v-82h-20v82h-152v16l154 252h18v-250h35v-18zM57 0l415 710l17 -10l-415 -710zM331 100h129v212zM21 654l79 46h16v-350h-21v327l-66 -39z" />
    <glyph glyph-name="threequarters" unicode="&#xbe;" horiz-adv-x="576" 
d="M553 82h-35v-82h-21v82h-152v16l154 252h19v-250h35v-18zM94 0l415 710l18 -10l-416 -710zM130 703c50 0 86 -30 86 -86c0 -43 -20 -74 -53 -84c38 -11 64 -32 64 -85c0 -63 -41 -101 -97 -101s-95 38 -95 91v10h22v-12c0 -41 29 -71 72 -71c44 0 77 31 77 83
c0 49 -31 75 -76 75h-17v18h6c45 0 77 27 77 75c0 47 -30 69 -67 69c-43 0 -72 -30 -72 -71v-12h-22v10c0 53 39 91 95 91zM368 100h129v212z" />
    <glyph glyph-name="zero.sup" horiz-adv-x="271" 
d="M234 525c0 -140 -41 -178 -99 -178s-98 38 -98 178s40 178 98 178s99 -38 99 -178zM212 525c0 130 -32 160 -77 160s-77 -30 -77 -160c0 -131 32 -160 77 -160s77 30 77 160z" />
    <glyph glyph-name="one.sup" horiz-adv-x="173" 
d="M21 654l79 46h16v-350h-21v327l-66 -39z" />
    <glyph glyph-name="two.sup" horiz-adv-x="247" 
d="M29 350v15c145 202 162 215 162 246c0 43 -29 74 -69 74s-68 -31 -68 -73v-11h-21v11c0 54 36 91 89 91s89 -38 89 -92c0 -37 -19 -52 -156 -242h160v-19h-186z" />
    <glyph glyph-name="three.sup" horiz-adv-x="254" 
d="M130 703c50 0 86 -30 86 -86c0 -43 -20 -74 -53 -84c38 -11 64 -32 64 -85c0 -63 -41 -101 -97 -101s-95 38 -95 91v10h22v-12c0 -41 29 -71 72 -71c44 0 77 31 77 83c0 49 -31 75 -76 75h-17v18h6c45 0 77 27 77 75c0 47 -30 69 -67 69c-43 0 -72 -30 -72 -71v-12h-22
v10c0 53 39 91 95 91z" />
    <glyph glyph-name="four.sup" horiz-adv-x="257" 
d="M234 432h-35v-82h-21v82h-152v16l154 252h19v-250h35v-18zM49 450h129v212z" />
    <glyph glyph-name="five.sup" horiz-adv-x="251" 
d="M208 681h-129l-12 -127s29 11 61 11c60 0 96 -39 96 -106c0 -68 -38 -112 -98 -112c-53 0 -91 34 -91 83v10h21v-12c0 -37 30 -63 70 -63c44 0 76 33 76 94c0 58 -29 89 -78 89c-32 0 -64 -14 -64 -14l-13 5l14 161h147v-19z" />
    <glyph glyph-name="six.sup" horiz-adv-x="268" 
d="M138 578c51 0 93 -35 93 -116c0 -79 -41 -115 -96 -115c-56 0 -100 37 -100 175c0 135 42 181 102 181c42 0 72 -21 80 -61h-21c-9 31 -30 43 -57 43c-79 0 -84 -101 -82 -173c10 48 43 66 81 66zM135 560c-37 0 -72 -23 -72 -95c0 -70 32 -100 73 -100s74 30 74 98
s-33 97 -75 97z" />
    <glyph glyph-name="seven.sup" horiz-adv-x="208" 
d="M17 700h169v-16l-102 -334h-22l102 332h-147v18z" />
    <glyph glyph-name="eight.sup" horiz-adv-x="261" 
d="M228 444c0 -62 -41 -97 -97 -97c-57 0 -98 35 -98 97c0 51 27 78 64 89c-33 10 -53 41 -53 83c0 56 36 87 87 87c50 0 86 -31 86 -87c0 -42 -20 -73 -53 -83c37 -11 64 -38 64 -89zM207 445c0 51 -32 78 -76 78c-45 0 -77 -27 -77 -78c0 -50 32 -80 77 -80
c44 0 76 30 76 80zM131 685c-37 0 -66 -21 -66 -69c0 -47 27 -75 66 -75c38 0 65 28 65 75c0 48 -29 69 -65 69z" />
    <glyph glyph-name="nine.sup" horiz-adv-x="264" 
d="M126 481c-50 0 -91 34 -91 111s40 111 93 111c55 0 99 -37 99 -175c0 -135 -42 -181 -103 -181c-45 0 -78 25 -84 69h21c6 -35 33 -51 62 -51c80 0 84 109 82 178c-10 -45 -41 -62 -79 -62zM129 500c36 0 70 21 70 90c0 66 -32 95 -72 95c-39 0 -71 -28 -71 -93
s31 -92 73 -92z" />
    <glyph glyph-name="comma.sup" horiz-adv-x="108" 
d="M26 293l16 102h24l-26 -106z" />
    <glyph glyph-name="period.sup" horiz-adv-x="108" 
d="M41 350v45h26v-45h-26z" />
    <glyph glyph-name="parenleft.sup" horiz-adv-x="131" 
d="M115 279l-11 -7s-64 71 -64 228s64 228 64 228l11 -7s-55 -72 -55 -221s55 -221 55 -221z" />
    <glyph glyph-name="parenright.sup" horiz-adv-x="131" 
d="M28 272l-11 7s54 72 54 221s-54 221 -54 221l12 7s63 -71 63 -228s-64 -228 -64 -228z" />
    <glyph glyph-name="hyphen.sup" horiz-adv-x="145" 
d="M32 501v18h81v-18h-81z" />
    <glyph glyph-name="zero.sub" horiz-adv-x="271" 
d="M234 75c0 -140 -41 -178 -99 -178s-98 38 -98 178s40 178 98 178s99 -38 99 -178zM212 75c0 130 -32 160 -77 160s-77 -30 -77 -160c0 -131 32 -160 77 -160s77 30 77 160z" />
    <glyph glyph-name="one.sub" horiz-adv-x="173" 
d="M21 204l79 46h16v-350h-21v327l-66 -39z" />
    <glyph glyph-name="two.sub" horiz-adv-x="247" 
d="M29 -100v15c145 202 162 215 162 246c0 43 -29 74 -69 74s-68 -31 -68 -73v-11h-21v11c0 54 36 91 89 91s89 -38 89 -92c0 -37 -19 -52 -156 -242h160v-19h-186z" />
    <glyph glyph-name="three.sub" horiz-adv-x="254" 
d="M130 253c50 0 86 -30 86 -86c0 -43 -20 -74 -53 -84c38 -11 64 -32 64 -85c0 -63 -41 -101 -97 -101s-95 38 -95 91v10h22v-12c0 -41 29 -71 72 -71c44 0 77 31 77 83c0 49 -31 75 -76 75h-17v18h6c45 0 77 27 77 75c0 47 -30 69 -67 69c-43 0 -72 -30 -72 -71v-12h-22
v10c0 53 39 91 95 91z" />
    <glyph glyph-name="four.sub" horiz-adv-x="257" 
d="M234 -18h-35v-82h-21v82h-152v16l154 252h19v-250h35v-18zM49 0h129v212z" />
    <glyph glyph-name="five.sub" horiz-adv-x="251" 
d="M208 231h-129l-12 -127s29 11 61 11c60 0 96 -39 96 -106c0 -68 -38 -112 -98 -112c-53 0 -91 34 -91 83v10h21v-12c0 -37 30 -63 70 -63c44 0 76 33 76 94c0 58 -29 89 -78 89c-32 0 -64 -14 -64 -14l-13 5l14 161h147v-19z" />
    <glyph glyph-name="six.sub" horiz-adv-x="268" 
d="M138 128c51 0 93 -35 93 -116c0 -79 -41 -115 -96 -115c-56 0 -100 37 -100 175c0 135 42 181 102 181c42 0 72 -21 80 -61h-21c-9 31 -30 43 -57 43c-79 0 -84 -101 -82 -173c10 48 43 66 81 66zM135 110c-37 0 -72 -23 -72 -95c0 -70 32 -100 73 -100s74 30 74 98
s-33 97 -75 97z" />
    <glyph glyph-name="seven.sub" horiz-adv-x="208" 
d="M17 250h169v-16l-102 -334h-22l102 332h-147v18z" />
    <glyph glyph-name="eight.sub" horiz-adv-x="261" 
d="M228 -6c0 -62 -41 -97 -97 -97c-57 0 -98 35 -98 97c0 51 27 78 64 89c-33 10 -53 41 -53 83c0 56 36 87 87 87c50 0 86 -31 86 -87c0 -42 -20 -73 -53 -83c37 -11 64 -38 64 -89zM207 -5c0 51 -32 78 -76 78c-45 0 -77 -27 -77 -78c0 -50 32 -80 77 -80
c44 0 76 30 76 80zM131 235c-37 0 -66 -21 -66 -69c0 -47 27 -75 66 -75c38 0 65 28 65 75c0 48 -29 69 -65 69z" />
    <glyph glyph-name="nine.sub" horiz-adv-x="264" 
d="M126 31c-50 0 -91 34 -91 111s40 111 93 111c55 0 99 -37 99 -175c0 -135 -42 -181 -103 -181c-45 0 -78 25 -84 69h21c6 -35 33 -51 62 -51c80 0 84 109 82 178c-10 -45 -41 -62 -79 -62zM129 50c36 0 70 21 70 90c0 66 -32 95 -72 95c-39 0 -71 -28 -71 -93
s31 -92 73 -92z" />
    <glyph glyph-name="comma.sub" horiz-adv-x="108" 
d="M26 -157l16 102h24l-26 -106z" />
    <glyph glyph-name="period.sub" horiz-adv-x="108" 
d="M41 -100v45h26v-45h-26z" />
    <glyph glyph-name="parenleft.sub" horiz-adv-x="131" 
d="M115 -171l-11 -7s-64 71 -64 228s64 228 64 228l11 -7s-55 -72 -55 -221s55 -221 55 -221z" />
    <glyph glyph-name="parenright.sub" horiz-adv-x="131" 
d="M28 -178l-11 7s54 72 54 221s-54 221 -54 221l12 7s63 -71 63 -228s-64 -228 -64 -228z" />
    <glyph glyph-name="hyphen.sub" horiz-adv-x="145" 
d="M32 51v18h81v-18h-81z" />
    <glyph glyph-name="exclam" unicode="!" horiz-adv-x="186" 
d="M78 0v80h30v-80h-30zM85 190l-4 510h24l-4 -510h-16z" />
    <glyph glyph-name="quotedbl" unicode="&#x22;" horiz-adv-x="205" 
d="M49 488v212h20v-212h-20zM137 488v212h20v-212h-20z" />
    <glyph glyph-name="quotesingle" unicode="'" horiz-adv-x="118" 
d="M49 488v212h20v-212h-20z" />
    <glyph glyph-name="quotesinglbase" unicode="&#x201a;" horiz-adv-x="186" 
d="M49 -120l29 200h30l-43 -204z" />
    <glyph glyph-name="quotedblbase" unicode="&#x201e;" horiz-adv-x="284" 
d="M49 -120l29 200h30l-43 -204zM147 -120l29 200h30l-43 -204z" />
    <glyph glyph-name="quoteleft" unicode="&#x2018;" horiz-adv-x="185" 
d="M122 696l-29 -200h-30l43 204z" />
    <glyph glyph-name="quoteright" unicode="&#x2019;" horiz-adv-x="185" 
d="M63 500l30 200h29l-42 -204z" />
    <glyph glyph-name="quotedblleft" unicode="&#x201c;" horiz-adv-x="283" 
d="M220 696l-29 -200h-30l42 204zM122 696l-29 -200h-30l43 204z" />
    <glyph glyph-name="quotedblright" unicode="&#x201d;" horiz-adv-x="283" 
d="M63 500l30 200h29l-42 -204zM161 500l29 200h30l-42 -204z" />
    <glyph glyph-name="ampersand" unicode="&#x26;" horiz-adv-x="544" 
d="M391 505v20c0 94 -57 160 -141 160c-83 0 -138 -64 -138 -145c0 -66 35 -89 74 -136l229 -279c25 40 52 91 83 156l17 -10c-32 -68 -60 -122 -86 -163l83 -100l-15 -13l-80 96c-49 -69 -97 -96 -168 -96c-123 0 -191 81 -191 183v29c0 63 31 125 104 195
c-38 43 -69 72 -69 138c0 93 64 165 158 165s161 -74 161 -180v-20h-21zM176 386c-1 0 -1 0 -1 1c-70 -72 -97 -125 -97 -180v-29c0 -93 71 -163 173 -163c62 0 106 27 153 93z" />
    <glyph glyph-name="asterisk" unicode="*" horiz-adv-x="384" 
d="M182 700h20v-122l115 40l7 -19l-115 -39l72 -98l-16 -12l-72 98l-71 -99l-17 11l71 99l-116 37l6 19l116 -37v122z" />
    <glyph glyph-name="plus" unicode="+" horiz-adv-x="494" 
d="M237 540h20v-180h179v-20h-179v-180h-20v180h-179v20h179v180z" />
    <glyph glyph-name="plusminus" unicode="&#xb1;" horiz-adv-x="494" 
d="M237 610h20v-180h179v-20h-179v-180h-20v180h-179v20h179v180zM58 130v20h378v-20h-378z" />
    <glyph glyph-name="slash" unicode="/" horiz-adv-x="353" 
d="M0 -142l335 892l18 -8l-335 -892z" />
    <glyph glyph-name="backslash" unicode="\" horiz-adv-x="353" 
d="M18 750l335 -892l-18 -8l-335 892z" />
    <glyph glyph-name="fraction" unicode="&#x2044;" horiz-adv-x="432" 
d="M0 0l415 710l17 -10l-415 -710z" />
    <glyph glyph-name="at" unicode="@" horiz-adv-x="624" 
d="M546 -125v-20s-107 -30 -207 -30c-191 0 -261 104 -261 260v190c0 154 116 260 267 260c125 0 201 -74 201 -180v-355h-20v77c-26 -51 -82 -82 -152 -82c-91 0 -149 54 -149 130v45c0 76 66 118 160 125l141 9v51c0 92 -67 160 -179 160c-140 0 -249 -100 -249 -240v-190
c0 -144 64 -240 238 -240c95 0 210 30 210 30zM526 145v139l-141 -9c-91 -6 -140 -46 -140 -105v-45c0 -64 50 -110 130 -110c85 0 151 54 151 130z" />
    <glyph glyph-name="parenleft" unicode="(" horiz-adv-x="237" 
d="M212 -146l-13 -9s-121 143 -121 455s120 455 120 455l14 -9s-114 -144 -114 -446s114 -446 114 -446z" />
    <glyph glyph-name="parenright" unicode=")" horiz-adv-x="237" 
d="M38 -155l-13 9s114 144 114 446s-114 446 -114 446l14 9s120 -143 120 -455s-121 -455 -121 -455z" />
    <glyph glyph-name="bracketleft" unicode="[" horiz-adv-x="284" 
d="M78 -150v900h176v-20h-156v-860h156v-20h-176z" />
    <glyph glyph-name="bracketright" unicode="]" horiz-adv-x="283" 
d="M206 750v-900h-177v20h157v860h-157v20h177z" />
    <glyph glyph-name="braceleft" unicode="{" horiz-adv-x="244" 
d="M127 220v-270c0 -58 25 -80 87 -80v-20c-73 0 -107 28 -107 100v270c0 49 -22 70 -78 70v20c56 0 78 21 78 70v270c0 72 34 100 107 100v-20c-62 0 -87 -22 -87 -80v-270c0 -41 -13 -67 -44 -80c31 -13 44 -39 44 -80z" />
    <glyph glyph-name="braceright" unicode="}" horiz-adv-x="244" 
d="M117 380v270c0 58 -25 80 -88 80v20c74 0 108 -28 108 -100v-270c0 -49 22 -70 77 -70v-20c-55 0 -77 -21 -77 -70v-270c0 -72 -34 -100 -108 -100v20c63 0 88 22 88 80v270c0 41 12 67 42 80c-30 13 -42 39 -42 80z" />
    <glyph glyph-name="exclamdown" unicode="&#xa1;" horiz-adv-x="186" 
d="M81 -170l4 510h16l4 -510h-24zM78 450v80h30v-80h-30z" />
    <glyph glyph-name="questiondown" unicode="&#xbf;" horiz-adv-x="469" 
d="M249 530v-80h-30v80h30zM234 -175c-111 0 -175 87 -175 181c0 152 164 246 164 246v88h20v-101s-164 -91 -164 -234c0 -83 55 -160 155 -160c93 0 156 66 156 160v27h20v-27c0 -106 -72 -180 -176 -180z" />
    <glyph glyph-name="guillemotleft" unicode="&#xab;" horiz-adv-x="447" 
d="M212 131l-163 169l163 169l13 -14l-147 -155l147 -155zM376 131l-162 169l162 169l14 -14l-147 -155l147 -155z" />
    <glyph glyph-name="guillemotright" unicode="&#xbb;" horiz-adv-x="447" 
d="M233 300l-162 -169l-14 14l148 155l-148 155l14 14zM398 300l-163 -169l-13 14l148 155l-148 155l13 14z" />
    <glyph glyph-name="guilsinglleft" unicode="&#x2039;" horiz-adv-x="283" 
d="M212 131l-163 169l163 169l13 -15l-147 -154l147 -154z" />
    <glyph glyph-name="guilsinglright" unicode="&#x203a;" horiz-adv-x="282" 
d="M233 300l-162 -169l-14 14l148 155l-147 155l13 14z" />
    <glyph glyph-name="hyphen" unicode="-" horiz-adv-x="273" 
d="M58 315v20h156v-20h-156z" />
    <glyph glyph-name="endash" unicode="&#x2013;" 
d="M58 315v20h361v-20h-361z" />
    <glyph glyph-name="emdash" unicode="&#x2014;" horiz-adv-x="741" 
d="M58 315v20h624v-20h-624z" />
    <glyph glyph-name="periodcentered" unicode="&#xb7;" horiz-adv-x="186" 
d="M78 285v80h30v-80h-30z" />
    <glyph glyph-name="colon" unicode=":" horiz-adv-x="186" 
d="M78 0v80h30v-80h-30zM78 450v80h30v-80h-30z" />
    <glyph glyph-name="semicolon" unicode=";" horiz-adv-x="186" 
d="M78 450v80h30v-80h-30zM49 -120l29 200h30l-43 -204z" />
    <glyph glyph-name="less" unicode="&#x3c;" horiz-adv-x="494" 
d="M68 339v23l358 200v-23l-338 -189l338 -188v-23z" />
    <glyph glyph-name="equal" unicode="=" horiz-adv-x="494" 
d="M68 440v20h358v-20h-358zM68 240v20h358v-20h-358z" />
    <glyph glyph-name="logicalnot" unicode="&#xac;" horiz-adv-x="494" 
d="M58 390v20h378v-200h-20v180h-358z" />
    <glyph glyph-name="greater" unicode="&#x3e;" horiz-adv-x="494" 
d="M426 362v-23l-358 -200v23l337 188l-337 189v23z" />
    <glyph glyph-name="question" unicode="?" horiz-adv-x="469" 
d="M219 0v80h30v-80h-30zM234 705c111 0 176 -87 176 -181c0 -152 -165 -246 -165 -246l1 -88h-20v100s164 92 164 235c0 83 -56 160 -156 160c-92 0 -155 -66 -155 -160v-27h-20v27c0 106 72 180 175 180z" />
    <glyph glyph-name="asciicircum" unicode="^" horiz-adv-x="494" 
d="M235 700h23l155 -279h-23l-144 258l-142 -258h-23z" />
    <glyph glyph-name="underscore" unicode="_" horiz-adv-x="176" 
d="M0 -70v20h176v-20h-176z" />
    <glyph glyph-name="bar" unicode="|" horiz-adv-x="176" 
d="M78 -150v900h20v-900h-20z" />
    <glyph glyph-name="brokenbar" unicode="&#xa6;" horiz-adv-x="176" 
d="M98 350h-20v400h20v-400zM78 250h20v-400h-20v400z" />
    <glyph glyph-name="percent" unicode="%" horiz-adv-x="751" 
d="M307 525c0 -142 -48 -180 -119 -180s-120 38 -120 180s49 180 120 180s119 -38 119 -180zM288 525c0 128 -41 160 -100 160s-100 -32 -100 -160s41 -160 100 -160s100 32 100 160zM159 0l415 710l18 -10l-416 -710zM682 175c0 -142 -49 -180 -120 -180
c-70 0 -119 38 -119 180s49 180 119 180c71 0 120 -38 120 -180zM662 175c0 128 -41 160 -100 160c-58 0 -99 -32 -99 -160s41 -160 99 -160c59 0 100 32 100 160z" />
    <glyph glyph-name="perthousand" unicode="&#x2030;" horiz-adv-x="1047" 
d="M307 525c0 -142 -48 -180 -119 -180s-120 38 -120 180s49 180 120 180s119 -38 119 -180zM288 525c0 128 -41 160 -100 160s-100 -32 -100 -160s41 -160 100 -160s100 32 100 160zM159 0l415 710l18 -10l-416 -710zM682 175c0 -142 -49 -180 -120 -180
c-70 0 -119 38 -119 180s49 180 119 180c71 0 120 -38 120 -180zM662 175c0 128 -41 160 -100 160c-58 0 -99 -32 -99 -160s41 -160 99 -160c59 0 100 32 100 160zM979 175c0 -142 -48 -180 -120 -180c-70 0 -119 38 -119 180s49 180 119 180c72 0 120 -38 120 -180z
M959 175c0 128 -40 160 -100 160c-58 0 -99 -32 -99 -160s41 -160 99 -160c60 0 100 32 100 160z" />
    <glyph glyph-name="ellipsis" unicode="&#x2026;" horiz-adv-x="557" 
d="M78 0v80h30v-80h-30zM264 0v80h29v-80h-29zM449 0v80h30v-80h-30z" />
    <glyph glyph-name="asciitilde" unicode="~" horiz-adv-x="494" 
d="M166 391c75 0 87 -60 155 -60c66 0 99 60 99 60l16 -9s-34 -71 -115 -71c-76 0 -87 60 -155 60c-66 0 -91 -60 -91 -60l-17 9s27 71 108 71z" />
    <glyph glyph-name="dagger" unicode="&#x2020;" horiz-adv-x="371" 
d="M20 500v20h156v230h20v-230h156v-20h-156v-650h-20v650h-156z" />
    <glyph glyph-name="daggerdbl" unicode="&#x2021;" horiz-adv-x="371" 
d="M20 500v20h156v230h20v-230h156v-20h-156v-400h156v-20h-156v-230h-20v230h-156v20h156v400h-156z" />
    <glyph glyph-name="figuredash" unicode="&#x2012;" horiz-adv-x="494" 
d="M28 340v20h438v-20h-438z" />
    <glyph glyph-name="minus" unicode="&#x2212;" horiz-adv-x="494" 
d="M58 340v20h378v-20h-378z" />
    <glyph glyph-name="bullet" unicode="&#x2022;" horiz-adv-x="377" 
d="M80 325c0 60 49 109 109 109s109 -49 109 -109s-49 -109 -109 -109s-109 49 -109 109z" />
    <glyph glyph-name="trademark" unicode="&#x2122;" horiz-adv-x="552" 
d="M291 350h-20v350h19l99 -247l101 247h19v-350h-20v296l-93 -228h-13l-92 228v-296zM223 700v-19h-93v-331h-22v331h-94v19h209z" />
    <glyph glyph-name="section" unicode="&#xa7;" horiz-adv-x="420" 
d="M76 149v-10c0 -73 56 -125 139 -125c76 0 133 44 133 104c0 41 -25 70 -63 88l-150 69c-44 20 -73 58 -73 107c0 43 24 78 61 100c-38 22 -61 56 -61 100c0 72 62 123 143 123c89 0 149 -62 149 -150v-10h-20v10c0 76 -52 130 -129 130c-70 0 -123 -44 -123 -103
c0 -37 20 -70 64 -90l149 -69c45 -21 73 -58 73 -105c0 -43 -24 -78 -63 -100c39 -22 63 -57 63 -101c0 -71 -64 -122 -152 -122c-96 0 -160 60 -160 144v10h20zM285 407l-142 65c-40 -18 -61 -52 -61 -90c0 -37 20 -70 64 -90l137 -64c40 18 65 51 65 91
c0 39 -24 70 -63 88z" />
    <glyph glyph-name="copyright" unicode="&#xa9;" horiz-adv-x="879" 
d="M794 350c0 -281 -146 -355 -355 -355c-208 0 -354 74 -354 355s146 355 354 355c209 0 355 -74 355 -355zM775 350c0 269 -138 335 -336 335c-196 0 -334 -66 -334 -335s138 -335 334 -335c198 0 336 66 336 335zM516 279h21v-16c0 -54 -40 -91 -98 -91
c-57 0 -97 37 -97 91v174c0 54 40 91 97 91c58 0 98 -37 98 -91v-17h-21v19c0 42 -32 70 -77 70c-44 0 -75 -28 -75 -70v-178c0 -42 31 -70 75 -70c45 0 77 28 77 70v18z" />
    <glyph glyph-name="ordfeminine" unicode="&#xaa;" horiz-adv-x="281" 
d="M65 595h-21v18c0 53 40 90 95 90s95 -37 95 -90v-231h-21v40c-17 -25 -47 -43 -86 -43c-53 0 -87 31 -87 78v19c0 48 39 74 96 78l77 4v56c0 42 -31 71 -74 71s-74 -29 -74 -71v-19zM131 397c45 0 80 27 82 68v75l-77 -5c-49 -3 -76 -25 -76 -58v-20c0 -35 28 -60 71 -60
z" />
    <glyph glyph-name="uni00AD" unicode="&#xad;" horiz-adv-x="273" 
d="M58 315v20h156v-20h-156z" />
    <glyph glyph-name="registered" unicode="&#xae;" horiz-adv-x="879" 
d="M794 350c0 -281 -146 -355 -355 -355c-208 0 -354 74 -354 355s146 355 354 355c209 0 355 -74 355 -355zM775 350c0 269 -138 335 -336 335c-196 0 -334 -66 -334 -335s138 -335 334 -335c198 0 336 66 336 335zM382 326v-151h-22v350h85c56 0 95 -37 95 -91v-17
c0 -45 -27 -78 -68 -88l79 -154h-23l-76 151h-70zM444 506h-62v-161h62c45 0 74 28 74 70v21c0 42 -29 70 -74 70z" />
    <glyph glyph-name="degree" unicode="&#xb0;" horiz-adv-x="343" 
d="M60 593c0 62 50 112 111 112c62 0 112 -50 112 -112c0 -61 -50 -111 -112 -111c-61 0 -111 50 -111 111zM80 593c0 -52 39 -91 91 -91c53 0 92 39 92 91c0 53 -39 92 -92 92c-52 0 -91 -39 -91 -92z" />
    <glyph glyph-name="paragraph" unicode="&#xb6;" horiz-adv-x="461" 
d="M255 700v-700h-20v310c-114 0 -195 74 -195 180v30c0 106 81 180 195 180h20zM373 700v-700h-20v700h20z" />
    <glyph glyph-name="ordmasculine" unicode="&#xba;" horiz-adv-x="284" 
d="M241 469c0 -53 -41 -90 -99 -90s-100 37 -100 90v144c0 53 42 90 100 90s99 -37 99 -90v-144zM221 468v146c0 42 -33 71 -79 71c-47 0 -79 -29 -79 -71v-146c0 -42 32 -71 79 -71c46 0 79 29 79 71z" />
    <glyph glyph-name="multiply" unicode="&#xd7;" horiz-adv-x="494" 
d="M373 491l14 -14l-126 -127l126 -127l-14 -14l-126 127l-126 -127l-14 14l126 127l-126 127l14 14l126 -127z" />
    <glyph glyph-name="divide" unicode="&#xf7;" horiz-adv-x="494" 
d="M58 340v20h378v-20h-378zM232 120v80h30v-80h-30zM232 500v80h30v-80h-30z" />
    <glyph glyph-name="afii61352" unicode="&#x2116;" horiz-adv-x="863" 
d="M795 525c0 -142 -49 -180 -120 -180c-70 0 -119 38 -119 180s49 180 119 180c71 0 120 -38 120 -180zM775 525c0 128 -40 160 -100 160c-59 0 -99 -32 -99 -160s40 -160 99 -160c60 0 100 32 100 160zM107 0h-20v700h21l350 -660v660h19v-700h-19l-351 658v-658z" />
    <glyph glyph-name="zero.smcp" horiz-adv-x="430" 
d="M368 263c0 -211 -63 -267 -154 -267c-88 0 -151 56 -151 267c0 210 63 266 151 266c91 0 154 -56 154 -266zM347 263c0 199 -54 247 -133 247c-76 0 -131 -48 -131 -247c0 -200 55 -248 131 -248c79 0 133 48 133 248z" />
    <glyph glyph-name="one.smcp" horiz-adv-x="265" 
d="M35 455l119 70h18v-525h-20v502l-107 -63z" />
    <glyph glyph-name="two.smcp" horiz-adv-x="392" 
d="M50 0v18c233 305 261 324 261 375c0 67 -49 117 -118 117c-68 0 -116 -48 -116 -117v-15h-21v15c0 80 57 136 138 136c79 0 137 -58 137 -137c0 -58 -30 -78 -255 -373h261v-19h-287z" />
    <glyph glyph-name="three.smcp" horiz-adv-x="401" 
d="M206 529c77 0 132 -44 132 -126c0 -65 -34 -113 -89 -128c63 -15 108 -44 108 -128c0 -94 -64 -151 -152 -151c-87 0 -146 56 -146 136v14h21v-16c0 -67 51 -115 124 -115c77 0 132 50 132 132c0 76 -53 117 -131 117h-24v19h6c76 0 131 43 131 120
c0 72 -50 107 -113 107c-74 0 -125 -48 -125 -115v-18h-21v17c0 79 59 135 147 135z" />
    <glyph glyph-name="four.smcp" horiz-adv-x="406" 
d="M368 125h-57v-125h-21v125h-245v18l246 382h20v-381h57v-19zM68 144h222v344z" />
    <glyph glyph-name="five.smcp" horiz-adv-x="394" 
d="M329 506h-210l-21 -203s50 17 102 17c96 0 149 -58 149 -157c0 -104 -59 -167 -150 -167c-81 0 -140 50 -140 122v14h20v-16c0 -59 51 -101 120 -101c75 0 129 52 129 147c0 90 -48 140 -130 140c-54 0 -109 -21 -109 -21l-11 7l23 237h228v-19z" />
    <glyph glyph-name="six.smcp" horiz-adv-x="426" 
d="M217 342c84 0 146 -56 146 -173c0 -118 -62 -173 -148 -173c-85 0 -155 56 -155 262c0 201 66 271 160 271c65 0 111 -32 122 -85h-20c-17 47 -53 66 -99 66c-140 0 -146 -173 -140 -281c14 82 71 113 134 113zM216 322c-65 0 -124 -38 -124 -149
c0 -107 55 -158 126 -158c70 0 125 49 125 154s-55 153 -127 153z" />
    <glyph glyph-name="seven.smcp" horiz-adv-x="324" 
d="M27 525h261v-18l-162 -507h-22l162 506h-239v19z" />
    <glyph glyph-name="eight.smcp" horiz-adv-x="415" 
d="M359 141c0 -92 -65 -145 -152 -145s-151 53 -151 145c0 78 46 119 106 134c-56 15 -88 62 -88 126c0 84 56 128 133 128s133 -44 133 -128c0 -64 -31 -111 -87 -126c59 -15 106 -56 106 -134zM339 142c0 78 -55 122 -132 122c-76 0 -131 -44 -131 -122
c0 -80 55 -127 131 -127s132 47 132 127zM207 510c-62 0 -112 -32 -112 -108c0 -73 46 -119 112 -119c67 0 113 46 113 119c0 76 -50 108 -113 108z" />
    <glyph glyph-name="nine.smcp" horiz-adv-x="419" 
d="M204 198c-82 0 -144 52 -144 166c0 112 61 165 143 165c85 0 153 -56 153 -261c0 -201 -65 -272 -161 -272c-68 0 -118 38 -127 99h20c11 -54 56 -80 107 -80c138 0 144 186 139 287c-15 -74 -67 -104 -130 -104zM204 217c63 0 120 36 120 142c0 103 -53 151 -122 151
c-67 0 -122 -47 -122 -147c0 -99 54 -146 124 -146z" />
    <glyph glyph-name="Euro.smcp" horiz-adv-x="432" 
d="M23 300v17h46v77c0 80 63 135 152 135c90 0 152 -55 152 -135v-25h-20v26c0 68 -55 115 -132 115s-131 -47 -131 -115v-78h160v-17h-160v-73h160v-17h-160v-80c0 -68 54 -115 131 -115s132 48 132 115v25h20v-24c0 -80 -62 -135 -152 -135c-89 0 -152 55 -152 135v79h-46
v17h46v73h-46z" />
    <glyph glyph-name="sterling.smcp" horiz-adv-x="312" 
d="M30 233v17h50c-14 46 -28 90 -28 140c0 101 55 139 117 139c70 0 120 -50 120 -120v-12h-20v12c0 58 -41 101 -98 101c-52 0 -99 -37 -99 -118c0 -47 15 -93 30 -142h130v-17h-125c17 -61 31 -129 14 -214h168v-19h-260v19h72c16 89 1 154 -16 214h-55z" />
    <glyph glyph-name="yen.smcp" horiz-adv-x="367" 
d="M71 150v17h101v56l-157 302h22l146 -283l146 283h23l-159 -302v-56h101v-17h-101v-59h101v-17h-101v-74h-21v74h-101v17h101v59h-101z" />
    <glyph glyph-name="uni20B4.smcp" horiz-adv-x="370" 
d="M36 209v18h286v-18h-220c-22 -21 -34 -52 -34 -84c0 -65 48 -110 113 -110c68 0 114 48 114 116h21c0 -79 -54 -135 -135 -135c-77 0 -133 52 -133 130c0 32 9 61 28 83h-40zM36 299v17h219c22 21 34 52 34 85c0 64 -45 109 -105 109c-64 0 -107 -48 -107 -116h-21
c0 80 52 135 128 135c73 0 126 -53 126 -128c0 -34 -11 -63 -29 -85h41v-17h-286z" />
    <glyph glyph-name="numbersign.smcp" horiz-adv-x="479" 
d="M269 0l19 119h-148l-19 -119h-19l19 119h-91l3 19h91l40 250h-90l2 18h91l19 119h18l-19 -119h149l19 119h19l-19 -119h89l-3 -18h-89l-40 -250h88l-2 -19h-89l-19 -119h-19zM182 388l-39 -250h148l40 250h-149z" />
    <glyph glyph-name="zero.fitted.smcp" horiz-adv-x="402" 
d="M347 263c0 -211 -60 -267 -146 -267s-146 56 -146 267c0 210 60 266 146 266s146 -56 146 -266zM326 263c0 199 -51 247 -125 247s-126 -48 -126 -247c0 -200 52 -248 126 -248s125 48 125 248z" />
    <glyph glyph-name="one.fitted.smcp" horiz-adv-x="402" 
d="M61 455l139 70h19v-506h133v-19h-284v19h131v483l-128 -63z" />
    <glyph glyph-name="two.fitted.smcp" horiz-adv-x="401" 
d="M52 0v18c238 305 266 324 266 375c0 67 -50 117 -120 117s-119 -48 -119 -117v-15h-20v15c0 80 57 136 139 136c81 0 140 -58 140 -137c0 -58 -32 -78 -260 -373h266v-19h-292z" />
    <glyph glyph-name="three.fitted.smcp" horiz-adv-x="401" 
d="M205 529c79 0 134 -44 134 -126c0 -65 -34 -113 -90 -128c64 -15 108 -44 108 -128c0 -94 -64 -151 -152 -151s-147 56 -147 136v14h20v-16c0 -67 52 -115 126 -115c77 0 134 50 134 132c0 76 -55 117 -133 117h-24v19h5c78 0 133 43 133 120c0 72 -51 107 -114 107
c-76 0 -127 -48 -127 -115v-18h-20v17c0 79 59 135 147 135z" />
    <glyph glyph-name="four.fitted.smcp" horiz-adv-x="401" 
d="M364 125h-57v-125h-20v125h-244v18l244 380v2h20v-381h57v-19zM67 144h220v343z" />
    <glyph glyph-name="five.fitted.smcp" horiz-adv-x="401" 
d="M334 506h-212l-21 -203s50 17 102 17c98 0 151 -58 151 -157c0 -104 -58 -167 -151 -167c-83 0 -142 50 -142 122v14h20v-16c0 -59 52 -101 122 -101c75 0 130 52 130 147c0 90 -48 140 -131 140c-54 0 -110 -21 -110 -21l-12 7l24 237h230v-19z" />
    <glyph glyph-name="six.fitted.smcp" horiz-adv-x="401" 
d="M204 342c80 0 142 -56 142 -173c0 -118 -61 -173 -144 -173c-82 0 -150 56 -150 262c0 201 64 271 155 271c63 0 107 -32 117 -85h-20c-16 47 -51 66 -94 66c-134 0 -140 -173 -135 -281c15 82 69 113 129 113zM202 322c-61 0 -118 -38 -118 -149
c0 -107 53 -158 121 -158c67 0 120 49 120 154s-54 153 -123 153z" />
    <glyph glyph-name="seven.fitted.smcp" horiz-adv-x="402" 
d="M46 525h299v-18l-188 -507h-21l187 506h-277v19z" />
    <glyph glyph-name="eight.fitted.smcp" horiz-adv-x="402" 
d="M350 141c0 -92 -63 -145 -149 -145s-149 53 -149 145c0 78 45 119 104 134c-54 15 -86 62 -86 126c0 84 55 128 131 128s131 -44 131 -128c0 -64 -31 -111 -85 -126c57 -15 103 -56 103 -134zM329 142c0 78 -53 122 -128 122s-129 -44 -129 -122c0 -80 55 -127 129 -127
c75 0 128 47 128 127zM201 510c-62 0 -110 -32 -110 -108c0 -73 45 -119 110 -119s110 46 110 119c0 76 -49 108 -110 108z" />
    <glyph glyph-name="nine.fitted.smcp" horiz-adv-x="401" 
d="M195 198c-80 0 -140 52 -140 166c0 112 59 165 140 165c82 0 149 -56 149 -261c0 -201 -65 -272 -157 -272c-67 0 -116 38 -125 99h21c11 -54 54 -80 103 -80c135 0 140 186 136 287c-15 -74 -67 -104 -127 -104zM196 217c60 0 116 36 116 142c0 103 -52 151 -119 151
c-66 0 -118 -47 -118 -147c0 -99 52 -146 121 -146z" />
    <glyph glyph-name="exclam.smcp" horiz-adv-x="163" 
d="M68 0v63h27v-63h-27zM74 144l-4 381h23l-3 -381h-16z" />
    <glyph glyph-name="ampersand.smcp" horiz-adv-x="440" 
d="M309 379v16c0 68 -43 115 -106 115c-62 0 -104 -45 -104 -105c0 -47 26 -65 56 -99l175 -206c19 29 39 67 62 114l17 -10c-25 -50 -45 -89 -66 -120l65 -75l-16 -13l-61 71c-38 -51 -75 -71 -130 -71c-96 0 -149 60 -149 137v23c0 47 25 93 80 145c-29 32 -53 55 -53 104
c0 71 50 124 124 124c75 0 127 -55 127 -134v-16h-21zM202 15c47 0 80 20 116 68l-173 203c-52 -51 -73 -90 -73 -130v-23c0 -68 53 -118 130 -118z" />
    <glyph glyph-name="slash.smcp" horiz-adv-x="264" 
d="M8 -30l230 593l18 -8l-230 -593z" />
    <glyph glyph-name="backslash.smcp" horiz-adv-x="267" 
d="M26 563l231 -593l-18 -8l-231 593z" />
    <glyph glyph-name="at.smcp" horiz-adv-x="501" 
d="M435 38v-20s-84 -22 -162 -22c-150 0 -206 79 -206 195v143c0 116 90 195 209 195c98 0 159 -56 159 -135v-266h-21v53c-22 -34 -64 -57 -116 -57c-70 0 -115 39 -115 97v35c0 58 53 90 125 95l106 6v38c0 66 -51 115 -137 115c-107 0 -189 -73 -189 -176v-143
c0 -106 49 -176 183 -176c74 0 164 23 164 23zM302 143c61 0 109 36 112 88v107l-106 -6c-68 -4 -105 -33 -105 -75v-36c0 -46 38 -78 99 -78z" />
    <glyph glyph-name="parenleft.smcp" horiz-adv-x="202" 
d="M175 -33l-12 -9s-96 95 -96 305c0 209 95 304 95 304l13 -9s-88 -96 -88 -295c0 -200 88 -296 88 -296z" />
    <glyph glyph-name="parenright.smcp" horiz-adv-x="202" 
d="M39 -42l-12 9s88 96 88 296c0 199 -88 295 -88 295l13 9s96 -95 96 -304c0 -210 -97 -305 -97 -305z" />
    <glyph glyph-name="bracketleft.smcp" horiz-adv-x="237" 
d="M67 -38v601h139v-19h-119v-563h119v-19h-139z" />
    <glyph glyph-name="bracketright.smcp" horiz-adv-x="237" 
d="M170 563v-601h-139v19h119v563h-119v19h139z" />
    <glyph glyph-name="braceleft.smcp" horiz-adv-x="208" 
d="M111 202v-162c0 -42 19 -59 67 -59v-19c-59 0 -87 23 -87 78v162c0 35 -18 51 -60 51v19c42 0 60 16 60 52v161c0 55 28 78 87 78v-19c-48 0 -67 -17 -67 -59v-161c0 -31 -11 -52 -35 -62c24 -10 35 -30 35 -60z" />
    <glyph glyph-name="braceright.smcp" horiz-adv-x="208" 
d="M98 324v161c0 42 -20 59 -67 59v19c59 0 87 -23 87 -78v-161c0 -36 17 -52 60 -52v-19c-43 0 -60 -16 -60 -51v-162c0 -55 -28 -78 -87 -78v19c47 0 67 17 67 59v162c0 30 10 50 34 60c-24 10 -34 31 -34 62z" />
    <glyph glyph-name="exclamdown.smcp" horiz-adv-x="163" 
d="M70 0l4 382h16l3 -382h-23zM68 463v62h27v-62h-27z" />
    <glyph glyph-name="questiondown.smcp" horiz-adv-x="381" 
d="M204 525v-62h-28v62h28zM190 -4c-86 0 -138 64 -138 136c0 114 127 183 127 183v66h20v-77s-126 -68 -126 -173c0 -61 42 -116 117 -116c70 0 117 48 117 115v21h21v-21c0 -79 -56 -134 -138 -134z" />
    <glyph glyph-name="question.smcp" horiz-adv-x="381" 
d="M176 0v63h28v-63h-28zM190 529c86 0 138 -64 138 -136c0 -114 -126 -183 -126 -183v-66h-21v77s126 68 126 173c0 61 -42 116 -117 116c-70 0 -117 -47 -117 -115v-21h-21v21c0 79 57 134 138 134z" />
    <glyph glyph-name="bar.smcp" horiz-adv-x="152" 
d="M67 -38v601h18v-601h-18z" />
    <glyph glyph-name="brokenbar.smcp" horiz-adv-x="152" 
d="M85 300h-18v263h18v-263zM67 225h18v-263h-18v263z" />
    <glyph glyph-name="percent.smcp" horiz-adv-x="601" 
d="M248 394c0 -107 -39 -135 -94 -135c-56 0 -95 28 -95 135c0 106 39 135 95 135c55 0 94 -29 94 -135zM229 394c0 94 -31 117 -75 117c-45 0 -76 -23 -76 -117c0 -95 31 -118 76 -118c44 0 75 23 75 118zM131 0l322 534l17 -9l-323 -534zM541 131
c0 -106 -39 -135 -95 -135c-55 0 -94 29 -94 135c0 107 39 136 94 136c56 0 95 -29 95 -136zM522 131c0 94 -31 117 -76 117c-44 0 -74 -23 -74 -117s30 -117 74 -117c45 0 76 23 76 117z" />
    <glyph glyph-name="perthousand.smcp" horiz-adv-x="832" 
d="M248 394c0 -107 -39 -135 -94 -135c-56 0 -95 28 -95 135c0 106 39 135 95 135c55 0 94 -29 94 -135zM229 394c0 94 -31 117 -75 117c-45 0 -76 -23 -76 -117c0 -95 31 -118 76 -118c44 0 75 23 75 118zM131 0l322 534l17 -9l-323 -534zM541 131
c0 -106 -39 -135 -95 -135c-55 0 -94 29 -94 135c0 107 39 136 94 136c56 0 95 -29 95 -136zM522 131c0 94 -31 117 -76 117c-44 0 -74 -23 -74 -117s30 -117 74 -117c45 0 76 23 76 117zM773 131c0 -106 -38 -135 -94 -135s-94 29 -94 135c0 107 38 136 94 136
s94 -29 94 -136zM754 131c0 94 -30 117 -75 117c-44 0 -75 -23 -75 -117s31 -117 75 -117c45 0 75 23 75 117z" />
    <glyph glyph-name="dagger.smcp" horiz-adv-x="307" 
d="M23 373v19h121v133h20v-133h120v-19h-120v-373h-20v373h-121z" />
    <glyph glyph-name="daggerdbl.smcp" horiz-adv-x="307" 
d="M23 373v19h121v133h20v-133h120v-19h-120v-221h120v-18h-120v-134h-20v134h-121v18h121v221h-121z" />
    <glyph glyph-name="section.smcp" horiz-adv-x="341" 
d="M70 113v-9c0 -53 41 -90 104 -90c58 0 100 32 100 75c0 30 -18 51 -47 64l-115 51c-35 15 -58 45 -58 82c0 32 19 58 47 74c-30 17 -47 44 -47 76c0 55 49 93 112 93c71 0 118 -46 118 -112v-9h-20v9c0 55 -39 93 -98 93c-52 0 -92 -31 -92 -74c0 -27 15 -51 48 -65
l115 -51c35 -16 58 -45 58 -81c0 -32 -19 -58 -48 -74c30 -17 48 -44 48 -76c0 -55 -51 -93 -120 -93c-76 0 -125 45 -125 108v9h20zM226 304l-105 46c-30 -12 -47 -37 -47 -64s15 -52 48 -66l103 -45c30 12 49 36 49 65c0 28 -19 51 -48 64z" />
    <glyph glyph-name="paragraph.smcp" horiz-adv-x="376" 
d="M209 525v-525h-19v231c-89 0 -152 55 -152 135v23c0 80 63 136 152 136h19zM302 525v-525h-18v525h18z" />
    <glyph glyph-name="afii61352.smcp" horiz-adv-x="686" 
d="M626 394c0 -107 -38 -135 -94 -135s-94 28 -94 135c0 106 38 135 94 135s94 -29 94 -135zM95 0h-21v525h21l264 -484v484h20v-525h-20l-264 482v-482zM607 394c0 94 -31 117 -75 117s-75 -23 -75 -117c0 -95 31 -118 75 -118s75 23 75 118z" />
    <glyph glyph-name="afii10017" unicode="&#x410;" 
d="M30 0h-21l219 700h22l219 -700h-21l-64 202h-291zM238 666l-139 -444h279z" />
    <glyph glyph-name="afii10018" unicode="&#x411;" horiz-adv-x="505" 
d="M259 0h-172v700h312v-20h-291v-285h151c115 0 189 -74 189 -180v-35c0 -106 -74 -180 -189 -180zM259 375h-151v-355h151c103 0 170 66 170 160v35c0 94 -67 160 -170 160z" />
    <glyph glyph-name="afii10019" unicode="&#x412;" horiz-adv-x="497" 
d="M87 0v700h148c115 0 189 -61 189 -148v-47c0 -66 -42 -117 -112 -138c85 -18 136 -79 136 -161v-39c0 -98 -73 -167 -189 -167h-172zM259 355h-151v-335h151c103 0 170 61 170 149v38c0 87 -67 148 -170 148zM235 680h-127v-305h127c103 0 169 54 169 129v47
c0 75 -66 129 -169 129z" />
    <glyph glyph-name="afii10020" unicode="&#x413;" horiz-adv-x="385" 
d="M365 700v-20h-257v-680h-21v700h278z" />
    <glyph glyph-name="afii10021" unicode="&#x414;" horiz-adv-x="604" 
d="M21 -150v170h52c42 35 89 70 89 605v75h329v-680h93v-170h-20v150h-522v-150h-21zM182 625c0 -460 -29 -562 -86 -605h375v660h-289v-55z" />
    <glyph glyph-name="afii10022" unicode="&#x415;" horiz-adv-x="443" 
d="M399 20v-20h-312v700h312v-20h-291v-325h268v-20h-268v-315h291z" />
    <glyph glyph-name="afii10023" unicode="&#x401;" horiz-adv-x="443" 
d="M399 20v-20h-312v700h312v-20h-291v-325h268v-20h-268v-315h291zM147 783v51h20v-51h-20zM294 783v51h20v-51h-20z" />
    <glyph glyph-name="afii10024" unicode="&#x416;" horiz-adv-x="708" 
d="M345 0v700h20v-700h-20zM665 0l-271 362l257 338h25l-256 -338l270 -362h-25zM315 362l-270 -362h-26l271 362l-257 338h26z" />
    <glyph glyph-name="afii10025" unicode="&#x417;" horiz-adv-x="507" 
d="M261 705c103 0 173 -63 173 -153v-47c0 -66 -46 -117 -117 -138c85 -17 141 -77 141 -156v-49c0 -98 -81 -167 -194 -167c-117 0 -196 74 -196 180v30h20v-30c0 -94 71 -160 176 -160c101 0 174 61 174 149v48c0 84 -72 143 -175 143h-69v20h45c102 0 175 54 175 129v47
c0 78 -62 134 -153 134c-100 0 -173 -66 -173 -160v-32h-20v32c0 106 81 180 193 180z" />
    <glyph glyph-name="afii10026" unicode="&#x418;" horiz-adv-x="565" 
d="M108 0h-21v700h21v-657l350 657h20v-700h-21v658z" />
    <glyph glyph-name="afii10027" unicode="&#x419;" horiz-adv-x="565" 
d="M108 0h-21v700h21v-657l350 657h20v-700h-21v658zM378 880h21v-16c0 -53 -46 -90 -113 -90c-66 0 -112 37 -112 90v16h20v-15c0 -41 38 -71 92 -71c55 0 92 30 92 71v15z" />
    <glyph glyph-name="afii10028" unicode="&#x41a;" horiz-adv-x="470" 
d="M87 0v700h21v-700h-21zM424 0l-280 362l267 338h27l-267 -338l280 -362h-27z" />
    <glyph glyph-name="afii10029" unicode="&#x41b;" horiz-adv-x="555" 
d="M468 700v-700h-20v680h-291v-55c0 -590 -28 -630 -138 -630h-6v20h6c86 0 118 19 118 610v75h331z" />
    <glyph glyph-name="afii10030" unicode="&#x41c;" horiz-adv-x="651" 
d="M107 0h-20v700h20l217 -527l219 527h20v-700h-20v648l-210 -507h-17l-209 507v-648z" />
    <glyph glyph-name="afii10031" unicode="&#x41d;" horiz-adv-x="565" 
d="M108 0h-21v700h21v-345h350v345h19v-700h-19v335h-350v-335z" />
    <glyph glyph-name="afii10032" unicode="&#x41e;" horiz-adv-x="546" 
d="M468 175c0 -106 -80 -180 -195 -180s-195 74 -195 180v350c0 106 80 180 195 180s195 -74 195 -180v-350zM448 175v350c0 94 -72 160 -175 160s-175 -66 -175 -160v-350c0 -94 72 -160 175 -160s175 66 175 160z" />
    <glyph glyph-name="afii10033" unicode="&#x41f;" horiz-adv-x="565" 
d="M108 0h-21v700h390v-700h-19v680h-350v-680z" />
    <glyph glyph-name="afii10034" unicode="&#x420;" horiz-adv-x="505" 
d="M260 310h-152v-310h-21v700h173c114 0 189 -74 189 -180v-30c0 -106 -75 -180 -189 -180zM260 680h-152v-350h152c103 0 168 66 168 160v30c0 94 -65 160 -168 160z" />
    <glyph glyph-name="afii10035" unicode="&#x421;" horiz-adv-x="536" 
d="M448 205h20v-30c0 -106 -80 -180 -195 -180s-195 74 -195 180v350c0 106 80 180 195 180s195 -74 195 -180v-32h-20v32c0 94 -72 160 -175 160s-175 -66 -175 -160v-350c0 -94 72 -160 175 -160s175 66 175 160v30z" />
    <glyph glyph-name="afii10036" unicode="&#x422;" horiz-adv-x="469" 
d="M449 700v-20h-205v-680h-20v680h-204v20h429z" />
    <glyph glyph-name="afii10037" unicode="&#x423;" horiz-adv-x="439" 
d="M9 700h21l200 -466l178 466h22l-242 -631c-17 -44 -52 -74 -102 -74h-24v20h24c39 0 71 27 83 60l51 134z" />
    <glyph glyph-name="afii10038" unicode="&#x424;" horiz-adv-x="625" 
d="M387 70h-65v-75h-19v75h-65c-109 0 -179 74 -179 180v200c0 106 70 180 179 180h65v75h19v-75h65c109 0 179 -74 179 -180v-200c0 -106 -70 -180 -179 -180zM79 250c0 -94 62 -160 159 -160h65v520h-65c-97 0 -159 -66 -159 -160v-200zM387 610h-65v-520h65
c97 0 159 66 159 160v200c0 94 -62 160 -159 160z" />
    <glyph glyph-name="afii10039" unicode="&#x425;" horiz-adv-x="469" 
d="M411 700h24l-188 -338l202 -362h-25l-190 343l-190 -343h-25l202 362l-187 338h25l175 -319z" />
    <glyph glyph-name="afii10040" unicode="&#x426;" horiz-adv-x="590" 
d="M458 700h19v-680h94v-170h-20v150h-464v700h21v-680h350v680z" />
    <glyph glyph-name="afii10041" unicode="&#x427;" horiz-adv-x="505" 
d="M79 700v-190c0 -94 59 -160 181 -160c63 0 119 6 140 8v342h20v-700h-20v338c-20 -2 -78 -8 -140 -8c-134 0 -201 74 -201 180v190h20z" />
    <glyph glyph-name="afii10042" unicode="&#x428;" horiz-adv-x="857" 
d="M750 700h20v-700h-683v700h21v-680h311v680h20v-680h311v680z" />
    <glyph glyph-name="afii10043" unicode="&#x429;" horiz-adv-x="882" 
d="M750 700h20v-680h93v-170h-21v150h-755v700h21v-680h311v680h20v-680h311v680z" />
    <glyph glyph-name="afii10044" unicode="&#x42a;" horiz-adv-x="603" 
d="M20 680v20h186v-310h151c115 0 189 -74 189 -180v-30c0 -106 -74 -180 -189 -180h-172v680h-165zM357 370h-151v-350h151c103 0 169 66 169 160v30c0 94 -66 160 -169 160z" />
    <glyph glyph-name="afii10045" unicode="&#x42b;" horiz-adv-x="653" 
d="M87 0v700h21v-310h151c115 0 190 -74 190 -180v-30c0 -106 -75 -180 -190 -180h-172zM259 370h-151v-350h151c103 0 169 66 169 160v30c0 94 -66 160 -169 160zM546 0v700h19v-700h-19z" />
    <glyph glyph-name="afii10046" unicode="&#x42c;" horiz-adv-x="507" 
d="M87 0v700h21v-310h151c115 0 190 -74 190 -180v-30c0 -106 -75 -180 -190 -180h-172zM259 370h-151v-350h151c103 0 169 66 169 160v30c0 94 -66 160 -169 160z" />
    <glyph glyph-name="afii10047" unicode="&#x42d;" horiz-adv-x="536" 
d="M77 205h21v-30c0 -94 71 -160 174 -160s176 66 176 160v165h-210v20h210v165c0 94 -73 160 -176 160s-174 -66 -174 -160v-32h-21v32c0 106 81 180 195 180c115 0 195 -74 195 -180v-350c0 -106 -80 -180 -195 -180c-114 0 -195 74 -195 180v30z" />
    <glyph glyph-name="afii10048" unicode="&#x42e;" horiz-adv-x="711" 
d="M108 0h-21v700h21v-345h155v170c0 106 76 180 185 180s186 -74 186 -180v-350c0 -106 -77 -180 -186 -180s-185 74 -185 180v160h-155v-335zM614 175v350c0 94 -68 160 -166 160c-97 0 -165 -66 -165 -160v-350c0 -94 68 -160 165 -160c98 0 166 66 166 160z" />
    <glyph glyph-name="afii10049" unicode="&#x42f;" horiz-adv-x="516" 
d="M432 700v-700h-20v310h-148l-169 -310h-22l168 311c-98 11 -161 82 -161 179v30c0 106 75 180 189 180h163zM101 490c0 -94 66 -160 168 -160h143v350h-143c-102 0 -168 -66 -168 -160v-30z" />
    <glyph glyph-name="afii10050" unicode="&#x490;" horiz-adv-x="366" 
d="M108 0h-21v700h253v130h21v-150h-253v-680z" />
    <glyph glyph-name="afii10051" unicode="&#x402;" horiz-adv-x="642" 
d="M390 -5v20c103 0 175 74 175 180v15c0 94 -59 160 -181 160c-63 0 -118 -6 -140 -9v-361h-20v680h-204v20h429v-20h-205v-299c21 3 78 9 140 9c133 0 201 -74 201 -180v-15c0 -118 -80 -200 -195 -200z" />
    <glyph glyph-name="afii10052" unicode="&#x403;" horiz-adv-x="385" 
d="M365 700v-20h-257v-680h-21v700h278zM127 794l139 79l11 -16l-144 -74z" />
    <glyph glyph-name="afii10053" unicode="&#x404;" horiz-adv-x="536" 
d="M439 205h19v-30c0 -106 -80 -180 -195 -180c-114 0 -195 74 -195 180v350c0 106 81 180 195 180c115 0 195 -74 195 -180v-32h-19v32c0 94 -73 160 -176 160c-102 0 -174 -66 -174 -160v-165h239v-20h-239v-165c0 -94 72 -160 174 -160c103 0 176 66 176 160v30z" />
    <glyph glyph-name="afii10054" unicode="&#x405;" horiz-adv-x="482" 
d="M394 505v20c0 94 -64 160 -157 160c-90 0 -154 -62 -154 -150c0 -59 29 -108 76 -132l179 -91c53 -27 86 -80 86 -146c0 -101 -76 -171 -184 -171c-112 0 -187 74 -187 180v25h20v-25c0 -94 67 -160 167 -160c96 0 163 62 163 151c0 57 -28 105 -76 130l-178 91
c-53 28 -87 81 -87 148c0 100 74 170 175 170c105 0 177 -74 177 -180v-20h-20z" />
    <glyph glyph-name="afii10055" unicode="&#x406;" horiz-adv-x="195" 
d="M87 0v700h21v-700h-21z" />
    <glyph glyph-name="afii10056" unicode="&#x407;" horiz-adv-x="195" 
d="M14 783v51h20v-51h-20zM161 783v51h20v-51h-20zM87 0v700h21v-700h-21z" />
    <glyph glyph-name="afii10057" unicode="&#x408;" horiz-adv-x="306" 
d="M10 15h23c103 0 175 74 175 180v505h20v-505c0 -118 -80 -200 -195 -200h-23v20z" />
    <glyph glyph-name="afii10058" unicode="&#x409;" horiz-adv-x="868" 
d="M13 -5v20h6c86 0 118 19 118 610v75h331v-310h152c115 0 189 -74 189 -180v-30c0 -106 -74 -180 -189 -180h-172v680h-291v-55c0 -590 -28 -630 -138 -630h-6zM620 370h-152v-350h152c103 0 169 66 169 160v30c0 94 -66 160 -169 160z" />
    <glyph glyph-name="afii10059" unicode="&#x40a;" horiz-adv-x="876" 
d="M87 0v700h21v-325h350v325h19v-325h152c116 0 189 -74 189 -180v-15c0 -106 -73 -180 -189 -180h-171v355h-350v-355h-21zM629 355h-152v-335h152c103 0 170 66 170 160v15c0 94 -67 160 -170 160z" />
    <glyph glyph-name="afii10060" unicode="&#x40b;" horiz-adv-x="641" 
d="M565 0v210c0 94 -72 160 -175 160c-77 0 -126 -6 -146 -9v-361h-20v680h-204v20h429v-20h-205v-299c19 3 70 9 146 9c115 0 195 -74 195 -180v-210h-20z" />
    <glyph glyph-name="afii10061" unicode="&#x40c;" horiz-adv-x="470" 
d="M170 794l139 79l11 -16l-144 -74zM87 0v700h21v-700h-21zM424 0l-280 362l267 338h27l-267 -338l280 -362h-27z" />
    <glyph glyph-name="afii10062" unicode="&#x40e;" horiz-adv-x="439" 
d="M9 700h21l200 -466l178 466h22l-242 -631c-16 -44 -52 -74 -102 -74h-24v20h24c39 0 71 27 83 60l51 134zM311 880h20v-16c0 -53 -46 -90 -112 -90s-112 37 -112 90v16h20v-15c0 -41 38 -71 92 -71s92 30 92 71v15z" />
    <glyph glyph-name="afii10145" unicode="&#x40f;" horiz-adv-x="564" 
d="M87 700h21v-680h350v680h19v-700h-185v-150h-19v150h-186v700z" />
    <glyph glyph-name="uni040D" unicode="&#x40d;" horiz-adv-x="565" 
d="M108 0h-21v700h21v-657l350 657h20v-700h-21v658zM208 873l139 -79l-6 -11l-143 74z" />
    <glyph glyph-name="uni0400" unicode="&#x400;" horiz-adv-x="443" 
d="M399 20v-20h-312v700h312v-20h-291v-325h268v-20h-268v-315h291zM157 873l139 -79l-6 -11l-143 74z" />
    <glyph glyph-name="uni04D8" unicode="&#x4d8;" horiz-adv-x="536" 
d="M78 175v175h370v175c0 94 -72 160 -175 160s-175 -66 -175 -160v-32h-20v32c0 106 80 180 195 180s195 -74 195 -180v-350c0 -106 -80 -180 -195 -180s-195 74 -195 180zM98 330v-155c0 -94 72 -160 175 -160s175 66 175 160v155h-350z" />
    <glyph glyph-name="afii10017.smcp" horiz-adv-x="389" 
d="M36 0h-22l169 525h23l168 -525h-21l-47 147h-223zM194 495l-105 -328h210z" />
    <glyph glyph-name="afii10018.smcp" horiz-adv-x="407" 
d="M210 0h-136v525h245v-19h-224v-208h115c89 0 147 -55 147 -135v-28c0 -80 -58 -135 -147 -135zM210 279h-115v-259h115c77 0 127 47 127 114v30c0 67 -50 115 -127 115z" />
    <glyph glyph-name="afii10019.smcp" horiz-adv-x="402" 
d="M74 0v525h118c89 0 147 -46 147 -112v-35c0 -49 -32 -87 -84 -103c63 -15 102 -61 102 -120v-30c0 -73 -58 -125 -147 -125h-136zM210 264h-115v-244h115c77 0 127 43 127 107v30c0 62 -50 107 -127 107zM191 506h-96v-223h96c78 0 127 39 127 93v36c0 54 -49 94 -127 94
z" />
    <glyph glyph-name="afii10020.smcp" horiz-adv-x="315" 
d="M293 525v-19h-198v-506h-21v525h219z" />
    <glyph glyph-name="afii10021.smcp" horiz-adv-x="486" 
d="M24 -112v132h43c32 26 66 65 66 446v59h257v-505h72v-132h-21v112h-396v-112h-21zM153 466c0 -325 -20 -411 -62 -446h279v486h-217v-40z" />
    <glyph glyph-name="afii10022.smcp" horiz-adv-x="354" 
d="M313 20v-20h-239v525h239v-19h-218v-237h199v-19h-199v-230h218z" />
    <glyph glyph-name="afii10023.smcp" horiz-adv-x="354" 
d="M74 0v525h239v-19h-218v-237h199v-19h-199v-230h218v-20h-239zM93 584v51h20v-51h-20zM240 584v51h20v-51h-20z" />
    <glyph glyph-name="afii10024.smcp" horiz-adv-x="567" 
d="M273 0v525h22v-525h-22zM521 0l-205 272l195 253h24l-194 -253l205 -272h-25zM253 272l-206 -272h-25l206 272l-194 253h24z" />
    <glyph glyph-name="afii10025.smcp" horiz-adv-x="409" 
d="M210 529c80 0 135 -47 135 -115v-36c0 -49 -35 -87 -89 -103c65 -14 108 -58 108 -116v-38c0 -73 -64 -125 -152 -125c-91 0 -153 55 -153 135v24h21v-25c0 -67 53 -115 132 -115c76 0 131 44 131 108v38c0 60 -54 103 -131 103h-54v19h35c77 0 131 39 131 93v37
c0 56 -46 97 -114 97c-76 0 -130 -47 -130 -115v-26h-21v25c0 80 62 135 151 135z" />
    <glyph glyph-name="afii10026.smcp" horiz-adv-x="454" 
d="M94 0h-20v525h21v-484l265 484h19v-525h-21v482z" />
    <glyph glyph-name="afii10027.smcp" horiz-adv-x="454" 
d="M94 0h-20v525h21v-484l265 484h19v-525h-21v482zM299 660h19v-12c0 -40 -37 -68 -89 -68s-88 28 -88 68v12h19v-12c0 -29 29 -51 69 -51c41 0 70 22 70 51v12z" />
    <glyph glyph-name="afii10028.smcp" horiz-adv-x="382" 
d="M74 0v525h21v-525h-21zM334 0l-213 272l203 253h26l-203 -253l213 -272h-26z" />
    <glyph glyph-name="afii10029.smcp" horiz-adv-x="447" 
d="M18 15h5c66 0 90 16 90 451v59h260v-525h-20v506h-220v-40c0 -438 -21 -470 -110 -470h-5v19z" />
    <glyph glyph-name="afii10030.smcp" horiz-adv-x="520" 
d="M95 0h-21v525h20l165 -387l167 387h20v-525h-20v477l-159 -372h-15l-157 367v-472z" />
    <glyph glyph-name="afii10031.smcp" horiz-adv-x="453" 
d="M95 0h-21v525h21v-256h263v256h21v-525h-21v250h-263v-250z" />
    <glyph glyph-name="afii10032.smcp" horiz-adv-x="437" 
d="M371 131c0 -80 -63 -135 -152 -135c-90 0 -152 55 -152 135v263c0 80 62 135 152 135c89 0 152 -55 152 -135v-263zM350 130v265c0 68 -54 115 -131 115s-131 -47 -131 -115v-265c0 -68 54 -115 131 -115s131 48 131 115z" />
    <glyph glyph-name="afii10033.smcp" horiz-adv-x="453" 
d="M95 0h-21v525h305v-525h-21v506h-263v-506z" />
    <glyph glyph-name="afii10034.smcp" horiz-adv-x="408" 
d="M210 231h-115v-231h-21v525h136c89 0 147 -55 147 -135v-24c0 -80 -58 -135 -147 -135zM209 506h-114v-256h114c78 0 127 47 127 115v26c0 68 -49 115 -127 115z" />
    <glyph glyph-name="afii10035.smcp" horiz-adv-x="430" 
d="M350 155h21v-24c0 -80 -63 -135 -152 -135c-90 0 -152 55 -152 135v263c0 80 62 135 152 135c89 0 152 -55 152 -135v-25h-21v26c0 68 -54 115 -131 115s-131 -47 -131 -115v-265c0 -68 54 -115 131 -115s131 48 131 115v25z" />
    <glyph glyph-name="afii10036.smcp" horiz-adv-x="378" 
d="M355 525v-19h-156v-506h-20v506h-156v19h332z" />
    <glyph glyph-name="afii10037.smcp" horiz-adv-x="359" 
d="M15 525h21l151 -343l135 343h22l-185 -470c-13 -35 -42 -59 -83 -59h-19v21h19c30 0 54 19 63 43l38 97z" />
    <glyph glyph-name="afii10038.smcp" horiz-adv-x="504" 
d="M311 52h-48v-56h-21v56h-49c-86 0 -141 55 -141 135v151c0 80 55 135 141 135h49v56h21v-56h48c86 0 141 -55 141 -135v-151c0 -80 -55 -135 -141 -135zM73 186c0 -67 47 -114 120 -114h49v382h-49c-73 0 -120 -47 -120 -115v-153zM311 454h-48v-382h48
c73 0 120 47 120 114v153c0 68 -47 115 -120 115z" />
    <glyph glyph-name="afii10039.smcp" horiz-adv-x="381" 
d="M323 525h24l-144 -254l155 -271h-25l-143 251l-143 -251h-25l155 271l-144 254h25l132 -234z" />
    <glyph glyph-name="afii10040.smcp" horiz-adv-x="473" 
d="M358 525h21v-505h72v-132h-21v112h-356v525h21v-505h263v505z" />
    <glyph glyph-name="afii10041.smcp" horiz-adv-x="408" 
d="M73 525v-146c0 -68 45 -114 137 -114c47 0 88 4 105 6v254h20v-525h-20v251c-16 -2 -59 -6 -105 -6c-104 0 -158 55 -158 135v145h21z" />
    <glyph glyph-name="afii10042.smcp" horiz-adv-x="679" 
d="M583 525h21v-525h-530v525h21v-505h234v505h20v-505h234v505z" />
    <glyph glyph-name="afii10043.smcp" horiz-adv-x="698" 
d="M583 525h21v-505h71v-132h-20v112h-581v525h21v-505h234v505h20v-505h234v505z" />
    <glyph glyph-name="afii10044.smcp" horiz-adv-x="482" 
d="M23 506v19h148v-230h114c89 0 147 -56 147 -135v-25c0 -80 -58 -135 -147 -135h-135v506h-127zM285 275h-114v-255h114c77 0 127 47 127 114v26c0 68 -50 115 -127 115z" />
    <glyph glyph-name="afii10045.smcp" horiz-adv-x="525" 
d="M74 0v525h21v-230h115c89 0 148 -56 148 -135v-25c0 -80 -59 -135 -148 -135h-136zM210 275h-115v-255h115c77 0 127 47 127 114v26c0 68 -50 115 -127 115zM430 0v525h21v-525h-21z" />
    <glyph glyph-name="afii10046.smcp" horiz-adv-x="409" 
d="M74 0v525h21v-230h115c89 0 148 -56 148 -135v-25c0 -80 -59 -135 -148 -135h-136zM210 275h-115v-255h115c77 0 127 47 127 114v26c0 68 -50 115 -127 115z" />
    <glyph glyph-name="afii10047.smcp" horiz-adv-x="430" 
d="M66 155h21v-25c0 -67 54 -115 131 -115s132 47 132 115v123h-159v19h159v123c0 68 -55 115 -132 115s-131 -47 -131 -115v-26h-21v25c0 80 62 135 152 135s152 -55 152 -135v-263c0 -80 -62 -135 -152 -135s-152 55 -152 135v24z" />
    <glyph glyph-name="afii10048.smcp" horiz-adv-x="569" 
d="M95 0h-21v525h21v-256h118v125c0 80 59 135 144 135c86 0 145 -55 145 -135v-263c0 -80 -59 -135 -145 -135c-85 0 -144 55 -144 135v119h-118v-250zM482 130v265c0 68 -51 115 -125 115c-73 0 -123 -47 -123 -115v-265c0 -68 50 -115 123 -115c74 0 125 48 125 115z" />
    <glyph glyph-name="afii10049.smcp" horiz-adv-x="415" 
d="M344 525v-525h-21v231h-112l-127 -231h-23l128 232c-75 10 -122 62 -122 134v24c0 80 58 135 148 135h129zM88 365c0 -68 50 -115 127 -115h108v256h-108c-77 0 -127 -47 -127 -115v-26z" />
    <glyph glyph-name="afii10050.smcp" horiz-adv-x="300" 
d="M95 0h-21v525h193v97h21v-116h-193v-506z" />
    <glyph glyph-name="afii10051.smcp" horiz-adv-x="512" 
d="M309 -4v19c77 0 131 54 131 130v15c0 68 -44 114 -136 114c-47 0 -88 -4 -105 -6v-268h-20v506h-156v19h332v-19h-156v-218c16 2 59 6 106 6c103 0 157 -55 157 -135v-14c0 -88 -63 -149 -153 -149z" />
    <glyph glyph-name="afii10052.smcp" horiz-adv-x="315" 
d="M293 525v-19h-198v-506h-21v525h219zM90 592l139 79l10 -16l-143 -74z" />
    <glyph glyph-name="afii10053.smcp" horiz-adv-x="430" 
d="M343 155h21v-24c0 -80 -63 -135 -152 -135c-90 0 -153 55 -153 135v263c0 80 63 135 153 135c89 0 152 -55 152 -135v-25h-21v26c0 68 -54 115 -131 115s-132 -47 -132 -115v-123h182v-19h-182v-123c0 -68 55 -115 132 -115s131 48 131 115v25z" />
    <glyph glyph-name="afii10054.smcp" horiz-adv-x="389" 
d="M310 378v17c0 67 -49 115 -118 115c-68 0 -116 -44 -116 -109c0 -43 22 -78 57 -96l139 -70c40 -21 66 -61 66 -110c0 -77 -60 -129 -144 -129c-87 0 -146 55 -146 135v20h20v-20c0 -68 51 -116 126 -116c71 0 123 44 123 110c0 41 -21 76 -58 95l-137 69
c-42 21 -67 62 -67 112c0 76 57 128 137 128c82 0 139 -55 139 -134v-17h-21z" />
    <glyph glyph-name="afii10055.smcp" horiz-adv-x="169" 
d="M74 0v525h21v-525h-21z" />
    <glyph glyph-name="afii10056.smcp" horiz-adv-x="169" 
d="M1 584v51h20v-51h-20zM148 584v51h19v-51h-19zM74 0v525h21v-525h-21z" />
    <glyph glyph-name="afii10057.smcp" horiz-adv-x="255" 
d="M16 15h18c78 0 133 54 133 131v379h21v-379c0 -89 -63 -150 -154 -150h-18v19z" />
    <glyph glyph-name="afii10058.smcp" horiz-adv-x="687" 
d="M18 -4v19h5c66 0 90 16 90 451v59h260v-230h115c89 0 147 -56 147 -135v-25c0 -80 -58 -135 -147 -135h-135v506h-220v-40c0 -438 -21 -470 -110 -470h-5zM488 275h-115v-255h115c77 0 126 47 126 114v26c0 68 -49 115 -126 115z" />
    <glyph glyph-name="afii10059.smcp" horiz-adv-x="692" 
d="M74 0v525h21v-241h263v241h21v-241h114c90 0 148 -56 148 -135v-14c0 -80 -58 -135 -148 -135h-135v264h-263v-264h-21zM492 264h-113v-244h113c78 0 128 47 128 114v15c0 68 -50 115 -128 115z" />
    <glyph glyph-name="afii10060.smcp" horiz-adv-x="513" 
d="M440 0v160c0 68 -53 115 -131 115c-57 0 -95 -4 -110 -7v-268h-20v506h-156v19h332v-19h-156v-218c15 2 53 6 110 6c90 0 153 -55 153 -135v-159h-22z" />
    <glyph glyph-name="afii10061.smcp" horiz-adv-x="382" 
d="M124 592l139 79l10 -16l-144 -74zM74 0v525h21v-525h-21zM334 0l-213 272l203 253h26l-203 -253l213 -272h-26z" />
    <glyph glyph-name="afii10062.smcp" horiz-adv-x="359" 
d="M15 525h21l151 -343l135 343h22l-185 -470c-13 -35 -42 -59 -83 -59h-19v21h19c30 0 54 19 63 43l38 97zM249 660h18v-12c0 -40 -36 -68 -88 -68s-87 28 -87 68v12h18v-12c0 -29 28 -51 69 -51s70 22 70 51v12z" />
    <glyph glyph-name="afii10145.smcp" horiz-adv-x="452" 
d="M74 525h21v-505h263v505h21v-525h-142v-112h-21v112h-142v525z" />
    <glyph glyph-name="uni0400.smcp" horiz-adv-x="354" 
d="M313 20v-20h-239v525h239v-19h-218v-237h199v-19h-199v-230h218zM105 671l139 -79l-6 -11l-144 74z" />
    <glyph glyph-name="uni040D.smcp" horiz-adv-x="454" 
d="M94 0h-20v525h21v-484l265 484h19v-525h-21v482zM154 671l139 -79l-6 -11l-144 74z" />
    <glyph glyph-name="uni04D8.smcp" horiz-adv-x="430" 
d="M67 131v134h283v130c0 68 -54 115 -131 115s-131 -47 -131 -115v-26h-21v25c0 80 62 135 152 135c89 0 152 -55 152 -135v-263c0 -80 -63 -135 -152 -135c-90 0 -152 55 -152 135zM88 245v-115c0 -67 54 -115 131 -115s131 47 131 115v115h-262z" />
    <glyph glyph-name="afii10065" unicode="&#x430;" horiz-adv-x="463" 
d="M93 355h-20v30c0 88 65 150 156 150c92 0 156 -62 156 -150v-385h-20v77c-26 -51 -82 -82 -152 -82c-91 0 -150 54 -150 130v30c0 76 66 119 160 125l142 9v96c0 76 -57 130 -136 130s-136 -54 -136 -130v-30zM214 15c83 0 148 51 151 124v130l-142 -9
c-91 -6 -140 -46 -140 -105v-30c0 -64 51 -110 131 -110z" />
    <glyph glyph-name="afii10066" unicode="&#x431;" horiz-adv-x="468" 
d="M234 -5c-97 0 -166 62 -166 150v360c0 107 52 177 140 186l176 19l1 -20l-176 -19c-76 -8 -121 -70 -121 -166v-54c26 50 80 79 150 79c96 0 162 -58 162 -140v-245c0 -88 -69 -150 -166 -150zM234 15c85 0 146 54 146 130v245c0 70 -58 120 -142 120
c-86 0 -150 -52 -150 -125v-240c0 -76 60 -130 146 -130z" />
    <glyph glyph-name="afii10067" unicode="&#x432;" horiz-adv-x="444" 
d="M78 0v530h138c97 0 160 -52 160 -126v-16c0 -54 -34 -97 -90 -116c68 -15 109 -62 109 -124v-18c0 -76 -62 -130 -159 -130h-158zM375 149c0 65 -54 111 -139 111h-138v-240h138c85 0 139 46 139 111v18zM356 403c0 63 -55 107 -140 107h-118v-230h118
c85 0 140 44 140 107v16z" />
    <glyph glyph-name="afii10068" unicode="&#x433;" horiz-adv-x="356" 
d="M78 0v530h254v-20h-234v-510h-20z" />
    <glyph glyph-name="afii10069" unicode="&#x434;" horiz-adv-x="477" 
d="M436 -140v140h-400v-140h-20v160h35c52 40 69 86 69 470v40h271v-510h65v-160h-20zM140 490c0 -353 -7 -417 -64 -470h295v490h-231v-20z" />
    <glyph glyph-name="afii10070" unicode="&#x435;" horiz-adv-x="463" 
d="M68 145v240c0 88 69 150 166 150s166 -62 166 -150v-130h-312v-110c0 -76 60 -130 146 -130s146 54 146 130v20h20v-20c0 -88 -69 -150 -166 -150s-166 62 -166 150zM234 515c-86 0 -146 -54 -146 -130v-110h292v110c0 76 -60 130 -146 130z" />
    <glyph glyph-name="afii10071" unicode="&#x451;" horiz-adv-x="463" 
d="M400 165v-20c0 -88 -69 -150 -166 -150s-166 62 -166 150v240c0 88 69 150 166 150s166 -62 166 -150v-130h-312v-110c0 -76 60 -130 146 -130s146 54 146 130v20h20zM234 515c-86 0 -146 -54 -146 -130v-110h292v110c0 76 -60 130 -146 130zM294 613v51h20v-51h-20z
M147 613v51h20v-51h-20z" />
    <glyph glyph-name="afii10072" unicode="&#x436;" horiz-adv-x="617" 
d="M571 0l-228 276l215 254h26l-215 -254l229 -276h-27zM299 0v530h20v-530h-20zM19 0l230 276l-216 254h27l214 -254l-228 -276h-27z" />
    <glyph glyph-name="afii10073" unicode="&#x437;" horiz-adv-x="439" 
d="M222 535c89 0 149 -54 149 -130v-17c0 -54 -29 -97 -75 -116c57 -15 94 -63 94 -124v-19c0 -78 -72 -134 -167 -134c-100 0 -164 62 -164 150v20h20v-20c0 -76 56 -130 144 -130c83 0 147 48 147 115v19c0 65 -53 111 -126 111h-68v20h48c74 0 127 44 127 107v17
c0 65 -52 111 -129 111c-82 0 -143 -54 -143 -130v-20h-20v20c0 88 69 150 163 150z" />
    <glyph glyph-name="afii10074" unicode="&#x438;" horiz-adv-x="493" 
d="M395 0v492l-297 -492h-20v530h20v-491l297 491h20v-530h-20z" />
    <glyph glyph-name="afii10075" unicode="&#x439;" horiz-adv-x="493" 
d="M395 0v492l-297 -492h-20v530h20v-491l297 491h20v-530h-20zM338 710h20v-16c0 -53 -46 -90 -112 -90c-67 0 -112 37 -112 90v16h19v-15c0 -41 38 -71 93 -71c54 0 92 30 92 71v15z" />
    <glyph glyph-name="afii10076" unicode="&#x43a;" horiz-adv-x="403" 
d="M357 0l-229 276l215 254h26l-215 -254l230 -276h-27zM78 0v530h20v-530h-20z" />
    <glyph glyph-name="afii10077" unicode="&#x43b;" horiz-adv-x="475" 
d="M15 20h10c66 0 99 42 99 470v40h273v-530h-20v510h-234v-20c0 -432 -30 -490 -118 -490h-10v20z" />
    <glyph glyph-name="afii10078" unicode="&#x43c;" horiz-adv-x="587" 
d="M78 0v530h20l196 -418l195 418h20v-530h-20v481l-189 -405h-12l-190 407v-483h-20z" />
    <glyph glyph-name="afii10079" unicode="&#x43d;" 
d="M380 0v265h-282v-265h-20v530h20v-245h282v245h20v-530h-20z" />
    <glyph glyph-name="afii10080" unicode="&#x43e;" horiz-adv-x="468" 
d="M400 145c0 -88 -69 -150 -166 -150s-166 62 -166 150v240c0 88 69 150 166 150s166 -62 166 -150v-240zM380 145v240c0 76 -60 130 -146 130s-146 -54 -146 -130v-240c0 -76 60 -130 146 -130s146 54 146 130z" />
    <glyph glyph-name="afii10081" unicode="&#x43f;" 
d="M380 0v510h-282v-510h-20v530h322v-530h-20z" />
    <glyph glyph-name="afii10082" unicode="&#x440;" horiz-adv-x="468" 
d="M78 -200v730h20v-75c24 49 76 80 145 80c93 0 157 -58 157 -140v-260c0 -82 -64 -140 -157 -140c-69 0 -121 31 -145 80v-275h-20zM243 15c80 0 137 50 137 120v260c0 70 -57 120 -137 120c-83 0 -142 -52 -145 -125v-245c0 -76 60 -130 145 -130z" />
    <glyph glyph-name="afii10083" unicode="&#x441;" horiz-adv-x="458" 
d="M380 355v30c0 76 -60 130 -146 130s-146 -54 -146 -130v-240c0 -76 60 -130 146 -130s146 54 146 130v30h20v-30c0 -88 -69 -150 -166 -150s-166 62 -166 150v240c0 88 69 150 166 150s166 -62 166 -150v-30h-20z" />
    <glyph glyph-name="afii10084" unicode="&#x442;" horiz-adv-x="420" 
d="M29 510v20h361v-20h-170v-510h-20v510h-171z" />
    <glyph glyph-name="afii10085" unicode="&#x443;" horiz-adv-x="424" 
d="M405 530l-261 -730h-21l72 201l-176 529h21l166 -498l177 498h22z" />
    <glyph glyph-name="afii10086" unicode="&#x444;" horiz-adv-x="643" 
d="M312 -200v268c-22 -45 -63 -73 -116 -73c-75 0 -128 58 -128 140v260c0 82 53 140 128 140c53 0 94 -28 116 -74v239h20v-239c21 46 62 74 116 74c75 0 127 -58 127 -140v-260c0 -82 -52 -140 -127 -140c-54 0 -95 28 -116 73v-268h-20zM198 15c64 0 111 51 114 124v251
c-3 73 -50 125 -114 125c-65 0 -110 -50 -110 -120v-260c0 -70 45 -120 110 -120zM446 15c65 0 109 50 109 120v260c0 70 -44 120 -109 120c-66 0 -114 -54 -114 -130v-240c0 -76 48 -130 114 -130z" />
    <glyph glyph-name="afii10087" unicode="&#x445;" horiz-adv-x="405" 
d="M361 0l-158 258l-159 -258h-25l170 276l-155 254h24l145 -236l144 236h24l-155 -254l170 -276h-25z" />
    <glyph glyph-name="afii10088" unicode="&#x446;" horiz-adv-x="494" 
d="M78 0v530h20v-510h282v510h20v-510h85v-160h-20v140h-387z" />
    <glyph glyph-name="afii10089" unicode="&#x447;" horiz-adv-x="444" 
d="M366 530v-530h-20v253c-19 -7 -66 -23 -128 -23c-113 0 -164 54 -164 130v170h20v-170c0 -64 44 -110 142 -110c60 0 110 16 130 24v256h20z" />
    <glyph glyph-name="afii10090" unicode="&#x448;" horiz-adv-x="741" 
d="M78 0v530h20v-510h263v510h20v-510h262v510h20v-530h-585z" />
    <glyph glyph-name="afii10091" unicode="&#x449;" horiz-adv-x="757" 
d="M727 -140v140h-649v530h20v-510h263v510h20v-510h262v510h20v-510h84v-160h-20z" />
    <glyph glyph-name="afii10092" unicode="&#x44a;" horiz-adv-x="488" 
d="M10 510v20h156v-220h133c97 0 160 -57 160 -145v-20c0 -88 -63 -145 -160 -145h-153v510h-136zM299 290h-133v-270h133c85 0 140 49 140 125v20c0 76 -55 125 -140 125z" />
    <glyph glyph-name="afii10093" unicode="&#x44b;" horiz-adv-x="571" 
d="M78 0v530h20v-220h132c98 0 160 -57 160 -145v-20c0 -88 -62 -145 -160 -145h-152zM230 290h-132v-270h132c86 0 140 49 140 125v20c0 76 -54 125 -140 125zM473 0v530h20v-530h-20z" />
    <glyph glyph-name="afii10094" unicode="&#x44c;" horiz-adv-x="420" 
d="M78 0v530h20v-220h132c98 0 160 -57 160 -145v-20c0 -88 -62 -145 -160 -145h-152zM230 290h-132v-270h132c86 0 140 49 140 125v20c0 76 -54 125 -140 125z" />
    <glyph glyph-name="afii10095" unicode="&#x44d;" horiz-adv-x="458" 
d="M224 515c-86 0 -146 -54 -146 -130v-30h-20v30c0 88 69 150 166 150s166 -62 166 -150v-240c0 -88 -69 -150 -166 -150s-166 62 -166 150v30h20v-30c0 -76 60 -130 146 -130s146 54 146 130v112h-170v20h170v108c0 76 -60 130 -146 130z" />
    <glyph glyph-name="afii10096" unicode="&#x44e;" horiz-adv-x="615" 
d="M547 145c0 -88 -64 -150 -152 -150c-89 0 -151 62 -151 150v120h-146v-265h-20v530h20v-245h146v100c0 88 62 150 151 150c88 0 152 -62 152 -150v-240zM527 145v240c0 76 -56 130 -132 130c-77 0 -131 -54 -131 -130v-240c0 -76 54 -130 131 -130c76 0 132 54 132 130z
" />
    <glyph glyph-name="afii10097" unicode="&#x44f;" horiz-adv-x="438" 
d="M360 530v-530h-20v236h-120l-145 -236h-24l146 237c-86 6 -139 55 -139 134v24c0 85 62 135 160 135h142zM78 371c0 -73 54 -115 140 -115h122v254h-122c-86 0 -140 -42 -140 -115v-24z" />
    <glyph glyph-name="afii10098" unicode="&#x491;" horiz-adv-x="346" 
d="M302 645h20v-135h-224v-510h-20v530h224v115z" />
    <glyph glyph-name="afii10099" unicode="&#x452;" 
d="M243 535c93 0 157 -58 157 -140v-505c0 -53 -41 -90 -100 -90h-10v20h10c46 0 80 29 80 70v505c0 70 -57 120 -138 120c-82 0 -141 -52 -144 -125v-390h-20v602h-59v20h59v78h20v-78h138v-20h-138v-145c25 48 77 78 145 78z" />
    <glyph glyph-name="afii10100" unicode="&#x453;" horiz-adv-x="356" 
d="M78 0v530h254v-20h-234v-510h-20zM101 624l138 79l11 -16l-144 -74z" />
    <glyph glyph-name="afii10101" unicode="&#x454;" horiz-adv-x="458" 
d="M225 515c-86 0 -146 -54 -146 -130v-108h209v-20h-209v-112c0 -76 60 -130 146 -130c85 0 145 54 145 130v30h20v-30c0 -88 -68 -150 -165 -150c-98 0 -166 62 -166 150v240c0 88 68 150 166 150c97 0 165 -62 165 -150v-30h-20v30c0 76 -60 130 -145 130z" />
    <glyph glyph-name="afii10102" unicode="&#x455;" horiz-adv-x="420" 
d="M206 535c88 0 148 -62 148 -150v-10h-20v10c0 76 -52 130 -129 130c-70 0 -123 -46 -123 -110c0 -42 24 -76 64 -95l149 -73c45 -22 73 -62 73 -112c0 -76 -65 -130 -154 -130c-94 0 -158 62 -158 150v10h20v-10c0 -76 56 -130 138 -130c77 0 134 46 134 110
c0 42 -24 75 -63 94l-150 73c-45 22 -73 62 -73 113c0 76 60 130 144 130z" />
    <glyph glyph-name="afii10103" unicode="&#x456;" horiz-adv-x="176" 
d="M78 0v530h20v-530h-20zM78 622v51h20v-51h-20z" />
    <glyph glyph-name="afii10104" unicode="&#x457;" horiz-adv-x="175" 
d="M77 0v530h20v-530h-20zM19 622v51h20v-51h-20zM136 622v51h20v-51h-20z" />
    <glyph glyph-name="afii10105" unicode="&#x458;" horiz-adv-x="176" 
d="M-12 -200v20h10c47 0 80 29 80 70v640h20v-640c0 -53 -41 -90 -100 -90h-10zM78 622v51h20v-51h-20z" />
    <glyph glyph-name="afii10106" unicode="&#x459;" horiz-adv-x="711" 
d="M370 0v510h-234v-20c0 -441 -31 -490 -118 -490h-10v20h10c64 0 99 43 99 470v40h273v-220h132c97 0 160 -57 160 -145v-20c0 -88 -63 -145 -160 -145h-152zM522 290h-132v-270h132c85 0 140 49 140 125v20c0 76 -55 125 -140 125z" />
    <glyph glyph-name="afii10107" unicode="&#x45a;" horiz-adv-x="720" 
d="M380 0v280h-282v-280h-20v530h20v-230h282v230h20v-230h132c98 0 160 -57 160 -145v-10c0 -88 -62 -145 -160 -145h-152zM532 280h-132v-260h132c86 0 140 49 140 125v10c0 76 -54 125 -140 125z" />
    <glyph glyph-name="afii10108" unicode="&#x45b;" 
d="M19 622h59v78h20v-78h138v-20h-138v-145c25 48 77 78 145 78c93 0 157 -58 157 -140v-395h-20v395c0 70 -57 120 -138 120c-82 0 -141 -52 -144 -125v-390h-20v602h-59v20z" />
    <glyph glyph-name="afii10109" unicode="&#x45c;" horiz-adv-x="403" 
d="M131 624l139 79l11 -16l-144 -74zM357 0l-229 276l215 254h26l-215 -254l230 -276h-27zM78 0v530h20v-530h-20z" />
    <glyph glyph-name="afii10110" unicode="&#x45e;" horiz-adv-x="424" 
d="M405 530l-261 -730h-21l72 201l-176 529h21l166 -498l177 498h22zM306 710h19v-16c0 -53 -45 -90 -112 -90c-66 0 -112 37 -112 90v16h20v-15c0 -41 38 -71 92 -71c55 0 93 30 93 71v15z" />
    <glyph glyph-name="afii10193" unicode="&#x45f;" 
d="M78 0v530h20v-510h282v510h20v-530h-151v-140h-20v140h-151z" />
    <glyph glyph-name="uni0450" unicode="&#x450;" horiz-adv-x="463" 
d="M400 165v-20c0 -88 -69 -150 -166 -150s-166 62 -166 150v240c0 88 69 150 166 150s166 -62 166 -150v-130h-312v-110c0 -76 60 -130 146 -130s146 54 146 130v20h20zM234 515c-86 0 -146 -54 -146 -130v-110h292v110c0 76 -60 130 -146 130zM157 703l139 -79l-5 -11
l-144 74z" />
    <glyph glyph-name="uni045D" unicode="&#x45d;" horiz-adv-x="493" 
d="M395 0v492l-297 -492h-20v530h20v-491l297 491h20v-530h-20zM172 703l139 -79l-6 -11l-144 74z" />
    <glyph glyph-name="afii10846" unicode="&#x4d9;" horiz-adv-x="463" 
d="M63 365v20c0 88 69 150 166 150s166 -62 166 -150v-240c0 -88 -69 -150 -166 -150s-166 62 -166 150v130h312v110c0 76 -60 130 -146 130s-146 -54 -146 -130v-20h-20zM229 15c86 0 146 54 146 130v110h-292v-110c0 -76 60 -130 146 -130z" />
    <glyph glyph-name="Aringacute" unicode="&#x1fa;" 
d="M30 0h-21l219 700h22l219 -700h-21l-64 202h-291zM238 666l-139 -444h279zM176 777c0 33 25 60 58 63l116 66l11 -16l-103 -53c26 -8 45 -32 45 -60c0 -35 -29 -64 -64 -64s-63 29 -63 64zM195 777c0 -25 19 -45 44 -45s45 20 45 45s-20 44 -45 44s-44 -19 -44 -44z" />
    <glyph glyph-name="aringacute" unicode="&#x1fb;" horiz-adv-x="463" 
d="M93 355h-20v30c0 88 65 150 156 150c92 0 156 -62 156 -150v-385h-20v77c-26 -51 -82 -82 -152 -82c-91 0 -150 54 -150 130v30c0 76 66 119 160 125l142 9v96c0 76 -57 130 -136 130s-136 -54 -136 -130v-30zM365 145v124l-142 -9c-91 -6 -140 -46 -140 -105v-30
c0 -64 51 -110 131 -110c85 0 151 54 151 130zM168 609c0 32 23 58 54 62l117 67l11 -16l-102 -53c27 -7 47 -31 47 -60c0 -35 -29 -64 -64 -64s-63 29 -63 64zM187 609c0 -25 19 -45 44 -45s45 20 45 45s-20 44 -45 44s-44 -19 -44 -44z" />
    <glyph glyph-name="at.case" horiz-adv-x="624" 
d="M546 45v-20s-107 -30 -207 -30c-191 0 -261 104 -261 260v190c0 154 116 260 267 260c125 0 201 -74 201 -180v-355h-20v77c-26 -51 -82 -82 -152 -82c-91 0 -149 54 -149 130v45c0 76 66 119 160 125l141 9v51c0 92 -67 160 -179 160c-140 0 -249 -100 -249 -240v-190
c0 -144 64 -240 238 -240c95 0 210 30 210 30zM375 185c83 0 148 51 151 124v145l-141 -9c-91 -6 -140 -46 -140 -105v-45c0 -64 50 -110 130 -110z" />
    <glyph glyph-name="exclamdown.case" horiz-adv-x="186" 
d="M81 0l4 510h16l4 -510h-24zM78 620v80h30v-80h-30z" />
    <glyph glyph-name="questiondown.case" horiz-adv-x="469" 
d="M249 700v-80h-30v80h30zM234 -5c-111 0 -175 87 -175 181c0 152 164 246 164 246v88h20v-101s-164 -91 -164 -234c0 -83 55 -160 155 -160c93 0 156 66 156 160v27h20v-27c0 -106 -72 -180 -176 -180z" />
    <glyph glyph-name="dagger.case" horiz-adv-x="371" 
d="M20 500v20h156v180h20v-180h156v-20h-156v-500h-20v500h-156z" />
    <glyph glyph-name="daggerdbl.case" horiz-adv-x="371" 
d="M20 500v20h156v180h20v-180h156v-20h-156v-300h156v-20h-156v-180h-20v180h-156v20h156v300h-156z" />
    <glyph glyph-name="slash.case" horiz-adv-x="315" 
d="M0 -42l296 792l19 -8l-296 -792z" />
    <glyph glyph-name="backslash.case" horiz-adv-x="317" 
d="M19 750l297 -792l-18 -8l-298 792z" />
    <glyph glyph-name="parenleft.case" horiz-adv-x="237" 
d="M212 -46l-13 -9s-121 127 -121 405s120 405 120 405l14 -9s-114 -128 -114 -396s114 -396 114 -396z" />
    <glyph glyph-name="parenright.case" horiz-adv-x="237" 
d="M38 -55l-13 9s114 128 114 396s-114 396 -114 396l14 9s120 -127 120 -405s-121 -405 -121 -405z" />
    <glyph glyph-name="bracketleft.case" horiz-adv-x="284" 
d="M78 -50v800h176v-20h-156v-760h156v-20h-176z" />
    <glyph glyph-name="bracketright.case" horiz-adv-x="283" 
d="M206 750v-800h-177v20h157v760h-157v20h177z" />
    <glyph glyph-name="braceleft.case" horiz-adv-x="244" 
d="M127 270v-220c0 -58 25 -80 87 -80v-20c-73 0 -107 28 -107 100v220c0 49 -22 70 -78 70v20c56 0 78 21 78 70v220c0 72 34 100 107 100v-20c-62 0 -87 -22 -87 -80v-220c0 -41 -13 -67 -44 -80c31 -13 44 -39 44 -80z" />
    <glyph glyph-name="braceright.case" horiz-adv-x="244" 
d="M117 430v220c0 58 -25 80 -88 80v20c74 0 108 -28 108 -100v-220c0 -49 22 -70 77 -70v-20c-55 0 -77 -21 -77 -70v-220c0 -72 -34 -100 -108 -100v20c63 0 88 22 88 80v220c0 41 12 67 42 80c-30 13 -42 39 -42 80z" />
    <glyph glyph-name="guillemotleft.case" horiz-adv-x="447" 
d="M212 181l-163 169l163 169l13 -14l-147 -155l147 -155zM376 181l-162 169l162 169l14 -14l-147 -155l147 -155z" />
    <glyph glyph-name="guillemotright.case" horiz-adv-x="447" 
d="M233 350l-162 -169l-14 14l148 155l-148 155l14 14zM398 350l-163 -169l-13 14l148 155l-148 155l13 14z" />
    <glyph glyph-name="guilsinglleft.case" horiz-adv-x="283" 
d="M212 181l-163 169l163 169l13 -15l-147 -154l147 -154z" />
    <glyph glyph-name="guilsinglright.case" horiz-adv-x="282" 
d="M233 350l-162 -169l-14 14l148 155l-147 155l13 14z" />
    <glyph glyph-name="hyphen.case" horiz-adv-x="273" 
d="M58 340v20h156v-20h-156z" />
    <glyph glyph-name="endash.case" 
d="M58 340v20h361v-20h-361z" />
    <glyph glyph-name="emdash.case" horiz-adv-x="741" 
d="M58 340v20h624v-20h-624z" />
    <glyph glyph-name="bar.case" horiz-adv-x="176" 
d="M78 -50v800h20v-800h-20z" />
    <glyph glyph-name="brokenbar.case" horiz-adv-x="176" 
d="M98 400h-20v350h20v-350zM78 300h20v-350h-20v350z" />
    <glyph glyph-name="a.ord" horiz-adv-x="281" 
d="M65 595h-21v18c0 53 40 90 95 90s95 -37 95 -90v-231h-21v40c-17 -25 -47 -43 -86 -43c-53 0 -87 31 -87 78v19c0 48 39 74 96 78l77 4v56c0 42 -31 71 -74 71s-74 -29 -74 -71v-19zM131 397c45 0 80 27 82 68v75l-77 -5c-49 -3 -76 -25 -76 -58v-20c0 -35 28 -60 71 -60
z" />
    <glyph glyph-name="b.ord" horiz-adv-x="285" 
d="M48 382v420h20v-142c16 25 44 43 83 43c53 0 91 -33 91 -83v-158c0 -50 -38 -83 -91 -83c-39 0 -67 18 -83 43v-40h-20zM147 397c43 0 75 27 75 65v158c0 38 -32 65 -75 65c-46 0 -79 -29 -79 -71v-146c0 -42 33 -71 79 -71z" />
    <glyph glyph-name="c.ord" horiz-adv-x="278" 
d="M221 595v19c0 42 -33 71 -79 71c-47 0 -79 -29 -79 -71v-146c0 -42 32 -71 79 -71c46 0 79 29 79 71v19h20v-18c0 -53 -41 -90 -99 -90s-100 37 -100 90v144c0 53 42 90 100 90s99 -37 99 -90v-18h-20z" />
    <glyph glyph-name="d.ord" horiz-adv-x="285" 
d="M237 382h-21v38c-17 -24 -46 -41 -83 -41c-53 0 -91 34 -91 84v156c0 50 38 84 91 84c37 0 66 -18 83 -42v141h21v-420zM137 397c43 0 76 26 79 65v152c0 42 -33 71 -79 71c-44 0 -74 -27 -74 -66v-156c0 -39 30 -66 74 -66z" />
    <glyph glyph-name="e.ord" horiz-adv-x="281" 
d="M42 469v144c0 53 42 90 100 90s99 -37 99 -90v-81h-178v-64c0 -42 32 -71 79 -71c46 0 79 29 79 71v13h20v-12c0 -53 -41 -90 -99 -90s-100 37 -100 90zM142 685c-47 0 -79 -29 -79 -71v-63h158v63c0 42 -33 71 -79 71z" />
    <glyph glyph-name="egrave.ord" horiz-adv-x="281" 
d="M42 469v144c0 53 42 90 100 90s99 -37 99 -90v-81h-178v-64c0 -42 32 -71 79 -71c46 0 79 29 79 71v13h20v-12c0 -53 -41 -90 -99 -90s-100 37 -100 90zM142 685c-47 0 -79 -29 -79 -71v-63h158v63c0 42 -33 71 -79 71zM97 806l84 -51l-5 -9l-88 46z" />
    <glyph glyph-name="f.ord" horiz-adv-x="172" 
d="M16 700h56v43c0 35 26 59 64 59h23v-18h-23c-27 0 -44 -16 -44 -39v-45h67v-18h-67v-300h-20v300h-56v18z" />
    <glyph glyph-name="g.ord" horiz-adv-x="285" 
d="M140 274c44 0 76 30 76 71v75c-17 -24 -46 -41 -83 -41c-53 0 -91 34 -91 84v156c0 50 38 84 91 84c37 0 66 -18 83 -42v39h21v-353c0 -53 -40 -91 -97 -91s-98 35 -98 85v5h21v-5c0 -39 32 -67 77 -67zM137 397c46 0 79 29 79 71v146c0 42 -33 71 -79 71
c-44 0 -74 -27 -74 -66v-156c0 -39 30 -66 74 -66z" />
    <glyph glyph-name="h.ord" horiz-adv-x="290" 
d="M68 614v-232h-20v420h20v-142c16 25 44 43 83 43c53 0 91 -33 91 -83v-238h-20v238c0 38 -32 65 -75 65c-46 0 -79 -29 -79 -71z" />
    <glyph glyph-name="i.ord" horiz-adv-x="116" 
d="M48 382v318h20v-318h-20zM48 753v37h20v-37h-20z" />
    <glyph glyph-name="j.ord" horiz-adv-x="116" 
d="M-4 262v18h7c26 0 45 17 45 41v379h20v-379c0 -35 -27 -59 -65 -59h-7zM48 753v37h20v-37h-20z" />
    <glyph glyph-name="k.ord" horiz-adv-x="251" 
d="M211 382l-129 165l120 153h25l-121 -153l130 -165h-25zM48 382v420h20v-420h-20z" />
    <glyph glyph-name="l.ord" horiz-adv-x="133" 
d="M120 400v-18h-7c-38 0 -65 23 -65 58v362h20v-362c0 -24 19 -40 45 -40h7z" />
    <glyph glyph-name="m.ord" horiz-adv-x="444" 
d="M212 382v238c0 38 -29 65 -70 65c-43 0 -74 -29 -74 -71v-232h-20v318h20v-39c15 24 42 42 78 42c38 0 68 -19 80 -50c14 28 43 50 84 50c50 0 86 -33 86 -83v-238h-21v238c0 38 -29 65 -69 65c-41 0 -71 -27 -74 -65v-238h-20z" />
    <glyph glyph-name="n.ord" horiz-adv-x="290" 
d="M68 614v-232h-20v318h20v-40c16 25 44 43 83 43c53 0 91 -33 91 -83v-238h-20v238c0 38 -32 65 -75 65c-46 0 -79 -29 -79 -71z" />
    <glyph glyph-name="o.ord" horiz-adv-x="284" 
d="M241 469c0 -53 -41 -90 -99 -90s-100 37 -100 90v144c0 53 42 90 100 90s99 -37 99 -90v-144zM221 468v146c0 42 -33 71 -79 71c-47 0 -79 -29 -79 -71v-146c0 -42 32 -71 79 -71c46 0 79 29 79 71z" />
    <glyph glyph-name="p.ord" horiz-adv-x="285" 
d="M48 262v438h20v-40c16 25 44 43 83 43c53 0 91 -34 91 -84v-156c0 -50 -38 -84 -91 -84c-39 0 -67 18 -83 43v-160h-20zM147 397c43 0 75 27 75 66v156c0 39 -32 66 -75 66c-46 0 -79 -29 -79 -71v-146c0 -42 33 -71 79 -71z" />
    <glyph glyph-name="q.ord" horiz-adv-x="285" 
d="M237 700v-438h-21v158c-17 -24 -46 -41 -83 -41c-53 0 -91 34 -91 84v156c0 50 38 84 91 84c37 0 66 -18 83 -42v39h21zM137 397c43 0 76 26 79 65v152c0 42 -33 71 -79 71c-44 0 -74 -27 -74 -66v-156c0 -39 30 -66 74 -66z" />
    <glyph glyph-name="r.ord" horiz-adv-x="184" 
d="M68 601v-219h-20v318h20v-48c17 29 51 51 95 51v-19c-55 0 -95 -34 -95 -83z" />
    <glyph glyph-name="s.ord" horiz-adv-x="259" 
d="M127 703c54 0 90 -36 90 -90v-7h-20v8c0 42 -28 71 -70 71c-38 0 -67 -25 -67 -61c0 -23 13 -43 35 -53l85 -42c28 -14 44 -40 44 -70c0 -48 -38 -80 -92 -80c-57 0 -96 36 -96 90v7h21v-8c0 -42 30 -71 75 -71c42 0 73 25 73 61c0 24 -14 42 -36 53l-85 42
c-27 14 -44 39 -44 71c0 47 36 79 87 79z" />
    <glyph glyph-name="t.ord" horiz-adv-x="196" 
d="M166 400v-18h-22c-39 0 -66 24 -66 59v241h-61v18h61v71h21v-71h67v-18h-67v-241c0 -25 18 -41 45 -41h22z" />
    <glyph glyph-name="u.ord" horiz-adv-x="290" 
d="M242 700v-318h-20v38c-17 -24 -46 -41 -83 -41c-54 0 -91 33 -91 83v238h20v-238c0 -38 31 -65 75 -65c43 0 76 26 79 65v238h20z" />
    <glyph glyph-name="uacute.ord" horiz-adv-x="290" 
d="M242 700v-318h-20v38c-17 -24 -46 -41 -83 -41c-54 0 -91 33 -91 83v238h20v-238c0 -38 31 -65 75 -65c43 0 76 26 79 65v238h20zM103 755l84 51l10 -14l-89 -46z" />
    <glyph glyph-name="v.ord" horiz-adv-x="258" 
d="M118 382l-103 318h21l93 -289l93 289h21l-104 -318h-21z" />
    <glyph glyph-name="w.ord" horiz-adv-x="384" 
d="M262 382l-70 279l-70 -279h-20l-87 318h21l76 -284l70 284h20l70 -284l76 284h21l-87 -318h-20z" />
    <glyph glyph-name="x.ord" horiz-adv-x="248" 
d="M210 382l-86 147l-87 -147h-22l98 165l-90 153h23l78 -135l79 135h23l-90 -153l97 -165h-23z" />
    <glyph glyph-name="y.ord" horiz-adv-x="260" 
d="M245 700l-149 -438h-20l40 119l-101 319h20l92 -288l97 288h21z" />
    <glyph glyph-name="z.ord" horiz-adv-x="224" 
d="M21 682v18h187v-17l-167 -283h166v-18h-190v17l167 283h-163z" />
    <glyph glyph-name="minus.sup" horiz-adv-x="257" 
d="M33 516v18h191v-18h-191z" />
    <glyph glyph-name="minus.sub" horiz-adv-x="257" 
d="M33 66v18h191v-18h-191z" />
    <glyph glyph-name="plus.sup" horiz-adv-x="257" 
d="M119 621h18v-87h87v-18h-87v-86h-18v86h-86v18h86v87z" />
    <glyph glyph-name="plusminus.sup" horiz-adv-x="257" 
d="M119 656h18v-87h87v-18h-87v-86h-18v86h-86v18h86v87zM33 410v18h191v-18h-191z" />
    <glyph glyph-name="plus.sub" horiz-adv-x="257" 
d="M119 171h18v-87h87v-18h-87v-86h-18v86h-86v18h86v87z" />
    <glyph glyph-name="plusminus.sub" horiz-adv-x="257" 
d="M119 206h18v-87h87v-18h-87v-86h-18v86h-86v18h86v87zM33 -40v18h191v-18h-191z" />
    <glyph glyph-name="Aringacute.smcp" horiz-adv-x="389" 
d="M36 0h-22l169 525h4c-32 3 -55 31 -55 64c0 35 28 63 63 63h2l125 71l10 -16l-115 -59c24 -9 42 -32 42 -59c0 -33 -26 -61 -57 -64h4l168 -525h-21l-47 147h-223zM194 495l-105 -328h210zM151 589c0 -25 19 -45 44 -45s45 20 45 45s-20 44 -45 44s-44 -19 -44 -44z" />
    <glyph glyph-name="dollar.smcp" horiz-adv-x="389" 
d="M310 378v17c0 67 -49 115 -118 115c-68 0 -116 -44 -116 -109c0 -43 22 -78 57 -96l139 -70c40 -21 66 -61 66 -110c0 -75 -56 -125 -135 -129v-74h-18v74c-82 4 -137 58 -137 135v20h20v-20c0 -68 51 -116 126 -116c71 0 123 44 123 110c0 41 -21 76 -58 95l-137 69
c-42 21 -67 62 -67 112c0 74 53 125 130 128v74h18v-75c76 -5 128 -58 128 -133v-17h-21z" />
    <glyph glyph-name="arrowleft" unicode="&#x2190;" horiz-adv-x="580" 
d="M247 161l-207 189l207 189l13 -15l-180 -164h460v-20h-460l180 -164z" />
    <glyph glyph-name="arrowright" unicode="&#x2192;" horiz-adv-x="580" 
d="M540 350l-207 -189l-13 15l180 164h-460v20h460l-180 164l13 15z" />
    <glyph glyph-name="arrowup" unicode="&#x2191;" horiz-adv-x="580" 
d="M101 393l189 207l189 -207l-15 -13l-164 180v-460h-20v460l-164 -180z" />
    <glyph glyph-name="arrowdown" unicode="&#x2193;" horiz-adv-x="580" 
d="M290 100l-189 207l15 13l164 -180v460h20v-460l164 180l15 -13z" />
    <glyph glyph-name="uni2196" unicode="&#x2196;" horiz-adv-x="580" 
d="M126 247l-13 280l280 -13l-1 -20l-244 11l326 -325l-14 -14l-326 325l12 -243z" />
    <glyph glyph-name="uni2197" unicode="&#x2197;" horiz-adv-x="580" 
d="M474 527l-13 -280l-20 1l11 243l-325 -325l-14 14l325 325l-243 -11l-1 20z" />
    <glyph glyph-name="uni2198" unicode="&#x2198;" horiz-adv-x="580" 
d="M467 173l-280 13l1 20l243 -12l-325 326l14 14l325 -326l-11 244l20 1z" />
    <glyph glyph-name="uni2199" unicode="&#x2199;" horiz-adv-x="580" 
d="M106 173l13 280l20 -1l-12 -244l326 326l14 -14l-326 -326l244 12l1 -20z" />
    <glyph glyph-name="acute" unicode="&#xb4;" horiz-adv-x="306" 
d="M78 624l139 79l11 -16l-144 -74z" />
    <glyph glyph-name="zero.dnom" horiz-adv-x="271" 
d="M234 175c0 -140 -41 -178 -99 -178s-98 38 -98 178s40 178 98 178s99 -38 99 -178zM212 175c0 130 -32 160 -77 160s-77 -30 -77 -160c0 -131 32 -160 77 -160s77 30 77 160z" />
    <glyph glyph-name="one.dnom" horiz-adv-x="173" 
d="M21 304l79 46h16v-350h-21v327l-66 -39z" />
    <glyph glyph-name="two.dnom" horiz-adv-x="247" 
d="M29 0v15c145 202 162 215 162 246c0 43 -29 74 -69 74s-68 -31 -68 -73v-11h-21v11c0 54 36 91 89 91s89 -38 89 -92c0 -37 -19 -52 -156 -242h160v-19h-186z" />
    <glyph glyph-name="three.dnom" horiz-adv-x="254" 
d="M130 353c50 0 86 -30 86 -86c0 -43 -20 -74 -53 -84c38 -11 64 -32 64 -85c0 -63 -41 -101 -97 -101s-95 38 -95 91v10h22v-12c0 -41 29 -71 72 -71c44 0 77 31 77 83c0 49 -31 75 -76 75h-17v18h6c45 0 77 27 77 75c0 47 -30 69 -67 69c-43 0 -72 -30 -72 -71v-12h-22
v10c0 53 39 91 95 91z" />
    <glyph glyph-name="four.dnom" horiz-adv-x="257" 
d="M234 82h-35v-82h-21v82h-152v16l154 252h19v-250h35v-18zM49 100h129v212z" />
    <glyph glyph-name="five.dnom" horiz-adv-x="251" 
d="M208 331h-129l-12 -127s29 11 61 11c60 0 96 -39 96 -106c0 -68 -38 -112 -98 -112c-53 0 -91 34 -91 83v10h21v-12c0 -37 30 -63 70 -63c44 0 76 33 76 94c0 58 -29 89 -78 89c-32 0 -64 -14 -64 -14l-13 5l14 161h147v-19z" />
    <glyph glyph-name="six.dnom" horiz-adv-x="268" 
d="M138 228c51 0 93 -35 93 -116c0 -79 -41 -115 -96 -115c-56 0 -100 37 -100 175c0 135 42 181 102 181c42 0 72 -21 80 -61h-21c-9 31 -30 43 -57 43c-79 0 -84 -101 -82 -173c10 48 43 66 81 66zM135 210c-37 0 -72 -23 -72 -95c0 -70 32 -100 73 -100s74 30 74 98
s-33 97 -75 97z" />
    <glyph glyph-name="seven.dnom" horiz-adv-x="208" 
d="M17 350h169v-16l-102 -334h-22l102 332h-147v18z" />
    <glyph glyph-name="eight.dnom" horiz-adv-x="261" 
d="M228 94c0 -62 -41 -97 -97 -97c-57 0 -98 35 -98 97c0 51 27 78 64 89c-33 10 -53 41 -53 83c0 56 36 87 87 87c50 0 86 -31 86 -87c0 -42 -20 -73 -53 -83c37 -11 64 -38 64 -89zM207 95c0 51 -32 78 -76 78c-45 0 -77 -27 -77 -78c0 -50 32 -80 77 -80
c44 0 76 30 76 80zM131 335c-37 0 -66 -21 -66 -69c0 -47 27 -75 66 -75c38 0 65 28 65 75c0 48 -29 69 -65 69z" />
    <glyph glyph-name="nine.dnom" horiz-adv-x="264" 
d="M126 131c-50 0 -91 34 -91 111s40 111 93 111c55 0 99 -37 99 -175c0 -135 -42 -181 -103 -181c-45 0 -78 25 -84 69h21c6 -35 33 -51 62 -51c80 0 84 109 82 178c-10 -45 -41 -62 -79 -62zM129 150c36 0 70 21 70 90c0 66 -32 95 -72 95c-39 0 -71 -28 -71 -93
s31 -92 73 -92z" />
    <glyph glyph-name="comma.dnom" horiz-adv-x="108" 
d="M26 -57l16 102h24l-26 -106z" />
    <glyph glyph-name="period.dnom" horiz-adv-x="108" 
d="M41 0v45h26v-45h-26z" />
    <glyph glyph-name="parenleft.dnom" horiz-adv-x="131" 
d="M115 -71l-11 -7s-64 71 -64 228s64 228 64 228l11 -7s-55 -72 -55 -221s55 -221 55 -221z" />
    <glyph glyph-name="parenright.dnom" horiz-adv-x="131" 
d="M28 -78l-11 7s54 72 54 221s-54 221 -54 221l12 7s63 -71 63 -228s-64 -228 -64 -228z" />
    <glyph glyph-name="hyphen.dnom" horiz-adv-x="145" 
d="M32 151v18h81v-18h-81z" />
    <glyph glyph-name="minus.dnom" horiz-adv-x="257" 
d="M33 166v18h191v-18h-191z" />
    <glyph glyph-name="plus.dnom" horiz-adv-x="257" 
d="M119 271h18v-87h87v-18h-87v-86h-18v86h-86v18h86v87z" />
    <glyph glyph-name="plusminus.dnom" horiz-adv-x="257" 
d="M119 306h18v-87h87v-18h-87v-86h-18v86h-86v18h86v87zM33 60v18h191v-18h-191z" />
    <glyph glyph-name="breve" unicode="&#x2d8;" horiz-adv-x="361" 
d="M264 714h19c0 -66 -42 -101 -102 -101c-61 0 -103 35 -103 101h20c0 -53 34 -81 83 -81c48 0 83 28 83 81z" />
    <glyph glyph-name="uni0259" unicode="&#x259;" horiz-adv-x="463" 
d="M63 365v20c0 88 69 150 166 150s166 -62 166 -150v-240c0 -88 -69 -150 -166 -150s-166 62 -166 150v130h312v110c0 76 -60 130 -146 130s-146 -54 -146 -130v-20h-20zM229 15c86 0 146 54 146 130v110h-292v-110c0 -76 60 -130 146 -130z" />
    <glyph glyph-name="uni0492" unicode="&#x492;" horiz-adv-x="385" 
d="M262 390v-20h-154v-370h-21v370h-68v20h68v310h278v-20h-257v-290h154z" />
    <glyph glyph-name="uni0493" unicode="&#x493;" horiz-adv-x="365" 
d="M242 300v-20h-134v-280h-20v280h-69v20h69v230h253v-20h-233v-210h134z" />
    <glyph glyph-name="uni0496" unicode="&#x496;" horiz-adv-x="711" 
d="M665 0l-271 362l257 338h25l-256 -338l256 -342h16v-170h-21v150h-6zM315 362l-270 -362h-26l271 362l-257 338h26zM345 0v700h20v-700h-20z" />
    <glyph glyph-name="uni0497" unicode="&#x497;" horiz-adv-x="616" 
d="M571 0l-228 276l215 254h26l-215 -254l212 -256h16v-160h-20v140h-6zM19 0l230 276l-215 254h27l214 -254l-228 -276h-28zM299 0v530h20v-530h-20z" />
    <glyph glyph-name="uni049A" unicode="&#x49a;" horiz-adv-x="471" 
d="M425 0l-280 362l267 338h26l-267 -338l264 -342h16v-170h-20v150h-6zM87 0v700h21v-700h-21z" />
    <glyph glyph-name="uni049B" unicode="&#x49b;" horiz-adv-x="401" 
d="M356 0l-229 276l215 254h27l-215 -254l213 -256h15v-160h-20v140h-6zM78 0v530h20v-530h-20z" />
    <glyph glyph-name="uni04A2" unicode="&#x4a2;" horiz-adv-x="590" 
d="M108 0h-21v700h21v-345h350v345h19v-680h94v-170h-20v150h-93v335h-350v-335z" />
    <glyph glyph-name="uni04A3" unicode="&#x4a3;" horiz-adv-x="494" 
d="M380 0v265h-282v-265h-20v530h20v-245h282v245h20v-510h85v-160h-20v140h-85z" />
    <glyph glyph-name="uni04AE" unicode="&#x4ae;" horiz-adv-x="449" 
d="M214 0v300l-205 400h22l192 -380l194 380h22l-205 -400v-300h-20z" />
    <glyph glyph-name="uni04AF" unicode="&#x4af;" horiz-adv-x="421" 
d="M200 -200v200l-181 530h21l171 -502l170 502h20l-180 -530v-200h-21z" />
    <glyph glyph-name="uni04B0" unicode="&#x4b0;" horiz-adv-x="449" 
d="M53 280v20h161l-205 400h21l193 -379l195 379h21l-205 -400h161v-20h-161v-280h-20v280h-161z" />
    <glyph glyph-name="uni04B1" unicode="&#x4b1;" horiz-adv-x="421" 
d="M74 -20v20h126l-181 530h22l170 -497l168 497h22l-180 -530h126v-20h-126v-180h-21v180h-126z" />
    <glyph glyph-name="uni04B2" unicode="&#x4b2;" horiz-adv-x="472" 
d="M433 -150v150h-7l-192 341l-192 -341h-23l203 362l-188 338h23l177 -317l178 317h23l-188 -338l190 -342h16v-170h-20z" />
    <glyph glyph-name="uni04B3" unicode="&#x4b3;" horiz-adv-x="405" 
d="M361 0l-158 258l-159 -258h-25l170 276l-155 254h24l145 -236l144 236h24l-155 -254l157 -256h14v-160h-20v140h-6z" />
    <glyph glyph-name="uni04B6" unicode="&#x4b6;" horiz-adv-x="522" 
d="M79 700v-190c0 -94 72 -160 175 -160c77 0 127 5 146 8v342h20v-680h83v-170h-20v150h-83v338c-19 -2 -70 -8 -146 -8c-115 0 -195 74 -195 180v190h20z" />
    <glyph glyph-name="uni04B7" unicode="&#x4b7;" horiz-adv-x="460" 
d="M431 -140v140h-85v253c-19 -7 -66 -23 -128 -23c-113 0 -164 54 -164 130v170h20v-170c0 -64 44 -110 142 -110c60 0 110 16 130 24v256h20v-510h85v-160h-20z" />
    <glyph glyph-name="uni04BA" unicode="&#x4ba;" horiz-adv-x="505" 
d="M427 0v190c0 94 -72 160 -175 160c-77 0 -126 -6 -146 -9v-341h-20v700h20v-339c19 3 70 9 145 9c116 0 196 -74 196 -180v-190h-20z" />
    <glyph glyph-name="uni04BB" unicode="&#x4bb;" 
d="M78 0v700h20v-245c24 49 76 80 145 80c93 0 157 -58 157 -140v-395h-20v395c0 70 -57 120 -137 120c-83 0 -142 -52 -145 -125v-390h-20z" />
    <glyph glyph-name="uni04E8" unicode="&#x4e8;" horiz-adv-x="546" 
d="M468 175c0 -106 -80 -180 -195 -180s-195 74 -195 180v350c0 106 80 180 195 180s195 -74 195 -180v-350zM448 355v170c0 94 -72 160 -175 160s-175 -66 -175 -160v-170h350zM448 175v160h-350v-160c0 -94 72 -160 175 -160s175 66 175 160z" />
    <glyph glyph-name="uni04E9" unicode="&#x4e9;" horiz-adv-x="468" 
d="M400 145c0 -88 -69 -150 -166 -150s-166 62 -166 150v240c0 88 69 150 166 150s166 -62 166 -150v-240zM380 145v120h-292v-120c0 -76 60 -130 146 -130s146 54 146 130zM380 285v100c0 76 -60 130 -146 130s-146 -54 -146 -130v-100h292z" />
    <glyph glyph-name="uni04EE" unicode="&#x4ee;" horiz-adv-x="440" 
d="M9 700h21l200 -466l178 466h22l-242 -631c-17 -44 -52 -74 -102 -74h-24v20h24c39 0 71 27 83 60l51 134zM130 803h178v-20h-178v20z" />
    <glyph glyph-name="uni04EF" unicode="&#x4ef;" horiz-adv-x="424" 
d="M405 530l-261 -730h-21l72 201l-176 529h21l166 -498l177 498h22zM122 633h178v-20h-178v20z" />
    <glyph glyph-name="section.001" horiz-adv-x="420" 
d="M334 545v10c0 76 -52 130 -129 130c-70 0 -123 -47 -123 -112c0 -40 22 -74 63 -98l218 -128l-9 -16l-219 127c-44 26 -73 62 -73 114c0 77 62 133 143 133c89 0 149 -62 149 -150v-10h-20zM76 149v-10c0 -73 56 -125 138 -125c77 0 134 47 134 113c0 44 -25 74 -63 96
l-218 128l10 17l218 -127c43 -25 73 -62 73 -114c0 -77 -65 -132 -152 -132c-96 0 -160 60 -160 144v10h20z" />
    <glyph glyph-name="uni0492.smcp" horiz-adv-x="314" 
d="M212 293v-17h-117v-276h-21v276h-52v17h52v232h218v-19h-197v-213h117z" />
    <glyph glyph-name="uni0496.smcp" horiz-adv-x="572" 
d="M521 0l-205 272l195 253h24l-194 -253l190 -252h17v-132h-21v112h-6zM253 272l-205 -272h-26l206 272l-194 253h24zM273 0v525h22v-525h-22z" />
    <glyph glyph-name="uni049A.smcp" horiz-adv-x="384" 
d="M335 0l-213 272l203 253h25l-203 -253l198 -252h17v-132h-21v112h-6zM74 0v525h21v-525h-21z" />
    <glyph glyph-name="uni04A2.smcp" horiz-adv-x="473" 
d="M95 0h-21v525h21v-256h263v256h21v-505h72v-132h-21v112h-72v250h-263v-250z" />
    <glyph glyph-name="uni04AE.smcp" horiz-adv-x="367" 
d="M172 0v223l-157 302h22l146 -283l146 283h23l-159 -302v-223h-21z" />
    <glyph glyph-name="uni04B0.smcp" horiz-adv-x="367" 
d="M49 205v18h123l-157 302h21l146 -282l148 282h22l-159 -302h123v-18h-123v-205h-21v205h-123z" />
    <glyph glyph-name="uni04B6.smcp" horiz-adv-x="423" 
d="M73 525v-146c0 -67 54 -114 132 -114c57 0 94 3 110 5v255h20v-505h66v-132h-22v112h-64v251c-15 -2 -54 -6 -110 -6c-90 0 -153 55 -153 135v145h21z" />
    <glyph glyph-name="uni04BA.smcp" horiz-adv-x="408" 
d="M336 0v146c0 67 -55 115 -133 115c-57 0 -95 -4 -110 -7v-254h-20v525h20v-251c15 2 53 6 110 6c90 0 153 -55 153 -135v-145h-20z" />
    <glyph glyph-name="uni04E8.smcp" horiz-adv-x="437" 
d="M371 131c0 -80 -63 -135 -152 -135c-90 0 -152 55 -152 135v263c0 80 62 135 152 135c89 0 152 -55 152 -135v-263zM350 269v126c0 68 -54 115 -131 115s-131 -47 -131 -115v-126h262zM350 130v120h-262v-120c0 -68 54 -115 131 -115s131 48 131 115z" />
    <glyph glyph-name="uni04B2.smcp" horiz-adv-x="385" 
d="M341 -112v112h-7l-144 250l-145 -250h-23l156 271l-145 254h24l133 -232l134 232h23l-144 -254l142 -251h17v-132h-21z" />
    <glyph glyph-name="uni04EE.smcp" horiz-adv-x="361" 
d="M15 525h21l151 -343l135 343h22l-185 -470c-13 -35 -42 -59 -83 -59h-19v21h19c30 0 54 19 63 43l38 97zM90 606h178v-20h-178v20z" />
    <glyph glyph-name="section.001.smcp" horiz-adv-x="341" 
d="M264 408v9c0 55 -39 93 -98 93c-52 0 -92 -34 -92 -81c0 -29 17 -55 48 -72l169 -95l-10 -15l-169 94c-35 20 -58 48 -58 87c0 59 49 101 112 101c71 0 118 -46 118 -112v-9h-20zM70 113v-9c0 -53 41 -90 104 -90c58 0 100 34 100 82c0 32 -19 54 -47 70l-169 95l10 16
l169 -94c33 -19 58 -48 58 -87c0 -59 -51 -100 -120 -100c-76 0 -125 45 -125 108v9h20z" />
    </font>
</defs>
</svg>
