<?xml version="1.0" standalone="no"?>
<!DOCTYPE svg PUBLIC "-//W3C//DTD SVG 1.1//EN" "http://www.w3.org/Graphics/SVG/1.1/DTD/svg11.dtd" >
<svg xmlns="http://www.w3.org/2000/svg" xmlns:xlink="http://www.w3.org/1999/xlink" version="1.1">
<metadata>
Created by FontForge 20170731 at Mon May 14 08:42:19 2018
 By Aleksey,,,
Copyright (c) 2018 by Oleh Lishchuk. All rights reserved.
</metadata>
<defs>
<font id="VinMonoPro-Regular" horiz-adv-x="1167" >
  <font-face 
    font-family="Vin Mono Pro"
    font-weight="400"
    font-stretch="normal"
    units-per-em="2048"
    panose-1="0 0 0 0 0 0 0 0 0 0"
    ascent="1638"
    descent="-410"
    x-height="1126"
    cap-height="1434"
    bbox="0 -360 1300 1817"
    underline-thickness="0"
    underline-position="0"
    unicode-range="U+0020-FB02"
  />
<missing-glyph 
 />
    <glyph glyph-name=".notdef" 
 />
    <glyph glyph-name="glyph1" horiz-adv-x="0" 
 />
    <glyph glyph-name="glyph2" 
 />
    <glyph glyph-name="space" unicode=" " 
 />
    <glyph glyph-name="exclam" unicode="!" 
d="M516 465l-16 924q0 45 43 45h80q45 0 45 -45l-17 -924q0 -45 -45 -45h-45q-45 0 -45 45zM463 47v152q0 47 47 47h145q47 0 47 -47v-152q0 -47 -47 -47h-145q-47 0 -47 47z" />
    <glyph glyph-name="quotedbl" unicode="&#x22;" 
d="M354 1008l-8 401q0 25 23 25h112q27 0 23 -25l-6 -401q-4 -25 -25 -25h-94q-25 0 -25 25zM670 1008l-6 401q-4 25 22 25h113q23 0 22 -25l-8 -401q0 -25 -25 -25h-94q-20 0 -24 25z" />
    <glyph glyph-name="numbersign" unicode="#" 
d="M395 496h299l78 442h-299zM23 403v62q0 31 30 31h217l80 442h-194q-31 0 -31 31v61q0 31 31 31h215l61 342q4 31 35 31h63q31 0 25 -31l-59 -342h299l61 342q4 31 35 31h63q31 0 25 -31l-59 -342h194q31 0 31 -31v-61q0 -31 -31 -31h-217l-78 -442h193q31 0 30 -31v-62
q0 -31 -30 -30h-215l-62 -342q-4 -31 -35 -31h-63q-31 0 -25 31l60 342h-299l-60 -342q-6 -31 -37 -31h-61q-31 0 -27 31l62 342h-197q-30 -1 -30 30z" />
    <glyph glyph-name="dollar" unicode="$" 
d="M516 -164v154h-92q-121 0 -193.5 72.5t-72.5 193.5v135q0 31 30 31l91 2q31 0 30 -31v-143q0 -49 30 -79t79 -30h319q49 0 79 30t30 79v160q0 57 -47 90l-518 338q-104 68 -105 192v146q0 119 74 192.5t192 73.5h74v153q0 31 31 31h74q31 0 30 -31v-153h74
q119 0 192.5 -74t73.5 -192v-136q0 -31 -30 -30h-89q-31 0 -30 30v144q0 49 -30 78.5t-79 29.5h-299q-49 0 -78.5 -29.5t-29.5 -78.5v-140q0 -57 49 -88l518 -340q47 -31 75.5 -84t28.5 -108v-168q0 -121 -72.5 -193.5t-193.5 -72.5h-80v-154q0 -31 -30 -31h-74
q-31 0 -31 31z" />
    <glyph glyph-name="percent" unicode="%" 
d="M61 465l979 600q12 4 17 4q10 0 16 -12l41 -62q14 -20 -8 -34l-979 -601q-8 -4 -14 -4q-12 0 -19 13l-41 61q-12 21 8 35zM162 1204v-188q0 -51 32.5 -83t84.5 -32h47q51 0 82.5 32t31.5 83v188q0 51 -31.5 83t-82.5 32h-47q-53 0 -85 -32t-32 -83zM41 1028v166
q0 113 67.5 180.5t180.5 67.5h24q113 0 181.5 -67.5t68.5 -180.5v-166q0 -113 -68.5 -181.5t-181.5 -68.5h-24q-113 0 -180.5 68.5t-67.5 181.5zM604 240v166q0 113 67.5 181t180.5 68h27q111 0 179 -68.5t68 -180.5v-166q0 -113 -68.5 -180.5t-178.5 -67.5h-27
q-113 0 -180.5 67.5t-67.5 180.5zM727 418v-189q0 -53 32 -83.5t83 -30.5h47q51 0 83 31.5t32 82.5v189q0 51 -32 82.5t-83 31.5h-47q-51 0 -83 -31.5t-32 -82.5z" />
    <glyph glyph-name="ampersand" unicode="&#x26;" 
d="M414 143h262q49 0 78.5 30t29.5 79v442h-370q-49 0 -79 -29.5t-30 -78.5v-334q0 -49 30 -79t79 -30zM424 1440h231q119 0 193 -73t74 -191v-103q0 -31 -31 -31h-88q-31 0 -31 31v109q0 49 -30.5 78.5t-79.5 29.5h-246q-49 0 -79 -29.5t-30 -78.5v-230q0 -49 30 -78.5
t79 -29.5h641q31 0 30 -31v-88q0 -31 -30 -31h-121v-436q0 -119 -74 -191.5t-192 -72.5h-248q-119 0 -192.5 72.5t-73.5 191.5v287q0 158 116 225q-115 72 -114 225v181q0 119 73.5 191.5t192.5 72.5z" />
    <glyph glyph-name="quotesingle" unicode="'" 
d="M512 1008l-8 401q0 25 24 25h111q25 0 25 -25l-9 -401q0 -25 -24 -25h-94q-25 0 -25 25z" />
    <glyph glyph-name="parenleft" unicode="(" 
d="M727 1528l70 -62q14 -14 2 -34l-162 -170q-70 -76 -70 -177v-942q0 -100 70 -176l162 -170q12 -20 -2 -35l-70 -61q-8 -6 -16 -6q-6 0 -19 8l-176 186q-100 106 -100 248v955q0 141 100 247l176 187q12 8 18.5 8t16.5 -6z" />
    <glyph glyph-name="parenright" unicode=")" 
d="M371 1466l69 62q10 6 16.5 6t18.5 -8l176 -187q100 -106 101 -247v-955q0 -141 -101 -248l-176 -186q-12 -8 -18 -8t-17 6l-69 61q-16 16 0 35l159 170q70 74 70 176v942q0 102 -70 177l-159 170q-16 18 0 34z" />
    <glyph glyph-name="asterisk" unicode="*" 
d="M643 1174l219 88q4 2 10 2q14 0 19 -17l24 -71q8 -20 -14 -29l-229 -60l149 -180q14 -20 -4 -33l-61 -45q-10 -6 -15 -6q-12 0 -18 13l-127 196l-125 -198q-10 -10 -18 -11q-6 0 -15 4l-61 45q-23 14 -4 33l147 180l-227 60q-23 8 -14 29l24 71q4 16 19 17q8 0 10 -2
l219 -86l-14 235q0 25 22 25h76q23 0 22 -25z" />
    <glyph glyph-name="plus" unicode="+" 
d="M516 655h-223q-31 0 -31 31v76q0 31 31 31h223v221q0 31 31 30h74q31 0 30 -30v-221h223q31 0 31 -31v-76q0 -31 -31 -31h-223v-221q0 -31 -30 -31h-74q-31 0 -31 31v221z" />
    <glyph glyph-name="comma" unicode="," 
d="M508 -262h-84q-39 0 -33 39l80 420q10 45 55 45h129q45 0 33 -43l-129 -424q-10 -37 -51 -37z" />
    <glyph glyph-name="hyphen" unicode="-" 
d="M358 588v74q0 25 25 24h401q25 0 25 -24v-74q0 -25 -25 -25h-401q-25 0 -25 25z" />
    <glyph glyph-name="period" unicode="." 
d="M465 47v152q0 47 45 47h147q45 0 45 -47v-152q0 -47 -45 -47h-147q-45 0 -45 47z" />
    <glyph glyph-name="slash" unicode="/" 
d="M203 -248l645 1768q6 16 22 16q6 0 9 -2l71 -27q20 -6 15 -28l-648 -1770q-4 -16 -20 -16q-6 0 -8 2l-72 26q-20 6 -14 31z" />
    <glyph glyph-name="zero" unicode="0" 
d="M313 285q0 -63 40 -103.5t104 -40.5h254q63 0 103 40t40 104v864q0 63 -40 103t-103 40h-254q-63 0 -103.5 -40t-40.5 -103v-864zM164 299v836q0 139 84 223t223 84h225q139 0 223.5 -84t84.5 -223v-836q0 -139 -84 -223t-224 -84h-225q-139 0 -223 84t-84 223zM471 649
v135q0 49 47 50h129q20 0 34.5 -13.5t14.5 -36.5v-135q0 -23 -14 -36t-35 -13h-129q-47 0 -47 49z" />
    <glyph glyph-name="one" unicode="1" 
d="M213 31v82q0 31 31 30h329v1121l-335 -140q-4 -2 -11 -2q-18 0 -18 23v90q0 31 29 41l360 147q27 10 59 11h37q31 0 31 -31v-1260h332q31 0 30 -30v-82q0 -31 -30 -31h-813q-31 0 -31 31z" />
    <glyph glyph-name="two" unicode="2" 
d="M164 31v254q0 53 26.5 102t71.5 78l541 362q41 27 41 78v244q0 63 -39 103t-105 40h-251q-63 0 -103.5 -40t-40.5 -103v-94q0 -31 -31 -31h-88q-31 0 -30 31v80q0 139 84 223t223 84h223q137 0 222 -84t85 -223v-250q0 -53 -26.5 -102.5t-71.5 -75.5l-541 -363
q-37 -27 -41 -78v-116h666q31 0 31 -31v-88q0 -31 -31 -31h-784q-31 0 -31 31z" />
    <glyph glyph-name="three" unicode="3" 
d="M291 1038h-90q-31 0 -31 31v64q0 137 85 222t222 85h205q137 0 222 -85t85 -222v-152q0 -162 -131 -236q145 -72 146 -241v-205q0 -139 -84 -223t-224 -84h-223q-137 0 -222 84t-85 223v63q0 31 31 31h88q31 0 30 -31v-77q0 -63 39 -103.5t105 -40.5h252q63 0 103 40
t40 104v239q0 66 -40 105t-103 39h-191q-31 0 -31 30v88q0 31 31 31h174q66 0 106 40t40 104v186q0 66 -39 104.5t-105 38.5h-231q-63 0 -103 -39t-40 -104v-78q0 -31 -31 -31z" />
    <glyph glyph-name="four" unicode="4" 
d="M756 31v270h-615q-31 0 -30 31v47q0 31 14 59l453 967q12 29 43 29h106q29 0 16 -29l-448 -954h461v366q0 31 30 31h91q31 0 30 -31v-366h127q31 0 31 -31v-88q0 -31 -31 -31h-127v-270q0 -31 -30 -31h-91q-30 0 -30 31z" />
    <glyph glyph-name="five" unicode="5" 
d="M164 299v72q0 23 24 22h103q23 0 22 -22v-86q0 -63 40 -103.5t104 -40.5h254q63 0 103 40t40 104v325q0 66 -40 105t-105 39h-461q-31 0 -31 30v619q0 31 31 31h665q25 0 25 -25v-102q0 -23 -25 -23h-544v-381h323q139 0 225.5 -85t86.5 -222v-297q0 -139 -84 -223
t-224 -84h-225q-139 0 -223 84t-84 223z" />
    <glyph glyph-name="six" unicode="6" 
d="M313 588v-301q0 -66 40 -105t104 -39h252q66 0 104.5 39t38.5 105v301q0 63 -39 103t-104 40h-252q-63 0 -103.5 -40t-40.5 -103zM471 1444h207q137 0 222 -85t85 -222v-39q0 -31 -31 -31h-90q-31 0 -30 31v53q0 66 -40 104.5t-104 38.5h-233q-63 0 -103.5 -38.5
t-40.5 -104.5v-320q66 49 158 50h225q139 0 223.5 -84t84.5 -224v-272q0 -137 -84 -222t-224 -85h-225q-139 0 -223 85t-84 222v836q0 137 84 222t223 85z" />
    <glyph glyph-name="seven" unicode="7" 
d="M139 1434h869q31 0 30 -31v-66q0 -27 -14 -59l-375 -711q-14 -29 -14 -59v-477q0 -31 -31 -31h-88q-31 0 -31 31v514q0 31 15 59l358 686h-719q-31 0 -30 31v82q-1 31 30 31z" />
    <glyph glyph-name="eight" unicode="8" 
d="M315 547v-268q0 -66 39 -105t105 -39h250q66 0 104.5 39t38.5 105v268q0 63 -39 103t-102 40h-252q-66 0 -105 -40t-39 -103zM338 1153v-168q0 -63 40 -103t103 -40h209q63 0 102 40t39 103v168q0 63 -38.5 103t-104.5 40h-207q-63 0 -103 -40t-40 -103zM186 1006v127
q0 137 85 222t223 85h180q137 0 222 -85t85 -222v-127q0 -160 -125 -234q145 -74 145 -246v-227q0 -139 -85 -223t-222 -84h-221q-137 0 -222 84t-85 223v227q0 174 145 246q-125 76 -125 234z" />
    <glyph glyph-name="nine" unicode="9" 
d="M711 1292h-254q-63 0 -103.5 -40t-40.5 -103v-291q0 -63 40 -103t104 -40h254q63 0 103 40t40 103v291q0 63 -40 103t-103 40zM164 872v263q0 139 84 223t223 84h225q139 0 223.5 -84t84.5 -223v-836q0 -139 -84 -223t-224 -84h-223q-137 0 -222 84t-85 223v39
q0 31 31 31h88q31 0 30 -31v-53q0 -63 39 -103.5t105 -40.5h252q63 0 103 40t40 104v329q-66 -49 -158 -49h-225q-139 0 -223 84t-84 223z" />
    <glyph glyph-name="colon" unicode=":" 
d="M465 47v152q0 47 45 47h147q45 0 45 -47v-152q0 -47 -45 -47h-147q-45 0 -45 47zM465 928v151q0 47 45 47h147q45 0 45 -47v-151q0 -47 -45 -47h-147q-45 0 -45 47z" />
    <glyph glyph-name="semicolon" unicode=";" 
d="M465 928v151q0 47 45 47h147q45 0 45 -47v-151q0 -47 -45 -47h-147q-45 0 -45 47zM508 -262h-84q-39 0 -33 39l80 420q10 45 55 45h129q45 0 33 -43l-129 -424q-10 -37 -51 -37z" />
    <glyph glyph-name="less" unicode="&#x3c;" 
d="M889 950l-408 -233l408 -234q27 -16 10 -41l-35 -67q-10 -14 -26 -15q-4 0 -17 5l-532 307q-27 14 -27 45t27 45l532 307q6 4 17 4q18 0 26 -14l35 -68q17 -25 -10 -41z" />
    <glyph glyph-name="equal" unicode="=" 
d="M262 528v76q0 31 31 31h581q31 0 31 -31v-76q0 -31 -31 -30h-581q-31 -1 -31 30zM262 844v74q0 31 31 30h581q31 0 31 -30v-74q0 -31 -31 -31h-581q-31 0 -31 31z" />
    <glyph glyph-name="greater" unicode="&#x3e;" 
d="M690 717l-407 233q-27 16 -11 41l35 68q8 14 27 14q10 0 16 -4l533 -307q27 -14 26.5 -45t-26.5 -45l-533 -307q-12 -4 -16 -5q-16 0 -27 15l-35 67q-16 25 11 41z" />
    <glyph glyph-name="question" unicode="?" 
d="M979 1176v-215q0 -55 -27.5 -109.5t-72.5 -87.5l-197 -148q-47 -39 -47 -94l-2 -71q-4 -31 -35 -31h-74q-33 0 -32 31l-3 92q-2 57 25 110.5t74 85.5l194 142q47 33 47 92v211q0 49 -30.5 78.5t-79.5 29.5h-277q-49 0 -76.5 -29.5t-27.5 -78.5v-146q0 -31 -31 -30h-90
q-31 0 -31 30v138q0 121 73 193.5t192 72.5h262q119 0 192.5 -73.5t73.5 -192.5zM449 47v152q0 47 47 47h145q47 0 47 -47v-152q0 -47 -47 -47h-145q-47 0 -47 47z" />
    <glyph glyph-name="at" unicode="@" 
d="M565 322v421q-145 121 -231 121q-41 0 -73 -29.5t-32 -80.5v-443q0 -51 32 -80.5t73 -29.5q86 0 231 121zM565 893v59q0 31 31 31h82q31 0 31 -31v-669q0 -45 27.5 -73t72.5 -28h39q45 0 73.5 28t28.5 73v563q0 152 -91 244t-241 92h-501q-31 0 -31 30v62q0 31 31 31h506
q205 0 330.5 -126t125.5 -333v-563q0 -102 -63.5 -166t-167.5 -64h-53q-158 0 -213 133q-162 -121 -287 -120q-86 0 -147.5 69.5t-61.5 177.5v439q0 109 61.5 178t147.5 69q114 0 270 -106z" />
    <glyph glyph-name="A" unicode="A" 
d="M371 412h426l-201 665q-8 25 -8 86h-8q0 -61 -9 -86zM842 262h-516l-70 -233q-10 -29 -39 -29h-94q-29 0 -23 29l414 1376q6 29 39 29h61q33 0 39 -29l414 -1376q6 -29 -23 -29h-92q-31 0 -41 29z" />
    <glyph glyph-name="B" unicode="B" 
d="M887 260v291q0 49 -31 80t-78 31h-465v-512h463q49 0 80 30.5t31 79.5zM735 1284h-422v-475h422q49 0 80 30.5t31 80.5v254q0 49 -31 79.5t-80 30.5zM1036 510v-244q0 -119 -73.5 -192.5t-192.5 -73.5h-575q-31 0 -31 31v1372q0 31 31 31h534q119 0 192.5 -74t73.5 -193
v-206q0 -141 -98 -213q139 -66 139 -238z" />
    <glyph glyph-name="C" unicode="C" 
d="M885 424h88q31 0 31 -31v-135q0 -119 -74 -192.5t-193 -73.5h-307q-119 0 -192.5 73.5t-73.5 192.5v918q0 119 73.5 192.5t192.5 73.5h307q119 0 193 -74t74 -192v-136q0 -31 -31 -30h-88q-31 0 -31 30v144q0 49 -30.5 78.5t-80.5 29.5h-319q-49 0 -80 -29.5t-31 -78.5
v-934q0 -49 31 -79t80 -30h319q49 0 80 30t31 79v143q0 31 31 31z" />
    <glyph glyph-name="D" unicode="D" 
d="M313 1284v-1134h430q49 0 80 30.5t31 79.5v914q0 49 -30.5 79.5t-80.5 30.5h-430zM164 31v1372q0 31 31 31h542q119 0 193 -74t74 -193v-901q0 -119 -74 -192.5t-193 -73.5h-542q-31 0 -31 31z" />
    <glyph glyph-name="E" unicode="E" 
d="M164 31v1372q0 31 31 31h778q31 0 31 -31v-88q0 -31 -31 -31h-660v-549h482q31 0 30 -30v-89q0 -31 -30 -30h-482v-436h660q31 0 31 -31v-88q0 -31 -31 -31h-778q-31 0 -31 31z" />
    <glyph glyph-name="F" unicode="F" 
d="M973 1284h-660v-549h482q31 0 30 -30v-89q0 -31 -30 -30h-482v-555q0 -31 -30 -31h-88q-31 0 -31 31v1372q0 31 31 31h778q31 0 31 -31v-88q0 -31 -31 -31z" />
    <glyph glyph-name="G" unicode="G" 
d="M573 623v90q0 31 31 30h369q31 0 31 -30v-455q0 -119 -74 -192.5t-193 -73.5h-307q-119 0 -192.5 73.5t-73.5 192.5v918q0 119 73.5 192.5t192.5 73.5h307q119 0 193 -74t74 -192v-136q0 -31 -31 -30h-88q-31 0 -31 30v144q0 49 -30.5 78.5t-80.5 29.5h-319
q-49 0 -80 -29.5t-31 -78.5v-934q0 -49 31 -79t80 -30h319q49 0 80 30t31 79v342h-250q-31 0 -31 31z" />
    <glyph glyph-name="H" unicode="H" 
d="M164 31v1372q0 31 31 31h88q31 0 30 -31v-668h541v668q0 31 31 31h88q31 0 31 -31v-1372q0 -31 -31 -31h-88q-31 0 -31 31v555h-541v-555q0 -31 -30 -31h-88q-31 0 -31 31z" />
    <glyph glyph-name="I" unicode="I" 
d="M168 31v82q0 31 31 30h309v1147h-309q-31 0 -31 31v82q0 31 31 31h770q31 0 30 -31v-82q0 -31 -30 -31h-310v-1147h310q31 0 30 -30v-82q0 -31 -30 -31h-770q-31 0 -31 31z" />
    <glyph glyph-name="J" unicode="J" 
d="M438 1321v82q0 31 31 31h483q31 0 31 -31v-1145q0 -119 -73.5 -192.5t-192.5 -73.5h-289q-121 0 -193.5 73.5t-72.5 192.5v86q0 31 31 31h88q31 0 30 -31v-94q0 -49 30 -79t79 -30h305q49 0 79 30t30 79v1040h-365q-31 0 -31 31z" />
    <glyph glyph-name="K" unicode="K" 
d="M535 670h-220v-639q0 -31 -30 -31h-90q-31 0 -31 31v1372q0 31 31 31h90q31 0 30 -31v-590h220l344 594q14 27 45 27h112q31 0 15 -27l-392 -666l426 -714q16 -27 -14 -27h-113q-31 0 -47 27z" />
    <glyph glyph-name="L" unicode="L" 
d="M332 152h647q31 0 31 -31v-90q0 -31 -31 -31h-768q-31 0 -31 31v1372q0 31 31 31h90q31 0 31 -31v-1251z" />
    <glyph glyph-name="M" unicode="M" 
d="M281 1014v-983q0 -31 -31 -31h-82q-31 0 -31 31v1372q0 31 31 31h102q33 0 39 -29l260 -748q10 -31 11 -86h8q0 55 10 86l260 748q6 29 39 29h102q31 0 31 -31v-1372q0 -31 -31 -31h-81q-31 0 -31 31v983q0 8 12 88h-8q-12 -70 -19 -86l-231 -656q-6 -31 -39 -30h-35
q-31 0 -41 30l-231 656q-8 20 -19 86l-8 -2q13 -74 13 -86z" />
    <glyph glyph-name="N" unicode="N" 
d="M315 1030v-999q0 -31 -30 -31h-90q-31 0 -31 31v1372q0 31 31 31h61q31 0 45 -27l530 -1014q16 -35 29 -84l8 2q-16 53 -16 86v1006q0 31 31 31h90q31 0 31 -31v-1372q0 -31 -31 -31h-62q-31 0 -45 27l-530 1009q-14 29 -29 82l-8 -2q16 -49 16 -86z" />
    <glyph glyph-name="O" unicode="O" 
d="M307 1184v-934q0 -49 30 -79t79 -30h336q49 0 78.5 30t29.5 79v934q0 49 -29.5 78.5t-78.5 29.5h-336q-49 0 -79 -29.5t-30 -78.5zM158 258v918q0 119 72.5 192.5t193.5 73.5h319q121 0 194 -74t73 -192v-918q0 -119 -73 -192.5t-194 -73.5h-319q-121 0 -193.5 73.5
t-72.5 192.5z" />
    <glyph glyph-name="P" unicode="P" 
d="M748 1284h-435v-569h435q49 0 78.5 29.5t29.5 78.5v351q0 49 -29.5 79.5t-78.5 30.5zM739 565h-426v-534q0 -31 -30 -31h-90q-29 0 -29 31v1372q0 31 29 31h546q121 0 194 -74t73 -193v-336q0 -119 -73 -192.5t-194 -73.5z" />
    <glyph glyph-name="Q" unicode="Q" 
d="M307 1184v-926q0 -49 30 -80t79 -31h336q49 0 78.5 31t29.5 80v926q0 49 -29.5 78.5t-78.5 29.5h-336q-49 0 -79 -29.5t-30 -78.5zM866 -272h-94q-115 0 -187.5 61t-72.5 170v39h-88q-121 0 -193.5 72.5t-72.5 193.5v912q0 119 72.5 192.5t193.5 73.5h319q121 0 194 -74
t73 -192v-912q0 -121 -73 -193.5t-194 -72.5h-88v-45q0 -43 34 -66.5t83 -23.5h94q31 0 31 -31v-74q0 -30 -31 -30z" />
    <glyph glyph-name="R" unicode="R" 
d="M760 1284h-447v-555h447q49 0 79.5 29.5t30.5 79.5v336q0 49 -30.5 79.5t-79.5 30.5zM893 29l-221 549h-359v-547q0 -31 -30 -31h-88q-31 0 -31 31v1372q0 31 31 31h559q119 0 192.5 -74t73.5 -193v-323q0 -100 -51 -168t-142 -90l222 -557q10 -29 -23 -29h-94
q-29 0 -39 29z" />
    <glyph glyph-name="S" unicode="S" 
d="M176 1030v146q0 119 74 192.5t192 73.5h283q119 0 192.5 -74t73.5 -192v-136q0 -31 -30 -30h-89q-31 0 -30 30v144q0 49 -30 78.5t-79 29.5h-299q-49 0 -78.5 -29.5t-29.5 -78.5v-140q0 -57 49 -88l518 -340q47 -31 75.5 -84t28.5 -108v-168q0 -121 -72.5 -193.5
t-193.5 -72.5h-307q-121 0 -193.5 72.5t-72.5 193.5v135q0 31 30 31l91 2q31 0 30 -31v-143q0 -49 30 -79t79 -30h319q49 0 79 30t30 79v160q0 57 -47 90l-518 338q-105 67 -105 192z" />
    <glyph glyph-name="T" unicode="T" 
d="M1065 1403v-88q0 -31 -31 -31h-375v-1253q0 -31 -30 -31h-90q-31 0 -31 31v1253h-375q-31 0 -31 31v88q0 31 31 31h901q31 0 31 -31z" />
    <glyph glyph-name="U" unicode="U" 
d="M891 1434h88q31 0 31 -31v-1145q0 -119 -73 -192.5t-194 -73.5h-319q-121 0 -193.5 73.5t-72.5 192.5v1145q0 31 30 31h88q31 0 31 -31v-1153q0 -49 30 -79t79 -30h336q49 0 78.5 30t29.5 79v1153q0 31 31 31z" />
    <glyph glyph-name="V" unicode="V" 
d="M952 1434h92q29 0 23 -29l-414 -1376q-6 -29 -39 -29h-61q-33 0 -39 29l-414 1376q-6 29 23 29h94q29 0 39 -29l315 -1049q8 -25 9 -86h8q0 61 8 86l315 1049q10 29 41 29z" />
    <glyph glyph-name="W" unicode="W" 
d="M653 1403l146 -1000q2 -14 2 -88h8q0 74 2 88l156 1000q6 31 37 31h90q31 0 26 -31l-246 -1372q-6 -31 -36 -31h-64q-31 0 -35 31l-151 973q-2 12 -2 88h-8q0 -76 -3 -88l-149 -973q-6 -31 -37 -31h-63q-31 0 -37 31l-244 1372q-6 31 25 31h92q31 0 35 -31l155 -1000
q2 -14 2 -88h8q0 74 3 88l145 1000q4 31 35 31h73q31 0 35 -31z" />
    <glyph glyph-name="X" unicode="X" 
d="M918 1434h108q31 0 16 -27l-364 -659l391 -721q12 -27 -16 -27h-107q-33 0 -45 27l-297 542q-16 31 -16 84h-8q0 -53 -17 -84l-297 -542q-12 -27 -45 -27h-106q-33 0 -19 27l391 721l-362 659q-16 27 16 27h107q31 0 45 -27l270 -479q16 -33 17 -84h8q0 51 16 84l268 479
q13 27 46 27z" />
    <glyph glyph-name="Y" unicode="Y" 
d="M1053 1405l-394 -838v-536q0 -31 -30 -31h-88q-31 0 -31 31v536l-393 838q-12 29 18 29h98q33 0 43 -29l289 -612q16 -31 17 -84h6q0 51 14 86l287 610q12 29 45 29h100q29 0 19 -29z" />
    <glyph glyph-name="Z" unicode="Z" 
d="M1008 119v-88q0 -31 -31 -31h-795q-31 0 -30 31v88q0 25 16 57l668 1108h-646q-31 0 -30 31v88q0 31 30 31h793q31 0 31 -31v-88q0 -31 -17 -58l-667 -1107h647q31 0 31 -31z" />
    <glyph glyph-name="bracketleft" unicode="[" 
d="M864 -307h-430q-25 0 -24 24v1794q0 25 24 25h430q23 0 23 -25v-88q0 -25 -23 -24h-305v-1569h305q23 0 23 -25v-88q0 -24 -23 -24z" />
    <glyph glyph-name="backslash" unicode="\" 
d="M317 1520l648 -1768q6 -25 -15 -31l-71 -26q-2 -2 -9 -2q-16 0 -22 16l-645 1770q-6 23 14 28l70 27q4 2 10 2q16 0 20 -16z" />
    <glyph glyph-name="bracketright" unicode="]" 
d="M733 -307h-430q-23 0 -22 24v88q0 25 22 25h305v1569h-305q-23 0 -22 24v88q0 25 22 25h430q25 0 25 -25v-1794q0 -24 -25 -24z" />
    <glyph glyph-name="asciicircum" unicode="^" 
d="M795 1008l-211 270l-213 -272q-8 -10 -23 -11q-12 0 -20 9l-56 53q-20 20 0 43l246 311q23 23 51 23h29q29 0 51 -23l246 -309q20 -25 -2 -43l-53 -53q-10 -8 -23 -9q-14 1 -22 11z" />
    <glyph glyph-name="underscore" unicode="_" 
d="M0 -307v149h1167v-149h-1167z" />
    <glyph glyph-name="grave" unicode="`" 
d="M625 1616l88 -168q8 -20 -13 -21h-59q-27 0 -39 17l-143 174q-16 18 6 18h127q23 0 33 -20z" />
    <glyph glyph-name="a" unicode="a" 
d="M840 250v268q-193 37 -308 37q-102 0 -160.5 -45t-58.5 -119v-125q0 -66 46.5 -106.5t121.5 -40.5q138 0 359 131zM170 268v121q0 131 100.5 210t266.5 79q55 0 303 -29v228q0 123 -109 122h-270q-109 0 -109 -122v-41q0 -31 -30 -31h-82q-31 0 -31 31v53
q0 111 67.5 178.5t178.5 67.5h282q111 0 178.5 -68t67.5 -178v-858q0 -31 -31 -31h-82q-31 0 -30 31v67q-213 -115 -371 -114q-133 0 -216 78.5t-83 205.5z" />
    <glyph glyph-name="b" unicode="b" 
d="M307 879v-631q244 -129 385 -129q76 0 122 41t46 108v592q0 66 -46 107t-122 41q-141 0 -385 -129zM195 1434h81q31 0 31 -31v-373q225 113 400 113q133 0 215 -77t82 -202v-600q0 -127 -82 -203.5t-215 -76.5q-174 0 -400 112v-65q0 -31 -31 -31h-81q-31 0 -31 31v1372
q0 31 31 31z" />
    <glyph glyph-name="c" unicode="c" 
d="M410 127h348q45 0 73.5 28.5t28.5 73.5v95q0 31 31 30h82q31 0 31 -30v-86q0 -111 -68 -178.5t-178 -67.5h-348q-111 0 -178.5 67.5t-67.5 178.5v651q0 111 67.5 178.5t178.5 67.5h348q111 0 178.5 -68t67.5 -178v-86q0 -31 -31 -31h-82q-31 0 -31 31v94q0 45 -28.5 73.5
t-73.5 28.5h-348q-45 0 -74 -28.5t-29 -73.5v-668q0 -45 29 -73.5t74 -28.5z" />
    <glyph glyph-name="d" unicode="d" 
d="M860 248v631q-244 129 -385 129q-76 0 -122 -41t-46 -107v-592q0 -68 46 -108.5t122 -40.5q141 0 385 129zM891 1434h82q31 0 31 -31v-1372q0 -31 -31 -31h-82q-31 0 -31 31v65q-225 -113 -399 -112q-133 0 -215 76.5t-82 203.5v600q0 125 82 202t215 77q174 0 399 -113
v373q0 31 31 31z" />
    <glyph glyph-name="e" unicode="e" 
d="M758 999h-348q-45 0 -74 -28.5t-29 -73.5v-262h553v262q0 45 -28.5 73.5t-73.5 28.5zM973 498h-666v-267q0 -47 29 -75.5t74 -28.5h348q45 0 73.5 28.5t28.5 73.5v68q0 31 31 31h82q31 0 31 -31v-59q0 -111 -68 -178.5t-178 -67.5h-348q-111 0 -178.5 67.5t-67.5 178.5
v651q0 111 67.5 178.5t178.5 67.5h348q111 0 178.5 -67t67.5 -177v-363q0 -30 -31 -30z" />
    <glyph glyph-name="f" unicode="f" 
d="M178 1020v76q0 31 31 30h231v62q0 111 67.5 178.5t178.5 67.5h272q31 0 31 -31v-76q0 -31 -31 -31h-272q-47 0 -74.5 -27.5t-27.5 -74.5v-68h374q31 0 31 -30v-76q0 -31 -31 -31h-374v-958q0 -31 -31 -31h-82q-31 0 -31 31v958h-231q-31 0 -31 31z" />
    <glyph glyph-name="g" unicode="g" 
d="M860 248v631q-244 129 -385 129q-76 0 -122 -42t-46 -110v-586q0 -68 46 -109.5t122 -41.5q141 0 385 129zM860 1030v66q0 31 31 30h82q31 0 31 -30v-1123q0 -152 -134.5 -224.5t-339.5 -72.5q-23 0 -64.5 2.5t-104 8.5t-106.5 20t-44 35v76q0 23 31 22q2 0 9 -1t13 -1
q123 -25 252 -24q90 0 163 14t127 55t54 105v108q-225 -113 -393 -112q-137 0 -220 78.5t-83 209.5v582q0 131 83 210t220 79q168 0 393 -113z" />
    <glyph glyph-name="h" unicode="h" 
d="M195 1434h81q31 0 31 -31v-373q225 113 395 113q135 0 218.5 -79t83.5 -210v-825q0 -29 -31 -29h-82q-31 0 -31 29v827q0 68 -47 110t-123 42q-147 0 -383 -129v-848q0 -31 -31 -31h-81q-31 0 -31 31v1372q0 31 31 31z" />
    <glyph glyph-name="i" unicode="i" 
d="M195 1028v68q0 31 30 30h430q31 0 31 -30v-967h318q31 0 30 -31v-67q0 -31 -30 -31h-779q-31 0 -30 31v67q0 31 30 31h318v868h-318q-30 0 -30 31zM449 1313v129q0 45 45 45h137q45 0 45 -45v-129q0 -45 -45 -45h-137q-45 0 -45 45z" />
    <glyph glyph-name="j" unicode="j" 
d="M332 1126h524q31 0 31 -30v-1123q0 -152 -121 -224.5t-311 -72.5q-20 0 -61.5 2.5t-101 8.5t-101 20t-41.5 35v76q0 23 30 22q2 0 9.5 -1t13.5 -1q123 -25 233 -24q129 0 218 41t89 133v1009h-411q-31 0 -31 31v68q0 30 31 30zM696 1489h138q45 0 45 -47v-127
q0 -47 -45 -47h-138q-45 0 -45 47v127q0 47 45 47z" />
    <glyph glyph-name="k" unicode="k" 
d="M514 506h-207v-475q0 -31 -31 -31h-81q-31 0 -31 31v1372q0 31 31 31h81q31 0 31 -31v-760h205l340 457q18 27 37 26h108q14 0 21.5 -8t-0.5 -18l-387 -525l411 -548q8 -10 2 -18.5t-20 -8.5h-111q-18 0 -36 27z" />
    <glyph glyph-name="l" unicode="l" 
d="M193 1335v68q0 31 30 31h428q31 0 31 -31v-1274h319q31 0 31 -31v-67q0 -31 -31 -31h-778q-31 0 -30 31v67q0 31 30 31h316v1176h-316q-30 -1 -30 30z" />
    <glyph glyph-name="m" unicode="m" 
d="M924 31v866q0 53 -26 82t-64 29q-74 0 -172 -99v-14v-864q0 -31 -31 -31h-82q-31 0 -31 31v866q0 53 -25.5 82t-66.5 29q-74 0 -170 -101v-876q0 -31 -31 -31h-82q-31 0 -30 31v1065q0 31 30 30h82q31 0 31 -30v-43q111 90 205 90q115 0 172 -113q127 113 235 113
q84 0 141.5 -68.5t57.5 -179.5v-864q0 -31 -31 -31h-82q-30 0 -30 31z" />
    <glyph glyph-name="n" unicode="n" 
d="M195 1126h81q31 0 31 -30v-66q225 113 395 113q135 0 218.5 -79t83.5 -210v-825q0 -29 -31 -29h-82q-31 0 -31 29v827q0 68 -47 110t-123 42q-147 0 -383 -129v-848q0 -31 -31 -31h-81q-31 0 -31 31v1065q0 30 31 30z" />
    <glyph glyph-name="o" unicode="o" 
d="M307 897v-668q0 -45 29 -73.5t74 -28.5h348q45 0 73.5 28.5t28.5 73.5v668q0 45 -28.5 73.5t-73.5 28.5h-348q-45 0 -74 -28.5t-29 -73.5zM164 238v651q0 111 67.5 178.5t178.5 67.5h348q111 0 178.5 -68t67.5 -178v-651q0 -111 -68 -178.5t-178 -67.5h-348
q-111 0 -178.5 67.5t-67.5 178.5z" />
    <glyph glyph-name="p" unicode="p" 
d="M307 879v-631q244 -129 385 -129q76 0 122 41t46 106v592q0 68 -46 109t-122 41q-141 0 -385 -129zM276 -307h-81q-31 0 -31 31v1372q0 31 31 30h81q31 0 31 -30v-66q225 113 398 113q135 0 217 -77t82 -204v-600q0 -125 -82 -201.5t-215 -76.5q-174 0 -400 112v-372
q0 -31 -31 -31z" />
    <glyph glyph-name="q" unicode="q" 
d="M860 248v631q-244 129 -385 129q-76 0 -122 -41t-46 -109v-592q0 -66 46 -106.5t122 -40.5q141 0 385 129zM973 -307h-82q-31 0 -31 31v372q-225 -113 -399 -112q-133 0 -215 76.5t-82 201.5v600q0 127 82 204t217 77q172 0 397 -113v66q0 31 31 30h82q31 0 31 -30v-1372
q0 -31 -31 -31z" />
    <glyph glyph-name="r" unicode="r" 
d="M879 98v-67q0 -31 -31 -31h-655q-31 0 -31 31v67q0 31 31 31h231v868h-225q-31 0 -31 31v68q0 31 31 30h338q31 0 30 -30v-125q258 170 457 170q31 0 31 -29l2 -96q0 -23 -31 -23q-158 0 -459 -182v-682h281q31 0 31 -31z" />
    <glyph glyph-name="s" unicode="s" 
d="M1004 344v-94q0 -117 -68 -187.5t-178 -70.5h-348q-111 0 -178.5 67.5t-67.5 178.5v86q0 31 31 30h81q31 0 31 -30v-74q0 -123 109 -123h336q109 0 108 133v70q0 70 -55 90l-502 186q-57 20 -93 78.5t-36 124.5v74q0 113 67.5 182.5t178.5 69.5h328q111 0 178 -68
t67 -178v-86q0 -31 -30 -31h-82q-31 0 -31 31v74q0 123 -109 122h-315q-109 0 -109 -131v-45q0 -70 56 -90l501 -186q59 -23 94.5 -80t35.5 -123z" />
    <glyph glyph-name="t" unicode="t" 
d="M164 1020v76q0 31 31 30h225v174q0 31 31 31h81q31 0 31 -31v-174h383q31 0 31 -30v-76q0 -31 -31 -31h-383v-751q0 -45 27.5 -74t75.5 -29h280q31 0 31 -31v-75q0 -31 -31 -31h-280q-111 0 -178.5 67.5t-67.5 178.5v745h-225q-31 0 -31 31z" />
    <glyph glyph-name="u" unicode="u" 
d="M973 0h-82q-31 0 -31 31v65q-225 -113 -393 -112q-137 0 -220 78.5t-83 209.5v826q0 29 31 28h81q31 0 31 -28v-828q0 -68 47 -109.5t123 -41.5q145 0 383 129v848q0 31 31 30h82q31 0 31 -30v-1065q0 -31 -31 -31z" />
    <glyph glyph-name="v" unicode="v" 
d="M598 254l317 844q10 29 41 28h97q29 0 20 -28l-411 -1069q-10 -29 -41 -29h-76q-31 0 -41 29l-410 1069q-10 29 21 28h94q31 0 41 -28l317 -844q12 -29 13 -88h6q0 59 12 88z" />
    <glyph glyph-name="w" unicode="w" 
d="M573 772l-151 -741q-6 -31 -37 -31h-76q-29 0 -39 31l-233 1065q-6 31 24 30h86q31 0 37 -30l156 -783q4 -27 4 -90h8q0 63 4 90l154 783q6 31 37 30h74q31 0 36 -30l154 -783q4 -27 4 -90h8q0 63 4 90l156 783q6 31 37 30h86q31 0 24 -30l-235 -1065q-6 -31 -37 -31h-78
q-31 0 -37 31l-151 741q-2 16 -4 52t-2 40h-6q-1 -65 -7 -92z" />
    <glyph glyph-name="x" unicode="x" 
d="M598 713l283 389q18 25 47 24h110q33 0 15 -24l-385 -524l389 -551q16 -27 -13 -27h-110q-31 0 -47 27l-291 413q-8 12 -8 45h-8q0 -33 -9 -45l-292 -415q-18 -25 -48 -25h-106q-33 0 -14 25l387 553l-373 522q-16 27 12 26h109q31 0 47 -26l278 -387q10 -16 11 -43h6
q0 27 10 43z" />
    <glyph glyph-name="y" unicode="y" 
d="M397 -279l115 281l-418 1096q-10 29 21 28h94q31 0 41 -28l317 -844q10 -33 11 -90h8q0 57 10 90l319 844q10 29 41 28h97q29 0 20 -28l-526 -1377q-10 -29 -41 -28h-90q-33 -1 -19 28z" />
    <glyph glyph-name="z" unicode="z" 
d="M182 162l641 827h-622q-31 0 -31 31v76q0 31 31 30h776q31 0 31 -30v-78q0 -29 -21 -53l-643 -828h635q31 0 31 -31v-75q0 -31 -31 -31h-784q-31 0 -31 31v78q0 26 18 53z" />
    <glyph glyph-name="braceleft" unicode="{" 
d="M879 1399h-115q-49 0 -79 -30t-30 -79v-450q0 -154 -114 -226q119 -70 118 -225v-450q0 -49 29 -79t78 -30h113q31 0 30 -31v-75q0 -31 -30 -31h-105q-119 0 -192.5 73.5t-73.5 192.5v471q0 49 -31 79t-78 30h-28q-31 0 -31 30v90q0 31 31 31h28q49 0 78 30t29 79v471
q0 121 72.5 193.5t191.5 72.5h109q31 0 30 -31v-75q1 -31 -30 -31z" />
    <glyph glyph-name="bar" unicode="|" 
d="M522 -283v1794q0 25 25 25h74q25 0 24 -25v-1794q0 -25 -24 -24h-74q-25 -1 -25 24z" />
    <glyph glyph-name="braceright" unicode="}" 
d="M289 -170h112q49 0 78 29.5t29 79.5v450q0 156 119 225q-115 72 -115 226v450q0 49 -29.5 79t-79.5 30h-114q-31 0 -31 31v75q0 31 31 31h108q119 0 192 -72.5t73 -193.5v-471q0 -49 28.5 -79t77.5 -30h29q31 0 30 -31v-90q0 -31 -30 -30h-29q-47 0 -78 -30t-31 -79v-471
q0 -119 -73.5 -192.5t-192.5 -73.5h-104q-31 0 -31 31v75q0 31 31 31z" />
    <glyph glyph-name="asciitilde" unicode="~" 
d="M266 680v92q0 23 21 37l55 37q45 27 102 26q43 0 74 -14l164 -70q18 -8 47 -8q39 0 66 19l86 53q4 4 10 4q10 0 10 -14v-92q0 -23 -20 -37l-56 -35q-47 -29 -102 -29q-35 0 -74 15l-164 69q-25 10 -47 10q-37 0 -65 -18l-86 -55q-4 -4 -11 -4q-10 0 -10 14z" />
    <glyph glyph-name="exclamdown" unicode="&#xa1;" 
d="M500 -262l16 924q0 45 45 45h45q45 0 45 -45l17 -924q0 -45 -45 -45h-80q-43 0 -43 45zM463 928v151q0 47 47 47h147q45 0 45 -47v-151q0 -47 -45 -47h-147q-47 0 -47 47z" />
    <glyph glyph-name="cent" unicode="&#xa2;" 
d="M745 180h-102v-166q0 -23 -22 -22h-76q-25 0 -25 22v166h-102q-111 0 -178.5 67.5t-67.5 178.5v582q0 111 67.5 178t178.5 67h102v166q0 23 25 23h76q23 0 22 -23v-166h102q111 0 178.5 -67.5t67.5 -177.5v-88q0 -31 -30 -31h-80q-33 0 -33 31v94q0 47 -28.5 74.5
t-74.5 27.5h-327q-45 0 -74 -27.5t-29 -74.5v-594q0 -47 29 -75t74 -28h327q45 0 74 28t29 75v94q0 31 33 31h80q31 0 30 -31v-88q0 -111 -67.5 -178.5t-178.5 -67.5z" />
    <glyph glyph-name="sterling" unicode="&#xa3;" 
d="M96 31v88q0 31 31 31h156v428h-156q-31 0 -31 30v62q0 31 31 30h156v476q0 119 73.5 192.5t192.5 73.5h188q119 0 193 -74t74 -192v-136q0 -31 -31 -30h-88q-31 0 -31 30v144q0 49 -30.5 78.5t-80.5 29.5h-202q-49 0 -79 -29.5t-30 -78.5v-484h322q31 0 30 -30v-62
q0 -31 -30 -30h-322v-428h535q31 0 30 -31v-88q0 -31 -30 -31h-840q-31 0 -31 31z" />
    <glyph glyph-name="currency" unicode="&#xa4;" 
d="M295 717q0 -121 85 -206t206 -85q119 0 205 86t86 205t-86 205t-205 86q-121 0 -206 -85t-85 -206zM932 467l112 -113q20 -23 0 -43l-53 -53q-10 -10 -20 -10q-12 0 -23 10l-112 113q-111 -82 -250 -82q-137 0 -252 82l-113 -113q-8 -10 -22 -10q-12 0 -21 10l-53 53
q-23 20 0 43l113 113q-80 113 -80 250t80 250l-113 114q-23 23 0 43l53 54q10 10 21 10q8 0 22 -10l113 -115q115 82 252 82q135 0 250 -82l112 115q14 10 23 10q10 0 20 -10l53 -54q20 -23 0 -43l-114 -114q82 -106 82 -250q0 -141 -80 -250z" />
    <glyph glyph-name="yen" unicode="&#xa5;" 
d="M256 236v59q0 31 31 31h223v137h-223q-31 0 -31 31v61q0 31 31 31h213l-383 819q-12 29 18 29h98q33 0 43 -29l289 -612q16 -31 17 -84h6q0 51 14 86l287 610q12 29 45 29h100q29 0 19 -29l-385 -819h213q31 0 30 -31v-61q0 -31 -30 -31h-222v-137h222q31 0 30 -31v-59
q0 -31 -30 -31h-222v-174q0 -31 -30 -31h-88q-31 0 -31 31v174h-223q-31 0 -31 31z" />
    <glyph glyph-name="brokenbar" unicode="&#xa6;" 
d="M522 -283v779h123v-779q0 -25 -24 -24h-74q-25 -1 -25 24zM645 1511v-778h-123v778q0 25 25 25h74q24 0 24 -25z" />
    <glyph glyph-name="section" unicode="&#xa7;" 
d="M567 383l-270 227q-92 78 -92 191v395q0 111 67.5 178.5t178.5 67.5h264q111 0 178.5 -67.5t67.5 -178.5v-115q0 -31 -31 -30h-82q-31 0 -31 30v103q0 123 -108 123h-238q-55 0 -89 -34t-34 -89v-371q0 -55 45 -94l271 -230q18 -14 2 -32l-64 -72q-8 -8 -18 -8
q-7 0 -17 6zM610 961l258 -222q92 -72 93 -190v-395q0 -111 -68 -178.5t-178 -67.5h-264q-111 0 -178.5 67.5t-67.5 178.5v114q0 31 31 31h81q31 0 31 -31v-100q0 -55 34 -89t89 -34h223q55 0 89 34t34 89v369q0 53 -43 96l-260 221q-18 16 -2 33l63 71q6 8 19 9q8 0 16 -6z
" />
    <glyph glyph-name="dieresis" unicode="&#xa8;" 
d="M678 1489v55q0 20 13.5 34.5t35.5 14.5h53q49 0 49 -49v-55q0 -49 -49 -49h-53q-23 0 -36 13t-13 36zM338 1489v55q0 49 51 49h51q23 0 37.5 -13t14.5 -36v-55q0 -23 -14.5 -36t-37.5 -13h-51q-51 0 -51 49z" />
    <glyph glyph-name="copyright" unicode="&#xa9;" 
d="M160 1030v-627q0 -125 77.5 -202.5t202.5 -77.5h287q125 0 203 78t78 202v627q0 125 -78 203t-203 78h-287q-125 0 -202.5 -78t-77.5 -203zM37 403v627q0 182 110.5 293t292.5 111h287q182 0 292.5 -111t110.5 -293v-627q0 -182 -110.5 -292.5t-292.5 -110.5h-287
q-182 0 -292.5 110.5t-110.5 292.5zM555 383h72q53 0 84.5 31.5t31.5 85.5v53q0 31 31 31h68q31 0 30 -31v-47q0 -111 -67.5 -178.5t-177.5 -67.5h-72q-111 0 -178.5 67.5t-67.5 178.5v422q0 111 67.5 178.5t178.5 67.5h72q111 0 178 -68t67 -178v-47q0 -31 -30 -31h-68
q-31 0 -31 31v53q0 53 -31.5 85t-84.5 32h-72q-51 0 -84 -32t-33 -85v-434q0 -53 33 -85t84 -32z" />
    <glyph glyph-name="ordfeminine" unicode="&#xaa;" 
d="M737 874v158q-121 23 -184 23q-61 0 -98 -28t-37 -75v-71q0 -41 26.5 -65.5t73.5 -24.5q96 -1 219 83zM309 881v71q0 88 67.5 141.5t178.5 53.5q59 0 182 -17v132q0 76 -63 75h-166q-61 0 -62 -75v-21q0 -23 -24 -22h-62q-23 0 -22 22v33q0 74 45 120t119 46h178
q74 0 120 -46t46 -120v-551q0 -23 -23 -23h-63q-23 0 -23 23v39q-131 -74 -229 -74q-88 0 -143.5 53.5t-55.5 139.5z" />
    <glyph glyph-name="guillemotleft" unicode="&#xab;" 
d="M584 918l-301 -293l301 -293q20 -20 0 -43l-43 -43q-10 -10 -23 -10q-14 0 -22 8l-324 317q-23 18 -22 51v25q0 33 22 51l324 318q8 8 22 8q12 0 23 -10l43 -43q20 -23 0 -43zM995 918l-301 -293l301 -293q23 -18 2 -43l-45 -43q-8 -10 -22 -10q-12 0 -21 8l-325 317
q-23 23 -23 51v25q0 29 23 51l325 318q8 8 21 8q14 0 22 -10l43 -43q23 -23 0 -43z" />
    <glyph glyph-name="logicalnot" unicode="&#xac;" 
d="M262 748v75q0 31 31 31h581q31 0 31 -31v-260q0 -31 -31 -31h-75q-31 0 -31 31v154h-475q-31 0 -31 31z" />
    <glyph glyph-name="uni00AD" unicode="&#xad;" 
d="M358 588v74q0 25 25 24h401q25 0 25 -24v-74q0 -25 -25 -25h-401q-25 0 -25 25z" />
    <glyph glyph-name="registered" unicode="&#xae;" 
d="M160 1030v-627q0 -125 77.5 -202.5t202.5 -77.5h287q125 0 203 78t78 202v627q0 125 -78 203t-203 78h-287q-125 0 -202.5 -78t-77.5 -203zM657 1042h-229v-325h229q49 0 79 22.5t30 59.5v162q0 37 -30 59t-79 22zM37 403v627q0 182 110.5 293t292.5 111h287
q182 0 292.5 -111t110.5 -293v-627q0 -182 -110.5 -292.5t-292.5 -110.5h-287q-182 0 -292.5 110.5t-110.5 292.5zM776 287l-145 301h-203v-299q0 -27 -27 -27h-75q-27 0 -27 27v858q0 27 27 27h327q109 0 176.5 -60.5t67.5 -159.5v-149q0 -145 -135 -199l147 -319
q10 -25 -18 -25h-80q-25 0 -35 25z" />
    <glyph glyph-name="macron" unicode="&#xaf;" 
d="M403 1489v53q0 25 25 25h313q23 0 23 -25v-53q0 -25 -23 -25h-313q-25 0 -25 25z" />
    <glyph glyph-name="degree" unicode="&#xb0;" 
d="M358 1225q0 94 65.5 159.5t160 65.5t160 -65.5t65.5 -159.5q0 -92 -65.5 -159t-160 -67t-160 67t-65.5 159zM471 1225q0 -45 33 -79t80 -34t79.5 34t32.5 79q0 47 -33.5 80.5t-78.5 33.5t-79 -33.5t-34 -80.5z" />
    <glyph glyph-name="plusminus" unicode="&#xb1;" 
d="M262 762v74q0 31 31 30h223v224q0 31 31 30h74q31 0 30 -30v-224h223q31 0 31 -30v-74q0 -31 -31 -31h-223v-223q0 -31 -30 -31h-74q-31 0 -31 31v223h-223q-31 0 -31 31zM262 250v74q0 31 31 30h581q31 0 31 -30v-74q0 -31 -31 -31h-581q-31 0 -31 31z" />
    <glyph glyph-name="uni00B2" unicode="&#xb2;" 
d="M367 735v139q0 61 55 97l262 164q18 10 18 32v115q0 29 -17 45t-44 16h-123q-27 0 -43 -17t-16 -44v-49q0 -18 -21 -19h-57q-18 0 -19 19v41q0 76 45.5 121t120.5 45h105q76 0 121 -45t45 -121v-119q0 -66 -58 -98l-262 -164q-16 -10 -16 -31v-49h321q18 0 19 -20v-58
q0 -18 -19 -18h-399q-18 0 -18 18z" />
    <glyph glyph-name="uni00B3" unicode="&#xb3;" 
d="M444 1223h-57q-18 0 -18 20v31q0 74 45 119t118 45h99q76 0 121 -45t45 -119v-66q0 -82 -66 -121q72 -39 72 -122v-88q0 -74 -45 -120t-121 -46h-105q-74 0 -118.5 46t-44.5 120v32q0 18 18 19h57q18 0 19 -19v-41q0 -29 16.5 -45t44.5 -16h123q27 0 43.5 17.5t16.5 43.5
v111q0 27 -16.5 43t-43.5 16h-96q-18 0 -19 19v57q0 20 19 21h88q27 0 44 16t17 43v88q0 27 -16 44t-43 17h-117q-29 0 -45 -16t-16 -45v-39q-1 -20 -19 -20z" />
    <glyph glyph-name="acute" unicode="&#xb4;" 
d="M455 1448l88 168q10 20 35 20h124q23 0 7 -18l-144 -174q-12 -16 -39 -17h-59q-20 1 -12 21z" />
    <glyph glyph-name="paragraph" unicode="&#xb6;" 
d="M846 -276v1560h-197v-1560q0 -31 -31 -31h-88q-31 0 -30 31v847h-82q-119 0 -192.5 73t-73.5 194v329q0 119 73.5 193t192.5 74h547q31 0 30 -31v-1679q0 -31 -30 -31h-88q-31 0 -31 31z" />
    <glyph glyph-name="periodcentered" unicode="&#xb7;" 
d="M465 641v152q0 47 45 47h147q45 0 45 -47v-152q0 -47 -45 -47h-147q-45 0 -45 47z" />
    <glyph glyph-name="cedilla" unicode="&#xb8;" 
d="M702 -156v-45q0 -41 -25.5 -66.5t-66.5 -25.5h-123q-23 0 -22 25v26q0 25 22 25h103q31 0 31 31v16q0 31 -31 31h-51q-45 0 -35 43l18 102h90l-14 -69h12q41 0 66.5 -26t25.5 -67z" />
    <glyph glyph-name="uni00B9" unicode="&#xb9;" 
d="M426 735v53q0 18 18 19h158v518l-160 -57q-2 -2 -6 -2q-10 0 -10 14v57q0 20 16 27l176 63q31 6 37 7h23q18 0 18 -19v-608h158q18 0 18 -19v-53q0 -18 -18 -18h-410q-18 0 -18 18z" />
    <glyph glyph-name="ordmasculine" unicode="&#xba;" 
d="M414 1278v-424q0 -57 57 -57h227q25 0 40.5 15t15.5 42v424q0 59 -56 59h-227q-57 0 -57 -59zM305 860v414q0 74 45 120t121 46h227q74 0 119 -46t45 -120v-414q0 -76 -45 -121t-119 -45h-227q-76 0 -121 45t-45 121z" />
    <glyph glyph-name="guillemotright" unicode="&#xbb;" 
d="M885 625l-301 293q-23 20 0 43l43 43q8 10 22 10q12 0 21 -8l325 -318q23 -18 23 -51v-25q0 -33 -23 -51l-325 -317q-8 -8 -21 -8q-14 0 -22 10l-43 43q-23 23 0 43zM473 625l-303 293q-20 20 0 43l45 43q8 10 21 10q14 0 22 -8l326 -318q20 -20 20 -51v-25
q0 -31 -20 -51l-326 -317q-8 -8 -22 -8q-12 0 -21 10l-45 43q-20 23 0 43z" />
    <glyph glyph-name="onequarter" unicode="&#xbc;" 
d="M61 434l979 600q8 6 17 6q10 0 16 -12l41 -63q14 -23 -8 -33l-979 -600q-6 -6 -14 -6q-12 0 -19 12l-41 63q-12 19 8 33zM967 641l-213 -430h198v184q0 18 17 19h59q16 0 16 -19v-184h56q20 0 20 -18v-58q0 -20 -20 -20h-56v-97q0 -18 -16 -18h-59q-16 0 -17 18v97h-297
q-20 0 -20 20v29q0 23 8 39l219 438q8 18 27 18h67q21 0 11 -18zM49 811v53q0 18 21 19h155v442l-157 -57q-2 -2 -7 -2q-12 0 -12 14v57q0 18 19 27l176 63q31 6 35 7h24q18 0 19 -19v-532h155q20 0 21 -19v-53q0 -18 -21 -18h-407q-21 0 -21 18z" />
    <glyph glyph-name="onehalf" unicode="&#xbd;" 
d="M61 434l979 600q8 6 17 6q10 0 16 -12l41 -63q14 -23 -8 -33l-979 -600q-6 -6 -14 -6q-12 0 -19 12l-41 63q-12 19 8 33zM705 18v140q0 63 53 96l262 131q20 12 20 35v72q0 27 -17 43t-44 16h-125q-27 0 -43 -16.5t-16 -42.5v-46q0 -16 -19 -16h-57q-18 0 -19 16v35
q0 76 44 121t120 45h107q74 0 119 -45t45 -121v-75q0 -66 -58 -99l-260 -131q-18 -8 -18 -31v-49h323q16 0 17 -20v-58q0 -18 -17 -18h-399q-18 0 -18 18zM49 811v53q0 18 21 19h155v442l-157 -57q-2 -2 -7 -2q-12 0 -12 14v57q0 18 19 27l176 63q31 6 35 7h24q18 0 19 -19
v-532h155q20 0 21 -19v-53q0 -18 -21 -18h-407q-21 0 -21 18z" />
    <glyph glyph-name="threequarters" unicode="&#xbe;" 
d="M61 434l979 600q8 6 17 6q10 0 16 -12l41 -63q14 -23 -8 -33l-979 -600q-6 -6 -14 -6q-12 0 -19 12l-41 63q-12 19 8 33zM967 641l-213 -430h198v184q0 18 17 19h59q16 0 16 -19v-184h56q20 0 20 -18v-58q0 -20 -20 -20h-56v-97q0 -18 -16 -18h-59q-16 0 -17 18v97h-297
q-20 0 -20 20v29q0 23 8 39l219 438q8 18 27 18h67q21 0 11 -18zM127 1227h-55q-20 0 -21 20v31q0 74 45 119t121 45h98q76 0 121 -45t45 -119v-35q0 -82 -65 -121q70 -39 69 -123v-57q0 -74 -45 -120t-118 -46h-105q-76 0 -121 46t-45 120v33q0 18 21 18h57q18 0 18 -18
v-41q0 -27 16.5 -44.5t43.5 -17.5h123q27 0 44 16.5t17 45.5v80q0 27 -17.5 43t-43.5 16h-94q-18 0 -19 19v57q0 20 19 20h88q27 0 44 16.5t17 43.5v57q0 27 -16.5 44.5t-42.5 17.5h-119q-27 0 -43.5 -17.5t-16.5 -44.5v-39q0 -20 -20 -20z" />
    <glyph glyph-name="questiondown" unicode="&#xbf;" 
d="M186 -49v215q0 55 29 109.5t74 86.5l196 148q43 37 47 94l3 72q4 31 32 31h76q31 0 31 -31l2 -92q2 -57 -23.5 -110.5t-72.5 -86.5l-197 -141q-45 -35 -45 -92v-211q0 -49 29.5 -79t78.5 -30h277q49 0 77.5 30t28.5 79v145q0 31 31 31h88q31 0 31 -31v-137
q0 -121 -71.5 -193.5t-190.5 -72.5h-264q-121 0 -194 73.5t-73 192.5zM717 1079v-151q0 -47 -47 -47h-146q-47 0 -47 47v151q0 47 47 47h146q47 0 47 -47z" />
    <glyph glyph-name="Agrave" unicode="&#xc0;" 
d="M371 412h426l-201 665q-8 25 -8 86h-8q0 -61 -9 -86zM842 262h-516l-70 -233q-10 -29 -39 -29h-94q-29 0 -23 29l414 1376q6 29 39 29h61q33 0 39 -29l414 -1376q6 -29 -23 -29h-92q-31 0 -41 29zM551 1706l86 -170q10 -20 -12 -20h-58q-25 0 -41 16l-143 176
q-16 16 8 16h125q23 0 35 -18z" />
    <glyph glyph-name="Aacute" unicode="&#xc1;" 
d="M371 412h426l-201 665q-8 25 -8 86h-8q0 -61 -9 -86zM842 262h-516l-70 -233q-10 -29 -39 -29h-94q-29 0 -23 29l414 1376q6 29 39 29h61q33 0 39 -29l414 -1376q6 -29 -23 -29h-92q-31 0 -41 29zM530 1536l86 170q12 18 35 18h127q18 0 6 -16l-143 -176q-16 -16 -41 -16
h-57q-23 0 -13 20z" />
    <glyph glyph-name="Acircumflex" unicode="&#xc2;" 
d="M371 412h426l-201 665q-8 25 -8 86h-8q0 -61 -9 -86zM842 262h-516l-70 -233q-10 -29 -39 -29h-94q-29 0 -23 29l414 1376q6 29 39 29h61q33 0 39 -29l414 -1376q6 -29 -23 -29h-92q-31 0 -41 29zM659 1696l117 -156q14 -18 -8 -18h-78q-25 0 -39 20l-67 94l-72 -94
q-14 -20 -37 -20h-76q-23 0 -8 18l117 156q12 18 39 18h74q26 0 38 -18z" />
    <glyph glyph-name="Atilde" unicode="&#xc3;" 
d="M371 412h426l-201 665q-8 25 -8 86h-8q0 -61 -9 -86zM842 262h-516l-70 -233q-10 -29 -39 -29h-94q-29 0 -23 29l414 1376q6 29 39 29h61q33 0 39 -29l414 -1376q6 -29 -23 -29h-92q-31 0 -41 29zM358 1552v60q0 37 49.5 57.5t92.5 20.5q37 0 67 -15l72 -33q14 -8 37 -8
q66 0 121 41q8 4 10 4q8 0 8 -14v-61q0 -37 -48 -55.5t-91 -18.5q-37 0 -68 12l-71 35q-18 6 -39 6q-63 0 -119 -41q-4 -4 -12.5 -4t-8.5 14z" />
    <glyph glyph-name="Adieresis" unicode="&#xc4;" 
d="M371 412h426l-201 665q-8 25 -8 86h-8q0 -61 -9 -86zM842 262h-516l-70 -233q-10 -29 -39 -29h-94q-29 0 -23 29l414 1376q6 29 39 29h61q33 0 39 -29l414 -1376q6 -29 -23 -29h-92q-31 0 -41 29zM338 1579v53q0 49 51 49h51q23 0 37.5 -13t14.5 -36v-53q0 -49 -52 -49
h-51q-51 0 -51 49zM678 1579v53q0 23 13.5 36t35.5 13h53q49 0 49 -49v-53q0 -49 -49 -49h-53q-49 0 -49 49z" />
    <glyph glyph-name="Aring" unicode="&#xc5;" 
d="M371 412h426l-201 665q-8 25 -8 86h-8q0 -61 -9 -86zM516 1648.5q0 -26.5 20.5 -47t47 -20.5t47 20.5t20.5 47t-20.5 47t-47 20.5t-47 -20.5t-20.5 -47zM842 262h-516l-70 -233q-10 -29 -39 -29h-94q-29 0 -23 29l414 1376q6 29 39 29h61q33 0 39 -29l414 -1376
q6 -29 -23 -29h-92q-31 0 -41 29zM440 1648.5q0 59.5 42 101.5t101.5 42t101.5 -42t42 -101.5t-42 -101.5t-101.5 -42t-101.5 42t-42 101.5z" />
    <glyph glyph-name="AE" unicode="&#xc6;" 
d="M338 412h268v716q0 27 10 89l-4 2q-6 -45 -20 -86zM606 262h-321l-82 -233q-10 -29 -39 -29h-98q-33 0 -23 29l502 1376q10 29 39 29h487q31 0 31 -31v-88q0 -31 -31 -31h-313v-549h225q31 0 31 -30v-89q0 -31 -31 -30h-225v-436h313q31 0 31 -31v-88q0 -31 -31 -31h-434
q-31 0 -31 31v231z" />
    <glyph glyph-name="Ccedilla" unicode="&#xc7;" 
d="M702 -156v-45q0 -41 -25.5 -66.5t-66.5 -25.5h-123q-23 0 -22 25v26q0 25 22 25h103q31 0 31 31v16q0 31 -31 31h-51q-45 0 -35 43l16 88h-90q-119 0 -192.5 73.5t-73.5 192.5v918q0 119 73.5 192.5t192.5 73.5h307q119 0 193 -74t74 -192v-136q0 -31 -31 -30h-88
q-31 0 -31 30v144q0 49 -30.5 78.5t-80.5 29.5h-319q-49 0 -80 -29.5t-31 -78.5v-934q0 -49 31 -79t80 -30h319q49 0 80 30t31 79v143q0 31 31 31h88q31 0 31 -31v-135q0 -119 -74 -192.5t-193 -73.5h-129l-10 -55h12q41 0 66.5 -26t25.5 -67z" />
    <glyph glyph-name="Egrave" unicode="&#xc8;" 
d="M164 31v1372q0 31 31 31h778q31 0 31 -31v-88q0 -31 -31 -31h-660v-549h482q31 0 30 -30v-89q0 -31 -30 -30h-482v-436h660q31 0 31 -31v-88q0 -31 -31 -31h-778q-31 0 -31 31zM553 1706l88 -170q10 -20 -12 -20h-60q-27 0 -39 16l-143 176q-16 16 6 16h127q25 0 33 -18z
" />
    <glyph glyph-name="Eacute" unicode="&#xc9;" 
d="M164 31v1372q0 31 31 31h778q31 0 31 -31v-88q0 -31 -31 -31h-660v-549h482q31 0 30 -30v-89q0 -31 -30 -30h-482v-436h660q31 0 31 -31v-88q0 -31 -31 -31h-778q-31 0 -31 31zM506 1536l88 170q8 18 35 18h125q23 0 6 -16l-144 -176q-12 -16 -38 -16h-60q-22 0 -12 20z
" />
    <glyph glyph-name="Ecircumflex" unicode="&#xca;" 
d="M164 31v1372q0 31 31 31h778q31 0 31 -31v-88q0 -31 -31 -31h-660v-549h482q31 0 30 -30v-89q0 -31 -30 -30h-482v-436h660q31 0 31 -31v-88q0 -31 -31 -31h-778q-31 0 -31 31zM649 1696l117 -156q14 -18 -8 -18h-78q-25 0 -39 20l-68 94l-71 -94q-14 -20 -37 -20h-76
q-23 0 -8 18l117 156q12 18 39 18h73q27 0 39 -18z" />
    <glyph glyph-name="Edieresis" unicode="&#xcb;" 
d="M164 31v1372q0 31 31 31h778q31 0 31 -31v-88q0 -31 -31 -31h-660v-549h482q31 0 30 -30v-89q0 -31 -30 -30h-482v-436h660q31 0 31 -31v-88q0 -31 -31 -31h-778q-31 0 -31 31zM668 1579v53q0 23 14 36t35 13h53q49 0 49 -49v-53q0 -49 -49 -49h-53q-49 0 -49 49z
M328 1579v53q0 49 51 49h51q23 0 37 -13t14 -36v-53q0 -49 -51 -49h-51q-51 0 -51 49z" />
    <glyph glyph-name="Igrave" unicode="&#xcc;" 
d="M168 31v82q0 31 31 30h309v1147h-309q-31 0 -31 31v82q0 31 31 31h770q31 0 30 -31v-82q0 -31 -30 -31h-310v-1147h310q31 0 30 -30v-82q0 -31 -30 -31h-770q-31 0 -31 31zM563 1706l88 -170q10 -20 -12 -20h-59q-27 0 -39 16l-144 176q-16 16 6 16h127q23 0 33 -18z" />
    <glyph glyph-name="Iacute" unicode="&#xcd;" 
d="M168 31v82q0 31 31 30h309v1147h-309q-31 0 -31 31v82q0 31 31 31h770q31 0 30 -31v-82q0 -31 -30 -31h-310v-1147h310q31 0 30 -30v-82q0 -31 -30 -31h-770q-31 0 -31 31zM516 1536l88 170q10 18 35 18h125q23 0 6 -16l-143 -176q-12 -16 -39 -16h-60q-22 0 -12 20z" />
    <glyph glyph-name="Icircumflex" unicode="&#xce;" 
d="M168 31v82q0 31 31 30h309v1147h-309q-31 0 -31 31v82q0 31 31 31h770q31 0 30 -31v-82q0 -31 -30 -31h-310v-1147h310q31 0 30 -30v-82q0 -31 -30 -31h-770q-31 0 -31 31zM659 1696l117 -156q14 -18 -8 -18h-78q-25 0 -39 20l-67 94l-72 -94q-14 -20 -37 -20h-76
q-23 0 -8 18l117 156q12 18 39 18h74q26 0 38 -18z" />
    <glyph glyph-name="Idieresis" unicode="&#xcf;" 
d="M168 31v82q0 31 31 30h309v1147h-309q-31 0 -31 31v82q0 31 31 31h770q31 0 30 -31v-82q0 -31 -30 -31h-310v-1147h310q31 0 30 -30v-82q0 -31 -30 -31h-770q-31 0 -31 31zM338 1579v53q0 49 51 49h51q23 0 37.5 -13t14.5 -36v-53q0 -49 -52 -49h-51q-51 0 -51 49z
M678 1579v53q0 23 13.5 36t35.5 13h53q49 0 49 -49v-53q0 -49 -49 -49h-53q-49 0 -49 49z" />
    <glyph glyph-name="Eth" unicode="&#xd0;" 
d="M547 670h-234v-520h430q49 0 80 30.5t31 79.5v914q0 49 -30.5 79.5t-80.5 30.5h-430v-491h234q31 0 31 -31v-62q0 -30 -31 -30zM25 700v62q0 31 30 31h109v610q0 31 31 31h542q119 0 193 -74t74 -193v-901q0 -119 -74 -192.5t-193 -73.5h-542q-31 0 -31 31v639h-109
q-30 -1 -30 30z" />
    <glyph glyph-name="Ntilde" unicode="&#xd1;" 
d="M315 1030v-999q0 -31 -30 -31h-90q-31 0 -31 31v1372q0 31 31 31h61q31 0 45 -27l530 -1014q16 -35 29 -84l8 2q-16 53 -16 86v1006q0 31 31 31h90q31 0 31 -31v-1372q0 -31 -31 -31h-62q-31 0 -45 27l-530 1009q-14 29 -29 82l-8 -2q16 -49 16 -86zM358 1552v60
q0 37 49.5 57.5t92.5 20.5q39 0 67 -15l72 -33q16 -8 39 -8q63 0 119 41q8 4 10 4q10 0 10 -14v-61q0 -37 -48 -55.5t-91 -18.5q-35 0 -70 12l-71 35q-16 6 -37 6q-66 0 -121 -41q-4 -4 -10 -4q-11 0 -11 14z" />
    <glyph glyph-name="Ograve" unicode="&#xd2;" 
d="M307 1184v-934q0 -49 30 -79t79 -30h336q49 0 78.5 30t29.5 79v934q0 49 -29.5 78.5t-78.5 29.5h-336q-49 0 -79 -29.5t-30 -78.5zM158 258v918q0 119 72.5 192.5t193.5 73.5h319q121 0 194 -74t73 -192v-918q0 -119 -73 -192.5t-194 -73.5h-319q-121 0 -193.5 73.5
t-72.5 192.5zM563 1706l88 -170q10 -20 -12 -20h-59q-27 0 -39 16l-144 176q-16 16 6 16h127q23 0 33 -18z" />
    <glyph glyph-name="Oacute" unicode="&#xd3;" 
d="M307 1184v-934q0 -49 30 -79t79 -30h336q49 0 78.5 30t29.5 79v934q0 49 -29.5 78.5t-78.5 29.5h-336q-49 0 -79 -29.5t-30 -78.5zM158 258v918q0 119 72.5 192.5t193.5 73.5h319q121 0 194 -74t73 -192v-918q0 -119 -73 -192.5t-194 -73.5h-319q-121 0 -193.5 73.5
t-72.5 192.5zM516 1536l88 170q10 18 35 18h125q23 0 6 -16l-143 -176q-12 -16 -39 -16h-60q-22 0 -12 20z" />
    <glyph glyph-name="Ocircumflex" unicode="&#xd4;" 
d="M307 1184v-934q0 -49 30 -79t79 -30h336q49 0 78.5 30t29.5 79v934q0 49 -29.5 78.5t-78.5 29.5h-336q-49 0 -79 -29.5t-30 -78.5zM158 258v918q0 119 72.5 192.5t193.5 73.5h319q121 0 194 -74t73 -192v-918q0 -119 -73 -192.5t-194 -73.5h-319q-121 0 -193.5 73.5
t-72.5 192.5zM659 1696l117 -156q14 -18 -8 -18h-78q-25 0 -39 20l-67 94l-72 -94q-14 -20 -37 -20h-76q-23 0 -8 18l117 156q12 18 39 18h74q26 0 38 -18z" />
    <glyph glyph-name="Otilde" unicode="&#xd5;" 
d="M307 1184v-934q0 -49 30 -79t79 -30h336q49 0 78.5 30t29.5 79v934q0 49 -29.5 78.5t-78.5 29.5h-336q-49 0 -79 -29.5t-30 -78.5zM158 258v918q0 119 72.5 192.5t193.5 73.5h319q121 0 194 -74t73 -192v-918q0 -119 -73 -192.5t-194 -73.5h-319q-121 0 -193.5 73.5
t-72.5 192.5zM358 1552v60q0 37 49.5 57.5t92.5 20.5q37 0 67 -15l72 -33q14 -8 37 -8q66 0 121 41q8 4 10 4q8 0 8 -14v-61q0 -37 -48 -55.5t-91 -18.5q-37 0 -68 12l-71 35q-18 6 -39 6q-63 0 -119 -41q-4 -4 -12.5 -4t-8.5 14z" />
    <glyph glyph-name="Odieresis" unicode="&#xd6;" 
d="M307 1184v-934q0 -49 30 -79t79 -30h336q49 0 78.5 30t29.5 79v934q0 49 -29.5 78.5t-78.5 29.5h-336q-49 0 -79 -29.5t-30 -78.5zM158 258v918q0 119 72.5 192.5t193.5 73.5h319q121 0 194 -74t73 -192v-918q0 -119 -73 -192.5t-194 -73.5h-319q-121 0 -193.5 73.5
t-72.5 192.5zM678 1579v53q0 23 13.5 36t35.5 13h53q49 0 49 -49v-53q0 -49 -49 -49h-53q-49 0 -49 49zM338 1579v53q0 49 51 49h51q23 0 37.5 -13t14.5 -36v-53q0 -49 -52 -49h-51q-51 0 -51 49z" />
    <glyph glyph-name="multiply" unicode="&#xd7;" 
d="M377 1020l207 -207l207 207q10 10 22 10q10 0 21 -10l53 -53q23 -20 0 -43l-207 -207l207 -207q23 -23 0 -43l-53 -51q-8 -10 -21 -10q-14 0 -22 10l-207 205l-207 -207q-10 -10 -21 -11q-12 0 -22 11l-53 53q-20 20 0 43l206 207l-206 207q-25 20 0 43l53 53
q10 10 20 10q13 0 23 -10z" />
    <glyph glyph-name="Oslash" unicode="&#xd8;" 
d="M369 150l346 1142h-299q-49 0 -79 -29.5t-30 -78.5v-934q1 -73 62 -100zM797 1284l-344 -1143h299q49 0 78.5 30t29.5 79v934q0 73 -63 100zM862 1495l-20 -68q78 -27 123 -93t45 -158v-918q0 -119 -73 -192.5t-194 -73.5h-319h-16l-25 -80q-6 -16 -21 -16q-2 0 -6 2
l-39 12q-23 8 -14 29l23 67q-78 27 -123 93.5t-45 158.5v918q0 119 72.5 192.5t193.5 73.5h319h17l24 78q6 16 21 16q4 0 8 -2l37 -10q20 -6 12 -29z" />
    <glyph glyph-name="Ugrave" unicode="&#xd9;" 
d="M891 1434h88q31 0 31 -31v-1145q0 -119 -73 -192.5t-194 -73.5h-319q-121 0 -193.5 73.5t-72.5 192.5v1145q0 31 30 31h88q31 0 31 -31v-1153q0 -49 30 -79t79 -30h336q49 0 78.5 30t29.5 79v1153q0 31 31 31zM563 1706l88 -170q10 -20 -12 -20h-59q-27 0 -39 16
l-144 176q-16 16 6 16h127q23 0 33 -18z" />
    <glyph glyph-name="Uacute" unicode="&#xda;" 
d="M891 1434h88q31 0 31 -31v-1145q0 -119 -73 -192.5t-194 -73.5h-319q-121 0 -193.5 73.5t-72.5 192.5v1145q0 31 30 31h88q31 0 31 -31v-1153q0 -49 30 -79t79 -30h336q49 0 78.5 30t29.5 79v1153q0 31 31 31zM516 1536l88 170q10 18 35 18h125q23 0 6 -16l-143 -176
q-12 -16 -39 -16h-60q-22 0 -12 20z" />
    <glyph glyph-name="Ucircumflex" unicode="&#xdb;" 
d="M891 1434h88q31 0 31 -31v-1145q0 -119 -73 -192.5t-194 -73.5h-319q-121 0 -193.5 73.5t-72.5 192.5v1145q0 31 30 31h88q31 0 31 -31v-1153q0 -49 30 -79t79 -30h336q49 0 78.5 30t29.5 79v1153q0 31 31 31zM659 1696l117 -156q14 -18 -8 -18h-78q-25 0 -39 20l-67 94
l-72 -94q-14 -20 -37 -20h-76q-23 0 -8 18l117 156q12 18 39 18h74q26 0 38 -18z" />
    <glyph glyph-name="Udieresis" unicode="&#xdc;" 
d="M891 1434h88q31 0 31 -31v-1145q0 -119 -73 -192.5t-194 -73.5h-319q-121 0 -193.5 73.5t-72.5 192.5v1145q0 31 30 31h88q31 0 31 -31v-1153q0 -49 30 -79t79 -30h336q49 0 78.5 30t29.5 79v1153q0 31 31 31zM678 1579v53q0 23 13.5 36t35.5 13h53q49 0 49 -49v-53
q0 -49 -49 -49h-53q-49 0 -49 49zM338 1579v53q0 49 51 49h51q23 0 37.5 -13t14.5 -36v-53q0 -49 -52 -49h-51q-51 0 -51 49z" />
    <glyph glyph-name="Yacute" unicode="&#xdd;" 
d="M1053 1405l-394 -838v-536q0 -31 -30 -31h-88q-31 0 -31 31v536l-393 838q-12 29 18 29h98q33 0 43 -29l289 -612q16 -31 17 -84h6q0 51 14 86l287 610q12 29 45 29h100q29 0 19 -29zM518 1536l86 170q12 18 35 18h127q18 0 6 -16l-143 -176q-16 -16 -41 -16h-58
q-22 0 -12 20z" />
    <glyph glyph-name="Thorn" unicode="&#xde;" 
d="M743 1016h-430v-570h430q49 0 80 30t31 79v350q0 49 -31 80t-80 31zM737 297h-424v-266q0 -31 -30 -31h-88q-31 0 -31 31v1372q0 31 31 31h88q31 0 30 -31v-238h424q119 0 193 -72.5t74 -193.5v-336q0 -121 -74 -193.5t-193 -72.5z" />
    <glyph glyph-name="germandbls" unicode="&#xdf;" 
d="M410 1440h313q111 0 178.5 -65.5t67.5 -172.5v-164q0 -137 -101 -202q135 -59 136 -222v-374q0 -109 -68 -174.5t-178 -65.5h-199q-31 0 -31 31v75q0 31 31 31h193q109 0 108 119v379q0 123 -108 123h-187q-31 0 -30 30v76q0 31 30 31h146q55 0 84.5 34t29.5 89v172
q0 115 -108 115h-307q-45 0 -74 -28t-29 -75v-1171q0 -31 -31 -31h-81q-31 0 -31 31v1163q0 111 67.5 178.5t178.5 67.5z" />
    <glyph glyph-name="agrave" unicode="&#xe0;" 
d="M840 250v268q-193 37 -308 37q-102 0 -160.5 -45t-58.5 -119v-125q0 -66 46.5 -106.5t121.5 -40.5q138 0 359 131zM170 268v121q0 131 100.5 210t266.5 79q55 0 303 -29v228q0 123 -109 122h-270q-109 0 -109 -122v-41q0 -31 -30 -31h-82q-31 0 -31 31v53
q0 111 67.5 178.5t178.5 67.5h282q111 0 178.5 -68t67.5 -178v-858q0 -31 -31 -31h-82q-31 0 -30 31v67q-213 -115 -371 -114q-133 0 -216 78.5t-83 205.5zM588 1399l86 -170q10 -20 -12 -21h-58q-25 0 -41 17l-143 176q-16 16 8 16h125q23 0 35 -18z" />
    <glyph glyph-name="aacute" unicode="&#xe1;" 
d="M840 250v268q-193 37 -308 37q-102 0 -160.5 -45t-58.5 -119v-125q0 -66 46.5 -106.5t121.5 -40.5q138 0 359 131zM170 268v121q0 131 100.5 210t266.5 79q55 0 303 -29v228q0 123 -109 122h-270q-109 0 -109 -122v-41q0 -31 -30 -31h-82q-31 0 -31 31v53
q0 111 67.5 178.5t178.5 67.5h282q111 0 178.5 -68t67.5 -178v-858q0 -31 -31 -31h-82q-31 0 -30 31v67q-213 -115 -371 -114q-133 0 -216 78.5t-83 205.5zM539 1229l88 170q8 18 35 18h124q20 0 9 -16l-144 -176q-16 -16 -41 -17h-59q-18 1 -12 21z" />
    <glyph glyph-name="acircumflex" unicode="&#xe2;" 
d="M840 250v268q-193 37 -308 37q-102 0 -160.5 -45t-58.5 -119v-125q0 -66 46.5 -106.5t121.5 -40.5q138 0 359 131zM170 268v121q0 131 100.5 210t266.5 79q55 0 303 -29v228q0 123 -109 122h-270q-109 0 -109 -122v-41q0 -31 -30 -31h-82q-31 0 -31 31v53
q0 111 67.5 178.5t178.5 67.5h282q111 0 178.5 -68t67.5 -178v-858q0 -31 -31 -31h-82q-31 0 -30 31v67q-213 -115 -371 -114q-133 0 -216 78.5t-83 205.5zM682 1389l119 -156q14 -18 -10 -19h-78q-23 0 -37 21l-70 94l-71 -94q-14 -20 -37 -21h-74q-25 0 -10 19l118 156
q12 18 37 18h76q25 0 37 -18z" />
    <glyph glyph-name="atilde" unicode="&#xe3;" 
d="M840 250v268q-193 37 -308 37q-102 0 -160.5 -45t-58.5 -119v-125q0 -66 46.5 -106.5t121.5 -40.5q138 0 359 131zM170 268v121q0 131 100.5 210t266.5 79q55 0 303 -29v228q0 123 -109 122h-270q-109 0 -109 -122v-41q0 -31 -30 -31h-82q-31 0 -31 31v53
q0 111 67.5 178.5t178.5 67.5h282q111 0 178.5 -68t67.5 -178v-858q0 -31 -31 -31h-82q-31 0 -30 31v67q-213 -115 -371 -114q-133 0 -216 78.5t-83 205.5zM381 1245v60q0 37 49 57t92 20q39 0 68 -14l72 -33q16 -8 38 -8q63 0 119 41q8 4 10 4q10 0 11 -14v-62
q0 -37 -48.5 -55t-91.5 -18q-37 0 -69 12l-72 35q-14 6 -37 6q-66 0 -121 -41q-4 -4 -10 -4q-10 0 -10 14z" />
    <glyph glyph-name="adieresis" unicode="&#xe4;" 
d="M840 250v268q-193 37 -308 37q-102 0 -160.5 -45t-58.5 -119v-125q0 -66 46.5 -106.5t121.5 -40.5q138 0 359 131zM170 268v121q0 131 100.5 210t266.5 79q55 0 303 -29v228q0 123 -109 122h-270q-109 0 -109 -122v-41q0 -31 -30 -31h-82q-31 0 -31 31v53
q0 111 67.5 178.5t178.5 67.5h282q111 0 178.5 -68t67.5 -178v-858q0 -31 -31 -31h-82q-31 0 -30 31v67q-213 -115 -371 -114q-133 0 -216 78.5t-83 205.5zM360 1272v53q0 49 52 49h53q49 0 49 -49v-53q0 -49 -49 -49h-53q-52 0 -52 49zM700 1272v53q0 23 14.5 36t35.5 13
h55q23 0 36 -13t13 -36v-53q0 -49 -49 -49h-55q-50 0 -50 49z" />
    <glyph glyph-name="aring" unicode="&#xe5;" 
d="M840 250v268q-193 37 -308 37q-102 0 -160.5 -45t-58.5 -119v-125q0 -66 46.5 -106.5t121.5 -40.5q138 0 359 131zM541 1341.5q0 -26.5 19.5 -47t45.5 -20.5q29 0 48.5 20.5t19.5 47t-19.5 47t-48.5 20.5q-27 0 -46 -20.5t-19 -47zM170 268v121q0 131 100.5 210t266.5 79
q55 0 303 -29v228q0 123 -109 122h-270q-109 0 -109 -122v-41q0 -31 -30 -31h-82q-31 0 -31 31v53q0 111 67.5 178.5t178.5 67.5h282q111 0 178.5 -68t67.5 -178v-858q0 -31 -31 -31h-82q-31 0 -30 31v67q-213 -115 -371 -114q-133 0 -216 78.5t-83 205.5zM463 1341.5
q0 59.5 42 101.5t101.5 42t101.5 -42t42 -101.5t-42 -101.5t-102 -42q-57 0 -100 42t-43 101.5z" />
    <glyph glyph-name="ae" unicode="&#xe6;" 
d="M514 238v286q-113 31 -184 31q-55 0 -92 -34t-37 -89v-207q0 -51 32.5 -78.5t75.5 -27.5q90 0 205 119zM864 999h-104q-47 0 -75 -28.5t-28 -73.5v-262h310v262q0 45 -29 73.5t-74 28.5zM1079 498h-422v-267q0 -47 29 -75.5t74 -28.5h104q45 0 74 28.5t29 73.5v68
q0 31 30 31h82q31 0 31 -31v-59q0 -111 -67.5 -178.5t-178.5 -67.5h-104q-147 0 -213 110q-150 -119 -266 -118q-94 0 -159 67.5t-65 175.5v203q0 113 69 180.5t183 67.5q92 0 205 -25v236v18q-14 92 -108 92h-87q-53 0 -81.5 -32.5t-28.5 -89.5v-41q0 -31 -31 -31h-82
q-31 0 -30 31v53q0 111 67.5 178.5t177.5 67.5h99q106 0 174 -64q68 63 176 64h104q111 0 178.5 -67t67.5 -177v-363q0 -30 -31 -30z" />
    <glyph glyph-name="ccedilla" unicode="&#xe7;" 
d="M702 -156v-45q0 -41 -25.5 -66.5t-66.5 -25.5h-123q-23 0 -22 25v26q0 25 22 25h103q31 0 31 31v16q0 31 -31 31h-51q-45 0 -35 43l16 88h-110q-111 0 -178.5 67.5t-67.5 178.5v651q0 111 67.5 178.5t178.5 67.5h348q111 0 178.5 -68t67.5 -178v-86q0 -31 -31 -31h-82
q-31 0 -31 31v94q0 45 -28.5 73.5t-73.5 28.5h-348q-45 0 -74 -28.5t-29 -73.5v-668q0 -45 29 -73.5t74 -28.5h348q45 0 73.5 28.5t28.5 73.5v95q0 31 31 30h82q31 0 31 -30v-86q0 -111 -68 -178.5t-178 -67.5h-150l-10 -55h12q41 0 66.5 -26t25.5 -67z" />
    <glyph glyph-name="egrave" unicode="&#xe8;" 
d="M758 999h-348q-45 0 -74 -28.5t-29 -73.5v-262h553v262q0 45 -28.5 73.5t-73.5 28.5zM973 498h-666v-267q0 -47 29 -75.5t74 -28.5h348q45 0 73.5 28.5t28.5 73.5v68q0 31 31 31h82q31 0 31 -31v-59q0 -111 -68 -178.5t-178 -67.5h-348q-111 0 -178.5 67.5t-67.5 178.5
v651q0 111 67.5 178.5t178.5 67.5h348q111 0 178.5 -67t67.5 -177v-363q0 -30 -31 -30zM561 1399l86 -170q10 -20 -12 -21h-57q-25 0 -41 17l-144 176q-16 16 8 16h125q23 0 35 -18z" />
    <glyph glyph-name="eacute" unicode="&#xe9;" 
d="M758 999h-348q-45 0 -74 -28.5t-29 -73.5v-262h553v262q0 45 -28.5 73.5t-73.5 28.5zM973 498h-666v-267q0 -47 29 -75.5t74 -28.5h348q45 0 73.5 28.5t28.5 73.5v68q0 31 31 31h82q31 0 31 -31v-59q0 -111 -68 -178.5t-178 -67.5h-348q-111 0 -178.5 67.5t-67.5 178.5
v651q0 111 67.5 178.5t178.5 67.5h348q111 0 178.5 -67t67.5 -177v-363q0 -30 -31 -30zM512 1229l88 170q10 18 35 18h125q20 0 8 -16l-143 -176q-16 -16 -41 -17h-60q-18 1 -12 21z" />
    <glyph glyph-name="ecircumflex" unicode="&#xea;" 
d="M758 999h-348q-45 0 -74 -28.5t-29 -73.5v-262h553v262q0 45 -28.5 73.5t-73.5 28.5zM973 498h-666v-267q0 -47 29 -75.5t74 -28.5h348q45 0 73.5 28.5t28.5 73.5v68q0 31 31 31h82q31 0 31 -31v-59q0 -111 -68 -178.5t-178 -67.5h-348q-111 0 -178.5 67.5t-67.5 178.5
v651q0 111 67.5 178.5t178.5 67.5h348q111 0 178.5 -67t67.5 -177v-363q0 -30 -31 -30zM655 1389l119 -156q14 -18 -10 -19h-78q-23 0 -37 21l-69 94l-72 -94q-14 -20 -37 -21h-74q-25 0 -10 19l119 156q12 18 37 18h75q25 0 37 -18z" />
    <glyph glyph-name="edieresis" unicode="&#xeb;" 
d="M758 999h-348q-45 0 -74 -28.5t-29 -73.5v-262h553v262q0 45 -28.5 73.5t-73.5 28.5zM973 498h-666v-267q0 -47 29 -75.5t74 -28.5h348q45 0 73.5 28.5t28.5 73.5v68q0 31 31 31h82q31 0 31 -31v-59q0 -111 -68 -178.5t-178 -67.5h-348q-111 0 -178.5 67.5t-67.5 178.5
v651q0 111 67.5 178.5t178.5 67.5h348q111 0 178.5 -67t67.5 -177v-363q0 -30 -31 -30zM334 1272v53q0 49 51 49h53q49 0 49 -49v-53q0 -49 -49 -49h-53q-51 0 -51 49zM674 1272v53q0 23 13 36t36 13h55q20 0 34.5 -13t14.5 -36v-53q0 -49 -49 -49h-55q-49 0 -49 49z" />
    <glyph glyph-name="igrave" unicode="&#xec;" 
d="M195 1028v68q0 31 30 30h430q31 0 31 -30v-967h318q31 0 30 -31v-67q0 -31 -30 -31h-779q-31 0 -30 31v67q0 31 30 31h318v868h-318q-30 0 -30 31zM524 1399l86 -170q10 -20 -12 -21h-57q-25 0 -41 17l-144 176q-16 16 9 16h124q23 0 35 -18z" />
    <glyph glyph-name="iacute" unicode="&#xed;" 
d="M195 1028v68q0 31 30 30h430q31 0 31 -30v-967h318q31 0 30 -31v-67q0 -31 -30 -31h-779q-31 0 -30 31v67q0 31 30 31h318v868h-318q-30 0 -30 31zM475 1229l88 170q10 18 35 18h125q20 0 8 -16l-143 -176q-16 -16 -41 -17h-60q-18 1 -12 21z" />
    <glyph glyph-name="icircumflex" unicode="&#xee;" 
d="M195 1028v68q0 31 30 30h430q31 0 31 -30v-967h318q31 0 30 -31v-67q0 -31 -30 -31h-779q-31 0 -30 31v67q0 31 30 31h318v868h-318q-30 0 -30 31zM618 1389l119 -156q14 -18 -10 -19h-78q-23 0 -37 21l-69 94l-72 -94q-14 -20 -37 -21h-74q-25 0 -10 19l119 156
q12 18 37 18h76q24 0 36 -18z" />
    <glyph glyph-name="idieresis" unicode="&#xef;" 
d="M195 1028v68q0 31 30 30h430q31 0 31 -30v-967h318q31 0 30 -31v-67q0 -31 -30 -31h-779q-31 0 -30 31v67q0 31 30 31h318v868h-318q-30 0 -30 31zM297 1272v53q0 49 51 49h53q49 0 50 -49v-53q0 -49 -50 -49h-53q-51 0 -51 49zM637 1272v53q0 23 13.5 36t35.5 13h55
q20 0 35 -13t15 -36v-53q0 -49 -50 -49h-55q-49 0 -49 49z" />
    <glyph glyph-name="eth" unicode="&#xf0;" 
d="M860 250v635q-268 109 -409 108q-66 0 -105 -41t-39 -108v-600q0 -117 109 -117h336q108 0 108 123zM506 1235l22 59l-170 27q-51 8 -51 37v63q0 27 35 27q14 0 20 -2l213 -29l33 86q6 20 39 21l45 -17q27 -10 21 -37l-27 -67q170 -25 244 -100.5t74 -204.5v-860
q0 -111 -68 -178.5t-178 -67.5h-348q-111 0 -178.5 63.5t-67.5 169.5v619q0 129 73.5 207.5t194.5 78.5q166 0 428 -98v80q0 135 -166 160l-53 6l-31 -80q-8 -23 -28 -22h-4q-4 2 -7 2l-45 18q-30 6 -20 39z" />
    <glyph glyph-name="ntilde" unicode="&#xf1;" 
d="M195 1126h81q31 0 31 -30v-66q225 113 395 113q135 0 218.5 -79t83.5 -210v-825q0 -29 -31 -29h-82q-31 0 -31 29v827q0 68 -47 110t-123 42q-147 0 -383 -129v-848q0 -31 -31 -31h-81q-31 0 -31 31v1065q0 30 31 30zM365 1245v60q0 37 49 57t92 20q39 0 67 -14l72 -33
q16 -8 39 -8q63 0 119 41q8 4 10 4q10 0 10 -14v-62q0 -37 -48 -55t-91 -18q-37 0 -70 12l-71 35q-14 6 -37 6q-66 0 -121 -41q-4 -4 -10 -4q-10 0 -10 14z" />
    <glyph glyph-name="ograve" unicode="&#xf2;" 
d="M307 897v-668q0 -45 29 -73.5t74 -28.5h348q45 0 73.5 28.5t28.5 73.5v668q0 45 -28.5 73.5t-73.5 28.5h-348q-45 0 -74 -28.5t-29 -73.5zM164 238v651q0 111 67.5 178.5t178.5 67.5h348q111 0 178.5 -68t67.5 -178v-651q0 -111 -68 -178.5t-178 -67.5h-348
q-111 0 -178.5 67.5t-67.5 178.5zM563 1399l88 -170q10 -20 -12 -21h-59q-27 0 -39 17l-144 176q-16 16 6 16h127q23 0 33 -18z" />
    <glyph glyph-name="oacute" unicode="&#xf3;" 
d="M307 897v-668q0 -45 29 -73.5t74 -28.5h348q45 0 73.5 28.5t28.5 73.5v668q0 45 -28.5 73.5t-73.5 28.5h-348q-45 0 -74 -28.5t-29 -73.5zM164 238v651q0 111 67.5 178.5t178.5 67.5h348q111 0 178.5 -68t67.5 -178v-651q0 -111 -68 -178.5t-178 -67.5h-348
q-111 0 -178.5 67.5t-67.5 178.5zM516 1229l88 170q10 18 35 18h125q23 0 6 -16l-143 -176q-12 -16 -39 -17h-60q-22 1 -12 21z" />
    <glyph glyph-name="ocircumflex" unicode="&#xf4;" 
d="M307 897v-668q0 -45 29 -73.5t74 -28.5h348q45 0 73.5 28.5t28.5 73.5v668q0 45 -28.5 73.5t-73.5 28.5h-348q-45 0 -74 -28.5t-29 -73.5zM164 238v651q0 111 67.5 178.5t178.5 67.5h348q111 0 178.5 -68t67.5 -178v-651q0 -111 -68 -178.5t-178 -67.5h-348
q-111 0 -178.5 67.5t-67.5 178.5zM659 1389l117 -156q14 -18 -8 -19h-78q-25 0 -39 21l-67 94l-72 -94q-14 -20 -37 -21h-76q-23 0 -8 19l117 156q12 18 39 18h74q26 0 38 -18z" />
    <glyph glyph-name="otilde" unicode="&#xf5;" 
d="M307 897v-668q0 -45 29 -73.5t74 -28.5h348q45 0 73.5 28.5t28.5 73.5v668q0 45 -28.5 73.5t-73.5 28.5h-348q-45 0 -74 -28.5t-29 -73.5zM164 238v651q0 111 67.5 178.5t178.5 67.5h348q111 0 178.5 -68t67.5 -178v-651q0 -111 -68 -178.5t-178 -67.5h-348
q-111 0 -178.5 67.5t-67.5 178.5zM358 1245v60q0 37 49.5 57t92.5 20q37 0 67 -14l72 -33q14 -8 37 -8q66 0 121 41q8 4 10 4q8 0 8 -14v-62q0 -37 -48 -55t-91 -18q-37 0 -68 12l-71 35q-18 6 -39 6q-63 0 -119 -41q-4 -4 -12.5 -4t-8.5 14z" />
    <glyph glyph-name="odieresis" unicode="&#xf6;" 
d="M307 897v-668q0 -45 29 -73.5t74 -28.5h348q45 0 73.5 28.5t28.5 73.5v668q0 45 -28.5 73.5t-73.5 28.5h-348q-45 0 -74 -28.5t-29 -73.5zM164 238v651q0 111 67.5 178.5t178.5 67.5h348q111 0 178.5 -68t67.5 -178v-651q0 -111 -68 -178.5t-178 -67.5h-348
q-111 0 -178.5 67.5t-67.5 178.5zM678 1272v53q0 23 13.5 36t35.5 13h53q49 0 49 -49v-53q0 -49 -49 -49h-53q-49 0 -49 49zM338 1272v53q0 49 51 49h51q23 0 37.5 -13t14.5 -36v-53q0 -49 -52 -49h-51q-51 0 -51 49z" />
    <glyph glyph-name="divide" unicode="&#xf7;" 
d="M262 686v76q0 31 31 31h581q31 0 31 -31v-76q0 -31 -31 -31h-581q-31 0 -31 31zM494 995v99q0 47 47 47h92q47 0 47 -47v-99q0 -47 -47 -47h-92q-47 0 -47 47zM492 354v99q0 45 45 45h92q47 0 47 -45v-99q0 -47 -47 -47h-92q-45 0 -45 47z" />
    <glyph glyph-name="oslash" unicode="&#xf8;" 
d="M399 129l293 870h-282q-45 0 -74 -28.5t-29 -73.5v-668q0 -43 25.5 -69.5t66.5 -30.5zM768 997l-293 -870h283q45 0 73.5 28.5t28.5 73.5v668q0 43 -25.5 69.5t-66.5 30.5zM334 -66l20 62q-88 16 -139 80.5t-51 161.5v651q0 111 67.5 178.5t178.5 67.5h329l27 79
q4 14 18 15q4 0 7 -2l30 -8q16 -6 13 -27l-21 -62q88 -16 139.5 -80.5t51.5 -160.5v-651q0 -111 -68 -178.5t-178 -67.5h-330l-27 -80q-8 -14 -18 -14q-4 0 -6 2l-29 8q-18 6 -14 26z" />
    <glyph glyph-name="ugrave" unicode="&#xf9;" 
d="M973 0h-82q-31 0 -31 31v65q-225 -113 -393 -112q-137 0 -220 78.5t-83 209.5v826q0 29 31 28h81q31 0 31 -28v-828q0 -68 47 -109.5t123 -41.5q145 0 383 129v848q0 31 31 30h82q31 0 31 -30v-1065q0 -31 -31 -31zM563 1399l88 -170q10 -20 -12 -21h-59q-27 0 -39 17
l-144 176q-16 16 6 16h127q23 0 33 -18z" />
    <glyph glyph-name="uacute" unicode="&#xfa;" 
d="M973 0h-82q-31 0 -31 31v65q-225 -113 -393 -112q-137 0 -220 78.5t-83 209.5v826q0 29 31 28h81q31 0 31 -28v-828q0 -68 47 -109.5t123 -41.5q145 0 383 129v848q0 31 31 30h82q31 0 31 -30v-1065q0 -31 -31 -31zM516 1229l88 170q10 18 35 18h125q23 0 6 -16
l-143 -176q-12 -16 -39 -17h-60q-22 1 -12 21z" />
    <glyph glyph-name="ucircumflex" unicode="&#xfb;" 
d="M973 0h-82q-31 0 -31 31v65q-225 -113 -393 -112q-137 0 -220 78.5t-83 209.5v826q0 29 31 28h81q31 0 31 -28v-828q0 -68 47 -109.5t123 -41.5q145 0 383 129v848q0 31 31 30h82q31 0 31 -30v-1065q0 -31 -31 -31zM659 1389l117 -156q14 -18 -8 -19h-78q-25 0 -39 21
l-67 94l-72 -94q-14 -20 -37 -21h-76q-23 0 -8 19l117 156q12 18 39 18h74q26 0 38 -18z" />
    <glyph glyph-name="udieresis" unicode="&#xfc;" 
d="M973 0h-82q-31 0 -31 31v65q-225 -113 -393 -112q-137 0 -220 78.5t-83 209.5v826q0 29 31 28h81q31 0 31 -28v-828q0 -68 47 -109.5t123 -41.5q145 0 383 129v848q0 31 31 30h82q31 0 31 -30v-1065q0 -31 -31 -31zM338 1272v53q0 49 51 49h51q23 0 37.5 -13t14.5 -36
v-53q0 -49 -52 -49h-51q-51 0 -51 49zM678 1272v53q0 23 13.5 36t35.5 13h53q49 0 49 -49v-53q0 -49 -49 -49h-53q-49 0 -49 49z" />
    <glyph glyph-name="yacute" unicode="&#xfd;" 
d="M397 -279l115 281l-418 1096q-10 29 21 28h94q31 0 41 -28l317 -844q10 -33 11 -90h8q0 57 10 90l319 844q10 29 41 28h97q29 0 20 -28l-526 -1377q-10 -29 -41 -28h-90q-33 -1 -19 28zM516 1229l88 170q10 18 35 18h125q23 0 6 -16l-143 -176q-12 -16 -39 -17h-60
q-22 1 -12 21z" />
    <glyph glyph-name="thorn" unicode="&#xfe;" 
d="M307 879v-631q244 -129 385 -129q76 0 123 41t47 106v598q0 63 -46 103.5t-122 40.5q-143 0 -387 -129zM276 -307h-81q-31 0 -31 31v1679q0 31 31 31h81q31 0 31 -31v-373q225 113 400 113q133 0 215 -76t82 -201v-604q0 -125 -82 -201.5t-215 -76.5q-174 0 -400 112
v-372q0 -31 -31 -31z" />
    <glyph glyph-name="ydieresis" unicode="&#xff;" 
d="M397 -279l115 281l-418 1096q-10 29 21 28h94q31 0 41 -28l317 -844q10 -33 11 -90h8q0 57 10 90l319 844q10 29 41 28h97q29 0 20 -28l-526 -1377q-10 -29 -41 -28h-90q-33 -1 -19 28zM678 1272v53q0 23 13.5 36t35.5 13h53q49 0 49 -49v-53q0 -49 -49 -49h-53
q-49 0 -49 49zM338 1272v53q0 49 51 49h51q23 0 37.5 -13t14.5 -36v-53q0 -49 -52 -49h-51q-51 0 -51 49z" />
    <glyph glyph-name="Amacron" unicode="&#x100;" 
d="M371 412h426l-201 665q-8 25 -8 86h-8q0 -61 -9 -86zM842 262h-516l-70 -233q-10 -29 -39 -29h-94q-29 0 -23 29l414 1376q6 29 39 29h61q33 0 39 -29l414 -1376q6 -29 -23 -29h-92q-31 0 -41 29zM403 1577v55q0 23 25 23h313q23 0 23 -23v-55q0 -25 -23 -25h-313
q-25 0 -25 25z" />
    <glyph glyph-name="amacron" unicode="&#x101;" 
d="M840 250v268q-193 37 -308 37q-102 0 -160.5 -45t-58.5 -119v-125q0 -66 46.5 -106.5t121.5 -40.5q138 0 359 131zM170 268v121q0 131 100.5 210t266.5 79q55 0 303 -29v228q0 123 -109 122h-270q-109 0 -109 -122v-41q0 -31 -30 -31h-82q-31 0 -31 31v53
q0 111 67.5 178.5t178.5 67.5h282q111 0 178.5 -68t67.5 -178v-858q0 -31 -31 -31h-82q-31 0 -30 31v67q-213 -115 -371 -114q-133 0 -216 78.5t-83 205.5zM426 1270v55q0 23 25 23h313q25 0 24 -23v-55q0 -25 -24 -25h-313q-25 0 -25 25z" />
    <glyph glyph-name="Abreve" unicode="&#x102;" 
d="M371 412h426l-201 665q-8 25 -8 86h-8q0 -61 -9 -86zM842 262h-516l-70 -233q-10 -29 -39 -29h-94q-29 0 -23 29l414 1376q6 29 39 29h61q33 0 39 -29l414 -1376q6 -29 -23 -29h-92q-31 0 -41 29zM766 1679v-20q-2 -63 -42 -103t-106 -40h-67q-63 0 -104 38.5t-46 104.5
v20q-4 23 23 23h47q23 0 27 -23l4 -30q4 -41 43 -41h78q39 0 43 41l4 30q4 23 28 23h45q27 0 23 -23z" />
    <glyph glyph-name="abreve" unicode="&#x103;" 
d="M840 250v268q-193 37 -308 37q-102 0 -160.5 -45t-58.5 -119v-125q0 -66 46.5 -106.5t121.5 -40.5q138 0 359 131zM170 268v121q0 131 100.5 210t266.5 79q55 0 303 -29v228q0 123 -109 122h-270q-109 0 -109 -122v-41q0 -31 -30 -31h-82q-31 0 -31 31v53
q0 111 67.5 178.5t178.5 67.5h282q111 0 178.5 -68t67.5 -178v-858q0 -31 -31 -31h-82q-31 0 -30 31v67q-213 -115 -371 -114q-133 0 -216 78.5t-83 205.5zM791 1372l-3 -20q-2 -63 -41.5 -103.5t-105.5 -40.5h-68q-63 0 -104 39t-45 105v20q0 23 22 23h48q23 0 26 -23
l4 -31q4 -41 43 -41h80q37 0 41 41l6 31q4 23 27 23h47q23 0 23 -23z" />
    <glyph glyph-name="Aogonek" unicode="&#x104;" 
d="M371 412h426l-201 665q-8 25 -8 86h-8q0 -61 -9 -86zM954 0h-6q-25 0 -35 27l-69 235h-518l-70 -233q-10 -29 -39 -29h-94q-29 0 -23 29l414 1376q6 29 39 29h61q33 0 39 -29l416 -1378q6 -27 -20 -27h-7q-57 -76 -67 -143q-4 -35 24 -35h84q25 0 25 -23v-35
q0 -25 -25 -24h-108q-41 0 -64.5 23.5t-23.5 64.5q-1 94 67 172z" />
    <glyph glyph-name="aogonek" unicode="&#x105;" 
d="M840 250v268q-193 37 -308 37q-102 0 -160.5 -45t-58.5 -119v-125q0 -66 46.5 -106.5t121.5 -40.5q138 0 359 131zM954 0q-55 -78 -67 -143q-6 -35 26 -35h82q25 0 25 -23v-35q0 -25 -25 -24h-108q-39 0 -62.5 24.5t-23.5 63.5q0 92 65 172q-27 0 -26 27v71
q-213 -115 -371 -114q-133 0 -216 78.5t-83 205.5v121q0 131 100.5 210t266.5 79q55 0 303 -29v228q0 123 -109 122h-270q-109 0 -109 -122v-41q0 -31 -30 -31h-82q-31 0 -31 31v53q0 111 67.5 178.5t178.5 67.5h282q111 0 178.5 -68t67.5 -178v-862q0 -27 -29 -27z" />
    <glyph glyph-name="Cacute" unicode="&#x106;" 
d="M885 424h88q31 0 31 -31v-135q0 -119 -74 -192.5t-193 -73.5h-307q-119 0 -192.5 73.5t-73.5 192.5v918q0 119 73.5 192.5t192.5 73.5h307q119 0 193 -74t74 -192v-136q0 -31 -31 -30h-88q-31 0 -31 30v144q0 49 -30.5 78.5t-80.5 29.5h-319q-49 0 -80 -29.5t-31 -78.5
v-934q0 -49 31 -79t80 -30h319q49 0 80 30t31 79v143q0 31 31 31zM520 1536l88 170q10 18 35 18h125q23 0 6 -16l-143 -176q-12 -16 -39 -16h-60q-22 0 -12 20z" />
    <glyph glyph-name="cacute" unicode="&#x107;" 
d="M410 127h348q45 0 73.5 28.5t28.5 73.5v95q0 31 31 30h82q31 0 31 -30v-86q0 -111 -68 -178.5t-178 -67.5h-348q-111 0 -178.5 67.5t-67.5 178.5v651q0 111 67.5 178.5t178.5 67.5h348q111 0 178.5 -68t67.5 -178v-86q0 -31 -31 -31h-82q-31 0 -31 31v94q0 45 -28.5 73.5
t-73.5 28.5h-348q-45 0 -74 -28.5t-29 -73.5v-668q0 -45 29 -73.5t74 -28.5zM528 1229l88 170q10 18 35 18h125q23 0 6 -16l-143 -176q-12 -16 -39 -17h-59q-23 1 -13 21z" />
    <glyph glyph-name="Ccircumflex" unicode="&#x108;" 
d="M885 424h88q31 0 31 -31v-135q0 -119 -74 -192.5t-193 -73.5h-307q-119 0 -192.5 73.5t-73.5 192.5v918q0 119 73.5 192.5t192.5 73.5h307q119 0 193 -74t74 -192v-136q0 -31 -31 -30h-88q-31 0 -31 30v144q0 49 -30.5 78.5t-80.5 29.5h-319q-49 0 -80 -29.5t-31 -78.5
v-934q0 -49 31 -79t80 -30h319q49 0 80 30t31 79v143q0 31 31 31zM664 1696l116 -156q14 -18 -8 -18h-78q-25 0 -39 20l-67 94l-72 -94q-14 -20 -37 -20h-76q-23 0 -8 18l117 156q12 18 39 18h74q27 0 39 -18z" />
    <glyph glyph-name="ccircumflex" unicode="&#x109;" 
d="M410 127h348q45 0 73.5 28.5t28.5 73.5v95q0 31 31 30h82q31 0 31 -30v-86q0 -111 -68 -178.5t-178 -67.5h-348q-111 0 -178.5 67.5t-67.5 178.5v651q0 111 67.5 178.5t178.5 67.5h348q111 0 178.5 -68t67.5 -178v-86q0 -31 -31 -31h-82q-31 0 -31 31v94q0 45 -28.5 73.5
t-73.5 28.5h-348q-45 0 -74 -28.5t-29 -73.5v-668q0 -45 29 -73.5t74 -28.5zM672 1389l116 -156q14 -18 -8 -19h-78q-25 0 -38 21l-68 94l-72 -94q-14 -20 -37 -21h-75q-23 0 -9 19l117 156q12 18 39 18h74q27 0 39 -18z" />
    <glyph glyph-name="Cdotaccent" unicode="&#x10a;" 
d="M885 424h88q31 0 31 -31v-135q0 -119 -74 -192.5t-193 -73.5h-307q-119 0 -192.5 73.5t-73.5 192.5v918q0 119 73.5 192.5t192.5 73.5h307q119 0 193 -74t74 -192v-136q0 -31 -31 -30h-88q-31 0 -31 30v144q0 49 -30.5 78.5t-80.5 29.5h-319q-49 0 -80 -29.5t-31 -78.5
v-934q0 -49 31 -79t80 -30h319q49 0 80 30t31 79v143q0 31 31 31zM502 1579v68q0 20 13 34.5t36 14.5h74q23 0 36 -14.5t13 -34.5v-68q0 -49 -49 -49h-74q-49 0 -49 49z" />
    <glyph glyph-name="cdotaccent" unicode="&#x10b;" 
d="M410 127h348q45 0 73.5 28.5t28.5 73.5v95q0 31 31 30h82q31 0 31 -30v-86q0 -111 -68 -178.5t-178 -67.5h-348q-111 0 -178.5 67.5t-67.5 178.5v651q0 111 67.5 178.5t178.5 67.5h348q111 0 178.5 -68t67.5 -178v-86q0 -31 -31 -31h-82q-31 0 -31 31v94q0 45 -28.5 73.5
t-73.5 28.5h-348q-45 0 -74 -28.5t-29 -73.5v-668q0 -45 29 -73.5t74 -28.5zM510 1272v67q0 20 13.5 35t35.5 15h74q23 0 36 -14.5t13 -35.5v-67q0 -49 -49 -49h-74q-49 0 -49 49z" />
    <glyph glyph-name="Ccaron" unicode="&#x10c;" 
d="M885 424h88q31 0 31 -31v-135q0 -119 -74 -192.5t-193 -73.5h-307q-119 0 -192.5 73.5t-73.5 192.5v918q0 119 73.5 192.5t192.5 73.5h307q119 0 193 -74t74 -192v-136q0 -31 -31 -30h-88q-31 0 -31 30v144q0 49 -30.5 78.5t-80.5 29.5h-319q-49 0 -80 -29.5t-31 -78.5
v-934q0 -49 31 -79t80 -30h319q49 0 80 30t31 79v143q0 31 31 31zM780 1696l-116 -154q-14 -20 -39 -20h-74q-25 0 -39 20l-117 154q-12 18 8 18h76q23 0 37 -18l72 -97l67 97q14 18 39 18h78q20 0 8 -18z" />
    <glyph glyph-name="ccaron" unicode="&#x10d;" 
d="M410 127h348q45 0 73.5 28.5t28.5 73.5v95q0 31 31 30h82q31 0 31 -30v-86q0 -111 -68 -178.5t-178 -67.5h-348q-111 0 -178.5 67.5t-67.5 178.5v651q0 111 67.5 178.5t178.5 67.5h348q111 0 178.5 -68t67.5 -178v-86q0 -31 -31 -31h-82q-31 0 -31 31v94q0 45 -28.5 73.5
t-73.5 28.5h-348q-45 0 -74 -28.5t-29 -73.5v-668q0 -45 29 -73.5t74 -28.5zM788 1389l-116 -154q-14 -20 -39 -21h-74q-25 0 -39 21l-117 154q-12 18 9 18h75q23 0 37 -18l72 -97l68 97q14 18 38 18h78q20 0 8 -18z" />
    <glyph glyph-name="Dcaron" unicode="&#x10e;" 
d="M313 1284v-1134h430q49 0 80 30.5t31 79.5v914q0 49 -30.5 79.5t-80.5 30.5h-430zM164 31v1372q0 31 31 31h542q119 0 193 -74t74 -193v-901q0 -119 -74 -192.5t-193 -73.5h-542q-31 0 -31 31zM735 1696l-117 -154q-14 -20 -38 -20h-74q-25 0 -39 20l-117 154
q-12 18 8 18h76q23 0 37 -18l72 -97l67 97q14 18 39 18h78q20 0 8 -18z" />
    <glyph glyph-name="dcaron" unicode="&#x10f;" 
d="M764 244v639q-201 125 -315 125q-63 0 -102.5 -41t-39.5 -107v-592q0 -68 39 -108.5t103 -40.5q114 0 315 125zM795 1434h82q31 0 30 -31v-1372q0 -31 -30 -31h-82q-31 0 -31 31v63q-201 -111 -342 -110q-115 0 -186.5 77.5t-71.5 202.5v600q0 125 71.5 202t186.5 77
q141 0 342 -111v371q0 31 31 31zM1006 1217l24 186q8 33 39 33h59q33 0 25 -33l-49 -186q-6 -25 -33 -25h-41q-28 0 -24 25z" />
    <glyph glyph-name="Dcroat" unicode="&#x110;" 
d="M547 670h-234v-520h430q49 0 80 30.5t31 79.5v914q0 49 -30.5 79.5t-80.5 30.5h-430v-491h234q31 0 31 -31v-62q0 -30 -31 -30zM25 700v62q0 31 30 31h109v610q0 31 31 31h542q119 0 193 -74t74 -193v-901q0 -119 -74 -192.5t-193 -73.5h-542q-31 0 -31 31v639h-109
q-30 -1 -30 30z" />
    <glyph glyph-name="dcroat" unicode="&#x111;" 
d="M860 248v631q-244 129 -385 129q-76 0 -122 -41t-46 -107v-592q0 -68 46 -108.5t122 -40.5q141 0 385 129zM532 1237v61q0 25 25 25h303v80q0 31 31 31h82q31 0 31 -31v-80h112q25 0 25 -25v-61q0 -23 -25 -23h-112v-1183q0 -31 -31 -31h-82q-31 0 -31 31v65
q-225 -113 -399 -112q-133 0 -215 76.5t-82 203.5v600q0 125 82 202t215 77q174 0 399 -113v184h-303q-25 0 -25 23z" />
    <glyph glyph-name="Emacron" unicode="&#x112;" 
d="M164 31v1372q0 31 31 31h778q31 0 31 -31v-88q0 -31 -31 -31h-660v-549h482q31 0 30 -30v-89q0 -31 -30 -30h-482v-436h660q31 0 31 -31v-88q0 -31 -31 -31h-778q-31 0 -31 31zM393 1577v55q0 23 25 23h313q23 0 23 -23v-55q0 -25 -23 -25h-313q-25 0 -25 25z" />
    <glyph glyph-name="emacron" unicode="&#x113;" 
d="M758 999h-348q-45 0 -74 -28.5t-29 -73.5v-262h553v262q0 45 -28.5 73.5t-73.5 28.5zM973 498h-666v-267q0 -47 29 -75.5t74 -28.5h348q45 0 73.5 28.5t28.5 73.5v68q0 31 31 31h82q31 0 31 -31v-59q0 -111 -68 -178.5t-178 -67.5h-348q-111 0 -178.5 67.5t-67.5 178.5
v651q0 111 67.5 178.5t178.5 67.5h348q111 0 178.5 -67t67.5 -177v-363q0 -30 -31 -30zM399 1270v55q0 23 25 23h313q25 0 25 -23v-55q0 -25 -25 -25h-313q-25 0 -25 25z" />
    <glyph glyph-name="Ebreve" unicode="&#x114;" 
d="M164 31v1372q0 31 31 31h778q31 0 31 -31v-88q0 -31 -31 -31h-660v-549h482q31 0 30 -30v-89q0 -31 -30 -30h-482v-436h660q31 0 31 -31v-88q0 -31 -31 -31h-778q-31 0 -31 31zM756 1679v-20q-2 -63 -42 -103t-106 -40h-67q-63 0 -104.5 38.5t-45.5 104.5v20q-4 23 23 23
h47q23 0 26 -23l5 -30q4 -41 43 -41h77q39 0 43 41l4 30q4 23 29 23h45q27 0 23 -23z" />
    <glyph glyph-name="ebreve" unicode="&#x115;" 
d="M758 999h-348q-45 0 -74 -28.5t-29 -73.5v-262h553v262q0 45 -28.5 73.5t-73.5 28.5zM973 498h-666v-267q0 -47 29 -75.5t74 -28.5h348q45 0 73.5 28.5t28.5 73.5v68q0 31 31 31h82q31 0 31 -31v-59q0 -111 -68 -178.5t-178 -67.5h-348q-111 0 -178.5 67.5t-67.5 178.5
v651q0 111 67.5 178.5t178.5 67.5h348q111 0 178.5 -67t67.5 -177v-363q0 -30 -31 -30zM764 1372l-2 -20q-2 -63 -42 -103.5t-106 -40.5h-67q-63 0 -104.5 39t-45.5 105v20q0 23 23 23h47q23 0 27 -23l4 -31q4 -41 43 -41h80q37 0 41 41l6 31q4 23 26 23h47q23 0 23 -23z
" />
    <glyph glyph-name="Edotaccent" unicode="&#x116;" 
d="M164 31v1372q0 31 31 31h778q31 0 31 -31v-88q0 -31 -31 -31h-660v-549h482q31 0 30 -30v-89q0 -31 -30 -30h-482v-436h660q31 0 31 -31v-88q0 -31 -31 -31h-778q-31 0 -31 31zM487 1579v68q0 20 14.5 34.5t35.5 14.5h73q20 0 34.5 -14.5t14.5 -34.5v-68q0 -49 -49 -49
h-73q-50 0 -50 49z" />
    <glyph glyph-name="edotaccent" unicode="&#x117;" 
d="M758 999h-348q-45 0 -74 -28.5t-29 -73.5v-262h553v262q0 45 -28.5 73.5t-73.5 28.5zM973 498h-666v-267q0 -47 29 -75.5t74 -28.5h348q45 0 73.5 28.5t28.5 73.5v68q0 31 31 31h82q31 0 31 -31v-59q0 -111 -68 -178.5t-178 -67.5h-348q-111 0 -178.5 67.5t-67.5 178.5
v651q0 111 67.5 178.5t178.5 67.5h348q111 0 178.5 -67t67.5 -177v-363q0 -30 -31 -30zM494 1272v67q0 20 13 35t36 15h73q49 0 50 -50v-67q0 -49 -50 -49h-73q-49 0 -49 49z" />
    <glyph glyph-name="Eogonek" unicode="&#x118;" 
d="M850 0h-655q-31 0 -31 31v1372q0 31 31 31h778q31 0 31 -31v-88q0 -31 -31 -31h-660v-549h482q31 0 30 -30v-89q0 -31 -30 -30h-482v-436h660q31 0 31 -31v-88q0 -31 -31 -31h-35q-59 -82 -68 -141q-4 -35 27 -35h82q25 0 25 -25v-32q0 -25 -25 -25h-109
q-39 0 -62.5 23.5t-23.5 62.5q0 92 66 172z" />
    <glyph glyph-name="eogonek" unicode="&#x119;" 
d="M758 999h-348q-45 0 -74 -28.5t-29 -73.5v-262h553v262q0 45 -28.5 73.5t-73.5 28.5zM692 -8h-282q-111 0 -178.5 67.5t-67.5 178.5v651q0 111 67.5 178.5t178.5 67.5h348q111 0 178.5 -67t67.5 -177v-363q0 -31 -31 -30h-666v-267q0 -47 29 -75.5t74 -28.5h348
q45 0 73.5 28.5t28.5 73.5v68q0 31 31 31h82q31 0 31 -31v-59q0 -104 -60.5 -171t-161.5 -75q-51 -70 -61 -133q-6 -35 24 -35h84q25 0 25 -25v-32q0 -25 -25 -25h-108q-39 0 -63.5 23.5t-24.5 62.5q0 84 59 164z" />
    <glyph glyph-name="Ecaron" unicode="&#x11a;" 
d="M164 31v1372q0 31 31 31h778q31 0 31 -31v-88q0 -31 -31 -31h-660v-549h482q31 0 30 -30v-89q0 -31 -30 -30h-482v-436h660q31 0 31 -31v-88q0 -31 -31 -31h-778q-31 0 -31 31zM766 1696l-117 -154q-14 -20 -39 -20h-73q-25 0 -39 20l-117 154q-12 18 8 18h76
q23 0 37 -18l71 -97l68 97q14 18 39 18h78q20 0 8 -18z" />
    <glyph glyph-name="ecaron" unicode="&#x11b;" 
d="M758 999h-348q-45 0 -74 -28.5t-29 -73.5v-262h553v262q0 45 -28.5 73.5t-73.5 28.5zM973 498h-666v-267q0 -47 29 -75.5t74 -28.5h348q45 0 73.5 28.5t28.5 73.5v68q0 31 31 31h82q31 0 31 -31v-59q0 -111 -68 -178.5t-178 -67.5h-348q-111 0 -178.5 67.5t-67.5 178.5
v651q0 111 67.5 178.5t178.5 67.5h348q111 0 178.5 -67t67.5 -177v-363q0 -30 -31 -30zM774 1389l-119 -154q-14 -20 -37 -21h-75q-23 0 -37 21l-119 154q-12 18 10 18h74q23 0 37 -18l72 -97l69 97q14 18 37 18h78q22 0 10 -18z" />
    <glyph glyph-name="Gcircumflex" unicode="&#x11c;" 
d="M573 623v90q0 31 31 30h369q31 0 31 -30v-455q0 -119 -74 -192.5t-193 -73.5h-307q-119 0 -192.5 73.5t-73.5 192.5v918q0 119 73.5 192.5t192.5 73.5h307q119 0 193 -74t74 -192v-136q0 -31 -31 -30h-88q-31 0 -31 30v144q0 49 -30.5 78.5t-80.5 29.5h-319
q-49 0 -80 -29.5t-31 -78.5v-934q0 -49 31 -79t80 -30h319q49 0 80 30t31 79v342h-250q-31 0 -31 31zM666 1696l118 -156q14 -18 -10 -18h-78q-23 0 -37 20l-69 94l-72 -94q-14 -20 -37 -20h-73q-25 0 -11 18l119 156q12 18 37 18h76q25 0 37 -18z" />
    <glyph glyph-name="gcircumflex" unicode="&#x11d;" 
d="M860 248v631q-244 129 -385 129q-76 0 -122 -42t-46 -110v-586q0 -68 46 -109.5t122 -41.5q141 0 385 129zM860 1030v66q0 31 31 30h82q31 0 31 -30v-1123q0 -152 -134.5 -224.5t-339.5 -72.5q-23 0 -64.5 2.5t-104 8.5t-106.5 20t-44 35v76q0 23 31 22q2 0 9 -1t13 -1
q123 -25 252 -24q90 0 163 14t127 55t54 105v108q-225 -113 -393 -112q-137 0 -220 78.5t-83 209.5v582q0 131 83 210t220 79q168 0 393 -113zM676 1389l117 -156q14 -18 -9 -19h-77q-25 0 -39 21l-68 94l-72 -94q-14 -20 -36 -21h-76q-23 0 -8 19l116 156q12 18 39 18h74
q27 0 39 -18z" />
    <glyph glyph-name="Gbreve" unicode="&#x11e;" 
d="M573 623v90q0 31 31 30h369q31 0 31 -30v-455q0 -119 -74 -192.5t-193 -73.5h-307q-119 0 -192.5 73.5t-73.5 192.5v918q0 119 73.5 192.5t192.5 73.5h307q119 0 193 -74t74 -192v-136q0 -31 -31 -30h-88q-31 0 -31 30v144q0 49 -30.5 78.5t-80.5 29.5h-319
q-49 0 -80 -29.5t-31 -78.5v-934q0 -49 31 -79t80 -30h319q49 0 80 30t31 79v342h-250q-31 0 -31 31zM774 1679l-2 -20q-2 -63 -42 -103t-105 -40h-68q-63 0 -104 38.5t-45 104.5v20q0 23 22 23h47q23 0 27 -23l4 -30q4 -41 43 -41h80q37 0 41 41l6 30q4 23 27 23h47
q22 0 22 -23z" />
    <glyph glyph-name="gbreve" unicode="&#x11f;" 
d="M860 248v631q-244 129 -385 129q-76 0 -122 -42t-46 -110v-586q0 -68 46 -109.5t122 -41.5q141 0 385 129zM860 1030v66q0 31 31 30h82q31 0 31 -30v-1123q0 -152 -134.5 -224.5t-339.5 -72.5q-23 0 -64.5 2.5t-104 8.5t-106.5 20t-44 35v76q0 23 31 22q2 0 9 -1t13 -1
q123 -25 252 -24q90 0 163 14t127 55t54 105v108q-225 -113 -393 -112q-137 0 -220 78.5t-83 209.5v582q0 131 83 210t220 79q168 0 393 -113zM782 1372v-20q-2 -63 -42 -103.5t-105 -40.5h-68q-63 0 -104 39t-45 105v20q-4 23 22 23h47q23 0 27 -23l4 -31q4 -41 43 -41h78
q39 0 43 41l4 31q4 23 29 23h45q26 0 22 -23z" />
    <glyph glyph-name="Gdotaccent" unicode="&#x120;" 
d="M573 623v90q0 31 31 30h369q31 0 31 -30v-455q0 -119 -74 -192.5t-193 -73.5h-307q-119 0 -192.5 73.5t-73.5 192.5v918q0 119 73.5 192.5t192.5 73.5h307q119 0 193 -74t74 -192v-136q0 -31 -31 -30h-88q-31 0 -31 30v144q0 49 -30.5 78.5t-80.5 29.5h-319
q-49 0 -80 -29.5t-31 -78.5v-934q0 -49 31 -79t80 -30h319q49 0 80 30t31 79v342h-250q-31 0 -31 31zM504 1579v68q0 20 14 34.5t35 14.5h74q49 0 49 -49v-68q0 -49 -49 -49h-74q-49 0 -49 49z" />
    <glyph glyph-name="gdotaccent" unicode="&#x121;" 
d="M860 248v631q-244 129 -385 129q-76 0 -122 -42t-46 -110v-586q0 -68 46 -109.5t122 -41.5q141 0 385 129zM860 1030v66q0 31 31 30h82q31 0 31 -30v-1123q0 -152 -134.5 -224.5t-339.5 -72.5q-23 0 -64.5 2.5t-104 8.5t-106.5 20t-44 35v76q0 23 31 22q2 0 9 -1t13 -1
q123 -25 252 -24q90 0 163 14t127 55t54 105v108q-225 -113 -393 -112q-137 0 -220 78.5t-83 209.5v582q0 131 83 210t220 79q168 0 393 -113zM514 1272v67q0 20 13.5 35t35.5 15h74q23 0 36 -14.5t13 -35.5v-67q0 -49 -49 -49h-74q-49 0 -49 49z" />
    <glyph glyph-name="uni0122" unicode="&#x122;" 
d="M573 623v90q0 31 31 30h369q31 0 31 -30v-455q0 -119 -74 -192.5t-193 -73.5h-307q-119 0 -192.5 73.5t-73.5 192.5v918q0 119 73.5 192.5t192.5 73.5h307q119 0 193 -74t74 -192v-136q0 -31 -31 -30h-88q-31 0 -31 30v144q0 49 -30.5 78.5t-80.5 29.5h-319
q-49 0 -80 -29.5t-31 -78.5v-934q0 -49 31 -79t80 -30h319q49 0 80 30t31 79v342h-250q-31 0 -31 31zM510 -289l25 187q4 33 36 32h60q35 0 24 -32l-49 -187q-6 -25 -33 -24h-41q-26 -1 -22 24z" />
    <glyph glyph-name="uni0123" unicode="&#x123;" 
d="M860 248v631q-244 129 -385 129q-76 0 -122 -42t-46 -110v-586q0 -68 46 -109.5t122 -41.5q141 0 385 129zM860 1030v66q0 31 31 30h82q31 0 31 -30v-1123q0 -152 -134.5 -224.5t-339.5 -72.5q-23 0 -64.5 2.5t-104 8.5t-106.5 20t-44 35v76q0 23 31 22q2 0 9 -1t13 -1
q123 -25 252 -24q90 0 163 14t127 55t54 105v108q-225 -113 -393 -112q-137 0 -220 78.5t-83 209.5v582q0 131 83 210t220 79q168 0 393 -113zM672 1434l-25 -187q-8 -33 -37 -33h-59q-35 0 -25 33l49 187q6 25 31 24h43q27 1 23 -24z" />
    <glyph glyph-name="Hcircumflex" unicode="&#x124;" 
d="M164 31v1372q0 31 31 31h88q31 0 30 -31v-668h541v668q0 31 31 31h88q31 0 31 -31v-1372q0 -31 -31 -31h-88q-31 0 -31 31v555h-541v-555q0 -31 -30 -31h-88q-31 0 -31 31zM659 1696l117 -156q14 -18 -8 -18h-78q-25 0 -39 20l-67 94l-72 -94q-14 -20 -37 -20h-76
q-23 0 -8 18l117 156q12 18 39 18h74q26 0 38 -18z" />
    <glyph glyph-name="hcircumflex" unicode="&#x125;" 
d="M195 1434h81q31 0 31 -31v-373q225 113 395 113q135 0 218.5 -79t83.5 -210v-825q0 -29 -31 -29h-82q-31 0 -31 29v827q0 68 -47 110t-123 42q-147 0 -383 -129v-848q0 -31 -31 -31h-81q-31 0 -31 31v1372q0 31 31 31zM313 1690l117 -156q12 -18 -8 -18h-80q-23 0 -37 20
l-67 94l-72 -96q-14 -18 -39 -18h-74q-23 0 -10 18l119 156q14 18 39 18h73q21 0 39 -18z" />
    <glyph glyph-name="Hbar" unicode="&#x126;" 
d="M854 735v336h-541v-336h541zM885 1434h88q31 0 31 -31v-209h106q31 0 31 -31v-61q0 -31 -31 -31h-106v-1040q0 -31 -31 -31h-88q-31 0 -31 31v555h-541v-555q0 -31 -30 -31h-88q-31 0 -31 31v1040h-107q-31 0 -30 31v61q0 31 30 31h107v209q0 31 31 31h88q31 0 30 -31
v-209h541v209q0 31 31 31z" />
    <glyph glyph-name="hbar" unicode="&#x127;" 
d="M27 1237v61q0 25 24 25h113v80q0 31 31 31h81q31 0 31 -31v-80h303q25 0 25 -25v-61q0 -23 -25 -23h-303v-184q225 113 395 113q135 0 218.5 -79t83.5 -210v-825q0 -29 -31 -29h-82q-31 0 -31 29v827q0 68 -47 110t-123 42q-147 0 -383 -129v-848q0 -31 -31 -31h-81
q-31 0 -31 31v1183h-113q-24 0 -24 23z" />
    <glyph glyph-name="Itilde" unicode="&#x128;" 
d="M168 31v82q0 31 31 30h309v1147h-309q-31 0 -31 31v82q0 31 31 31h770q31 0 30 -31v-82q0 -31 -30 -31h-310v-1147h310q31 0 30 -30v-82q0 -31 -30 -31h-770q-31 0 -31 31zM358 1552v60q0 37 49.5 57.5t92.5 20.5q37 0 67 -15l72 -33q14 -8 37 -8q66 0 121 41q8 4 10 4
q8 0 8 -14v-61q0 -37 -48 -55.5t-91 -18.5q-37 0 -68 12l-71 35q-18 6 -39 6q-63 0 -119 -41q-4 -4 -12.5 -4t-8.5 14z" />
    <glyph glyph-name="itilde" unicode="&#x129;" 
d="M195 1028v68q0 31 30 30h430q31 0 31 -30v-967h318q31 0 30 -31v-67q0 -31 -30 -31h-779q-31 0 -30 31v67q0 31 30 31h318v868h-318q-30 0 -30 31zM317 1245v60q0 37 49.5 57t92.5 20q39 0 67 -14l72 -33q16 -8 39 -8q63 0 119 41q8 4 10 4q10 0 10 -14v-62
q0 -37 -48 -55t-91 -18q-35 0 -70 12l-71 35q-16 6 -37 6q-66 0 -121 -41q-4 -4 -10 -4q-11 0 -11 14z" />
    <glyph glyph-name="Imacron" unicode="&#x12a;" 
d="M168 31v82q0 31 31 30h309v1147h-309q-31 0 -31 31v82q0 31 31 31h770q31 0 30 -31v-82q0 -31 -30 -31h-310v-1147h310q31 0 30 -30v-82q0 -31 -30 -31h-770q-31 0 -31 31zM403 1577v55q0 23 25 23h313q23 0 23 -23v-55q0 -25 -23 -25h-313q-25 0 -25 25z" />
    <glyph glyph-name="imacron" unicode="&#x12b;" 
d="M195 1028v68q0 31 30 30h430q31 0 31 -30v-967h318q31 0 30 -31v-67q0 -31 -30 -31h-779q-31 0 -30 31v67q0 31 30 31h318v868h-318q-30 0 -30 31zM362 1270v55q0 23 25 23h313q25 0 25 -23v-55q0 -25 -25 -25h-313q-25 0 -25 25z" />
    <glyph glyph-name="Ibreve" unicode="&#x12c;" 
d="M168 31v82q0 31 31 30h309v1147h-309q-31 0 -31 31v82q0 31 31 31h770q31 0 30 -31v-82q0 -31 -30 -31h-310v-1147h310q31 0 30 -30v-82q0 -31 -30 -31h-770q-31 0 -31 31zM766 1679v-20q-2 -63 -42 -103t-106 -40h-67q-63 0 -104 38.5t-46 104.5v20q-4 23 23 23h47
q23 0 27 -23l4 -30q4 -41 43 -41h78q39 0 43 41l4 30q4 23 28 23h45q27 0 23 -23z" />
    <glyph glyph-name="ibreve" unicode="&#x12d;" 
d="M195 1028v68q0 31 30 30h430q31 0 31 -30v-967h318q31 0 30 -31v-67q0 -31 -30 -31h-779q-31 0 -30 31v67q0 31 30 31h318v868h-318q-30 0 -30 31zM727 1372l-2 -20q-2 -63 -42 -103.5t-105 -40.5h-68q-63 0 -104 39t-46 105v20q0 23 23 23h47q23 0 27 -23l4 -31
q4 -41 43 -41h80q37 0 41 41l6 31q4 23 26 23h48q22 0 22 -23z" />
    <glyph glyph-name="Iogonek" unicode="&#x12e;" 
d="M565 0h-366q-31 0 -31 31v82q0 31 31 30h309v1147h-309q-31 0 -31 31v82q0 31 31 31h770q31 0 30 -31v-82q0 -31 -30 -31h-310v-1147h310q31 0 30 -30v-82q0 -31 -30 -31h-316q-57 -76 -67 -143q-6 -35 24 -35h84q25 0 25 -23v-35q0 -25 -25 -24h-108q-41 0 -64.5 23.5
t-23.5 64.5q-1 90 67 172z" />
    <glyph glyph-name="iogonek" unicode="&#x12f;" 
d="M571 0h-346q-31 0 -30 31v67q0 31 30 31h318v868h-318q-31 0 -30 31v68q0 31 30 30h430q31 0 31 -30v-967h318q31 0 30 -31v-67q0 -31 -30 -31h-345q-59 -82 -67 -141q-4 -35 26 -35h82q25 0 25 -25v-32q0 -25 -25 -25h-108q-39 0 -62.5 23.5t-23.5 62.5q-1 92 65 172z
M449 1313v129q0 45 45 45h137q45 0 45 -45v-129q0 -45 -45 -45h-137q-45 0 -45 45z" />
    <glyph glyph-name="Idotaccent" unicode="&#x130;" 
d="M168 31v82q0 31 31 30h309v1147h-309q-31 0 -31 31v82q0 31 31 31h770q31 0 30 -31v-82q0 -31 -30 -31h-310v-1147h310q31 0 30 -30v-82q0 -31 -30 -31h-770q-31 0 -31 31zM498 1579v68q0 20 13 34.5t36 14.5h74q23 0 36 -14.5t13 -34.5v-68q0 -49 -49 -49h-74
q-49 0 -49 49z" />
    <glyph glyph-name="dotlessi" unicode="&#x131;" 
d="M195 1028v68q0 31 30 30h430q31 0 31 -30v-967h318q31 0 30 -31v-67q0 -31 -30 -31h-779q-31 0 -30 31v67q0 31 30 31h318v868h-318q-30 0 -30 31z" />
    <glyph glyph-name="IJ" unicode="&#x132;" 
d="M657 1434h314q31 0 30 -31v-1143q0 -121 -72.5 -193.5t-193.5 -72.5h-190q-121 0 -195 73.5t-74 192.5v86q0 31 31 31h90q31 0 31 -31v-92q0 -49 29.5 -80t79.5 -31h204q49 0 80 31t31 80v1036h-195q-31 0 -30 31v80q-1 33 30 33zM428 1401v-789q0 -31 -31 -30h-84
q-31 0 -30 30v678h-181q-31 0 -30 31v80q0 33 30 33h295q31 0 31 -33z" />
    <glyph glyph-name="ij" unicode="&#x133;" 
d="M655 -276v75q0 31 31 31h96q45 0 74 27.5t29 74.5v1065h-154q-31 0 -31 31v68q0 31 31 30h260q37 0 37 -30v-1157q0 -111 -67.5 -178.5t-178.5 -67.5h-96q-31 0 -31 31zM596 0h-442q-35 0 -35 31v67q0 31 31 31h153v868h-153q-31 0 -31 31v68q0 31 31 30h260q37 0 36 -30
v-967h154q31 0 31 -31v-67q0 -31 -35 -31zM213 1313v129q0 20 13.5 33.5t33.5 13.5h135q47 0 47 -47v-129q0 -45 -47 -45h-135q-47 0 -47 45zM795 1313v129q0 20 13 33.5t34 13.5h135q47 0 47 -47v-129q0 -45 -47 -45h-135q-47 0 -47 45z" />
    <glyph glyph-name="Jcircumflex" unicode="&#x134;" 
d="M438 1321v82q0 31 31 31h483q31 0 31 -31v-1145q0 -119 -73.5 -192.5t-192.5 -73.5h-289q-121 0 -193.5 73.5t-72.5 192.5v86q0 31 31 31h88q31 0 30 -31v-94q0 -49 30 -79t79 -30h305q49 0 79 30t30 79v1040h-365q-31 0 -31 31zM791 1696l116 -156q14 -18 -8 -18h-80
q-23 0 -37 20l-67 94l-72 -94q-14 -20 -39 -20h-74q-25 0 -10 18l119 156q12 18 39 18h74q23 0 39 -18z" />
    <glyph glyph-name="jcircumflex" unicode="&#x135;" 
d="M332 1126h524q31 0 31 -30v-1123q0 -152 -121 -224.5t-311 -72.5q-20 0 -61.5 2.5t-101 8.5t-101 20t-41.5 35v76q0 23 30 22q2 0 9.5 -1t13.5 -1q123 -25 233 -24q129 0 218 41t89 133v1009h-411q-31 0 -31 31v68q0 30 31 30zM686 1389l119 -156q14 -18 -10 -19h-78
q-23 0 -37 21l-70 94l-71 -94q-14 -20 -37 -21h-74q-25 0 -10 19l119 156q12 18 36 18h76q25 0 37 -18z" />
    <glyph glyph-name="uni0136" unicode="&#x136;" 
d="M535 670h-220v-639q0 -31 -30 -31h-90q-31 0 -31 31v1372q0 31 31 31h90q31 0 30 -31v-590h220l344 594q14 27 45 27h112q31 0 15 -27l-392 -666l426 -714q16 -27 -14 -27h-113q-31 0 -47 27zM510 -289l25 187q4 33 36 32h60q35 0 24 -32l-49 -187q-6 -25 -33 -24h-41
q-26 -1 -22 24z" />
    <glyph glyph-name="uni0137" unicode="&#x137;" 
d="M514 506h-207v-475q0 -31 -31 -31h-81q-31 0 -31 31v1372q0 31 31 31h81q31 0 31 -31v-760h205l340 457q18 27 37 26h108q14 0 21.5 -8t-0.5 -18l-387 -525l411 -548q8 -10 2 -18.5t-20 -8.5h-111q-18 0 -36 27zM510 -289l25 187q4 33 36 32h60q35 0 24 -32l-49 -187
q-6 -25 -33 -24h-41q-26 -1 -22 24z" />
    <glyph glyph-name="Lacute" unicode="&#x139;" 
d="M332 152h647q31 0 31 -31v-90q0 -31 -31 -31h-768q-31 0 -31 31v1372q0 31 31 31h90q31 0 31 -31v-1251zM211 1534l86 168q14 20 35 20h127q18 0 6 -18l-143 -174q-16 -16 -41 -17h-58q-20 1 -12 21z" />
    <glyph glyph-name="lacute" unicode="&#x13a;" 
d="M193 1335v68q0 31 30 31h428q31 0 31 -31v-1274h319q31 0 31 -31v-67q0 -31 -31 -31h-778q-31 0 -30 31v67q0 31 30 31h316v1176h-316q-30 -1 -30 30zM408 1536l86 170q12 18 34 18h127q18 0 7 -16l-144 -176q-16 -16 -41 -16h-57q-22 0 -12 20z" />
    <glyph glyph-name="uni013B" unicode="&#x13b;" 
d="M332 152h647q31 0 31 -31v-90q0 -31 -31 -31h-768q-31 0 -31 31v1372q0 31 31 31h90q31 0 31 -31v-1251zM510 -289l25 187q4 33 36 32h60q35 0 24 -32l-49 -187q-6 -25 -33 -24h-41q-26 -1 -22 24z" />
    <glyph glyph-name="uni013C" unicode="&#x13c;" 
d="M193 1335v68q0 31 30 31h428q31 0 31 -31v-1274h319q31 0 31 -31v-67q0 -31 -31 -31h-778q-31 0 -30 31v67q0 31 30 31h316v1176h-316q-30 -1 -30 30zM510 -289l25 187q4 33 36 32h60q35 0 24 -32l-49 -187q-6 -25 -33 -24h-41q-26 -1 -22 24z" />
    <glyph glyph-name="Lcaron" unicode="&#x13d;" 
d="M332 152h647q31 0 31 -31v-90q0 -31 -31 -31h-768q-31 0 -31 31v1372q0 31 31 31h90q31 0 31 -31v-1251zM715 1217l24 184q6 33 37 33h60q35 0 24 -31l-49 -186q-6 -27 -31 -27h-43q-26 0 -22 27z" />
    <glyph glyph-name="lcaron" unicode="&#x13e;" 
d="M193 1335v68q0 31 30 31h428q31 0 31 -31v-1274h319q31 0 31 -31v-67q0 -31 -31 -31h-778q-31 0 -30 31v67q0 31 30 31h316v1176h-316q-30 -1 -30 30zM946 1217l25 184q6 33 37 33h59q35 0 25 -31l-50 -186q-6 -27 -30 -27h-43q-27 0 -23 27z" />
    <glyph glyph-name="Ldot" unicode="&#x13f;" 
d="M332 152h647q31 0 31 -31v-90q0 -31 -31 -31h-768q-31 0 -31 31v1372q0 31 31 31h90q31 0 31 -31v-1251zM719 641v152q0 47 47 47h147q47 0 48 -47v-152q0 -47 -48 -47h-147q-47 0 -47 47z" />
    <glyph glyph-name="ldot" unicode="&#x140;" 
d="M193 1335v68q0 31 30 31h428q31 0 31 -31v-1274h319q31 0 31 -31v-67q0 -31 -31 -31h-778q-31 0 -30 31v67q0 31 30 31h316v1176h-316q-30 -1 -30 30zM1063 641v152q0 47 45 47h147q45 0 45 -47v-152q0 -47 -45 -47h-147q-45 0 -45 47z" />
    <glyph glyph-name="Lslash" unicode="&#x141;" 
d="M53 487l-30 56q-16 25 10 41l147 90v729q0 31 31 31h90q31 0 31 -31v-639l166 102q8 4 16 4q14 0 25 -14l30 -55q12 -27 -10 -43l-227 -137v-469h647q31 0 31 -31v-90q0 -31 -31 -31h-768q-31 0 -31 31v499l-86 -53q-4 -4 -16 -4q-17 0 -25 14z" />
    <glyph glyph-name="lslash" unicode="&#x142;" 
d="M367 514l-29 57q-10 25 14 39l187 101v594h-316q-31 0 -30 30v68q0 31 30 31h428q31 0 31 -31v-617l129 68q4 4 14 4q20 0 27 -16l27 -58q12 -25 -15 -41l-182 -96v-518h319q31 0 31 -31v-67q0 -31 -31 -31h-778q-31 0 -30 31v67q0 31 30 31h316v442l-133 -71
q-8 -4 -15 -4q-18 0 -24 18z" />
    <glyph glyph-name="Nacute" unicode="&#x143;" 
d="M315 1030v-999q0 -31 -30 -31h-90q-31 0 -31 31v1372q0 31 31 31h61q31 0 45 -27l530 -1014q16 -35 29 -84l8 2q-16 53 -16 86v1006q0 31 31 31h90q31 0 31 -31v-1372q0 -31 -31 -31h-62q-31 0 -45 27l-530 1009q-14 29 -29 82l-8 -2q16 -49 16 -86zM516 1536l88 170
q10 18 35 18h125q20 0 8 -16l-143 -176q-16 -16 -41 -16h-60q-18 0 -12 20z" />
    <glyph glyph-name="nacute" unicode="&#x144;" 
d="M195 1126h81q31 0 31 -30v-66q225 113 395 113q135 0 218.5 -79t83.5 -210v-825q0 -29 -31 -29h-82q-31 0 -31 29v827q0 68 -47 110t-123 42q-147 0 -383 -129v-848q0 -31 -31 -31h-81q-31 0 -31 31v1065q0 30 31 30zM522 1229l88 170q8 18 35 18h125q20 0 8 -16
l-143 -176q-16 -16 -41 -17h-59q-19 1 -13 21z" />
    <glyph glyph-name="uni0145" unicode="&#x145;" 
d="M315 1030v-999q0 -31 -30 -31h-90q-31 0 -31 31v1372q0 31 31 31h61q31 0 45 -27l530 -1014q16 -35 29 -84l8 2q-16 53 -16 86v1006q0 31 31 31h90q31 0 31 -31v-1372q0 -31 -31 -31h-62q-31 0 -45 27l-530 1009q-14 29 -29 82l-8 -2q16 -49 16 -86zM510 -289l25 187
q4 33 36 32h60q35 0 24 -32l-49 -187q-6 -25 -33 -24h-41q-26 -1 -22 24z" />
    <glyph glyph-name="uni0146" unicode="&#x146;" 
d="M195 1126h81q31 0 31 -30v-66q225 113 395 113q135 0 218.5 -79t83.5 -210v-825q0 -29 -31 -29h-82q-31 0 -31 29v827q0 68 -47 110t-123 42q-147 0 -383 -129v-848q0 -31 -31 -31h-81q-31 0 -31 31v1065q0 30 31 30zM510 -289l25 187q4 33 36 32h60q35 0 24 -32
l-49 -187q-6 -25 -33 -24h-41q-26 -1 -22 24z" />
    <glyph glyph-name="Ncaron" unicode="&#x147;" 
d="M315 1030v-999q0 -31 -30 -31h-90q-31 0 -31 31v1372q0 31 31 31h61q31 0 45 -27l530 -1014q16 -35 29 -84l8 2q-16 53 -16 86v1006q0 31 31 31h90q31 0 31 -31v-1372q0 -31 -31 -31h-62q-31 0 -45 27l-530 1009q-14 29 -29 82l-8 -2q16 -49 16 -86zM778 1696l-119 -154
q-14 -20 -36 -20h-76q-23 0 -37 20l-119 154q-12 18 10 18h74q23 0 37 -18l72 -97l69 97q14 18 37 18h78q22 0 10 -18z" />
    <glyph glyph-name="ncaron" unicode="&#x148;" 
d="M195 1126h81q31 0 31 -30v-66q225 113 395 113q135 0 218.5 -79t83.5 -210v-825q0 -29 -31 -29h-82q-31 0 -31 29v827q0 68 -47 110t-123 42q-147 0 -383 -129v-848q0 -31 -31 -31h-81q-31 0 -31 31v1065q0 30 31 30zM784 1389l-118 -154q-14 -20 -37 -21h-76
q-23 0 -37 21l-119 154q-12 18 11 18h73q23 0 37 -18l72 -97l69 97q14 18 37 18h78q22 0 10 -18z" />
    <glyph glyph-name="Eng" unicode="&#x14a;" 
d="M737 -307h-166q-31 0 -30 31v88q0 31 30 30h172q49 0 79 31t30 80v115l-520 989q-16 41 -23 86h-4q8 -53 8 -88v-1024q0 -31 -30 -31h-88q-31 0 -31 31v1372q0 31 31 31h61q25 0 43 -29l537 -1018q12 -25 22 -86l4 2q-8 49 -8 88v1012q0 31 29 31h88q33 0 33 -31v-1444
q0 -119 -74 -192.5t-193 -73.5z" />
    <glyph glyph-name="eng" unicode="&#x14b;" 
d="M195 1126h81q31 0 31 -30v-66q225 113 395 113q135 0 218.5 -79t83.5 -210v-924q0 -106 -68 -171.5t-178 -65.5h-183q-31 0 -30 31v75q0 31 30 31h183q47 0 74.5 26.5t27.5 71.5v928q0 68 -47 110t-123 42q-147 0 -383 -129v-848q0 -31 -31 -31h-81q-31 0 -31 31v1065
q0 30 31 30z" />
    <glyph glyph-name="Omacron" unicode="&#x14c;" 
d="M307 1184v-934q0 -49 30 -79t79 -30h336q49 0 78.5 30t29.5 79v934q0 49 -29.5 78.5t-78.5 29.5h-336q-49 0 -79 -29.5t-30 -78.5zM158 258v918q0 119 72.5 192.5t193.5 73.5h319q121 0 194 -74t73 -192v-918q0 -119 -73 -192.5t-194 -73.5h-319q-121 0 -193.5 73.5
t-72.5 192.5zM403 1577v55q0 23 25 23h313q23 0 23 -23v-55q0 -25 -23 -25h-313q-25 0 -25 25z" />
    <glyph glyph-name="omacron" unicode="&#x14d;" 
d="M307 897v-668q0 -45 29 -73.5t74 -28.5h348q45 0 73.5 28.5t28.5 73.5v668q0 45 -28.5 73.5t-73.5 28.5h-348q-45 0 -74 -28.5t-29 -73.5zM164 238v651q0 111 67.5 178.5t178.5 67.5h348q111 0 178.5 -68t67.5 -178v-651q0 -111 -68 -178.5t-178 -67.5h-348
q-111 0 -178.5 67.5t-67.5 178.5zM403 1270v55q0 23 25 23h313q23 0 23 -23v-55q0 -25 -23 -25h-313q-25 0 -25 25z" />
    <glyph glyph-name="Obreve" unicode="&#x14e;" 
d="M307 1184v-934q0 -49 30 -79t79 -30h336q49 0 78.5 30t29.5 79v934q0 49 -29.5 78.5t-78.5 29.5h-336q-49 0 -79 -29.5t-30 -78.5zM158 258v918q0 119 72.5 192.5t193.5 73.5h319q121 0 194 -74t73 -192v-918q0 -119 -73 -192.5t-194 -73.5h-319q-121 0 -193.5 73.5
t-72.5 192.5zM766 1679v-20q-2 -63 -42 -103t-106 -40h-67q-63 0 -104 38.5t-46 104.5v20q-4 23 23 23h47q23 0 27 -23l4 -30q4 -41 43 -41h78q39 0 43 41l4 30q4 23 28 23h45q27 0 23 -23z" />
    <glyph glyph-name="obreve" unicode="&#x14f;" 
d="M307 897v-668q0 -45 29 -73.5t74 -28.5h348q45 0 73.5 28.5t28.5 73.5v668q0 45 -28.5 73.5t-73.5 28.5h-348q-45 0 -74 -28.5t-29 -73.5zM164 238v651q0 111 67.5 178.5t178.5 67.5h348q111 0 178.5 -68t67.5 -178v-651q0 -111 -68 -178.5t-178 -67.5h-348
q-111 0 -178.5 67.5t-67.5 178.5zM766 1372v-20q-2 -63 -42 -103.5t-106 -40.5h-67q-63 0 -104 39t-46 105v20q-4 23 23 23h47q23 0 27 -23l4 -31q4 -41 43 -41h78q39 0 43 41l4 31q4 23 28 23h45q27 0 23 -23z" />
    <glyph glyph-name="Ohungarumlaut" unicode="&#x150;" 
d="M307 1184v-934q0 -49 30 -79t79 -30h336q49 0 78.5 30t29.5 79v934q0 49 -29.5 78.5t-78.5 29.5h-336q-49 0 -79 -29.5t-30 -78.5zM158 258v918q0 119 72.5 192.5t193.5 73.5h319q121 0 194 -74t73 -192v-918q0 -119 -73 -192.5t-194 -73.5h-319q-121 0 -193.5 73.5
t-72.5 192.5zM649 1536l92 152q10 20 35 20h105q27 0 8 -18l-131 -156q-14 -18 -39 -18h-60q-24 0 -10 20zM432 1536l88 152q10 20 35 20h104q27 0 9 -18l-125 -156q-14 -18 -39 -18h-60q-22 0 -12 20z" />
    <glyph glyph-name="ohungarumlaut" unicode="&#x151;" 
d="M307 897v-668q0 -45 29 -73.5t74 -28.5h348q45 0 73.5 28.5t28.5 73.5v668q0 45 -28.5 73.5t-73.5 28.5h-348q-45 0 -74 -28.5t-29 -73.5zM164 238v651q0 111 67.5 178.5t178.5 67.5h348q111 0 178.5 -68t67.5 -178v-651q0 -111 -68 -178.5t-178 -67.5h-348
q-111 0 -178.5 67.5t-67.5 178.5zM649 1229l92 151q10 20 35 21h105q27 0 8 -19l-131 -155q-14 -18 -39 -19h-60q-24 1 -10 21zM432 1229l88 151q10 20 35 21h104q27 0 9 -19l-125 -155q-14 -18 -39 -19h-60q-22 1 -12 21z" />
    <glyph glyph-name="OE" unicode="&#x152;" 
d="M229 1184v-934q0 -49 30 -79t79 -30h174q49 0 79 30t30 79v934q0 49 -30 78.5t-79 29.5h-174q-49 0 -79 -29.5t-30 -78.5zM651 1434h449q31 0 30 -31v-88q0 -31 -30 -31h-328v-549h238q31 0 30 -30v-89q0 -31 -30 -30h-238v-436h328q31 0 30 -31v-88q0 -31 -30 -31h-449
q-16 0 -26 14q-55 -23 -119 -22h-162q-119 0 -192.5 73.5t-73.5 192.5v918q0 119 73.5 192.5t192.5 73.5h162q63 0 119 -23q10 15 26 15z" />
    <glyph glyph-name="oe" unicode="&#x153;" 
d="M526 229v668q0 45 -24.5 73.5t-65.5 28.5h-125q-45 0 -73.5 -28.5t-28.5 -73.5v-668q0 -45 27.5 -73.5t72.5 -28.5h127q41 0 65.5 28.5t24.5 73.5zM856 999h-102q-39 0 -61.5 -27.5t-22.5 -74.5v-262h288v262q0 45 -28.5 73.5t-73.5 28.5zM1071 498h-401v-267
q0 -47 22.5 -75.5t61.5 -28.5h104q47 0 75 28.5t28 73.5v68q0 31 28 31h82q33 0 33 -31v-59q0 -111 -67.5 -178.5t-178.5 -67.5h-117q-90 0 -145 55q-55 -55 -147 -55h-138q-111 0 -178 67.5t-67 178.5v651q0 111 67.5 178.5t177.5 67.5h138q92 0 147 -56q55 55 145 56h117
q111 0 178.5 -67t67.5 -177v-363q0 -30 -33 -30z" />
    <glyph glyph-name="Racute" unicode="&#x154;" 
d="M760 1284h-447v-555h447q49 0 79.5 29.5t30.5 79.5v336q0 49 -30.5 79.5t-79.5 30.5zM893 29l-221 549h-359v-547q0 -31 -30 -31h-88q-31 0 -31 31v1372q0 31 31 31h559q119 0 192.5 -74t73.5 -193v-323q0 -100 -51 -168t-142 -90l222 -557q10 -29 -23 -29h-94
q-29 0 -39 29zM467 1536l86 170q12 18 35 18h127q18 0 6 -16l-143 -176q-12 -16 -41 -16h-58q-22 0 -12 20z" />
    <glyph glyph-name="racute" unicode="&#x155;" 
d="M879 98v-67q0 -31 -31 -31h-655q-31 0 -31 31v67q0 31 31 31h231v868h-225q-31 0 -31 31v68q0 31 31 30h338q31 0 30 -30v-125q258 170 457 170q31 0 31 -29l2 -96q0 -23 -31 -23q-158 0 -459 -182v-682h281q31 0 31 -31zM537 1229l86 170q12 18 34 18h127q18 0 7 -16
l-144 -176q-16 -16 -41 -17h-57q-22 1 -12 21z" />
    <glyph glyph-name="uni0156" unicode="&#x156;" 
d="M760 1284h-447v-555h447q49 0 79.5 29.5t30.5 79.5v336q0 49 -30.5 79.5t-79.5 30.5zM893 29l-221 549h-359v-547q0 -31 -30 -31h-88q-31 0 -31 31v1372q0 31 31 31h559q119 0 192.5 -74t73.5 -193v-323q0 -100 -51 -168t-142 -90l222 -557q10 -29 -23 -29h-94
q-29 0 -39 29zM510 -289l25 187q4 33 36 32h60q35 0 24 -32l-49 -187q-6 -25 -33 -24h-41q-26 -1 -22 24z" />
    <glyph glyph-name="uni0157" unicode="&#x157;" 
d="M879 98v-67q0 -31 -31 -31h-655q-31 0 -31 31v67q0 31 31 31h231v868h-225q-31 0 -31 31v68q0 31 31 30h338q31 0 30 -30v-125q258 170 457 170q31 0 31 -29l2 -96q0 -23 -31 -23q-158 0 -459 -182v-682h281q31 0 31 -31zM428 -289l25 187q4 33 36 32h60q35 0 24 -32
l-49 -187q-6 -25 -32 -24h-41q-27 -1 -23 24z" />
    <glyph glyph-name="Rcaron" unicode="&#x158;" 
d="M760 1284h-447v-555h447q49 0 79.5 29.5t30.5 79.5v336q0 49 -30.5 79.5t-79.5 30.5zM893 29l-221 549h-359v-547q0 -31 -30 -31h-88q-31 0 -31 31v1372q0 31 31 31h559q119 0 192.5 -74t73.5 -193v-323q0 -100 -51 -168t-142 -90l222 -557q10 -29 -23 -29h-94
q-29 0 -39 29zM727 1696l-117 -154q-14 -20 -39 -20h-73q-25 0 -39 20l-119 154q-12 18 10 18h74q25 0 39 -18l72 -97l67 97q14 18 37 18h80q20 0 8 -18z" />
    <glyph glyph-name="rcaron" unicode="&#x159;" 
d="M879 98v-67q0 -31 -31 -31h-655q-31 0 -31 31v67q0 31 31 31h231v868h-225q-31 0 -31 31v68q0 31 31 30h338q31 0 30 -30v-125q258 170 457 170q31 0 31 -29l2 -96q0 -23 -31 -23q-158 0 -459 -182v-682h281q31 0 31 -31zM797 1389l-117 -154q-16 -20 -39 -21h-74
q-25 0 -39 21l-118 154q-12 18 10 18h74q25 0 38 -18l72 -97l68 97q14 18 37 18h79q21 0 9 -18z" />
    <glyph glyph-name="Sacute" unicode="&#x15a;" 
d="M176 1030v146q0 119 74 192.5t192 73.5h283q119 0 192.5 -74t73.5 -192v-136q0 -31 -30 -30h-89q-31 0 -30 30v144q0 49 -30 78.5t-79 29.5h-299q-49 0 -78.5 -29.5t-29.5 -78.5v-140q0 -57 49 -88l518 -340q47 -31 75.5 -84t28.5 -108v-168q0 -121 -72.5 -193.5
t-193.5 -72.5h-307q-121 0 -193.5 72.5t-72.5 193.5v135q0 31 30 31l91 2q31 0 30 -31v-143q0 -49 30 -79t79 -30h319q49 0 79 30t30 79v160q0 57 -47 90l-518 338q-105 67 -105 192zM514 1536l88 170q8 18 35 18h125q23 0 6 -16l-143 -176q-12 -16 -39 -16h-60
q-22 0 -12 20z" />
    <glyph glyph-name="sacute" unicode="&#x15b;" 
d="M1004 344v-94q0 -117 -68 -187.5t-178 -70.5h-348q-111 0 -178.5 67.5t-67.5 178.5v86q0 31 31 30h81q31 0 31 -30v-74q0 -123 109 -123h336q109 0 108 133v70q0 70 -55 90l-502 186q-57 20 -93 78.5t-36 124.5v74q0 113 67.5 182.5t178.5 69.5h328q111 0 178 -68
t67 -178v-86q0 -31 -30 -31h-82q-31 0 -31 31v74q0 123 -109 122h-315q-109 0 -109 -131v-45q0 -70 56 -90l501 -186q59 -23 94.5 -80t35.5 -123zM516 1229l88 170q10 18 35 18h125q23 0 6 -16l-143 -176q-12 -16 -39 -17h-60q-22 1 -12 21z" />
    <glyph glyph-name="Scircumflex" unicode="&#x15c;" 
d="M176 1030v146q0 119 74 192.5t192 73.5h283q119 0 192.5 -74t73.5 -192v-136q0 -31 -30 -30h-89q-31 0 -30 30v144q0 49 -30 78.5t-79 29.5h-299q-49 0 -78.5 -29.5t-29.5 -78.5v-140q0 -57 49 -88l518 -340q47 -31 75.5 -84t28.5 -108v-168q0 -121 -72.5 -193.5
t-193.5 -72.5h-307q-121 0 -193.5 72.5t-72.5 193.5v135q0 31 30 31l91 2q31 0 30 -31v-143q0 -49 30 -79t79 -30h319q49 0 79 30t30 79v160q0 57 -47 90l-518 338q-105 67 -105 192zM657 1696l117 -156q14 -18 -8 -18h-78q-25 0 -39 20l-67 94l-72 -94q-14 -20 -37 -20h-76
q-23 0 -8 18l117 156q12 18 39 18h73q27 0 39 -18z" />
    <glyph glyph-name="scircumflex" unicode="&#x15d;" 
d="M1004 344v-94q0 -117 -68 -187.5t-178 -70.5h-348q-111 0 -178.5 67.5t-67.5 178.5v86q0 31 31 30h81q31 0 31 -30v-74q0 -123 109 -123h336q109 0 108 133v70q0 70 -55 90l-502 186q-57 20 -93 78.5t-36 124.5v74q0 113 67.5 182.5t178.5 69.5h328q111 0 178 -68
t67 -178v-86q0 -31 -30 -31h-82q-31 0 -31 31v74q0 123 -109 122h-315q-109 0 -109 -131v-45q0 -70 56 -90l501 -186q59 -23 94.5 -80t35.5 -123zM659 1389l117 -156q14 -18 -8 -19h-78q-25 0 -39 21l-67 94l-72 -94q-14 -20 -37 -21h-76q-23 0 -8 19l117 156q12 18 39 18
h74q26 0 38 -18z" />
    <glyph glyph-name="Scedilla" unicode="&#x15e;" 
d="M702 -156v-45q0 -41 -25.5 -66.5t-66.5 -25.5h-123q-23 0 -22 25v26q0 25 22 25h103q31 0 31 31v16q0 31 -31 31h-51q-45 0 -35 43l14 86h-94q-121 0 -193.5 72.5t-72.5 193.5v135q0 31 30 31l91 2q31 0 30 -31v-143q0 -49 30 -79t79 -30h319q49 0 79 30t30 79v160
q0 57 -47 90l-518 338q-104 68 -105 192v146q0 119 74 192.5t192 73.5h283q119 0 192.5 -74t73.5 -192v-136q0 -31 -30 -30h-89q-31 0 -30 30v144q0 49 -30 78.5t-79 29.5h-299q-49 0 -78.5 -29.5t-29.5 -78.5v-140q0 -57 49 -88l518 -340q47 -31 75.5 -84t28.5 -108v-168
q0 -121 -72.5 -193.5t-193.5 -72.5h-123l-10 -53h12q41 0 66.5 -26t25.5 -67z" />
    <glyph glyph-name="scedilla" unicode="&#x15f;" 
d="M702 -156v-45q0 -41 -25.5 -66.5t-66.5 -25.5h-123q-23 0 -22 25v26q0 25 22 25h103q31 0 31 31v16q0 31 -31 31h-51q-45 0 -35 43l16 88h-110q-111 0 -178.5 67.5t-67.5 178.5v86q0 31 31 30h81q31 0 31 -30v-74q0 -123 109 -123h336q109 0 108 133v70q0 70 -55 90
l-502 186q-57 20 -93 78.5t-36 124.5v74q0 113 67.5 182.5t178.5 69.5h328q111 0 178 -68t67 -178v-86q0 -31 -30 -31h-82q-31 0 -31 31v74q0 123 -109 122h-315q-109 0 -109 -131v-45q0 -70 56 -90l501 -186q59 -23 94.5 -80t35.5 -123v-94q0 -117 -68 -187.5t-178 -70.5
h-150l-10 -55h12q41 0 66.5 -26t25.5 -67z" />
    <glyph glyph-name="Scaron" unicode="&#x160;" 
d="M176 1030v146q0 119 74 192.5t192 73.5h283q119 0 192.5 -74t73.5 -192v-136q0 -31 -30 -30h-89q-31 0 -30 30v144q0 49 -30 78.5t-79 29.5h-299q-49 0 -78.5 -29.5t-29.5 -78.5v-140q0 -57 49 -88l518 -340q47 -31 75.5 -84t28.5 -108v-168q0 -121 -72.5 -193.5
t-193.5 -72.5h-307q-121 0 -193.5 72.5t-72.5 193.5v135q0 31 30 31l91 2q31 0 30 -31v-143q0 -49 30 -79t79 -30h319q49 0 79 30t30 79v160q0 57 -47 90l-518 338q-105 67 -105 192zM774 1696l-117 -154q-14 -20 -39 -20h-73q-25 0 -39 20l-117 154q-12 18 8 18h76
q23 0 37 -18l72 -97l67 97q14 18 39 18h78q20 0 8 -18z" />
    <glyph glyph-name="scaron" unicode="&#x161;" 
d="M1004 344v-94q0 -117 -68 -187.5t-178 -70.5h-348q-111 0 -178.5 67.5t-67.5 178.5v86q0 31 31 30h81q31 0 31 -30v-74q0 -123 109 -123h336q109 0 108 133v70q0 70 -55 90l-502 186q-57 20 -93 78.5t-36 124.5v74q0 113 67.5 182.5t178.5 69.5h328q111 0 178 -68
t67 -178v-86q0 -31 -30 -31h-82q-31 0 -31 31v74q0 123 -109 122h-315q-109 0 -109 -131v-45q0 -70 56 -90l501 -186q59 -23 94.5 -80t35.5 -123zM776 1389l-117 -154q-14 -20 -38 -21h-74q-25 0 -39 21l-117 154q-12 18 8 18h76q23 0 37 -18l72 -97l67 97q14 18 39 18h78
q20 0 8 -18z" />
    <glyph glyph-name="uni0162" unicode="&#x162;" 
d="M1065 1403v-88q0 -31 -31 -31h-375v-1253q0 -31 -30 -31h-90q-31 0 -31 31v1253h-375q-31 0 -31 31v88q0 31 31 31h901q31 0 31 -31zM492 -289l22 187q8 33 37 32h59q35 0 27 -32l-49 -187q-6 -25 -33 -24h-43q-24 -1 -20 24z" />
    <glyph glyph-name="uni0163" unicode="&#x163;" 
d="M164 1020v76q0 31 31 30h225v174q0 31 31 31h81q31 0 31 -31v-174h383q31 0 31 -30v-76q0 -31 -31 -31h-383v-751q0 -45 27.5 -74t75.5 -29h280q31 0 31 -31v-75q0 -31 -31 -31h-280q-111 0 -178.5 67.5t-67.5 178.5v745h-225q-31 0 -31 31zM621 -289l22 187q8 33 37 32
h59q35 0 27 -32l-49 -187q-6 -25 -33 -24h-43q-24 -1 -20 24z" />
    <glyph glyph-name="Tcaron" unicode="&#x164;" 
d="M1065 1403v-88q0 -31 -31 -31h-375v-1253q0 -31 -30 -31h-90q-31 0 -31 31v1253h-375q-31 0 -31 31v88q0 31 31 31h901q31 0 31 -31zM776 1696l-117 -154q-14 -20 -38 -20h-74q-25 0 -39 20l-117 154q-12 18 8 18h76q23 0 37 -18l72 -97l67 97q14 18 39 18h78q20 0 8 -18
z" />
    <glyph glyph-name="tcaron" unicode="&#x165;" 
d="M164 1020v76q0 31 31 30h225v174q0 31 31 31h81q31 0 31 -31v-174h383q31 0 31 -30v-76q0 -31 -31 -31h-383v-751q0 -45 27.5 -74t75.5 -29h280q31 0 31 -31v-75q0 -31 -31 -31h-280q-111 0 -178.5 67.5t-67.5 178.5v745h-225q-31 0 -31 31zM836 1243l24 184q6 33 39 33
h59q31 0 25 -30l-49 -187q-6 -27 -33 -26h-41q-28 -1 -24 26z" />
    <glyph glyph-name="Tbar" unicode="&#x166;" 
d="M307 799h201v485h-375q-31 0 -31 31v88q0 31 31 31h901q31 0 31 -31v-88q0 -31 -31 -31h-375v-485h201q31 0 31 -31v-61q0 -31 -31 -31h-201v-645q0 -31 -30 -31h-90q-31 0 -31 31v645h-201q-31 0 -31 31v61q0 31 31 31z" />
    <glyph glyph-name="tbar" unicode="&#x167;" 
d="M246 659v62q0 23 28 22h146v246h-225q-31 0 -31 31v76q0 31 31 30h225v174q0 31 31 31h81q31 0 31 -31v-174h383q31 0 31 -30v-76q0 -31 -31 -31h-383v-246h254q25 0 25 -22v-62q0 -25 -25 -24h-254v-397q0 -45 27.5 -74t75.5 -29h280q31 0 31 -31v-75q0 -31 -31 -31
h-280q-111 0 -178.5 67.5t-67.5 178.5v391h-146q-28 -1 -28 24z" />
    <glyph glyph-name="Utilde" unicode="&#x168;" 
d="M891 1434h88q31 0 31 -31v-1145q0 -119 -73 -192.5t-194 -73.5h-319q-121 0 -193.5 73.5t-72.5 192.5v1145q0 31 30 31h88q31 0 31 -31v-1153q0 -49 30 -79t79 -30h336q49 0 78.5 30t29.5 79v1153q0 31 31 31zM358 1552v60q0 37 49.5 57.5t92.5 20.5q37 0 67 -15l72 -33
q14 -8 37 -8q66 0 121 41q8 4 10 4q8 0 8 -14v-61q0 -37 -48 -55.5t-91 -18.5q-37 0 -68 12l-71 35q-18 6 -39 6q-63 0 -119 -41q-4 -4 -12.5 -4t-8.5 14z" />
    <glyph glyph-name="utilde" unicode="&#x169;" 
d="M973 0h-82q-31 0 -31 31v65q-225 -113 -393 -112q-137 0 -220 78.5t-83 209.5v826q0 29 31 28h81q31 0 31 -28v-828q0 -68 47 -109.5t123 -41.5q145 0 383 129v848q0 31 31 30h82q31 0 31 -30v-1065q0 -31 -31 -31zM358 1245v60q0 37 49.5 57t92.5 20q37 0 67 -14l72 -33
q14 -8 37 -8q66 0 121 41q8 4 10 4q8 0 8 -14v-62q0 -37 -48 -55t-91 -18q-37 0 -68 12l-71 35q-18 6 -39 6q-63 0 -119 -41q-4 -4 -12.5 -4t-8.5 14z" />
    <glyph glyph-name="Umacron" unicode="&#x16a;" 
d="M891 1434h88q31 0 31 -31v-1145q0 -119 -73 -192.5t-194 -73.5h-319q-121 0 -193.5 73.5t-72.5 192.5v1145q0 31 30 31h88q31 0 31 -31v-1153q0 -49 30 -79t79 -30h336q49 0 78.5 30t29.5 79v1153q0 31 31 31zM403 1577v55q0 23 25 23h313q23 0 23 -23v-55q0 -25 -23 -25
h-313q-25 0 -25 25z" />
    <glyph glyph-name="umacron" unicode="&#x16b;" 
d="M973 0h-82q-31 0 -31 31v65q-225 -113 -393 -112q-137 0 -220 78.5t-83 209.5v826q0 29 31 28h81q31 0 31 -28v-828q0 -68 47 -109.5t123 -41.5q145 0 383 129v848q0 31 31 30h82q31 0 31 -30v-1065q0 -31 -31 -31zM403 1270v55q0 23 25 23h313q23 0 23 -23v-55
q0 -25 -23 -25h-313q-25 0 -25 25z" />
    <glyph glyph-name="Ubreve" unicode="&#x16c;" 
d="M891 1434h88q31 0 31 -31v-1145q0 -119 -73 -192.5t-194 -73.5h-319q-121 0 -193.5 73.5t-72.5 192.5v1145q0 31 30 31h88q31 0 31 -31v-1153q0 -49 30 -79t79 -30h336q49 0 78.5 30t29.5 79v1153q0 31 31 31zM766 1679v-20q-2 -63 -42 -103t-106 -40h-67
q-63 0 -104 38.5t-46 104.5v20q-4 23 23 23h47q23 0 27 -23l4 -30q4 -41 43 -41h78q39 0 43 41l4 30q4 23 28 23h45q27 0 23 -23z" />
    <glyph glyph-name="ubreve" unicode="&#x16d;" 
d="M973 0h-82q-31 0 -31 31v65q-225 -113 -393 -112q-137 0 -220 78.5t-83 209.5v826q0 29 31 28h81q31 0 31 -28v-828q0 -68 47 -109.5t123 -41.5q145 0 383 129v848q0 31 31 30h82q31 0 31 -30v-1065q0 -31 -31 -31zM766 1372v-20q-2 -63 -42 -103.5t-106 -40.5h-67
q-63 0 -104 39t-46 105v20q-4 23 23 23h47q23 0 27 -23l4 -31q4 -41 43 -41h78q39 0 43 41l4 31q4 23 28 23h45q27 0 23 -23z" />
    <glyph glyph-name="Uring" unicode="&#x16e;" 
d="M891 1434h88q31 0 31 -31v-1145q0 -119 -73 -192.5t-194 -73.5h-319q-121 0 -193.5 73.5t-72.5 192.5v1145q0 31 30 31h88q31 0 31 -31v-1153q0 -49 30 -79t79 -30h336q49 0 78.5 30t29.5 79v1153q0 31 31 31zM440 1648.5q0 59.5 42 101.5t101.5 42t101.5 -42t42 -101.5
t-42 -101.5t-101.5 -42t-101.5 42t-42 101.5zM516 1648.5q0 -26.5 20.5 -47t47 -20.5t47 20.5t20.5 47t-20.5 47t-47 20.5t-47 -20.5t-20.5 -47z" />
    <glyph glyph-name="uring" unicode="&#x16f;" 
d="M516 1341.5q0 -26.5 20.5 -47t47 -20.5t47 20.5t20.5 47t-20.5 47t-47 20.5t-47 -20.5t-20.5 -47zM973 0h-82q-31 0 -31 31v65q-225 -113 -393 -112q-137 0 -220 78.5t-83 209.5v826q0 29 31 28h81q31 0 31 -28v-828q0 -68 47 -109.5t123 -41.5q145 0 383 129v848
q0 31 31 30h82q31 0 31 -30v-1065q0 -31 -31 -31zM440 1341.5q0 59.5 42 101.5t101.5 42t101.5 -42t42 -101.5t-42 -101.5t-101.5 -42t-101.5 42t-42 101.5z" />
    <glyph glyph-name="Uhungarumlaut" unicode="&#x170;" 
d="M891 1434h88q31 0 31 -31v-1145q0 -119 -73 -192.5t-194 -73.5h-319q-121 0 -193.5 73.5t-72.5 192.5v1145q0 31 30 31h88q31 0 31 -31v-1153q0 -49 30 -79t79 -30h336q49 0 78.5 30t29.5 79v1153q0 31 31 31zM649 1536l92 152q10 20 35 20h105q27 0 8 -18l-131 -156
q-14 -18 -39 -18h-60q-24 0 -10 20zM432 1536l88 152q10 20 35 20h104q27 0 9 -18l-125 -156q-14 -18 -39 -18h-60q-22 0 -12 20z" />
    <glyph glyph-name="uhungarumlaut" unicode="&#x171;" 
d="M973 0h-82q-31 0 -31 31v65q-225 -113 -393 -112q-137 0 -220 78.5t-83 209.5v826q0 29 31 28h81q31 0 31 -28v-828q0 -68 47 -109.5t123 -41.5q145 0 383 129v848q0 31 31 30h82q31 0 31 -30v-1065q0 -31 -31 -31zM432 1229l88 151q10 20 35 21h104q27 0 9 -19
l-125 -155q-14 -18 -39 -19h-60q-22 1 -12 21zM649 1229l92 151q10 20 35 21h105q27 0 8 -19l-131 -155q-14 -18 -39 -19h-60q-24 1 -10 21z" />
    <glyph glyph-name="Uogonek" unicode="&#x172;" 
d="M760 -8q-53 -76 -60 -133q-6 -35 25 -35h84q25 0 25 -25v-32q0 -25 -25 -25h-109q-39 0 -63.5 23.5t-24.5 62.5q0 84 60 164h-248q-121 0 -193.5 73.5t-72.5 192.5v1145q0 31 30 31h88q31 0 31 -31v-1153q0 -49 30 -79t79 -30h336q49 0 78.5 30t29.5 79v1153q0 31 31 31
h88q31 0 31 -31v-1145q0 -117 -67.5 -189.5t-182.5 -76.5z" />
    <glyph glyph-name="uogonek" unicode="&#x173;" 
d="M889 0q-29 0 -29 27v69q-225 -113 -393 -112q-137 0 -220 78.5t-83 209.5v826q0 29 31 28h81q31 0 31 -28v-828q0 -68 47 -109.5t123 -41.5q145 0 383 129v848q0 31 31 30h82q31 0 31 -30v-1069q0 -27 -27 -27q-57 -76 -70 -143q-6 -35 27 -35h82q25 0 24 -23v-35
q0 -25 -24 -24h-109q-39 0 -62.5 24.5t-23.5 63.5q0 94 68 172z" />
    <glyph glyph-name="Wcircumflex" unicode="&#x174;" 
d="M653 1403l146 -1000q2 -14 2 -88h8q0 74 2 88l156 1000q6 31 37 31h90q31 0 26 -31l-246 -1372q-6 -31 -36 -31h-64q-31 0 -35 31l-151 973q-2 12 -2 88h-8q0 -76 -3 -88l-149 -973q-6 -31 -37 -31h-63q-31 0 -37 31l-244 1372q-6 31 25 31h92q31 0 35 -31l155 -1000
q2 -14 2 -88h8q0 74 3 88l145 1000q4 31 35 31h73q31 0 35 -31zM659 1696l117 -156q14 -18 -10 -18h-78q-23 0 -37 20l-67 94l-72 -94q-16 -20 -39 -20h-74q-25 0 -10 18l119 156q12 18 37 18h76q22 0 38 -18z" />
    <glyph glyph-name="wcircumflex" unicode="&#x175;" 
d="M573 772l-151 -741q-6 -31 -37 -31h-76q-29 0 -39 31l-233 1065q-6 31 24 30h86q31 0 37 -30l156 -783q4 -27 4 -90h8q0 63 4 90l154 783q6 31 37 30h74q31 0 36 -30l154 -783q4 -27 4 -90h8q0 63 4 90l156 783q6 31 37 30h86q31 0 24 -30l-235 -1065q-6 -31 -37 -31h-78
q-31 0 -37 31l-151 741q-2 16 -4 52t-2 40h-6q-1 -65 -7 -92zM659 1389l117 -156q14 -18 -8 -19h-80q-23 0 -37 21l-67 94l-72 -94q-14 -20 -39 -21h-74q-25 0 -10 19l119 156q12 18 39 18h74q26 0 38 -18z" />
    <glyph glyph-name="Ycircumflex" unicode="&#x176;" 
d="M1053 1405l-394 -838v-536q0 -31 -30 -31h-88q-31 0 -31 31v536l-393 838q-12 29 18 29h98q33 0 43 -29l289 -612q16 -31 17 -84h6q0 51 14 86l287 610q12 29 45 29h100q29 0 19 -29zM662 1696l116 -156q14 -18 -10 -18h-78q-23 0 -37 20l-67 94l-72 -94q-16 -20 -39 -20
h-74q-25 0 -10 18l119 156q12 18 37 18h76q25 0 39 -18z" />
    <glyph glyph-name="ycircumflex" unicode="&#x177;" 
d="M397 -279l115 281l-418 1096q-10 29 21 28h94q31 0 41 -28l317 -844q10 -33 11 -90h8q0 57 10 90l319 844q10 29 41 28h97q29 0 20 -28l-526 -1377q-10 -29 -41 -28h-90q-33 -1 -19 28zM659 1389l117 -156q14 -18 -8 -19h-78q-25 0 -39 21l-67 94l-72 -94
q-14 -20 -37 -21h-76q-23 0 -8 19l117 156q12 18 39 18h74q26 0 38 -18z" />
    <glyph glyph-name="Ydieresis" unicode="&#x178;" 
d="M1053 1405l-394 -838v-536q0 -31 -30 -31h-88q-31 0 -31 31v536l-393 838q-12 29 18 29h98q33 0 43 -29l289 -612q16 -31 17 -84h6q0 51 14 86l287 610q12 29 45 29h100q29 0 19 -29zM340 1579v53q0 49 49 49h53q49 0 50 -49v-53q0 -49 -50 -49h-53q-49 0 -49 49z
M680 1579v53q0 49 49 49h53q20 0 34.5 -13t14.5 -36v-53q0 -49 -49 -49h-53q-49 0 -49 49z" />
    <glyph glyph-name="Zacute" unicode="&#x179;" 
d="M1008 119v-88q0 -31 -31 -31h-795q-31 0 -30 31v88q0 25 16 57l668 1108h-646q-31 0 -30 31v88q0 31 30 31h793q31 0 31 -31v-88q0 -31 -17 -58l-667 -1107h647q31 0 31 -31zM516 1536l88 170q10 18 35 18h125q23 0 6 -16l-143 -176q-12 -16 -39 -16h-60q-22 0 -12 20z
" />
    <glyph glyph-name="zacute" unicode="&#x17a;" 
d="M182 162l641 827h-622q-31 0 -31 31v76q0 31 31 30h776q31 0 31 -30v-78q0 -29 -21 -53l-643 -828h635q31 0 31 -31v-75q0 -31 -31 -31h-784q-31 0 -31 31v78q0 26 18 53zM520 1229l88 170q10 18 35 18h125q23 0 6 -16l-143 -176q-12 -16 -39 -17h-60q-22 1 -12 21z" />
    <glyph glyph-name="Zdotaccent" unicode="&#x17b;" 
d="M1008 119v-88q0 -31 -31 -31h-795q-31 0 -30 31v88q0 25 16 57l668 1108h-646q-31 0 -30 31v88q0 31 30 31h793q31 0 31 -31v-88q0 -31 -17 -58l-667 -1107h647q31 0 31 -31zM498 1579v68q0 20 13 34.5t36 14.5h74q23 0 36 -14.5t13 -34.5v-68q0 -49 -49 -49h-74
q-49 0 -49 49z" />
    <glyph glyph-name="zdotaccent" unicode="&#x17c;" 
d="M182 162l641 827h-622q-31 0 -31 31v76q0 31 31 30h776q31 0 31 -30v-78q0 -29 -21 -53l-643 -828h635q31 0 31 -31v-75q0 -31 -31 -31h-784q-31 0 -31 31v78q0 26 18 53zM502 1272v67q0 20 13 35t36 15h74q23 0 36 -14.5t13 -35.5v-67q0 -49 -49 -49h-74q-49 0 -49 49z
" />
    <glyph glyph-name="Zcaron" unicode="&#x17d;" 
d="M1008 119v-88q0 -31 -31 -31h-795q-31 0 -30 31v88q0 25 16 57l668 1108h-646q-31 0 -30 31v88q0 31 30 31h793q31 0 31 -31v-88q0 -31 -17 -58l-667 -1107h647q31 0 31 -31zM776 1696l-117 -154q-14 -20 -38 -20h-74q-25 0 -39 20l-117 154q-12 18 8 18h76q23 0 37 -18
l72 -97l67 97q14 18 39 18h78q20 0 8 -18z" />
    <glyph glyph-name="zcaron" unicode="&#x17e;" 
d="M182 162l641 827h-622q-31 0 -31 31v76q0 31 31 30h776q31 0 31 -30v-78q0 -29 -21 -53l-643 -828h635q31 0 31 -31v-75q0 -31 -31 -31h-784q-31 0 -31 31v78q0 26 18 53zM780 1389l-116 -154q-14 -20 -39 -21h-74q-25 0 -39 21l-117 154q-12 18 8 18h76q23 0 37 -18
l72 -97l67 97q14 18 39 18h78q20 0 8 -18z" />
    <glyph glyph-name="uni018F" unicode="&#x18f;" 
d="M424 141h319q49 0 80 30t31 79v364h-541v-364q0 -49 31 -79t80 -30zM195 764h659v416q0 49 -30.5 79.5t-80.5 30.5h-319q-49 0 -80 -29.5t-31 -78.5v-115q0 -31 -30 -31h-88q-31 0 -31 31v107q0 121 73.5 193.5t192.5 72.5h307q119 0 193 -73t74 -193v-916
q0 -119 -74 -192.5t-193 -73.5h-307q-121 0 -193.5 72.5t-72.5 191.5v477q0 31 31 31z" />
    <glyph glyph-name="florin" unicode="&#x192;" 
d="M252 815l14 76q4 31 35 31h207l47 266q20 111 99 178.5t190 67.5h145q31 0 25 -31l-13 -76q-6 -31 -36 -31h-146q-45 0 -77.5 -27.5t-41.5 -74.5l-49 -272h242q31 0 27 -31l-15 -76q-4 -31 -37 -31h-241l-187 -1060q-4 -31 -37 -31h-81q-31 0 -25 31l186 1060h-207
q-28 0 -24 31z" />
    <glyph glyph-name="uni01DD" unicode="&#x1dd;" 
d="M410 127h348q45 0 73.5 28.5t28.5 73.5v263h-553v-263q0 -45 29 -73.5t74 -28.5zM195 629h665v266q0 47 -28.5 75.5t-73.5 28.5h-348q-45 0 -74 -28.5t-29 -73.5v-68q0 -31 -31 -30h-81q-31 0 -31 30v60q0 111 67.5 178.5t178.5 67.5h348q111 0 178.5 -68t67.5 -178v-651
q0 -111 -68 -178.5t-178 -67.5h-348q-111 0 -178.5 66.5t-67.5 177.5v362q0 31 31 31z" />
    <glyph glyph-name="Aringacute" unicode="&#x1fa;" 
d="M371 412h426l-201 665q-8 25 -8 86h-8q0 -61 -9 -86zM516 1552q0 -27 20.5 -46t47 -19t47 19.5t20.5 45.5q0 29 -20.5 48.5t-47 19.5t-47 -19.5t-20.5 -48.5zM715 1610q12 -27 12 -58q0 -90 -84 -129q8 -12 10 -18l414 -1376q6 -29 -23 -29h-92q-31 0 -41 29l-69 233
h-516l-70 -233q-10 -29 -39 -29h-94q-29 0 -23 29l414 1376q2 6 10 18q-84 39 -84 129q0 59 42 101.5t102 42.5q39 0 69 -19l62 119q10 20 35 21h124q23 0 9 -19l-144 -174q-12 -12 -24 -14z" />
    <glyph glyph-name="aringacute" unicode="&#x1fb;" 
d="M840 250v268q-193 37 -308 37q-102 0 -160.5 -45t-58.5 -119v-125q0 -66 46.5 -106.5t121.5 -40.5q138 0 359 131zM541 1341.5q0 -26.5 19.5 -47t45.5 -20.5q29 0 48.5 20.5t19.5 47t-19.5 47t-48.5 20.5q-27 0 -46 -20.5t-19 -47zM170 268v121q0 131 100.5 210t266.5 79
q55 0 303 -29v228q0 123 -109 122h-270q-109 0 -109 -122v-41q0 -31 -30 -31h-82q-31 0 -31 31v53q0 111 67.5 178.5t178.5 67.5h282q111 0 178.5 -68t67.5 -178v-858q0 -31 -31 -31h-82q-31 0 -30 31v67q-213 -115 -371 -114q-133 0 -216 78.5t-83 205.5zM676 1466l59 119
q12 18 35 19h127q18 0 6 -17l-143 -174q-12 -12 -21 -14q10 -31 11 -58q0 -59 -42 -101t-102 -42q-57 0 -100 42t-43 101.5t42 101.5t101 42q39 -1 70 -19z" />
    <glyph glyph-name="AEacute" unicode="&#x1fc;" 
d="M338 412h268v716q0 27 10 89l-4 2q-6 -45 -20 -86zM606 262h-321l-82 -233q-10 -29 -39 -29h-98q-33 0 -23 29l502 1376q10 29 39 29h487q31 0 31 -31v-88q0 -31 -31 -31h-313v-549h225q31 0 31 -30v-89q0 -31 -31 -30h-225v-436h313q31 0 31 -31v-88q0 -31 -31 -31h-434
q-31 0 -31 31v231zM592 1536l88 170q8 18 35 18h125q20 0 8 -16l-143 -176q-16 -16 -41 -16h-60q-18 0 -12 20z" />
    <glyph glyph-name="aeacute" unicode="&#x1fd;" 
d="M514 238v286q-113 31 -184 31q-55 0 -92 -34t-37 -89v-207q0 -51 32.5 -78.5t75.5 -27.5q90 0 205 119zM864 999h-104q-47 0 -75 -28.5t-28 -73.5v-262h310v262q0 45 -29 73.5t-74 28.5zM1079 498h-422v-267q0 -47 29 -75.5t74 -28.5h104q45 0 74 28.5t29 73.5v68
q0 31 30 31h82q31 0 31 -31v-59q0 -111 -67.5 -178.5t-178.5 -67.5h-104q-147 0 -213 110q-150 -119 -266 -118q-94 0 -159 67.5t-65 175.5v203q0 113 69 180.5t183 67.5q92 0 205 -25v236v18q-14 92 -108 92h-87q-53 0 -81.5 -32.5t-28.5 -89.5v-41q0 -31 -31 -31h-82
q-31 0 -30 31v53q0 111 67.5 178.5t177.5 67.5h99q106 0 174 -64q68 63 176 64h104q111 0 178.5 -67t67.5 -177v-363q0 -30 -31 -30zM518 1229l86 170q12 18 35 18h127q18 0 6 -16l-143 -176q-16 -16 -41 -17h-60q-20 1 -10 21z" />
    <glyph glyph-name="Oslashacute" unicode="&#x1fe;" 
d="M369 150l346 1142h-299q-49 0 -79 -29.5t-30 -78.5v-934q1 -73 62 -100zM797 1284l-344 -1143h299q49 0 78.5 30t29.5 79v934q0 73 -63 100zM862 1495l-20 -68q78 -27 123 -93t45 -158v-918q0 -119 -73 -192.5t-194 -73.5h-319h-16l-25 -80q-6 -16 -21 -16q-2 0 -6 2
l-39 12q-23 8 -14 29l23 67q-78 27 -123 93.5t-45 158.5v918q0 119 72.5 192.5t193.5 73.5h319h17l24 78q6 16 21 16q4 0 8 -2l37 -10q20 -6 12 -29zM516 1536l88 170q10 18 35 18h125q23 0 6 -16l-143 -176q-12 -16 -39 -16h-60q-22 0 -12 20z" />
    <glyph glyph-name="oslashacute" unicode="&#x1ff;" 
d="M399 129l293 870h-282q-45 0 -74 -28.5t-29 -73.5v-668q0 -43 25.5 -69.5t66.5 -30.5zM768 997l-293 -870h283q45 0 73.5 28.5t28.5 73.5v668q0 43 -25.5 69.5t-66.5 30.5zM334 -66l20 62q-88 16 -139 80.5t-51 161.5v651q0 111 67.5 178.5t178.5 67.5h329l27 79
q4 14 18 15q4 0 7 -2l30 -8q16 -6 13 -27l-21 -62q88 -16 139.5 -80.5t51.5 -160.5v-651q0 -111 -68 -178.5t-178 -67.5h-330l-27 -80q-8 -14 -18 -14q-4 0 -6 2l-29 8q-18 6 -14 26zM516 1229l88 170q10 18 35 18h125q23 0 6 -16l-143 -176q-12 -16 -39 -17h-60
q-22 1 -12 21z" />
    <glyph glyph-name="uni0218" unicode="&#x218;" 
d="M176 1030v146q0 119 74 192.5t192 73.5h283q119 0 192.5 -74t73.5 -192v-136q0 -31 -30 -30h-89q-31 0 -30 30v144q0 49 -30 78.5t-79 29.5h-299q-49 0 -78.5 -29.5t-29.5 -78.5v-140q0 -57 49 -88l518 -340q47 -31 75.5 -84t28.5 -108v-168q0 -121 -72.5 -193.5
t-193.5 -72.5h-307q-121 0 -193.5 72.5t-72.5 193.5v135q0 31 30 31l91 2q31 0 30 -31v-143q0 -49 30 -79t79 -30h319q49 0 79 30t30 79v160q0 57 -47 90l-518 338q-105 67 -105 192zM510 -289l25 187q4 33 36 32h60q35 0 24 -32l-49 -187q-6 -25 -33 -24h-41q-26 -1 -22 24
z" />
    <glyph glyph-name="uni0219" unicode="&#x219;" 
d="M1004 344v-94q0 -117 -68 -187.5t-178 -70.5h-348q-111 0 -178.5 67.5t-67.5 178.5v86q0 31 31 30h81q31 0 31 -30v-74q0 -123 109 -123h336q109 0 108 133v70q0 70 -55 90l-502 186q-57 20 -93 78.5t-36 124.5v74q0 113 67.5 182.5t178.5 69.5h328q111 0 178 -68
t67 -178v-86q0 -31 -30 -31h-82q-31 0 -31 31v74q0 123 -109 122h-315q-109 0 -109 -131v-45q0 -70 56 -90l501 -186q59 -23 94.5 -80t35.5 -123zM510 -289l25 187q4 33 36 32h60q35 0 24 -32l-49 -187q-6 -25 -33 -24h-41q-26 -1 -22 24z" />
    <glyph glyph-name="uni021A" unicode="&#x21a;" 
d="M1065 1403v-88q0 -31 -31 -31h-375v-1253q0 -31 -30 -31h-90q-31 0 -31 31v1253h-375q-31 0 -31 31v88q0 31 31 31h901q31 0 31 -31zM492 -289l22 187q8 33 37 32h59q35 0 27 -32l-49 -187q-6 -25 -33 -24h-43q-24 -1 -20 24z" />
    <glyph glyph-name="uni021B" unicode="&#x21b;" 
d="M164 1020v76q0 31 31 30h225v174q0 31 31 31h81q31 0 31 -31v-174h383q31 0 31 -30v-76q0 -31 -31 -31h-383v-751q0 -45 27.5 -74t75.5 -29h280q31 0 31 -31v-75q0 -31 -31 -31h-280q-111 0 -178.5 67.5t-67.5 178.5v745h-225q-31 0 -31 31zM621 -289l22 187q8 33 37 32
h59q35 0 27 -32l-49 -187q-6 -25 -33 -24h-43q-24 -1 -20 24z" />
    <glyph glyph-name="uni0237" unicode="&#x237;" 
d="M332 1126h524q31 0 31 -30v-1123q0 -152 -121 -224.5t-311 -72.5q-20 0 -61.5 2.5t-101 8.5t-101 20t-41.5 35v76q0 23 30 22q2 0 9.5 -1t13.5 -1q123 -25 233 -24q129 0 218 41t89 133v1009h-411q-31 0 -31 31v68q0 30 31 30z" />
    <glyph glyph-name="uni0259" unicode="&#x259;" 
d="M410 127h348q45 0 73.5 28.5t28.5 73.5v263h-553v-263q0 -45 29 -73.5t74 -28.5zM195 629h665v266q0 47 -28.5 75.5t-73.5 28.5h-348q-45 0 -74 -28.5t-29 -73.5v-68q0 -31 -31 -30h-81q-31 0 -31 30v60q0 111 67.5 178.5t178.5 67.5h348q111 0 178.5 -68t67.5 -178v-651
q0 -111 -68 -178.5t-178 -67.5h-348q-111 0 -178.5 66.5t-67.5 177.5v362q0 31 31 31z" />
    <glyph glyph-name="circumflex" unicode="&#x2c6;" 
d="M659 1608l117 -156q12 -18 -8 -18h-78q-25 0 -39 20l-67 94l-72 -96q-14 -18 -37 -18h-76q-20 0 -8 18l117 156q14 18 39 18h74q24 0 38 -18z" />
    <glyph glyph-name="caron" unicode="&#x2c7;" 
d="M776 1608l-117 -156q-14 -18 -38 -18h-74q-25 0 -39 18l-117 156q-12 18 8 18h76q23 0 37 -18l72 -97l67 95q14 20 39 20h78q20 0 8 -18z" />
    <glyph glyph-name="breve" unicode="&#x2d8;" 
d="M766 1589v-18q-2 -63 -42 -103.5t-106 -40.5h-67q-63 0 -104 39t-46 105v18q-4 25 23 25h47q23 0 27 -25l4 -30q4 -39 43 -39h78q39 0 43 39l4 30q4 25 28 25h45q27 0 23 -25z" />
    <glyph glyph-name="dotaccent" unicode="&#x2d9;" 
d="M498 1489v67q0 49 49 50h74q49 0 49 -50v-67q0 -23 -13.5 -36t-35.5 -13h-74q-23 0 -36 13t-13 36z" />
    <glyph glyph-name="ring" unicode="&#x2da;" 
d="M440 1560.5q0 59.5 42 101.5t101.5 42t101.5 -42t42 -101.5t-42 -101.5t-101.5 -42t-101.5 42t-42 101.5zM516 1561q0 -29 20.5 -48.5t47 -19.5t47 19.5t20.5 48.5q0 27 -20.5 46t-47 19t-47 -19t-20.5 -46z" />
    <glyph glyph-name="ogonek" unicode="&#x2db;" 
d="M526 10h86q-66 -86 -75 -151q-4 -35 26 -35h84q23 0 23 -25v-32q0 -25 -23 -25h-110q-39 0 -62.5 23.5t-23.5 62.5q-1 100 75 182z" />
    <glyph glyph-name="tilde" unicode="&#x2dc;" 
d="M354 1462v62q0 37 49.5 57.5t92.5 20.5q39 0 67 -15l72 -35q18 -6 39 -6q59 0 119 39q4 4 10 4q10 0 10 -14v-59q0 -37 -48 -56.5t-91 -19.5q-39 0 -70 14l-72 33q-14 8 -36 8q-66 0 -121 -41q-6 -6 -10 -6q-11 0 -11 14z" />
    <glyph glyph-name="hungarumlaut" unicode="&#x2dd;" 
d="M569 1446l93 153q14 20 36 21h105q27 0 8 -18l-131 -156q-16 -18 -39 -19h-59q-23 1 -13 19zM354 1448l86 151q14 20 35 21h107q23 0 8 -18l-125 -156q-14 -18 -39 -19h-59q-23 1 -13 21z" />
    <glyph glyph-name="uni0400" unicode="&#x400;" 
d="M164 31v1372q0 31 31 31h778q31 0 31 -31v-88q0 -31 -31 -31h-660v-549h482q31 0 30 -30v-89q0 -31 -30 -30h-482v-436h660q31 0 31 -31v-88q0 -31 -31 -31h-778q-31 0 -31 31zM553 1706l88 -170q10 -20 -12 -20h-60q-27 0 -39 16l-143 176q-16 16 6 16h127q25 0 33 -18z
" />
    <glyph glyph-name="uni0401" unicode="&#x401;" 
d="M164 31v1372q0 31 31 31h778q31 0 31 -31v-88q0 -31 -31 -31h-660v-549h482q31 0 30 -30v-89q0 -31 -30 -30h-482v-436h660q31 0 31 -31v-88q0 -31 -31 -31h-778q-31 0 -31 31zM668 1579v53q0 23 14 36t35 13h53q49 0 49 -49v-53q0 -49 -49 -49h-53q-49 0 -49 49z
M328 1579v53q0 49 51 49h51q23 0 37 -13t14 -36v-53q0 -49 -51 -49h-51q-51 0 -51 49z" />
    <glyph glyph-name="uni0402" unicode="&#x402;" 
d="M809 -6h-92q-31 0 -31 31v88q0 31 31 30h98q49 0 80 30t31 79v330q0 49 -31 78.5t-80 29.5h-276v-659q0 -31 -31 -31h-88q-31 0 -31 31v1253h-256q-31 0 -31 31v88q0 31 31 31h662q31 0 30 -31v-88q0 -31 -30 -31h-256v-442h270q121 0 193.5 -73t72.5 -194v-315
q0 -121 -72.5 -193.5t-193.5 -72.5z" />
    <glyph glyph-name="uni0403" unicode="&#x403;" 
d="M283 1434h682q31 0 30 -31v-88q0 -31 -30 -31h-564v-1253q0 -31 -30 -31h-88q-31 0 -31 31v1372q0 31 31 31zM555 1536l86 170q12 18 35 18h127q18 0 6 -16l-143 -176q-16 -16 -41 -16h-58q-22 0 -12 20z" />
    <glyph glyph-name="uni0404" unicode="&#x404;" 
d="M1004 1040q0 -31 -31 -30h-88q-31 0 -31 30v144q0 49 -30.5 78.5t-80.5 29.5h-319q-49 0 -80 -29.5t-31 -78.5v-396h408q31 0 31 -30v-82q0 -31 -31 -31h-408v-395q0 -49 31 -79t80 -30h319q49 0 80 30t31 79v143q0 31 31 31h88q31 0 31 -31v-135q0 -119 -74 -192.5
t-193 -73.5h-307q-119 0 -192.5 73.5t-73.5 192.5v918q0 119 73.5 192.5t192.5 73.5h307q119 0 193 -74t74 -192v-136z" />
    <glyph glyph-name="uni0405" unicode="&#x405;" 
d="M176 1030v146q0 119 74 192.5t192 73.5h283q119 0 192.5 -74t73.5 -192v-136q0 -31 -30 -30h-89q-31 0 -30 30v144q0 49 -30 78.5t-79 29.5h-299q-49 0 -78.5 -29.5t-29.5 -78.5v-140q0 -57 49 -88l518 -340q47 -31 75.5 -84t28.5 -108v-168q0 -121 -72.5 -193.5
t-193.5 -72.5h-307q-121 0 -193.5 72.5t-72.5 193.5v135q0 31 30 31l91 2q31 0 30 -31v-143q0 -49 30 -79t79 -30h319q49 0 79 30t30 79v160q0 57 -47 90l-518 338q-105 67 -105 192z" />
    <glyph glyph-name="uni0406" unicode="&#x406;" 
d="M168 31v82q0 31 31 30h309v1147h-309q-31 0 -31 31v82q0 31 31 31h770q31 0 30 -31v-82q0 -31 -30 -31h-310v-1147h310q31 0 30 -30v-82q0 -31 -30 -31h-770q-31 0 -31 31z" />
    <glyph glyph-name="uni0407" unicode="&#x407;" 
d="M168 31v82q0 31 31 30h309v1147h-309q-31 0 -31 31v82q0 31 31 31h770q31 0 30 -31v-82q0 -31 -30 -31h-310v-1147h310q31 0 30 -30v-82q0 -31 -30 -31h-770q-31 0 -31 31zM338 1579v53q0 49 51 49h51q23 0 37.5 -13t14.5 -36v-53q0 -49 -52 -49h-51q-51 0 -51 49z
M678 1579v53q0 23 13.5 36t35.5 13h53q49 0 49 -49v-53q0 -49 -49 -49h-53q-49 0 -49 49z" />
    <glyph glyph-name="uni0408" unicode="&#x408;" 
d="M438 1321v82q0 31 31 31h483q31 0 31 -31v-1145q0 -119 -73.5 -192.5t-192.5 -73.5h-289q-121 0 -193.5 73.5t-72.5 192.5v86q0 31 31 31h88q31 0 30 -31v-94q0 -49 30 -79t79 -30h305q49 0 79 30t30 79v1040h-365q-31 0 -31 31z" />
    <glyph glyph-name="uni0409" unicode="&#x409;" 
d="M881 698h-154v-548h154q49 0 78.5 30.5t29.5 79.5v330q0 49 -29.5 78.5t-78.5 29.5zM727 1403v-555h147q121 0 194 -74t73 -192v-316q0 -119 -73 -192.5t-194 -73.5h-266q-31 0 -30 31v1253h-185l-69 -1046q-6 -115 -61.5 -180.5t-160.5 -65.5h-49q-33 0 -33 31v81
q0 31 33 31h21q94 0 100 123l76 1145q4 31 31 31h415q31 0 31 -31z" />
    <glyph glyph-name="uni040A" unicode="&#x40a;" 
d="M885 664h-189v-514h189q51 0 80.5 30.5t29.5 79.5v295q0 49 -29.5 79t-80.5 30zM696 1403v-588h185q119 0 191.5 -73.5t72.5 -192.5v-283q0 -119 -73 -192.5t-191 -73.5h-303q-33 0 -33 31v633h-352v-633q0 -31 -31 -31h-90q-31 0 -31 31v1372q0 31 31 31h90q31 0 31 -31
v-588h352v588q0 31 33 31h88q30 0 30 -31z" />
    <glyph glyph-name="uni040B" unicode="&#x40b;" 
d="M926 31v551q0 49 -31 78.5t-80 29.5h-276v-659q0 -31 -31 -31h-88q-31 0 -31 31v1253h-254q-33 0 -33 31v88q0 31 31 31h662q31 0 30 -31v-88q0 -31 -30 -31h-256v-442h270q121 0 193.5 -73t72.5 -194v-544q0 -31 -31 -31h-88q-30 0 -30 31z" />
    <glyph glyph-name="uni040C" unicode="&#x40c;" 
d="M315 670v-639q0 -31 -30 -31h-90q-31 0 -31 31v1372q0 31 31 31h90q31 0 30 -31v-590h217l347 594q14 27 45 27h112q31 0 15 -27l-392 -666l426 -714q16 -27 -14 -27h-113q-31 0 -47 27l-379 643h-217zM512 1536l86 170q12 18 35 18h127q18 0 6 -16l-143 -176
q-16 -16 -41 -16h-58q-22 0 -12 20z" />
    <glyph glyph-name="uni040D" unicode="&#x40d;" 
d="M195 1434h90q31 0 30 -31v-1000q0 -25 -14 -86l6 -2q12 49 29 84l530 1008q14 27 45 27h62q31 0 31 -31v-1372q0 -31 -31 -31h-90q-31 0 -31 31v1005q0 25 14 86l-6 2q-12 -49 -29 -84l-530 -1013q-14 -27 -45 -27h-61q-31 0 -31 31v1372q0 31 31 31zM563 1706l88 -170
q10 -20 -12 -20h-59q-27 0 -39 16l-144 176q-16 16 6 16h127q23 0 33 -18z" />
    <glyph glyph-name="uni040E" unicode="&#x40e;" 
d="M635 551l274 852q4 31 33 31h98q29 0 29 -31l-381 -1165q-20 -59 -28.5 -82t-28 -64t-39 -56.5t-52 -29.5t-73.5 -14h-129q-33 0 -33 31v81q0 31 33 31h98q25 0 41.5 7.5t28.5 30t15 33.5t16 52l6 25l-441 1122q-10 29 23 29h98q29 0 39 -29l342 -854q14 -35 14 -86h7
q0 55 10 86zM446 1722q23 0 27 -22l6 -51q0 -18 12.5 -29.5t28.5 -11.5h144q43 0 43 41l6 51q0 23 24 22h62q23 0 22 -22v-47q-2 -63 -43 -103.5t-104 -40.5h-162q-63 0 -103 39t-44 105l-3 47q0 23 23 22h61z" />
    <glyph glyph-name="uni040F" unicode="&#x40f;" 
d="M973 0h-314v-236q0 -31 -30 -30h-88q-31 0 -31 30v236h-315q-31 0 -31 31v1372q0 31 31 31h88q31 0 30 -31v-1253h541v1253q0 31 31 31h88q31 0 31 -33v-1370q0 -31 -31 -31z" />
    <glyph glyph-name="uni0410" unicode="&#x410;" 
d="M371 412h426l-201 665q-8 25 -8 86h-8q0 -61 -9 -86zM842 262h-516l-70 -233q-10 -29 -39 -29h-94q-29 0 -23 29l414 1376q6 29 39 29h61q33 0 39 -29l414 -1376q6 -29 -23 -29h-92q-31 0 -41 29z" />
    <glyph glyph-name="uni0411" unicode="&#x411;" 
d="M313 698v-548h435q49 0 78.5 30.5t29.5 79.5v330q0 49 -29.5 78.5t-78.5 29.5h-435zM195 1434h692q31 0 31 -31v-88q0 -31 -31 -31h-574v-436h428q119 0 193 -74t74 -192v-316q0 -119 -74 -192.5t-193 -73.5h-546q-31 0 -31 31v1372q0 31 31 31z" />
    <glyph glyph-name="uni0412" unicode="&#x412;" 
d="M887 260v291q0 49 -31 80t-78 31h-465v-512h463q49 0 80 30.5t31 79.5zM735 1284h-422v-475h422q49 0 80 30.5t31 80.5v254q0 49 -31 79.5t-80 30.5zM1036 510v-244q0 -119 -73.5 -192.5t-192.5 -73.5h-575q-31 0 -31 31v1372q0 31 31 31h534q119 0 192.5 -74t73.5 -193
v-206q0 -141 -98 -213q139 -66 139 -238z" />
    <glyph glyph-name="uni0413" unicode="&#x413;" 
d="M283 1434h682q31 0 30 -31v-88q0 -31 -30 -31h-564v-1253q0 -31 -30 -31h-88q-31 0 -31 31v1372q0 31 31 31z" />
    <glyph glyph-name="uni0414" unicode="&#x414;" 
d="M326 150h522v1134h-416l-67 -997q-2 -78 -39 -137zM33 -236v355q0 31 22 31h88q63 16 70 120l78 1133q0 31 31 31h645q31 0 30 -31v-1253h107q31 0 31 -31v-355q0 -31 -31 -30h-90q-31 0 -31 30v236h-799v-236q0 -31 -30 -30h-91q-30 -1 -30 30z" />
    <glyph glyph-name="uni0415" unicode="&#x415;" 
d="M164 31v1372q0 31 31 31h778q31 0 31 -31v-88q0 -31 -31 -31h-660v-549h482q31 0 30 -30v-89q0 -31 -30 -30h-482v-436h660q31 0 31 -31v-88q0 -31 -31 -31h-778q-31 0 -31 31z" />
    <glyph glyph-name="uni0416" unicode="&#x416;" 
d="M508 674h-37l-272 -645q-14 -29 -43 -29h-101q-29 0 -18 29l301 712l-275 664q-10 29 21 29h98q33 0 43 -29l244 -588h39v586q0 31 31 31h90q31 0 30 -31v-586h41l242 588q14 29 43 29h98q31 0 21 -29l-275 -664l301 -712q14 -29 -18 -29h-100q-31 0 -41 29l-275 645h-37
v-643q0 -31 -30 -31h-90q-31 0 -31 31v643z" />
    <glyph glyph-name="uni0417" unicode="&#x417;" 
d="M197 426h88q31 0 30 -31v-143q0 -49 31 -79t80 -30h315q49 0 80 30t29 79v305q0 49 -29.5 79t-77.5 30h-282q-31 0 -31 30v88q0 31 31 31h272q49 0 80 29.5t31 79.5v258q0 49 -31 78.5t-80 29.5h-297q-49 0 -79.5 -29.5t-30.5 -78.5v-144q0 -31 -31 -30h-88q-31 0 -31 30
v136q0 121 74 193.5t192 72.5h285q119 0 192.5 -73t73.5 -191v-211q0 -150 -112 -224q121 -68 120 -227v-256q0 -119 -73.5 -191.5t-192.5 -72.5h-303q-121 0 -193.5 72.5t-72.5 193.5v135q0 31 31 31z" />
    <glyph glyph-name="uni0418" unicode="&#x418;" 
d="M195 1434h90q31 0 30 -31v-1000q0 -25 -14 -86l6 -2q12 49 29 84l530 1008q14 27 45 27h62q31 0 31 -31v-1372q0 -31 -31 -31h-90q-31 0 -31 31v1005q0 25 14 86l-6 2q-12 -49 -29 -84l-530 -1013q-14 -27 -45 -27h-61q-31 0 -31 31v1372q0 31 31 31z" />
    <glyph glyph-name="uni0419" unicode="&#x419;" 
d="M195 1434h90q31 0 30 -31v-1000q0 -25 -14 -86l6 -2q12 49 29 84l530 1008q14 27 45 27h62q31 0 31 -31v-1372q0 -31 -31 -31h-90q-31 0 -31 31v1005q0 25 14 86l-6 2q-12 -49 -29 -84l-530 -1013q-14 -27 -45 -27h-61q-31 0 -31 31v1372q0 31 31 31zM391 1722h62
q23 0 26 -22l4 -51q4 -41 41 -41h146q39 0 43 41l6 51q0 23 26 22h60q23 0 22 -22l-2 -47q-4 -66 -44 -105t-103 -39h-162q-63 0 -103 39t-44 105v47q-1 22 22 22z" />
    <glyph glyph-name="uni041A" unicode="&#x41a;" 
d="M315 670v-639q0 -31 -30 -31h-90q-31 0 -31 31v1372q0 31 31 31h90q31 0 30 -31v-590h217l347 594q14 27 45 27h112q31 0 15 -27l-392 -666l426 -714q16 -27 -14 -27h-113q-31 0 -47 27l-379 643h-217z" />
    <glyph glyph-name="uni041B" unicode="&#x41b;" 
d="M971 0h-88q-29 0 -29 31v1253h-408l-69 -1046q-16 -246 -221 -246h-84q-31 0 -31 31v81q0 31 31 31h55q90 0 100 123l76 1145q4 31 31 31h637q33 0 33 -31v-1372q0 -31 -33 -31z" />
    <glyph glyph-name="uni041C" unicode="&#x41c;" 
d="M281 1014v-983q0 -31 -31 -31h-82q-31 0 -31 31v1372q0 31 31 31h102q33 0 39 -29l260 -748q10 -31 11 -86h8q0 55 10 86l260 748q6 29 39 29h102q31 0 31 -31v-1372q0 -31 -31 -31h-81q-31 0 -31 31v983q0 8 12 88h-8q-12 -70 -19 -86l-231 -656q-6 -31 -39 -30h-35
q-31 0 -41 30l-231 656q-8 20 -19 86l-8 -2q13 -74 13 -86z" />
    <glyph glyph-name="uni041D" unicode="&#x41d;" 
d="M164 31v1372q0 31 31 31h88q31 0 30 -31v-668h541v668q0 31 31 31h88q31 0 31 -31v-1372q0 -31 -31 -31h-88q-31 0 -31 31v555h-541v-555q0 -31 -30 -31h-88q-31 0 -31 31z" />
    <glyph glyph-name="uni041E" unicode="&#x41e;" 
d="M307 1184v-934q0 -49 30 -79t79 -30h336q49 0 78.5 30t29.5 79v934q0 49 -29.5 78.5t-78.5 29.5h-336q-49 0 -79 -29.5t-30 -78.5zM158 258v918q0 119 72.5 192.5t193.5 73.5h319q121 0 194 -74t73 -192v-918q0 -119 -73 -192.5t-194 -73.5h-319q-121 0 -193.5 73.5
t-72.5 192.5z" />
    <glyph glyph-name="uni041F" unicode="&#x41f;" 
d="M164 31v1372q0 31 31 31h778q31 0 31 -31v-1372q0 -31 -31 -31h-88q-31 0 -31 31v1253h-541v-1253q0 -31 -30 -31h-88q-31 0 -31 31z" />
    <glyph glyph-name="uni0420" unicode="&#x420;" 
d="M748 1284h-435v-569h435q49 0 78.5 29.5t29.5 78.5v351q0 49 -29.5 79.5t-78.5 30.5zM739 565h-426v-534q0 -31 -30 -31h-90q-29 0 -29 31v1372q0 31 29 31h546q121 0 194 -74t73 -193v-336q0 -119 -73 -192.5t-194 -73.5z" />
    <glyph glyph-name="uni0421" unicode="&#x421;" 
d="M885 424h88q31 0 31 -31v-135q0 -119 -74 -192.5t-193 -73.5h-307q-119 0 -192.5 73.5t-73.5 192.5v918q0 119 73.5 192.5t192.5 73.5h307q119 0 193 -74t74 -192v-136q0 -31 -31 -30h-88q-31 0 -31 30v144q0 49 -30.5 78.5t-80.5 29.5h-319q-49 0 -80 -29.5t-31 -78.5
v-934q0 -49 31 -79t80 -30h319q49 0 80 30t31 79v143q0 31 31 31z" />
    <glyph glyph-name="uni0422" unicode="&#x422;" 
d="M1065 1403v-88q0 -31 -31 -31h-375v-1253q0 -31 -30 -31h-90q-31 0 -31 31v1253h-375q-31 0 -31 31v88q0 31 31 31h901q31 0 31 -31z" />
    <glyph glyph-name="uni0423" unicode="&#x423;" 
d="M635 551l274 852q4 31 33 31h98q29 0 29 -31l-381 -1165q-20 -59 -28.5 -82t-28 -64t-39 -56.5t-52 -29.5t-73.5 -14h-129q-33 0 -33 31v81q0 31 33 31h98q25 0 41.5 7.5t28.5 30t15 33.5t16 52l6 25l-441 1122q-10 29 23 29h98q29 0 39 -29l342 -854q10 -23 14 -86h9
q-4 49 8 86z" />
    <glyph glyph-name="uni0424" unicode="&#x424;" 
d="M508 285v864h-166q-49 0 -80 -29.5t-31 -79.5v-647q0 -49 31 -78.5t80 -29.5h166zM659 1149v-864h166q49 0 80 29.5t31 78.5v647q0 49 -31 79t-80 30h-166zM539 1442h90q31 0 30 -31v-113h160q119 0 192.5 -73.5t73.5 -192.5v-631q0 -119 -73.5 -192.5t-192.5 -73.5h-160
v-112q0 -31 -30 -31h-90q-31 0 -31 31v112h-160q-119 0 -192.5 74t-73.5 192v631q0 119 73.5 192.5t192.5 73.5h160v113q0 31 31 31z" />
    <glyph glyph-name="uni0425" unicode="&#x425;" 
d="M918 1434h108q31 0 16 -27l-364 -659l391 -721q12 -27 -16 -27h-107q-33 0 -45 27l-297 542q-16 31 -16 84h-8q0 -53 -17 -84l-297 -542q-12 -27 -45 -27h-106q-33 0 -19 27l391 721l-362 659q-16 27 16 27h107q31 0 45 -27l270 -479q16 -33 17 -84h8q0 51 16 84l268 479
q13 27 46 27z" />
    <glyph glyph-name="uni0426" unicode="&#x426;" 
d="M313 1403v-1253h510v1253q0 31 31 31h88q31 0 31 -33v-1251h112q31 0 31 -31v-355q0 -31 -31 -30h-88q-31 0 -30 30v236h-772q-31 0 -31 31v1372q0 31 31 31h88q30 0 30 -31z" />
    <glyph glyph-name="uni0427" unicode="&#x427;" 
d="M973 0h-88q-31 0 -31 31v561h-444q-119 0 -193 72.5t-74 193.5v545q0 31 31 31h88q31 0 31 -31v-551q0 -49 30.5 -79t79.5 -30h451v660q0 31 31 31h88q31 0 31 -31v-1372q0 -31 -31 -31z" />
    <glyph glyph-name="uni0428" unicode="&#x428;" 
d="M231 1403v-1253h277v1253q0 31 31 31h90q31 0 30 -33v-1251h277v1253q0 31 31 31h88q31 0 30 -33v-1370q0 -31 -30 -31h-942q-31 0 -31 31v1372q0 31 31 31h88q30 0 30 -31z" />
    <glyph glyph-name="uni0429" unicode="&#x429;" 
d="M76 31v1372q0 31 30 31h89q31 0 30 -31v-1253h246v1253q0 31 31 31h88q31 0 31 -33v-1251h245v1253q0 31 31 31h90q31 0 31 -33v-1251h94q31 0 31 -31v-355q0 -31 -31 -30h-88q-31 0 -31 30v236h-887q-30 0 -30 31z" />
    <glyph glyph-name="uni042A" unicode="&#x42a;" 
d="M516 698v-548h254q49 0 80 30.5t31 79.5v330q0 49 -31 78.5t-80 29.5h-254zM68 1315v88q0 31 30 31h387q31 0 31 -31v-555h248q121 0 193.5 -74t72.5 -192v-316q0 -119 -72.5 -192.5t-193.5 -73.5h-369q-31 0 -30 31v1253h-267q-30 0 -30 31z" />
    <glyph glyph-name="uni042B" unicode="&#x42b;" 
d="M236 698v-548h268q47 0 77.5 30.5t30.5 79.5v330q0 49 -30.5 78.5t-77.5 29.5h-268zM236 1403v-555h262q121 0 193.5 -74t72.5 -192v-316q0 -119 -73 -192.5t-193 -73.5h-381q-31 0 -31 31v1372q0 31 31 31h88q31 0 31 -31zM1079 1403v-1372q0 -31 -28 -31h-90
q-31 0 -31 31v1372q0 31 31 31h90q28 0 28 -31z" />
    <glyph glyph-name="uni042C" unicode="&#x42c;" 
d="M313 698v-548h443q49 0 79.5 30.5t30.5 79.5v330q0 49 -30.5 78.5t-79.5 29.5h-443zM313 1403v-555h439q121 0 193.5 -74t72.5 -192v-316q0 -119 -73 -192.5t-193 -73.5h-557q-31 0 -31 31v1372q0 31 31 31h88q30 0 30 -31z" />
    <glyph glyph-name="uni042D" unicode="&#x42d;" 
d="M164 1040v136q0 119 73.5 192.5t192.5 73.5h307q119 0 193 -74t74 -192v-918q0 -119 -74 -192.5t-193 -73.5h-307q-119 0 -192.5 73.5t-73.5 192.5v135q0 31 31 31h88q31 0 30 -31v-143q0 -49 31 -79t80 -30h319q49 0 80 30t31 79v395h-381q-31 0 -31 31v82q0 31 31 30
h381v396q0 49 -30.5 78.5t-80.5 29.5h-319q-49 0 -80 -29.5t-31 -78.5v-144q0 -31 -30 -30h-88q-31 -1 -31 30z" />
    <glyph glyph-name="uni042E" unicode="&#x42e;" 
d="M580 1184v-934q0 -49 30.5 -79t79.5 -30h135q49 0 80 30t31 79v934q0 49 -31 78.5t-80 29.5h-135q-49 0 -79.5 -29.5t-30.5 -78.5zM430 258v328h-199v-555q0 -31 -30 -31h-88q-31 0 -31 31v1372q0 31 31 31h88q31 0 30 -31v-668h199v441q0 119 74 192.5t192 73.5h123
q121 0 193.5 -73t72.5 -193v-918q0 -121 -72.5 -193.5t-193.5 -72.5h-123q-119 0 -192.5 73.5t-73.5 192.5z" />
    <glyph glyph-name="uni042F" unicode="&#x42f;" 
d="M854 735v549h-451q-49 0 -78.5 -30.5t-29.5 -79.5v-330q0 -49 29.5 -79t78.5 -30h451zM580 586l-287 -557q-16 -29 -39 -29h-104q-33 0 -23 29l285 557q-121 0 -194 73.5t-73 192.5v315q0 119 73 193t194 74h561q31 0 31 -31v-1372q0 -31 -31 -31h-88q-31 0 -31 31v555
h-274z" />
    <glyph glyph-name="uni0430" unicode="&#x430;" 
d="M840 250v268q-193 37 -308 37q-102 0 -160.5 -45t-58.5 -119v-125q0 -66 46.5 -106.5t121.5 -40.5q138 0 359 131zM170 268v121q0 131 100.5 210t266.5 79q55 0 303 -29v228q0 123 -109 122h-270q-109 0 -109 -122v-41q0 -31 -30 -31h-82q-31 0 -31 31v53
q0 111 67.5 178.5t178.5 67.5h282q111 0 178.5 -68t67.5 -178v-858q0 -31 -31 -31h-82q-31 0 -30 31v67q-213 -115 -371 -114q-133 0 -216 78.5t-83 205.5z" />
    <glyph glyph-name="uni0431" unicode="&#x431;" 
d="M307 840v-594q0 -53 29 -86t82 -33h332q53 0 80.5 33t27.5 90v596q0 51 -44 80.5t-99 29.5q-119 1 -408 -116zM727 1092q115 0 194.5 -69t79.5 -175v-610q0 -111 -68.5 -178.5t-178.5 -67.5h-342q-113 0 -180.5 65.5t-67.5 173.5v867q0 131 74.5 200.5t259.5 100.5
q233 35 381 49h16q41 0 41 -27v-78q0 -29 -70 -36q-125 -12 -360 -45q-113 -14 -156 -52.5t-43 -111.5v-109q283 103 420 103z" />
    <glyph glyph-name="uni0432" unicode="&#x432;" 
d="M758 512h-451v-375h451q55 0 85.5 32t30.5 87v133q0 55 -30.5 89t-85.5 34zM715 989h-408v-340h408q55 0 84.5 34t29.5 89v102q0 53 -29.5 84t-84.5 31zM879 592q139 -57 139 -223v-129q0 -109 -67.5 -174.5t-178.5 -65.5h-577q-31 0 -31 31v1065q0 31 31 30h532
q111 0 178.5 -65.5t67.5 -171.5v-96q0 -133 -94 -201z" />
    <glyph glyph-name="uni0433" unicode="&#x433;" 
d="M936 989h-526v-958q0 -31 -31 -31h-82q-31 0 -31 31v1065q0 31 31 30h639q31 0 31 -30v-76q0 -31 -31 -31z" />
    <glyph glyph-name="uni0434" unicode="&#x434;" 
d="M340 137h491v852h-411l-51 -745q-2 -62 -29 -107zM88 137h92q41 33 47 121l56 838q4 31 30 30h631q31 0 31 -30v-959h106q31 0 31 -31v-327q0 -31 -31 -31h-82q-31 0 -30 31v221h-768v-221q0 -31 -31 -31h-82q-31 0 -31 31v327q0 31 31 31z" />
    <glyph glyph-name="uni0435" unicode="&#x435;" 
d="M758 999h-348q-45 0 -74 -28.5t-29 -73.5v-262h553v262q0 45 -28.5 73.5t-73.5 28.5zM973 498h-666v-267q0 -47 29 -75.5t74 -28.5h348q45 0 73.5 28.5t28.5 73.5v68q0 31 31 31h82q31 0 31 -31v-59q0 -111 -68 -178.5t-178 -67.5h-348q-111 0 -178.5 67.5t-67.5 178.5
v651q0 111 67.5 178.5t178.5 67.5h348q111 0 178.5 -67t67.5 -177v-363q0 -30 -31 -30z" />
    <glyph glyph-name="uni0436" unicode="&#x436;" 
d="M512 506h-51l-260 -479q-12 -27 -45 -27h-95q-33 0 -18 27l303 548l-285 525q-12 27 19 26h94q31 0 43 -26l246 -457h49v453q0 31 31 30h82q31 0 30 -30v-453h52l243 457q12 27 43 26h94q31 0 19 -26l-285 -525l303 -548q14 -27 -18 -27h-94q-33 0 -45 27l-260 479h-52
v-475q0 -31 -30 -31h-82q-31 0 -31 31v475z" />
    <glyph glyph-name="uni0437" unicode="&#x437;" 
d="M487 651h246q55 0 89 34t34 89v109q0 51 -34 82.5t-89 31.5h-284q-55 0 -89 -33.5t-34 -89.5v-73q0 -31 -31 -31h-82q-31 0 -31 31v86q0 111 67.5 178.5t178.5 67.5h326q111 0 178 -64.5t67 -171.5v-100q0 -141 -106 -209q125 -59 125 -217v-138q0 -109 -67.5 -174
t-178.5 -65h-354q-111 0 -178.5 67.5t-67.5 178.5v86q0 31 31 30h82q31 0 30 -30v-74q0 -55 34 -89t89 -34h314q55 0 88.5 33t33.5 86v145q0 55 -33.5 89t-88.5 34h-265q-31 0 -30 31v74q-1 30 30 30z" />
    <glyph glyph-name="uni0438" unicode="&#x438;" 
d="M258 0h-63q-31 0 -31 31v1065q0 31 31 30h81q31 0 31 -30v-793q0 -14 -16 -86l6 -2q20 61 35 80l528 805q16 27 49 26h64q31 0 31 -30v-1065q0 -31 -31 -31h-82q-31 0 -31 31v790q0 14 17 86l-7 2q-20 -61 -34 -80l-529 -802q-16 -27 -49 -27z" />
    <glyph glyph-name="uni0439" unicode="&#x439;" 
d="M258 0h-63q-31 0 -31 31v1065q0 31 31 30h81q31 0 31 -30v-793q0 -33 -16 -86l6 -2q18 59 35 80l528 805q16 27 49 26h64q31 0 31 -30v-1065q0 -31 -31 -31h-82q-31 0 -31 31v790q0 33 17 86l-7 2q-18 -59 -34 -80l-529 -802q-16 -27 -49 -27zM819 1413v-47
q-4 -66 -44 -104.5t-103 -38.5h-174q-66 0 -106 40t-42 103l-2 47q-4 23 23 23h59q27 0 27 -23l6 -51q4 -41 43 -41h158q16 0 28.5 11t12.5 30l6 51q4 23 26 23h60q26 0 22 -23z" />
    <glyph glyph-name="uni043A" unicode="&#x43a;" 
d="M514 506h-207v-475q0 -31 -31 -31h-81q-31 0 -31 31v1065q0 31 31 30h81q31 0 31 -30v-453h205l340 457q18 27 37 26h108q14 0 21.5 -8t-0.5 -18l-387 -525l411 -548q8 -10 2 -18.5t-20 -8.5h-111q-18 0 -36 27z" />
    <glyph glyph-name="uni043B" unicode="&#x43b;" 
d="M860 989h-403l-51 -751q-16 -246 -222 -246h-63q-31 0 -31 31v73q0 31 31 31h43q90 0 100 123l55 846q4 31 31 30h623q31 0 31 -30v-1065q0 -31 -31 -31h-82q-31 0 -31 31v958z" />
    <glyph glyph-name="uni043C" unicode="&#x43c;" 
d="M901 1126h109q31 0 30 -30v-1065q0 -31 -30 -31h-82q-31 0 -31 31v774q0 8 12 88h-8q-10 -57 -20 -86l-244 -578q-10 -29 -43 -28h-21q-33 0 -43 28l-245 580q-6 14 -15 49l-6 35h-8q12 -53 12 -88v-774q0 -31 -30 -31h-82q-31 0 -31 31v1065q0 31 31 30h110q31 0 41 -28
l260 -617q12 -29 13 -86h8q0 57 12 86l258 617q14 28 43 28z" />
    <glyph glyph-name="uni043D" unicode="&#x43d;" 
d="M860 506h-553v-475q0 -31 -31 -31h-81q-31 0 -31 31v1065q0 31 31 30h81q31 0 31 -30v-455h553v455q0 31 31 30h82q31 0 31 -30v-1065q0 -31 -31 -31h-82q-31 0 -31 31v475z" />
    <glyph glyph-name="uni043E" unicode="&#x43e;" 
d="M307 897v-668q0 -45 29 -73.5t74 -28.5h348q45 0 73.5 28.5t28.5 73.5v668q0 45 -28.5 73.5t-73.5 28.5h-348q-45 0 -74 -28.5t-29 -73.5zM164 238v651q0 111 67.5 178.5t178.5 67.5h348q111 0 178.5 -68t67.5 -178v-651q0 -111 -68 -178.5t-178 -67.5h-348
q-111 0 -178.5 67.5t-67.5 178.5z" />
    <glyph glyph-name="uni043F" unicode="&#x43f;" 
d="M973 0h-82q-31 0 -31 31v958h-553v-958q0 -31 -31 -31h-81q-31 0 -31 31v1065q0 31 31 30h778q31 0 31 -30v-1065q0 -31 -31 -31z" />
    <glyph glyph-name="uni0440" unicode="&#x440;" 
d="M307 879v-631q244 -129 385 -129q76 0 122 41t46 106v592q0 68 -46 109t-122 41q-141 0 -385 -129zM276 -307h-81q-31 0 -31 31v1372q0 31 31 30h81q31 0 31 -30v-66q225 113 398 113q135 0 217 -77t82 -204v-600q0 -125 -82 -201.5t-215 -76.5q-174 0 -400 112v-372
q0 -31 -31 -31z" />
    <glyph glyph-name="uni0441" unicode="&#x441;" 
d="M410 127h348q45 0 73.5 28.5t28.5 73.5v95q0 31 31 30h82q31 0 31 -30v-86q0 -111 -68 -178.5t-178 -67.5h-348q-111 0 -178.5 67.5t-67.5 178.5v651q0 111 67.5 178.5t178.5 67.5h348q111 0 178.5 -68t67.5 -178v-86q0 -31 -31 -31h-82q-31 0 -31 31v94q0 45 -28.5 73.5
t-73.5 28.5h-348q-45 0 -74 -28.5t-29 -73.5v-668q0 -45 29 -73.5t74 -28.5z" />
    <glyph glyph-name="uni0442" unicode="&#x442;" 
d="M512 31v958h-385q-31 0 -31 31v76q0 31 31 30h915q31 0 31 -30v-76q0 -31 -31 -31h-387v-958q0 -31 -30 -31h-82q-31 0 -31 31z" />
    <glyph glyph-name="uni0443" unicode="&#x443;" 
d="M397 -279l115 281l-418 1096q-10 29 21 28h94q31 0 41 -28l317 -844q10 -33 11 -90h8q0 57 10 90l319 844q10 29 41 28h97q29 0 20 -28l-526 -1377q-10 -29 -41 -28h-90q-33 -1 -19 28z" />
    <glyph glyph-name="uni0444" unicode="&#x444;" 
d="M336 119q66 0 176 84v721q-111 84 -176 84q-43 0 -75 -30t-32 -81v-668q0 -53 32 -81.5t75 -28.5zM940 229v668q0 51 -31.5 81t-74.5 30q-59 0 -179 -84v-721q119 -84 179 -84q43 0 74.5 28.5t31.5 81.5zM655 63v-339q0 -31 -30 -31h-82q-31 0 -31 31v339
q-123 -80 -213 -79.5t-151.5 69t-61.5 178.5v664q0 111 61.5 179.5t151.5 68.5t213 -80v340q0 31 31 31h82q31 0 30 -31v-340q127 80 215 80t149.5 -68.5t61.5 -179.5v-664q0 -111 -61.5 -179t-149.5 -68.5t-215 79.5z" />
    <glyph glyph-name="uni0445" unicode="&#x445;" 
d="M598 713l283 389q18 25 47 24h110q33 0 15 -24l-385 -524l389 -551q16 -27 -13 -27h-110q-31 0 -47 27l-291 413q-8 12 -8 45h-8q0 -33 -9 -45l-292 -415q-18 -25 -48 -25h-106q-33 0 -14 25l387 553l-373 522q-16 27 12 26h109q31 0 47 -26l278 -387q10 -16 11 -43h6
q0 27 10 43z" />
    <glyph glyph-name="uni0446" unicode="&#x446;" 
d="M815 137v959q0 31 31 30h82q31 0 30 -30v-959h119q31 0 31 -31v-327q0 -31 -31 -31h-82q-31 0 -30 31v221h-770q-31 0 -31 31v1065q0 31 31 30h81q31 0 31 -30v-959h508z" />
    <glyph glyph-name="uni0447" unicode="&#x447;" 
d="M958 0h-81q-31 0 -31 31v458q-215 -90 -373 -90q-139 0 -224 76t-85 201v422q0 29 31 28h81q31 0 31 -28v-410q0 -63 47 -100t129 -37q135 0 363 92v453q0 31 31 30h81q31 0 31 -30v-1065q0 -31 -31 -31z" />
    <glyph glyph-name="uni0448" unicode="&#x448;" 
d="M940 137v959q0 31 31 30h82q31 0 30 -32v-1063q0 -31 -30 -31h-942q-29 0 -29 31v1065q0 31 29 30h84q31 0 30 -30v-959h287v959q0 31 29 30h84q31 0 30 -32v-957h285z" />
    <glyph glyph-name="uni0449" unicode="&#x449;" 
d="M1014 137h98q31 0 31 -31v-342q0 -31 -31 -30h-82q-31 0 -31 30v236h-890q-31 0 -31 31v1065q0 31 31 30h81q31 0 31 -30v-959h254v959q0 31 29 30h84q31 0 30 -32v-957h252v959q0 31 29 30h84q31 0 31 -32v-957z" />
    <glyph glyph-name="uni044A" unicode="&#x44a;" 
d="M748 543h-275v-406h275q55 0 88.5 34t33.5 89v160q0 55 -33.5 89t-88.5 34zM37 1020v76q0 31 31 30h374q31 0 31 -30v-416h295q111 0 178.5 -67.5t67.5 -178.5v-188q0 -111 -67.5 -178.5t-178.5 -67.5h-408q-31 0 -30 31v958h-262q-31 0 -31 31z" />
    <glyph glyph-name="uni044B" unicode="&#x44b;" 
d="M471 543h-199v-406h199q55 0 89 34t34 89v160q0 55 -34 89t-89 34zM160 1126h82q31 0 30 -30v-416h220q111 0 178 -67.5t67 -178.5v-188q0 -111 -67.5 -178.5t-177.5 -67.5h-332q-31 0 -31 31v1065q0 30 31 30zM1008 0h-82q-31 0 -31 31v1065q0 31 31 30h82q31 0 30 -30
v-1065q1 -31 -30 -31z" />
    <glyph glyph-name="uni044C" unicode="&#x44c;" 
d="M737 543h-415v-406h415q55 0 89 34t34 89v160q0 55 -34 89t-89 34zM758 0h-549q-31 0 -31 31v1065q0 31 31 30h82q31 0 31 -30v-416h436q111 0 178.5 -67.5t67.5 -178.5v-188q0 -111 -67.5 -178.5t-178.5 -67.5z" />
    <glyph glyph-name="uni044D" unicode="&#x44d;" 
d="M276 772h-81q-31 0 -31 31v86q0 111 67.5 178.5t178.5 67.5h348q111 0 178.5 -68t67.5 -178v-651q0 -111 -68 -178.5t-178 -67.5h-348q-111 0 -178.5 67.5t-67.5 178.5v86q0 31 31 30h81q31 0 31 -30v-95q0 -45 29 -73.5t74 -28.5h348q45 0 73.5 28.5t28.5 73.5v277h-418
q-31 0 -30 31v73q0 31 30 31h418v256q0 45 -28.5 73.5t-73.5 28.5h-348q-45 0 -74 -28.5t-29 -73.5v-94q0 -31 -31 -31z" />
    <glyph glyph-name="uni044E" unicode="&#x44e;" 
d="M594 877v-627q0 -55 34 -89t89 -34h106q55 0 89 34t34 89v627q0 55 -33.5 88.5t-89.5 33.5h-106q-55 0 -89 -33.5t-34 -88.5zM451 238v268h-211v-475q0 -31 -31 -31h-82q-31 0 -31 31v1065q0 31 31 30h82q31 0 31 -30v-455h211v248q0 111 67.5 178.5t177.5 67.5h148
q111 0 178.5 -68t67.5 -178v-651q0 -111 -68 -178.5t-178 -67.5h-148q-111 0 -178 67.5t-67 178.5z" />
    <glyph glyph-name="uni044F" unicode="&#x44f;" 
d="M422 584h418v405h-418q-55 0 -89 -32.5t-34 -86.5v-163q0 -55 34 -89t89 -34zM141 27l265 419h-5q-111 0 -178 68t-67 178v193q0 109 67.5 175t177.5 66h551q31 0 31 -30v-1065q0 -31 -31 -31h-82q-31 0 -30 31v415h-275l-264 -419q-14 -27 -37 -27h-104q-14 0 -20.5 8.5
t1.5 18.5z" />
    <glyph glyph-name="uni0450" unicode="&#x450;" 
d="M758 999h-348q-45 0 -74 -28.5t-29 -73.5v-262h553v262q0 45 -28.5 73.5t-73.5 28.5zM973 498h-666v-267q0 -47 29 -75.5t74 -28.5h348q45 0 73.5 28.5t28.5 73.5v68q0 31 31 31h82q31 0 31 -31v-59q0 -111 -68 -178.5t-178 -67.5h-348q-111 0 -178.5 67.5t-67.5 178.5
v651q0 111 67.5 178.5t178.5 67.5h348q111 0 178.5 -67t67.5 -177v-363q0 -30 -31 -30zM561 1399l86 -170q10 -20 -12 -21h-57q-25 0 -41 17l-144 176q-16 16 8 16h125q23 0 35 -18z" />
    <glyph glyph-name="uni0451" unicode="&#x451;" 
d="M758 999h-348q-45 0 -74 -28.5t-29 -73.5v-262h553v262q0 45 -28.5 73.5t-73.5 28.5zM973 498h-666v-267q0 -47 29 -75.5t74 -28.5h348q45 0 73.5 28.5t28.5 73.5v68q0 31 31 31h82q31 0 31 -31v-59q0 -111 -68 -178.5t-178 -67.5h-348q-111 0 -178.5 67.5t-67.5 178.5
v651q0 111 67.5 178.5t178.5 67.5h348q111 0 178.5 -67t67.5 -177v-363q0 -30 -31 -30zM334 1272v53q0 49 51 49h53q49 0 49 -49v-53q0 -49 -49 -49h-53q-51 0 -51 49zM674 1272v53q0 23 13 36t36 13h55q20 0 34.5 -13t14.5 -36v-53q0 -49 -49 -49h-55q-49 0 -49 49z" />
    <glyph glyph-name="uni0452" unicode="&#x452;" 
d="M276 0h-81q-31 0 -31 39v1175h-92q-25 0 -25 23v61q0 25 25 25h92v80q0 31 31 31h81q31 0 31 -31v-80h303q25 0 25 -25v-61q0 -23 -25 -23h-303v-180q223 109 389 109q139 0 223.5 -79t84.5 -210v-924q0 -106 -68 -171.5t-178 -65.5h-164q-31 0 -31 31v75q0 31 31 31h164
q47 0 74.5 26.5t27.5 71.5v928q0 68 -47 110t-127 42q-150 0 -379 -121v-848q0 -39 -31 -39z" />
    <glyph glyph-name="uni0453" unicode="&#x453;" 
d="M936 989h-526v-958q0 -31 -31 -31h-82q-31 0 -31 31v1065q0 31 31 30h639q31 0 31 -30v-76q0 -31 -31 -31zM549 1229l88 170q10 18 35 18h125q23 0 6 -16l-144 -176q-12 -16 -38 -17h-60q-22 1 -12 21z" />
    <glyph glyph-name="uni0454" unicode="&#x454;" 
d="M973 772h-82q-31 0 -31 31v94q0 45 -28.5 73.5t-73.5 28.5h-348q-45 0 -74 -28.5t-29 -73.5v-256h418q31 0 31 -31v-73q0 -31 -31 -31h-418v-277q0 -45 29 -73.5t74 -28.5h348q45 0 73.5 28.5t28.5 73.5v95q0 31 31 30h82q31 0 31 -30v-86q0 -111 -68 -178.5t-178 -67.5
h-348q-111 0 -178.5 67.5t-67.5 178.5v651q0 111 67.5 178.5t178.5 67.5h348q111 0 178.5 -68t67.5 -178v-86q0 -31 -31 -31z" />
    <glyph glyph-name="uni0455" unicode="&#x455;" 
d="M1004 344v-94q0 -117 -68 -187.5t-178 -70.5h-348q-111 0 -178.5 67.5t-67.5 178.5v86q0 31 31 30h81q31 0 31 -30v-74q0 -123 109 -123h336q109 0 108 133v70q0 70 -55 90l-502 186q-57 20 -93 78.5t-36 124.5v74q0 113 67.5 182.5t178.5 69.5h328q111 0 178 -68
t67 -178v-86q0 -31 -30 -31h-82q-31 0 -31 31v74q0 123 -109 122h-315q-109 0 -109 -131v-45q0 -70 56 -90l501 -186q59 -23 94.5 -80t35.5 -123z" />
    <glyph glyph-name="uni0456" unicode="&#x456;" 
d="M195 1028v68q0 31 30 30h430q31 0 31 -30v-967h318q31 0 30 -31v-67q0 -31 -30 -31h-779q-31 0 -30 31v67q0 31 30 31h318v868h-318q-30 0 -30 31zM449 1313v129q0 45 45 45h137q45 0 45 -45v-129q0 -45 -45 -45h-137q-45 0 -45 45z" />
    <glyph glyph-name="uni0457" unicode="&#x457;" 
d="M195 1028v68q0 31 30 30h430q31 0 31 -30v-967h318q31 0 30 -31v-67q0 -31 -30 -31h-779q-31 0 -30 31v67q0 31 30 31h318v868h-318q-30 0 -30 31zM297 1272v53q0 49 51 49h53q49 0 50 -49v-53q0 -49 -50 -49h-53q-51 0 -51 49zM637 1272v53q0 23 13.5 36t35.5 13h55
q20 0 35 -13t15 -36v-53q0 -49 -50 -49h-55q-49 0 -49 49z" />
    <glyph glyph-name="uni0458" unicode="&#x458;" 
d="M332 1126h524q31 0 31 -30v-1123q0 -152 -121 -224.5t-311 -72.5q-20 0 -61.5 2.5t-101 8.5t-101 20t-41.5 35v76q0 23 30 22q2 0 9.5 -1t13.5 -1q123 -25 233 -24q129 0 218 41t89 133v1009h-411q-31 0 -31 31v68q0 30 31 30zM696 1489h138q45 0 45 -47v-127
q0 -47 -45 -47h-138q-45 0 -45 47v127q0 47 45 47z" />
    <glyph glyph-name="uni0459" unicode="&#x459;" 
d="M999 260v160q0 55 -33.5 89t-88.5 34h-166v-406h166q55 0 88.5 34t33.5 89zM1143 434v-188q0 -111 -67.5 -178.5t-178.5 -67.5h-299q-31 0 -31 31v958h-205l-49 -751q-16 -246 -221 -246h-37q-31 0 -30 31v73q0 31 30 31h17q94 0 98 123l57 846q0 31 31 30h422
q31 0 31 -30v-416h186q111 0 178.5 -67.5t67.5 -178.5z" />
    <glyph glyph-name="uni045A" unicode="&#x45a;" 
d="M987 260v141q0 55 -33.5 89t-89.5 34h-170v-387h170q55 0 89 34t34 89zM694 1096v-437h189q113 0 180 -67.5t67 -177.5v-168q0 -111 -67.5 -178.5t-179.5 -67.5h-303q-29 0 -29 31v493h-354v-493q0 -31 -31 -31h-82q-31 0 -31 31v1065q0 31 31 30h82q31 0 31 -30v-437
h354v437q0 31 29 30h82q32 1 32 -30z" />
    <glyph glyph-name="uni045B" unicode="&#x45b;" 
d="M27 1237v61q0 25 24 25h113v80q0 31 31 31h81q31 0 31 -31v-80h303q25 0 25 -25v-61q0 -23 -25 -23h-303v-184q225 113 395 113q135 0 218.5 -79t83.5 -210v-825q0 -29 -31 -29h-82q-31 0 -31 29v827q0 68 -47 110t-123 42q-147 0 -383 -129v-848q0 -31 -31 -31h-81
q-31 0 -31 31v1183h-113q-24 0 -24 23z" />
    <glyph glyph-name="uni045C" unicode="&#x45c;" 
d="M514 506h-207v-475q0 -31 -31 -31h-81q-31 0 -31 31v1065q0 31 31 30h81q31 0 31 -30v-453h205l340 457q18 27 37 26h108q14 0 21.5 -8t-0.5 -18l-387 -525l411 -548q8 -10 2 -18.5t-20 -8.5h-111q-18 0 -36 27zM463 1229l88 170q10 18 35 18h125q23 0 6 -16l-144 -176
q-12 -16 -38 -17h-60q-22 1 -12 21z" />
    <glyph glyph-name="uni045D" unicode="&#x45d;" 
d="M258 0h-63q-31 0 -31 31v1065q0 31 31 30h81q31 0 31 -30v-793q0 -14 -16 -86l6 -2q20 61 35 80l528 805q16 27 49 26h64q31 0 31 -30v-1065q0 -31 -31 -31h-82q-31 0 -31 31v790q0 14 17 86l-7 2q-20 -61 -34 -80l-529 -802q-16 -27 -49 -27zM565 1399l86 -170
q10 -20 -12 -21h-57q-25 0 -41 17l-144 176q-16 16 9 16h124q23 0 35 -18z" />
    <glyph glyph-name="uni045E" unicode="&#x45e;" 
d="M397 -279l115 281l-418 1096q-10 29 21 28h94q31 0 41 -28l317 -844q10 -33 11 -90h8q0 57 10 90l319 844q10 29 41 28h97q29 0 20 -28l-526 -1377q-10 -29 -41 -28h-90q-33 -1 -19 28zM827 1413l-2 -47q-2 -63 -42 -103t-105 -40h-174q-63 0 -103.5 38.5t-44.5 104.5v47
q-4 23 23 23h59q23 0 27 -23l6 -51q0 -18 12.5 -29.5t28.5 -11.5h158q39 0 43 41l6 51q0 23 26 23h60q26 0 22 -23z" />
    <glyph glyph-name="uni045F" unicode="&#x45f;" 
d="M164 31v1065q0 31 31 30h81q29 0 29 -30v-959h549v959q0 31 31 30h82q31 0 30 -30v-1065q0 -31 -30 -31h-314v-221q0 -31 -30 -31h-82q-31 0 -31 31v221h-315q-31 0 -31 31z" />
    <glyph glyph-name="uni0490" unicode="&#x490;" 
d="M991 1628v-194l2 -119q0 -31 -30 -31h-562v-1253q0 -31 -30 -31h-88q-31 0 -31 31v1372q0 31 31 31h559v194q0 31 30 31h89q30 0 30 -31z" />
    <glyph glyph-name="uni0491" unicode="&#x491;" 
d="M932 1307v-287q0 -31 -31 -31h-491v-958q0 -31 -31 -31h-82q-31 0 -31 31v1065q0 31 31 30h491v181q0 31 31 30h82q31 1 31 -30z" />
    <glyph glyph-name="uni04D8" unicode="&#x4d8;" 
d="M424 141h319q49 0 80 30t31 79v364h-541v-364q0 -49 31 -79t80 -30zM195 764h659v416q0 49 -30.5 79.5t-80.5 30.5h-319q-49 0 -80 -29.5t-31 -78.5v-115q0 -31 -30 -31h-88q-31 0 -31 31v107q0 121 73.5 193.5t192.5 72.5h307q119 0 193 -73t74 -193v-916
q0 -119 -74 -192.5t-193 -73.5h-307q-121 0 -193.5 72.5t-72.5 191.5v477q0 31 31 31z" />
    <glyph glyph-name="uni04D9" unicode="&#x4d9;" 
d="M410 127h348q45 0 73.5 28.5t28.5 73.5v263h-553v-263q0 -45 29 -73.5t74 -28.5zM195 629h665v266q0 47 -28.5 75.5t-73.5 28.5h-348q-45 0 -74 -28.5t-29 -73.5v-68q0 -31 -31 -30h-81q-31 0 -31 30v60q0 111 67.5 178.5t178.5 67.5h348q111 0 178.5 -68t67.5 -178v-651
q0 -111 -68 -178.5t-178 -67.5h-348q-111 0 -178.5 66.5t-67.5 177.5v362q0 31 31 31z" />
    <glyph glyph-name="Wgrave" unicode="&#x1e80;" 
d="M653 1403l146 -1000q2 -14 2 -88h8q0 74 2 88l156 1000q6 31 37 31h90q31 0 26 -31l-246 -1372q-6 -31 -36 -31h-64q-31 0 -35 31l-151 973q-2 12 -2 88h-8q0 -76 -3 -88l-149 -973q-6 -31 -37 -31h-63q-31 0 -37 31l-244 1372q-6 31 25 31h92q31 0 35 -31l155 -1000
q2 -14 2 -88h8q0 74 3 88l145 1000q4 31 35 31h73q31 0 35 -31zM563 1706l86 -170q10 -20 -10 -20h-59q-25 0 -41 16l-142 176q-20 16 6 16h125q25 0 35 -18z" />
    <glyph glyph-name="wgrave" unicode="&#x1e81;" 
d="M573 772l-151 -741q-6 -31 -37 -31h-76q-29 0 -39 31l-233 1065q-6 31 24 30h86q31 0 37 -30l156 -783q4 -27 4 -90h8q0 63 4 90l154 783q6 31 37 30h74q31 0 36 -30l154 -783q4 -27 4 -90h8q0 63 4 90l156 783q6 31 37 30h86q31 0 24 -30l-235 -1065q-6 -31 -37 -31h-78
q-31 0 -37 31l-151 741q-2 16 -4 52t-2 40h-6q-1 -65 -7 -92zM563 1399l88 -170q6 -20 -12 -21h-59q-27 0 -39 17l-144 176q-16 16 6 16h127q23 0 33 -18z" />
    <glyph glyph-name="Wacute" unicode="&#x1e82;" 
d="M653 1403l146 -1000q2 -14 2 -88h8q0 74 2 88l156 1000q6 31 37 31h90q31 0 26 -31l-246 -1372q-6 -31 -36 -31h-64q-31 0 -35 31l-151 973q-2 12 -2 88h-8q0 -76 -3 -88l-149 -973q-6 -31 -37 -31h-63q-31 0 -37 31l-244 1372q-6 31 25 31h92q31 0 35 -31l155 -1000
q2 -14 2 -88h8q0 74 3 88l145 1000q4 31 35 31h73q31 0 35 -31zM516 1536l86 170q12 18 35 18h127q18 0 6 -16l-143 -176q-16 -16 -41 -16h-58q-22 0 -12 20z" />
    <glyph glyph-name="wacute" unicode="&#x1e83;" 
d="M573 772l-151 -741q-6 -31 -37 -31h-76q-29 0 -39 31l-233 1065q-6 31 24 30h86q31 0 37 -30l156 -783q4 -27 4 -90h8q0 63 4 90l154 783q6 31 37 30h74q31 0 36 -30l154 -783q4 -27 4 -90h8q0 63 4 90l156 783q6 31 37 30h86q31 0 24 -30l-235 -1065q-6 -31 -37 -31h-78
q-31 0 -37 31l-151 741q-2 16 -4 52t-2 40h-6q-1 -65 -7 -92zM516 1229l88 170q10 18 35 18h125q23 0 6 -16l-143 -176q-12 -16 -41 -17h-58q-22 1 -12 21z" />
    <glyph glyph-name="Wdieresis" unicode="&#x1e84;" 
d="M653 1403l146 -1000q2 -14 2 -88h8q0 74 2 88l156 1000q6 31 37 31h90q31 0 26 -31l-246 -1372q-6 -31 -36 -31h-64q-31 0 -35 31l-151 973q-2 12 -2 88h-8q0 -76 -3 -88l-149 -973q-6 -31 -37 -31h-63q-31 0 -37 31l-244 1372q-6 31 25 31h92q31 0 35 -31l155 -1000
q2 -14 2 -88h8q0 74 3 88l145 1000q4 31 35 31h73q31 0 35 -31zM678 1579v53q0 49 49 49h53q23 0 36 -13t13 -36v-53q0 -49 -49 -49h-53q-49 0 -49 49zM338 1579v53q0 49 49 49h53q49 0 49 -49v-53q0 -49 -49 -49h-53q-49 0 -49 49z" />
    <glyph glyph-name="wdieresis" unicode="&#x1e85;" 
d="M573 772l-151 -741q-6 -31 -37 -31h-76q-29 0 -39 31l-233 1065q-6 31 24 30h86q31 0 37 -30l156 -783q4 -27 4 -90h8q0 63 4 90l154 783q6 31 37 30h74q31 0 36 -30l154 -783q4 -27 4 -90h8q0 63 4 90l156 783q6 31 37 30h86q31 0 24 -30l-235 -1065q-6 -31 -37 -31h-78
q-31 0 -37 31l-151 741q-2 16 -4 52t-2 40h-6q-1 -65 -7 -92zM678 1272v53q0 49 49 49h53q49 0 49 -49v-53q0 -49 -49 -49h-53q-49 0 -49 49zM338 1272v53q0 49 51 49h51q23 0 37.5 -13t14.5 -36v-53q0 -49 -52 -49h-51q-51 0 -51 49z" />
    <glyph glyph-name="uni1E9E" unicode="&#x1e9e;" 
d="M557 907l203 383h-330q-45 0 -73.5 -28.5t-28.5 -73.5v-1157q0 -31 -31 -31h-88q-31 0 -31 31v1157q0 111 67.5 178.5t178.5 67.5h520q14 0 20.5 -8.5t0.5 -20.5l-265 -543h74q96 0 154.5 -67.5t58.5 -176.5v-372q0 -111 -67.5 -178.5t-178.5 -67.5h-178q-31 0 -31 31v82
q0 31 31 30h164q109 0 109 123v355q0 55 -37 88.5t-99 33.5h-122q-31 0 -31 31v74q0 28 10 59z" />
    <glyph glyph-name="Ygrave" unicode="&#x1ef2;" 
d="M1053 1405l-394 -838v-536q0 -31 -30 -31h-88q-31 0 -31 31v536l-393 838q-12 29 18 29h98q33 0 43 -29l289 -612q16 -31 17 -84h6q0 51 14 86l287 610q12 29 45 29h100q29 0 19 -29zM565 1706l86 -170q10 -20 -10 -20h-59q-25 0 -41 16l-142 176q-20 16 7 16h124
q27 0 35 -18z" />
    <glyph glyph-name="ygrave" unicode="&#x1ef3;" 
d="M397 -279l115 281l-418 1096q-10 29 21 28h94q31 0 41 -28l317 -844q10 -33 11 -90h8q0 57 10 90l319 844q10 29 41 28h97q29 0 20 -28l-526 -1377q-10 -29 -41 -28h-90q-33 -1 -19 28zM563 1399l88 -170q10 -20 -12 -21h-59q-27 0 -39 17l-144 176q-16 16 6 16h127
q23 0 33 -18z" />
    <glyph glyph-name="figuredash" unicode="&#x2012;" 
d="M262 686v76q0 31 31 31h581q31 0 31 -31v-76q0 -31 -31 -31h-581q-31 0 -31 31z" />
    <glyph glyph-name="endash" unicode="&#x2013;" 
d="M205 588v74q0 25 24 24h709q25 0 25 -24v-74q0 -25 -25 -25h-709q-24 0 -24 25z" />
    <glyph glyph-name="emdash" unicode="&#x2014;" 
d="M51 588v74q0 25 25 24h1016q25 0 24 -24v-74q0 -25 -24 -25h-1016q-25 0 -25 25z" />
    <glyph glyph-name="quoteleft" unicode="&#x2018;" 
d="M588 1434h76q41 0 36 -39l-47 -379q-4 -47 -51 -47h-121q-47 0 -37 47l95 379q10 39 49 39z" />
    <glyph glyph-name="quoteright" unicode="&#x2019;" 
d="M557 969h-78q-41 0 -35 41l45 376q4 47 52 48h123q45 0 34 -45l-94 -381q-6 -39 -47 -39z" />
    <glyph glyph-name="quotesinglbase" unicode="&#x201a;" 
d="M543 -221h-78q-39 0 -35 39l45 379q6 45 51 45h123q20 0 30.5 -12.5t6.5 -32.5l-96 -379q-6 -39 -47 -39z" />
    <glyph glyph-name="quotedblleft" unicode="&#x201c;" 
d="M764 1434h76q41 0 37 -39l-48 -381q-4 -45 -51 -45h-121q-47 0 -36 45l94 381q10 39 49 39zM432 1434h78q39 0 35 -39l-47 -381q-4 -45 -49 -45h-123q-20 0 -30.5 12t-6.5 33l96 381q6 39 47 39z" />
    <glyph glyph-name="quotedblright" unicode="&#x201d;" 
d="M397 969h-75q-41 0 -37 41l47 379q4 45 51 45h121q47 0 37 -45l-95 -379q-10 -41 -49 -41zM729 969h-78q-39 0 -35 41l48 379q4 45 49 45h123q47 0 36 -45l-96 -379q-6 -41 -47 -41z" />
    <glyph glyph-name="quotedblbase" unicode="&#x201e;" 
d="M399 -221h-77q-41 0 -35 39l45 379q4 45 51 45h123q45 0 35 -45l-95 -379q-6 -39 -47 -39zM729 -221h-78q-39 0 -35 39l48 379q4 45 49 45h123q47 0 36 -45l-94 -379q-10 -39 -49 -39z" />
    <glyph glyph-name="dagger" unicode="&#x2020;" 
d="M201 1040v70q0 23 24 23h297v378q0 25 25 25h74q25 0 24 -25v-378h297q25 0 25 -23v-70q0 -23 -25 -22h-297v-1301q0 -25 -24 -24h-74q-25 0 -25 24v1301h-297q-24 -1 -24 22z" />
    <glyph glyph-name="daggerdbl" unicode="&#x2021;" 
d="M201 113v67q0 25 24 25h297v819h-297q-25 0 -24 25v67q0 25 24 25h297v370q0 25 25 25h74q25 0 24 -25v-370h297q25 0 25 -25v-67q0 -25 -25 -25h-297v-819h297q25 0 25 -25v-67q0 -25 -25 -25h-297v-371q0 -25 -24 -24h-74q-25 0 -25 24v371h-297q-24 0 -24 25z" />
    <glyph glyph-name="bullet" unicode="&#x2022;" 
d="M395 508v231q0 33 19.5 52.5t52.5 19.5h231q33 0 52.5 -19.5t19.5 -52.5v-231q0 -33 -19.5 -52.5t-52.5 -19.5h-231q-33 0 -52.5 19.5t-19.5 52.5z" />
    <glyph glyph-name="ellipsis" unicode="&#x2026;" 
d="M465 47v152q0 47 45 47h147q45 0 45 -47v-152q0 -47 -45 -47h-147q-45 0 -45 47zM96 47v152q0 47 45 47h148q45 0 45 -47v-152q0 -47 -45 -47h-148q-45 0 -45 47zM825 47v152q0 47 47 47h146q47 0 47 -47v-152q0 -47 -47 -47h-146q-47 0 -47 47z" />
    <glyph glyph-name="perthousand" unicode="&#x2030;" 
d="M23 682l1103 211q25 0 27 -19l12 -75q4 -23 -20 -27l-1104 -213q-2 -2 -6 -2q-16 0 -23 23l-10 71q-6 27 21 31zM162 1204v-168q0 -51 30.5 -82.5t79.5 -31.5h45q49 0 79 31.5t30 82.5v168q0 51 -29.5 83t-79.5 32h-45q-49 0 -79.5 -32t-30.5 -83zM41 1049v145
q0 113 65.5 180.5t174.5 67.5h26q109 0 175.5 -67.5t66.5 -180.5v-145q0 -113 -66.5 -181.5t-175.5 -68.5h-26q-109 0 -174.5 68.5t-65.5 181.5zM727 240v77q0 113 54.5 180.5t142.5 67.5h20q88 0 142.5 -67.5t54.5 -180.5v-77q0 -113 -54.5 -180.5t-142.5 -67.5h-20
q-88 0 -142.5 67.5t-54.5 180.5zM850 328v-99q0 -51 19.5 -82.5t52.5 -31.5h24q33 0 52.5 31.5t19.5 82.5v99q0 51 -19.5 82.5t-52.5 31.5h-24q-33 0 -52.5 -31.5t-19.5 -82.5zM252 240v77q0 113 53 180.5t144 67.5h20q88 0 141.5 -67.5t53.5 -180.5v-77
q0 -113 -53.5 -180.5t-141.5 -67.5h-20q-90 0 -143.5 67.5t-53.5 180.5zM373 328v-99q0 -53 20.5 -83.5t52.5 -30.5h23q33 0 52.5 31.5t19.5 82.5v99q0 51 -19.5 82.5t-52.5 31.5h-23q-33 0 -53 -30.5t-20 -83.5z" />
    <glyph glyph-name="guilsinglleft" unicode="&#x2039;" 
d="M799 918l-301 -293l301 -293q20 -20 0 -43l-45 -43q-8 -10 -21 -10q-14 0 -22 8l-324 317q-23 18 -22 51v25q0 33 22 51l324 318q8 8 22 8q12 0 23 -10l43 -43q20 -23 0 -43z" />
    <glyph glyph-name="guilsinglright" unicode="&#x203a;" 
d="M670 625l-301 293q-20 20 0 43l45 43q8 10 20 10q14 0 23 -8l325 -318q20 -20 21 -51v-25q0 -31 -21 -51l-325 -317q-8 -8 -23 -8q-12 0 -20 10l-45 43q-20 23 0 43z" />
    <glyph glyph-name="fraction" unicode="&#x2044;" 
d="M8 -20l1051 1544q10 12 18 12t15 -6l61 -43q18 -12 6 -33l-1050 -1546q-6 -10 -19 -10q-6 0 -14 4l-62 43q-20 15 -6 35z" />
    <glyph glyph-name="Euro" unicode="&#x20ac;" 
d="M49 557v61q0 31 31 31h119v135h-119q-31 0 -31 31v62q0 31 31 30h119v269q0 119 72.5 192.5t193.5 73.5h272q119 0 193 -74t74 -192v-136q0 -31 -31 -30h-88q-31 0 -31 30v144q0 49 -30.5 78.5t-80.5 29.5h-284q-49 0 -80 -29.5t-31 -78.5v-277h385q31 0 31 -30v-62
q0 -31 -31 -31h-385v-135h385q31 0 31 -31v-61q0 -31 -31 -31h-385v-276q0 -49 31 -79t80 -30h284q49 0 80 30t31 79v143q0 31 31 31h88q31 0 31 -31v-135q0 -119 -74 -192.5t-193 -73.5h-272q-121 0 -193.5 73.5t-72.5 192.5v268h-119q-31 0 -31 31z" />
    <glyph glyph-name="uni20B4" unicode="&#x20b4;" 
d="M137 557v59q0 31 31 31h201l178 137h-379q-31 0 -31 31v59q0 31 31 31h537l83 64q47 41 48 125v94q0 47 -30 75.5t-79 28.5h-287q-49 0 -78.5 -29.5t-29.5 -78.5v-103q0 -31 -31 -30h-90q-31 0 -31 30v95q0 119 74 192.5t192 73.5h275q119 0 192.5 -69.5t73.5 -184.5v-62
q0 -143 -69 -221h57q31 0 31 -31v-59q0 -31 -31 -31h-209l-178 -137h387q31 0 31 -31v-59q0 -31 -31 -31h-547l-53 -43q-49 -37 -49 -123v-114q0 -47 30.5 -76t79.5 -29h307q49 0 80 30t31 79v102q0 31 31 31l88 -2q31 0 31 -31v-94q0 -121 -74 -193.5t-193 -72.5h-295
q-119 0 -192.5 70.5t-73.5 185.5v82q0 117 53 198h-61q-31 0 -31 31z" />
    <glyph glyph-name="uni2116" unicode="&#x2116;" 
d="M872 1198v-113q0 -51 19.5 -82.5t52.5 -31.5h25q33 0 52 31.5t19 82.5v113q0 51 -19.5 83t-51.5 32h-25q-33 0 -52.5 -32t-19.5 -83zM188 928v-897q0 -31 -30 -31h-82q-31 0 -31 31v1372q0 31 31 31h61q31 0 41 -29l348 -907q6 -16 13.5 -50t7.5 -36h6q-10 66 -10 88v903
q0 31 30 31h82q31 0 31 -31v-1372q0 -31 -31 -31h-61q-29 0 -43 29l-346 903q-12 27 -21 86l-8 -2q12 -53 12 -88zM766 647v58q0 29 31 28h323q29 0 29 -28v-58q0 -31 -29 -31h-323q-31 0 -31 31zM764 1102v92q0 113 50 180.5t134 67.5h19q82 0 132 -67.5t50 -180.5v-92
q0 -111 -50 -179.5t-132 -68.5h-19q-84 0 -134 68.5t-50 179.5z" />
    <glyph glyph-name="trademark" unicode="&#x2122;" 
d="M541 1415v-57q0 -20 -19 -21h-172v-602q0 -18 -20 -18h-58q-18 0 -18 18v602h-174q-20 0 -21 21v57q0 18 21 19h442q19 -1 19 -19zM729 1169v-434q0 -18 -18 -18h-54q-18 0 -18 18v680q0 18 18 19h66q20 0 27 -21l108 -328q6 -16 6 -57h4q0 25 9 57l108 330q4 18 25 19
h67q18 0 19 -19v-680q0 -18 -19 -18h-53q-18 0 -18 18v434q0 31 6 56l-4 2q-2 -8 -5.5 -27.5t-5.5 -28.5l-96 -280q-4 -16 -22 -17h-23q-16 0 -25 17l-94 278q-6 27 -10 56h-4q6 -50 6 -56z" />
    <glyph glyph-name="arrowleft" unicode="&#x2190;" 
d="M1055 655h-772l225 -206q23 -20 2 -41l-45 -46q-10 -10 -23 -10q-10 0 -20 10l-311 295q-23 23 -23 54v12q0 31 23 53l311 297q8 8 20 8q14 0 23 -10l45 -43q23 -23 -2 -43l-225 -207h772q25 0 24 -24v-74q1 -25 -24 -25z" />
    <glyph glyph-name="arrowup" unicode="&#x2191;" 
d="M522 246v772l-207 -225q-10 -10 -20 -11q-12 0 -21 11l-45 43q-25 20 0 43l295 313q20 20 54 20h12q29 0 53 -20l295 -313q25 -23 0 -43l-43 -43q-8 -10 -20.5 -10.5t-22.5 10.5l-207 227v-774q0 -25 -24 -25h-74q-25 0 -25 25z" />
    <glyph glyph-name="arrowright" unicode="&#x2192;" 
d="M885 655h-772q-25 0 -25 25v74q0 25 25 24h772l-226 207q-25 20 -2 43l45 43q8 10 23 10q12 0 20 -8l312 -297q23 -23 22 -53v-12q0 -31 -22 -54l-312 -295q-10 -10 -20 -10q-12 0 -23 10l-45 46q-20 20 2 41z" />
    <glyph glyph-name="arrowdown" unicode="&#x2193;" 
d="M645 1190v-774l207 225q8 10 20.5 10t20.5 -8l45 -45q25 -23 0 -43l-295 -311q-18 -23 -53 -23h-12q-31 0 -54 23l-295 311q-25 23 0 43l43 45q8 8 21 8q14 0 22 -10l207 -225v774q0 23 25 22h76q22 1 22 -22z" />
    <glyph glyph-name="uni2196" unicode="&#x2196;" 
d="M874 340l-546 547l12 -305q4 -31 -29 -31h-61q-33 0 -33 31l-10 428q0 33 20 53l11 10q20 20 53 21l430 -11q31 0 31 -30v-64q0 -29 -31 -28l-307 12l547 -547q16 -16 0 -33l-54 -53q-6 -8 -16.5 -8t-16.5 8z" />
    <glyph glyph-name="uni2197" unicode="&#x2197;" 
d="M207 428l547 547l-305 -14q-31 -4 -31 28l-2 64q0 31 30 30l431 11q29 0 53 -21l8 -10q23 -18 23 -51l-11 -430q0 -31 -32 -31h-62q-33 0 -29 31l13 305l-547 -547q-8 -8 -16.5 -8t-16.5 8l-53 53q-18 17 0 35z" />
    <glyph glyph-name="uni2198" unicode="&#x2198;" 
d="M293 1094l547 -547l-13 307q-4 31 29 31h62q33 0 32 -31l11 -430q0 -29 -21 -53l-10 -9q-18 -23 -53 -22l-431 10q-31 4 -30 33v61q0 33 30 29l308 -12l-547 547q-18 16 0 34l53 52q6 8 16.5 8t16.5 -8z" />
    <glyph glyph-name="uni2199" unicode="&#x2199;" 
d="M961 1008l-547 -547l305 14q31 0 31 -31l2 -61q0 -29 -31 -33l-430 -10q-29 0 -53 20l-9 11q-23 23 -22 53l10 430q0 31 33 31h61q33 0 29 -31l-12 -307l546 547q6 8 16.5 8t16.5 -8l54 -54q16 -16 0 -32z" />
    <glyph glyph-name="minus" unicode="&#x2212;" 
d="M262 686v76q0 31 31 31h581q31 0 31 -31v-76q0 -31 -31 -31h-581q-31 0 -31 31z" />
    <glyph glyph-name="approxequal" unicode="&#x2248;" 
d="M266 756v90q0 23 21 37l55 37q47 29 102 28q37 0 74 -16l164 -68q25 -10 47 -10q39 0 66 18l86 56q8 4 10 4q10 0 10 -14v-93q0 -23 -20 -37l-56 -34q-47 -29 -102 -29q-43 0 -74 14l-164 70q-18 8 -47 8q-41 0 -65 -18l-86 -56q-8 -4 -11 -4q-10 1 -10 17zM266 467v92
q0 23 21 37l55 37q45 27 100 26q41 0 76 -14l164 -67q18 -10 49 -11q35 0 64 17l86 55q4 4 10 4q10 0 10 -14v-92q0 -23 -20 -37l-56 -35q-47 -29 -102 -29q-37 0 -74 17l-164 67q-18 10 -47 10q-37 0 -65 -18l-86 -55q-4 -4 -11 -4q-10 0 -10 14z" />
    <glyph glyph-name="notequal" unicode="&#x2260;" 
d="M600 948l64 170q6 16 22 17q6 0 8 -2l70 -27q27 -8 14 -31l-47 -127h143q31 0 31 -30v-74q0 -31 -31 -31h-192l-66 -178h258q31 0 31 -31v-76q0 -31 -31 -30h-309l-61 -170q-6 -16 -23 -17h-4q-2 2 -4 2l-72 27q-20 10 -14 31l47 127h-141q-31 0 -31 30v76q0 31 31 31
h192l66 178h-258q-31 0 -31 31v74q0 31 31 30h307z" />
    <glyph glyph-name="lessequal" unicode="&#x2264;" 
d="M262 236v75q0 31 31 31h581q31 0 31 -31v-75q0 -31 -31 -31h-581q-31 0 -31 31zM889 1047l-408 -234l408 -233q27 -16 10 -43l-35 -66q-8 -14 -26 -14q-10 0 -17 4l-532 305q-27 18 -27 47q0 31 27 45l532 307q12 4 17 4q16 0 26 -16l35 -66q17 -26 -10 -40z" />
    <glyph glyph-name="greaterequal" unicode="&#x2265;" 
d="M686 813l-407 234q-27 14 -11 40l35 66q10 16 27 16q4 0 16 -4l533 -307q27 -14 26 -45q0 -29 -26 -47l-533 -305q-6 -4 -16 -4q-18 0 -27 14l-35 66q-16 27 11 43zM905 311v-75q0 -31 -31 -31h-581q-31 0 -31 31v75q0 31 31 31h581q31 0 31 -31z" />
    <glyph glyph-name="uniFB01" unicode="&#xfb01;" 
d="M43 1020v76q0 31 31 30h190v62q0 111 67.5 178.5t178.5 67.5h192q31 0 31 -31v-76q0 -31 -31 -31h-192q-47 0 -74.5 -27.5t-27.5 -74.5v-68h294q31 0 31 -30v-76q0 -31 -31 -31h-294v-958q0 -31 -31 -31h-82q-31 0 -31 31v958h-190q-31 0 -31 31zM918 1126h81
q31 0 31 -30v-1065q0 -31 -31 -31h-81q-31 0 -31 31v1065q0 30 31 30zM844 1313v129q0 20 13 33.5t34 13.5h135q47 0 47 -47v-129q0 -45 -47 -45h-135q-47 0 -47 45z" />
    <glyph glyph-name="uniFB02" unicode="&#xfb02;" 
d="M43 1020v76q0 31 31 30h190v62q0 111 67.5 178.5t178.5 67.5h192q31 0 31 -31v-76q0 -31 -31 -31h-192q-47 0 -74.5 -27.5t-27.5 -74.5v-68h294q31 0 31 -30v-76q0 -31 -31 -31h-294v-958q0 -31 -31 -31h-82q-31 0 -31 31v958h-190q-31 0 -31 31zM918 1434h81
q31 0 31 -31v-1372q0 -31 -31 -31h-81q-31 0 -31 31v1372q0 31 31 31z" />
    <glyph glyph-name="glyph485" 
d="M510 -289l25 187q4 33 36 32h60q35 0 24 -32l-49 -187q-6 -25 -33 -24h-41q-26 -1 -22 24z" />
    <glyph glyph-name="a.sc" 
d="M383 334h401l-190 504q-8 20 -8 75h-6q0 -55 -7 -75zM834 205h-500l-68 -180q-10 -25 -35 -25h-81q-25 0 -19 25l391 1095q6 27 35 27h53q25 0 35 -25l389 -1097q6 -25 -18 -25h-80q-27 0 -33 25z" />
    <glyph glyph-name="aacute.sc" 
d="M383 334h401l-190 504q-8 20 -8 75h-6q0 -55 -7 -75zM834 205h-500l-68 -180q-10 -25 -35 -25h-81q-25 0 -19 25l391 1095q6 27 35 27h53q25 0 35 -25l389 -1097q6 -25 -18 -25h-80q-27 0 -33 25zM530 1249l88 170q8 18 35 19h125q20 0 8 -17l-143 -176q-16 -16 -41 -16
h-59q-19 0 -13 20z" />
    <glyph glyph-name="abreve.sc" 
d="M383 334h401l-190 504q-8 20 -8 75h-6q0 -55 -7 -75zM834 205h-500l-68 -180q-10 -25 -35 -25h-81q-25 0 -19 25l391 1095q6 27 35 27h53q25 0 35 -25l389 -1097q6 -25 -18 -25h-80q-27 0 -33 25zM768 1393v-21q-4 -66 -45 -104.5t-105 -38.5h-67q-66 0 -105.5 40
t-42.5 103l-2 21q0 23 25 22h45q23 0 27 -22l6 -31q4 -41 43 -41h78q39 0 43 41l4 31q4 23 26 22h47q23 1 23 -22z" />
    <glyph glyph-name="acircumflex.sc" 
d="M383 334h401l-190 504q-8 20 -8 75h-6q0 -55 -7 -75zM834 205h-500l-68 -180q-10 -25 -35 -25h-81q-25 0 -19 25l391 1095q6 27 35 27h53q25 0 35 -25l389 -1097q6 -25 -18 -25h-80q-27 0 -33 25zM662 1409l116 -156q14 -18 -8 -18h-80q-23 0 -37 20l-67 95l-72 -95
q-14 -20 -39 -20h-74q-25 0 -10 18l119 156q12 18 39 18h74q25 0 39 -18z" />
    <glyph glyph-name="agrave.sc" 
d="M383 334h401l-190 504q-8 20 -8 75h-6q0 -55 -7 -75zM834 205h-500l-68 -180q-10 -25 -35 -25h-81q-25 0 -19 25l391 1095q6 27 35 27h53q25 0 35 -25l389 -1097q6 -25 -18 -25h-80q-27 0 -33 25zM551 1419l88 -170q10 -20 -12 -20h-60q-27 0 -39 16l-143 176
q-16 16 6 17h127q23 -1 33 -19z" />
    <glyph glyph-name="adieresis.sc" 
d="M383 334h401l-190 504q-8 20 -8 75h-6q0 -55 -7 -75zM834 205h-500l-68 -180q-10 -25 -35 -25h-81q-25 0 -19 25l391 1095q6 27 35 27h53q25 0 35 -25l389 -1097q6 -25 -18 -25h-80q-27 0 -33 25zM340 1292v54q0 49 49 49h53q23 0 37.5 -13.5t14.5 -35.5v-54
q0 -49 -52 -49h-53q-49 0 -49 49zM680 1292v54q0 49 49 49h53q20 0 34.5 -13.5t14.5 -35.5v-54q0 -49 -49 -49h-53q-49 0 -49 49z" />
    <glyph glyph-name="amacron.sc" 
d="M383 334h401l-190 504q-8 20 -8 75h-6q0 -55 -7 -75zM834 205h-500l-68 -180q-10 -25 -35 -25h-81q-25 0 -19 25l391 1095q6 27 35 27h53q25 0 35 -25l389 -1097q6 -25 -18 -25h-80q-27 0 -33 25zM406 1290v56q0 23 22 22h313q25 0 25 -22v-56q0 -25 -25 -24h-313
q-22 -1 -22 24z" />
    <glyph glyph-name="aogonek.sc" 
d="M383 334h401l-190 504q-8 20 -8 75h-6q0 -55 -7 -75zM932 0q-20 0 -29 23l-69 182h-500l-68 -180q-10 -25 -35 -25h-81q-25 0 -19 25l391 1095q6 27 35 27h53q25 0 35 -25l391 -1099q8 -23 -16 -23q-61 -78 -70 -143q-4 -35 27 -35h82q25 0 24 -23v-35q0 -25 -24 -24
h-109q-39 0 -62.5 24.5t-23.5 63.5q0 94 68 172z" />
    <glyph glyph-name="aring.sc" 
d="M383 334h401l-190 504q-8 20 -8 75h-6q0 -55 -7 -75zM518 1327q0 -27 20.5 -46t47 -19t46 19t19.5 46t-19.5 47.5t-45.5 20.5q-29 0 -48.5 -19.5t-19.5 -48.5zM834 205h-500l-68 -180q-10 -25 -35 -25h-81q-25 0 -19 25l391 1095q6 27 35 27h53q25 0 35 -25l389 -1097
q6 -25 -18 -25h-80q-27 0 -33 25zM442 1327q0 59 42 101t101.5 42t101.5 -42t42 -101q0 -57 -43 -100t-100 -43q-59 0 -101.5 42t-42.5 101z" />
    <glyph glyph-name="atilde.sc" 
d="M383 334h401l-190 504q-8 20 -8 75h-6q0 -55 -7 -75zM834 205h-500l-68 -180q-10 -25 -35 -25h-81q-25 0 -19 25l391 1095q6 27 35 27h53q25 0 35 -25l389 -1097q6 -25 -18 -25h-80q-27 0 -33 25zM360 1266v59q0 37 49.5 57.5t90.5 20.5q39 0 67 -14l74 -33q14 -8 37 -8
q61 0 121 41q8 4 10 4q8 0 8 -15v-61q0 -37 -48 -55.5t-91 -18.5q-37 0 -68 12l-73 35q-16 6 -37 6q-66 0 -121 -41q-4 -4 -10 -4q-9 1 -9 15z" />
    <glyph glyph-name="ae.sc" 
d="M348 334h260v553q0 31 8 76h-4q-8 -47 -18 -72zM608 205h-317l-78 -180q-10 -25 -35 -25h-84q-29 0 -18 25l481 1095q4 27 33 27h452q27 0 27 -27v-76q0 -27 -27 -26h-305v-426h224q27 0 26 -27v-76q0 -27 -26 -26h-224v-334h305q27 0 27 -27v-75q0 -27 -27 -27h-407
q-27 0 -27 27v178z" />
    <glyph glyph-name="aeacute.sc" 
d="M348 334h260v553q0 31 8 76h-4q-8 -47 -18 -72zM608 205h-317l-78 -180q-10 -25 -35 -25h-84q-29 0 -18 25l481 1095q4 27 33 27h452q27 0 27 -27v-76q0 -27 -27 -26h-305v-426h224q27 0 26 -27v-76q0 -27 -26 -26h-224v-334h305q27 0 27 -27v-75q0 -27 -27 -27h-407
q-27 0 -27 27v178zM606 1249l88 170q10 18 35 19h125q23 0 6 -17l-143 -176q-12 -16 -39 -16h-60q-22 0 -12 20z" />
    <glyph glyph-name="b.sc" 
d="M874 213v227q0 37 -29.5 59.5t-76.5 22.5h-442v-393h440q49 0 78.5 23.5t29.5 60.5zM727 1018h-401v-367h401q49 0 79 22.5t30 59.5v203q0 35 -30 58.5t-79 23.5zM1004 403v-184q0 -98 -67 -158.5t-177 -60.5h-537q-27 0 -26 27v1093q0 27 26 27h500q109 0 175.5 -60.5
t66.5 -156.5v-160q0 -113 -91 -174q130 -54 130 -193z" />
    <glyph glyph-name="c.sc" 
d="M438 1155h293q109 0 176.5 -60.5t67.5 -158.5v-107q0 -25 -27 -24h-76q-29 0 -28 24v113q0 37 -29 59.5t-80 22.5h-303q-49 0 -78.5 -22.5t-29.5 -59.5v-737q0 -37 29.5 -59.5t78.5 -22.5h303q51 0 80 22.5t29 59.5v112q0 27 28 27h76q27 0 27 -27v-106
q0 -98 -67.5 -158.5t-176.5 -60.5h-293q-111 0 -177 60.5t-66 158.5v725q0 98 66 158.5t177 60.5z" />
    <glyph glyph-name="cacute.sc" 
d="M438 1155h293q109 0 176.5 -60.5t67.5 -158.5v-107q0 -25 -27 -24h-76q-29 0 -28 24v113q0 37 -29 59.5t-80 22.5h-303q-49 0 -78.5 -22.5t-29.5 -59.5v-737q0 -37 29.5 -59.5t78.5 -22.5h303q51 0 80 22.5t29 59.5v112q0 27 28 27h76q27 0 27 -27v-106
q0 -98 -67.5 -158.5t-176.5 -60.5h-293q-111 0 -177 60.5t-66 158.5v725q0 98 66 158.5t177 60.5zM530 1249l86 170q12 18 35 19h127q18 0 6 -17l-143 -176q-16 -16 -41 -16h-57q-23 0 -13 20z" />
    <glyph glyph-name="ccaron.sc" 
d="M438 1155h293q109 0 176.5 -60.5t67.5 -158.5v-107q0 -25 -27 -24h-76q-29 0 -28 24v113q0 37 -29 59.5t-80 22.5h-303q-49 0 -78.5 -22.5t-29.5 -59.5v-737q0 -37 29.5 -59.5t78.5 -22.5h303q51 0 80 22.5t29 59.5v112q0 27 28 27h76q27 0 27 -27v-106
q0 -98 -67.5 -158.5t-176.5 -60.5h-293q-111 0 -177 60.5t-66 158.5v725q0 98 66 158.5t177 60.5zM776 1409l-117 -154q-14 -20 -38 -20h-74q-25 0 -39 20l-117 154q-12 18 8 18h76q23 0 37 -18l72 -96l67 96q14 18 39 18h78q20 0 8 -18z" />
    <glyph glyph-name="ccedilla.sc" 
d="M702 -156v-45q0 -41 -25.5 -66.5t-66.5 -25.5h-123q-23 0 -22 25v26q0 25 22 25h103q31 0 31 31v16q0 31 -31 31h-51q-45 0 -35 43l16 88h-82q-111 0 -177 60.5t-66 158.5v725q0 98 66.5 158.5t176.5 60.5h293q109 0 176.5 -60.5t67.5 -158.5v-107q0 -25 -27 -24h-76
q-29 0 -28 24v113q0 37 -29 59.5t-80 22.5h-303q-49 0 -78.5 -22.5t-29.5 -59.5v-737q0 -37 29.5 -59.5t78.5 -22.5h303q51 0 80 22.5t29 59.5v112q0 27 28 27h76q27 0 27 -27v-106q0 -98 -67.5 -158.5t-176.5 -60.5h-123l-10 -55h12q41 0 66.5 -26t25.5 -67z" />
    <glyph glyph-name="ccircumflex.sc" 
d="M438 1155h293q109 0 176.5 -60.5t67.5 -158.5v-107q0 -25 -27 -24h-76q-29 0 -28 24v113q0 37 -29 59.5t-80 22.5h-303q-49 0 -78.5 -22.5t-29.5 -59.5v-737q0 -37 29.5 -59.5t78.5 -22.5h303q51 0 80 22.5t29 59.5v112q0 27 28 27h76q27 0 27 -27v-106
q0 -98 -67.5 -158.5t-176.5 -60.5h-293q-111 0 -177 60.5t-66 158.5v725q0 98 66 158.5t177 60.5zM659 1409l117 -156q14 -18 -8 -18h-78q-25 0 -39 20l-67 95l-72 -95q-14 -20 -37 -20h-76q-23 0 -8 18l117 156q12 18 39 18h74q26 0 38 -18z" />
    <glyph glyph-name="cdotaccent.sc" 
d="M438 1155h293q109 0 176.5 -60.5t67.5 -158.5v-107q0 -25 -27 -24h-76q-29 0 -28 24v113q0 37 -29 59.5t-80 22.5h-303q-49 0 -78.5 -22.5t-29.5 -59.5v-737q0 -37 29.5 -59.5t78.5 -22.5h303q51 0 80 22.5t29 59.5v112q0 27 28 27h76q27 0 27 -27v-106
q0 -98 -67.5 -158.5t-176.5 -60.5h-293q-111 0 -177 60.5t-66 158.5v725q0 98 66 158.5t177 60.5zM498 1292v68q0 20 13 34.5t36 14.5h74q23 0 36 -14.5t13 -34.5v-68q0 -49 -49 -49h-74q-49 0 -49 49z" />
    <glyph glyph-name="d.sc" 
d="M324 1018v-889h411q49 0 79 23.5t30 60.5v723q0 37 -30 59.5t-79 22.5h-411zM195 27v1093q0 27 26 27h510q109 0 176.5 -60.5t67.5 -158.5v-709q0 -98 -67.5 -158.5t-176.5 -60.5h-510q-26 0 -26 27z" />
    <glyph glyph-name="dcaron.sc" 
d="M324 1018v-889h411q49 0 79 23.5t30 60.5v723q0 37 -30 59.5t-79 22.5h-411zM195 27v1093q0 27 26 27h510q109 0 176.5 -60.5t67.5 -158.5v-709q0 -98 -67.5 -158.5t-176.5 -60.5h-510q-26 0 -26 27zM745 1409l-116 -154q-16 -20 -39 -20h-74q-25 0 -39 20l-119 154
q-12 18 11 18h73q25 0 39 -18l72 -96l68 96q14 18 36 18h80q20 0 8 -18z" />
    <glyph glyph-name="dcroat.sc" 
d="M547 530h-228v-401h414q47 0 78 23.5t31 60.5v723q0 35 -31 58.5t-78 23.5h-414v-383h228q27 0 26 -27v-53q1 -25 -26 -25zM57 555v53q0 27 27 27h104v485q0 27 27 27h510q111 0 178.5 -60.5t67.5 -158.5v-709q0 -98 -67.5 -158.5t-178.5 -60.5h-510q-27 0 -27 27v503
h-104q-27 0 -27 25z" />
    <glyph glyph-name="eth.sc" 
d="M547 530h-228v-401h414q47 0 78 23.5t31 60.5v723q0 35 -31 58.5t-78 23.5h-414v-383h228q27 0 26 -27v-53q1 -25 -26 -25zM57 555v53q0 27 27 27h104v485q0 27 27 27h510q111 0 178.5 -60.5t67.5 -158.5v-709q0 -98 -67.5 -158.5t-178.5 -60.5h-510q-27 0 -27 27v503
h-104q-27 0 -27 25z" />
    <glyph glyph-name="thorn.sc" 
d="M735 805h-411v-438h411q51 0 80 22.5t29 61.5v272q0 37 -29 59.5t-80 22.5zM324 934h407q109 0 176.5 -59.5t67.5 -159.5v-258q0 -98 -67.5 -158.5t-176.5 -60.5h-407v-211q0 -27 -27 -27h-76q-27 0 -26 27v1093q0 27 26 27h76q27 0 27 -27v-186z" />
    <glyph glyph-name="e.sc" 
d="M195 27v1093q0 27 26 27h727q27 0 27 -27v-76q0 -27 -27 -26h-624v-426h456q27 0 27 -27v-76q0 -27 -27 -26h-456v-334h624q27 0 27 -27v-75q0 -27 -27 -27h-727q-26 0 -26 27z" />
    <glyph glyph-name="eacute.sc" 
d="M195 27v1093q0 27 26 27h727q27 0 27 -27v-76q0 -27 -27 -26h-624v-426h456q27 0 27 -27v-76q0 -27 -27 -26h-456v-334h624q27 0 27 -27v-75q0 -27 -27 -27h-727q-26 0 -26 27zM530 1249l86 170q12 18 35 19h127q18 0 6 -17l-143 -176q-16 -16 -41 -16h-57q-23 0 -13 20z
" />
    <glyph glyph-name="ebreve.sc" 
d="M195 27v1093q0 27 26 27h727q27 0 27 -27v-76q0 -27 -27 -26h-624v-426h456q27 0 27 -27v-76q0 -27 -27 -26h-456v-334h624q27 0 27 -27v-75q0 -27 -27 -27h-727q-26 0 -26 27zM766 1393v-21q-2 -63 -42 -103t-106 -40h-67q-63 0 -104 39t-46 104v21q-4 23 23 22h47
q23 0 27 -22l4 -31q4 -41 43 -41h78q39 0 43 41l4 31q4 23 28 22h45q27 1 23 -22z" />
    <glyph glyph-name="ecaron.sc" 
d="M195 27v1093q0 27 26 27h727q27 0 27 -27v-76q0 -27 -27 -26h-624v-426h456q27 0 27 -27v-76q0 -27 -27 -26h-456v-334h624q27 0 27 -27v-75q0 -27 -27 -27h-727q-26 0 -26 27zM776 1409l-117 -154q-14 -20 -38 -20h-74q-25 0 -39 20l-117 154q-12 18 8 18h76
q23 0 37 -18l72 -96l67 96q14 18 39 18h78q20 0 8 -18z" />
    <glyph glyph-name="ecircumflex.sc" 
d="M195 27v1093q0 27 26 27h727q27 0 27 -27v-76q0 -27 -27 -26h-624v-426h456q27 0 27 -27v-76q0 -27 -27 -26h-456v-334h624q27 0 27 -27v-75q0 -27 -27 -27h-727q-26 0 -26 27zM659 1409l117 -156q14 -18 -8 -18h-78q-25 0 -39 20l-67 95l-72 -95q-14 -20 -37 -20h-76
q-23 0 -8 18l117 156q12 18 39 18h74q26 0 38 -18z" />
    <glyph glyph-name="edieresis.sc" 
d="M195 27v1093q0 27 26 27h727q27 0 27 -27v-76q0 -27 -27 -26h-624v-426h456q27 0 27 -27v-76q0 -27 -27 -26h-456v-334h624q27 0 27 -27v-75q0 -27 -27 -27h-727q-26 0 -26 27zM678 1292v54q0 23 13.5 36t35.5 13h53q49 0 49 -49v-54q0 -49 -49 -49h-53q-49 0 -49 49z
M338 1292v54q0 49 51 49h51q23 0 37.5 -13.5t14.5 -35.5v-54q0 -49 -52 -49h-51q-51 0 -51 49z" />
    <glyph glyph-name="edotaccent.sc" 
d="M195 27v1093q0 27 26 27h727q27 0 27 -27v-76q0 -27 -27 -26h-624v-426h456q27 0 27 -27v-76q0 -27 -27 -26h-456v-334h624q27 0 27 -27v-75q0 -27 -27 -27h-727q-26 0 -26 27zM498 1292v68q0 20 13 34.5t36 14.5h74q23 0 36 -14.5t13 -34.5v-68q0 -49 -49 -49h-74
q-49 0 -49 49z" />
    <glyph glyph-name="egrave.sc" 
d="M195 27v1093q0 27 26 27h727q27 0 27 -27v-76q0 -27 -27 -26h-624v-426h456q27 0 27 -27v-76q0 -27 -27 -26h-456v-334h624q27 0 27 -27v-75q0 -27 -27 -27h-727q-26 0 -26 27zM551 1419l86 -170q10 -20 -12 -20h-58q-25 0 -41 16l-143 176q-16 16 8 17h125q23 -1 35 -19
z" />
    <glyph glyph-name="emacron.sc" 
d="M195 27v1093q0 27 26 27h727q27 0 27 -27v-76q0 -27 -27 -26h-624v-426h456q27 0 27 -27v-76q0 -27 -27 -26h-456v-334h624q27 0 27 -27v-75q0 -27 -27 -27h-727q-26 0 -26 27zM403 1290v56q0 23 25 22h313q23 0 23 -22v-56q0 -25 -23 -24h-313q-25 -1 -25 24z" />
    <glyph glyph-name="eogonek.sc" 
d="M821 0h-600q-27 0 -26 27v1093q0 27 26 27h727q27 0 27 -27v-76q0 -27 -27 -26h-624v-426h456q27 0 27 -27v-76q0 -27 -27 -26h-456v-334h624q27 0 27 -27v-75q0 -27 -27 -27h-41q-57 -78 -65 -141q-6 -35 24 -35h84q25 0 25 -25v-32q0 -25 -25 -25h-108
q-39 0 -63.5 23.5t-24.5 62.5q-1 94 67 172z" />
    <glyph glyph-name="f.sc" 
d="M324 592h456q27 0 27 -27v-76q0 -27 -27 -26h-456v-436q0 -27 -25 -27h-78q-27 0 -26 27v1093q0 27 26 27h727q27 0 27 -27v-76q0 -27 -27 -26h-624v-426z" />
    <glyph glyph-name="g.sc" 
d="M610 598h338q27 0 27 -27v-360q0 -98 -67.5 -158.5t-176.5 -60.5h-293q-111 0 -177 60.5t-66 158.5v725q0 98 66.5 158.5t176.5 60.5h293q109 0 176.5 -60.5t67.5 -158.5v-107q0 -25 -27 -24h-76q-29 0 -28 24v113q0 37 -29 59.5t-80 22.5h-303q-49 0 -78.5 -22.5
t-29.5 -59.5v-737q0 -37 29.5 -59.5t78.5 -22.5h303q51 0 80 22.5t29 59.5v264h-234q-27 0 -26 27v75q-1 27 26 27z" />
    <glyph glyph-name="gbreve.sc" 
d="M610 598h338q27 0 27 -27v-360q0 -98 -67.5 -158.5t-176.5 -60.5h-293q-111 0 -177 60.5t-66 158.5v725q0 98 66.5 158.5t176.5 60.5h293q109 0 176.5 -60.5t67.5 -158.5v-107q0 -25 -27 -24h-76q-29 0 -28 24v113q0 37 -29 59.5t-80 22.5h-303q-49 0 -78.5 -22.5
t-29.5 -59.5v-737q0 -37 29.5 -59.5t78.5 -22.5h303q51 0 80 22.5t29 59.5v264h-234q-27 0 -26 27v75q-1 27 26 27zM766 1393v-21q-2 -63 -42 -103t-106 -40h-67q-63 0 -104 39t-46 104v21q-4 23 23 22h47q23 0 27 -22l4 -31q4 -41 43 -41h78q39 0 43 41l4 31q4 23 28 22h45
q27 1 23 -22z" />
    <glyph glyph-name="gcircumflex.sc" 
d="M610 598h338q27 0 27 -27v-360q0 -98 -67.5 -158.5t-176.5 -60.5h-293q-111 0 -177 60.5t-66 158.5v725q0 98 66.5 158.5t176.5 60.5h293q109 0 176.5 -60.5t67.5 -158.5v-107q0 -25 -27 -24h-76q-29 0 -28 24v113q0 37 -29 59.5t-80 22.5h-303q-49 0 -78.5 -22.5
t-29.5 -59.5v-737q0 -37 29.5 -59.5t78.5 -22.5h303q51 0 80 22.5t29 59.5v264h-234q-27 0 -26 27v75q-1 27 26 27zM659 1409l117 -156q14 -18 -8 -18h-78q-25 0 -39 20l-67 95l-72 -95q-14 -20 -37 -20h-76q-23 0 -8 18l117 156q12 18 39 18h74q26 0 38 -18z" />
    <glyph glyph-name="uni0123.sc" 
d="M610 598h338q27 0 27 -27v-360q0 -98 -67.5 -158.5t-176.5 -60.5h-293q-111 0 -177 60.5t-66 158.5v725q0 98 66.5 158.5t176.5 60.5h293q109 0 176.5 -60.5t67.5 -158.5v-107q0 -25 -27 -24h-76q-29 0 -28 24v113q0 37 -29 59.5t-80 22.5h-303q-49 0 -78.5 -22.5
t-29.5 -59.5v-737q0 -37 29.5 -59.5t78.5 -22.5h303q51 0 80 22.5t29 59.5v264h-234q-27 0 -26 27v75q-1 27 26 27zM510 -289l25 187q4 33 36 32h60q35 0 24 -32l-49 -187q-6 -25 -33 -24h-41q-26 -1 -22 24z" />
    <glyph glyph-name="gdotaccent.sc" 
d="M610 598h338q27 0 27 -27v-360q0 -98 -67.5 -158.5t-176.5 -60.5h-293q-111 0 -177 60.5t-66 158.5v725q0 98 66.5 158.5t176.5 60.5h293q109 0 176.5 -60.5t67.5 -158.5v-107q0 -25 -27 -24h-76q-29 0 -28 24v113q0 37 -29 59.5t-80 22.5h-303q-49 0 -78.5 -22.5
t-29.5 -59.5v-737q0 -37 29.5 -59.5t78.5 -22.5h303q51 0 80 22.5t29 59.5v264h-234q-27 0 -26 27v75q-1 27 26 27zM498 1292v68q0 20 13 34.5t36 14.5h74q23 0 36 -14.5t13 -34.5v-68q0 -49 -49 -49h-74q-49 0 -49 49z" />
    <glyph glyph-name="h.sc" 
d="M195 27v1093q0 27 26 27h76q27 0 27 -27v-528h520v528q0 27 28 27h76q27 0 27 -27v-1093q0 -27 -27 -27h-76q-29 0 -28 27v436h-520v-436q0 -27 -27 -27h-76q-26 0 -26 27z" />
    <glyph glyph-name="hbar.sc" 
d="M844 592v256h-520v-256h520zM870 1147h78q27 0 27 -27v-166h104q27 0 27 -26v-54q0 -27 -27 -26h-104v-821q0 -27 -27 -27h-78q-27 0 -26 27v436h-520v-436q0 -27 -27 -27h-76q-27 0 -26 27v821h-107q-27 0 -27 26v54q0 27 27 26h107v166q0 27 26 27h76q27 0 27 -27v-166
h520v166q-1 27 26 27z" />
    <glyph glyph-name="hcircumflex.sc" 
d="M195 27v1093q0 27 26 27h76q27 0 27 -27v-528h520v528q0 27 28 27h76q27 0 27 -27v-1093q0 -27 -27 -27h-76q-29 0 -28 27v436h-520v-436q0 -27 -27 -27h-76q-26 0 -26 27zM659 1409l117 -156q14 -18 -8 -18h-78q-25 0 -39 20l-67 95l-72 -95q-14 -20 -37 -20h-76
q-23 0 -8 18l117 156q12 18 39 18h74q26 0 38 -18z" />
    <glyph glyph-name="dotlessi.sc" 
d="M195 27v71q0 27 26 27h299v897h-299q-27 0 -26 27v71q0 27 26 27h725q27 0 27 -27v-71q0 -27 -27 -27h-297v-897h297q27 0 27 -27v-71q0 -27 -27 -27h-725q-26 0 -26 27z" />
    <glyph glyph-name="iacute.sc" 
d="M195 27v71q0 27 26 27h299v897h-299q-27 0 -26 27v71q0 27 26 27h725q27 0 27 -27v-71q0 -27 -27 -27h-297v-897h297q27 0 27 -27v-71q0 -27 -27 -27h-725q-26 0 -26 27zM530 1249l86 170q12 18 35 19h127q18 0 6 -17l-143 -176q-16 -16 -41 -16h-57q-23 0 -13 20z" />
    <glyph glyph-name="ibreve.sc" 
d="M195 27v71q0 27 26 27h299v897h-299q-27 0 -26 27v71q0 27 26 27h725q27 0 27 -27v-71q0 -27 -27 -27h-297v-897h297q27 0 27 -27v-71q0 -27 -27 -27h-725q-26 0 -26 27zM766 1393v-21q-2 -63 -42 -103t-106 -40h-67q-63 0 -104 39t-46 104v21q-4 23 23 22h47
q23 0 27 -22l4 -31q4 -41 43 -41h78q39 0 43 41l4 31q4 23 28 22h45q27 1 23 -22z" />
    <glyph glyph-name="icircumflex.sc" 
d="M195 27v71q0 27 26 27h299v897h-299q-27 0 -26 27v71q0 27 26 27h725q27 0 27 -27v-71q0 -27 -27 -27h-297v-897h297q27 0 27 -27v-71q0 -27 -27 -27h-725q-26 0 -26 27zM659 1409l117 -156q14 -18 -8 -18h-78q-25 0 -39 20l-67 95l-72 -95q-14 -20 -37 -20h-76
q-23 0 -8 18l117 156q12 18 39 18h74q26 0 38 -18z" />
    <glyph glyph-name="idieresis.sc" 
d="M195 27v71q0 27 26 27h299v897h-299q-27 0 -26 27v71q0 27 26 27h725q27 0 27 -27v-71q0 -27 -27 -27h-297v-897h297q27 0 27 -27v-71q0 -27 -27 -27h-725q-26 0 -26 27zM338 1292v54q0 49 51 49h51q23 0 37.5 -13.5t14.5 -35.5v-54q0 -49 -52 -49h-51q-51 0 -51 49z
M678 1292v54q0 23 13.5 36t35.5 13h53q49 0 49 -49v-54q0 -49 -49 -49h-53q-49 0 -49 49z" />
    <glyph glyph-name="i.sc" 
d="M195 27v71q0 27 26 27h299v897h-299q-27 0 -26 27v71q0 27 26 27h725q27 0 27 -27v-71q0 -27 -27 -27h-297v-897h297q27 0 27 -27v-71q0 -27 -27 -27h-725q-26 0 -26 27zM498 1292v68q0 20 13 34.5t36 14.5h74q23 0 36 -14.5t13 -34.5v-68q0 -49 -49 -49h-74
q-49 0 -49 49z" />
    <glyph glyph-name="igrave.sc" 
d="M195 27v71q0 27 26 27h299v897h-299q-27 0 -26 27v71q0 27 26 27h725q27 0 27 -27v-71q0 -27 -27 -27h-297v-897h297q27 0 27 -27v-71q0 -27 -27 -27h-725q-26 0 -26 27zM551 1419l86 -170q10 -20 -12 -20h-58q-25 0 -41 16l-143 176q-16 16 8 17h125q23 -1 35 -19z" />
    <glyph glyph-name="imacron.sc" 
d="M195 27v71q0 27 26 27h299v897h-299q-27 0 -26 27v71q0 27 26 27h725q27 0 27 -27v-71q0 -27 -27 -27h-297v-897h297q27 0 27 -27v-71q0 -27 -27 -27h-725q-26 0 -26 27zM403 1290v56q0 23 25 22h313q23 0 23 -22v-56q0 -25 -23 -24h-313q-25 -1 -25 24z" />
    <glyph glyph-name="iogonek.sc" 
d="M539 0h-318q-27 0 -26 27v71q0 27 26 27h299v897h-299q-27 0 -26 27v71q0 27 26 27h725q27 0 27 -27v-71q0 -27 -27 -27h-297v-897h297q27 0 27 -27v-71q0 -27 -27 -27h-319q-57 -76 -68 -141q-6 -35 25 -35h84q25 0 24 -25v-32q0 -25 -24 -25h-109q-39 0 -63.5 23.5
t-24.5 62.5q0 94 68 172z" />
    <glyph glyph-name="itilde.sc" 
d="M195 27v71q0 27 26 27h299v897h-299q-27 0 -26 27v71q0 27 26 27h725q27 0 27 -27v-71q0 -27 -27 -27h-297v-897h297q27 0 27 -27v-71q0 -27 -27 -27h-725q-26 0 -26 27zM358 1266v59q0 37 49.5 57.5t92.5 20.5q37 0 67 -14l72 -33q14 -8 37 -8q66 0 121 41q8 4 10 4
q8 0 8 -15v-61q0 -37 -48 -55.5t-91 -18.5q-37 0 -68 12l-71 35q-18 6 -39 6q-63 0 -119 -41q-4 -4 -12.5 -3.5t-8.5 14.5z" />
    <glyph glyph-name="ij.sc" 
d="M653 1147h293q27 0 27 -27v-907q0 -98 -67.5 -157.5t-176.5 -59.5h-184q-109 0 -176.5 59.5t-67.5 157.5v68q0 27 27 26h78q27 0 26 -26v-74q0 -37 30 -59.5t79 -22.5h192q49 0 79 22.5t30 59.5v815h-189q-27 0 -26 27v69q-1 29 26 29zM127 1147h279q27 0 26 -29v-622
q0 -27 -26 -27h-74q-27 0 -27 27v526h-178q-27 0 -27 27v69q0 29 27 29z" />
    <glyph glyph-name="j.sc" 
d="M479 1147h451q27 0 26 -27v-909q0 -98 -67.5 -158.5t-175.5 -60.5h-281q-109 0 -176.5 60.5t-67.5 158.5v68q0 27 27 26h78q27 0 26 -26v-74q0 -37 30 -59.5t79 -22.5h291q49 0 78.5 22.5t29.5 59.5v817h-348q-27 0 -26 27v71q-1 27 26 27z" />
    <glyph glyph-name="jcircumflex.sc" 
d="M479 1147h451q27 0 26 -27v-909q0 -98 -67.5 -158.5t-175.5 -60.5h-281q-109 0 -176.5 60.5t-67.5 158.5v68q0 27 27 26h78q27 0 26 -26v-74q0 -37 30 -59.5t79 -22.5h291q49 0 78.5 22.5t29.5 59.5v817h-348q-27 0 -26 27v71q-1 27 26 27zM793 1409l116 -156
q14 -18 -8 -18h-78q-25 0 -39 20l-67 95l-72 -95q-14 -20 -37 -20h-76q-23 0 -8 18l117 156q12 18 39 18h74q27 0 39 -18z" />
    <glyph glyph-name="k.sc" 
d="M549 532h-223v-505q0 -27 -27 -27h-76q-27 0 -26 27v1093q0 27 26 27h76q27 0 27 -27v-465h225l321 469q18 23 41 23h97q12 0 16 -6t-4 -17l-371 -530l404 -571q14 -23 -13 -23h-98q-23 0 -41 23z" />
    <glyph glyph-name="uni0137.sc" 
d="M549 532h-223v-505q0 -27 -27 -27h-76q-27 0 -26 27v1093q0 27 26 27h76q27 0 27 -27v-465h225l321 469q18 23 41 23h97q12 0 16 -6t-4 -17l-371 -530l404 -571q14 -23 -13 -23h-98q-23 0 -41 23zM504 -289l24 187q4 33 37 32h60q14 0 21 -9t3 -23l-49 -187
q-6 -25 -33 -24h-41q-26 -1 -22 24z" />
    <glyph glyph-name="l.sc" 
d="M236 1147h75q27 0 27 -27v-989h618q27 0 27 -27v-77q0 -27 -27 -27h-720q-27 0 -27 27v1093q0 27 27 27z" />
    <glyph glyph-name="lacute.sc" 
d="M236 1147h75q27 0 27 -27v-989h618q27 0 27 -27v-77q0 -27 -27 -27h-720q-27 0 -27 27v1093q0 27 27 27zM221 1249l88 170q10 18 35 19h125q23 0 6 -17l-143 -176q-12 -16 -39 -16h-60q-22 0 -12 20z" />
    <glyph glyph-name="lcaron.sc" 
d="M236 1147h75q27 0 27 -27v-989h618q27 0 27 -27v-77q0 -27 -27 -27h-720q-27 0 -27 27v1093q0 27 27 27zM731 922l25 184q4 33 37 33h59q35 0 25 -33l-50 -186q-6 -25 -32 -25h-41q-27 0 -23 27z" />
    <glyph glyph-name="uni013C.sc" 
d="M236 1147h75q27 0 27 -27v-989h618q27 0 27 -27v-77q0 -27 -27 -27h-720q-27 0 -27 27v1093q0 27 27 27zM510 -289l25 187q4 33 36 32h60q35 0 24 -32l-49 -187q-6 -25 -33 -24h-41q-26 -1 -22 24z" />
    <glyph glyph-name="ldot.sc" 
d="M236 1147h75q27 0 27 -27v-989h618q27 0 27 -27v-77q0 -27 -27 -27h-720q-27 0 -27 27v1093q0 27 27 27zM731 498v151q0 47 45 47h148q47 0 47 -47v-151q0 -47 -47 -47h-148q-45 0 -45 47z" />
    <glyph glyph-name="lslash.sc" 
d="M63 471l144 74v575q0 27 26 27h76q27 0 27 -27v-508l164 86q8 4 14 4q10 0 21 -12l26 -47q12 -25 -8 -37l-217 -112v-363h616q29 0 29 -27v-77q0 -27 -29 -27h-719q-27 0 -26 27v397l-88 -45q-4 -4 -15 -4q-16 0 -22 14l-27 45q-15 25 8 37z" />
    <glyph glyph-name="m.sc" 
d="M193 1147h88q25 0 34 -25l254 -577q10 -23 11 -76h6q0 47 10 76l256 577q10 25 35 25h86q29 0 28 -27v-1093q0 -27 -28 -27h-70q-27 0 -26 27v757q0 25 10 76l-6 2q-12 -61 -17 -74l-229 -503q-10 -25 -35 -25h-33q-23 0 -35 25l-229 503q-4 10 -16 74l-6 -2
q10 -51 10 -76v-757q0 -27 -27 -27h-71q-27 0 -27 27v1093q0 27 27 27z" />
    <glyph glyph-name="n.sc" 
d="M221 1147h53q25 0 39 -23l512 -784q2 -2 27 -72h4q-12 45 -12 76v776q0 27 26 27h78q27 0 27 -27v-1093q0 -27 -27 -27h-53q-27 0 -39 23l-514 780q-10 18 -25 71h-6q14 -43 15 -77v-770q0 -27 -27 -27h-78q-27 0 -26 27v1093q-1 27 26 27z" />
    <glyph glyph-name="nacute.sc" 
d="M221 1147h53q25 0 39 -23l512 -784q2 -2 27 -72h4q-12 45 -12 76v776q0 27 26 27h78q27 0 27 -27v-1093q0 -27 -27 -27h-53q-27 0 -39 23l-514 780q-10 18 -25 71h-6q14 -43 15 -77v-770q0 -27 -27 -27h-78q-27 0 -26 27v1093q-1 27 26 27zM530 1249l88 170q8 18 35 19
h125q20 0 8 -17l-143 -176q-16 -16 -41 -16h-59q-19 0 -13 20z" />
    <glyph glyph-name="ncaron.sc" 
d="M221 1147h53q25 0 39 -23l512 -784q2 -2 27 -72h4q-12 45 -12 76v776q0 27 26 27h78q27 0 27 -27v-1093q0 -27 -27 -27h-53q-27 0 -39 23l-514 780q-10 18 -25 71h-6q14 -43 15 -77v-770q0 -27 -27 -27h-78q-27 0 -26 27v1093q-1 27 26 27zM778 1409l-116 -154
q-16 -20 -39 -20h-74q-25 0 -39 20l-119 154q-12 18 10 18h74q25 0 39 -18l72 -96l67 96q14 18 37 18h80q20 0 8 -18z" />
    <glyph glyph-name="uni0146.sc" 
d="M221 1147h53q25 0 39 -23l512 -784q2 -2 27 -72h4q-12 45 -12 76v776q0 27 26 27h78q27 0 27 -27v-1093q0 -27 -27 -27h-53q-27 0 -39 23l-514 780q-10 18 -25 71h-6q14 -43 15 -77v-770q0 -27 -27 -27h-78q-27 0 -26 27v1093q-1 27 26 27zM510 -289l25 187q4 33 36 32
h60q35 0 24 -32l-49 -187q-6 -25 -33 -24h-41q-26 -1 -22 24z" />
    <glyph glyph-name="ntilde.sc" 
d="M221 1147h53q25 0 39 -23l512 -784q2 -2 27 -72h4q-12 45 -12 76v776q0 27 26 27h78q27 0 27 -27v-1093q0 -27 -27 -27h-53q-27 0 -39 23l-514 780q-10 18 -25 71h-6q14 -43 15 -77v-770q0 -27 -27 -27h-78q-27 0 -26 27v1093q-1 27 26 27zM360 1266v59q0 37 49.5 57.5
t90.5 20.5q39 0 67 -14l74 -33q14 -8 37 -8q61 0 121 41q8 4 10 4q8 0 8 -15v-61q0 -37 -48 -55.5t-91 -18.5q-37 0 -68 12l-73 35q-16 6 -37 6q-66 0 -121 -41q-4 -4 -10 -4q-9 1 -9 15z" />
    <glyph glyph-name="eng.sc" 
d="M221 1147h53q23 0 37 -25l516 -788q12 -14 23 -74l4 2q-10 51 -10 76v782q0 27 26 27h78q27 0 27 -27v-1147q0 -98 -67.5 -158.5t-176.5 -60.5h-158q-27 0 -26 27v76q0 27 26 26h162q49 0 79 23.5t30 58.5v94l-506 764q-10 23 -19 74l-4 -2q8 -41 9 -74v-794
q0 -27 -27 -27h-76q-27 0 -26 27v1093q-1 27 26 27z" />
    <glyph glyph-name="o.sc" 
d="M186 936q0 98 66.5 158.5t177.5 60.5h307q111 0 178.5 -60.5t67.5 -158.5v-725q0 -98 -67.5 -158.5t-178.5 -60.5h-307q-111 0 -177.5 60.5t-66.5 158.5v725zM315 942v-737q0 -37 30 -59.5t79 -22.5h321q47 0 77 22.5t30 59.5v737q0 37 -29.5 59.5t-77.5 22.5h-321
q-49 0 -79 -22.5t-30 -59.5z" />
    <glyph glyph-name="oacute.sc" 
d="M186 936q0 98 66.5 158.5t177.5 60.5h307q111 0 178.5 -60.5t67.5 -158.5v-725q0 -98 -67.5 -158.5t-178.5 -60.5h-307q-111 0 -177.5 60.5t-66.5 158.5v725zM315 942v-737q0 -37 30 -59.5t79 -22.5h321q47 0 77 22.5t30 59.5v737q0 37 -29.5 59.5t-77.5 22.5h-321
q-49 0 -79 -22.5t-30 -59.5zM530 1249l86 170q12 18 35 19h127q18 0 6 -17l-143 -176q-16 -16 -41 -16h-57q-23 0 -13 20z" />
    <glyph glyph-name="obreve.sc" 
d="M315 942v-737q0 -37 30 -59.5t79 -22.5h321q47 0 77 22.5t30 59.5v737q0 37 -29.5 59.5t-77.5 22.5h-321q-49 0 -79 -22.5t-30 -59.5zM186 211v725q0 98 66.5 158.5t177.5 60.5h307q111 0 178.5 -60.5t67.5 -158.5v-725q0 -98 -67.5 -158.5t-178.5 -60.5h-307
q-111 0 -177.5 60.5t-66.5 158.5zM766 1393v-21q-2 -63 -42 -103t-106 -40h-67q-63 0 -104 39t-46 104v21q-4 23 23 22h47q23 0 27 -22l4 -31q4 -41 43 -41h78q39 0 43 41l4 31q4 23 28 22h45q27 1 23 -22z" />
    <glyph glyph-name="ocircumflex.sc" 
d="M315 942v-737q0 -37 30 -59.5t79 -22.5h321q47 0 77 22.5t30 59.5v737q0 37 -29.5 59.5t-77.5 22.5h-321q-49 0 -79 -22.5t-30 -59.5zM186 211v725q0 98 66.5 158.5t177.5 60.5h307q111 0 178.5 -60.5t67.5 -158.5v-725q0 -98 -67.5 -158.5t-178.5 -60.5h-307
q-111 0 -177.5 60.5t-66.5 158.5zM659 1409l117 -156q14 -18 -8 -18h-78q-25 0 -39 20l-67 95l-72 -95q-14 -20 -37 -20h-76q-23 0 -8 18l117 156q12 18 39 18h74q26 0 38 -18z" />
    <glyph glyph-name="odieresis.sc" 
d="M186 936q0 98 66.5 158.5t177.5 60.5h307q111 0 178.5 -60.5t67.5 -158.5v-725q0 -98 -67.5 -158.5t-178.5 -60.5h-307q-111 0 -177.5 60.5t-66.5 158.5v725zM315 942v-737q0 -37 30 -59.5t79 -22.5h321q47 0 77 22.5t30 59.5v737q0 37 -29.5 59.5t-77.5 22.5h-321
q-49 0 -79 -22.5t-30 -59.5zM678 1292v54q0 23 13.5 36t35.5 13h53q49 0 49 -49v-54q0 -49 -49 -49h-53q-49 0 -49 49zM338 1292v54q0 49 51 49h51q23 0 37.5 -13.5t14.5 -35.5v-54q0 -49 -52 -49h-51q-51 0 -51 49z" />
    <glyph glyph-name="ograve.sc" 
d="M186 936q0 98 66.5 158.5t177.5 60.5h307q111 0 178.5 -60.5t67.5 -158.5v-725q0 -98 -67.5 -158.5t-178.5 -60.5h-307q-111 0 -177.5 60.5t-66.5 158.5v725zM315 942v-737q0 -37 30 -59.5t79 -22.5h321q47 0 77 22.5t30 59.5v737q0 37 -29.5 59.5t-77.5 22.5h-321
q-49 0 -79 -22.5t-30 -59.5zM551 1419l86 -170q10 -20 -12 -20h-58q-25 0 -41 16l-143 176q-16 16 8 17h125q23 -1 35 -19z" />
    <glyph glyph-name="ohungarumlaut.sc" 
d="M186 936q0 98 66.5 158.5t177.5 60.5h307q111 0 178.5 -60.5t67.5 -158.5v-725q0 -98 -67.5 -158.5t-178.5 -60.5h-307q-111 0 -177.5 60.5t-66.5 158.5v725zM315 942v-737q0 -37 30 -59.5t79 -22.5h321q47 0 77 22.5t30 59.5v737q0 37 -29.5 59.5t-77.5 22.5h-321
q-49 0 -79 -22.5t-30 -59.5zM649 1249l92 152q10 20 35 20h105q27 0 8 -18l-131 -156q-14 -18 -39 -18h-60q-24 0 -10 20zM432 1249l88 152q10 20 35 20h104q27 0 9 -18l-125 -156q-14 -18 -39 -18h-60q-22 0 -12 20z" />
    <glyph glyph-name="omacron.sc" 
d="M186 936q0 98 66.5 158.5t177.5 60.5h307q111 0 178.5 -60.5t67.5 -158.5v-725q0 -98 -67.5 -158.5t-178.5 -60.5h-307q-111 0 -177.5 60.5t-66.5 158.5v725zM315 942v-737q0 -37 30 -59.5t79 -22.5h321q47 0 77 22.5t30 59.5v737q0 37 -29.5 59.5t-77.5 22.5h-321
q-49 0 -79 -22.5t-30 -59.5zM403 1290v56q0 23 25 22h313q23 0 23 -22v-56q0 -25 -23 -24h-313q-25 -1 -25 24z" />
    </font>
</defs>
</svg>
