<?xml version="1.0" standalone="no"?>
<!DOCTYPE svg PUBLIC "-//W3C//DTD SVG 1.1//EN" "http://www.w3.org/Graphics/SVG/1.1/DTD/svg11.dtd" >
<svg xmlns="http://www.w3.org/2000/svg" xmlns:xlink="http://www.w3.org/1999/xlink" version="1.1">
<metadata>
Created by FontForge 20170731 at Mon May 14 08:42:19 2018
 By Aleksey,,,
Copyright (c) 2018 by Oleh Lishchuk. All rights reserved.
</metadata>
<defs>
<font id="VinMonoPro-Medium" horiz-adv-x="1167" >
  <font-face 
    font-family="Vin Mono Pro Medium"
    font-weight="500"
    font-stretch="normal"
    units-per-em="2048"
    panose-1="0 0 0 0 0 0 0 0 0 0"
    ascent="1638"
    descent="-410"
    x-height="1126"
    cap-height="1434"
    bbox="0 -360 1315 1823"
    underline-thickness="0"
    underline-position="0"
    unicode-range="U+0020-FB02"
  />
<missing-glyph 
 />
    <glyph glyph-name=".notdef" 
 />
    <glyph glyph-name="glyph1" horiz-adv-x="0" 
 />
    <glyph glyph-name="glyph2" 
 />
    <glyph glyph-name="space" unicode=" " 
 />
    <glyph glyph-name="exclam" unicode="!" 
d="M504 487l-15 893q-2 25 12.5 39.5t39.5 14.5h86q25 0 39 -14.5t12 -39.5l-14 -893q0 -23 -15.5 -37t-40.5 -14h-51q-53 0 -53 51zM455 53v160q0 53 53 53h149q55 0 56 -53v-160q0 -23 -15.5 -38t-40.5 -15h-149q-25 0 -39 15t-14 38z" />
    <glyph glyph-name="quotedbl" unicode="&#x22;" 
d="M330 989l-8 418q0 27 26 27h129q27 0 27 -27l-10 -418q0 -27 -27 -26h-109q-28 -1 -28 26zM674 989l-10 418q0 27 28 27h127q27 0 27 -27l-8 -418q0 -27 -29 -26h-109q-26 -1 -26 26z" />
    <glyph glyph-name="numbersign" unicode="#" 
d="M406 504h280l76 426h-281zM18 395v72q0 37 37 37h205l76 426h-178q-37 0 -37 37v71q0 35 37 35h202l58 326q6 35 43 35h74q35 0 28 -35l-57 -326h282l58 326q6 35 41 35h74q35 0 30 -35l-57 -326h178q37 0 37 -35v-71q0 -37 -37 -37h-205l-76 -426h179q37 0 37 -37v-72
q0 -35 -37 -35h-203l-57 -325q-6 -35 -43 -35h-74q-35 0 -29 35l58 325h-281l-57 -325q-6 -35 -43 -35h-74q-35 0 -29 35l58 325h-181q-37 0 -37 35z" />
    <glyph glyph-name="dollar" unicode="$" 
d="M504 -160v148h-72q-125 0 -202.5 77.5t-77.5 204.5v129q0 37 34 37h107q35 0 35 -35v-137q0 -43 26.5 -69.5t69.5 -26.5h305q43 0 68.5 26.5t25.5 69.5v150q0 49 -41 75l-506 334q-47 33 -76.5 88.5t-29.5 112.5v137q0 127 77 205t204 78h53v147q0 37 35 37h90
q35 0 35 -37v-147h53q127 0 203.5 -78t76.5 -205v-129q0 -35 -34 -35h-107q-35 0 -35 35v137q0 43 -26.5 70t-69.5 27h-283q-43 0 -68.5 -27t-25.5 -70v-129q0 -49 41 -75l504 -334q49 -33 78.5 -87.5t29.5 -113.5v-160q0 -127 -77.5 -204.5t-204.5 -77.5h-55v-148
q0 -37 -35 -37h-90q-35 0 -35 37z" />
    <glyph glyph-name="percent" unicode="%" 
d="M61 471l969 610q10 6 17 6q12 0 20 -14l49 -74q12 -23 -10 -38l-967 -609q-8 -6 -16 -6q-14 0 -21 12l-49 76q-17 23 8 37zM178 1198v-166q0 -47 29 -74.5t76 -27.5h51q47 0 74.5 28.5t27.5 73.5v166q0 45 -28.5 73.5t-73.5 28.5h-51q-47 0 -76 -28.5t-29 -73.5zM37 1044
v140q0 117 70.5 188.5t185.5 71.5h29q117 0 187.5 -72t70.5 -188v-140q0 -115 -71 -186.5t-187 -71.5h-29q-115 0 -185.5 71.5t-70.5 186.5zM588 250v139q0 117 70.5 187.5t187.5 70.5h26q117 0 189 -70.5t72 -187.5v-139q0 -117 -72 -188.5t-189 -71.5h-26
q-117 0 -187.5 71.5t-70.5 188.5zM729 401v-165q0 -45 28.5 -74t76.5 -29h53q45 0 73.5 28.5t28.5 74.5v165q0 45 -28.5 74t-73.5 29h-53q-47 0 -76 -28t-29 -75z" />
    <glyph glyph-name="ampersand" unicode="&#x26;" 
d="M418 170h252q43 0 69.5 25.5t26.5 68.5v416h-350q-41 0 -66.5 -25.5t-25.5 -68.5v-322q0 -43 25.5 -68.5t68.5 -25.5zM426 1442h223q127 0 205 -77t78 -204v-90q0 -35 -37 -35h-107q-35 0 -34 35v98q0 43 -27 70t-70 27h-239q-43 0 -68.5 -27t-25.5 -70v-217
q0 -43 25.5 -68.5t68.5 -25.5h637q37 0 37 -37v-104q0 -37 -37 -37h-113v-408q0 -125 -78 -202.5t-202 -77.5h-236q-127 0 -204 77.5t-77 202.5v260q0 160 117 238q-117 74 -117 234v157q0 125 77 203t204 78z" />
    <glyph glyph-name="quotesingle" unicode="'" 
d="M502 989l-8 418q0 27 26 27h127q27 0 27 -27l-8 -418q0 -27 -27 -26h-109q-28 -1 -28 26z" />
    <glyph glyph-name="parenleft" unicode="(" 
d="M725 1526l84 -72q20 -16 4 -37l-164 -184q-66 -70 -65 -168v-901q0 -98 65 -168l164 -184q16 -20 -4 -37l-84 -72q-8 -8 -18.5 -8t-20.5 10l-184 201q-96 106 -96 250v917q0 143 96 250l184 201q10 10 20.5 10t18.5 -8z" />
    <glyph glyph-name="parenright" unicode=")" 
d="M358 1454l84 72q8 8 18.5 8t20.5 -10l185 -201q96 -106 96 -250v-917q0 -143 -96 -250l-185 -201q-10 -10 -20 -10t-19 8l-84 72q-20 16 -4 37l164 184q66 70 66 168v901q0 98 -66 168l-164 184q-16 21 4 37z" />
    <glyph glyph-name="asterisk" unicode="*" 
d="M653 1165l224 92q2 0 6 1.5t6 1.5q16 0 22 -19l29 -84q6 -27 -18 -33l-234 -59l154 -184q16 -20 -4 -37l-74 -53q-10 -6 -16 -7q-10 0 -21 13l-127 204l-129 -204q-6 -12 -20 -13q-6 0 -17 7l-72 51q-20 16 -4 37l154 184l-233 59q-25 6 -19 33l29 84q6 18 22 18
q2 0 6.5 -1t6.5 -1l223 -90l-17 242q-4 27 25 27h88q27 0 27 -27z" />
    <glyph glyph-name="plus" unicode="+" 
d="M504 645h-213q-37 0 -37 37v88q0 35 37 35h213v215q0 35 35 35h90q35 0 35 -35v-215h213q37 0 36 -35v-88q0 -37 -36 -37h-213v-213q0 -37 -35 -37h-90q-35 0 -35 37v213z" />
    <glyph glyph-name="comma" unicode="," 
d="M510 -264h-94q-43 0 -37 45l82 430q6 53 63 53h135q25 0 36.5 -14t2.5 -37l-131 -434q-12 -43 -57 -43z" />
    <glyph glyph-name="hyphen" unicode="-" 
d="M358 580v90q0 27 27 26h397q27 0 27 -26v-90q0 -27 -27 -27h-397q-27 0 -27 27z" />
    <glyph glyph-name="period" unicode="." 
d="M455 53v160q0 23 15 38t38 15h151q23 0 38.5 -15t15.5 -38v-160q0 -23 -15.5 -38t-38.5 -15h-151q-23 0 -38 15t-15 38z" />
    <glyph glyph-name="slash" unicode="/" 
d="M195 -240l643 1758q6 18 24 18q6 0 10 -2l82 -31q27 -12 17 -35l-641 -1757q-6 -18 -25 -18q-6 0 -10 2l-84 31q-22 9 -16 34z" />
    <glyph glyph-name="zero" unicode="0" 
d="M330 297q0 -59 35.5 -94t93.5 -35h250q57 0 93 35t36 94v842q0 57 -36 92t-93 35h-250q-57 0 -93 -35t-36 -92v-842zM154 313v807q0 145 88 234.5t233 89.5h217q145 0 233.5 -89t88.5 -235v-807q0 -145 -88 -234t-234 -89h-217q-145 0 -233 89t-88 234zM463 647v139
q0 25 15.5 40.5t39.5 15.5h131q53 0 53 -56v-139q0 -55 -53 -55h-131q-25 0 -40 15t-15 40z" />
    <glyph glyph-name="one" unicode="1" 
d="M207 37v96q0 37 35 37h319v1063l-321 -125q-6 -2 -13 -2q-23 0 -22 27v106q0 37 35 47l352 135q31 12 70 13h40q37 0 37 -35v-1229h320q35 0 35 -37v-96q0 -37 -35 -37h-817q-35 0 -35 37z" />
    <glyph glyph-name="two" unicode="2" 
d="M154 37v268q0 55 29.5 107.5t76.5 83.5l528 335q39 29 39 70v238q0 57 -35.5 92t-93.5 35h-247q-57 0 -92 -35t-35 -92v-99q0 -37 -37 -36h-107q-35 0 -35 36v80q0 145 88.5 234.5t233.5 89.5h215q145 0 234.5 -89t89.5 -235v-241q0 -55 -30 -107.5t-77 -83.5l-530 -336
q-37 -27 -37 -69v-105h649q35 0 35 -37v-104q0 -37 -35 -37h-793q-34 0 -34 37z" />
    <glyph glyph-name="three" unicode="3" 
d="M299 1020h-106q-35 0 -35 37v63q0 145 89 233.5t232 88.5h201q143 0 232 -88t89 -234v-137q0 -162 -131 -240q143 -76 144 -245v-185q0 -145 -88 -234t-234 -89h-215q-145 0 -233 89t-88 234v64q0 35 34 35h107q37 0 37 -35v-80q0 -57 34.5 -93t92.5 -36h248q57 0 92 36
t35 93v227q0 57 -35 92t-92 35h-191q-35 0 -35 37v105q0 37 35 36h174q59 0 96 35t37 92v181q0 59 -35.5 94t-93.5 35h-233q-57 0 -93 -35t-36 -94v-80q0 -37 -35 -37z" />
    <glyph glyph-name="four" unicode="4" 
d="M748 37v250h-601q-37 0 -36 37v53q0 37 16 69l442 955q12 33 49 33h127q33 0 21 -33l-436 -936h418v334q0 37 34 37h107q37 0 37 -37v-334h114q35 0 35 -37v-104q0 -37 -35 -37h-114v-250q0 -37 -37 -37h-107q-34 0 -34 37z" />
    <glyph glyph-name="five" unicode="5" 
d="M154 313v72q0 27 26 27h123q29 0 29 -27v-88q0 -57 34.5 -93t92.5 -36h250q57 0 92 36t35 93v319q0 57 -36 92t-93 35h-459q-37 0 -37 37v619q0 35 37 35h665q27 0 27 -27v-123q0 -29 -27 -29h-524v-333h297q147 0 237.5 -89.5t90.5 -234.5v-285q0 -145 -88 -234
t-234 -89h-215q-145 0 -234 89t-89 234z" />
    <glyph glyph-name="six" unicode="6" 
d="M330 582v-285q0 -57 35.5 -92t93.5 -35h248q57 0 93 35t36 92v285q0 57 -35 93t-94 36h-248q-57 0 -93 -36t-36 -93zM475 1444h197q143 0 232 -89t89 -233v-30q0 -35 -35 -35h-106q-37 0 -37 35v47q0 57 -35 93t-92 36h-229q-57 0 -93 -36t-36 -93v-287q68 37 145 37h215
q145 0 234.5 -89t89.5 -235v-252q0 -145 -89 -233t-235 -88h-215q-143 0 -232 88t-89 233v809q0 143 89 232.5t232 89.5z" />
    <glyph glyph-name="seven" unicode="7" 
d="M141 1434h875q37 0 37 -35v-78q0 -35 -19 -68l-368 -686q-16 -33 -17 -67v-463q0 -37 -37 -37h-106q-35 0 -35 37v506q0 39 18 69l349 654h-697q-35 0 -35 34v99q0 35 35 35z" />
    <glyph glyph-name="eight" unicode="8" 
d="M334 547v-260q0 -57 34.5 -92t92.5 -35h246q57 0 93 34.5t36 92.5v260q0 57 -35 93t-92 36h-248q-57 0 -92 -36t-35 -93zM354 1145v-164q0 -59 36 -94t93 -35h205q57 0 92 36t35 93v164q0 59 -35 94t-94 35h-203q-57 0 -93 -35t-36 -94zM178 1006v114q0 145 89 233.5
t233 88.5h170q145 0 233 -88t88 -234v-114q0 -158 -125 -236q145 -78 146 -248v-209q0 -145 -88 -234t-234 -89h-213q-145 0 -233 89t-88 234v209q0 172 145 248q-123 78 -123 236z" />
    <glyph glyph-name="nine" unicode="9" 
d="M709 1266h-250q-57 0 -92 -35t-35 -92v-277q0 -57 34.5 -92t92.5 -35h250q57 0 92 35t35 92v277q0 57 -35 92t-92 35zM154 881v239q0 145 89 234.5t234 89.5h215q145 0 233.5 -89t88.5 -235v-807q0 -145 -88 -234t-234 -89h-215q-145 0 -234 89t-89 234v31q0 35 36 35
h107q35 0 35 -35v-47q0 -59 34.5 -94t94.5 -35h248q57 0 92 36t35 93v295q-59 -35 -144 -35h-215q-145 0 -234 89.5t-89 234.5z" />
    <glyph glyph-name="colon" unicode=":" 
d="M455 53v160q0 23 15 38t38 15h151q23 0 38.5 -15t15.5 -38v-160q0 -23 -15.5 -38t-38.5 -15h-151q-23 0 -38 15t-15 38zM455 913v160q0 25 15 39t38 14h151q23 0 38.5 -14t15.5 -39v-160q0 -23 -15.5 -38t-38.5 -15h-151q-23 0 -38 15t-15 38z" />
    <glyph glyph-name="semicolon" unicode=";" 
d="M455 913v160q0 25 15 39t38 14h151q23 0 38.5 -14t15.5 -39v-160q0 -23 -15.5 -38t-38.5 -15h-151q-23 0 -38 15t-15 38zM510 -264h-94q-43 0 -37 45l82 430q6 53 63 53h135q25 0 36.5 -14t2.5 -37l-131 -434q-12 -43 -57 -43z" />
    <glyph glyph-name="less" unicode="&#x3c;" 
d="M895 936l-383 -219l383 -219q31 -16 12 -49l-43 -78q-10 -18 -28 -19q-8 0 -19 6l-532 306q-31 16 -31 53t31 53l532 305q10 6 19 6q20 0 28 -18l43 -78q19 -33 -12 -49z" />
    <glyph glyph-name="equal" unicode="=" 
d="M254 520v90q0 35 37 35h586q37 0 36 -35v-90q0 -35 -36 -35h-586q-37 0 -37 35zM254 842v88q0 37 37 37h586q37 0 36 -37v-88q0 -37 -36 -37h-586q-37 0 -37 37z" />
    <glyph glyph-name="greater" unicode="&#x3e;" 
d="M659 717l-380 219q-33 18 -15 49l43 78q8 18 29 18q12 0 20 -6l533 -305q29 -18 29 -53t-29 -53l-533 -306q-8 -6 -18 -6q-16 0 -31 19l-43 78q-18 31 15 49z" />
    <glyph glyph-name="question" unicode="?" 
d="M991 1161v-219q0 -59 -29.5 -114.5t-76.5 -88.5l-195 -137q-39 -27 -43 -78l-2 -53q-4 -35 -39 -35h-90q-37 0 -37 35l-2 80q-2 57 25.5 111.5t75.5 87.5l194 129q41 27 41 77v213q0 43 -26.5 70t-69.5 27h-271q-43 0 -68.5 -27t-25.5 -70v-139q0 -37 -35 -37h-106
q-35 0 -35 37v131q0 127 77 205t202 78h254q127 0 204.5 -78t77.5 -205zM440 53v160q0 53 54 53h149q55 0 55 -53v-160q0 -23 -15 -38t-40 -15h-149q-25 0 -39.5 15t-14.5 38z" />
    <glyph glyph-name="at" unicode="@" 
d="M547 338v389q-137 115 -209 115q-35 0 -63.5 -25.5t-28.5 -73.5v-421q0 -47 28.5 -73t63.5 -26q72 0 209 115zM547 899v49q0 35 35 35h98q35 0 35 -35v-647q0 -43 26.5 -69.5t69.5 -26.5h31q41 0 67.5 26.5t26.5 69.5v543q0 150 -89 240t-239 90h-495q-37 0 -37 36v72
q0 35 37 35h501q213 0 344.5 -130t131.5 -343v-543q0 -111 -69 -179.5t-179 -68.5h-47q-160 0 -224 129q-172 -119 -280 -119q-90 0 -151.5 73t-61.5 188v419q0 113 61.5 185.5t151.5 72.5q115 0 256 -102z" />
    <glyph glyph-name="A" unicode="A" 
d="M395 426h377l-174 584q-10 35 -10 102h-8q0 -68 -11 -102zM825 248h-481l-63 -213q-10 -35 -48 -35h-110q-37 0 -27 35l406 1364q10 35 47 35h72q35 0 45 -35l405 -1364q10 -35 -27 -35h-110q-37 0 -47 35z" />
    <glyph glyph-name="B" unicode="B" 
d="M877 272v275q0 43 -26 69.5t-67 26.5h-452v-465h450q43 0 69 25.5t26 68.5zM741 1255h-409v-436h409q43 0 70 26.5t27 69.5v246q0 43 -27 68.5t-70 25.5zM1055 496v-215q0 -125 -77 -203t-204 -78h-584q-37 0 -36 37v1362q0 35 36 35h543q127 0 205 -77t78 -204v-186
q0 -145 -101 -224q140 -73 140 -247z" />
    <glyph glyph-name="C" unicode="C" 
d="M872 436h107q35 0 35 -35v-129q0 -127 -77 -204.5t-204 -77.5h-297q-127 0 -204.5 77.5t-77.5 204.5v889q0 127 77.5 205t204.5 78h297q127 0 204 -78t77 -205v-129q0 -35 -35 -35h-107q-37 0 -36 35v137q0 43 -26 70t-69 27h-315q-43 0 -68.5 -27t-25.5 -70v-905
q0 -43 25.5 -69.5t68.5 -26.5h315q43 0 69 26.5t26 69.5v137q-1 35 36 35z" />
    <glyph glyph-name="D" unicode="D" 
d="M332 1255v-1077h409q43 0 69 25.5t26 68.5v889q0 43 -26 68.5t-69 25.5h-409zM154 37v1362q0 35 36 35h543q127 0 204 -78t77 -203v-870q0 -127 -77 -205t-204 -78h-543q-36 0 -36 37z" />
    <glyph glyph-name="E" unicode="E" 
d="M154 37v1362q0 35 36 35h789q35 0 35 -35v-107q0 -37 -35 -37h-647v-507h471q35 0 35 -37v-105q0 -37 -35 -37h-471v-391h647q35 0 35 -37v-104q0 -37 -35 -37h-789q-36 0 -36 37z" />
    <glyph glyph-name="F" unicode="F" 
d="M979 1255h-647v-507h471q35 0 35 -37v-105q0 -37 -35 -37h-471v-532q0 -37 -37 -37h-105q-37 0 -36 37v1362q0 35 36 35h789q35 0 35 -35v-107q0 -37 -35 -37z" />
    <glyph glyph-name="G" unicode="G" 
d="M553 614v105q0 37 37 37h389q35 0 35 -37v-447q0 -127 -77 -204.5t-204 -77.5h-297q-127 0 -204.5 77.5t-77.5 204.5v889q0 127 77.5 205t204.5 78h297q127 0 204 -78t77 -205v-129q0 -35 -35 -35h-107q-37 0 -36 35v137q0 43 -26 70t-69 27h-315q-43 0 -68.5 -27
t-25.5 -70v-905q0 -43 25.5 -69.5t68.5 -26.5h315q43 0 69 26.5t26 69.5v314h-246q-37 -1 -37 36z" />
    <glyph glyph-name="H" unicode="H" 
d="M154 37v1362q0 35 36 35h105q37 0 37 -35v-651h504v651q0 35 36 35h107q35 0 35 -35v-1362q0 -37 -35 -37h-107q-37 0 -36 37v532h-504v-532q0 -37 -37 -37h-105q-36 0 -36 37z" />
    <glyph glyph-name="I" unicode="I" 
d="M160 37v96q0 37 37 37h299v1096h-299q-37 0 -37 34v99q0 35 37 35h774q37 0 37 -35v-99q0 -35 -37 -34h-299v-1096h299q37 0 37 -37v-96q0 -37 -37 -37h-774q-37 0 -37 37z" />
    <glyph glyph-name="J" unicode="J" 
d="M420 1300v99q0 35 35 35h497q37 0 37 -35v-1127q0 -127 -77.5 -204.5t-204.5 -77.5h-273q-127 0 -203.5 77.5t-76.5 204.5v82q0 37 34 37h107q35 0 35 -37v-90q0 -43 26.5 -69.5t69.5 -26.5h291q43 0 68.5 26.5t25.5 69.5v1002h-356q-35 -1 -35 34z" />
    <glyph glyph-name="K" unicode="K" 
d="M524 662h-192v-625q0 -37 -37 -37h-105q-37 0 -36 37v1362q0 35 36 35h105q37 0 37 -35v-570h194l328 574q16 31 53 31h133q37 0 17 -31l-383 -660l420 -712q16 -31 -19 -31h-133q-37 0 -53 31z" />
    <glyph glyph-name="L" unicode="L" 
d="M344 180h633q35 0 35 -37v-106q0 -37 -35 -37h-774q-35 0 -35 37v1362q0 35 35 35h106q35 0 35 -35v-1219z" />
    <glyph glyph-name="M" unicode="M" 
d="M299 940v-903q0 -37 -37 -37h-96q-37 0 -37 37v1362q0 35 37 35h123q37 0 47 -35l231 -688q12 -37 13 -105h8q0 68 12 105l231 688q14 35 48 35h122q37 0 37 -35v-1362q0 -37 -37 -37h-96q-37 0 -37 37v903q0 12 13 104l-9 3q-8 -70 -20 -105l-203 -590q-10 -33 -47 -33
h-37q-37 0 -47 33l-203 590q-12 35 -20 102h-8q12 -92 12 -104z" />
    <glyph glyph-name="N" unicode="N" 
d="M332 954v-917q0 -37 -35 -37h-107q-37 0 -36 37v1362q0 35 36 35h72q37 0 53 -31l496 -936q20 -43 33 -100l8 2q-16 61 -16 104v926q0 35 34 35h107q37 0 37 -35v-1362q0 -37 -37 -37h-72q-37 0 -53 31l-496 930q-23 43 -32 98l-9 -2q17 -62 17 -103z" />
    <glyph glyph-name="O" unicode="O" 
d="M328 1169v-905q0 -43 26.5 -69.5t69.5 -26.5h319q43 0 70 26.5t27 69.5v905q0 43 -27 70t-70 27h-319q-43 0 -69.5 -27t-26.5 -70zM150 272v889q0 127 77.5 205t204.5 78h303q127 0 205 -78t78 -205v-889q0 -127 -78 -204.5t-205 -77.5h-303q-127 0 -204.5 77.5
t-77.5 204.5z" />
    <glyph glyph-name="P" unicode="P" 
d="M752 1255h-420v-518h420q43 0 69.5 25.5t26.5 68.5v330q0 43 -26.5 68.5t-69.5 25.5zM743 559h-411v-522q0 -37 -37 -37h-107q-35 0 -34 37v1362q0 35 34 35h555q127 0 205 -77t78 -204v-313q0 -127 -78 -204t-205 -77z" />
    <glyph glyph-name="Q" unicode="Q" 
d="M328 1169v-897q0 -43 26.5 -69.5t69.5 -26.5h319q43 0 70 26.5t27 69.5v897q0 43 -27 70t-70 27h-319q-43 0 -69.5 -27t-26.5 -70zM872 -272h-104q-117 0 -189.5 66.5t-72.5 180.5v23h-74q-127 0 -204.5 78t-77.5 205v880q0 127 77.5 205t204.5 78h303q127 0 205 -78
t78 -205v-880q0 -127 -78 -205t-205 -78h-61v-31q0 -37 26.5 -58.5t67.5 -21.5h104q35 0 35 -37v-88q0 -34 -35 -34z" />
    <glyph glyph-name="R" unicode="R" 
d="M760 1255h-428v-512h428q43 0 68.5 27t25.5 70v321q0 43 -25.5 68.5t-68.5 25.5zM874 35l-208 530h-334v-528q0 -37 -37 -37h-105q-37 0 -36 37v1362q0 35 36 35h562q125 0 202.5 -78t77.5 -203v-305q0 -100 -49 -171t-135 -97l211 -545q10 -35 -27 -35h-112
q-32 0 -46 35z" />
    <glyph glyph-name="S" unicode="S" 
d="M170 1024v137q0 127 77 205t204 78h266q127 0 203.5 -78t76.5 -205v-129q0 -35 -34 -35h-107q-35 0 -35 35v137q0 43 -26.5 70t-69.5 27h-283q-43 0 -68.5 -27t-25.5 -70v-129q0 -49 41 -75l504 -334q49 -33 78.5 -87.5t29.5 -113.5v-160q0 -127 -77.5 -204.5
t-204.5 -77.5h-287q-125 0 -202.5 77.5t-77.5 204.5v129q0 37 34 37h107q35 0 35 -35v-137q0 -43 26.5 -69.5t69.5 -26.5h305q43 0 68.5 26.5t25.5 69.5v150q0 49 -41 75l-506 334q-47 33 -76.5 88.5t-29.5 112.5z" />
    <glyph glyph-name="T" unicode="T" 
d="M1065 1399v-107q0 -37 -35 -37h-358v-1218q0 -37 -35 -37h-107q-35 0 -34 37v1218h-357q-37 0 -37 37v107q0 35 37 35h891q35 0 35 -35z" />
    <glyph glyph-name="U" unicode="U" 
d="M881 1434h106q35 0 35 -35v-1127q0 -127 -77 -204.5t-204 -77.5h-315q-127 0 -204 77.5t-77 204.5v1127q0 35 35 35h107q37 0 37 -35v-1135q0 -43 25.5 -69.5t68.5 -26.5h332q43 0 69.5 26.5t26.5 69.5v1135q0 35 35 35z" />
    <glyph glyph-name="V" unicode="V" 
d="M934 1434h110q37 0 27 -35l-405 -1364q-10 -35 -45 -35h-72q-37 0 -47 35l-406 1364q-10 35 27 35h110q37 0 48 -35l288 -975q10 -37 11 -102h8q0 68 10 102l289 975q10 35 47 35z" />
    <glyph glyph-name="W" unicode="W" 
d="M668 1399l133 -926q4 -31 4 -104h6q0 74 4 104l137 926q6 35 41 35h111q35 0 29 -35l-244 -1364q-6 -35 -41 -35h-76q-37 0 -41 35l-139 893q-4 23 -4 106h-8q0 -74 -7 -106l-139 -893q-4 -35 -41 -35h-74q-37 0 -43 35l-243 1364q-6 35 30 35h109q35 0 41 -35l137 -926
q4 -31 4 -104h6q0 74 5 104l135 926q4 35 41 35h86q35 0 41 -35z" />
    <glyph glyph-name="X" unicode="X" 
d="M899 1434h129q35 0 19 -31l-351 -655l379 -715q12 -33 -20 -33h-127q-37 0 -54 33l-266 504q-20 41 -20 100h-8q0 -59 -21 -100l-268 -504q-12 -33 -51 -33h-127q-37 0 -21 33l377 715l-350 653q-16 33 20 33h127q37 0 53 -31l240 -445q20 -41 21 -100h8q0 59 20 100
l240 443q12 33 51 33z" />
    <glyph glyph-name="Y" unicode="Y" 
d="M1055 1401l-383 -842v-522q0 -37 -35 -37h-107q-35 0 -34 37v522l-383 842q-12 33 20 33h119q35 0 51 -33l260 -572q16 -41 17 -102h8q0 61 16 102l260 572q12 33 49 33h121q37 0 21 -33z" />
    <glyph glyph-name="Z" unicode="Z" 
d="M1018 141v-104q0 -37 -37 -37h-803q-37 0 -37 37v104q0 39 21 66l653 1048h-629q-35 0 -34 37v107q0 35 34 35h803q37 0 37 -35v-107q0 -39 -20 -65l-654 -1049h629q37 0 37 -37z" />
    <glyph glyph-name="bracketleft" unicode="[" 
d="M872 -307h-450q-27 0 -27 26v1790q0 27 27 27h450q27 0 27 -27v-106q0 -27 -27 -27h-301v-1523h301q27 0 27 -27v-107q0 -26 -27 -26z" />
    <glyph glyph-name="backslash" unicode="\" 
d="M330 1518l641 -1758q10 -25 -17 -34l-82 -31q-4 -2 -10 -2q-18 0 -24 18l-641 1757q-10 25 16 35l82 31q4 2 10 2q19 0 25 -18z" />
    <glyph glyph-name="bracketright" unicode="]" 
d="M745 -307h-450q-27 0 -27 26v107q0 27 27 27h301v1523h-301q-27 0 -27 27v106q0 27 27 27h450q29 0 29 -27v-1790q0 -26 -29 -26z" />
    <glyph glyph-name="asciicircum" unicode="^" 
d="M786 1024l-202 231l-203 -233q-12 -12 -27 -12q-12 0 -24 12l-64 61q-27 27 -2 52l242 274q25 25 61 25h33q37 0 62 -25l239 -272q29 -27 0 -52l-63 -61q-12 -12 -27 -12q-17 0 -25 12z" />
    <glyph glyph-name="underscore" unicode="_" 
d="M0 -307v178h1167v-178h-1167z" />
    <glyph glyph-name="grave" unicode="`" 
d="M641 1622l86 -174q10 -23 -14 -23h-70q-27 0 -45 19l-152 180q-25 20 7 21h147q29 0 41 -23z" />
    <glyph glyph-name="a" unicode="a" 
d="M819 268v244q-201 31 -282 31q-94 0 -149.5 -42t-55.5 -112v-110q0 -63 42 -100.5t111 -37.5q119 0 334 127zM162 281v106q0 135 104.5 218t276.5 83q72 0 276 -24v198q0 113 -96 113h-252q-96 0 -96 -113v-28q0 -37 -35 -37h-98q-35 0 -35 37v47q0 115 70.5 185.5
t185.5 70.5h270q115 0 185.5 -71t70.5 -185v-844q0 -37 -37 -37h-96q-37 0 -37 37v55q-184 -111 -350 -110q-137 0 -222 82t-85 217z" />
    <glyph glyph-name="b" unicode="b" 
d="M324 860v-594q236 -125 368 -125q70 0 112 38t42 97v576q0 59 -42 96t-112 37q-132 0 -368 -125zM190 1434h97q37 0 37 -35v-363q223 109 387 109q135 0 219 -79t84 -210v-584q0 -131 -84 -210.5t-219 -79.5q-164 0 -387 108v-53q0 -37 -37 -37h-97q-37 0 -36 37v1362
q-1 35 36 35z" />
    <glyph glyph-name="c" unicode="c" 
d="M410 152h348q39 0 62.5 23.5t23.5 62.5v98q0 37 37 37h96q37 0 37 -37v-90q0 -115 -71 -185.5t-185 -70.5h-348q-115 0 -185.5 70.5t-70.5 185.5v635q0 115 70.5 185.5t185.5 70.5h348q115 0 185.5 -71t70.5 -185v-90q0 -37 -37 -37h-96q-37 0 -37 37v98q0 39 -23.5 62.5
t-62.5 23.5h-348q-39 0 -63.5 -23.5t-24.5 -62.5v-651q0 -39 24.5 -62.5t63.5 -23.5z" />
    <glyph glyph-name="d" unicode="d" 
d="M846 266v594q-244 125 -371 125q-70 0 -110.5 -37t-40.5 -96v-576q0 -59 41 -97t110 -38q127 0 371 125zM881 1434h98q35 0 35 -35v-1362q0 -37 -35 -37h-98q-35 0 -35 37v53q-231 -109 -389 -108q-135 0 -219 79.5t-84 210.5v584q0 131 84 210t219 79q158 0 389 -109
v363q0 35 35 35z" />
    <glyph glyph-name="e" unicode="e" 
d="M758 975h-348q-39 0 -62.5 -23.5t-23.5 -62.5v-240h522v240q0 39 -23.5 62.5t-64.5 23.5zM979 489h-655v-249q0 -39 23.5 -63.5t62.5 -24.5h348q39 0 63.5 23.5t24.5 62.5v65q0 35 35 35h98q35 0 35 -35v-57q0 -115 -71 -185.5t-185 -70.5h-348q-115 0 -185.5 70.5
t-70.5 185.5v635q0 115 70.5 185.5t185.5 70.5h348q115 0 185.5 -71t70.5 -185v-355q0 -37 -35 -37z" />
    <glyph glyph-name="f" unicode="f" 
d="M170 1001v91q0 35 37 34h225v52q0 115 70.5 185.5t185.5 70.5h273q37 0 36 -35v-90q0 -35 -36 -35h-273q-41 0 -64.5 -24.5t-23.5 -63.5v-60h361q37 0 36 -34v-91q0 -35 -36 -34h-361v-930q0 -37 -35 -37h-98q-35 0 -35 37v930h-225q-37 -1 -37 34z" />
    <glyph glyph-name="g" unicode="g" 
d="M846 266v594q-244 125 -371 125q-70 0 -110.5 -38t-40.5 -101v-565q0 -63 41 -101.5t110 -38.5q127 0 371 125zM846 1036v56q0 35 35 34h98q35 0 35 -34v-1115q0 -158 -142.5 -230.5t-353.5 -72.5q-27 0 -66.5 2t-103 8.5t-105.5 20.5t-42 37v90q0 27 35 27q16 0 26 -2
q109 -20 242 -21q59 0 113.5 7t108.5 22.5t87 49.5t33 81v94q-231 -109 -383 -108q-139 0 -224 82.5t-85 218.5v563q0 135 85 217t224 82q152 0 383 -109z" />
    <glyph glyph-name="h" unicode="h" 
d="M190 1434h97q37 0 37 -35v-361q213 106 381 107q139 0 224 -82t85 -217v-811q0 -35 -35 -35h-98q-35 0 -35 35v811q0 63 -43 101t-115 38q-119 0 -364 -123v-825q0 -37 -37 -37h-97q-37 0 -36 37v1362q-1 35 36 35z" />
    <glyph glyph-name="i" unicode="i" 
d="M190 1010v82q0 35 35 34h447q35 0 35 -34v-940h313q35 0 35 -35v-80q0 -37 -35 -37h-795q-35 0 -35 37v80q0 35 35 35h314v823h-314q-35 0 -35 35zM446 1307v131q0 23 15.5 38t40.5 15h139q25 0 39 -15.5t14 -37.5v-131q0 -23 -14 -38.5t-39 -15.5h-139q-25 0 -40.5 15.5
t-15.5 38.5z" />
    <glyph glyph-name="j" unicode="j" 
d="M324 1126h534q37 0 37 -34v-1115q0 -158 -127 -230.5t-317 -72.5q-25 0 -65 2t-98.5 8.5t-98 21.5t-39.5 36v90q0 27 34 27q16 0 27 -2q109 -20 217 -21q74 0 135.5 11.5t111.5 49t50 99.5v979h-401q-35 0 -35 35v82q0 34 35 34zM690 1491h139q53 0 54 -53v-129
q0 -53 -54 -54h-139q-55 0 -55 54v129q0 53 55 53z" />
    <glyph glyph-name="k" unicode="k" 
d="M512 496h-188v-459q0 -37 -37 -37h-97q-37 0 -36 37v1362q0 35 36 35h97q37 0 37 -35v-744h188l313 439q23 33 45 32h127q18 0 25.5 -9t-0.5 -23l-369 -519l391 -542q8 -14 2 -23.5t-22 -9.5h-131q-20 0 -43 33z" />
    <glyph glyph-name="l" unicode="l" 
d="M186 1317v82q0 35 35 35h445q37 0 36 -35v-1247h314q35 0 35 -35v-80q0 -37 -35 -37h-795q-35 0 -35 37v80q0 35 35 35h311v1130h-311q-35 0 -35 35z" />
    <glyph glyph-name="m" unicode="m" 
d="M909 37v850q0 98 -75.5 98t-157.5 -98v-850q0 -37 -35 -37h-98q-35 0 -35 37v850q0 49 -22.5 73.5t-55.5 24.5q-61 0 -158 -92v-856q0 -37 -34 -37h-99q-35 0 -35 37v1055q0 35 35 34h99q35 0 34 -34v-31q113 84 203 84q106 0 166 -111q133 111 236 111q84 0 143 -73
t59 -185v-850q0 -37 -37 -37h-96q-37 0 -37 37z" />
    <glyph glyph-name="n" unicode="n" 
d="M190 1126h97q37 0 37 -34v-54q213 106 381 107q139 0 224 -82t85 -217v-811q0 -35 -35 -35h-98q-35 0 -35 35v811q0 63 -43 101t-115 38q-119 0 -364 -123v-825q0 -37 -37 -37h-97q-37 0 -36 37v1055q-1 34 36 34z" />
    <glyph glyph-name="o" unicode="o" 
d="M324 889v-651q0 -39 23.5 -62.5t62.5 -23.5h348q39 0 63.5 23.5t24.5 62.5v651q0 39 -24.5 62.5t-63.5 23.5h-348q-39 0 -62.5 -23.5t-23.5 -62.5zM154 246v635q0 115 70.5 185.5t185.5 70.5h348q115 0 185.5 -71t70.5 -185v-635q0 -115 -71 -185.5t-185 -70.5h-348
q-115 0 -185.5 70.5t-70.5 185.5z" />
    <glyph glyph-name="p" unicode="p" 
d="M324 860v-594q236 -125 368 -125q70 0 112 36t42 95v578q0 59 -42 97t-112 38q-132 0 -368 -125zM287 -307h-97q-37 0 -36 35v1364q0 35 36 34h97q37 0 37 -34v-56q223 109 385 109q137 0 221 -79t84 -210v-586q0 -131 -83 -209.5t-220 -78.5q-164 0 -387 108v-362
q0 -35 -37 -35z" />
    <glyph glyph-name="q" unicode="q" 
d="M846 266v594q-244 125 -371 125q-70 0 -110.5 -38t-40.5 -97v-578q0 -59 41 -95t110 -36q127 0 371 125zM979 -307h-98q-35 0 -35 35v362q-231 -109 -389 -108q-135 0 -219 78.5t-84 209.5v586q0 131 84 210t221 79q156 0 387 -109v56q0 35 35 34h98q35 0 35 -34v-1364
q0 -35 -35 -35z" />
    <glyph glyph-name="r" unicode="r" 
d="M891 117v-80q0 -37 -35 -37h-672q-35 0 -34 37v80q0 35 34 35h230v823h-221q-35 0 -35 35v82q0 35 35 34h354q35 0 35 -34v-115q260 166 446 166q35 0 35 -33l2 -117q0 -25 -35 -24q-160 0 -448 -178v-639h274q35 0 35 -35z" />
    <glyph glyph-name="s" unicode="s" 
d="M1014 352v-90q0 -123 -70 -197.5t-186 -74.5h-348q-115 0 -185.5 70.5t-70.5 185.5v90q0 37 36 37h97q37 0 37 -37v-72q0 -113 94 -112h332q96 0 96 124v56q0 55 -47 71l-504 193q-59 25 -95 80t-36 121v73q0 119 69.5 193t186.5 74h328q115 0 185.5 -71t70.5 -185v-90
q0 -37 -35 -37h-99q-35 0 -34 37v71q0 113 -97 113h-311q-94 0 -94 -121v-35q0 -55 45 -74l504 -192q59 -25 95 -80t36 -121z" />
    <glyph glyph-name="t" unicode="t" 
d="M154 1001v91q0 35 36 34h216v170q0 35 36 35h97q37 0 36 -35v-170h369q35 0 35 -34v-91q0 -35 -35 -34h-369v-721q0 -39 24 -62.5t63 -23.5h282q35 0 35 -37v-88q0 -37 -35 -37h-282q-115 0 -185.5 71.5t-70.5 186.5v711h-216q-36 -1 -36 34z" />
    <glyph glyph-name="u" unicode="u" 
d="M979 0h-98q-35 0 -35 37v51q-219 -106 -381 -106q-139 0 -225 82.5t-86 218.5v809q0 35 36 34h97q37 0 37 -34v-811q0 -63 43 -101.5t112 -38.5q113 0 367 123v828q0 35 35 34h98q35 0 35 -34v-1055q0 -37 -35 -37z" />
    <glyph glyph-name="v" unicode="v" 
d="M600 301l293 791q14 35 49 34h115q16 0 22 -9t0 -23l-403 -1061q-14 -33 -49 -33h-88q-35 0 -50 35l-401 1059q-6 14 0 23t23 9h112q37 0 47 -32l295 -793q14 -43 15 -104h6q0 61 14 104z" />
    <glyph glyph-name="w" unicode="w" 
d="M573 717l-139 -682q-6 -35 -41 -35h-90q-37 0 -43 35l-233 1057q-6 35 28 34h103q35 0 41 -34l141 -725q6 -31 6 -107h6q0 76 6 107l140 725q6 35 41 34h90q35 0 41 -34l139 -725q6 -31 6 -107h6q0 59 6 107l142 725q6 35 43 34h102q37 0 27 -34l-234 -1057
q-10 -35 -45 -35h-88q-37 0 -43 35l-137 682q-6 31 -6 106h-8q-1 -75 -7 -106z" />
    <glyph glyph-name="x" unicode="x" 
d="M600 737l256 361q23 29 55 28h131q35 0 15 -28l-375 -520l385 -549q10 -12 6 -20.5t-20 -8.5h-131q-35 0 -56 31l-268 389q-12 16 -12 49h-8q0 -31 -11 -49l-266 -389q-20 -31 -55 -31h-125q-37 0 -17 31l375 549l-366 518q-10 12 -5 20t21 8h127q35 0 55 -28l256 -361
q12 -16 13 -51h8q0 35 12 51z" />
    <glyph glyph-name="y" unicode="y" 
d="M385 -274l117 274l-414 1094q-6 14 0 23t23 9h112q37 0 47 -32l293 -793q14 -37 15 -104h8q0 61 14 104l293 791q14 35 49 34h115q16 0 22 -9t0 -23l-516 -1368q-10 -33 -47 -33h-108q-35 0 -23 33z" />
    <glyph glyph-name="z" unicode="z" 
d="M182 188l617 779h-596q-35 0 -35 34v91q0 35 35 34h776q37 0 37 -34v-91q0 -33 -23 -63l-620 -778h608q37 0 37 -35v-88q0 -37 -37 -37h-786q-35 0 -35 37v88q-1 36 22 63z" />
    <glyph glyph-name="braceleft" unicode="{" 
d="M883 1376h-121q-43 0 -68.5 -26.5t-25.5 -69.5v-430q0 -158 -117 -236q119 -76 119 -235v-430q0 -43 25.5 -69.5t68.5 -26.5h119q35 0 35 -35v-90q0 -35 -35 -35h-111q-127 0 -203.5 76.5t-76.5 203.5v457q0 43 -27 69.5t-68 26.5h-26q-37 0 -37 35v107q0 35 37 34h26
q43 0 67.5 27t24.5 70v456q0 125 77 203t204 78h113q35 0 35 -35v-90q0 -35 -35 -35z" />
    <glyph glyph-name="bar" unicode="|" 
d="M512 -281v1790q0 27 27 27h90q27 0 26 -27v-1790q0 -27 -26 -26h-90q-27 -1 -27 26z" />
    <glyph glyph-name="braceright" unicode="}" 
d="M287 -147h116q43 0 69 26.5t26 69.5v430q0 160 118 235q-117 78 -116 236v430q0 43 -25.5 69.5t-68.5 26.5h-119q-37 0 -37 35v90q0 35 37 35h110q127 0 204 -77t77 -204v-456q0 -43 25.5 -70t68.5 -27h25q37 0 37 -34v-107q0 -35 -37 -35h-25q-43 0 -69.5 -26.5
t-26.5 -69.5v-457q0 -127 -77 -203.5t-204 -76.5h-108q-37 0 -37 35v90q0 35 37 35z" />
    <glyph glyph-name="asciitilde" unicode="~" 
d="M256 676v106q0 29 23 43l51 31q49 31 110 31q51 0 84 -17l154 -65q25 -12 55 -12q37 0 74 20l82 53q8 4 12 4q10 0 10 -16v-109q0 -27 -22 -40l-51 -33q-49 -31 -111 -31q-45 0 -84 16l-154 68q-27 10 -55 10q-41 0 -74 -20l-81 -51q-4 -4 -13 -5q-10 1 -10 17z" />
    <glyph glyph-name="exclamdown" unicode="&#xa1;" 
d="M489 -254l15 893q0 23 14 38t39 15h51q25 0 40.5 -15t15.5 -38l14 -893q0 -53 -51 -53h-86q-52 0 -52 53zM455 913v160q0 53 55 53h149q53 0 54 -53v-160q0 -23 -14.5 -38t-39.5 -15h-149q-55 0 -55 53z" />
    <glyph glyph-name="cent" unicode="&#xa2;" 
d="M745 178h-92v-160q0 -29 -26 -28h-88q-29 0 -29 28v160h-92q-115 0 -185.5 70.5t-70.5 185.5v565q0 115 70.5 185.5t185.5 70.5h92v160q0 29 29 29h88q27 0 26 -29v-160h92q115 0 185.5 -70.5t70.5 -185.5v-88q0 -37 -34 -37h-97q-37 0 -36 37v99q0 39 -25 62.5t-64 23.5
h-327q-39 0 -62.5 -23.5t-23.5 -62.5v-584q0 -39 23.5 -63.5t62.5 -24.5h327q41 0 65 23.5t24 64.5v98q0 35 36 35h97q35 0 34 -35v-90q0 -115 -70.5 -185.5t-185.5 -70.5z" />
    <glyph glyph-name="sterling" unicode="&#xa3;" 
d="M90 37v104q0 37 35 37h149v391h-149q-35 0 -35 35v72q0 37 35 37h149v448q0 127 77 205t204 78h178q127 0 204 -78t77 -205v-129q0 -35 -35 -35h-107q-37 0 -36 35v137q0 43 -26 70t-69 27h-194q-43 0 -68.5 -27t-25.5 -70v-456h303q37 0 37 -37v-72q0 -35 -37 -35h-303
v-391h518q37 0 37 -37v-104q0 -37 -37 -37h-846q-35 0 -35 37z" />
    <glyph glyph-name="currency" unicode="&#xa4;" 
d="M307 716.5q0 -114.5 82 -195.5t194.5 -81t194.5 81t82 195.5t-82 195.5t-194.5 81t-194.5 -81t-82 -195.5zM944 469l109 -109q29 -25 0 -49l-62 -61q-12 -12 -24 -12q-14 0 -27 12l-109 106q-113 -76 -247 -75q-133 0 -248 75l-107 -108q-12 -12 -26 -12q-12 0 -25 12
l-61 63q-27 23 0 49l106 109q-76 115 -76 248t76 248l-108 108q-25 25 0 49l63 64q10 12 25 12q12 0 24 -12l109 -109q115 76 248 76q135 0 247 -76l109 109q12 12 25 12q14 0 26 -12l62 -62q25 -27 0 -51l-109 -108q78 -111 78 -248q0 -135 -78 -248z" />
    <glyph glyph-name="yen" unicode="&#xa5;" 
d="M246 229v70q0 37 37 37h213v125h-213q-37 0 -37 35v69q0 37 37 37h192l-362 799q-12 33 20 33h119q35 0 51 -33l260 -572q16 -41 17 -102h8q0 61 16 102l260 572q12 33 49 33h121q37 0 21 -33l-363 -799h195q35 0 35 -37v-69q0 -35 -35 -35h-215v-125h215q35 0 35 -37
v-70q0 -37 -35 -36h-215v-156q0 -37 -35 -37h-107q-35 0 -34 37v156h-213q-37 -1 -37 36z" />
    <glyph glyph-name="brokenbar" unicode="&#xa6;" 
d="M512 -281v779h143v-779q0 -27 -26 -26h-90q-27 -1 -27 26zM655 1509v-778h-143v778q0 27 27 27h90q26 0 26 -27z" />
    <glyph glyph-name="section" unicode="&#xa7;" 
d="M553 371l-258 215q-94 76 -94 192v410q0 115 69.5 185.5t186.5 70.5h254q115 0 185.5 -70.5t70.5 -185.5v-105q0 -35 -35 -34h-98q-35 0 -35 34v86q0 113 -97 113h-221q-51 0 -81.5 -30.5t-30.5 -82.5v-376q0 -47 39 -82l258 -213q20 -16 4 -37l-76 -86q-10 -10 -23 -10
q-10 0 -18 6zM623 973l249 -207q43 -33 69 -86t26 -107v-409q0 -115 -70 -185.5t-186 -70.5h-254q-115 0 -185.5 70.5t-70.5 185.5v104q0 35 35 35h98q35 0 35 -35v-88q0 -51 30.5 -81.5t81.5 -30.5h205q51 0 82 30.5t31 81.5v379q0 47 -39 80l-250 209q-18 16 -2 37l76 86
q10 10 20.5 10t18.5 -8z" />
    <glyph glyph-name="dieresis" unicode="&#xa8;" 
d="M676 1493v51q0 55 55 55h51q55 0 56 -55v-51q0 -55 -56 -55h-51q-55 0 -55 55zM330 1493v51q0 55 57 55h51q55 0 56 -55v-51q0 -55 -56 -55h-51q-57 0 -57 55z" />
    <glyph glyph-name="copyright" unicode="&#xa9;" 
d="M178 1028v-622q0 -119 72 -191t190 -72h287q119 0 190.5 72t71.5 191v622q0 119 -71.5 190.5t-190.5 71.5h-287q-119 0 -190.5 -71.5t-71.5 -190.5zM35 406v622q0 182 111.5 294t293.5 112h287q182 0 294 -112t112 -294v-622q0 -182 -112 -294t-294 -112h-287
q-182 0 -293.5 112t-111.5 294zM561 408h62q47 0 74.5 28.5t27.5 75.5v47q0 35 37 35h80q37 0 37 -35v-39q0 -115 -71 -185.5t-185 -70.5h-62q-115 0 -185.5 71t-70.5 185v393q0 115 70.5 185.5t185.5 70.5h62q115 0 185.5 -70.5t70.5 -185.5v-36q0 -37 -37 -37h-80
q-37 0 -37 37v47q0 47 -28.5 74.5t-73.5 27.5h-62q-47 0 -75.5 -27.5t-28.5 -74.5v-412q0 -47 28.5 -75.5t75.5 -28.5z" />
    <glyph glyph-name="ordfeminine" unicode="&#xaa;" 
d="M725 887v141q-147 18 -170 19q-57 0 -92 -26t-35 -69v-63q0 -39 24.5 -61.5t65.5 -22.5q80 0 207 82zM303 889v63q0 90 69.5 144.5t186.5 54.5q74 0 166 -12v114q0 68 -57 68h-154q-53 0 -53 -68v-14q0 -25 -29 -25h-72q-25 0 -24 25v29q0 78 47 125t125 47h168
q78 0 125 -48.5t47 -123.5v-541q0 -27 -27 -27h-71q-25 0 -25 27v31q-123 -70 -219 -70q-90 0 -146.5 55.5t-56.5 145.5z" />
    <glyph glyph-name="guillemotleft" unicode="&#xab;" 
d="M578 903l-283 -278l283 -279q25 -25 0 -49l-52 -53q-14 -10 -26 -11q-10 0 -25 11l-309 305q-25 25 -25 61v31q0 35 25 59l309 306q14 10 25 10q12 0 26 -10l52 -52q25 -26 0 -51zM997 903l-282 -278l282 -279q27 -25 2 -49l-53 -53q-10 -10 -24.5 -10.5t-24.5 10.5
l-309 305q-25 23 -25 61v31q0 39 25 59l309 306q10 10 25 10q12 0 26 -10l49 -52q27 -26 0 -51z" />
    <glyph glyph-name="logicalnot" unicode="&#xac;" 
d="M254 743v88q0 35 37 35h586q37 0 36 -35v-272q0 -37 -36 -37h-89q-37 0 -36 37v148h-461q-37 -1 -37 36z" />
    <glyph glyph-name="uni00AD" unicode="&#xad;" 
d="M358 580v90q0 27 27 26h397q27 0 27 -26v-90q0 -27 -27 -27h-397q-27 0 -27 27z" />
    <glyph glyph-name="registered" unicode="&#xae;" 
d="M178 1028v-622q0 -119 72 -191t190 -72h287q119 0 190.5 72t71.5 191v622q0 119 -71.5 190.5t-190.5 71.5h-287q-119 0 -190.5 -71.5t-71.5 -190.5zM647 1018h-201v-281h201q43 0 69.5 18.5t26.5 51.5v141q0 31 -26.5 50.5t-69.5 19.5zM35 406v622q0 182 111.5 294
t293.5 112h287q182 0 294 -112t112 -294v-622q0 -182 -112 -294t-294 -112h-287q-182 0 -293.5 112t-111.5 294zM760 295l-142 289h-172v-287q0 -31 -30 -31h-90q-31 0 -31 31v842q0 31 31 30h313q117 0 186.5 -63.5t69.5 -165.5v-125q0 -145 -125 -205l145 -315
q6 -12 0 -20.5t-20 -8.5h-96q-25 0 -39 29z" />
    <glyph glyph-name="macron" unicode="&#xaf;" 
d="M391 1491v63q0 29 27 29h332q27 0 26 -29v-63q0 -27 -26 -27h-332q-27 0 -27 27z" />
    <glyph glyph-name="degree" unicode="&#xb0;" 
d="M348 1217q0 98 69.5 166.5t166 68.5t166 -68.5t69.5 -166.5q0 -96 -69.5 -166t-166 -70t-166 70t-69.5 166zM477 1217q0 -43 32 -74t75 -31t74.5 31t31.5 74t-31.5 74.5t-74.5 31.5t-75 -31.5t-32 -74.5z" />
    <glyph glyph-name="plusminus" unicode="&#xb1;" 
d="M254 760v88q0 37 37 37h213v213q0 35 35 35h90q35 0 35 -35v-213h213q37 0 36 -37v-88q0 -37 -36 -37h-213v-213q0 -35 -35 -35h-90q-35 0 -35 35v213h-213q-37 0 -37 37zM254 238v88q0 37 37 36h586q37 0 36 -36v-88q0 -37 -36 -37h-586q-37 0 -37 37z" />
    <glyph glyph-name="uni00B2" unicode="&#xb2;" 
d="M360 739v144q0 66 60 104l256 150q18 8 18 30v111q0 23 -15 38t-38 15h-123q-23 0 -37 -15.5t-14 -37.5v-53q0 -20 -23 -21h-65q-23 0 -23 21v43q0 78 48.5 125t125.5 47h101q78 0 125 -47t47 -125v-115q0 -72 -62 -106l-256 -150q-14 -8 -14 -29v-43h313q20 0 21 -20
v-66q0 -23 -21 -22h-401q-23 -1 -23 22z" />
    <glyph glyph-name="uni00B3" unicode="&#xb3;" 
d="M449 1214h-66q-23 0 -23 23v29q0 78 48.5 126t126.5 48h96q78 0 125 -48.5t47 -125.5v-58q0 -80 -66 -123q70 -39 70 -122v-78q0 -78 -47 -126t-125 -48h-98q-78 0 -126.5 48t-48.5 126v30q0 23 23 23h66q23 0 22 -23v-43q0 -51 51 -51h121q53 0 53 51v105q0 53 -53 53
h-94q-20 0 -21 23v65q0 20 21 21h88q25 0 40 15t15 38v86q0 23 -15 37t-38 14h-119q-51 0 -51 -51v-41q1 -23 -22 -23z" />
    <glyph glyph-name="acute" unicode="&#xb4;" 
d="M440 1448l86 174q12 23 41 23h148q25 0 8 -21l-154 -180q-18 -18 -45 -19h-69q-25 0 -15 23z" />
    <glyph glyph-name="paragraph" unicode="&#xb6;" 
d="M838 -272v1527h-160v-1527q0 -35 -35 -35h-106q-35 0 -35 35v835h-78q-125 0 -203 77t-78 204v309q0 125 78 203t203 78h555q37 0 37 -35v-1671q0 -35 -37 -35h-105q-36 0 -36 35z" />
    <glyph glyph-name="periodcentered" unicode="&#xb7;" 
d="M455 637v160q0 25 15 39t38 14h151q23 0 38.5 -14.5t15.5 -38.5v-160q0 -23 -15.5 -38t-38.5 -15h-151q-23 0 -38 15t-15 38z" />
    <glyph glyph-name="cedilla" unicode="&#xb8;" 
d="M711 -156v-47q0 -43 -27 -69.5t-70 -26.5h-131q-27 0 -26 27v28q0 27 26 27h105q31 0 30 31v14q0 31 -30 31h-47q-53 0 -43 51l18 98h100l-12 -65h10q43 0 70 -27t27 -72z" />
    <glyph glyph-name="uni00B9" unicode="&#xb9;" 
d="M424 739v60q0 23 20 22h152v490l-152 -51q-2 -2 -8 -3q-12 0 -12 17v65q0 25 18 29l174 57q25 8 41 9h27q20 0 21 -23v-590h151q20 0 21 -22v-60q0 -23 -21 -22h-412q-20 -1 -20 22z" />
    <glyph glyph-name="ordmasculine" unicode="&#xba;" 
d="M424 1274v-414q0 -47 47 -47h227q45 0 45 47v414q0 47 -45 47h-227q-47 0 -47 -47zM299 866v402q0 78 47 125t125 47h227q76 0 123 -47t47 -125v-402q0 -78 -46 -125t-124 -47h-227q-78 0 -125 47t-47 125z" />
    <glyph glyph-name="guillemotright" unicode="&#xbb;" 
d="M872 625l-282 278q-27 25 0 51l51 52q14 10 25 10q12 0 26 -10l307 -306q27 -23 27 -59v-31q0 -39 -27 -61l-307 -305q-14 -10 -26 -11q-10 0 -25 11l-51 53q-29 25 0 49zM451 625l-283 278q-25 25 0 51l51 52q14 10 27 10q10 0 24 -10l310 -306q25 -25 24 -59v-31
q0 -37 -24 -61l-310 -305q-14 -10 -24 -11q-12 0 -27 11l-51 53q-25 25 0 49z" />
    <glyph glyph-name="onequarter" unicode="&#xbc;" 
d="M61 434l969 610q10 6 17 7q10 0 20 -15l49 -73q12 -27 -10 -39l-967 -611q-8 -6 -16 -6q-12 0 -21 15l-49 73q-17 25 8 39zM979 637l-207 -418h176v168q0 20 21 21h67q18 0 19 -21v-168h49q23 0 22 -22v-64q0 -23 -22 -22h-49v-88q0 -23 -19 -23h-67q-20 0 -21 23v88
h-291q-20 0 -20 22v33q0 25 8 41l213 430q10 20 31 20h76q20 0 14 -20zM51 817v60q0 23 21 22h151v412l-151 -51q-2 -2 -9 -3q-12 0 -12 17v65q0 25 21 29l174 57q20 8 39 9h26q23 0 23 -23v-512h149q20 0 21 -22v-60q0 -23 -21 -22h-411q-21 -1 -21 22z" />
    <glyph glyph-name="onehalf" unicode="&#xbd;" 
d="M61 434l969 610q10 6 17 7q10 0 20 -15l49 -73q12 -27 -10 -39l-967 -611q-8 -6 -16 -6q-12 0 -21 15l-49 73q-17 25 8 39zM700 23v143q0 68 58 104l258 117q16 8 16 29v65q0 53 -51 54h-125q-23 0 -37 -14.5t-14 -39.5v-43q0 -20 -21 -20h-65q-23 0 -23 20v33
q0 78 47.5 126t124.5 48h101q78 0 126 -48t48 -126v-70q0 -68 -64 -104l-254 -117q-16 -6 -16 -28v-43h315q20 0 21 -21v-65q0 -23 -21 -23h-401q-23 0 -23 23zM51 817v60q0 23 21 22h151v412l-151 -51q-2 -2 -9 -3q-12 0 -12 17v65q0 25 21 29l174 57q20 8 39 9h26
q23 0 23 -23v-512h149q20 0 21 -22v-60q0 -23 -21 -22h-411q-21 -1 -21 22z" />
    <glyph glyph-name="threequarters" unicode="&#xbe;" 
d="M61 434l969 610q10 6 17 7q10 0 20 -15l49 -73q12 -27 -10 -39l-967 -611q-8 -6 -16 -6q-12 0 -21 15l-49 73q-17 25 8 39zM979 637l-207 -418h176v168q0 20 21 21h67q18 0 19 -21v-168h49q23 0 22 -22v-64q0 -23 -22 -22h-49v-88q0 -23 -19 -23h-67q-20 0 -21 23v88
h-291q-20 0 -20 22v33q0 25 8 41l213 430q10 20 31 20h76q20 0 14 -20zM137 1217h-65q-23 0 -23 22v29q0 78 47 126t125 48h98q78 0 125.5 -48t47.5 -126v-27q0 -80 -66 -123q70 -39 70 -123v-47q0 -78 -47.5 -126t-124.5 -48h-99q-78 0 -126 48t-48 126v31q0 23 23 22h65
q23 0 23 -22v-43q0 -51 51 -51h121q53 0 53 51v74q0 53 -53 53h-94q-23 0 -23 22v66q0 20 23 20h88q25 0 40 15.5t15 38.5v55q0 23 -15.5 37t-37.5 14h-119q-51 0 -51 -51v-41q0 -22 -23 -22z" />
    <glyph glyph-name="questiondown" unicode="&#xbf;" 
d="M176 -35v219q0 59 28.5 114.5t76.5 88.5l194 137q39 27 43 78l4 53q0 37 39 37h88q37 0 37 -37l4 -80q2 -57 -26.5 -111t-75.5 -87l-195 -129q-41 -27 -41 -78v-213q0 -43 27 -69.5t70 -26.5h270q43 0 68.5 26.5t25.5 69.5v141q0 35 35 35h106q37 0 37 -35v-133
q0 -127 -76.5 -204.5t-203.5 -77.5h-254q-127 0 -204 77.5t-77 204.5zM727 1073v-160q0 -23 -15.5 -38t-39.5 -15h-150q-25 0 -39 15.5t-14 37.5v160q0 53 53 53h150q55 0 55 -53z" />
    <glyph glyph-name="Agrave" unicode="&#xc0;" 
d="M395 426h377l-174 584q-10 35 -10 102h-8q0 -68 -11 -102zM825 248h-481l-63 -213q-10 -35 -48 -35h-110q-37 0 -27 35l406 1364q10 35 47 35h72q35 0 45 -35l405 -1364q10 -35 -27 -35h-110q-37 0 -47 35zM561 1706l86 -172q10 -23 -14 -23h-68q-29 0 -47 19l-151 180
q-20 20 8 21h147q29 0 39 -25z" />
    <glyph glyph-name="Aacute" unicode="&#xc1;" 
d="M395 426h377l-174 584q-10 35 -10 102h-8q0 -68 -11 -102zM825 248h-481l-63 -213q-10 -35 -48 -35h-110q-37 0 -27 35l406 1364q10 35 47 35h72q35 0 45 -35l405 -1364q10 -35 -27 -35h-110q-37 0 -47 35zM520 1534l86 172q10 25 39 25h148q25 0 8 -21l-152 -180
q-18 -18 -47 -19h-67q-25 0 -15 23z" />
    <glyph glyph-name="Acircumflex" unicode="&#xc2;" 
d="M395 426h377l-174 584q-10 35 -10 102h-8q0 -68 -11 -102zM825 248h-481l-63 -213q-10 -35 -48 -35h-110q-37 0 -27 35l406 1364q10 35 47 35h72q35 0 45 -35l405 -1364q10 -35 -27 -35h-110q-37 0 -47 35zM672 1698l121 -158q16 -20 -11 -20h-94q-29 0 -41 22l-63 90
l-66 -92q-16 -20 -45 -20h-88q-27 0 -10 20l123 158q14 23 43 22h86q27 1 45 -22z" />
    <glyph glyph-name="Atilde" unicode="&#xc3;" 
d="M395 426h377l-174 584q-10 35 -10 102h-8q0 -68 -11 -102zM825 248h-481l-63 -213q-10 -35 -48 -35h-110q-37 0 -27 35l406 1364q10 35 47 35h72q35 0 45 -35l405 -1364q10 -35 -27 -35h-110q-37 0 -47 35zM344 1546v70q0 39 50 61.5t95 22.5q41 0 76 -14l76 -35
q16 -8 43 -9q66 0 123 41l10 5q10 0 10 -17v-67q0 -41 -50 -62.5t-95 -21.5q-37 0 -76 16l-76 33q-20 10 -43 10q-61 0 -122 -43q-6 -6 -13 -6q-8 0 -8 16z" />
    <glyph glyph-name="Adieresis" unicode="&#xc4;" 
d="M395 426h377l-174 584q-10 35 -10 102h-8q0 -68 -11 -102zM825 248h-481l-63 -213q-10 -35 -48 -35h-110q-37 0 -27 35l406 1364q10 35 47 35h72q35 0 45 -35l405 -1364q10 -35 -27 -35h-110q-37 0 -47 35zM330 1577v53q0 25 15 40.5t42 15.5h51q55 0 56 -56v-53
q0 -55 -56 -55h-51q-27 0 -42 15t-15 40zM676 1577v53q0 55 55 56h51q25 0 40.5 -15.5t15.5 -40.5v-53q0 -25 -15.5 -40t-40.5 -15h-51q-55 0 -55 55z" />
    <glyph glyph-name="Aring" unicode="&#xc5;" 
d="M395 426h377l-174 584q-10 35 -10 102h-8q0 -68 -11 -102zM516 1655q0 -29 20.5 -49.5t47 -20.5t47 20.5t20.5 49.5q0 27 -20.5 47t-47 20t-47 -20t-20.5 -47zM825 248h-481l-63 -213q-10 -35 -48 -35h-110q-37 0 -27 35l406 1364q10 35 47 35h72q35 0 45 -35l405 -1364
q10 -35 -27 -35h-110q-37 0 -47 35zM430 1654.5q0 63.5 45 108.5t108.5 45t108.5 -45t45 -108.5t-45 -108.5t-108.5 -45t-108.5 45t-45 108.5z" />
    <glyph glyph-name="AE" unicode="&#xc6;" 
d="M360 426h238v657q0 43 12 105h-4q-10 -47 -24 -101zM598 248h-297l-70 -213q-14 -35 -45 -35h-118q-16 0 -24.5 10t-2.5 25l481 1364q10 35 45 35h500q35 0 35 -35v-107q0 -37 -35 -37h-291v-507h199q37 0 37 -37v-105q0 -37 -37 -37h-199v-391h291q35 0 35 -37v-104
q0 -37 -35 -37h-432q-37 0 -37 37v211z" />
    <glyph glyph-name="Ccedilla" unicode="&#xc7;" 
d="M711 -156v-47q0 -43 -27 -69.5t-70 -26.5h-131q-27 0 -26 27v28q0 27 26 27h105q31 0 30 31v14q0 31 -30 31h-47q-53 0 -43 51l14 80h-76q-127 0 -204.5 77.5t-77.5 204.5v889q0 127 77.5 205t204.5 78h297q127 0 204 -78t77 -205v-129q0 -35 -35 -35h-107q-37 0 -36 35
v137q0 43 -26 70t-69 27h-315q-43 0 -68.5 -27t-25.5 -70v-905q0 -43 25.5 -69.5t68.5 -26.5h315q43 0 69 26.5t26 69.5v137q0 35 36 35h107q35 0 35 -35v-129q0 -127 -77 -204.5t-204 -77.5h-119l-10 -47h10q43 0 70 -27t27 -72z" />
    <glyph glyph-name="Egrave" unicode="&#xc8;" 
d="M154 37v1362q0 35 36 35h789q35 0 35 -35v-107q0 -37 -35 -37h-647v-507h471q35 0 35 -37v-105q0 -37 -35 -37h-471v-391h647q35 0 35 -37v-104q0 -37 -35 -37h-789q-36 0 -36 37zM569 1706l86 -172q10 -23 -14 -23h-70q-31 0 -45 19l-151 180q-25 20 6 21h147
q27 0 41 -25z" />
    <glyph glyph-name="Eacute" unicode="&#xc9;" 
d="M154 37v1362q0 35 36 35h789q35 0 35 -35v-107q0 -37 -35 -37h-647v-507h471q35 0 35 -37v-105q0 -37 -35 -37h-471v-391h647q35 0 35 -37v-104q0 -37 -35 -37h-789q-36 0 -36 37zM492 1534l86 172q14 25 40 25h148q25 0 8 -21l-153 -180q-14 -18 -46 -19h-69
q-24 0 -14 23z" />
    <glyph glyph-name="Ecircumflex" unicode="&#xca;" 
d="M154 37v1362q0 35 36 35h789q35 0 35 -35v-107q0 -37 -35 -37h-647v-507h471q35 0 35 -37v-105q0 -37 -35 -37h-471v-391h647q35 0 35 -37v-104q0 -37 -35 -37h-789q-36 0 -36 37zM662 1698l120 -158q16 -20 -10 -20h-94q-29 0 -41 22l-64 90l-65 -92q-16 -20 -45 -20
h-88q-27 0 -10 20l122 158q14 23 43 22h86q28 1 46 -22z" />
    <glyph glyph-name="Edieresis" unicode="&#xcb;" 
d="M154 37v1362q0 35 36 35h789q35 0 35 -35v-107q0 -37 -35 -37h-647v-507h471q35 0 35 -37v-105q0 -37 -35 -37h-471v-391h647q35 0 35 -37v-104q0 -37 -35 -37h-789q-36 0 -36 37zM666 1577v53q0 55 55 56h51q25 0 40 -15.5t15 -40.5v-53q0 -25 -15 -40t-40 -15h-51
q-55 0 -55 55zM319 1577v53q0 25 15.5 40.5t42.5 15.5h51q55 0 55 -56v-53q0 -55 -55 -55h-51q-27 0 -42.5 15t-15.5 40z" />
    <glyph glyph-name="Igrave" unicode="&#xcc;" 
d="M160 37v96q0 37 37 37h299v1096h-299q-37 0 -37 34v99q0 35 37 35h774q37 0 37 -35v-99q0 -35 -37 -34h-299v-1096h299q37 0 37 -37v-96q0 -37 -37 -37h-774q-37 0 -37 37zM580 1706l86 -172q10 -23 -15 -23h-69q-29 0 -45 19l-152 180q-25 20 6 21h148q27 0 41 -25z" />
    <glyph glyph-name="Iacute" unicode="&#xcd;" 
d="M160 37v96q0 37 37 37h299v1096h-299q-37 0 -37 34v99q0 35 37 35h774q37 0 37 -35v-99q0 -35 -37 -34h-299v-1096h299q37 0 37 -37v-96q0 -37 -37 -37h-774q-37 0 -37 37zM502 1534l86 172q14 25 41 25h147q25 0 8 -21l-153 -180q-16 -18 -45 -19h-70q-24 0 -14 23z" />
    <glyph glyph-name="Icircumflex" unicode="&#xce;" 
d="M160 37v96q0 37 37 37h299v1096h-299q-37 0 -37 34v99q0 35 37 35h774q37 0 37 -35v-99q0 -35 -37 -34h-299v-1096h299q37 0 37 -37v-96q0 -37 -37 -37h-774q-37 0 -37 37zM672 1698l121 -158q16 -20 -11 -20h-94q-29 0 -41 22l-63 90l-66 -92q-16 -20 -45 -20h-88
q-27 0 -10 20l123 158q14 23 43 22h86q27 1 45 -22z" />
    <glyph glyph-name="Idieresis" unicode="&#xcf;" 
d="M160 37v96q0 37 37 37h299v1096h-299q-37 0 -37 34v99q0 35 37 35h774q37 0 37 -35v-99q0 -35 -37 -34h-299v-1096h299q37 0 37 -37v-96q0 -37 -37 -37h-774q-37 0 -37 37zM330 1577v53q0 25 15 40.5t42 15.5h51q55 0 56 -56v-53q0 -55 -56 -55h-51q-27 0 -42 15t-15 40z
M676 1577v53q0 55 55 56h51q25 0 40.5 -15.5t15.5 -40.5v-53q0 -25 -15.5 -40t-40.5 -15h-51q-55 0 -55 55z" />
    <glyph glyph-name="Eth" unicode="&#xd0;" 
d="M547 651h-215v-473h409q43 0 69 25.5t26 68.5v889q0 43 -26 68.5t-69 25.5h-409v-460h215q35 0 35 -35v-72q0 -37 -35 -37zM16 688v72q0 35 37 35h101v604q0 35 36 35h543q127 0 204 -78t77 -203v-870q0 -127 -77 -205t-204 -78h-543q-37 0 -36 37v614h-101q-37 0 -37 37
z" />
    <glyph glyph-name="Ntilde" unicode="&#xd1;" 
d="M332 954v-917q0 -37 -35 -37h-107q-37 0 -36 37v1362q0 35 36 35h72q37 0 53 -31l496 -936q20 -43 33 -100l8 2q-16 61 -16 104v926q0 35 34 35h107q37 0 37 -35v-1362q0 -37 -37 -37h-72q-37 0 -53 31l-496 930q-23 43 -32 98l-9 -2q17 -62 17 -103zM344 1546v70
q0 39 50 61.5t95.5 22.5t75.5 -14l76 -35q16 -8 45 -9q63 0 121 41q8 4 12 5q10 0 10 -17v-67q0 -41 -50 -62.5t-95 -21.5q-39 0 -78 16l-74 33q-25 10 -45 10q-63 0 -120 -43q-10 -6 -13 -6q-10 0 -10 16z" />
    <glyph glyph-name="Ograve" unicode="&#xd2;" 
d="M328 1169v-905q0 -43 26.5 -69.5t69.5 -26.5h319q43 0 70 26.5t27 69.5v905q0 43 -27 70t-70 27h-319q-43 0 -69.5 -27t-26.5 -70zM150 272v889q0 127 77.5 205t204.5 78h303q127 0 205 -78t78 -205v-889q0 -127 -78 -204.5t-205 -77.5h-303q-127 0 -204.5 77.5
t-77.5 204.5zM580 1706l86 -172q10 -23 -15 -23h-69q-29 0 -45 19l-152 180q-25 20 6 21h148q27 0 41 -25z" />
    <glyph glyph-name="Oacute" unicode="&#xd3;" 
d="M328 1169v-905q0 -43 26.5 -69.5t69.5 -26.5h319q43 0 70 26.5t27 69.5v905q0 43 -27 70t-70 27h-319q-43 0 -69.5 -27t-26.5 -70zM150 272v889q0 127 77.5 205t204.5 78h303q127 0 205 -78t78 -205v-889q0 -127 -78 -204.5t-205 -77.5h-303q-127 0 -204.5 77.5
t-77.5 204.5zM502 1534l86 172q14 25 41 25h147q25 0 8 -21l-153 -180q-16 -18 -45 -19h-70q-24 0 -14 23z" />
    <glyph glyph-name="Ocircumflex" unicode="&#xd4;" 
d="M328 1169v-905q0 -43 26.5 -69.5t69.5 -26.5h319q43 0 70 26.5t27 69.5v905q0 43 -27 70t-70 27h-319q-43 0 -69.5 -27t-26.5 -70zM150 272v889q0 127 77.5 205t204.5 78h303q127 0 205 -78t78 -205v-889q0 -127 -78 -204.5t-205 -77.5h-303q-127 0 -204.5 77.5
t-77.5 204.5zM672 1698l121 -158q16 -20 -11 -20h-94q-29 0 -41 22l-63 90l-66 -92q-16 -20 -45 -20h-88q-27 0 -10 20l123 158q14 23 43 22h86q27 1 45 -22z" />
    <glyph glyph-name="Otilde" unicode="&#xd5;" 
d="M328 1169v-905q0 -43 26.5 -69.5t69.5 -26.5h319q43 0 70 26.5t27 69.5v905q0 43 -27 70t-70 27h-319q-43 0 -69.5 -27t-26.5 -70zM150 272v889q0 127 77.5 205t204.5 78h303q127 0 205 -78t78 -205v-889q0 -127 -78 -204.5t-205 -77.5h-303q-127 0 -204.5 77.5
t-77.5 204.5zM344 1546v70q0 39 50 61.5t95 22.5q41 0 76 -14l76 -35q16 -8 43 -9q66 0 123 41l10 5q10 0 10 -17v-67q0 -41 -50 -62.5t-95 -21.5q-37 0 -76 16l-76 33q-20 10 -43 10q-61 0 -122 -43q-6 -6 -13 -6q-8 0 -8 16z" />
    <glyph glyph-name="Odieresis" unicode="&#xd6;" 
d="M328 1169v-905q0 -43 26.5 -69.5t69.5 -26.5h319q43 0 70 26.5t27 69.5v905q0 43 -27 70t-70 27h-319q-43 0 -69.5 -27t-26.5 -70zM150 272v889q0 127 77.5 205t204.5 78h303q127 0 205 -78t78 -205v-889q0 -127 -78 -204.5t-205 -77.5h-303q-127 0 -204.5 77.5
t-77.5 204.5zM676 1577v53q0 55 55 56h51q25 0 40.5 -15.5t15.5 -40.5v-53q0 -25 -15.5 -40t-40.5 -15h-51q-55 0 -55 55zM330 1577v53q0 25 15 40.5t42 15.5h51q55 0 56 -56v-53q0 -55 -56 -55h-51q-27 0 -42 15t-15 40z" />
    <glyph glyph-name="multiply" unicode="&#xd7;" 
d="M389 1026l195 -197l196 197q10 10 24.5 10t24.5 -10l64 -63q23 -23 0 -50l-197 -196l195 -195q29 -25 0 -51l-62 -61q-10 -12 -24 -12.5t-25 12.5l-196 194l-195 -194q-12 -12 -27 -13q-12 0 -24 13l-62 61q-27 25 0 51l195 195l-195 196q-29 25 0 50l62 63q14 10 24 10
q13 0 27 -10z" />
    <glyph glyph-name="Oslash" unicode="&#xd8;" 
d="M369 182l338 1084h-283q-43 0 -69.5 -27t-26.5 -70v-905q0 -57 41 -82zM799 1251l-338 -1083h284q41 0 68 26.5t27 69.5v905q0 57 -41 82zM874 1487l-22 -66q78 -29 122 -97.5t44 -162.5v-889q0 -127 -78 -204.5t-205 -77.5h-303q-18 0 -26 2l-25 -78q-6 -18 -23 -18
q-2 0 -6 2h-2l-41 12q-27 10 -16 35l20 67q-76 29 -119.5 98.5t-43.5 161.5v889q0 127 77.5 205t204.5 78h303q18 0 27 -2l24 76q6 18 23 18q6 0 8 -2l41 -12q24 -6 16 -35z" />
    <glyph glyph-name="Ugrave" unicode="&#xd9;" 
d="M881 1434h106q35 0 35 -35v-1127q0 -127 -77 -204.5t-204 -77.5h-315q-127 0 -204 77.5t-77 204.5v1127q0 35 35 35h107q37 0 37 -35v-1135q0 -43 25.5 -69.5t68.5 -26.5h332q43 0 69.5 26.5t26.5 69.5v1135q0 35 35 35zM580 1706l86 -172q10 -23 -15 -23h-69
q-29 0 -45 19l-152 180q-25 20 6 21h148q27 0 41 -25z" />
    <glyph glyph-name="Uacute" unicode="&#xda;" 
d="M881 1434h106q35 0 35 -35v-1127q0 -127 -77 -204.5t-204 -77.5h-315q-127 0 -204 77.5t-77 204.5v1127q0 35 35 35h107q37 0 37 -35v-1135q0 -43 25.5 -69.5t68.5 -26.5h332q43 0 69.5 26.5t26.5 69.5v1135q0 35 35 35zM502 1534l86 172q14 25 41 25h147q25 0 8 -21
l-153 -180q-16 -18 -45 -19h-70q-24 0 -14 23z" />
    <glyph glyph-name="Ucircumflex" unicode="&#xdb;" 
d="M881 1434h106q35 0 35 -35v-1127q0 -127 -77 -204.5t-204 -77.5h-315q-127 0 -204 77.5t-77 204.5v1127q0 35 35 35h107q37 0 37 -35v-1135q0 -43 25.5 -69.5t68.5 -26.5h332q43 0 69.5 26.5t26.5 69.5v1135q0 35 35 35zM672 1698l121 -158q16 -20 -11 -20h-94
q-29 0 -41 22l-63 90l-66 -92q-16 -20 -45 -20h-88q-27 0 -10 20l123 158q14 23 43 22h86q27 1 45 -22z" />
    <glyph glyph-name="Udieresis" unicode="&#xdc;" 
d="M881 1434h106q35 0 35 -35v-1127q0 -127 -77 -204.5t-204 -77.5h-315q-127 0 -204 77.5t-77 204.5v1127q0 35 35 35h107q37 0 37 -35v-1135q0 -43 25.5 -69.5t68.5 -26.5h332q43 0 69.5 26.5t26.5 69.5v1135q0 35 35 35zM676 1577v53q0 55 55 56h51q25 0 40.5 -15.5
t15.5 -40.5v-53q0 -25 -15.5 -40t-40.5 -15h-51q-55 0 -55 55zM330 1577v53q0 25 15 40.5t42 15.5h51q55 0 56 -56v-53q0 -55 -56 -55h-51q-27 0 -42 15t-15 40z" />
    <glyph glyph-name="Yacute" unicode="&#xdd;" 
d="M1055 1401l-383 -842v-522q0 -37 -35 -37h-107q-35 0 -34 37v522l-383 842q-12 33 20 33h119q35 0 51 -33l260 -572q16 -41 17 -102h8q0 61 16 102l260 572q12 33 49 33h121q37 0 21 -33zM504 1534l86 172q10 25 39 25h147q25 0 8 -21l-151 -180q-18 -18 -47 -19h-68
q-24 0 -14 23z" />
    <glyph glyph-name="Thorn" unicode="&#xde;" 
d="M741 993h-409v-518h409q43 0 69 25.5t26 68.5v330q0 43 -26 68.5t-69 25.5zM733 297h-401v-260q0 -37 -37 -37h-105q-37 0 -36 37v1362q0 35 36 35h105q37 0 37 -35v-228h401q127 0 204 -77.5t77 -202.5v-313q0 -127 -77 -204t-204 -77z" />
    <glyph glyph-name="germandbls" unicode="&#xdf;" 
d="M410 1442h315q115 0 185.5 -69.5t70.5 -182.5v-148q0 -141 -100 -208q133 -66 133 -230v-350q0 -115 -71 -184.5t-185 -69.5h-189q-35 0 -34 37v88q0 35 34 35h181q96 0 96 110v361q0 113 -96 112h-170q-37 0 -37 35v88q0 37 37 37h129q49 0 76.5 31t27.5 82v158
q0 109 -96 108h-307q-39 0 -62.5 -24.5t-23.5 -63.5v-1157q0 -37 -37 -37h-97q-37 0 -36 37v1149q0 115 70.5 185.5t185.5 70.5z" />
    <glyph glyph-name="agrave" unicode="&#xe0;" 
d="M819 268v244q-201 31 -282 31q-94 0 -149.5 -42t-55.5 -112v-110q0 -63 42 -100.5t111 -37.5q119 0 334 127zM162 281v106q0 135 104.5 218t276.5 83q72 0 276 -24v198q0 113 -96 113h-252q-96 0 -96 -113v-28q0 -37 -35 -37h-98q-35 0 -35 37v47q0 115 70.5 185.5
t185.5 70.5h270q115 0 185.5 -71t70.5 -185v-844q0 -37 -37 -37h-96q-37 0 -37 37v55q-184 -111 -350 -110q-137 0 -222 82t-85 217zM602 1399l86 -172q10 -23 -14 -23h-68q-29 0 -47 19l-151 180q-20 20 8 20h147q29 1 39 -24z" />
    <glyph glyph-name="aacute" unicode="&#xe1;" 
d="M819 268v244q-201 31 -282 31q-94 0 -149.5 -42t-55.5 -112v-110q0 -63 42 -100.5t111 -37.5q119 0 334 127zM162 281v106q0 135 104.5 218t276.5 83q72 0 276 -24v198q0 113 -96 113h-252q-96 0 -96 -113v-28q0 -37 -35 -37h-98q-35 0 -35 37v47q0 115 70.5 185.5
t185.5 70.5h270q115 0 185.5 -71t70.5 -185v-844q0 -37 -37 -37h-96q-37 0 -37 37v55q-184 -111 -350 -110q-137 0 -222 82t-85 217zM526 1227l86 172q14 25 41 24h148q27 0 6 -20l-152 -180q-16 -18 -47 -19h-67q-25 0 -15 23z" />
    <glyph glyph-name="acircumflex" unicode="&#xe2;" 
d="M819 268v244q-201 31 -282 31q-94 0 -149.5 -42t-55.5 -112v-110q0 -63 42 -100.5t111 -37.5q119 0 334 127zM162 281v106q0 135 104.5 218t276.5 83q72 0 276 -24v198q0 113 -96 113h-252q-96 0 -96 -113v-28q0 -37 -35 -37h-98q-35 0 -35 37v47q0 115 70.5 185.5
t185.5 70.5h270q115 0 185.5 -71t70.5 -185v-844q0 -37 -37 -37h-96q-37 0 -37 37v55q-184 -111 -350 -110q-137 0 -222 82t-85 217zM694 1391l121 -158q16 -20 -10 -21h-92q-27 0 -43 23l-62 90l-67 -92q-16 -20 -43 -21h-88q-27 0 -11 21l121 158q18 23 45 22h86
q25 1 43 -22z" />
    <glyph glyph-name="atilde" unicode="&#xe3;" 
d="M819 268v244q-201 31 -282 31q-94 0 -149.5 -42t-55.5 -112v-110q0 -63 42 -100.5t111 -37.5q119 0 334 127zM162 281v106q0 135 104.5 218t276.5 83q72 0 276 -24v198q0 113 -96 113h-252q-96 0 -96 -113v-28q0 -37 -35 -37h-98q-35 0 -35 37v47q0 115 70.5 185.5
t185.5 70.5h270q115 0 185.5 -71t70.5 -185v-844q0 -37 -37 -37h-96q-37 0 -37 37v55q-184 -111 -350 -110q-137 0 -222 82t-85 217zM367 1239v70q0 39 50 61.5t95 22.5q43 0 78 -15l74 -35q18 -8 45 -8q63 0 120 41q8 4 13 4q10 0 10 -16v-68q0 -41 -50 -62.5t-95 -21.5
q-39 0 -76 17l-76 33q-20 10 -45 10q-59 0 -121 -43q-6 -6 -12 -6q-10 0 -10 16z" />
    <glyph glyph-name="adieresis" unicode="&#xe4;" 
d="M819 268v244q-201 31 -282 31q-94 0 -149.5 -42t-55.5 -112v-110q0 -63 42 -100.5t111 -37.5q119 0 334 127zM162 281v106q0 135 104.5 218t276.5 83q72 0 276 -24v198q0 113 -96 113h-252q-96 0 -96 -113v-28q0 -37 -35 -37h-98q-35 0 -35 37v47q0 115 70.5 185.5
t185.5 70.5h270q115 0 185.5 -71t70.5 -185v-844q0 -37 -37 -37h-96q-37 0 -37 37v55q-184 -111 -350 -110q-137 0 -222 82t-85 217zM354 1270v53q0 55 58 55h49q27 0 42 -15t15 -40v-53q0 -25 -15.5 -40.5t-41.5 -15.5h-49q-58 1 -58 56zM698 1270v53q0 25 15.5 40t40.5 15
h53q25 0 40 -15t15 -40v-53q0 -25 -15.5 -40.5t-39.5 -15.5h-53q-25 0 -40.5 15.5t-15.5 40.5z" />
    <glyph glyph-name="aring" unicode="&#xe5;" 
d="M819 268v244q-201 31 -282 31q-94 0 -149.5 -42t-55.5 -112v-110q0 -63 42 -100.5t111 -37.5q119 0 334 127zM539 1348q0 -29 21.5 -49.5t48 -20.5t47 20.5t20.5 49.5q0 27 -20.5 47t-47 20t-48 -20t-21.5 -47zM162 281v106q0 135 104.5 218t276.5 83q72 0 276 -24v198
q0 113 -96 113h-252q-96 0 -96 -113v-28q0 -37 -35 -37h-98q-35 0 -35 37v47q0 115 70.5 185.5t185.5 70.5h270q115 0 185.5 -71t70.5 -185v-844q0 -37 -37 -37h-96q-37 0 -37 37v55q-184 -111 -350 -110q-137 0 -222 82t-85 217zM455 1348q0 63 45 108t108.5 45t108.5 -45
t45 -108.5t-45 -108.5t-108.5 -45t-108.5 44t-45 110z" />
    <glyph glyph-name="ae" unicode="&#xe6;" 
d="M500 246v272q-117 25 -156 25q-53 0 -88 -31t-35 -82v-192q0 -47 30 -72t68 -25q77 1 181 105zM860 975h-104q-39 0 -62.5 -23.5t-23.5 -62.5v-240h276v240q0 39 -23.5 62.5t-62.5 23.5zM1079 489h-409v-249q0 -39 23.5 -63.5t62.5 -24.5h104q39 0 62.5 23.5t23.5 62.5
v65q0 35 37 35h96q37 0 37 -35v-57q0 -115 -70.5 -185.5t-185.5 -70.5h-104q-150 0 -217 110q-131 -119 -256 -118q-98 0 -165 71.5t-67 186.5v188q0 117 73 188.5t195 71.5q74 0 181 -20v213v16q-12 78 -92 78h-80q-98 0 -99 -113v-28q0 -37 -34 -37h-99q-35 0 -35 37v47
q0 115 71 185.5t185 70.5h95q100 0 172 -60q70 59 172 60h104q115 0 185.5 -71t70.5 -185v-355q0 -37 -37 -37z" />
    <glyph glyph-name="ccedilla" unicode="&#xe7;" 
d="M711 -156v-47q0 -43 -27 -69.5t-70 -26.5h-131q-27 0 -26 27v28q0 27 26 27h105q31 0 30 31v14q0 31 -30 31h-47q-53 0 -43 51l14 80h-102q-115 0 -185.5 70.5t-70.5 185.5v635q0 115 70.5 185.5t185.5 70.5h348q115 0 185.5 -71t70.5 -185v-90q0 -37 -37 -37h-96
q-37 0 -37 37v98q0 39 -23.5 62.5t-62.5 23.5h-348q-39 0 -63.5 -23.5t-24.5 -62.5v-651q0 -39 24.5 -62.5t63.5 -23.5h348q39 0 62.5 23.5t23.5 62.5v98q0 37 37 37h96q37 0 37 -37v-90q0 -115 -71 -185.5t-185 -70.5h-144l-10 -47h10q43 0 70 -27t27 -72z" />
    <glyph glyph-name="egrave" unicode="&#xe8;" 
d="M758 975h-348q-39 0 -62.5 -23.5t-23.5 -62.5v-240h522v240q0 39 -23.5 62.5t-64.5 23.5zM979 489h-655v-249q0 -39 23.5 -63.5t62.5 -24.5h348q39 0 63.5 23.5t24.5 62.5v65q0 35 35 35h98q35 0 35 -35v-57q0 -115 -71 -185.5t-185 -70.5h-348q-115 0 -185.5 70.5
t-70.5 185.5v635q0 115 70.5 185.5t185.5 70.5h348q115 0 185.5 -71t70.5 -185v-355q0 -37 -35 -37zM578 1399l86 -172q10 -23 -15 -23h-69q-31 0 -45 19l-152 180q-20 20 6 20h150q25 1 39 -24z" />
    <glyph glyph-name="eacute" unicode="&#xe9;" 
d="M758 975h-348q-39 0 -62.5 -23.5t-23.5 -62.5v-240h522v240q0 39 -23.5 62.5t-64.5 23.5zM979 489h-655v-249q0 -39 23.5 -63.5t62.5 -24.5h348q39 0 63.5 23.5t24.5 62.5v65q0 35 35 35h98q35 0 35 -35v-57q0 -115 -71 -185.5t-185 -70.5h-348q-115 0 -185.5 70.5
t-70.5 185.5v635q0 115 70.5 185.5t185.5 70.5h348q115 0 185.5 -71t70.5 -185v-355q0 -37 -35 -37zM502 1227l86 172q10 25 39 24h147q25 0 8 -20l-153 -180q-14 -18 -45 -19h-70q-24 0 -12 23z" />
    <glyph glyph-name="ecircumflex" unicode="&#xea;" 
d="M758 975h-348q-39 0 -62.5 -23.5t-23.5 -62.5v-240h522v240q0 39 -23.5 62.5t-64.5 23.5zM979 489h-655v-249q0 -39 23.5 -63.5t62.5 -24.5h348q39 0 63.5 23.5t24.5 62.5v65q0 35 35 35h98q35 0 35 -35v-57q0 -115 -71 -185.5t-185 -70.5h-348q-115 0 -185.5 70.5
t-70.5 185.5v635q0 115 70.5 185.5t185.5 70.5h348q115 0 185.5 -71t70.5 -185v-355q0 -37 -35 -37zM670 1391l121 -158q16 -20 -11 -21h-92q-31 0 -43 23l-63 90l-66 -92q-16 -20 -43 -21h-88q-27 0 -12 21l123 158q18 23 43 22h86q27 1 45 -22z" />
    <glyph glyph-name="edieresis" unicode="&#xeb;" 
d="M758 975h-348q-39 0 -62.5 -23.5t-23.5 -62.5v-240h522v240q0 39 -23.5 62.5t-64.5 23.5zM979 489h-655v-249q0 -39 23.5 -63.5t62.5 -24.5h348q39 0 63.5 23.5t24.5 62.5v65q0 35 35 35h98q35 0 35 -35v-57q0 -115 -71 -185.5t-185 -70.5h-348q-115 0 -185.5 70.5
t-70.5 185.5v635q0 115 70.5 185.5t185.5 70.5h348q115 0 185.5 -71t70.5 -185v-355q0 -37 -35 -37zM328 1270v53q0 25 15 40t42 15h51q27 0 42.5 -15t15.5 -40v-53q0 -25 -15.5 -40.5t-42.5 -15.5h-51q-27 0 -42 15.5t-15 40.5zM674 1270v53q0 55 55 55h51q55 0 56 -55v-53
q0 -55 -56 -56h-51q-55 1 -55 56z" />
    <glyph glyph-name="igrave" unicode="&#xec;" 
d="M190 1010v82q0 35 35 34h447q35 0 35 -34v-940h313q35 0 35 -35v-80q0 -37 -35 -37h-795q-35 0 -35 37v80q0 35 35 35h314v823h-314q-35 0 -35 35zM547 1399l86 -172q10 -23 -15 -23h-69q-29 0 -45 19l-152 180q-20 20 6 20h150q25 1 39 -24z" />
    <glyph glyph-name="iacute" unicode="&#xed;" 
d="M190 1010v82q0 35 35 34h447q35 0 35 -34v-940h313q35 0 35 -35v-80q0 -37 -35 -37h-795q-35 0 -35 37v80q0 35 35 35h314v823h-314q-35 0 -35 35zM471 1227l86 172q10 25 39 24h147q25 0 9 -20l-154 -180q-16 -18 -45 -19h-70q-24 0 -12 23z" />
    <glyph glyph-name="icircumflex" unicode="&#xee;" 
d="M190 1010v82q0 35 35 34h447q35 0 35 -34v-940h313q35 0 35 -35v-80q0 -37 -35 -37h-795q-35 0 -35 37v80q0 35 35 35h314v823h-314q-35 0 -35 35zM639 1391l121 -158q16 -20 -10 -21h-93q-31 0 -43 23l-63 90l-66 -92q-16 -20 -43 -21h-88q-27 0 -12 21l123 158
q18 23 43 22h86q27 1 45 -22z" />
    <glyph glyph-name="idieresis" unicode="&#xef;" 
d="M190 1010v82q0 35 35 34h447q35 0 35 -34v-940h313q35 0 35 -35v-80q0 -37 -35 -37h-795q-35 0 -35 37v80q0 35 35 35h314v823h-314q-35 0 -35 35zM297 1270v53q0 25 15.5 40t41.5 15h52q27 0 42 -15t15 -40v-53q0 -25 -15.5 -40.5t-41.5 -15.5h-52q-27 0 -42 15.5
t-15 40.5zM643 1270v53q0 55 55 55h52q55 0 55 -55v-53q0 -55 -55 -56h-52q-55 1 -55 56z" />
    <glyph glyph-name="eth" unicode="&#xf0;" 
d="M846 264v600q-285 104 -393 105q-57 0 -93 -38t-36 -100v-573q0 -106 94 -106h332q96 -1 96 112zM500 1233l18 47l-151 23q-61 8 -62 43v73q0 33 43 33q4 0 12.5 -1t12.5 -1l194 -27l29 78q6 27 35 27h4q4 -2 6 -2l51 -19q35 -6 25 -43l-21 -57q174 -25 246 -102.5
t72 -217.5v-841q0 -115 -71 -185.5t-185 -70.5h-348q-115 0 -185.5 67.5t-70.5 178.5v598q0 133 74.5 213.5t199.5 80.5q162 0 418 -92v70q0 127 -150 147l-51 9l-22 -68q-6 -27 -33 -27q-8 0 -12 2l-54 19q-36 8 -24 45z" />
    <glyph glyph-name="ntilde" unicode="&#xf1;" 
d="M190 1126h97q37 0 37 -34v-54q213 106 381 107q139 0 224 -82t85 -217v-811q0 -35 -35 -35h-98q-35 0 -35 35v811q0 63 -43 101t-115 38q-119 0 -364 -123v-825q0 -37 -37 -37h-97q-37 0 -36 37v1055q-1 34 36 34zM356 1239v70q0 39 50.5 61.5t95.5 22.5q43 0 78 -15
l73 -35q18 -8 45 -8q63 0 121 41q8 4 12 4q10 0 11 -16v-68q0 -41 -50.5 -62.5t-95.5 -21.5q-39 0 -75 17l-76 33q-20 10 -45 10q-59 0 -121 -43q-6 -6 -12 -6q-11 0 -11 16z" />
    <glyph glyph-name="ograve" unicode="&#xf2;" 
d="M324 889v-651q0 -39 23.5 -62.5t62.5 -23.5h348q39 0 63.5 23.5t24.5 62.5v651q0 39 -24.5 62.5t-63.5 23.5h-348q-39 0 -62.5 -23.5t-23.5 -62.5zM154 246v635q0 115 70.5 185.5t185.5 70.5h348q115 0 185.5 -71t70.5 -185v-635q0 -115 -71 -185.5t-185 -70.5h-348
q-115 0 -185.5 70.5t-70.5 185.5zM580 1399l86 -172q10 -23 -15 -23h-69q-29 0 -45 19l-152 180q-25 20 6 20h148q27 1 41 -24z" />
    <glyph glyph-name="oacute" unicode="&#xf3;" 
d="M324 889v-651q0 -39 23.5 -62.5t62.5 -23.5h348q39 0 63.5 23.5t24.5 62.5v651q0 39 -24.5 62.5t-63.5 23.5h-348q-39 0 -62.5 -23.5t-23.5 -62.5zM154 246v635q0 115 70.5 185.5t185.5 70.5h348q115 0 185.5 -71t70.5 -185v-635q0 -115 -71 -185.5t-185 -70.5h-348
q-115 0 -185.5 70.5t-70.5 185.5zM502 1227l86 172q14 25 41 24h147q25 0 8 -20l-153 -180q-16 -18 -45 -19h-70q-24 0 -14 23z" />
    <glyph glyph-name="ocircumflex" unicode="&#xf4;" 
d="M324 889v-651q0 -39 23.5 -62.5t62.5 -23.5h348q39 0 63.5 23.5t24.5 62.5v651q0 39 -24.5 62.5t-63.5 23.5h-348q-39 0 -62.5 -23.5t-23.5 -62.5zM154 246v635q0 115 70.5 185.5t185.5 70.5h348q115 0 185.5 -71t70.5 -185v-635q0 -115 -71 -185.5t-185 -70.5h-348
q-115 0 -185.5 70.5t-70.5 185.5zM672 1391l121 -158q16 -20 -11 -21h-94q-29 0 -41 23l-63 90l-66 -92q-16 -20 -45 -21h-88q-27 0 -10 21l123 158q14 23 43 22h86q27 1 45 -22z" />
    <glyph glyph-name="otilde" unicode="&#xf5;" 
d="M324 889v-651q0 -39 23.5 -62.5t62.5 -23.5h348q39 0 63.5 23.5t24.5 62.5v651q0 39 -24.5 62.5t-63.5 23.5h-348q-39 0 -62.5 -23.5t-23.5 -62.5zM154 246v635q0 115 70.5 185.5t185.5 70.5h348q115 0 185.5 -71t70.5 -185v-635q0 -115 -71 -185.5t-185 -70.5h-348
q-115 0 -185.5 70.5t-70.5 185.5zM344 1239v70q0 39 50 61.5t95 22.5q41 0 76 -15l76 -35q16 -8 43 -8q66 0 123 41q8 4 10 4q10 0 10 -16v-68q0 -41 -50 -62.5t-95 -21.5q-37 0 -76 17l-76 33q-20 10 -43 10q-61 0 -122 -43q-6 -6 -13 -6q-8 0 -8 16z" />
    <glyph glyph-name="odieresis" unicode="&#xf6;" 
d="M324 889v-651q0 -39 23.5 -62.5t62.5 -23.5h348q39 0 63.5 23.5t24.5 62.5v651q0 39 -24.5 62.5t-63.5 23.5h-348q-39 0 -62.5 -23.5t-23.5 -62.5zM154 246v635q0 115 70.5 185.5t185.5 70.5h348q115 0 185.5 -71t70.5 -185v-635q0 -115 -71 -185.5t-185 -70.5h-348
q-115 0 -185.5 70.5t-70.5 185.5zM676 1270v53q0 55 55 55h51q25 0 40.5 -15t15.5 -40v-53q0 -25 -15.5 -40.5t-40.5 -15.5h-51q-55 1 -55 56zM330 1270v53q0 25 15 40t42 15h51q55 0 56 -55v-53q0 -55 -56 -56h-51q-27 0 -42 15.5t-15 40.5z" />
    <glyph glyph-name="divide" unicode="&#xf7;" 
d="M254 682v88q0 35 37 35h586q37 0 36 -35v-88q0 -37 -36 -37h-586q-37 0 -37 37zM481 989v111q0 25 15.5 39t38.5 14h104q53 0 53 -53v-111q0 -53 -53 -53h-104q-23 0 -38.5 14t-15.5 39zM477 350v111q0 55 53 55h105q23 0 38 -15.5t15 -39.5v-111q0 -23 -15.5 -38
t-37.5 -15h-105q-25 0 -39 15t-14 38z" />
    <glyph glyph-name="oslash" unicode="&#xf8;" 
d="M406 152l272 823h-268q-39 0 -62.5 -23.5t-23.5 -62.5v-651q0 -39 22.5 -62.5t59.5 -23.5zM762 975l-273 -823h269q39 0 63.5 23.5t24.5 62.5v651q0 39 -23.5 62.5t-60.5 23.5zM336 -61l18 57q-92 16 -146 82.5t-54 167.5v635q0 115 70.5 185.5t185.5 70.5h321l25 75
q6 16 22 17q4 0 6 -2l33 -8q18 -6 14 -31l-18 -58q92 -16 146.5 -82.5t54.5 -166.5v-635q0 -115 -71 -185.5t-185 -70.5h-322l-24 -76q-10 -16 -23 -16q-4 0 -8 2l-31 10q-22 4 -14 29z" />
    <glyph glyph-name="ugrave" unicode="&#xf9;" 
d="M979 0h-98q-35 0 -35 37v51q-219 -106 -381 -106q-139 0 -225 82.5t-86 218.5v809q0 35 36 34h97q37 0 37 -34v-811q0 -63 43 -101.5t112 -38.5q113 0 367 123v828q0 35 35 34h98q35 0 35 -34v-1055q0 -37 -35 -37zM580 1399l86 -172q10 -23 -15 -23h-69q-29 0 -45 19
l-152 180q-25 20 6 20h148q27 1 41 -24z" />
    <glyph glyph-name="uacute" unicode="&#xfa;" 
d="M979 0h-98q-35 0 -35 37v51q-219 -106 -381 -106q-139 0 -225 82.5t-86 218.5v809q0 35 36 34h97q37 0 37 -34v-811q0 -63 43 -101.5t112 -38.5q113 0 367 123v828q0 35 35 34h98q35 0 35 -34v-1055q0 -37 -35 -37zM502 1227l86 172q14 25 41 24h147q25 0 8 -20
l-153 -180q-16 -18 -45 -19h-70q-24 0 -14 23z" />
    <glyph glyph-name="ucircumflex" unicode="&#xfb;" 
d="M979 0h-98q-35 0 -35 37v51q-219 -106 -381 -106q-139 0 -225 82.5t-86 218.5v809q0 35 36 34h97q37 0 37 -34v-811q0 -63 43 -101.5t112 -38.5q113 0 367 123v828q0 35 35 34h98q35 0 35 -34v-1055q0 -37 -35 -37zM672 1391l121 -158q16 -20 -11 -21h-94q-29 0 -41 23
l-63 90l-66 -92q-16 -20 -45 -21h-88q-27 0 -10 21l123 158q14 23 43 22h86q27 1 45 -22z" />
    <glyph glyph-name="udieresis" unicode="&#xfc;" 
d="M979 0h-98q-35 0 -35 37v51q-219 -106 -381 -106q-139 0 -225 82.5t-86 218.5v809q0 35 36 34h97q37 0 37 -34v-811q0 -63 43 -101.5t112 -38.5q113 0 367 123v828q0 35 35 34h98q35 0 35 -34v-1055q0 -37 -35 -37zM330 1270v53q0 25 15 40t42 15h51q55 0 56 -55v-53
q0 -55 -56 -56h-51q-27 0 -42 15.5t-15 40.5zM676 1270v53q0 55 55 55h51q25 0 40.5 -15t15.5 -40v-53q0 -25 -15.5 -40.5t-40.5 -15.5h-51q-55 1 -55 56z" />
    <glyph glyph-name="yacute" unicode="&#xfd;" 
d="M385 -274l117 274l-414 1094q-6 14 0 23t23 9h112q37 0 47 -32l293 -793q14 -37 15 -104h8q0 61 14 104l293 791q14 35 49 34h115q16 0 22 -9t0 -23l-516 -1368q-10 -33 -47 -33h-108q-35 0 -23 33zM502 1227l86 172q14 25 41 24h147q25 0 8 -20l-153 -180
q-16 -18 -45 -19h-70q-24 0 -14 23z" />
    <glyph glyph-name="thorn" unicode="&#xfe;" 
d="M324 860v-594q236 -125 368 -125q70 0 112 37t42 96v580q0 59 -42 95t-110 36q-134 0 -370 -125zM287 -307h-97q-37 0 -36 35v1671q0 35 36 35h97q37 0 37 -35v-363q223 109 387 109q135 0 219 -79t84 -208v-588q0 -131 -84 -209.5t-219 -78.5q-164 0 -387 108v-362
q0 -35 -37 -35z" />
    <glyph glyph-name="ydieresis" unicode="&#xff;" 
d="M385 -274l117 274l-414 1094q-6 14 0 23t23 9h112q37 0 47 -32l293 -793q14 -37 15 -104h8q0 61 14 104l293 791q14 35 49 34h115q16 0 22 -9t0 -23l-516 -1368q-10 -33 -47 -33h-108q-35 0 -23 33zM676 1270v53q0 55 55 55h51q25 0 40.5 -15t15.5 -40v-53
q0 -25 -15.5 -40.5t-40.5 -15.5h-51q-55 1 -55 56zM330 1270v53q0 25 15 40t42 15h51q55 0 56 -55v-53q0 -55 -56 -56h-51q-27 0 -42 15.5t-15 40.5z" />
    <glyph glyph-name="Amacron" unicode="&#x100;" 
d="M395 426h377l-174 584q-10 35 -10 102h-8q0 -68 -11 -102zM825 248h-481l-63 -213q-10 -35 -48 -35h-110q-37 0 -27 35l406 1364q10 35 47 35h72q35 0 45 -35l405 -1364q10 -35 -27 -35h-110q-37 0 -47 35zM391 1577v63q0 27 27 27h332q27 0 26 -27v-63q0 -27 -26 -27
h-332q-27 0 -27 27z" />
    <glyph glyph-name="amacron" unicode="&#x101;" 
d="M819 268v244q-201 31 -282 31q-94 0 -149.5 -42t-55.5 -112v-110q0 -63 42 -100.5t111 -37.5q119 0 334 127zM162 281v106q0 135 104.5 218t276.5 83q72 0 276 -24v198q0 113 -96 113h-252q-96 0 -96 -113v-28q0 -37 -35 -37h-98q-35 0 -35 37v47q0 115 70.5 185.5
t185.5 70.5h270q115 0 185.5 -71t70.5 -185v-844q0 -37 -37 -37h-96q-37 0 -37 37v55q-184 -111 -350 -110q-137 0 -222 82t-85 217zM416 1270v63q0 27 26 27h330q29 0 29 -27v-63q0 -27 -29 -27h-330q-26 0 -26 27z" />
    <glyph glyph-name="Abreve" unicode="&#x102;" 
d="M395 426h377l-174 584q-10 35 -10 102h-8q0 -68 -11 -102zM825 248h-481l-63 -213q-10 -35 -48 -35h-110q-37 0 -27 35l406 1364q10 35 47 35h72q35 0 45 -35l405 -1364q10 -35 -27 -35h-110q-37 0 -47 35zM780 1686l-2 -23q-2 -70 -46 -111t-114 -41h-69q-70 0 -114 41
t-46 111l-2 23q0 29 27 28h53q27 0 31 -26l6 -37q4 -35 39 -35h82q35 0 39 35l6 37q4 27 30 26h54q26 1 26 -28z" />
    <glyph glyph-name="abreve" unicode="&#x103;" 
d="M819 268v244q-201 31 -282 31q-94 0 -149.5 -42t-55.5 -112v-110q0 -63 42 -100.5t111 -37.5q119 0 334 127zM162 281v106q0 135 104.5 218t276.5 83q72 0 276 -24v198q0 113 -96 113h-252q-96 0 -96 -113v-28q0 -37 -35 -37h-98q-35 0 -35 37v47q0 115 70.5 185.5
t185.5 70.5h270q115 0 185.5 -71t70.5 -185v-844q0 -37 -37 -37h-96q-37 0 -37 37v55q-184 -111 -350 -110q-137 0 -222 82t-85 217zM803 1378v-22q-2 -70 -46 -111t-114 -41h-70q-70 0 -113.5 41t-45.5 111l-2 22q0 29 26 29h54q27 0 30 -27l6 -37q4 -35 39 -34h82
q33 0 39 34l4 37q8 27 33 27h53q29 0 25 -29z" />
    <glyph glyph-name="Aogonek" unicode="&#x104;" 
d="M395 426h377l-174 584q-10 35 -10 102h-8q0 -68 -11 -102zM940 0h-8q-33 0 -43 33l-64 215h-481l-63 -213q-10 -35 -48 -35h-110q-37 0 -27 35l406 1364q10 35 47 35h72q35 0 45 -35l405 -1366q10 -33 -24 -33h-9q-61 -76 -69 -135q-6 -35 24 -35h80q27 0 27 -29v-37
q0 -27 -27 -26h-110q-41 0 -67 25.5t-26 66.5q0 94 70 170z" />
    <glyph glyph-name="aogonek" unicode="&#x105;" 
d="M819 268v244q-201 31 -282 31q-94 0 -149.5 -42t-55.5 -112v-110q0 -63 42 -100.5t111 -37.5q119 0 334 127zM954 0h-2q-55 -74 -69 -135q-6 -35 24 -35h80q29 0 29 -29v-37q0 -27 -29 -26h-110q-41 0 -67 25.5t-26 66.5q0 94 70 170q-35 0 -35 35v57
q-184 -111 -350 -110q-137 0 -222 81.5t-85 217.5v106q0 135 104.5 218t276.5 83q72 0 276 -24v198q0 113 -96 113h-252q-96 0 -96 -113v-28q0 -37 -35 -37h-98q-35 0 -35 37v47q0 115 70.5 185.5t185.5 70.5h270q115 0 185.5 -71t70.5 -185v-846q0 -35 -35 -35z" />
    <glyph glyph-name="Cacute" unicode="&#x106;" 
d="M872 436h107q35 0 35 -35v-129q0 -127 -77 -204.5t-204 -77.5h-297q-127 0 -204.5 77.5t-77.5 204.5v889q0 127 77.5 205t204.5 78h297q127 0 204 -78t77 -205v-129q0 -35 -35 -35h-107q-37 0 -36 35v137q0 43 -26 70t-69 27h-315q-43 0 -68.5 -27t-25.5 -70v-905
q0 -43 25.5 -69.5t68.5 -26.5h315q43 0 69 26.5t26 69.5v137q-1 35 36 35zM508 1534l86 172q14 25 39 25h149q23 0 6 -21l-151 -180q-18 -18 -47 -19h-68q-24 0 -14 23z" />
    <glyph glyph-name="cacute" unicode="&#x107;" 
d="M410 152h348q39 0 62.5 23.5t23.5 62.5v98q0 37 37 37h96q37 0 37 -37v-90q0 -115 -71 -185.5t-185 -70.5h-348q-115 0 -185.5 70.5t-70.5 185.5v635q0 115 70.5 185.5t185.5 70.5h348q115 0 185.5 -71t70.5 -185v-90q0 -37 -37 -37h-96q-37 0 -37 37v98q0 39 -23.5 62.5
t-62.5 23.5h-348q-39 0 -63.5 -23.5t-24.5 -62.5v-651q0 -39 24.5 -62.5t63.5 -23.5zM514 1227l86 172q14 25 41 24h147q27 0 7 -20l-152 -180q-16 -18 -47 -19h-68q-24 0 -14 23z" />
    <glyph glyph-name="Ccircumflex" unicode="&#x108;" 
d="M872 436h107q35 0 35 -35v-129q0 -127 -77 -204.5t-204 -77.5h-297q-127 0 -204.5 77.5t-77.5 204.5v889q0 127 77.5 205t204.5 78h297q127 0 204 -78t77 -205v-129q0 -35 -35 -35h-107q-37 0 -36 35v137q0 43 -26 70t-69 27h-315q-43 0 -68.5 -27t-25.5 -70v-905
q0 -43 25.5 -69.5t68.5 -26.5h315q43 0 69 26.5t26 69.5v137q-1 35 36 35zM676 1698l121 -158q16 -20 -11 -20h-92q-27 0 -43 22l-61 90l-68 -92q-16 -20 -43 -20h-88q-27 0 -10 20l121 158q18 23 45 22h86q25 1 43 -22z" />
    <glyph glyph-name="ccircumflex" unicode="&#x109;" 
d="M410 152h348q39 0 62.5 23.5t23.5 62.5v98q0 37 37 37h96q37 0 37 -37v-90q0 -115 -71 -185.5t-185 -70.5h-348q-115 0 -185.5 70.5t-70.5 185.5v635q0 115 70.5 185.5t185.5 70.5h348q115 0 185.5 -71t70.5 -185v-90q0 -37 -37 -37h-96q-37 0 -37 37v98q0 39 -23.5 62.5
t-62.5 23.5h-348q-39 0 -63.5 -23.5t-24.5 -62.5v-651q0 -39 24.5 -62.5t63.5 -23.5zM682 1391l123 -158q14 -20 -12 -21h-93q-27 0 -43 23l-61 90l-68 -92q-14 -20 -43 -21h-88q-27 0 -10 21l121 158q18 23 45 22h86q29 1 43 -22z" />
    <glyph glyph-name="Cdotaccent" unicode="&#x10a;" 
d="M872 436h107q35 0 35 -35v-129q0 -127 -77 -204.5t-204 -77.5h-297q-127 0 -204.5 77.5t-77.5 204.5v889q0 127 77.5 205t204.5 78h297q127 0 204 -78t77 -205v-129q0 -35 -35 -35h-107q-37 0 -36 35v137q0 43 -26 70t-69 27h-315q-43 0 -68.5 -27t-25.5 -70v-905
q0 -43 25.5 -69.5t68.5 -26.5h315q43 0 69 26.5t26 69.5v137q-1 35 36 35zM494 1577v70q0 25 15 40t40 15h80q25 0 40 -15.5t15 -39.5v-70q0 -25 -15.5 -40t-39.5 -15h-80q-25 0 -40 15t-15 40z" />
    <glyph glyph-name="cdotaccent" unicode="&#x10b;" 
d="M410 152h348q39 0 62.5 23.5t23.5 62.5v98q0 37 37 37h96q37 0 37 -37v-90q0 -115 -71 -185.5t-185 -70.5h-348q-115 0 -185.5 70.5t-70.5 185.5v635q0 115 70.5 185.5t185.5 70.5h348q115 0 185.5 -71t70.5 -185v-90q0 -37 -37 -37h-96q-37 0 -37 37v98q0 39 -23.5 62.5
t-62.5 23.5h-348q-39 0 -63.5 -23.5t-24.5 -62.5v-651q0 -39 24.5 -62.5t63.5 -23.5zM502 1270v69q0 25 15 40.5t40 15.5h78q25 0 40 -15.5t15 -40.5v-69q0 -25 -15.5 -40.5t-39.5 -15.5h-78q-25 0 -40 15.5t-15 40.5z" />
    <glyph glyph-name="Ccaron" unicode="&#x10c;" 
d="M872 436h107q35 0 35 -35v-129q0 -127 -77 -204.5t-204 -77.5h-297q-127 0 -204.5 77.5t-77.5 204.5v889q0 127 77.5 205t204.5 78h297q127 0 204 -78t77 -205v-129q0 -35 -35 -35h-107q-37 0 -36 35v137q0 43 -26 70t-69 27h-315q-43 0 -68.5 -27t-25.5 -70v-905
q0 -43 25.5 -69.5t68.5 -26.5h315q43 0 69 26.5t26 69.5v137q-1 35 36 35zM797 1698l-121 -158q-16 -20 -43 -20h-86q-29 0 -45 20l-121 158q-16 23 10 22h88q25 0 43 -22l68 -90l61 90q18 23 43 22h92q27 1 11 -22z" />
    <glyph glyph-name="ccaron" unicode="&#x10d;" 
d="M410 152h348q39 0 62.5 23.5t23.5 62.5v98q0 37 37 37h96q37 0 37 -37v-90q0 -115 -71 -185.5t-185 -70.5h-348q-115 0 -185.5 70.5t-70.5 185.5v635q0 115 70.5 185.5t185.5 70.5h348q115 0 185.5 -71t70.5 -185v-90q0 -37 -37 -37h-96q-37 0 -37 37v98q0 39 -23.5 62.5
t-62.5 23.5h-348q-39 0 -63.5 -23.5t-24.5 -62.5v-651q0 -39 24.5 -62.5t63.5 -23.5zM805 1391l-123 -158q-14 -20 -43 -21h-86q-29 0 -45 21l-121 158q-16 23 10 22h88q29 0 43 -22l68 -91l61 91q18 23 43 22h93q24 1 12 -22z" />
    <glyph glyph-name="Dcaron" unicode="&#x10e;" 
d="M332 1255v-1077h409q43 0 69 25.5t26 68.5v889q0 43 -26 68.5t-69 25.5h-409zM154 37v1362q0 35 36 35h543q127 0 204 -78t77 -203v-870q0 -127 -77 -205t-204 -78h-543q-36 0 -36 37zM752 1698l-121 -158q-16 -20 -45 -20h-86q-29 0 -43 20l-123 158q-16 23 10 22h88
q27 0 45 -22l66 -90l63 90q14 23 41 22h94q27 1 11 -22z" />
    <glyph glyph-name="dcaron" unicode="&#x10f;" 
d="M745 262v602q-190 121 -296 121q-57 0 -91 -37t-34 -96v-576q0 -59 33.5 -97t91.5 -38q106 0 296 121zM782 1434h97q37 0 36 -35v-1362q0 -37 -36 -37h-97q-37 0 -37 37v51q-188 -106 -329 -106q-117 0 -189.5 79.5t-72.5 210.5v584q0 131 72.5 210t189.5 79
q141 0 329 -107v361q0 35 37 35zM999 1208l25 191q6 37 43 37h59q37 0 27 -35l-47 -193q-6 -29 -35 -28h-45q-31 -1 -27 28z" />
    <glyph glyph-name="Dcroat" unicode="&#x110;" 
d="M547 651h-215v-473h409q43 0 69 25.5t26 68.5v889q0 43 -26 68.5t-69 25.5h-409v-460h215q35 0 35 -35v-72q0 -37 -35 -37zM16 688v72q0 35 37 35h101v604q0 35 36 35h543q127 0 204 -78t77 -203v-870q0 -127 -77 -205t-204 -78h-543q-37 0 -36 37v614h-101q-37 0 -37 37
z" />
    <glyph glyph-name="dcroat" unicode="&#x111;" 
d="M846 266v594q-244 125 -371 125q-70 0 -110.5 -37t-40.5 -96v-576q0 -59 41 -97t110 -38q127 0 371 125zM528 1233v72q0 27 27 26h291v68q0 35 35 35h98q35 0 35 -35v-68h102q27 0 27 -26v-72q0 -29 -27 -29h-102v-1167q0 -37 -35 -37h-98q-35 0 -35 37v53
q-231 -109 -389 -108q-135 0 -219 79.5t-84 210.5v584q0 131 84 210t219 79q158 0 389 -109v168h-291q-27 0 -27 29z" />
    <glyph glyph-name="Emacron" unicode="&#x112;" 
d="M154 37v1362q0 35 36 35h789q35 0 35 -35v-107q0 -37 -35 -37h-647v-507h471q35 0 35 -37v-105q0 -37 -35 -37h-471v-391h647q35 0 35 -37v-104q0 -37 -35 -37h-789q-36 0 -36 37zM381 1577v63q0 27 27 27h331q27 0 27 -27v-63q0 -27 -27 -27h-331q-27 0 -27 27z" />
    <glyph glyph-name="emacron" unicode="&#x113;" 
d="M758 975h-348q-39 0 -62.5 -23.5t-23.5 -62.5v-240h522v240q0 39 -23.5 62.5t-64.5 23.5zM979 489h-655v-249q0 -39 23.5 -63.5t62.5 -24.5h348q39 0 63.5 23.5t24.5 62.5v65q0 35 35 35h98q35 0 35 -35v-57q0 -115 -71 -185.5t-185 -70.5h-348q-115 0 -185.5 70.5
t-70.5 185.5v635q0 115 70.5 185.5t185.5 70.5h348q115 0 185.5 -71t70.5 -185v-355q0 -37 -35 -37zM389 1270v63q0 27 27 27h332q27 0 26 -27v-63q0 -27 -26 -27h-332q-27 0 -27 27z" />
    <glyph glyph-name="Ebreve" unicode="&#x114;" 
d="M154 37v1362q0 35 36 35h789q35 0 35 -35v-107q0 -37 -35 -37h-647v-507h471q35 0 35 -37v-105q0 -37 -35 -37h-471v-391h647q35 0 35 -37v-104q0 -37 -35 -37h-789q-36 0 -36 37zM770 1686l-2 -23q-2 -70 -46 -111t-114 -41h-69q-70 0 -114 41t-46 111l-2 23q0 29 26 28
h54q27 0 30 -26l7 -37q4 -35 38 -35h82q35 0 39 35l6 37q4 27 31 26h53q27 1 27 -28z" />
    <glyph glyph-name="ebreve" unicode="&#x115;" 
d="M758 975h-348q-39 0 -62.5 -23.5t-23.5 -62.5v-240h522v240q0 39 -23.5 62.5t-64.5 23.5zM979 489h-655v-249q0 -39 23.5 -63.5t62.5 -24.5h348q39 0 63.5 23.5t24.5 62.5v65q0 35 35 35h98q35 0 35 -35v-57q0 -115 -71 -185.5t-185 -70.5h-348q-115 0 -185.5 70.5
t-70.5 185.5v635q0 115 70.5 185.5t185.5 70.5h348q115 0 185.5 -71t70.5 -185v-355q0 -37 -35 -37zM778 1378l-2 -22q-2 -70 -46 -111t-114 -41h-69q-70 0 -114 41t-46 111v22q-4 29 25 29h53q25 0 33 -27l4 -37q4 -35 39 -34h82q35 0 39 34l6 37q4 27 30 27h54
q26 0 26 -29z" />
    <glyph glyph-name="Edotaccent" unicode="&#x116;" 
d="M154 37v1362q0 35 36 35h789q35 0 35 -35v-107q0 -37 -35 -37h-647v-507h471q35 0 35 -37v-105q0 -37 -35 -37h-471v-391h647q35 0 35 -37v-104q0 -37 -35 -37h-789q-36 0 -36 37zM479 1577v70q0 25 15.5 40t40.5 15h77q25 0 40.5 -15.5t15.5 -39.5v-70q0 -25 -15.5 -40
t-40.5 -15h-77q-25 0 -40.5 15t-15.5 40z" />
    <glyph glyph-name="edotaccent" unicode="&#x117;" 
d="M758 975h-348q-39 0 -62.5 -23.5t-23.5 -62.5v-240h522v240q0 39 -23.5 62.5t-64.5 23.5zM979 489h-655v-249q0 -39 23.5 -63.5t62.5 -24.5h348q39 0 63.5 23.5t24.5 62.5v65q0 35 35 35h98q35 0 35 -35v-57q0 -115 -71 -185.5t-185 -70.5h-348q-115 0 -185.5 70.5
t-70.5 185.5v635q0 115 70.5 185.5t185.5 70.5h348q115 0 185.5 -71t70.5 -185v-355q0 -37 -35 -37zM487 1270v69q0 25 15.5 40.5t40.5 15.5h78q25 0 40 -15.5t15 -40.5v-69q0 -25 -15.5 -40.5t-39.5 -15.5h-78q-25 0 -40.5 15.5t-15.5 40.5z" />
    <glyph glyph-name="Eogonek" unicode="&#x118;" 
d="M852 0h-662q-37 0 -36 37v1362q0 35 36 35h789q35 0 35 -35v-107q0 -37 -35 -37h-647v-507h471q35 0 35 -37v-105q0 -37 -35 -37h-471v-391h647q35 0 35 -37v-104q0 -37 -35 -37h-29q-59 -78 -69 -135q-6 -35 24 -35h82q27 0 27 -27v-39q0 -27 -27 -26h-113
q-41 0 -66.5 25.5t-25.5 66.5q0 90 70 170z" />
    <glyph glyph-name="eogonek" unicode="&#x119;" 
d="M758 975h-348q-39 0 -62.5 -23.5t-23.5 -62.5v-240h522v240q0 39 -23.5 62.5t-64.5 23.5zM688 -10h-278q-115 0 -185.5 70.5t-70.5 185.5v635q0 115 70.5 185.5t185.5 70.5h348q115 0 185.5 -71t70.5 -185v-355q0 -37 -35 -37h-655v-249q0 -39 23.5 -63.5t62.5 -24.5h348
q39 0 63.5 23.5t24.5 62.5v65q0 35 35 35h98q35 0 35 -35v-57q0 -106 -61.5 -175t-164.5 -79q-55 -70 -63 -127q-6 -35 25 -35h79q27 0 27 -27v-39q0 -27 -27 -26h-110q-41 0 -66.5 25.5t-25.5 66.5q0 88 61 160z" />
    <glyph glyph-name="Ecaron" unicode="&#x11a;" 
d="M154 37v1362q0 35 36 35h789q35 0 35 -35v-107q0 -37 -35 -37h-647v-507h471q35 0 35 -37v-105q0 -37 -35 -37h-471v-391h647q35 0 35 -37v-104q0 -37 -35 -37h-789q-36 0 -36 37zM782 1698l-120 -158q-16 -20 -46 -20h-86q-29 0 -43 20l-122 158q-16 23 10 22h88
q27 0 45 -22l65 -90l64 90q14 23 41 22h94q26 1 10 -22z" />
    <glyph glyph-name="ecaron" unicode="&#x11b;" 
d="M758 975h-348q-39 0 -62.5 -23.5t-23.5 -62.5v-240h522v240q0 39 -23.5 62.5t-64.5 23.5zM979 489h-655v-249q0 -39 23.5 -63.5t62.5 -24.5h348q39 0 63.5 23.5t24.5 62.5v65q0 35 35 35h98q35 0 35 -35v-57q0 -115 -71 -185.5t-185 -70.5h-348q-115 0 -185.5 70.5
t-70.5 185.5v635q0 115 70.5 185.5t185.5 70.5h348q115 0 185.5 -71t70.5 -185v-355q0 -37 -35 -37zM791 1391l-121 -158q-16 -20 -45 -21h-86q-27 0 -43 21l-123 158q-12 23 12 22h88q25 0 43 -22l66 -91l63 91q14 23 43 22h92q27 1 11 -22z" />
    <glyph glyph-name="Gcircumflex" unicode="&#x11c;" 
d="M553 614v105q0 37 37 37h389q35 0 35 -37v-447q0 -127 -77 -204.5t-204 -77.5h-297q-127 0 -204.5 77.5t-77.5 204.5v889q0 127 77.5 205t204.5 78h297q127 0 204 -78t77 -205v-129q0 -35 -35 -35h-107q-37 0 -36 35v137q0 43 -26 70t-69 27h-315q-43 0 -68.5 -27
t-25.5 -70v-905q0 -43 25.5 -69.5t68.5 -26.5h315q43 0 69 26.5t26 69.5v314h-246q-37 -1 -37 36zM680 1698l121 -158q16 -20 -10 -20h-93q-31 0 -43 22l-63 90l-66 -92q-16 -20 -43 -20h-88q-27 0 -12 20l123 158q18 23 43 22h86q27 1 45 -22z" />
    <glyph glyph-name="gcircumflex" unicode="&#x11d;" 
d="M846 266v594q-244 125 -371 125q-70 0 -110.5 -38t-40.5 -101v-565q0 -63 41 -101.5t110 -38.5q127 0 371 125zM846 1036v56q0 35 35 34h98q35 0 35 -34v-1115q0 -158 -142.5 -230.5t-353.5 -72.5q-27 0 -66.5 2t-103 8.5t-105.5 20.5t-42 37v90q0 27 35 27q16 0 26 -2
q109 -20 242 -21q59 0 113.5 7t108.5 22.5t87 49.5t33 81v94q-231 -109 -383 -108q-139 0 -224 82.5t-85 218.5v563q0 135 85 217t224 82q152 0 383 -109zM686 1391l121 -158q16 -20 -10 -21h-92q-27 0 -43 23l-62 90l-68 -92q-16 -20 -43 -21h-88q-27 0 -10 21l121 158
q18 23 45 22h86q25 1 43 -22z" />
    <glyph glyph-name="Gbreve" unicode="&#x11e;" 
d="M553 614v105q0 37 37 37h389q35 0 35 -37v-447q0 -127 -77 -204.5t-204 -77.5h-297q-127 0 -204.5 77.5t-77.5 204.5v889q0 127 77.5 205t204.5 78h297q127 0 204 -78t77 -205v-129q0 -35 -35 -35h-107q-37 0 -36 35v137q0 43 -26 70t-69 27h-315q-43 0 -68.5 -27
t-25.5 -70v-905q0 -43 25.5 -69.5t68.5 -26.5h315q43 0 69 26.5t26 69.5v314h-246q-37 -1 -37 36zM788 1686l-2 -23q-2 -70 -46 -111t-113 -41h-70q-70 0 -114 41t-46 111v23q-4 29 25 28h53q25 0 33 -26l4 -37q4 -35 39 -35h82q35 0 39 35l6 37q4 27 31 26h53q26 1 26 -28z
" />
    <glyph glyph-name="gbreve" unicode="&#x11f;" 
d="M846 266v594q-244 125 -371 125q-70 0 -110.5 -38t-40.5 -101v-565q0 -63 41 -101.5t110 -38.5q127 0 371 125zM846 1036v56q0 35 35 34h98q35 0 35 -34v-1115q0 -158 -142.5 -230.5t-353.5 -72.5q-27 0 -66.5 2t-103 8.5t-105.5 20.5t-42 37v90q0 27 35 27q16 0 26 -2
q109 -20 242 -21q59 0 113.5 7t108.5 22.5t87 49.5t33 81v94q-231 -109 -383 -108q-139 0 -224 82.5t-85 218.5v563q0 135 85 217t224 82q152 0 383 -109zM795 1378v-22q-2 -70 -46 -111t-114 -41h-70q-70 0 -114.5 41t-47.5 111v22q0 29 27 29h53q27 0 31 -27l4 -37
q6 -35 41 -34h80q35 0 41 34l4 37q4 27 33 27h51q27 0 27 -29z" />
    <glyph glyph-name="Gdotaccent" unicode="&#x120;" 
d="M553 614v105q0 37 37 37h389q35 0 35 -37v-447q0 -127 -77 -204.5t-204 -77.5h-297q-127 0 -204.5 77.5t-77.5 204.5v889q0 127 77.5 205t204.5 78h297q127 0 204 -78t77 -205v-129q0 -35 -35 -35h-107q-37 0 -36 35v137q0 43 -26 70t-69 27h-315q-43 0 -68.5 -27
t-25.5 -70v-905q0 -43 25.5 -69.5t68.5 -26.5h315q43 0 69 26.5t26 69.5v314h-246q-37 -1 -37 36zM498 1577v70q0 25 15 40t40 15h78q25 0 40 -15.5t15 -39.5v-70q0 -25 -15.5 -40t-39.5 -15h-78q-25 0 -40 15t-15 40z" />
    <glyph glyph-name="gdotaccent" unicode="&#x121;" 
d="M846 266v594q-244 125 -371 125q-70 0 -110.5 -38t-40.5 -101v-565q0 -63 41 -101.5t110 -38.5q127 0 371 125zM846 1036v56q0 35 35 34h98q35 0 35 -34v-1115q0 -158 -142.5 -230.5t-353.5 -72.5q-27 0 -66.5 2t-103 8.5t-105.5 20.5t-42 37v90q0 27 35 27q16 0 26 -2
q109 -20 242 -21q59 0 113.5 7t108.5 22.5t87 49.5t33 81v94q-231 -109 -383 -108q-139 0 -224 82.5t-85 218.5v563q0 135 85 217t224 82q152 0 383 -109zM504 1270v69q0 25 15.5 40.5t39.5 15.5h80q25 0 40 -15.5t15 -40.5v-69q0 -25 -15 -40.5t-40 -15.5h-80
q-25 0 -40 15.5t-15 40.5z" />
    <glyph glyph-name="uni0122" unicode="&#x122;" 
d="M553 614v105q0 37 37 37h389q35 0 35 -37v-447q0 -127 -77 -204.5t-204 -77.5h-297q-127 0 -204.5 77.5t-77.5 204.5v889q0 127 77.5 205t204.5 78h297q127 0 204 -78t77 -205v-129q0 -35 -35 -35h-107q-37 0 -36 35v137q0 43 -26 70t-69 27h-315q-43 0 -68.5 -27
t-25.5 -70v-905q0 -43 25.5 -69.5t68.5 -26.5h315q43 0 69 26.5t26 69.5v314h-246q-37 -1 -37 36zM506 -293l24 191q6 37 41 36h60q39 0 28 -34l-47 -193q-6 -29 -34 -29h-48q-28 0 -24 29z" />
    <glyph glyph-name="uni0123" unicode="&#x123;" 
d="M846 266v594q-244 125 -371 125q-70 0 -110.5 -38t-40.5 -101v-565q0 -63 41 -101.5t110 -38.5q127 0 371 125zM846 1036v56q0 35 35 34h98q35 0 35 -34v-1115q0 -158 -142.5 -230.5t-353.5 -72.5q-27 0 -66.5 2t-103 8.5t-105.5 20.5t-42 37v90q0 27 35 27q16 0 26 -2
q109 -20 242 -21q59 0 113.5 7t108.5 22.5t87 49.5t33 81v94q-231 -109 -383 -108q-139 0 -224 82.5t-85 218.5v563q0 135 85 217t224 82q152 0 383 -109zM670 1440l-25 -191q-6 -37 -43 -37h-59q-35 0 -29 35l49 193q6 29 35 28h45q12 0 20.5 -8t6.5 -20z" />
    <glyph glyph-name="Hcircumflex" unicode="&#x124;" 
d="M154 37v1362q0 35 36 35h105q37 0 37 -35v-651h504v651q0 35 36 35h107q35 0 35 -35v-1362q0 -37 -35 -37h-107q-37 0 -36 37v532h-504v-532q0 -37 -37 -37h-105q-36 0 -36 37zM672 1698l121 -158q16 -20 -11 -20h-94q-29 0 -41 22l-63 90l-66 -92q-16 -20 -45 -20h-88
q-27 0 -10 20l123 158q14 23 43 22h86q27 1 45 -22z" />
    <glyph glyph-name="hcircumflex" unicode="&#x125;" 
d="M190 1434h97q37 0 37 -35v-361q213 106 381 107q139 0 224 -82t85 -217v-811q0 -35 -35 -35h-98q-35 0 -35 35v811q0 63 -43 101t-115 38q-119 0 -364 -123v-825q0 -37 -37 -37h-97q-37 0 -36 37v1362q-1 35 36 35zM330 1694l121 -158q14 -20 -11 -20h-94q-27 0 -43 22
l-61 90l-68 -90q-12 -23 -43 -22h-88q-27 0 -10 20l121 158q16 23 45 22h86q29 1 45 -22z" />
    <glyph glyph-name="Hbar" unicode="&#x126;" 
d="M836 748v299h-504v-299h504zM872 1434h107q35 0 35 -35v-207h94q35 0 35 -37v-74q0 -35 -35 -34h-94v-1010q0 -37 -35 -37h-107q-37 0 -36 37v532h-504v-532q0 -37 -37 -37h-105q-37 0 -36 37v1010h-95q-35 0 -34 34v74q0 37 34 37h95v207q0 35 36 35h105q37 0 37 -35
v-207h504v207q-1 35 36 35z" />
    <glyph glyph-name="hbar" unicode="&#x127;" 
d="M25 1233v72q0 27 26 26h103v68q0 35 36 35h97q37 0 37 -35v-68h288q29 0 29 -26v-72q0 -29 -29 -29h-288v-166q213 106 381 107q139 0 224 -82t85 -217v-811q0 -35 -35 -35h-98q-35 0 -35 35v811q0 63 -43 101t-115 38q-119 0 -364 -123v-825q0 -37 -37 -37h-97
q-37 0 -36 37v1167h-103q-26 0 -26 29z" />
    <glyph glyph-name="Itilde" unicode="&#x128;" 
d="M160 37v96q0 37 37 37h299v1096h-299q-37 0 -37 34v99q0 35 37 35h774q37 0 37 -35v-99q0 -35 -37 -34h-299v-1096h299q37 0 37 -37v-96q0 -37 -37 -37h-774q-37 0 -37 37zM344 1546v70q0 39 50 61.5t95 22.5q41 0 76 -14l76 -35q16 -8 43 -9q66 0 123 41l10 5
q10 0 10 -17v-67q0 -41 -50 -62.5t-95 -21.5q-37 0 -76 16l-76 33q-20 10 -43 10q-61 0 -122 -43q-6 -6 -13 -6q-8 0 -8 16z" />
    <glyph glyph-name="itilde" unicode="&#x129;" 
d="M190 1010v82q0 35 35 34h447q35 0 35 -34v-940h313q35 0 35 -35v-80q0 -37 -35 -37h-795q-35 0 -35 37v80q0 35 35 35h314v823h-314q-35 0 -35 35zM311 1239v70q0 39 50.5 61.5t95.5 22.5q41 0 75 -15l76 -35q16 -8 43 -8q66 0 123 41q8 4 10 4q10 0 11 -16v-68
q0 -41 -50.5 -62.5t-95.5 -21.5q-37 0 -76 17l-73 33q-25 10 -45 10q-63 0 -121 -43q-8 -6 -15 -6q-8 0 -8 16z" />
    <glyph glyph-name="Imacron" unicode="&#x12a;" 
d="M160 37v96q0 37 37 37h299v1096h-299q-37 0 -37 34v99q0 35 37 35h774q37 0 37 -35v-99q0 -35 -37 -34h-299v-1096h299q37 0 37 -37v-96q0 -37 -37 -37h-774q-37 0 -37 37zM391 1577v63q0 27 27 27h332q27 0 26 -27v-63q0 -27 -26 -27h-332q-27 0 -27 27z" />
    <glyph glyph-name="imacron" unicode="&#x12b;" 
d="M190 1010v82q0 35 35 34h447q35 0 35 -34v-940h313q35 0 35 -35v-80q0 -37 -35 -37h-795q-35 0 -35 37v80q0 35 35 35h314v823h-314q-35 0 -35 35zM358 1270v63q0 27 27 27h332q27 0 26 -27v-63q0 -27 -26 -27h-332q-27 0 -27 27z" />
    <glyph glyph-name="Ibreve" unicode="&#x12c;" 
d="M160 37v96q0 37 37 37h299v1096h-299q-37 0 -37 34v99q0 35 37 35h774q37 0 37 -35v-99q0 -35 -37 -34h-299v-1096h299q37 0 37 -37v-96q0 -37 -37 -37h-774q-37 0 -37 37zM780 1686l-2 -23q-2 -70 -46 -111t-114 -41h-69q-70 0 -114 41t-46 111l-2 23q0 29 27 28h53
q27 0 31 -26l6 -37q4 -35 39 -35h82q35 0 39 35l6 37q4 27 30 26h54q26 1 26 -28z" />
    <glyph glyph-name="ibreve" unicode="&#x12d;" 
d="M190 1010v82q0 35 35 34h447q35 0 35 -34v-940h313q35 0 35 -35v-80q0 -37 -35 -37h-795q-35 0 -35 37v80q0 35 35 35h314v823h-314q-35 0 -35 35zM748 1378l-3 -22q-2 -70 -46 -111t-113 -41h-70q-70 0 -114 41t-46 111v22q-4 29 25 29h53q25 0 33 -27l4 -37
q4 -35 39 -34h82q35 0 39 34l6 37q4 27 31 27h53q27 0 27 -29z" />
    <glyph glyph-name="Iogonek" unicode="&#x12e;" 
d="M565 0h-368q-37 0 -37 37v96q0 37 37 37h299v1096h-299q-37 0 -37 34v99q0 35 37 35h774q37 0 37 -35v-99q0 -35 -37 -34h-299v-1096h299q37 0 37 -37v-96q0 -37 -37 -37h-305q-61 -76 -72 -137q-6 -33 24 -33h82q27 0 27 -29v-37q0 -27 -27 -26h-112q-41 0 -66.5 25.5
t-25.5 66.5q-1 90 69 170z" />
    <glyph glyph-name="iogonek" unicode="&#x12f;" 
d="M573 0h-348q-35 0 -35 37v80q0 35 35 35h314v823h-314q-35 0 -35 35v82q0 35 35 34h447q35 0 35 -34v-940h313q35 0 35 -35v-80q0 -37 -35 -37h-348q-59 -78 -70 -135q-6 -35 25 -35h82q27 0 26 -27v-39q0 -27 -26 -26h-113q-41 0 -66.5 25.5t-25.5 66.5q-1 90 69 170z
M446 1307v131q0 23 15.5 38t40.5 15h139q25 0 39 -15.5t14 -37.5v-131q0 -23 -14 -38.5t-39 -15.5h-139q-25 0 -40.5 15.5t-15.5 38.5z" />
    <glyph glyph-name="Idotaccent" unicode="&#x130;" 
d="M160 37v96q0 37 37 37h299v1096h-299q-37 0 -37 34v99q0 35 37 35h774q37 0 37 -35v-99q0 -35 -37 -34h-299v-1096h299q37 0 37 -37v-96q0 -37 -37 -37h-774q-37 0 -37 37zM489 1577v70q0 25 15.5 40t40.5 15h78q25 0 40 -15.5t15 -39.5v-70q0 -25 -15.5 -40t-39.5 -15
h-78q-25 0 -40.5 15t-15.5 40z" />
    <glyph glyph-name="dotlessi" unicode="&#x131;" 
d="M190 1010v82q0 35 35 34h447q35 0 35 -34v-940h313q35 0 35 -35v-80q0 -37 -35 -37h-795q-35 0 -35 37v80q0 35 35 35h314v823h-314q-35 0 -35 35z" />
    <glyph glyph-name="IJ" unicode="&#x132;" 
d="M655 1434h322q35 0 35 -35v-1123q0 -127 -77 -204.5t-204 -77.5h-186q-127 0 -205 76.5t-78 203.5v84q0 35 37 35h104q37 0 37 -35v-92q0 -43 27 -68.5t70 -25.5h202q43 0 70 25.5t27 68.5v1000h-181q-35 0 -34 34v97q-1 37 34 37zM440 1397v-770q0 -37 -37 -37h-98
q-35 0 -35 37v639h-164q-35 0 -34 34v97q0 37 34 37h297q37 0 37 -37z" />
    <glyph glyph-name="ij" unicode="&#x133;" 
d="M649 -272v90q0 35 37 35h96q39 0 62.5 24.5t23.5 63.5v1034h-137q-37 0 -37 35v82q0 35 37 34h264q43 0 43 -34v-1143q0 -115 -70.5 -185.5t-185.5 -70.5h-96q-37 0 -37 35zM594 0h-438q-39 0 -39 37v80q0 35 35 35h137v823h-137q-35 0 -35 35v82q0 35 35 34h264
q43 0 43 -34v-940h139q35 0 35 -35v-80q0 -37 -39 -37zM207 1307v131q0 53 53 53h139q55 0 56 -53v-131q0 -51 -56 -52h-139q-53 1 -53 52zM784 1307v131q0 53 56 53h139q53 0 53 -53v-131q0 -51 -53 -52h-139q-56 1 -56 52z" />
    <glyph glyph-name="Jcircumflex" unicode="&#x134;" 
d="M420 1300v99q0 35 35 35h497q37 0 37 -35v-1127q0 -127 -77.5 -204.5t-204.5 -77.5h-273q-127 0 -203.5 77.5t-76.5 204.5v82q0 37 34 37h107q35 0 35 -37v-90q0 -43 26.5 -69.5t69.5 -26.5h291q43 0 68.5 26.5t25.5 69.5v1002h-356q-35 -1 -35 34zM797 1698l121 -158
q16 -20 -11 -20h-92q-27 0 -43 22l-61 90l-68 -92q-16 -20 -43 -20h-88q-27 0 -10 20l121 158q18 23 45 22h86q25 1 43 -22z" />
    <glyph glyph-name="jcircumflex" unicode="&#x135;" 
d="M324 1126h534q37 0 37 -34v-1115q0 -158 -127 -230.5t-317 -72.5q-25 0 -65 2t-98.5 8.5t-98 21.5t-39.5 36v90q0 27 34 27q16 0 27 -2q109 -20 217 -21q74 0 135.5 11.5t111.5 49t50 99.5v979h-401q-35 0 -35 35v82q0 34 35 34zM696 1391l121 -158q16 -20 -10 -21h-92
q-31 0 -43 23l-64 90l-65 -92q-16 -20 -43 -21h-88q-27 0 -13 21l123 158q18 23 43 22h86q27 1 45 -22z" />
    <glyph glyph-name="uni0136" unicode="&#x136;" 
d="M524 662h-192v-625q0 -37 -37 -37h-105q-37 0 -36 37v1362q0 35 36 35h105q37 0 37 -35v-570h194l328 574q16 31 53 31h133q37 0 17 -31l-383 -660l420 -712q16 -31 -19 -31h-133q-37 0 -53 31zM506 -293l24 191q6 37 41 36h60q39 0 28 -34l-47 -193q-6 -29 -37 -29h-45
q-28 0 -24 29z" />
    <glyph glyph-name="uni0137" unicode="&#x137;" 
d="M512 496h-188v-459q0 -37 -37 -37h-97q-37 0 -36 37v1362q0 35 36 35h97q37 0 37 -35v-744h188l313 439q23 33 45 32h127q18 0 25.5 -9t-0.5 -23l-369 -519l391 -542q8 -14 2 -23.5t-22 -9.5h-131q-20 0 -43 33zM506 -293l24 191q6 37 41 36h60q39 0 28 -34l-47 -193
q-6 -29 -37 -29h-45q-28 0 -24 29z" />
    <glyph glyph-name="Lacute" unicode="&#x139;" 
d="M344 180h633q35 0 35 -37v-106q0 -37 -35 -37h-774q-35 0 -35 37v1362q0 35 35 35h106q35 0 35 -35v-1219zM201 1532l86 174q12 23 41 23h147q25 0 8 -21l-153 -180q-18 -18 -47 -19h-68q-24 0 -14 23z" />
    <glyph glyph-name="lacute" unicode="&#x13a;" 
d="M186 1317v82q0 35 35 35h445q37 0 36 -35v-1247h314q35 0 35 -35v-80q0 -37 -35 -37h-795q-35 0 -35 37v80q0 35 35 35h311v1130h-311q-35 0 -35 35zM401 1534l86 172q14 25 41 25h148q25 0 8 -21l-154 -180q-14 -18 -47 -19h-67q-25 0 -15 23z" />
    <glyph glyph-name="uni013B" unicode="&#x13b;" 
d="M344 180h633q35 0 35 -37v-106q0 -37 -35 -37h-774q-35 0 -35 37v1362q0 35 35 35h106q35 0 35 -35v-1219zM506 -293l24 191q6 37 41 36h60q39 0 28 -34l-47 -193q-6 -29 -37 -29h-45q-28 0 -24 29z" />
    <glyph glyph-name="uni013C" unicode="&#x13c;" 
d="M186 1317v82q0 35 35 35h445q37 0 36 -35v-1247h314q35 0 35 -35v-80q0 -37 -35 -37h-795q-35 0 -35 37v80q0 35 35 35h311v1130h-311q-35 0 -35 35zM506 -293l24 191q6 37 41 36h60q39 0 28 -34l-47 -193q-6 -29 -37 -29h-45q-28 0 -24 29z" />
    <glyph glyph-name="Lcaron" unicode="&#x13d;" 
d="M344 180h633q35 0 35 -37v-106q0 -37 -35 -37h-774q-35 0 -35 37v1362q0 35 35 35h106q35 0 35 -35v-1219zM711 1206l24 191q6 37 43 37h60q37 0 26 -35l-47 -193q-6 -29 -35 -28h-45q-12 0 -20 8t-6 20z" />
    <glyph glyph-name="lcaron" unicode="&#x13e;" 
d="M186 1317v82q0 35 35 35h445q37 0 36 -35v-1247h314q35 0 35 -35v-80q0 -37 -35 -37h-795q-35 0 -35 37v80q0 35 35 35h311v1130h-311q-35 0 -35 35zM950 1206l25 191q6 37 43 37h59q37 0 27 -35l-47 -193q-8 -29 -35 -28h-45q-31 -1 -27 28z" />
    <glyph glyph-name="Ldot" unicode="&#x13f;" 
d="M344 180h633q35 0 35 -37v-106q0 -37 -35 -37h-774q-35 0 -35 37v1362q0 35 35 35h106q35 0 35 -35v-1219zM711 637v160q0 53 53 53h151q53 0 54 -53v-160q0 -53 -54 -53h-151q-25 0 -39 15t-14 38z" />
    <glyph glyph-name="ldot" unicode="&#x140;" 
d="M186 1317v82q0 35 35 35h445q37 0 36 -35v-1247h314q35 0 35 -35v-80q0 -37 -35 -37h-795q-35 0 -35 37v80q0 35 35 35h311v1130h-311q-35 0 -35 35zM1057 637v160q0 53 51 53h152q55 0 55 -53v-160q0 -23 -15.5 -38t-39.5 -15h-152q-23 0 -37 15t-14 38z" />
    <glyph glyph-name="Lslash" unicode="&#x141;" 
d="M51 483l-37 64q-18 31 13 47l141 86v719q0 35 35 35h106q35 0 35 -35v-608l154 92q10 6 18 6q18 0 31 -19l35 -61q16 -33 -13 -51l-225 -137v-441h633q35 0 35 -37v-106q0 -37 -35 -37h-774q-35 0 -35 37v475l-68 -41q-12 -6 -20 -6q-19 0 -29 18z" />
    <glyph glyph-name="lslash" unicode="&#x142;" 
d="M365 510l-31 65q-18 33 16 48l182 100v559h-311q-35 0 -35 35v82q0 35 35 35h445q37 0 36 -35v-584l115 62q10 6 19 6q20 0 30 -23l33 -67q12 -29 -18 -48l-179 -96v-497h314q35 0 35 -35v-80q0 -37 -35 -37h-795q-35 0 -35 37v80q0 35 35 35h311v407l-120 -65
q-6 -4 -17 -5q-22 1 -30 21z" />
    <glyph glyph-name="Nacute" unicode="&#x143;" 
d="M332 954v-917q0 -37 -35 -37h-107q-37 0 -36 37v1362q0 35 36 35h72q37 0 53 -31l496 -936q20 -43 33 -100l8 2q-16 61 -16 104v926q0 35 34 35h107q37 0 37 -35v-1362q0 -37 -37 -37h-72q-37 0 -53 31l-496 930q-23 43 -32 98l-9 -2q17 -62 17 -103zM504 1534l86 172
q10 25 39 25h147q25 0 8 -21l-151 -180q-18 -18 -47 -19h-68q-24 0 -14 23z" />
    <glyph glyph-name="nacute" unicode="&#x144;" 
d="M190 1126h97q37 0 37 -34v-54q213 106 381 107q139 0 224 -82t85 -217v-811q0 -35 -35 -35h-98q-35 0 -35 35v811q0 63 -43 101t-115 38q-119 0 -364 -123v-825q0 -37 -37 -37h-97q-37 0 -36 37v1055q-1 34 36 34zM516 1227l86 172q14 25 41 24h148q27 0 6 -20l-152 -180
q-14 -18 -47 -19h-68q-24 0 -14 23z" />
    <glyph glyph-name="uni0145" unicode="&#x145;" 
d="M332 954v-917q0 -37 -35 -37h-107q-37 0 -36 37v1362q0 35 36 35h72q37 0 53 -31l496 -936q20 -43 33 -100l8 2q-16 61 -16 104v926q0 35 34 35h107q37 0 37 -35v-1362q0 -37 -37 -37h-72q-37 0 -53 31l-496 930q-23 43 -32 98l-9 -2q17 -62 17 -103zM506 -293l24 191
q6 37 41 36h60q39 0 28 -34l-47 -193q-6 -29 -37 -29h-45q-28 0 -24 29z" />
    <glyph glyph-name="uni0146" unicode="&#x146;" 
d="M190 1126h97q37 0 37 -34v-54q213 106 381 107q139 0 224 -82t85 -217v-811q0 -35 -35 -35h-98q-35 0 -35 35v811q0 63 -43 101t-115 38q-119 0 -364 -123v-825q0 -37 -37 -37h-97q-37 0 -36 37v1055q-1 34 36 34zM506 -293l24 191q6 37 41 36h60q39 0 28 -34l-47 -193
q-6 -29 -37 -29h-45q-28 0 -24 29z" />
    <glyph glyph-name="Ncaron" unicode="&#x147;" 
d="M332 954v-917q0 -37 -35 -37h-107q-37 0 -36 37v1362q0 35 36 35h72q37 0 53 -31l496 -936q20 -43 33 -100l8 2q-16 61 -16 104v926q0 35 34 35h107q37 0 37 -35v-1362q0 -37 -37 -37h-72q-37 0 -53 31l-496 930q-23 43 -32 98l-9 -2q17 -62 17 -103zM793 1698l-121 -158
q-16 -20 -43 -20h-88q-27 0 -43 20l-121 158q-16 23 10 22h88q25 0 43 -22l68 -90l61 90q18 23 43 22h92q27 1 11 -22z" />
    <glyph glyph-name="ncaron" unicode="&#x148;" 
d="M190 1126h97q37 0 37 -34v-54q213 106 381 107q139 0 224 -82t85 -217v-811q0 -35 -35 -35h-98q-35 0 -35 35v811q0 63 -43 101t-115 38q-119 0 -364 -123v-825q0 -37 -37 -37h-97q-37 0 -36 37v1055q-1 34 36 34zM805 1391l-121 -158q-16 -20 -43 -21h-86q-29 0 -45 21
l-121 158q-16 23 10 22h88q25 0 43 -22l68 -91l61 91q18 23 43 22h93q26 1 10 -22z" />
    <glyph glyph-name="Eng" unicode="&#x14a;" 
d="M733 -307h-162q-35 0 -34 35v106q0 37 34 37h168q43 0 70 25.5t27 68.5v117l-484 907q-20 49 -26 103l-4 -2q10 -72 10 -103v-950q0 -37 -37 -37h-105q-37 0 -36 37v1362q0 35 36 35h72q31 0 49 -33l504 -942q14 -31 29 -103l4 2q-12 61 -12 105v936q0 35 34 35h107
q37 0 37 -35v-1426q0 -125 -78 -202.5t-203 -77.5z" />
    <glyph glyph-name="eng" unicode="&#x14b;" 
d="M190 1126h97q37 0 37 -34v-54q213 106 378 107q139 0 225.5 -82t86.5 -217v-905q0 -113 -71 -180.5t-185 -67.5h-178q-35 0 -35 35v90q0 35 35 35h178q39 0 63.5 23.5t24.5 60.5v909q0 63 -43 101t-115 38q-127 0 -364 -123v-825q0 -37 -37 -37h-97q-37 0 -36 37v1055
q-1 34 36 34z" />
    <glyph glyph-name="Omacron" unicode="&#x14c;" 
d="M328 1169v-905q0 -43 26.5 -69.5t69.5 -26.5h319q43 0 70 26.5t27 69.5v905q0 43 -27 70t-70 27h-319q-43 0 -69.5 -27t-26.5 -70zM150 272v889q0 127 77.5 205t204.5 78h303q127 0 205 -78t78 -205v-889q0 -127 -78 -204.5t-205 -77.5h-303q-127 0 -204.5 77.5
t-77.5 204.5zM391 1577v63q0 27 27 27h332q27 0 26 -27v-63q0 -27 -26 -27h-332q-27 0 -27 27z" />
    <glyph glyph-name="omacron" unicode="&#x14d;" 
d="M324 889v-651q0 -39 23.5 -62.5t62.5 -23.5h348q39 0 63.5 23.5t24.5 62.5v651q0 39 -24.5 62.5t-63.5 23.5h-348q-39 0 -62.5 -23.5t-23.5 -62.5zM154 246v635q0 115 70.5 185.5t185.5 70.5h348q115 0 185.5 -71t70.5 -185v-635q0 -115 -71 -185.5t-185 -70.5h-348
q-115 0 -185.5 70.5t-70.5 185.5zM391 1270v63q0 27 27 27h332q27 0 26 -27v-63q0 -27 -26 -27h-332q-27 0 -27 27z" />
    <glyph glyph-name="Obreve" unicode="&#x14e;" 
d="M328 1169v-905q0 -43 26.5 -69.5t69.5 -26.5h319q43 0 70 26.5t27 69.5v905q0 43 -27 70t-70 27h-319q-43 0 -69.5 -27t-26.5 -70zM150 272v889q0 127 77.5 205t204.5 78h303q127 0 205 -78t78 -205v-889q0 -127 -78 -204.5t-205 -77.5h-303q-127 0 -204.5 77.5
t-77.5 204.5zM780 1686l-2 -23q-2 -70 -46 -111t-114 -41h-69q-70 0 -114 41t-46 111l-2 23q0 29 27 28h53q27 0 31 -26l6 -37q4 -35 39 -35h82q35 0 39 35l6 37q4 27 30 26h54q26 1 26 -28z" />
    <glyph glyph-name="obreve" unicode="&#x14f;" 
d="M324 889v-651q0 -39 23.5 -62.5t62.5 -23.5h348q39 0 63.5 23.5t24.5 62.5v651q0 39 -24.5 62.5t-63.5 23.5h-348q-39 0 -62.5 -23.5t-23.5 -62.5zM154 246v635q0 115 70.5 185.5t185.5 70.5h348q115 0 185.5 -71t70.5 -185v-635q0 -115 -71 -185.5t-185 -70.5h-348
q-115 0 -185.5 70.5t-70.5 185.5zM780 1378l-2 -22q-2 -70 -46 -111t-114 -41h-69q-70 0 -114 41t-46 111l-2 22q0 29 27 29h53q27 0 31 -27l6 -37q4 -35 39 -34h82q35 0 39 34l6 37q4 27 30 27h54q26 0 26 -29z" />
    <glyph glyph-name="Ohungarumlaut" unicode="&#x150;" 
d="M328 1169v-905q0 -43 26.5 -69.5t69.5 -26.5h319q43 0 70 26.5t27 69.5v905q0 43 -27 70t-70 27h-319q-43 0 -69.5 -27t-26.5 -70zM150 272v889q0 127 77.5 205t204.5 78h303q127 0 205 -78t78 -205v-889q0 -127 -78 -204.5t-205 -77.5h-303q-127 0 -204.5 77.5
t-77.5 204.5zM649 1534l92 154q14 25 41 24h121q29 0 10 -22l-137 -158q-16 -20 -45 -21h-69q-25 0 -13 23zM422 1534l86 154q10 25 39 24h123q29 0 10 -22l-131 -158q-16 -20 -45 -21h-68q-26 0 -14 23z" />
    <glyph glyph-name="ohungarumlaut" unicode="&#x151;" 
d="M324 889v-651q0 -39 23.5 -62.5t62.5 -23.5h348q39 0 63.5 23.5t24.5 62.5v651q0 39 -24.5 62.5t-63.5 23.5h-348q-39 0 -62.5 -23.5t-23.5 -62.5zM154 246v635q0 115 70.5 185.5t185.5 70.5h348q115 0 185.5 -71t70.5 -185v-635q0 -115 -71 -185.5t-185 -70.5h-348
q-115 0 -185.5 70.5t-70.5 185.5zM649 1227l92 153q14 25 41 25h121q29 0 10 -23l-137 -157q-16 -20 -45 -21h-69q-25 0 -13 23zM422 1227l86 153q10 25 39 25h123q29 0 10 -23l-131 -157q-16 -20 -45 -21h-68q-26 0 -14 23z" />
    <glyph glyph-name="OE" unicode="&#x152;" 
d="M252 1169v-905q0 -43 26.5 -69.5t69.5 -26.5h170q43 0 68.5 26.5t25.5 69.5v905q0 43 -25.5 70t-68.5 27h-170q-43 0 -69.5 -27t-26.5 -70zM649 1434h449q35 0 35 -35v-107q0 -37 -35 -37h-307v-507h217q35 0 34 -37v-105q0 -37 -34 -37h-217v-391h307q35 0 35 -37v-104
q0 -37 -35 -37h-449q-16 0 -26 10q-57 -20 -115 -20h-152q-127 0 -203.5 77.5t-76.5 204.5v889q0 127 76.5 205t203.5 78h152q57 0 115 -21q10 11 26 11z" />
    <glyph glyph-name="oe" unicode="&#x153;" 
d="M512 238v651q0 39 -19.5 62.5t-52.5 23.5h-123q-39 0 -62.5 -23.5t-23.5 -62.5v-651q0 -39 24 -62.5t60 -23.5h125q33 0 52.5 23.5t19.5 62.5zM850 975h-102q-31 0 -49.5 -23.5t-18.5 -62.5v-240h258v240q0 39 -23.5 62.5t-64.5 23.5zM1071 489h-391v-249
q0 -41 18.5 -64.5t49.5 -23.5h104q39 0 62.5 23.5t23.5 62.5v65q0 35 35 35h98q37 0 37 -35v-57q0 -115 -70.5 -185.5t-185.5 -70.5h-119q-82 0 -137 49q-59 -49 -139 -49h-140q-115 0 -185.5 70.5t-70.5 185.5v635q0 115 71 185.5t185 70.5h140q80 0 139 -50q55 49 137 50
h119q115 0 185.5 -71t70.5 -185v-355q0 -37 -37 -37z" />
    <glyph glyph-name="Racute" unicode="&#x154;" 
d="M760 1255h-428v-512h428q43 0 68.5 27t25.5 70v321q0 43 -25.5 68.5t-68.5 25.5zM874 35l-208 530h-334v-528q0 -37 -37 -37h-105q-37 0 -36 37v1362q0 35 36 35h562q125 0 202.5 -78t77.5 -203v-305q0 -100 -49 -171t-135 -97l211 -545q10 -35 -27 -35h-112
q-32 0 -46 35zM457 1534l86 172q14 25 41 25h147q27 0 6 -21l-151 -180q-16 -18 -47 -19h-68q-24 0 -14 23z" />
    <glyph glyph-name="racute" unicode="&#x155;" 
d="M891 117v-80q0 -37 -35 -37h-672q-35 0 -34 37v80q0 35 34 35h230v823h-221q-35 0 -35 35v82q0 35 35 34h354q35 0 35 -34v-115q260 166 446 166q35 0 35 -33l2 -117q0 -25 -35 -24q-160 0 -448 -178v-639h274q35 0 35 -35zM524 1227l86 172q10 25 39 24h148q25 0 8 -20
l-152 -180q-18 -18 -47 -19h-67q-25 0 -15 23z" />
    <glyph glyph-name="uni0156" unicode="&#x156;" 
d="M760 1255h-428v-512h428q43 0 68.5 27t25.5 70v321q0 43 -25.5 68.5t-68.5 25.5zM874 35l-208 530h-334v-528q0 -37 -37 -37h-105q-37 0 -36 37v1362q0 35 36 35h562q125 0 202.5 -78t77.5 -203v-305q0 -100 -49 -171t-135 -97l211 -545q10 -35 -27 -35h-112
q-32 0 -46 35zM506 -293l24 191q6 37 41 36h60q39 0 28 -34l-47 -193q-6 -29 -37 -29h-45q-28 0 -24 29z" />
    <glyph glyph-name="uni0157" unicode="&#x157;" 
d="M891 117v-80q0 -37 -35 -37h-672q-35 0 -34 37v80q0 35 34 35h230v823h-221q-35 0 -35 35v82q0 35 35 34h354q35 0 35 -34v-115q260 166 446 166q35 0 35 -33l2 -117q0 -25 -35 -24q-160 0 -448 -178v-639h274q35 0 35 -35zM424 -293l25 191q6 37 40 36h60q39 0 29 -34
l-48 -193q-6 -29 -36 -29h-45q-29 0 -25 29z" />
    <glyph glyph-name="Rcaron" unicode="&#x158;" 
d="M760 1255h-428v-512h428q43 0 68.5 27t25.5 70v321q0 43 -25.5 68.5t-68.5 25.5zM874 35l-208 530h-334v-528q0 -37 -37 -37h-105q-37 0 -36 37v1362q0 35 36 35h562q125 0 202.5 -78t77.5 -203v-305q0 -100 -49 -171t-135 -97l211 -545q10 -35 -27 -35h-112
q-32 0 -46 35zM748 1698l-123 -158q-14 -20 -43 -20h-86q-29 0 -45 20l-121 158q-16 23 10 22h88q29 0 43 -22l68 -90l61 90q18 23 43 22h92q25 1 13 -22z" />
    <glyph glyph-name="rcaron" unicode="&#x159;" 
d="M891 117v-80q0 -37 -35 -37h-672q-35 0 -34 37v80q0 35 34 35h230v823h-221q-35 0 -35 35v82q0 35 35 34h354q35 0 35 -34v-115q260 166 446 166q35 0 35 -33l2 -117q0 -25 -35 -24q-160 0 -448 -178v-639h274q35 0 35 -35zM813 1391l-121 -158q-16 -20 -43 -21h-88
q-27 0 -43 21l-121 158q-16 23 11 22h88q25 0 43 -22l65 -91l64 91q14 23 43 22h92q26 1 10 -22z" />
    <glyph glyph-name="Sacute" unicode="&#x15a;" 
d="M170 1024v137q0 127 77 205t204 78h266q127 0 203.5 -78t76.5 -205v-129q0 -35 -34 -35h-107q-35 0 -35 35v137q0 43 -26.5 70t-69.5 27h-283q-43 0 -68.5 -27t-25.5 -70v-129q0 -49 41 -75l504 -334q49 -33 78.5 -87.5t29.5 -113.5v-160q0 -127 -77.5 -204.5
t-204.5 -77.5h-287q-125 0 -202.5 77.5t-77.5 204.5v129q0 37 34 37h107q35 0 35 -35v-137q0 -43 26.5 -69.5t69.5 -26.5h305q43 0 68.5 26.5t25.5 69.5v150q0 49 -41 75l-506 334q-47 33 -76.5 88.5t-29.5 112.5zM500 1534l86 172q14 25 41 25h147q25 0 8 -21l-153 -180
q-14 -18 -45 -19h-70q-24 0 -14 23z" />
    <glyph glyph-name="sacute" unicode="&#x15b;" 
d="M1014 352v-90q0 -123 -70 -197.5t-186 -74.5h-348q-115 0 -185.5 70.5t-70.5 185.5v90q0 37 36 37h97q37 0 37 -37v-72q0 -113 94 -112h332q96 0 96 124v56q0 55 -47 71l-504 193q-59 25 -95 80t-36 121v73q0 119 69.5 193t186.5 74h328q115 0 185.5 -71t70.5 -185v-90
q0 -37 -35 -37h-99q-35 0 -34 37v71q0 113 -97 113h-311q-94 0 -94 -121v-35q0 -55 45 -74l504 -192q59 -25 95 -80t36 -121zM502 1227l86 172q14 25 41 24h147q25 0 8 -20l-153 -180q-16 -18 -45 -19h-70q-24 0 -14 23z" />
    <glyph glyph-name="Scircumflex" unicode="&#x15c;" 
d="M170 1024v137q0 127 77 205t204 78h266q127 0 203.5 -78t76.5 -205v-129q0 -35 -34 -35h-107q-35 0 -35 35v137q0 43 -26.5 70t-69.5 27h-283q-43 0 -68.5 -27t-25.5 -70v-129q0 -49 41 -75l504 -334q49 -33 78.5 -87.5t29.5 -113.5v-160q0 -127 -77.5 -204.5
t-204.5 -77.5h-287q-125 0 -202.5 77.5t-77.5 204.5v129q0 37 34 37h107q35 0 35 -35v-137q0 -43 26.5 -69.5t69.5 -26.5h305q43 0 68.5 26.5t25.5 69.5v150q0 49 -41 75l-506 334q-47 33 -76.5 88.5t-29.5 112.5zM670 1698l121 -158q16 -20 -11 -20h-94q-29 0 -41 22
l-63 90l-66 -92q-16 -20 -45 -20h-88q-27 0 -10 20l123 158q14 23 43 22h86q27 1 45 -22z" />
    <glyph glyph-name="scircumflex" unicode="&#x15d;" 
d="M1014 352v-90q0 -123 -70 -197.5t-186 -74.5h-348q-115 0 -185.5 70.5t-70.5 185.5v90q0 37 36 37h97q37 0 37 -37v-72q0 -113 94 -112h332q96 0 96 124v56q0 55 -47 71l-504 193q-59 25 -95 80t-36 121v73q0 119 69.5 193t186.5 74h328q115 0 185.5 -71t70.5 -185v-90
q0 -37 -35 -37h-99q-35 0 -34 37v71q0 113 -97 113h-311q-94 0 -94 -121v-35q0 -55 45 -74l504 -192q59 -25 95 -80t36 -121zM672 1391l121 -158q16 -20 -11 -21h-94q-29 0 -41 23l-63 90l-66 -92q-16 -20 -45 -21h-88q-27 0 -10 21l123 158q14 23 43 22h86q27 1 45 -22z
" />
    <glyph glyph-name="Scedilla" unicode="&#x15e;" 
d="M711 -156v-47q0 -43 -27 -69.5t-70 -26.5h-131q-27 0 -26 27v28q0 27 26 27h105q31 0 30 31v14q0 31 -30 31h-47q-53 0 -43 51l14 78h-80q-125 0 -202.5 77.5t-77.5 204.5v129q0 37 34 37h107q35 0 35 -35v-137q0 -43 26.5 -69.5t69.5 -26.5h305q43 0 68.5 26.5
t25.5 69.5v150q0 49 -41 75l-506 334q-47 33 -76.5 88.5t-29.5 112.5v137q0 127 77 205t204 78h266q127 0 203.5 -78t76.5 -205v-129q0 -35 -34 -35h-107q-35 0 -35 35v137q0 43 -26.5 70t-69.5 27h-283q-43 0 -68.5 -27t-25.5 -70v-129q0 -49 41 -75l504 -334
q49 -33 78.5 -87.5t29.5 -113.5v-160q0 -127 -77.5 -204.5t-204.5 -77.5h-107l-8 -45h10q43 0 70 -27t27 -72z" />
    <glyph glyph-name="scedilla" unicode="&#x15f;" 
d="M711 -156v-47q0 -43 -27 -69.5t-70 -26.5h-131q-27 0 -26 27v28q0 27 26 27h105q31 0 30 31v14q0 31 -30 31h-47q-53 0 -43 51l14 80h-102q-115 0 -185.5 70.5t-70.5 185.5v90q0 37 36 37h97q37 0 37 -37v-72q0 -113 94 -112h332q96 0 96 124v56q0 55 -47 71l-504 193
q-59 25 -95 80t-36 121v73q0 119 69.5 193t186.5 74h328q115 0 185.5 -71t70.5 -185v-90q0 -37 -35 -37h-99q-35 0 -34 37v71q0 113 -97 113h-311q-94 0 -94 -121v-35q0 -55 45 -74l504 -192q59 -25 95 -80t36 -121v-90q0 -123 -70 -197.5t-186 -74.5h-144l-10 -47h10
q43 0 70 -27t27 -72z" />
    <glyph glyph-name="Scaron" unicode="&#x160;" 
d="M170 1024v137q0 127 77 205t204 78h266q127 0 203.5 -78t76.5 -205v-129q0 -35 -34 -35h-107q-35 0 -35 35v137q0 43 -26.5 70t-69.5 27h-283q-43 0 -68.5 -27t-25.5 -70v-129q0 -49 41 -75l504 -334q49 -33 78.5 -87.5t29.5 -113.5v-160q0 -127 -77.5 -204.5
t-204.5 -77.5h-287q-125 0 -202.5 77.5t-77.5 204.5v129q0 37 34 37h107q35 0 35 -35v-137q0 -43 26.5 -69.5t69.5 -26.5h305q43 0 68.5 26.5t25.5 69.5v150q0 49 -41 75l-506 334q-47 33 -76.5 88.5t-29.5 112.5zM791 1698l-121 -158q-16 -20 -45 -20h-86q-29 0 -43 20
l-123 158q-16 23 10 22h88q27 0 45 -22l66 -90l63 90q14 23 41 22h94q27 1 11 -22z" />
    <glyph glyph-name="scaron" unicode="&#x161;" 
d="M1014 352v-90q0 -123 -70 -197.5t-186 -74.5h-348q-115 0 -185.5 70.5t-70.5 185.5v90q0 37 36 37h97q37 0 37 -37v-72q0 -113 94 -112h332q96 0 96 124v56q0 55 -47 71l-504 193q-59 25 -95 80t-36 121v73q0 119 69.5 193t186.5 74h328q115 0 185.5 -71t70.5 -185v-90
q0 -37 -35 -37h-99q-35 0 -34 37v71q0 113 -97 113h-311q-94 0 -94 -121v-35q0 -55 45 -74l504 -192q59 -25 95 -80t36 -121zM793 1391l-121 -158q-16 -20 -45 -21h-86q-29 0 -43 21l-123 158q-16 23 10 22h88q27 0 45 -22l66 -91l63 91q14 23 41 22h94q27 1 11 -22z" />
    <glyph glyph-name="uni0162" unicode="&#x162;" 
d="M1065 1399v-107q0 -37 -35 -37h-358v-1218q0 -37 -35 -37h-107q-35 0 -34 37v1218h-357q-37 0 -37 37v107q0 35 37 35h891q35 0 35 -35zM487 -293l23 191q6 37 41 36h59q39 0 29 -34l-47 -193q-6 -29 -35 -29h-47q-12 0 -18.5 8.5t-4.5 20.5z" />
    <glyph glyph-name="uni0163" unicode="&#x163;" 
d="M154 1001v91q0 35 36 34h216v170q0 35 36 35h97q37 0 36 -35v-170h369q35 0 35 -34v-91q0 -35 -35 -34h-369v-721q0 -39 24 -62.5t63 -23.5h282q35 0 35 -37v-88q0 -37 -35 -37h-282q-115 0 -185.5 71.5t-70.5 186.5v711h-216q-36 -1 -36 34zM612 -293l25 191q4 37 41 36
h59q35 0 29 -34l-49 -193q-8 -29 -35 -29h-45q-29 0 -25 29z" />
    <glyph glyph-name="Tcaron" unicode="&#x164;" 
d="M1065 1399v-107q0 -37 -35 -37h-358v-1218q0 -37 -35 -37h-107q-35 0 -34 37v1218h-357q-37 0 -37 37v107q0 35 37 35h891q35 0 35 -35zM793 1698l-121 -158q-16 -20 -45 -20h-86q-29 0 -43 20l-123 158q-16 23 10 22h88q27 0 45 -22l66 -90l63 90q14 23 41 22h94
q27 1 11 -22z" />
    <glyph glyph-name="tcaron" unicode="&#x165;" 
d="M154 1001v91q0 35 36 34h216v170q0 35 36 35h97q37 0 36 -35v-170h369q35 0 35 -34v-91q0 -35 -35 -34h-369v-721q0 -39 24 -62.5t63 -23.5h282q35 0 35 -37v-88q0 -37 -35 -37h-282q-115 0 -185.5 71.5t-70.5 186.5v711h-216q-36 -1 -36 34zM829 1239l25 193q8 37 41 36
h59q16 0 24.5 -10t4.5 -26l-49 -193q-6 -27 -33 -27h-47q-29 0 -25 27z" />
    <glyph glyph-name="Tbar" unicode="&#x166;" 
d="M303 809h193v446h-357q-37 0 -37 37v107q0 35 37 35h891q35 0 35 -35v-107q0 -37 -35 -37h-358v-446h194q35 0 35 -35v-72q0 -37 -35 -36h-194v-629q0 -37 -35 -37h-107q-35 0 -34 37v629h-193q-37 0 -37 36v72q0 35 37 35z" />
    <glyph glyph-name="tbar" unicode="&#x167;" 
d="M238 635v72q0 29 32 28h136v232h-216q-37 0 -36 34v91q0 35 36 34h216v170q0 35 36 35h97q37 0 36 -35v-170h369q35 0 35 -34v-91q0 -35 -35 -34h-369v-232h244q29 0 29 -28v-72q0 -27 -29 -27h-244v-362q0 -39 24 -62.5t63 -23.5h282q35 0 35 -37v-88q0 -37 -35 -37
h-282q-115 0 -185.5 71.5t-70.5 186.5v352h-136q-32 0 -32 27z" />
    <glyph glyph-name="Utilde" unicode="&#x168;" 
d="M881 1434h106q35 0 35 -35v-1127q0 -127 -77 -204.5t-204 -77.5h-315q-127 0 -204 77.5t-77 204.5v1127q0 35 35 35h107q37 0 37 -35v-1135q0 -43 25.5 -69.5t68.5 -26.5h332q43 0 69.5 26.5t26.5 69.5v1135q0 35 35 35zM344 1546v70q0 39 50 61.5t95 22.5q41 0 76 -14
l76 -35q16 -8 43 -9q66 0 123 41l10 5q10 0 10 -17v-67q0 -41 -50 -62.5t-95 -21.5q-37 0 -76 16l-76 33q-20 10 -43 10q-61 0 -122 -43q-6 -6 -13 -6q-8 0 -8 16z" />
    <glyph glyph-name="utilde" unicode="&#x169;" 
d="M979 0h-98q-35 0 -35 37v51q-219 -106 -381 -106q-139 0 -225 82.5t-86 218.5v809q0 35 36 34h97q37 0 37 -34v-811q0 -63 43 -101.5t112 -38.5q113 0 367 123v828q0 35 35 34h98q35 0 35 -34v-1055q0 -37 -35 -37zM344 1239v70q0 39 50 61.5t95 22.5q41 0 76 -15l76 -35
q16 -8 43 -8q66 0 123 41q8 4 10 4q10 0 10 -16v-68q0 -41 -50 -62.5t-95 -21.5q-37 0 -76 17l-76 33q-20 10 -43 10q-61 0 -122 -43q-6 -6 -13 -6q-8 0 -8 16z" />
    <glyph glyph-name="Umacron" unicode="&#x16a;" 
d="M881 1434h106q35 0 35 -35v-1127q0 -127 -77 -204.5t-204 -77.5h-315q-127 0 -204 77.5t-77 204.5v1127q0 35 35 35h107q37 0 37 -35v-1135q0 -43 25.5 -69.5t68.5 -26.5h332q43 0 69.5 26.5t26.5 69.5v1135q0 35 35 35zM391 1577v63q0 27 27 27h332q27 0 26 -27v-63
q0 -27 -26 -27h-332q-27 0 -27 27z" />
    <glyph glyph-name="umacron" unicode="&#x16b;" 
d="M979 0h-98q-35 0 -35 37v51q-219 -106 -381 -106q-139 0 -225 82.5t-86 218.5v809q0 35 36 34h97q37 0 37 -34v-811q0 -63 43 -101.5t112 -38.5q113 0 367 123v828q0 35 35 34h98q35 0 35 -34v-1055q0 -37 -35 -37zM391 1270v63q0 27 27 27h332q27 0 26 -27v-63
q0 -27 -26 -27h-332q-27 0 -27 27z" />
    <glyph glyph-name="Ubreve" unicode="&#x16c;" 
d="M881 1434h106q35 0 35 -35v-1127q0 -127 -77 -204.5t-204 -77.5h-315q-127 0 -204 77.5t-77 204.5v1127q0 35 35 35h107q37 0 37 -35v-1135q0 -43 25.5 -69.5t68.5 -26.5h332q43 0 69.5 26.5t26.5 69.5v1135q0 35 35 35zM780 1686l-2 -23q-2 -70 -46 -111t-114 -41h-69
q-70 0 -114 41t-46 111l-2 23q0 29 27 28h53q27 0 31 -26l6 -37q4 -35 39 -35h82q35 0 39 35l6 37q4 27 30 26h54q26 1 26 -28z" />
    <glyph glyph-name="ubreve" unicode="&#x16d;" 
d="M979 0h-98q-35 0 -35 37v51q-219 -106 -381 -106q-139 0 -225 82.5t-86 218.5v809q0 35 36 34h97q37 0 37 -34v-811q0 -63 43 -101.5t112 -38.5q113 0 367 123v828q0 35 35 34h98q35 0 35 -34v-1055q0 -37 -35 -37zM780 1378l-2 -22q-2 -70 -46 -111t-114 -41h-69
q-70 0 -114 41t-46 111l-2 22q0 29 27 29h53q27 0 31 -27l6 -37q4 -35 39 -34h82q35 0 39 34l6 37q4 27 30 27h54q26 0 26 -29z" />
    <glyph glyph-name="Uring" unicode="&#x16e;" 
d="M881 1434h106q35 0 35 -35v-1127q0 -127 -77 -204.5t-204 -77.5h-315q-127 0 -204 77.5t-77 204.5v1127q0 35 35 35h107q37 0 37 -35v-1135q0 -43 25.5 -69.5t68.5 -26.5h332q43 0 69.5 26.5t26.5 69.5v1135q0 35 35 35zM430 1654.5q0 63.5 45 108.5t108.5 45t108.5 -45
t45 -108.5t-45 -108.5t-108.5 -45t-108.5 45t-45 108.5zM516 1655q0 -29 20.5 -49.5t47 -20.5t47 20.5t20.5 49.5q0 27 -20.5 47t-47 20t-47 -20t-20.5 -47z" />
    <glyph glyph-name="uring" unicode="&#x16f;" 
d="M516 1348q0 -29 20.5 -49.5t47 -20.5t47 20.5t20.5 49.5q0 27 -20.5 47t-47 20t-47 -20t-20.5 -47zM979 0h-98q-35 0 -35 37v51q-219 -106 -381 -106q-139 0 -225 82.5t-86 218.5v809q0 35 36 34h97q37 0 37 -34v-811q0 -63 43 -101.5t112 -38.5q113 0 367 123v828
q0 35 35 34h98q35 0 35 -34v-1055q0 -37 -35 -37zM430 1347.5q0 63.5 45 108.5t108.5 45t108.5 -45t45 -108.5t-45 -108.5t-108.5 -45t-108.5 45t-45 108.5z" />
    <glyph glyph-name="Uhungarumlaut" unicode="&#x170;" 
d="M881 1434h106q35 0 35 -35v-1127q0 -127 -77 -204.5t-204 -77.5h-315q-127 0 -204 77.5t-77 204.5v1127q0 35 35 35h107q37 0 37 -35v-1135q0 -43 25.5 -69.5t68.5 -26.5h332q43 0 69.5 26.5t26.5 69.5v1135q0 35 35 35zM649 1534l92 154q14 25 41 24h121q29 0 10 -22
l-137 -158q-16 -20 -45 -21h-69q-25 0 -13 23zM422 1534l86 154q10 25 39 24h123q29 0 10 -22l-131 -158q-16 -20 -45 -21h-68q-26 0 -14 23z" />
    <glyph glyph-name="uhungarumlaut" unicode="&#x171;" 
d="M979 0h-98q-35 0 -35 37v51q-219 -106 -381 -106q-139 0 -225 82.5t-86 218.5v809q0 35 36 34h97q37 0 37 -34v-811q0 -63 43 -101.5t112 -38.5q113 0 367 123v828q0 35 35 34h98q35 0 35 -34v-1055q0 -37 -35 -37zM422 1227l86 153q10 25 39 25h123q29 0 10 -23
l-131 -157q-16 -20 -45 -21h-68q-26 0 -14 23zM649 1227l92 153q14 25 41 25h121q29 0 10 -23l-137 -157q-16 -20 -45 -21h-69q-25 0 -13 23z" />
    <glyph glyph-name="Uogonek" unicode="&#x172;" 
d="M762 -8q-51 -66 -64 -127q-6 -35 25 -35h82q27 0 26 -27v-39q0 -27 -26 -26h-113q-41 0 -66.5 25.5t-25.5 66.5q0 84 62 160h-236q-127 0 -204 77.5t-77 204.5v1127q0 35 35 35h107q37 0 37 -35v-1135q0 -43 25.5 -69.5t68.5 -26.5h332q43 0 69.5 26.5t26.5 69.5v1135
q0 35 35 35h106q35 0 35 -35v-1127q0 -121 -70.5 -197.5t-189.5 -82.5z" />
    <glyph glyph-name="uogonek" unicode="&#x173;" 
d="M879 0q-33 0 -33 35v53q-219 -106 -381 -106q-139 0 -225 82.5t-86 218.5v809q0 35 36 34h97q37 0 37 -34v-811q0 -63 43 -101.5t112 -38.5q113 0 367 123v828q0 35 35 34h98q35 0 35 -34v-1057q0 -35 -35 -35q-57 -72 -70 -135q-10 -35 23 -35h82q27 0 26 -29v-37
q0 -27 -26 -26h-111q-43 0 -68.5 25.5t-25.5 66.5q0 90 70 170z" />
    <glyph glyph-name="Wcircumflex" unicode="&#x174;" 
d="M668 1399l133 -926q4 -31 4 -104h6q0 74 4 104l137 926q6 35 41 35h111q35 0 29 -35l-244 -1364q-6 -35 -41 -35h-76q-37 0 -41 35l-139 893q-4 23 -4 106h-8q0 -74 -7 -106l-139 -893q-4 -35 -41 -35h-74q-37 0 -43 35l-243 1364q-6 35 30 35h109q35 0 41 -35l137 -926
q4 -31 4 -104h6q0 74 5 104l135 926q4 35 41 35h86q35 0 41 -35zM672 1698l121 -158q16 -20 -11 -20h-94q-29 0 -41 22l-63 90l-68 -92q-14 -20 -43 -20h-88q-27 0 -10 20l121 158q18 23 45 22h86q27 1 45 -22z" />
    <glyph glyph-name="wcircumflex" unicode="&#x175;" 
d="M573 717l-139 -682q-6 -35 -41 -35h-90q-37 0 -43 35l-233 1057q-6 35 28 34h103q35 0 41 -34l141 -725q6 -31 6 -107h6q0 76 6 107l140 725q6 35 41 34h90q35 0 41 -34l139 -725q6 -31 6 -107h6q0 59 6 107l142 725q6 35 43 34h102q37 0 27 -34l-234 -1057
q-10 -35 -45 -35h-88q-37 0 -43 35l-137 682q-6 31 -6 106h-8q-1 -75 -7 -106zM670 1391l123 -158q14 -20 -13 -21h-92q-27 0 -43 23l-61 90l-68 -92q-14 -20 -43 -21h-88q-27 0 -10 21l121 158q18 23 45 22h86q29 1 43 -22z" />
    <glyph glyph-name="Ycircumflex" unicode="&#x176;" 
d="M1055 1401l-383 -842v-522q0 -37 -35 -37h-107q-35 0 -34 37v522l-383 842q-12 33 20 33h119q35 0 51 -33l260 -572q16 -41 17 -102h8q0 61 16 102l260 572q12 33 49 33h121q37 0 21 -33zM672 1698l121 -158q16 -20 -11 -20h-92q-27 0 -43 22l-61 90l-68 -92
q-16 -20 -43 -20h-88q-27 0 -10 20l121 158q18 23 43 22h88q25 1 43 -22z" />
    <glyph glyph-name="ycircumflex" unicode="&#x177;" 
d="M385 -274l117 274l-414 1094q-6 14 0 23t23 9h112q37 0 47 -32l293 -793q14 -37 15 -104h8q0 61 14 104l293 791q14 35 49 34h115q16 0 22 -9t0 -23l-516 -1368q-10 -33 -47 -33h-108q-35 0 -23 33zM672 1391l121 -158q16 -20 -11 -21h-94q-29 0 -41 23l-63 90l-66 -92
q-16 -20 -45 -21h-88q-27 0 -10 21l123 158q14 23 43 22h86q27 1 45 -22z" />
    <glyph glyph-name="Ydieresis" unicode="&#x178;" 
d="M1055 1401l-383 -842v-522q0 -37 -35 -37h-107q-35 0 -34 37v522l-383 842q-12 33 20 33h119q35 0 51 -33l260 -572q16 -41 17 -102h8q0 61 16 102l260 572q12 33 49 33h121q37 0 21 -33zM676 1577v53q0 25 15.5 40.5t39.5 15.5h53q25 0 40.5 -15.5t15.5 -40.5v-53
q0 -25 -15.5 -40t-40.5 -15h-53q-25 0 -40 15t-15 40zM330 1577v53q0 25 15 40.5t42 15.5h51q27 0 42.5 -15.5t15.5 -40.5v-53q0 -25 -15.5 -40t-42.5 -15h-51q-27 0 -42 15t-15 40z" />
    <glyph glyph-name="Zacute" unicode="&#x179;" 
d="M1018 141v-104q0 -37 -37 -37h-803q-37 0 -37 37v104q0 39 21 66l653 1048h-629q-35 0 -34 37v107q0 35 34 35h803q37 0 37 -35v-107q0 -39 -20 -65l-654 -1049h629q37 0 37 -37zM502 1534l86 172q14 25 41 25h147q25 0 8 -21l-153 -180q-16 -18 -45 -19h-70
q-24 0 -14 23z" />
    <glyph glyph-name="zacute" unicode="&#x17a;" 
d="M182 188l617 779h-596q-35 0 -35 34v91q0 35 35 34h776q37 0 37 -34v-91q0 -33 -23 -63l-620 -778h608q37 0 37 -35v-88q0 -37 -37 -37h-786q-35 0 -35 37v88q-1 36 22 63zM508 1227l86 172q14 25 39 24h149q23 0 6 -20l-151 -180q-18 -18 -47 -19h-68q-24 0 -14 23z" />
    <glyph glyph-name="Zdotaccent" unicode="&#x17b;" 
d="M1018 141v-104q0 -37 -37 -37h-803q-37 0 -37 37v104q0 39 21 66l653 1048h-629q-35 0 -34 37v107q0 35 34 35h803q37 0 37 -35v-107q0 -39 -20 -65l-654 -1049h629q37 0 37 -37zM489 1577v70q0 25 15.5 40t40.5 15h78q25 0 40 -15.5t15 -39.5v-70q0 -25 -15.5 -40
t-39.5 -15h-78q-25 0 -40.5 15t-15.5 40z" />
    <glyph glyph-name="zdotaccent" unicode="&#x17c;" 
d="M182 188l617 779h-596q-35 0 -35 34v91q0 35 35 34h776q37 0 37 -34v-91q0 -33 -23 -63l-620 -778h608q37 0 37 -35v-88q0 -37 -37 -37h-786q-35 0 -35 37v88q-1 36 22 63zM494 1270v69q0 25 15 40.5t40 15.5h80q25 0 40 -15.5t15 -40.5v-69q0 -25 -15.5 -40.5
t-39.5 -15.5h-80q-25 0 -40 15.5t-15 40.5z" />
    <glyph glyph-name="Zcaron" unicode="&#x17d;" 
d="M1018 141v-104q0 -37 -37 -37h-803q-37 0 -37 37v104q0 39 21 66l653 1048h-629q-35 0 -34 37v107q0 35 34 35h803q37 0 37 -35v-107q0 -39 -20 -65l-654 -1049h629q37 0 37 -37zM793 1698l-121 -158q-16 -20 -45 -20h-86q-29 0 -43 20l-123 158q-16 23 10 22h88
q27 0 45 -22l66 -90l63 90q14 23 41 22h94q27 1 11 -22z" />
    <glyph glyph-name="zcaron" unicode="&#x17e;" 
d="M182 188l617 779h-596q-35 0 -35 34v91q0 35 35 34h776q37 0 37 -34v-91q0 -33 -23 -63l-620 -778h608q37 0 37 -35v-88q0 -37 -37 -37h-786q-35 0 -35 37v88q-1 36 22 63zM797 1391l-121 -158q-16 -20 -43 -21h-86q-29 0 -45 21l-121 158q-16 23 10 22h88q25 0 43 -22
l68 -91l61 91q18 23 43 22h92q27 1 11 -22z" />
    <glyph glyph-name="uni018F" unicode="&#x18f;" 
d="M426 168h315q43 0 69 26.5t26 67.5v338h-504v-338q0 -41 25.5 -67.5t68.5 -26.5zM190 778h646v391q0 43 -26 70t-69 27h-315q-43 0 -68.5 -27t-25.5 -70v-125q0 -35 -37 -34h-105q-37 0 -36 34v117q0 127 77.5 204t204.5 77h297q127 0 204 -78t77 -203v-889
q0 -127 -77 -204.5t-204 -77.5h-297q-127 0 -204.5 77.5t-77.5 204.5v469q-1 37 36 37z" />
    <glyph glyph-name="florin" unicode="&#x192;" 
d="M240 797l16 90q6 35 41 35h195l45 256q23 115 105.5 185.5t197.5 70.5h149q16 0 24.5 -10.5t4.5 -24.5l-14 -90q-10 -35 -43 -35h-150q-41 0 -68.5 -24.5t-33.5 -63.5l-47 -264h235q35 0 31 -35l-17 -90q-6 -35 -43 -35h-235l-180 -1034q-6 -35 -43 -35h-99q-16 0 -24 10
t-4 25l182 1034h-197q-34 0 -28 35z" />
    <glyph glyph-name="uni01DD" unicode="&#x1dd;" 
d="M410 152h348q39 0 63.5 23.5t24.5 62.5v239h-522v-239q0 -39 23.5 -62.5t62.5 -23.5zM190 637h656v252q0 39 -24.5 62.5t-63.5 23.5h-348q-39 0 -62.5 -23.5t-23.5 -62.5v-64q0 -37 -37 -37h-97q-37 0 -36 37v56q0 115 70.5 185.5t185.5 70.5h348q115 0 185.5 -71
t70.5 -185v-635q0 -115 -71 -185.5t-185 -70.5h-348q-115 0 -185.5 70.5t-70.5 185.5v356q-1 35 36 35z" />
    <glyph glyph-name="Aringacute" unicode="&#x1fa;" 
d="M395 426h377l-174 584q-10 35 -10 102h-8q0 -68 -11 -102zM516 1544.5q0 -28.5 20.5 -48t47 -19.5t47 19.5t20.5 48t-20.5 49t-47 20.5t-47 -20.5t-20.5 -49zM725 1606q12 -29 12 -62q0 -78 -71 -145l405 -1364q10 -35 -27 -35h-110q-37 0 -47 35l-62 213h-481l-63 -213
q-10 -35 -48 -35h-110q-37 0 -27 35l412 1376q-78 43 -78 133q0 63 45 108.5t109 45.5q37 0 69 -17l58 117q14 25 41 25h147q27 0 6 -21l-151 -180q-13 -12 -29 -16z" />
    <glyph glyph-name="aringacute" unicode="&#x1fb;" 
d="M819 268v244q-201 31 -282 31q-94 0 -149.5 -42t-55.5 -112v-110q0 -63 42 -100.5t111 -37.5q119 0 334 127zM539 1348q0 -29 21.5 -49.5t48 -20.5t47 20.5t20.5 49.5q0 27 -20.5 47t-47 20t-48 -20t-21.5 -47zM162 281v106q0 135 104.5 218t276.5 83q72 0 276 -24v198
q0 113 -96 113h-252q-96 0 -96 -113v-28q0 -37 -35 -37h-98q-35 0 -35 37v47q0 115 70.5 185.5t185.5 70.5h270q115 0 185.5 -71t70.5 -185v-844q0 -37 -37 -37h-96q-37 0 -37 37v55q-184 -111 -350 -110q-137 0 -222 82t-85 217zM676 1485l57 114q12 23 41 23h148
q25 0 8 -18l-154 -181q-10 -12 -26 -16q12 -27 12 -59q0 -63 -45 -108.5t-108.5 -45.5t-108.5 44t-45 110q0 63 45 108t108 45q35 0 68 -16z" />
    <glyph glyph-name="AEacute" unicode="&#x1fc;" 
d="M360 426h238v657q0 43 12 105h-4q-10 -47 -24 -101zM598 248h-297l-70 -213q-14 -35 -45 -35h-118q-16 0 -24.5 10t-2.5 25l481 1364q10 35 45 35h500q35 0 35 -35v-107q0 -37 -35 -37h-291v-507h199q37 0 37 -37v-105q0 -37 -37 -37h-199v-391h291q35 0 35 -37v-104
q0 -37 -35 -37h-432q-37 0 -37 37v211zM571 1534l86 172q10 25 39 25h148q25 0 8 -21l-152 -180q-18 -18 -47 -19h-67q-25 0 -15 23z" />
    <glyph glyph-name="aeacute" unicode="&#x1fd;" 
d="M500 246v272q-117 25 -156 25q-53 0 -88 -31t-35 -82v-192q0 -47 30 -72t68 -25q77 1 181 105zM860 975h-104q-39 0 -62.5 -23.5t-23.5 -62.5v-240h276v240q0 39 -23.5 62.5t-62.5 23.5zM1079 489h-409v-249q0 -39 23.5 -63.5t62.5 -24.5h104q39 0 62.5 23.5t23.5 62.5
v65q0 35 37 35h96q37 0 37 -35v-57q0 -115 -70.5 -185.5t-185.5 -70.5h-104q-150 0 -217 110q-131 -119 -256 -118q-98 0 -165 71.5t-67 186.5v188q0 117 73 188.5t195 71.5q74 0 181 -20v213v16q-12 78 -92 78h-80q-98 0 -99 -113v-28q0 -37 -34 -37h-99q-35 0 -35 37v47
q0 115 71 185.5t185 70.5h95q100 0 172 -60q70 59 172 60h104q115 0 185.5 -71t70.5 -185v-355q0 -37 -37 -37zM504 1227l86 172q14 25 39 24h149q23 0 6 -20l-151 -180q-18 -18 -47 -19h-68q-24 0 -14 23z" />
    <glyph glyph-name="Oslashacute" unicode="&#x1fe;" 
d="M369 182l338 1084h-283q-43 0 -69.5 -27t-26.5 -70v-905q0 -57 41 -82zM799 1251l-338 -1083h284q41 0 68 26.5t27 69.5v905q0 57 -41 82zM874 1487l-22 -66q78 -29 122 -97.5t44 -162.5v-889q0 -127 -78 -204.5t-205 -77.5h-303q-18 0 -26 2l-25 -78q-6 -18 -23 -18
q-2 0 -6 2h-2l-41 12q-27 10 -16 35l20 67q-76 29 -119.5 98.5t-43.5 161.5v889q0 127 77.5 205t204.5 78h303q18 0 27 -2l24 76q6 18 23 18q6 0 8 -2l41 -12q24 -6 16 -35zM502 1534l86 172q14 25 41 25h147q25 0 8 -21l-153 -180q-16 -18 -45 -19h-70q-24 0 -14 23z" />
    <glyph glyph-name="oslashacute" unicode="&#x1ff;" 
d="M406 152l272 823h-268q-39 0 -62.5 -23.5t-23.5 -62.5v-651q0 -39 22.5 -62.5t59.5 -23.5zM762 975l-273 -823h269q39 0 63.5 23.5t24.5 62.5v651q0 39 -23.5 62.5t-60.5 23.5zM336 -61l18 57q-92 16 -146 82.5t-54 167.5v635q0 115 70.5 185.5t185.5 70.5h321l25 75
q6 16 22 17q4 0 6 -2l33 -8q18 -6 14 -31l-18 -58q92 -16 146.5 -82.5t54.5 -166.5v-635q0 -115 -71 -185.5t-185 -70.5h-322l-24 -76q-10 -16 -23 -16q-4 0 -8 2l-31 10q-22 4 -14 29zM502 1227l86 172q14 25 41 24h147q25 0 8 -20l-153 -180q-16 -18 -45 -19h-70
q-24 0 -14 23z" />
    <glyph glyph-name="uni0218" unicode="&#x218;" 
d="M170 1024v137q0 127 77 205t204 78h266q127 0 203.5 -78t76.5 -205v-129q0 -35 -34 -35h-107q-35 0 -35 35v137q0 43 -26.5 70t-69.5 27h-283q-43 0 -68.5 -27t-25.5 -70v-129q0 -49 41 -75l504 -334q49 -33 78.5 -87.5t29.5 -113.5v-160q0 -127 -77.5 -204.5
t-204.5 -77.5h-287q-125 0 -202.5 77.5t-77.5 204.5v129q0 37 34 37h107q35 0 35 -35v-137q0 -43 26.5 -69.5t69.5 -26.5h305q43 0 68.5 26.5t25.5 69.5v150q0 49 -41 75l-506 334q-47 33 -76.5 88.5t-29.5 112.5zM506 -293l24 191q6 37 41 36h60q39 0 28 -34l-47 -193
q-6 -29 -34 -29h-48q-28 0 -24 29z" />
    <glyph glyph-name="uni0219" unicode="&#x219;" 
d="M1014 352v-90q0 -123 -70 -197.5t-186 -74.5h-348q-115 0 -185.5 70.5t-70.5 185.5v90q0 37 36 37h97q37 0 37 -37v-72q0 -113 94 -112h332q96 0 96 124v56q0 55 -47 71l-504 193q-59 25 -95 80t-36 121v73q0 119 69.5 193t186.5 74h328q115 0 185.5 -71t70.5 -185v-90
q0 -37 -35 -37h-99q-35 0 -34 37v71q0 113 -97 113h-311q-94 0 -94 -121v-35q0 -55 45 -74l504 -192q59 -25 95 -80t36 -121zM506 -293l24 191q6 37 41 36h60q39 0 28 -34l-47 -193q-6 -29 -37 -29h-45q-28 0 -24 29z" />
    <glyph glyph-name="uni021A" unicode="&#x21a;" 
d="M1065 1399v-107q0 -37 -35 -37h-358v-1218q0 -37 -35 -37h-107q-35 0 -34 37v1218h-357q-37 0 -37 37v107q0 35 37 35h891q35 0 35 -35zM487 -293l23 191q6 37 41 36h59q39 0 29 -34l-47 -193q-6 -29 -35 -29h-47q-12 0 -18.5 8.5t-4.5 20.5z" />
    <glyph glyph-name="uni021B" unicode="&#x21b;" 
d="M154 1001v91q0 35 36 34h216v170q0 35 36 35h97q37 0 36 -35v-170h369q35 0 35 -34v-91q0 -35 -35 -34h-369v-721q0 -39 24 -62.5t63 -23.5h282q35 0 35 -37v-88q0 -37 -35 -37h-282q-115 0 -185.5 71.5t-70.5 186.5v711h-216q-36 -1 -36 34zM612 -293l25 191q4 37 41 36
h59q35 0 29 -34l-49 -193q-8 -29 -35 -29h-45q-29 0 -25 29z" />
    <glyph glyph-name="uni0237" unicode="&#x237;" 
d="M324 1126h534q37 0 37 -34v-1115q0 -158 -127 -230.5t-317 -72.5q-25 0 -65 2t-98.5 8.5t-98 21.5t-39.5 36v90q0 27 34 27q16 0 27 -2q109 -20 217 -21q74 0 135.5 11.5t111.5 49t50 99.5v979h-401q-35 0 -35 35v82q0 34 35 34z" />
    <glyph glyph-name="uni0259" unicode="&#x259;" 
d="M410 152h348q39 0 63.5 23.5t24.5 62.5v239h-522v-239q0 -39 23.5 -62.5t62.5 -23.5zM190 637h656v252q0 39 -24.5 62.5t-63.5 23.5h-348q-39 0 -62.5 -23.5t-23.5 -62.5v-64q0 -37 -37 -37h-97q-37 0 -36 37v56q0 115 70.5 185.5t185.5 70.5h348q115 0 185.5 -71
t70.5 -185v-635q0 -115 -71 -185.5t-185 -70.5h-348q-115 0 -185.5 70.5t-70.5 185.5v356q-1 35 36 35z" />
    <glyph glyph-name="circumflex" unicode="&#x2c6;" 
d="M672 1612l121 -158q16 -20 -11 -20h-94q-29 0 -41 22l-63 90l-66 -90q-16 -23 -45 -22h-88q-27 0 -10 20l123 158q12 23 43 22h86q29 1 45 -22z" />
    <glyph glyph-name="caron" unicode="&#x2c7;" 
d="M793 1614l-121 -158q-16 -23 -45 -22h-86q-31 0 -43 22l-123 158q-16 20 10 20h88q29 0 45 -22l66 -90l63 90q12 23 41 22h94q27 0 11 -20z" />
    <glyph glyph-name="breve" unicode="&#x2d8;" 
d="M780 1602l-2 -23q-4 -70 -47 -112t-113 -42h-69q-70 0 -113 42t-47 112l-2 23q0 27 27 26h53q27 0 31 -26l6 -35q4 -35 39 -35h82q35 0 39 35l6 35q4 27 30 26h54q26 1 26 -26z" />
    <glyph glyph-name="dotaccent" unicode="&#x2d9;" 
d="M489 1493v70q0 25 15.5 40t40.5 15h78q25 0 40 -15.5t15 -39.5v-70q0 -55 -55 -55h-78q-56 0 -56 55z" />
    <glyph glyph-name="ring" unicode="&#x2da;" 
d="M430 1568.5q0 63.5 45 108.5t108.5 45t108.5 -45t45 -108.5t-45 -108.5t-108.5 -45t-108.5 45t-45 108.5zM516 1568.5q0 -28.5 20.5 -48t47 -19.5t47 19.5t20.5 48t-20.5 48t-47 19.5t-47 -19.5t-20.5 -48z" />
    <glyph glyph-name="ogonek" unicode="&#x2db;" 
d="M518 10h98q-68 -82 -77 -145q-6 -35 24 -35h80q27 0 27 -27v-39q0 -27 -27 -26h-113q-41 0 -65.5 25.5t-24.5 66.5q0 98 78 180z" />
    <glyph glyph-name="tilde" unicode="&#x2dc;" 
d="M342 1462v70q0 39 50 61.5t95 22.5q37 0 76 -17l76 -34q16 -8 43 -9q66 0 123 41q6 6 10 7q10 0 10 -17v-69q0 -39 -50 -60.5t-95 -21.5q-41 0 -76 14l-74 35q-18 8 -45 8q-68 0 -120 -43q-12 -4 -15 -4q-8 0 -8 16z" />
    <glyph glyph-name="hungarumlaut" unicode="&#x2dd;" 
d="M563 1448l92 156q14 23 41 22h123q29 0 8 -20l-137 -160q-16 -20 -45 -21h-67q-27 0 -15 23zM336 1448l86 154q14 25 39 24h123q27 0 10 -20l-131 -160q-16 -20 -43 -21h-70q-24 0 -14 23z" />
    <glyph glyph-name="uni0400" unicode="&#x400;" 
d="M154 37v1362q0 35 36 35h789q35 0 35 -35v-107q0 -37 -35 -37h-647v-507h471q35 0 35 -37v-105q0 -37 -35 -37h-471v-391h647q35 0 35 -37v-104q0 -37 -35 -37h-789q-36 0 -36 37zM569 1706l86 -172q10 -23 -14 -23h-70q-31 0 -45 19l-151 180q-25 20 6 21h147
q27 0 41 -25z" />
    <glyph glyph-name="uni0401" unicode="&#x401;" 
d="M154 37v1362q0 35 36 35h789q35 0 35 -35v-107q0 -37 -35 -37h-647v-507h471q35 0 35 -37v-105q0 -37 -35 -37h-471v-391h647q35 0 35 -37v-104q0 -37 -35 -37h-789q-36 0 -36 37zM666 1577v53q0 55 55 56h51q25 0 40 -15.5t15 -40.5v-53q0 -25 -15 -40t-40 -15h-51
q-55 0 -55 55zM319 1577v53q0 25 15.5 40.5t42.5 15.5h51q55 0 55 -56v-53q0 -55 -55 -55h-51q-27 0 -42.5 15t-15.5 40z" />
    <glyph glyph-name="uni0402" unicode="&#x402;" 
d="M788 -8h-71q-35 0 -35 35v106q0 37 35 37h80q43 0 69.5 25.5t26.5 68.5v314q0 43 -26.5 69.5t-69.5 26.5h-240v-637q0 -37 -37 -37h-104q-37 0 -37 37v1218h-240q-37 0 -37 37v107q0 35 37 35h658q37 0 37 -35v-107q0 -37 -37 -37h-240v-405h231q127 0 205 -77t78 -204
v-297q0 -127 -78 -203.5t-205 -76.5z" />
    <glyph glyph-name="uni0403" unicode="&#x403;" 
d="M285 1434h688q37 0 37 -35v-107q0 -37 -37 -37h-547v-1218q0 -37 -37 -37h-104q-37 0 -37 37v1362q0 35 37 35zM545 1534l86 172q14 25 41 25h147q25 0 8 -21l-153 -180q-14 -18 -47 -19h-68q-24 0 -14 23z" />
    <glyph glyph-name="uni0404" unicode="&#x404;" 
d="M1014 1032q0 -35 -35 -35h-107q-37 0 -36 35v137q0 43 -26 70t-69 27h-315q-43 0 -68.5 -27t-25.5 -70v-370h381q35 0 35 -35v-98q0 -35 -35 -35h-381v-367q0 -43 25.5 -69.5t68.5 -26.5h315q43 0 69 26.5t26 69.5v137q0 35 36 35h107q35 0 35 -35v-129
q0 -127 -77 -204.5t-204 -77.5h-297q-127 0 -204.5 77.5t-77.5 204.5v889q0 127 77.5 205t204.5 78h297q127 0 204 -78t77 -205v-129z" />
    <glyph glyph-name="uni0405" unicode="&#x405;" 
d="M170 1024v137q0 127 77 205t204 78h266q127 0 203.5 -78t76.5 -205v-129q0 -35 -34 -35h-107q-35 0 -35 35v137q0 43 -26.5 70t-69.5 27h-283q-43 0 -68.5 -27t-25.5 -70v-129q0 -49 41 -75l504 -334q49 -33 78.5 -87.5t29.5 -113.5v-160q0 -127 -77.5 -204.5
t-204.5 -77.5h-287q-125 0 -202.5 77.5t-77.5 204.5v129q0 37 34 37h107q35 0 35 -35v-137q0 -43 26.5 -69.5t69.5 -26.5h305q43 0 68.5 26.5t25.5 69.5v150q0 49 -41 75l-506 334q-47 33 -76.5 88.5t-29.5 112.5z" />
    <glyph glyph-name="uni0406" unicode="&#x406;" 
d="M160 37v96q0 37 37 37h299v1096h-299q-37 0 -37 34v99q0 35 37 35h774q37 0 37 -35v-99q0 -35 -37 -34h-299v-1096h299q37 0 37 -37v-96q0 -37 -37 -37h-774q-37 0 -37 37z" />
    <glyph glyph-name="uni0407" unicode="&#x407;" 
d="M160 37v96q0 37 37 37h299v1096h-299q-37 0 -37 34v99q0 35 37 35h774q37 0 37 -35v-99q0 -35 -37 -34h-299v-1096h299q37 0 37 -37v-96q0 -37 -37 -37h-774q-37 0 -37 37zM330 1577v53q0 25 15 40.5t42 15.5h51q55 0 56 -56v-53q0 -55 -56 -55h-51q-27 0 -42 15t-15 40z
M676 1577v53q0 55 55 56h51q25 0 40.5 -15.5t15.5 -40.5v-53q0 -25 -15.5 -40t-40.5 -15h-51q-55 0 -55 55z" />
    <glyph glyph-name="uni0408" unicode="&#x408;" 
d="M420 1300v99q0 35 35 35h497q37 0 37 -35v-1127q0 -127 -77.5 -204.5t-204.5 -77.5h-273q-127 0 -203.5 77.5t-76.5 204.5v82q0 37 34 37h107q35 0 35 -37v-90q0 -43 26.5 -69.5t69.5 -26.5h291q43 0 68.5 26.5t25.5 69.5v1002h-356q-35 -1 -35 34z" />
    <glyph glyph-name="uni0409" unicode="&#x409;" 
d="M870 688h-131v-510h131q43 0 70 25.5t27 68.5v320q0 43 -27 69.5t-70 26.5zM739 1399v-535h123q125 0 203 -77.5t78 -202.5v-301q0 -127 -77 -205t-204 -78h-264q-37 0 -37 37v1218h-147l-68 -1009q-8 -121 -65.5 -188.5t-163.5 -67.5h-60q-37 0 -37 37v96q0 37 37 37h23
q80 0 90 112l74 1127q4 35 37 35h424q34 0 34 -35z" />
    <glyph glyph-name="uni040A" unicode="&#x40a;" 
d="M874 649h-165v-471h165q45 0 73 25.5t28 68.5v283q0 43 -28 68.5t-73 25.5zM709 1399v-572h161q125 0 202 -77.5t77 -204.5v-262q0 -127 -77 -205t-202 -78h-305q-37 0 -37 37v612h-315v-612q0 -37 -37 -37h-106q-35 0 -35 37v1362q0 35 35 35h106q37 0 37 -35v-572h315
v572q0 35 37 35h107q37 0 37 -35z" />
    <glyph glyph-name="uni040B" unicode="&#x40b;" 
d="M893 37v541q0 43 -26.5 69.5t-69.5 26.5h-240v-637q0 -37 -37 -37h-104q-37 0 -37 37v1218h-240q-37 0 -37 37v107q0 35 37 35h658q37 0 37 -35v-107q0 -37 -37 -37h-240v-405h231q127 0 205 -77t78 -204v-532q0 -37 -37 -37h-106q-35 0 -35 37z" />
    <glyph glyph-name="uni040C" unicode="&#x40c;" 
d="M332 662v-625q0 -37 -37 -37h-105q-37 0 -36 37v1362q0 35 36 35h105q37 0 37 -35v-570h192l330 574q16 31 53 31h133q37 0 17 -31l-383 -660l420 -712q16 -31 -19 -31h-133q-37 0 -53 31l-365 631h-192zM500 1534l86 172q14 25 41 25h147q25 0 8 -21l-153 -180
q-14 -18 -47 -19h-68q-24 0 -14 23z" />
    <glyph glyph-name="uni040D" unicode="&#x40d;" 
d="M190 1434h107q35 0 35 -35v-920q0 -41 -17 -102l9 -2q10 55 32 98l496 930q16 31 53 31h72q37 0 37 -35v-1362q0 -37 -37 -37h-107q-35 0 -34 37v924q0 43 16 104l-8 2q-12 -57 -33 -100l-496 -936q-16 -31 -53 -31h-72q-37 0 -36 37v1362q-1 35 36 35zM580 1706l86 -172
q10 -23 -15 -23h-69q-29 0 -45 19l-152 180q-25 20 6 21h148q27 0 41 -25z" />
    <glyph glyph-name="uni040E" unicode="&#x40e;" 
d="M631 604l254 795q4 35 37 35h118q33 0 33 -35l-375 -1153q-53 -152 -86 -193q-51 -63 -143 -63h-139q-37 0 -37 37v96q0 37 37 37h100q23 0 37 6t25.5 28.5t14.5 30.5t13 47l2 15l-424 1112q-6 14 2.5 24.5t24.5 10.5h117q31 0 45 -35l309 -795q16 -39 16 -102h9
q-4 63 10 102zM449 1729q27 0 30 -27l6 -51q4 -35 37 -35h133q39 0 39 35l8 51q0 27 29 27h70q27 0 26 -27v-47q-4 -70 -48 -112t-111 -42h-156q-70 0 -113 42t-47 112l-2 47q0 27 27 27h72z" />
    <glyph glyph-name="uni040F" unicode="&#x40f;" 
d="M979 0h-305v-231q0 -35 -37 -35h-105q-37 0 -36 35v231h-306q-37 0 -36 37v1362q0 35 36 35h105q37 0 37 -35v-1221h506v1221q0 35 34 35h107q35 0 35 -37v-1360q0 -37 -35 -37z" />
    <glyph glyph-name="uni0410" unicode="&#x410;" 
d="M395 426h377l-174 584q-10 35 -10 102h-8q0 -68 -11 -102zM825 248h-481l-63 -213q-10 -35 -48 -35h-110q-37 0 -27 35l406 1364q10 35 47 35h72q35 0 45 -35l405 -1364q10 -35 -27 -35h-110q-37 0 -47 35z" />
    <glyph glyph-name="uni0411" unicode="&#x411;" 
d="M330 688v-510h415q43 0 69 25.5t26 68.5v320q0 43 -26 69.5t-69 26.5h-415zM188 1434h705q37 0 37 -35v-107q0 -37 -37 -37h-563v-391h407q127 0 204 -77.5t77 -202.5v-301q0 -127 -77 -205t-204 -78h-549q-35 0 -34 37v1362q-1 35 34 35z" />
    <glyph glyph-name="uni0412" unicode="&#x412;" 
d="M877 272v275q0 43 -26 69.5t-67 26.5h-452v-465h450q43 0 69 25.5t26 68.5zM741 1255h-409v-436h409q43 0 70 26.5t27 69.5v246q0 43 -27 68.5t-70 25.5zM1055 496v-215q0 -125 -77 -203t-204 -78h-584q-37 0 -36 37v1362q0 35 36 35h543q127 0 205 -77t78 -204v-186
q0 -145 -101 -224q140 -73 140 -247z" />
    <glyph glyph-name="uni0413" unicode="&#x413;" 
d="M285 1434h688q37 0 37 -35v-107q0 -37 -37 -37h-547v-1218q0 -37 -37 -37h-104q-37 0 -37 37v1362q0 35 37 35z" />
    <glyph glyph-name="uni0414" unicode="&#x414;" 
d="M348 178h483v1077h-385l-63 -948q-6 -80 -35 -129zM29 -231v372q0 37 26 37h84q57 14 64 109l76 1112q4 35 34 35h660q37 0 37 -35v-1221h92q37 0 37 -37v-372q0 -35 -37 -35h-105q-37 0 -36 35v231h-754v-231q0 -35 -37 -35h-104q-37 0 -37 35z" />
    <glyph glyph-name="uni0415" unicode="&#x415;" 
d="M154 37v1362q0 35 36 35h789q35 0 35 -35v-107q0 -37 -35 -37h-647v-507h471q35 0 35 -37v-105q0 -37 -35 -37h-471v-391h647q35 0 35 -37v-104q0 -37 -35 -37h-789q-36 0 -36 37z" />
    <glyph glyph-name="uni0416" unicode="&#x416;" 
d="M496 666h-21l-258 -633q-10 -33 -47 -33h-119q-37 0 -22 33l288 710l-262 658q-14 33 23 33h119q35 0 49 -33l225 -565h25v563q0 35 34 35h107q35 0 35 -35v-563h24l228 565q10 33 47 33h119q37 0 22 -33l-262 -658l289 -710q14 -33 -23 -33h-117q-39 0 -49 33l-258 633
h-20v-629q0 -37 -35 -37h-107q-35 0 -34 37v629z" />
    <glyph glyph-name="uni0417" unicode="&#x417;" 
d="M190 438h105q37 0 37 -37v-137q0 -43 26.5 -68.5t69.5 -25.5h311q43 0 70 25.5t25 68.5v291q0 43 -26 69.5t-67 26.5h-280q-35 0 -35 35v105q0 37 35 36h270q43 0 69.5 27t26.5 70v245q0 43 -26.5 70t-69.5 27h-293q-43 0 -69.5 -27t-26.5 -70v-137q0 -37 -37 -37h-104
q-37 0 -37 37v129q0 127 77.5 204t204.5 77h277q125 0 203 -78t78 -203v-186q0 -160 -113 -234q121 -76 121 -237v-232q2 -125 -76 -202.5t-205 -77.5h-295q-127 0 -204.5 76.5t-77.5 203.5v129q-1 37 36 37z" />
    <glyph glyph-name="uni0418" unicode="&#x418;" 
d="M190 1434h107q35 0 35 -35v-920q0 -41 -17 -102l9 -2q10 55 32 98l496 930q16 31 53 31h72q37 0 37 -35v-1362q0 -37 -37 -37h-107q-35 0 -34 37v924q0 43 16 104l-8 2q-12 -57 -33 -100l-496 -936q-16 -31 -53 -31h-72q-37 0 -36 37v1362q-1 35 36 35z" />
    <glyph glyph-name="uni0419" unicode="&#x419;" 
d="M190 1434h107q35 0 35 -35v-920q0 -41 -17 -102l9 -2q10 55 32 98l496 930q16 31 53 31h72q37 0 37 -35v-1362q0 -37 -37 -37h-107q-35 0 -34 37v924q0 43 16 104l-8 2q-12 -57 -33 -100l-496 -936q-16 -31 -53 -31h-72q-37 0 -36 37v1362q-1 35 36 35zM389 1729h70
q27 0 30 -27l7 -51q4 -35 36 -35h136q35 0 39 35l6 51q4 27 30 27h70q27 0 27 -27l-2 -47q-4 -70 -47 -112t-113 -42h-156q-70 0 -112.5 42t-47.5 112l-2 47q0 27 29 27z" />
    <glyph glyph-name="uni041A" unicode="&#x41a;" 
d="M332 662v-625q0 -37 -37 -37h-105q-37 0 -36 37v1362q0 35 36 35h105q37 0 37 -35v-570h192l330 574q16 31 53 31h133q37 0 17 -31l-383 -660l420 -712q16 -31 -19 -31h-133q-37 0 -53 31l-365 631h-192z" />
    <glyph glyph-name="uni041B" unicode="&#x41b;" 
d="M977 0h-107q-35 0 -34 37v1218h-369l-68 -1009q-8 -121 -65.5 -188.5t-163.5 -67.5h-94q-39 0 -39 37v96q0 37 39 37h57q82 0 88 112l76 1127q4 35 37 35h643q37 0 37 -35v-1362q0 -37 -37 -37z" />
    <glyph glyph-name="uni041C" unicode="&#x41c;" 
d="M299 940v-903q0 -37 -37 -37h-96q-37 0 -37 37v1362q0 35 37 35h123q37 0 47 -35l231 -688q12 -37 13 -105h8q0 68 12 105l231 688q14 35 48 35h122q37 0 37 -35v-1362q0 -37 -37 -37h-96q-37 0 -37 37v903q0 12 13 104l-9 3q-8 -70 -20 -105l-203 -590q-10 -33 -47 -33
h-37q-37 0 -47 33l-203 590q-12 35 -20 102h-8q12 -92 12 -104z" />
    <glyph glyph-name="uni041D" unicode="&#x41d;" 
d="M154 37v1362q0 35 36 35h105q37 0 37 -35v-651h504v651q0 35 36 35h107q35 0 35 -35v-1362q0 -37 -35 -37h-107q-37 0 -36 37v532h-504v-532q0 -37 -37 -37h-105q-36 0 -36 37z" />
    <glyph glyph-name="uni041E" unicode="&#x41e;" 
d="M328 1169v-905q0 -43 26.5 -69.5t69.5 -26.5h319q43 0 70 26.5t27 69.5v905q0 43 -27 70t-70 27h-319q-43 0 -69.5 -27t-26.5 -70zM150 272v889q0 127 77.5 205t204.5 78h303q127 0 205 -78t78 -205v-889q0 -127 -78 -204.5t-205 -77.5h-303q-127 0 -204.5 77.5
t-77.5 204.5z" />
    <glyph glyph-name="uni041F" unicode="&#x41f;" 
d="M154 37v1362q0 35 36 35h789q35 0 35 -35v-1362q0 -37 -35 -37h-107q-37 0 -36 37v1218h-504v-1218q0 -37 -37 -37h-105q-36 0 -36 37z" />
    <glyph glyph-name="uni0420" unicode="&#x420;" 
d="M752 1255h-420v-518h420q43 0 69.5 25.5t26.5 68.5v330q0 43 -26.5 68.5t-69.5 25.5zM743 559h-411v-522q0 -37 -37 -37h-107q-35 0 -34 37v1362q0 35 34 35h555q127 0 205 -77t78 -204v-313q0 -127 -78 -204t-205 -77z" />
    <glyph glyph-name="uni0421" unicode="&#x421;" 
d="M872 436h107q35 0 35 -35v-129q0 -127 -77 -204.5t-204 -77.5h-297q-127 0 -204.5 77.5t-77.5 204.5v889q0 127 77.5 205t204.5 78h297q127 0 204 -78t77 -205v-129q0 -35 -35 -35h-107q-37 0 -36 35v137q0 43 -26 70t-69 27h-315q-43 0 -68.5 -27t-25.5 -70v-905
q0 -43 25.5 -69.5t68.5 -26.5h315q43 0 69 26.5t26 69.5v137q-1 35 36 35z" />
    <glyph glyph-name="uni0422" unicode="&#x422;" 
d="M1065 1399v-107q0 -37 -35 -37h-358v-1218q0 -37 -35 -37h-107q-35 0 -34 37v1218h-357q-37 0 -37 37v107q0 35 37 35h891q35 0 35 -35z" />
    <glyph glyph-name="uni0423" unicode="&#x423;" 
d="M631 604l254 795q4 35 37 35h118q33 0 33 -35l-375 -1153q-53 -152 -86 -193q-51 -63 -143 -63h-139q-37 0 -37 37v96q0 37 37 37h100q23 0 37 6t25.5 28.5t14.5 30.5t13 47l2 15l-424 1112q-6 14 2.5 24.5t24.5 10.5h117q31 0 45 -35l309 -795q12 -27 16 -102h9
q-4 63 10 102z" />
    <glyph glyph-name="uni0424" unicode="&#x424;" 
d="M496 311v811h-146q-43 0 -69.5 -26.5t-26.5 -69.5v-618q0 -43 26.5 -70t69.5 -27h146zM672 1122v-811h145q43 0 69.5 27t26.5 70v618q0 43 -26.5 69.5t-69.5 26.5h-145zM530 1444h107q35 0 35 -37v-107h137q127 0 205 -77.5t78 -204.5v-602q0 -127 -78 -205t-205 -78
h-137v-106q0 -37 -35 -37h-107q-35 0 -34 37v106h-138q-127 0 -203.5 78t-76.5 205v602q0 127 76.5 204.5t203.5 77.5h138v107q-1 37 34 37z" />
    <glyph glyph-name="uni0425" unicode="&#x425;" 
d="M899 1434h129q35 0 19 -31l-351 -655l379 -715q12 -33 -20 -33h-127q-37 0 -54 33l-266 504q-20 41 -20 100h-8q0 -59 -21 -100l-268 -504q-12 -33 -51 -33h-127q-37 0 -21 33l377 715l-350 653q-16 33 20 33h127q37 0 53 -31l240 -445q20 -41 21 -100h8q0 59 20 100
l240 443q12 33 51 33z" />
    <glyph glyph-name="uni0426" unicode="&#x426;" 
d="M332 1399v-1221h469v1221q0 35 35 35h106q37 0 37 -37v-1219h102q35 0 35 -37v-372q0 -35 -35 -35h-106q-37 0 -37 35v231h-748q-37 0 -36 37v1362q0 35 36 35h105q37 0 37 -35z" />
    <glyph glyph-name="uni0427" unicode="&#x427;" 
d="M979 0h-107q-37 0 -36 37v547h-420q-127 0 -205 76.5t-78 203.5v535q0 35 37 35h104q37 0 37 -35v-543q0 -43 25.5 -69.5t69.5 -26.5h430v639q0 35 36 35h107q35 0 35 -35v-1362q0 -37 -35 -37z" />
    <glyph glyph-name="uni0428" unicode="&#x428;" 
d="M254 1399v-1221h242v1221q0 35 34 35h107q35 0 35 -37v-1219h241v1221q0 35 35 35h107q37 0 37 -37v-1360q0 -37 -37 -37h-942q-35 0 -35 37v1362q0 35 35 35h106q35 0 35 -35z" />
    <glyph glyph-name="uni0429" unicode="&#x429;" 
d="M74 37v1362q0 35 35 35h106q37 0 37 -35v-1221h209v1221q0 35 37 35h104q37 0 37 -37v-1219h209v1221q0 35 37 35h104q37 0 37 -37v-1219h84q35 0 35 -37v-372q0 -35 -35 -35h-106q-35 0 -35 35v231h-860q-35 0 -35 37z" />
    <glyph glyph-name="uni042A" unicode="&#x42a;" 
d="M537 688v-510h229q43 0 69.5 25.5t26.5 68.5v320q0 43 -26.5 69.5t-69.5 26.5h-229zM72 1292v107q0 35 37 35h393q35 0 35 -35v-535h221q127 0 204.5 -76.5t77.5 -203.5v-301q0 -127 -77.5 -205t-204.5 -78h-363q-37 0 -37 37v1218h-249q-37 0 -37 37z" />
    <glyph glyph-name="uni042B" unicode="&#x42b;" 
d="M256 688v-510h231q43 0 70 25.5t27 68.5v320q0 43 -28 69.5t-69 26.5h-231zM256 1399v-535h223q127 0 204 -77.5t77 -202.5v-301q0 -127 -77 -205t-204 -78h-364q-37 0 -37 37v1362q0 35 37 35h106q35 0 35 -35zM1087 1399v-1362q0 -37 -34 -37h-109q-35 0 -35 37v1362
q0 35 35 35h109q34 0 34 -35z" />
    <glyph glyph-name="uni042C" unicode="&#x42c;" 
d="M332 688v-510h422q43 0 69.5 25.5t26.5 68.5v320q0 43 -26.5 69.5t-69.5 26.5h-422zM332 1399v-535h416q125 0 202.5 -77.5t77.5 -202.5v-301q0 -127 -77 -205t-203 -78h-558q-37 0 -36 37v1362q0 35 36 35h105q37 0 37 -35z" />
    <glyph glyph-name="uni042D" unicode="&#x42d;" 
d="M154 1032v129q0 127 77.5 205t204.5 78h297q127 0 204 -78t77 -205v-889q0 -127 -77 -204.5t-204 -77.5h-297q-127 0 -204.5 77.5t-77.5 204.5v129q0 35 36 35h105q37 0 37 -35v-137q0 -43 25.5 -69.5t68.5 -26.5h315q43 0 69 26.5t26 69.5v367h-357q-35 0 -35 35v98
q0 35 35 35h357v370q0 43 -26 70t-69 27h-315q-43 0 -68.5 -27t-25.5 -70v-137q0 -35 -37 -35h-105q-36 0 -36 35z" />
    <glyph glyph-name="uni042E" unicode="&#x42e;" 
d="M602 1169v-905q0 -43 26.5 -69.5t69.5 -26.5h119q43 0 69.5 26.5t26.5 69.5v905q0 43 -26.5 70t-69.5 27h-119q-43 0 -69.5 -27t-26.5 -70zM426 272v297h-172v-532q0 -37 -35 -37h-106q-35 0 -35 37v1362q0 35 35 35h106q35 0 35 -35v-651h172v413q0 127 77 205t204 78
h102q127 0 205 -78t78 -205v-889q0 -127 -78 -204.5t-205 -77.5h-102q-127 0 -204 77.5t-77 204.5z" />
    <glyph glyph-name="uni042F" unicode="&#x42f;" 
d="M836 752v503h-426q-43 0 -70 -25.5t-27 -68.5v-313q0 -43 27 -69.5t70 -26.5h426zM596 573l-279 -538q-18 -35 -45 -35h-125q-33 0 -26 35l276 540q-119 6 -189.5 83t-70.5 198v297q0 125 77 203t204 78h559q37 0 37 -35v-1362q0 -37 -37 -37h-105q-37 0 -36 37v536h-240
z" />
    <glyph glyph-name="uni0430" unicode="&#x430;" 
d="M819 268v244q-201 31 -282 31q-94 0 -149.5 -42t-55.5 -112v-110q0 -63 42 -100.5t111 -37.5q119 0 334 127zM162 281v106q0 135 104.5 218t276.5 83q72 0 276 -24v198q0 113 -96 113h-252q-96 0 -96 -113v-28q0 -37 -35 -37h-98q-35 0 -35 37v47q0 115 70.5 185.5
t185.5 70.5h270q115 0 185.5 -71t70.5 -185v-844q0 -37 -37 -37h-96q-37 0 -37 37v55q-184 -111 -350 -110q-137 0 -222 82t-85 217z" />
    <glyph glyph-name="uni0431" unicode="&#x431;" 
d="M324 811v-549q0 -111 96 -110h330q96 0 96 112v563q0 47 -43 72t-96 25q-135 0 -383 -113zM721 1083q123 0 208 -71.5t85 -182.5v-583q0 -115 -72 -185.5t-186 -70.5h-344q-117 0 -187.5 69.5t-70.5 184.5v843q0 141 78.5 212t287.5 106q156 25 363 45h20q49 0 49 -31
v-90q0 -35 -84 -43q-174 -16 -340 -41q-121 -16 -162.5 -50t-41.5 -105v-103q237 96 397 96z" />
    <glyph glyph-name="uni0432" unicode="&#x432;" 
d="M756 502h-432v-342h432q49 0 76.5 29.5t27.5 80.5v119q0 51 -27.5 82t-76.5 31zM713 967h-389v-305h389q49 0 76.5 30.5t27.5 81.5v84q0 49 -27.5 79t-76.5 30zM891 594q139 -63 139 -232v-108q0 -115 -70.5 -184.5t-185.5 -69.5h-584q-37 0 -36 37v1055q0 35 36 34h541
q115 0 185.5 -69.5t70.5 -182.5v-73q0 -137 -96 -207z" />
    <glyph glyph-name="uni0433" unicode="&#x433;" 
d="M938 967h-502v-930q0 -37 -37 -37h-96q-37 0 -37 37v1055q0 35 37 34h635q37 0 37 -34v-91q0 -34 -37 -34z" />
    <glyph glyph-name="uni0434" unicode="&#x434;" 
d="M358 160h457v807h-385l-49 -711q-3 -53 -23 -96zM86 160h88q35 31 41 112l53 820q4 35 37 34h643q37 0 37 -34v-932h98q37 0 37 -33v-340q0 -37 -37 -37h-96q-37 0 -37 37v213h-731v-213q0 -37 -37 -37h-96q-37 0 -37 37v340q0 33 37 33z" />
    <glyph glyph-name="uni0435" unicode="&#x435;" 
d="M758 975h-348q-39 0 -62.5 -23.5t-23.5 -62.5v-240h522v240q0 39 -23.5 62.5t-64.5 23.5zM979 489h-655v-249q0 -39 23.5 -63.5t62.5 -24.5h348q39 0 63.5 23.5t24.5 62.5v65q0 35 35 35h98q35 0 35 -35v-57q0 -115 -71 -185.5t-185 -70.5h-348q-115 0 -185.5 70.5
t-70.5 185.5v635q0 115 70.5 185.5t185.5 70.5h348q115 0 185.5 -71t70.5 -185v-355q0 -37 -35 -37z" />
    <glyph glyph-name="uni0436" unicode="&#x436;" 
d="M500 496h-43l-242 -463q-12 -33 -51 -33h-111q-37 0 -20 33l289 542l-275 519q-12 33 23 32h110q35 0 51 -32l228 -439h41v437q0 35 35 34h98q35 0 35 -34v-437h41l227 439q16 33 51 32h111q16 0 22 -8t-2 -24l-272 -519l289 -542q16 -33 -21 -33h-110q-37 0 -54 33
l-241 463h-41v-459q0 -37 -35 -37h-98q-35 0 -35 37v459z" />
    <glyph glyph-name="uni0437" unicode="&#x437;" 
d="M496 664h235q51 0 82 30.5t31 81.5v90q0 49 -31 79t-82 30h-274q-51 0 -82 -31t-31 -82v-74q0 -35 -37 -34h-96q-37 0 -37 34v91q0 115 70.5 185.5t185.5 70.5h326q115 0 185.5 -70t70.5 -182v-80q0 -145 -105 -213q123 -66 123 -225v-119q0 -115 -70.5 -184.5
t-185.5 -69.5h-354q-115 0 -185.5 70.5t-70.5 185.5v90q0 35 37 35h96q37 0 37 -35v-74q0 -51 30.5 -81.5t81.5 -30.5h304q51 0 81.5 30.5t30.5 79.5v129q0 51 -30.5 82t-81.5 31h-254q-37 0 -37 35v90q0 35 37 35z" />
    <glyph glyph-name="uni0438" unicode="&#x438;" 
d="M266 0h-78q-35 0 -34 37v1055q0 35 34 34h99q35 0 35 -36v-736q0 -33 -19 -102l8 -2q16 57 39 96l494 750q20 31 57 30h78q35 0 35 -34v-1055q0 -37 -35 -37h-98q-35 0 -35 37v733q0 33 18 102l-8 2q-16 -57 -39 -96l-493 -747q-21 -31 -58 -31z" />
    <glyph glyph-name="uni0439" unicode="&#x439;" 
d="M266 0h-78q-35 0 -34 37v1055q0 35 34 34h99q35 0 35 -36v-736q0 -33 -19 -102l6 -2q23 66 41 96l494 750q20 31 57 30h78q35 0 35 -34v-1055q0 -37 -35 -37h-98q-35 0 -35 37v733q0 33 18 102l-6 2q-23 -66 -41 -96l-493 -747q-21 -31 -58 -31zM829 1419v-45
q-4 -70 -47 -111.5t-112 -41.5h-172q-70 0 -113 42t-45 111l-2 45q-4 29 24 29h70q31 0 31 -29l8 -49q4 -35 39 -35h149q37 0 37 35l9 49q4 29 30 29h70q28 0 24 -29z" />
    <glyph glyph-name="uni043A" unicode="&#x43a;" 
d="M512 496h-188v-461q0 -35 -37 -35h-97q-37 0 -36 35v1057q0 35 36 34h97q37 0 37 -34v-437h188l313 439q23 33 45 32h127q18 0 25.5 -9t-0.5 -23l-369 -519l391 -542q8 -14 2 -23.5t-22 -9.5h-131q-20 0 -43 33z" />
    <glyph glyph-name="uni043B" unicode="&#x43b;" 
d="M846 967h-377l-49 -721q-8 -121 -65.5 -188.5t-164.5 -67.5h-69q-37 0 -37 37v88q0 37 37 37h43q82 0 88 112l55 828q4 35 37 34h635q35 0 35 -34v-1055q0 -37 -35 -37h-98q-35 0 -35 37v930z" />
    <glyph glyph-name="uni043C" unicode="&#x43c;" 
d="M881 1126h131q35 0 35 -34v-1055q0 -37 -35 -37h-99q-35 0 -34 37v715q0 12 12 104l-6 2q-14 -72 -27 -102l-213 -533q-14 -33 -49 -33h-25q-35 0 -49 33l-215 533q-16 39 -24 102l-9 -2q12 -61 13 -104v-715q0 -37 -35 -37h-98q-35 0 -35 37v1055q0 35 35 34h133
q37 0 47 -32l231 -570q14 -37 15 -102h8q0 61 16 102l227 570q15 32 50 32z" />
    <glyph glyph-name="uni043D" unicode="&#x43d;" 
d="M846 494h-522v-457q0 -37 -37 -37h-97q-37 0 -36 37v1055q0 35 36 34h97q37 0 37 -34v-439h522v439q0 35 35 34h98q35 0 35 -34v-1055q0 -37 -35 -37h-98q-35 0 -35 37v457z" />
    <glyph glyph-name="uni043E" unicode="&#x43e;" 
d="M324 889v-651q0 -39 23.5 -62.5t62.5 -23.5h348q39 0 63.5 23.5t24.5 62.5v651q0 39 -24.5 62.5t-63.5 23.5h-348q-39 0 -62.5 -23.5t-23.5 -62.5zM154 246v635q0 115 70.5 185.5t185.5 70.5h348q115 0 185.5 -71t70.5 -185v-635q0 -115 -71 -185.5t-185 -70.5h-348
q-115 0 -185.5 70.5t-70.5 185.5z" />
    <glyph glyph-name="uni043F" unicode="&#x43f;" 
d="M979 0h-98q-35 0 -35 37v930h-524v-930q0 -37 -35 -37h-99q-35 0 -34 37v1055q0 35 34 34h791q35 0 35 -34v-1055q0 -37 -35 -37z" />
    <glyph glyph-name="uni0440" unicode="&#x440;" 
d="M324 860v-594q236 -125 368 -125q70 0 112 36t42 95v578q0 59 -42 97t-112 38q-132 0 -368 -125zM287 -307h-97q-37 0 -36 35v1364q0 35 36 34h97q37 0 37 -34v-56q223 109 385 109q137 0 221 -79t84 -210v-586q0 -131 -83 -209.5t-220 -78.5q-164 0 -387 108v-362
q0 -35 -37 -35z" />
    <glyph glyph-name="uni0441" unicode="&#x441;" 
d="M410 152h348q39 0 62.5 23.5t23.5 62.5v98q0 37 37 37h96q37 0 37 -37v-90q0 -115 -71 -185.5t-185 -70.5h-348q-115 0 -185.5 70.5t-70.5 185.5v635q0 115 70.5 185.5t185.5 70.5h348q115 0 185.5 -71t70.5 -185v-90q0 -37 -37 -37h-96q-37 0 -37 37v98q0 39 -23.5 62.5
t-62.5 23.5h-348q-39 0 -63.5 -23.5t-24.5 -62.5v-651q0 -39 24.5 -62.5t63.5 -23.5z" />
    <glyph glyph-name="uni0442" unicode="&#x442;" 
d="M500 35v932h-375q-35 0 -35 34v91q0 35 35 34h919q35 0 35 -34v-91q0 -35 -35 -34h-376v-932q0 -35 -35 -35h-98q-35 0 -35 35z" />
    <glyph glyph-name="uni0443" unicode="&#x443;" 
d="M385 -274l117 274l-414 1094q-6 14 0 23t23 9h112q37 0 47 -32l293 -793q14 -37 15 -104h8q0 61 14 104l293 791q14 35 49 34h115q16 0 22 -9t0 -23l-516 -1368q-10 -33 -47 -33h-108q-35 0 -23 33z" />
    <glyph glyph-name="uni0444" unicode="&#x444;" 
d="M336 141q59 0 164 78v688q-104 78 -164 78q-35 0 -63.5 -25.5t-28.5 -72.5v-647q0 -47 28.5 -73t63.5 -26zM926 240v647q0 49 -29 73.5t-66 24.5q-55 0 -163 -78v-688q109 -78 163 -78q37 0 66 25t29 74zM668 55v-327q0 -35 -35 -35h-98q-35 0 -35 35v327
q-121 -74 -207 -73q-90 0 -153.5 72.5t-63.5 187.5v645q0 113 63.5 185.5t153.5 72.5q86 0 207 -74v328q0 35 35 35h98q35 0 35 -35v-328q125 74 209 74q90 0 153.5 -73t63.5 -185v-645q0 -115 -63.5 -187.5t-153.5 -72.5q-84 -1 -209 73z" />
    <glyph glyph-name="uni0445" unicode="&#x445;" 
d="M600 737l256 361q23 29 55 28h131q35 0 15 -28l-375 -520l385 -549q10 -12 6 -20.5t-20 -8.5h-131q-35 0 -56 31l-268 389q-12 16 -12 49h-8q0 -31 -11 -49l-266 -389q-20 -31 -55 -31h-125q-37 0 -17 31l375 549l-366 518q-10 12 -5 20t21 8h127q35 0 55 -28l256 -361
q12 -16 13 -51h8q0 35 12 51z" />
    <glyph glyph-name="uni0446" unicode="&#x446;" 
d="M795 160v932q0 35 39 34h94q39 0 39 -34v-932h104q35 0 35 -33v-340q0 -37 -35 -37h-98q-35 0 -35 37v213h-748q-37 0 -36 37v1055q0 35 36 34h97q37 0 37 -34v-932h471z" />
    <glyph glyph-name="uni0447" unicode="&#x447;" 
d="M961 0h-97q-37 0 -37 37v438q-201 -82 -356 -82q-143 0 -230 79t-87 210v410q0 35 36 34h97q37 0 37 -34v-396q0 -57 43 -92t116 -35q125 0 344 86v437q0 35 37 34h97q37 0 36 -34v-1055q1 -37 -36 -37z" />
    <glyph glyph-name="uni0448" unicode="&#x448;" 
d="M920 160v932q0 35 34 34h99q37 0 37 -36v-1053q0 -37 -37 -37h-942q-33 0 -33 37v1055q0 35 33 34h100q35 0 35 -34v-932h252v932q0 35 34 34h99q37 0 37 -36v-930h252z" />
    <glyph glyph-name="uni0449" unicode="&#x449;" 
d="M1020 160h90q35 0 35 -35v-356q0 -35 -35 -35h-98q-35 0 -35 35v231h-868q-33 0 -33 37v1055q0 35 33 34h100q35 0 35 -34v-932h219v932q0 35 33 34h100q35 0 35 -36v-930h219v932q0 35 33 34h100q37 0 37 -36v-930z" />
    <glyph glyph-name="uni044A" unicode="&#x44a;" 
d="M745 532h-266v-372h266q51 0 82 30.5t31 81.5v148q0 51 -31 81.5t-82 30.5zM31 1001v91q0 35 37 34h376q35 0 35 -34v-400h293q115 0 185.5 -70.5t70.5 -185.5v-180q0 -115 -70.5 -185.5t-185.5 -70.5h-426q-35 0 -35 37v930h-243q-37 -1 -37 34z" />
    <glyph glyph-name="uni044B" unicode="&#x44b;" 
d="M461 532h-176v-372h176q51 0 81.5 30.5t30.5 81.5v148q0 51 -30.5 81.5t-81.5 30.5zM152 1126h96q37 0 37 -34v-400h202q115 0 185.5 -70.5t70.5 -185.5v-180q0 -115 -70.5 -185.5t-185.5 -70.5h-335q-37 0 -37 37v1055q0 34 37 34zM1016 0h-96q-37 0 -37 37v1055
q0 35 37 34h96q37 0 37 -34v-1055q0 -37 -37 -37z" />
    <glyph glyph-name="uni044C" unicode="&#x44c;" 
d="M737 532h-397v-372h397q51 0 82 30.5t31 81.5v148q0 51 -31 81.5t-82 30.5zM764 0h-557q-37 0 -37 37v1055q0 35 37 34h96q37 0 37 -34v-400h424q115 0 185.5 -70.5t70.5 -185.5v-180q0 -115 -70.5 -185.5t-185.5 -70.5z" />
    <glyph glyph-name="uni044D" unicode="&#x44d;" 
d="M287 754h-99q-35 0 -34 37v90q0 115 70.5 185.5t185.5 70.5h348q115 0 185.5 -71t70.5 -185v-635q0 -115 -71 -185.5t-185 -70.5h-348q-115 0 -185.5 70.5t-70.5 185.5v90q0 37 34 37h99q35 0 35 -37v-98q0 -39 24.5 -62.5t63.5 -23.5h348q39 0 62.5 23.5t23.5 62.5v256
h-393q-35 0 -35 34v90q0 35 35 35h393v236q0 39 -23.5 62.5t-62.5 23.5h-348q-39 0 -63.5 -23.5t-24.5 -62.5v-98q0 -37 -35 -37z" />
    <glyph glyph-name="uni044E" unicode="&#x44e;" 
d="M614 862v-598q0 -51 31 -81.5t82 -30.5h94q51 0 82 30.5t31 81.5v598q0 51 -31 82t-82 31h-94q-51 0 -82 -31t-31 -82zM446 246v248h-194v-457q0 -37 -35 -37h-98q-35 0 -35 37v1055q0 35 35 34h98q35 0 35 -34v-439h194v228q0 115 71 185.5t185 70.5h144
q115 0 185.5 -71t70.5 -185v-635q0 -115 -70.5 -185.5t-185.5 -70.5h-144q-115 0 -185.5 70.5t-70.5 185.5z" />
    <glyph glyph-name="uni044F" unicode="&#x44f;" 
d="M424 594h399v373h-399q-51 0 -82 -30t-31 -79v-151q0 -51 31 -82t82 -31zM127 33l254 401q-109 6 -173.5 76t-64.5 180v189q0 111 71 179t185 68h557q37 0 37 -34v-1055q0 -37 -37 -37h-96q-37 0 -37 37v397h-256l-250 -401q-23 -33 -45 -33h-122q-16 0 -23.5 9.5
t0.5 23.5z" />
    <glyph glyph-name="uni0450" unicode="&#x450;" 
d="M758 975h-348q-39 0 -62.5 -23.5t-23.5 -62.5v-240h522v240q0 39 -23.5 62.5t-64.5 23.5zM979 489h-655v-249q0 -39 23.5 -63.5t62.5 -24.5h348q39 0 63.5 23.5t24.5 62.5v65q0 35 35 35h98q35 0 35 -35v-57q0 -115 -71 -185.5t-185 -70.5h-348q-115 0 -185.5 70.5
t-70.5 185.5v635q0 115 70.5 185.5t185.5 70.5h348q115 0 185.5 -71t70.5 -185v-355q0 -37 -35 -37zM578 1399l86 -172q10 -23 -15 -23h-69q-31 0 -45 19l-152 180q-20 20 6 20h150q25 1 39 -24z" />
    <glyph glyph-name="uni0451" unicode="&#x451;" 
d="M758 975h-348q-39 0 -62.5 -23.5t-23.5 -62.5v-240h522v240q0 39 -23.5 62.5t-64.5 23.5zM979 489h-655v-249q0 -39 23.5 -63.5t62.5 -24.5h348q39 0 63.5 23.5t24.5 62.5v65q0 35 35 35h98q35 0 35 -35v-57q0 -115 -71 -185.5t-185 -70.5h-348q-115 0 -185.5 70.5
t-70.5 185.5v635q0 115 70.5 185.5t185.5 70.5h348q115 0 185.5 -71t70.5 -185v-355q0 -37 -35 -37zM328 1270v53q0 25 15 40t42 15h51q27 0 42.5 -15t15.5 -40v-53q0 -25 -15.5 -40.5t-42.5 -15.5h-51q-27 0 -42 15.5t-15 40.5zM674 1270v53q0 55 55 55h51q55 0 56 -55v-53
q0 -55 -56 -56h-51q-55 1 -55 56z" />
    <glyph glyph-name="uni0452" unicode="&#x452;" 
d="M287 0h-97q-37 0 -36 47v1157h-82q-27 0 -27 29v72q0 27 27 26h82v68q0 35 36 35h97q37 0 37 -35l-2 -68h290q29 0 29 -26v-72q0 -29 -29 -29h-288l-2 -162q211 102 376 103q141 0 228.5 -82t87.5 -217v-905q0 -113 -71 -180.5t-185 -67.5h-160q-37 0 -37 35v90
q0 35 37 35h160q39 0 63.5 23.5t24.5 60.5v909q0 63 -44 101t-118 38q-145 0 -362 -115l2 -823q0 -47 -37 -47z" />
    <glyph glyph-name="uni0453" unicode="&#x453;" 
d="M938 967h-502v-930q0 -37 -37 -37h-96q-37 0 -37 37v1055q0 35 37 34h635q37 0 37 -34v-91q0 -34 -37 -34zM539 1227l86 172q14 25 41 24h147q25 0 8 -20l-153 -180q-16 -18 -45 -19h-70q-24 0 -14 23z" />
    <glyph glyph-name="uni0454" unicode="&#x454;" 
d="M979 754h-98q-35 0 -35 37v98q0 39 -24.5 62.5t-63.5 23.5h-348q-39 0 -62.5 -23.5t-23.5 -62.5v-236h393q35 0 35 -35v-90q0 -35 -35 -34h-393v-256q0 -39 23.5 -62.5t62.5 -23.5h348q39 0 63.5 23.5t24.5 62.5v98q0 37 35 37h98q35 0 35 -37v-90q0 -115 -71 -185.5
t-185 -70.5h-348q-115 0 -185.5 70.5t-70.5 185.5v635q0 115 70.5 185.5t185.5 70.5h348q115 0 185.5 -71t70.5 -185v-90q0 -37 -35 -37z" />
    <glyph glyph-name="uni0455" unicode="&#x455;" 
d="M1014 352v-90q0 -123 -70 -197.5t-186 -74.5h-348q-115 0 -185.5 70.5t-70.5 185.5v90q0 37 36 37h97q37 0 37 -37v-72q0 -113 94 -112h332q96 0 96 124v56q0 55 -47 71l-504 193q-59 25 -95 80t-36 121v73q0 119 69.5 193t186.5 74h328q115 0 185.5 -71t70.5 -185v-90
q0 -37 -35 -37h-99q-35 0 -34 37v71q0 113 -97 113h-311q-94 0 -94 -121v-35q0 -55 45 -74l504 -192q59 -25 95 -80t36 -121z" />
    <glyph glyph-name="uni0456" unicode="&#x456;" 
d="M190 1010v82q0 35 35 34h447q35 0 35 -34v-940h313q35 0 35 -35v-80q0 -37 -35 -37h-795q-35 0 -35 37v80q0 35 35 35h314v823h-314q-35 0 -35 35zM446 1307v131q0 23 15.5 38t40.5 15h139q25 0 39 -15.5t14 -37.5v-131q0 -23 -14 -38.5t-39 -15.5h-139q-25 0 -40.5 15.5
t-15.5 38.5z" />
    <glyph glyph-name="uni0457" unicode="&#x457;" 
d="M190 1010v82q0 35 35 34h447q35 0 35 -34v-940h313q35 0 35 -35v-80q0 -37 -35 -37h-795q-35 0 -35 37v80q0 35 35 35h314v823h-314q-35 0 -35 35zM297 1270v53q0 25 15.5 40t41.5 15h52q27 0 42 -15t15 -40v-53q0 -25 -15.5 -40.5t-41.5 -15.5h-52q-27 0 -42 15.5
t-15 40.5zM643 1270v53q0 55 55 55h52q55 0 55 -55v-53q0 -55 -55 -56h-52q-55 1 -55 56z" />
    <glyph glyph-name="uni0458" unicode="&#x458;" 
d="M324 1126h534q37 0 37 -34v-1115q0 -158 -127 -230.5t-317 -72.5q-25 0 -65 2t-98.5 8.5t-98 21.5t-39.5 36v90q0 27 34 27q16 0 27 -2q109 -20 217 -21q74 0 135.5 11.5t111.5 49t50 99.5v979h-401q-35 0 -35 35v82q0 34 35 34zM690 1491h139q53 0 54 -53v-129
q0 -53 -54 -54h-139q-55 0 -55 54v129q0 53 55 53z" />
    <glyph glyph-name="uni0459" unicode="&#x459;" 
d="M977 272v148q0 51 -31 81.5t-82 30.5h-145v-372h145q51 0 82 30.5t31 81.5zM1145 436v-180q0 -115 -70.5 -185.5t-185.5 -70.5h-303q-35 0 -35 37v930h-174l-47 -721q-8 -121 -65.5 -188.5t-166.5 -67.5h-39q-37 0 -36 37v88q0 37 36 37h15q84 0 88 112l55 828
q0 35 35 34h432q35 0 35 -34v-400h170q115 0 185.5 -70.5t70.5 -185.5z" />
    <glyph glyph-name="uni045A" unicode="&#x45a;" 
d="M965 272v127q0 51 -31 82t-82 31h-150v-352h150q51 0 82 30.5t31 81.5zM702 1092v-418h175q115 0 185.5 -71t70.5 -185v-162q0 -115 -71 -185.5t-185 -70.5h-308q-35 0 -34 37v475h-324v-475q0 -37 -35 -37h-98q-35 0 -35 37v1055q0 35 35 34h98q35 0 35 -34v-418h324
v418q0 35 34 34h99q34 1 34 -34z" />
    <glyph glyph-name="uni045B" unicode="&#x45b;" 
d="M25 1233v72q0 27 26 26h103v68q0 35 36 35h97q37 0 37 -35v-68h288q29 0 29 -26v-72q0 -29 -29 -29h-288v-166q213 106 381 107q139 0 224 -82t85 -217v-811q0 -35 -35 -35h-98q-35 0 -35 35v811q0 63 -43 101t-115 38q-119 0 -364 -123v-825q0 -37 -37 -37h-97
q-37 0 -36 37v1167h-103q-26 0 -26 29z" />
    <glyph glyph-name="uni045C" unicode="&#x45c;" 
d="M512 496h-188v-461q0 -35 -37 -35h-97q-37 0 -36 35v1057q0 35 36 34h97q37 0 37 -34v-437h188l313 439q23 33 45 32h127q18 0 25.5 -9t-0.5 -23l-369 -519l391 -542q8 -14 2 -23.5t-22 -9.5h-131q-20 0 -43 33zM453 1227l86 172q14 25 39 24h149q23 0 6 -20l-151 -180
q-18 -18 -47 -19h-68q-24 0 -14 23z" />
    <glyph glyph-name="uni045D" unicode="&#x45d;" 
d="M266 0h-78q-35 0 -34 37v1055q0 35 34 34h99q35 0 35 -36v-736q0 -33 -19 -102l8 -2q16 57 39 96l494 750q20 31 57 30h78q35 0 35 -34v-1055q0 -37 -35 -37h-98q-35 0 -35 37v733q0 33 18 102l-8 2q-16 -57 -39 -96l-493 -747q-21 -31 -58 -31zM580 1399l86 -172
q10 -23 -15 -23h-67q-29 0 -47 19l-152 180q-20 20 8 20h148q25 1 39 -24z" />
    <glyph glyph-name="uni045E" unicode="&#x45e;" 
d="M385 -274l117 274l-414 1094q-6 14 0 23t23 9h112q37 0 47 -32l293 -793q14 -37 15 -104h8q0 61 14 104l293 791q14 35 49 34h115q16 0 22 -9t0 -23l-516 -1368q-10 -33 -47 -33h-108q-35 0 -23 33zM840 1419l-2 -45q-2 -70 -45 -111.5t-113 -41.5h-172q-70 0 -113 42
t-47 111l-2 45q0 29 27 29h69q27 0 31 -29l6 -49q4 -35 39 -35h150q35 0 39 35l6 49q4 29 30 29h72q29 0 25 -29z" />
    <glyph glyph-name="uni045F" unicode="&#x45f;" 
d="M154 37v1055q0 35 36 34h97q35 0 35 -34v-932h522v932q0 35 35 34h98q33 0 33 -34v-1055q0 -37 -33 -37h-309v-213q0 -37 -37 -37h-96q-37 0 -37 37v213h-308q-36 0 -36 37z" />
    <glyph glyph-name="uni0490" unicode="&#x490;" 
d="M1008 1618v-326q0 -37 -35 -37h-547v-1218q0 -37 -37 -37h-104q-37 0 -37 37v1362q0 35 37 35h544v184q0 37 37 37h105q37 0 37 -37z" />
    <glyph glyph-name="uni0491" unicode="&#x491;" 
d="M958 1298v-297q0 -35 -36 -34h-486v-930q0 -37 -37 -37h-96q-37 0 -37 37v1055q0 35 37 34h485v172q0 37 37 37h97q36 0 36 -37z" />
    <glyph glyph-name="uni04D8" unicode="&#x4d8;" 
d="M426 168h315q43 0 69 26.5t26 67.5v338h-504v-338q0 -41 25.5 -67.5t68.5 -26.5zM190 778h646v391q0 43 -26 70t-69 27h-315q-43 0 -68.5 -27t-25.5 -70v-125q0 -35 -37 -34h-105q-37 0 -36 34v117q0 127 77.5 204t204.5 77h297q127 0 204 -78t77 -203v-889
q0 -127 -77 -204.5t-204 -77.5h-297q-127 0 -204.5 77.5t-77.5 204.5v469q-1 37 36 37z" />
    <glyph glyph-name="uni04D9" unicode="&#x4d9;" 
d="M410 152h348q39 0 63.5 23.5t24.5 62.5v239h-522v-239q0 -39 23.5 -62.5t62.5 -23.5zM190 637h656v252q0 39 -24.5 62.5t-63.5 23.5h-348q-39 0 -62.5 -23.5t-23.5 -62.5v-64q0 -37 -37 -37h-97q-37 0 -36 37v56q0 115 70.5 185.5t185.5 70.5h348q115 0 185.5 -71
t70.5 -185v-635q0 -115 -71 -185.5t-185 -70.5h-348q-115 0 -185.5 70.5t-70.5 185.5v356q-1 35 36 35z" />
    <glyph glyph-name="Wgrave" unicode="&#x1e80;" 
d="M668 1399l133 -926q4 -31 4 -104h6q0 74 4 104l137 926q6 35 41 35h111q35 0 29 -35l-244 -1364q-6 -35 -41 -35h-76q-37 0 -41 35l-139 893q-4 23 -4 106h-8q0 -74 -7 -106l-139 -893q-4 -35 -41 -35h-74q-37 0 -43 35l-243 1364q-6 35 30 35h109q35 0 41 -35l137 -926
q4 -31 4 -104h6q0 74 5 104l135 926q4 35 41 35h86q35 0 41 -35zM580 1706l84 -172q12 -23 -13 -23h-69q-29 0 -45 19l-154 180q-20 20 8 21h148q27 0 41 -25z" />
    <glyph glyph-name="wgrave" unicode="&#x1e81;" 
d="M573 717l-139 -682q-6 -35 -41 -35h-90q-37 0 -43 35l-233 1057q-6 35 28 34h103q35 0 41 -34l141 -725q6 -31 6 -107h6q0 76 6 107l140 725q6 35 41 34h90q35 0 41 -34l139 -725q6 -31 6 -107h6q0 59 6 107l142 725q6 35 43 34h102q37 0 27 -34l-234 -1057
q-10 -35 -45 -35h-88q-37 0 -43 35l-137 682q-6 31 -6 106h-8q-1 -75 -7 -106zM578 1399l86 -172q12 -23 -15 -23h-67q-29 0 -45 19l-154 180q-20 20 8 20h148q29 1 39 -24z" />
    <glyph glyph-name="Wacute" unicode="&#x1e82;" 
d="M668 1399l133 -926q4 -31 4 -104h6q0 74 4 104l137 926q6 35 41 35h111q35 0 29 -35l-244 -1364q-6 -35 -41 -35h-76q-37 0 -41 35l-139 893q-4 23 -4 106h-8q0 -74 -7 -106l-139 -893q-4 -35 -41 -35h-74q-37 0 -43 35l-243 1364q-6 35 30 35h109q35 0 41 -35l137 -926
q4 -31 4 -104h6q0 74 5 104l135 926q4 35 41 35h86q35 0 41 -35zM502 1534l86 172q14 25 41 25h147q25 0 8 -21l-153 -180q-16 -18 -45 -19h-70q-24 0 -14 23z" />
    <glyph glyph-name="wacute" unicode="&#x1e83;" 
d="M573 717l-139 -682q-6 -35 -41 -35h-90q-37 0 -43 35l-233 1057q-6 35 28 34h103q35 0 41 -34l141 -725q6 -31 6 -107h6q0 76 6 107l140 725q6 35 41 34h90q35 0 41 -34l139 -725q6 -31 6 -107h6q0 59 6 107l142 725q6 35 43 34h102q37 0 27 -34l-234 -1057
q-10 -35 -45 -35h-88q-37 0 -43 35l-137 682q-6 31 -6 106h-8q-1 -75 -7 -106zM502 1227l86 172q14 25 41 24h147q27 0 6 -20l-151 -180q-16 -18 -47 -19h-68q-24 0 -14 23z" />
    <glyph glyph-name="Wdieresis" unicode="&#x1e84;" 
d="M668 1399l133 -926q4 -31 4 -104h6q0 74 4 104l137 926q6 35 41 35h111q35 0 29 -35l-244 -1364q-6 -35 -41 -35h-76q-37 0 -41 35l-139 893q-4 23 -4 106h-8q0 -74 -7 -106l-139 -893q-4 -35 -41 -35h-74q-37 0 -43 35l-243 1364q-6 35 30 35h109q35 0 41 -35l137 -926
q4 -31 4 -104h6q0 74 5 104l135 926q4 35 41 35h86q35 0 41 -35zM674 1577v53q0 25 15.5 40.5t39.5 15.5h53q25 0 40.5 -15.5t15.5 -40.5v-53q0 -25 -15.5 -40t-40.5 -15h-53q-25 0 -40 15t-15 40zM330 1577v53q0 55 57 56h51q55 0 56 -56v-53q0 -55 -56 -55h-51
q-57 0 -57 55z" />
    <glyph glyph-name="wdieresis" unicode="&#x1e85;" 
d="M573 717l-139 -682q-6 -35 -41 -35h-90q-37 0 -43 35l-233 1057q-6 35 28 34h103q35 0 41 -34l141 -725q6 -31 6 -107h6q0 76 6 107l140 725q6 35 41 34h90q35 0 41 -34l139 -725q6 -31 6 -107h6q0 59 6 107l142 725q6 35 43 34h102q37 0 27 -34l-234 -1057
q-10 -35 -45 -35h-88q-37 0 -43 35l-137 682q-6 31 -6 106h-8q-1 -75 -7 -106zM674 1270v53q0 25 15.5 40t39.5 15h53q25 0 40.5 -15t15.5 -40v-53q0 -25 -15.5 -40.5t-40.5 -15.5h-53q-25 0 -40 15.5t-15 40.5zM330 1270v53q0 55 57 55h49q57 0 58 -55v-53q0 -55 -58 -56
h-49q-57 1 -57 56z" />
    <glyph glyph-name="uni1E9E" unicode="&#x1e9e;" 
d="M557 924l178 342h-299q-39 0 -63.5 -24.5t-24.5 -63.5v-1141q0 -37 -35 -37h-106q-37 0 -37 37v1141q0 115 70.5 185.5t185.5 70.5h528q16 0 22.5 -10.5t0.5 -24.5l-252 -531h57q96 0 154.5 -69.5t58.5 -182.5v-360q0 -115 -70.5 -185.5t-185.5 -70.5h-166q-37 0 -36 37
v96q0 37 36 37h150q94 0 94 113v333q0 51 -36 82t-93 31h-108q-35 0 -35 37v88q0 39 12 70z" />
    <glyph glyph-name="Ygrave" unicode="&#x1ef2;" 
d="M1055 1401l-383 -842v-522q0 -37 -35 -37h-107q-35 0 -34 37v522l-383 842q-12 33 20 33h119q35 0 51 -33l260 -572q16 -41 17 -102h8q0 61 16 102l260 572q12 33 49 33h121q37 0 21 -33zM580 1706l86 -172q10 -23 -15 -23h-67q-29 0 -47 19l-152 180q-20 20 8 21h148
q25 0 39 -25z" />
    <glyph glyph-name="ygrave" unicode="&#x1ef3;" 
d="M385 -274l117 274l-414 1094q-6 14 0 23t23 9h112q37 0 47 -32l293 -793q14 -37 15 -104h8q0 61 14 104l293 791q14 35 49 34h115q16 0 22 -9t0 -23l-516 -1368q-10 -33 -47 -33h-108q-35 0 -23 33zM580 1399l86 -172q10 -23 -15 -23h-69q-29 0 -45 19l-152 180
q-25 20 6 20h148q27 1 41 -24z" />
    <glyph glyph-name="figuredash" unicode="&#x2012;" 
d="M254 682v88q0 35 37 35h586q37 0 36 -35v-88q0 -37 -36 -37h-586q-37 0 -37 37z" />
    <glyph glyph-name="endash" unicode="&#x2013;" 
d="M205 580v90q0 27 26 26h705q27 0 27 -26v-90q0 -27 -27 -27h-705q-26 0 -26 27z" />
    <glyph glyph-name="emdash" unicode="&#x2014;" 
d="M51 580v90q0 27 27 26h1012q27 0 26 -26v-90q0 -27 -26 -27h-1012q-27 0 -27 27z" />
    <glyph glyph-name="quoteleft" unicode="&#x2018;" 
d="M586 1434h86q45 0 41 -45l-39 -379q-6 -53 -60 -54h-127q-53 0 -43 52l86 381q11 45 56 45z" />
    <glyph glyph-name="quoteright" unicode="&#x2019;" 
d="M569 956h-84q-47 0 -43 45l39 379q6 53 60 54h127q25 0 37 -14.5t6 -39.5l-86 -381q-11 -43 -56 -43z" />
    <glyph glyph-name="quotesinglbase" unicode="&#x201a;" 
d="M553 -213h-86q-45 0 -41 45l39 379q4 53 59 53h127q53 0 43 -53l-88 -381q-6 -43 -53 -43z" />
    <glyph glyph-name="quotedblleft" unicode="&#x201c;" 
d="M756 1434h86q45 0 41 -45l-39 -381q-4 -51 -60 -52h-127q-55 0 -43 52l88 381q7 45 54 45zM412 1434h84q45 0 41 -45l-39 -381q-4 -51 -58 -52h-129q-53 0 -43 52l88 381q11 45 56 45z" />
    <glyph glyph-name="quotedblright" unicode="&#x201d;" 
d="M389 956h-84q-45 0 -41 45l39 381q4 51 57 52h129q53 0 43 -52l-88 -381q-10 -45 -55 -45zM735 956h-84q-47 0 -43 45l41 381q4 51 58 52h127q25 0 37 -14.5t6 -37.5l-86 -381q-11 -45 -56 -45z" />
    <glyph glyph-name="quotedblbase" unicode="&#x201e;" 
d="M389 -213h-84q-45 0 -41 45l39 379q4 53 59 53h127q53 0 43 -53l-88 -379q-10 -45 -55 -45zM735 -213h-84q-47 0 -41 45l39 379q4 53 58 53h129q23 0 35 -14t6 -39l-86 -379q-11 -45 -56 -45z" />
    <glyph glyph-name="dagger" unicode="&#x2020;" 
d="M188 1028v80q0 27 27 27h297v374q0 27 27 27h90q27 0 26 -27v-374h297q27 0 27 -27v-80q0 -29 -27 -29h-297v-1280q0 -27 -26 -26h-90q-27 0 -27 26v1280h-297q-27 0 -27 29z" />
    <glyph glyph-name="daggerdbl" unicode="&#x2021;" 
d="M188 119v80q0 27 27 26h297v779h-297q-27 0 -27 26v82q0 27 27 27h297v370q0 27 27 27h90q27 0 26 -27v-370h297q27 0 27 -27v-82q0 -27 -27 -26h-297v-779h297q27 0 27 -26v-80q0 -29 -27 -29h-297v-371q0 -27 -26 -26h-90q-27 0 -27 26v371h-297q-27 0 -27 29z" />
    <glyph glyph-name="bullet" unicode="&#x2022;" 
d="M385 498v254q0 33 19.5 52t52.5 19h254q33 0 52 -19.5t19 -51.5v-254q0 -33 -19.5 -52.5t-51.5 -19.5h-254q-33 0 -52.5 19.5t-19.5 52.5z" />
    <glyph glyph-name="ellipsis" unicode="&#x2026;" 
d="M455 53v160q0 23 15 38t38 15h151q23 0 38.5 -15t15.5 -38v-160q0 -23 -15.5 -38t-38.5 -15h-151q-23 0 -38 15t-15 38zM78 53v160q0 53 55 53h150q53 0 53 -53v-160q0 -23 -14.5 -38t-38.5 -15h-150q-25 0 -40 15t-15 38zM827 53v160q0 53 56 53h149q53 0 53 -53v-160
q0 -23 -14 -38t-39 -15h-149q-25 0 -40.5 15t-15.5 38z" />
    <glyph glyph-name="perthousand" unicode="&#x2030;" 
d="M23 702l1099 183q29 0 31 -23l12 -88q8 -27 -22 -31l-1098 -184q-25 0 -33 25l-10 86q-6 28 21 32zM178 1198v-156q0 -47 27.5 -74.5t73.5 -27.5h53q43 0 70.5 28.5t27.5 73.5v156q0 45 -27.5 73.5t-70.5 28.5h-53q-45 0 -73 -28.5t-28 -73.5zM37 1055v129
q0 117 69.5 188.5t184.5 71.5h26q115 0 185.5 -72t70.5 -188v-129q0 -115 -70.5 -186.5t-185.5 -71.5h-26q-115 0 -184.5 71.5t-69.5 186.5zM711 250v63q0 117 55 188.5t147 71.5h21q92 0 148.5 -71.5t56.5 -188.5v-63q0 -117 -56.5 -188.5t-148.5 -71.5h-21
q-92 0 -147 71.5t-55 188.5zM852 328v-92q0 -45 16.5 -74t42.5 -29h27q25 0 41 28.5t16 74.5v92q0 45 -16 73.5t-41 28.5h-27q-27 0 -43 -28.5t-16 -73.5zM229 250v63q0 117 55.5 188.5t147.5 71.5h23q92 0 147 -71.5t55 -188.5v-63q0 -117 -55 -188.5t-147 -71.5h-23
q-92 0 -147.5 71.5t-55.5 188.5zM371 328v-92q0 -45 16 -74t43 -29h27q27 0 42 28.5t15 74.5v92q0 45 -15.5 73.5t-41.5 28.5h-27q-27 0 -43 -28.5t-16 -73.5z" />
    <glyph glyph-name="guilsinglleft" unicode="&#x2039;" 
d="M799 903l-285 -278l285 -279q25 -25 0 -49l-54 -53q-14 -10 -24 -11q-14 0 -25 11l-309 305q-25 20 -25 61v31q0 39 25 59l309 306q10 10 25 10q10 0 24 -10l54 -52q25 -26 0 -51z" />
    <glyph glyph-name="guilsinglright" unicode="&#x203a;" 
d="M653 625l-282 278q-25 25 0 51l51 52q10 10 24.5 10t24.5 -10l309 -306q27 -27 27 -59v-31q0 -35 -27 -61l-309 -305q-10 -10 -24.5 -10.5t-24.5 10.5l-51 53q-25 25 0 49z" />
    <glyph glyph-name="fraction" unicode="&#x2044;" 
d="M10 -8l1032 1532q6 12 21 12q6 0 16 -6l72 -51q20 -14 8 -37l-1032 -1532q-8 -12 -21 -12q-10 0 -16 6l-74 51q-22 12 -6 37z" />
    <glyph glyph-name="Euro" unicode="&#x20ac;" 
d="M37 549v72q0 37 37 36h110v119h-110q-37 0 -37 37v72q0 35 37 35h110v241q0 127 78 205t205 78h266q127 0 204 -78t77 -205v-129q0 -35 -35 -35h-107q-37 0 -36 35v137q0 43 -26 70t-69 27h-284q-43 0 -69 -27t-26 -70v-249h361q37 0 37 -35v-72q0 -37 -37 -37h-361v-119
h361q37 0 37 -36v-72q0 -35 -37 -35h-361v-250q0 -43 26 -69.5t69 -26.5h284q43 0 69 26.5t26 69.5v137q0 35 36 35h107q35 0 35 -35v-129q0 -127 -77 -204.5t-204 -77.5h-266q-127 0 -205 77.5t-78 204.5v242h-110q-37 0 -37 35z" />
    <glyph glyph-name="uni20B4" unicode="&#x20b4;" 
d="M129 549v72q0 35 37 34h201l149 119h-350q-37 0 -37 37v70q0 37 37 37h530l84 65q37 33 37 98v97q0 39 -25.5 63.5t-68.5 24.5h-277q-43 0 -69.5 -27t-26.5 -70v-96q0 -35 -37 -35h-104q-37 0 -37 35v88q0 127 78 205t205 78h258q127 0 204.5 -74t77.5 -194v-54
q0 -127 -57 -204h41q37 0 37 -37v-70q0 -37 -37 -37h-209l-152 -119h361q37 0 37 -34v-72q0 -35 -37 -35h-539l-55 -45q-39 -31 -39 -98v-115q0 -39 26.5 -63.5t69.5 -24.5h299q43 0 69 26.5t26 69.5v96q0 35 36 35h107q35 0 35 -37v-88q0 -127 -78 -204.5t-203 -77.5h-282
q-125 0 -203 73.5t-78 194.5v74q0 106 43 184h-47q-37 0 -37 35z" />
    <glyph glyph-name="uni2116" unicode="&#x2116;" 
d="M885 1190v-98q0 -47 15 -75t42 -28h27q27 0 43 29t16 74v98q0 45 -16.5 73.5t-42.5 28.5h-27q-27 0 -42 -28.5t-15 -73.5zM213 831v-794q0 -37 -37 -37h-96q-37 0 -37 37v1362q0 35 37 35h72q37 0 47 -33l305 -809q4 -14 22 -103l9 3q-12 61 -13 104v803q0 35 35 35h98
q35 0 35 -35v-1362q0 -37 -35 -37h-71q-35 0 -49 33l-304 803q-8 18 -24 102l-8 -2q14 -72 14 -105zM762 647v66q0 33 35 32h323q33 0 33 -32v-66q0 -37 -33 -37h-323q-35 0 -35 37zM760 1114v70q0 117 51 188.5t137 71.5h19q84 0 135 -72t51 -188v-70q0 -117 -51 -188.5
t-135 -71.5h-19q-86 0 -137 71.5t-51 188.5z" />
    <glyph glyph-name="trademark" unicode="&#x2122;" 
d="M543 1411v-65q0 -20 -23 -21h-164v-586q0 -23 -20 -22h-68q-20 0 -20 22v586h-166q-20 0 -21 21v65q0 23 21 23h438q23 0 23 -23zM735 1133v-394q0 -23 -22 -22h-60q-23 0 -22 22v672q0 23 22 23h76q25 0 31 -23l94 -299q8 -27 8 -65h4q0 39 8 65l95 301q6 20 28 21h76
q23 0 23 -23v-672q0 -23 -23 -22h-59q-23 0 -23 22v394q0 27 8 63l-4 2q0 -2 -4 -27.5t-8 -35.5l-80 -246q-6 -20 -29 -21h-22q-20 0 -27 21l-80 246q-4 12 -14 63l-4 -2q8 -36 8 -63z" />
    <glyph glyph-name="arrowleft" unicode="&#x2190;" 
d="M1044 645h-725l205 -184q27 -27 0 -49l-51 -52q-12 -12 -27 -12q-10 0 -24 10l-301 289q-27 23 -27 62v16q0 39 27 61l301 289q14 10 24 10q12 0 27 -10l51 -51q25 -25 0 -51l-205 -185h725q29 0 29 -26v-90q0 -27 -29 -27z" />
    <glyph glyph-name="arrowup" unicode="&#x2191;" 
d="M512 256v725l-184 -203q-12 -12 -25 -12q-16 0 -24 10l-54 51q-25 25 0 52l289 301q23 27 61 26h17q35 0 61 -26l289 -301q25 -27 0 -52l-53 -51q-8 -10 -22.5 -10t-26.5 12l-185 203v-725q0 -29 -26 -29h-90q-27 0 -27 29z" />
    <glyph glyph-name="arrowright" unicode="&#x2192;" 
d="M848 645h-725q-29 0 -29 27v90q0 27 29 26h725l-205 185q-25 27 0 51l51 51q14 10 27 10q10 0 24 -10l302 -289q27 -23 26 -61v-16q0 -39 -26 -62l-302 -289q-14 -10 -24 -10q-14 0 -27 12l-51 52q-27 23 0 49z" />
    <glyph glyph-name="arrowdown" unicode="&#x2193;" 
d="M655 1178v-725l185 204q12 12 24 13q16 0 25 -13l53 -51q25 -25 0 -51l-289 -301q-23 -27 -61 -27h-17q-35 0 -61 27l-289 301q-25 27 0 51l54 51q8 12 22 12.5t27 -12.5l184 -204v725q0 29 27 28h90q26 1 26 -28z" />
    <glyph glyph-name="uni2196" unicode="&#x2196;" 
d="M860 340l-514 512l14 -274q0 -35 -34 -35h-74q-35 0 -35 35l-10 417q0 33 24 62l13 12q29 25 61 25l418 -11q35 0 35 -34v-74q0 -16 -10.5 -25.5t-24.5 -7.5l-274 12l512 -514q23 -18 0 -37l-64 -63q-6 -8 -18.5 -8t-18.5 8z" />
    <glyph glyph-name="uni2197" unicode="&#x2197;" 
d="M207 442l512 512l-275 -14q-35 0 -34 35v74q0 35 34 34l418 11q33 0 62 -25l12 -12q25 -25 25 -62l-11 -417q0 -35 -35 -35h-73q-35 0 -35 35l14 274l-514 -512q-6 -8 -18.5 -8t-18.5 8l-63 63q-20 19 0 39z" />
    <glyph glyph-name="uni2198" unicode="&#x2198;" 
d="M307 1094l514 -512l-14 274q0 35 35 35h73q35 0 35 -35l11 -418q0 -33 -25 -61l-12 -12q-29 -25 -62 -25l-418 10q-35 0 -34 37v72q0 35 34 35l275 -15l-512 514q-20 18 0 39l63 62q6 8 18.5 8t18.5 -8z" />
    <glyph glyph-name="uni2199" unicode="&#x2199;" 
d="M961 993l-512 -514l274 15q35 0 35 -35v-72q0 -37 -35 -37l-418 -10q-33 0 -61 25l-13 12q-25 29 -24 61l10 418q0 35 35 35h74q35 0 34 -35l-14 -274l514 512q6 8 18.5 8t20.5 -8l62 -64q23 -19 0 -37z" />
    <glyph glyph-name="minus" unicode="&#x2212;" 
d="M254 682v88q0 35 37 35h586q37 0 36 -35v-88q0 -37 -36 -37h-586q-37 0 -37 37z" />
    <glyph glyph-name="approxequal" unicode="&#x2248;" 
d="M256 754v108q0 27 25 41l49 33q55 31 112 31q45 0 82 -19l154 -65q20 -10 55 -11q41 0 74 21l82 51q8 4 12 4q10 0 10 -16v-107q0 -27 -22 -43l-51 -30q-49 -31 -113 -31q-43 0 -82 16l-154 68q-27 10 -55 10q-37 0 -74 -20l-79 -54q-12 -4 -15 -4q-10 1 -10 17zM256 451
v106q0 25 25 43l49 33q49 31 110 31q45 0 84 -17l154 -67q27 -10 55 -11q41 0 74 19l82 53q8 4 12 4q10 0 10 -16v-109q0 -29 -22 -41l-51 -30q-53 -33 -113 -33q-45 0 -82 18l-154 66q-25 12 -53 12q-41 0 -76 -23l-79 -51q-6 -4 -15 -4q-10 1 -10 17z" />
    <glyph glyph-name="notequal" unicode="&#x2260;" 
d="M596 967l61 166q6 16 35 16l84 -33q23 -10 17 -35l-43 -114h127q37 0 36 -37v-88q0 -37 -36 -37h-187l-59 -160h246q37 0 36 -35v-90q0 -35 -36 -35h-306l-61 -166q-6 -18 -25 -18q-6 0 -8 2l-84 31q-27 12 -16 35l43 116h-129q-37 0 -37 35v90q0 35 37 35h186l60 160
h-246q-37 0 -37 37v88q0 37 37 37h305z" />
    <glyph glyph-name="lessequal" unicode="&#x2264;" 
d="M254 231v88q0 35 37 35h586q37 0 36 -35v-88q0 -37 -36 -36h-586q-37 -1 -37 36zM895 1034l-383 -219l383 -219q31 -16 12 -47l-43 -78q-8 -18 -28 -18q-8 0 -19 6l-532 303q-31 16 -31 53q0 35 31 55l532 304q10 6 19 6q20 0 28 -19l43 -78q17 -31 -12 -49z" />
    <glyph glyph-name="greaterequal" unicode="&#x2265;" 
d="M655 815l-383 219q-29 18 -12 49l43 78q8 18 29 19q8 0 18 -6l533 -304q31 -20 30 -55q0 -37 -30 -53l-533 -303q-10 -6 -18 -6q-20 0 -29 18l-43 78q-18 31 12 47zM913 319v-88q0 -37 -36 -36h-586q-37 0 -37 36v88q0 35 37 35h586q36 0 36 -35z" />
    <glyph glyph-name="uniFB01" unicode="&#xfb01;" 
d="M39 1001v91q0 35 37 34h176v52q0 115 70.5 185.5t185.5 70.5h188q37 0 37 -35v-90q0 -35 -37 -35h-188q-39 0 -62.5 -24.5t-23.5 -63.5v-60h274q37 0 37 -34v-91q0 -35 -37 -34h-274v-930q0 -37 -37 -37h-96q-37 0 -37 37v930h-176q-37 -1 -37 34zM915 1126h97
q37 0 37 -34v-1055q0 -37 -37 -37h-97q-37 0 -36 37v1055q-1 34 36 34zM840 1307v131q0 53 53 53h139q55 0 55 -53v-131q0 -51 -55 -52h-139q-53 1 -53 52z" />
    <glyph glyph-name="uniFB02" unicode="&#xfb02;" 
d="M39 1001v91q0 35 37 34h176v52q0 115 70.5 185.5t185.5 70.5h188q37 0 37 -35v-90q0 -35 -37 -35h-188q-39 0 -62.5 -24.5t-23.5 -63.5v-60h274q37 0 37 -34v-91q0 -35 -37 -34h-274v-930q0 -37 -37 -37h-96q-37 0 -37 37v930h-176q-37 -1 -37 34zM915 1434h97
q37 0 37 -35v-1362q0 -37 -37 -37h-97q-37 0 -36 37v1362q-1 35 36 35z" />
    <glyph glyph-name="glyph485" 
d="M506 -293l24 191q6 37 41 36h60q39 0 28 -34l-47 -193q-6 -29 -34 -29h-48q-28 0 -24 29z" />
    <glyph glyph-name="a.sc" 
d="M406 346h356l-166 436q-8 25 -8 90h-8q0 -66 -9 -90zM819 195h-471l-63 -166q-10 -29 -39 -29h-96q-31 0 -21 29l383 1087q10 31 41 31h61q33 0 39 -29l385 -1089q6 -29 -22 -29h-94q-33 0 -39 29z" />
    <glyph glyph-name="aacute.sc" 
d="M406 346h356l-166 436q-8 25 -8 90h-8q0 -66 -9 -90zM819 195h-471l-63 -166q-10 -29 -39 -29h-96q-31 0 -21 29l383 1087q10 31 41 31h61q33 0 39 -29l385 -1089q6 -29 -22 -29h-94q-33 0 -39 29zM522 1247l86 172q10 25 39 25h148q25 0 8 -21l-154 -180
q-14 -18 -45 -18h-69q-25 -1 -13 22z" />
    <glyph glyph-name="abreve.sc" 
d="M406 346h356l-166 436q-8 25 -8 90h-8q0 -66 -9 -90zM819 195h-471l-63 -166q-10 -29 -39 -29h-96q-31 0 -21 29l383 1087q10 31 41 31h61q33 0 39 -29l385 -1089q6 -29 -22 -29h-94q-33 0 -39 29zM780 1399v-23q-2 -70 -46 -110.5t-113 -40.5h-70q-70 0 -114 41t-46 110
l-2 23q0 29 27 28h53q27 0 31 -26l6 -37q4 -35 39 -35h82q35 0 39 35l4 37q8 27 32 26h54q28 1 24 -28z" />
    <glyph glyph-name="acircumflex.sc" 
d="M406 346h356l-166 436q-8 25 -8 90h-8q0 -66 -9 -90zM819 195h-471l-63 -166q-10 -29 -39 -29h-96q-31 0 -21 29l383 1087q10 31 41 31h61q33 0 39 -29l385 -1089q6 -29 -22 -29h-94q-33 0 -39 29zM674 1411l121 -158q14 -20 -11 -20h-94q-27 0 -43 22l-61 91l-68 -93
q-14 -20 -43 -20h-88q-27 0 -10 20l121 158q18 23 45 23h86q27 0 45 -23z" />
    <glyph glyph-name="agrave.sc" 
d="M406 346h356l-166 436q-8 25 -8 90h-8q0 -66 -9 -90zM819 195h-471l-63 -166q-10 -29 -39 -29h-96q-31 0 -21 29l383 1087q10 31 41 31h61q33 0 39 -29l385 -1089q6 -29 -22 -29h-94q-33 0 -39 29zM563 1419l86 -172q10 -23 -14 -22h-68q-29 0 -47 18l-151 180
q-20 20 8 21h147q29 0 39 -25z" />
    <glyph glyph-name="adieresis.sc" 
d="M406 346h356l-166 436q-8 25 -8 90h-8q0 -66 -9 -90zM819 195h-471l-63 -166q-10 -29 -39 -29h-96q-31 0 -21 29l383 1087q10 31 41 31h61q33 0 39 -29l385 -1089q6 -29 -22 -29h-94q-33 0 -39 29zM332 1290v53q0 55 57 56h49q57 0 58 -56v-53q0 -55 -58 -55h-49
q-57 0 -57 55zM676 1290v53q0 25 15.5 40.5t39.5 15.5h53q25 0 40.5 -15.5t15.5 -40.5v-53q0 -25 -15.5 -40t-40.5 -15h-53q-25 0 -40 15t-15 40z" />
    <glyph glyph-name="amacron.sc" 
d="M406 346h356l-166 436q-8 25 -8 90h-8q0 -66 -9 -90zM819 195h-471l-63 -166q-10 -29 -39 -29h-96q-31 0 -21 29l383 1087q10 31 41 31h61q33 0 39 -29l385 -1089q6 -29 -22 -29h-94q-33 0 -39 29zM393 1290v64q0 27 27 26h332q27 0 26 -26v-64q0 -27 -26 -26h-332
q-27 -1 -27 26z" />
    <glyph glyph-name="aogonek.sc" 
d="M406 346h356l-166 436q-8 25 -8 90h-8q0 -66 -9 -90zM918 0q-29 4 -35 27l-64 168h-471l-63 -166q-10 -29 -39 -29h-96q-31 0 -21 29l383 1087q10 31 41 31h61q33 0 39 -29l385 -1091q8 -27 -20 -27h-2q-59 -78 -70 -135q-6 -35 25 -35h80q29 0 28 -29v-37q0 -27 -28 -26
h-111q-41 0 -66.5 25.5t-25.5 66.5q0 94 70 170z" />
    <glyph glyph-name="aring.sc" 
d="M406 346h356l-166 436q-8 25 -8 90h-8q0 -66 -9 -90zM518 1329q0 -27 19.5 -47t48 -20t48 20.5t19.5 46.5q0 29 -20.5 49.5t-47 20.5t-47 -20.5t-20.5 -49.5zM819 195h-471l-63 -166q-10 -29 -39 -29h-96q-31 0 -21 29l383 1087q10 31 41 31h61q33 0 39 -29l385 -1089
q6 -29 -22 -29h-94q-33 0 -39 29zM432 1329.5q0 63.5 45 108.5t108.5 45t108.5 -45t45 -108.5t-45 -108.5t-108.5 -45t-108.5 45t-45 108.5z" />
    <glyph glyph-name="atilde.sc" 
d="M406 346h356l-166 436q-8 25 -8 90h-8q0 -66 -9 -90zM819 195h-471l-63 -166q-10 -29 -39 -29h-96q-31 0 -21 29l383 1087q10 31 41 31h61q33 0 39 -29l385 -1089q6 -29 -22 -29h-94q-33 0 -39 29zM344 1260v69q0 39 51 61.5t97 22.5q41 0 75 -14l74 -35q18 -8 45 -8
q66 0 121 41q2 0 6 2t6 2q10 0 10 -17v-67q0 -41 -50 -62.5t-95 -21.5q-37 0 -76 16l-76 33q-20 10 -45 10q-59 0 -120 -43q-6 -6 -13 -6q-10 1 -10 17z" />
    <glyph glyph-name="ae.sc" 
d="M369 346h231v504q0 45 10 90h-4q-14 -68 -22 -88zM600 195h-297l-70 -166q-10 -29 -36 -29h-103q-14 0 -20 8t0 21l463 1087q6 31 38 31h463q31 0 31 -31v-90q0 -31 -31 -31h-284v-393h200q31 0 31 -31v-90q0 -31 -31 -30h-200v-299h284q31 0 31 -31v-90q0 -31 -31 -31
h-407q-31 0 -31 31v164z" />
    <glyph glyph-name="aeacute.sc" 
d="M369 346h231v504q0 45 10 90h-4q-14 -68 -22 -88zM600 195h-297l-70 -166q-10 -29 -36 -29h-103q-14 0 -20 8t0 21l463 1087q6 31 38 31h463q31 0 31 -31v-90q0 -31 -31 -31h-284v-393h200q31 0 31 -31v-90q0 -31 -31 -30h-200v-299h284q31 0 31 -31v-90q0 -31 -31 -31
h-407q-31 0 -31 31v164zM592 1247l86 172q14 25 39 25h149q23 0 6 -21l-151 -180q-18 -18 -47 -18h-68q-24 -1 -14 22z" />
    <glyph glyph-name="b.sc" 
d="M868 225v211q0 33 -26.5 52.5t-69.5 19.5h-432v-356h430q45 0 71.5 20t26.5 53zM733 995h-393v-336h393q43 0 69.5 19.5t26.5 52.5v193q0 33 -26.5 52t-69.5 19zM1020 391v-160q0 -102 -70.5 -166.5t-185.5 -64.5h-545q-31 0 -31 31v1085q0 31 31 31h508
q115 0 184.5 -63.5t69.5 -168.5v-139q0 -119 -90 -182q129 -60 129 -203z" />
    <glyph glyph-name="c.sc" 
d="M442 1155h285q115 0 185.5 -63.5t70.5 -167.5v-101q0 -31 -31 -30h-90q-33 0 -33 30v109q0 33 -25.5 52.5t-70.5 19.5h-299q-43 0 -69.5 -19.5t-26.5 -52.5v-717q0 -31 26.5 -50.5t69.5 -19.5h299q45 0 70.5 19.5t25.5 50.5v111q0 12 9.5 21t23.5 9h90q31 0 31 -30v-103
q0 -104 -70.5 -167.5t-185.5 -63.5h-285q-117 0 -186.5 63.5t-69.5 167.5v701q0 104 69.5 167.5t186.5 63.5z" />
    <glyph glyph-name="cacute.sc" 
d="M442 1155h285q115 0 185.5 -63.5t70.5 -167.5v-101q0 -31 -31 -30h-90q-33 0 -33 30v109q0 33 -25.5 52.5t-70.5 19.5h-299q-43 0 -69.5 -19.5t-26.5 -52.5v-717q0 -31 26.5 -50.5t69.5 -19.5h299q45 0 70.5 19.5t25.5 50.5v111q0 12 9.5 21t23.5 9h90q31 0 31 -30v-103
q0 -104 -70.5 -167.5t-185.5 -63.5h-285q-117 0 -186.5 63.5t-69.5 167.5v701q0 104 69.5 167.5t186.5 63.5zM520 1247l86 172q10 25 39 25h148q25 0 8 -21l-152 -180q-18 -18 -47 -18h-67q-25 -1 -15 22z" />
    <glyph glyph-name="ccaron.sc" 
d="M442 1155h285q115 0 185.5 -63.5t70.5 -167.5v-101q0 -31 -31 -30h-90q-33 0 -33 30v109q0 33 -25.5 52.5t-70.5 19.5h-299q-43 0 -69.5 -19.5t-26.5 -52.5v-717q0 -31 26.5 -50.5t69.5 -19.5h299q45 0 70.5 19.5t25.5 50.5v111q0 12 9.5 21t23.5 9h90q31 0 31 -30v-103
q0 -104 -70.5 -167.5t-185.5 -63.5h-285q-117 0 -186.5 63.5t-69.5 167.5v701q0 104 69.5 167.5t186.5 63.5zM793 1411l-121 -158q-16 -20 -45 -20h-86q-29 0 -43 20l-123 158q-16 23 10 23h88q27 0 45 -23l66 -90l63 90q14 23 41 23h94q27 0 11 -23z" />
    <glyph glyph-name="ccedilla.sc" 
d="M711 -156v-47q0 -43 -27 -69.5t-70 -26.5h-131q-27 0 -26 27v28q0 27 26 27h105q31 0 30 31v14q0 31 -30 31h-47q-53 0 -43 51l14 82h-70q-117 0 -186.5 63.5t-69.5 167.5v701q0 104 70 167.5t186 63.5h285q115 0 185.5 -63.5t70.5 -167.5v-101q0 -31 -31 -30h-90
q-33 0 -33 30v109q0 33 -25.5 52.5t-70.5 19.5h-299q-43 0 -69.5 -19.5t-26.5 -52.5v-717q0 -31 26.5 -50.5t69.5 -19.5h299q45 0 70.5 19.5t25.5 50.5v111q0 12 9.5 21t23.5 9h90q31 0 31 -30v-103q0 -104 -70.5 -167.5t-185.5 -63.5h-113l-10 -49h10q43 0 70 -27t27 -72z
" />
    <glyph glyph-name="ccircumflex.sc" 
d="M442 1155h285q115 0 185.5 -63.5t70.5 -167.5v-101q0 -31 -31 -30h-90q-33 0 -33 30v109q0 33 -25.5 52.5t-70.5 19.5h-299q-43 0 -69.5 -19.5t-26.5 -52.5v-717q0 -31 26.5 -50.5t69.5 -19.5h299q45 0 70.5 19.5t25.5 50.5v111q0 12 9.5 21t23.5 9h90q31 0 31 -30v-103
q0 -104 -70.5 -167.5t-185.5 -63.5h-285q-117 0 -186.5 63.5t-69.5 167.5v701q0 104 69.5 167.5t186.5 63.5zM672 1411l121 -158q16 -20 -11 -20h-94q-29 0 -41 22l-63 91l-66 -93q-16 -20 -45 -20h-88q-27 0 -10 20l123 158q14 23 43 23h86q27 0 45 -23z" />
    <glyph glyph-name="cdotaccent.sc" 
d="M442 1155h285q115 0 185.5 -63.5t70.5 -167.5v-101q0 -31 -31 -30h-90q-33 0 -33 30v109q0 33 -25.5 52.5t-70.5 19.5h-299q-43 0 -69.5 -19.5t-26.5 -52.5v-717q0 -31 26.5 -50.5t69.5 -19.5h299q45 0 70.5 19.5t25.5 50.5v111q0 12 9.5 21t23.5 9h90q31 0 31 -30v-103
q0 -104 -70.5 -167.5t-185.5 -63.5h-285q-117 0 -186.5 63.5t-69.5 167.5v701q0 104 69.5 167.5t186.5 63.5zM489 1290v70q0 25 15.5 40t40.5 15h78q25 0 40 -15.5t15 -39.5v-70q0 -25 -15.5 -40t-39.5 -15h-78q-25 0 -40.5 15t-15.5 40z" />
    <glyph glyph-name="d.sc" 
d="M338 995v-843h395q45 0 70.5 19t25.5 54v699q0 33 -25.5 52t-70.5 19h-395zM186 31v1085q0 31 31 31h510q115 0 185.5 -63.5t70.5 -168.5v-684q0 -102 -70.5 -166.5t-185.5 -64.5h-510q-31 0 -31 31z" />
    <glyph glyph-name="dcaron.sc" 
d="M338 995v-843h395q45 0 70.5 19t25.5 54v699q0 33 -25.5 52t-70.5 19h-395zM186 31v1085q0 31 31 31h510q115 0 185.5 -63.5t70.5 -168.5v-684q0 -102 -70.5 -166.5t-185.5 -64.5h-510q-31 0 -31 31zM758 1411l-121 -158q-16 -20 -43 -20h-88q-27 0 -43 20l-121 158
q-16 23 10 23h88q25 0 43 -23l66 -90l63 90q14 23 43 23h93q26 0 10 -23z" />
    <glyph glyph-name="dcroat.sc" 
d="M547 516h-213v-364h397q43 0 69.5 20.5t26.5 52.5v699q0 33 -26.5 52t-69.5 19h-397v-356h213q31 0 31 -31v-61q0 -31 -31 -31zM51 547v61q0 31 31 31h98v477q0 31 31 31h510q117 0 187.5 -63.5t70.5 -168.5v-684q0 -102 -70.5 -166.5t-187.5 -64.5h-510q-31 0 -31 31
v485h-98q-31 0 -31 31z" />
    <glyph glyph-name="eth.sc" 
d="M547 516h-213v-364h397q43 0 69.5 20.5t26.5 52.5v699q0 33 -26.5 52t-69.5 19h-397v-356h213q31 0 31 -31v-61q0 -31 -31 -31zM51 547v61q0 31 31 31h98v477q0 31 31 31h510q117 0 187.5 -63.5t70.5 -168.5v-684q0 -102 -70.5 -166.5t-187.5 -64.5h-510q-31 0 -31 31
v485h-98q-31 0 -31 31z" />
    <glyph glyph-name="thorn.sc" 
d="M733 788h-395v-399h395q45 0 70.5 19.5t25.5 52.5v256q0 31 -26.5 51t-69.5 20zM338 940h389q115 0 185.5 -63.5t70.5 -167.5v-240q0 -104 -70.5 -167.5t-185.5 -63.5h-389v-207q0 -31 -31 -31h-90q-31 0 -31 31v1085q0 31 31 31h90q31 0 31 -31v-176z" />
    <glyph glyph-name="e.sc" 
d="M186 31v1085q0 31 31 31h735q31 0 31 -31v-90q0 -31 -31 -31h-614v-393h448q31 0 31 -31v-90q0 -31 -31 -30h-448v-299h614q31 0 31 -31v-90q0 -31 -31 -31h-735q-31 0 -31 31z" />
    <glyph glyph-name="eacute.sc" 
d="M186 31v1085q0 31 31 31h735q31 0 31 -31v-90q0 -31 -31 -31h-614v-393h448q31 0 31 -31v-90q0 -31 -31 -30h-448v-299h614q31 0 31 -31v-90q0 -31 -31 -31h-735q-31 0 -31 31zM520 1247l86 172q10 25 39 25h148q25 0 8 -21l-152 -180q-18 -18 -47 -18h-67q-25 -1 -15 22
z" />
    <glyph glyph-name="ebreve.sc" 
d="M186 31v1085q0 31 31 31h735q31 0 31 -31v-90q0 -31 -31 -31h-614v-393h448q31 0 31 -31v-90q0 -31 -31 -30h-448v-299h614q31 0 31 -31v-90q0 -31 -31 -31h-735q-31 0 -31 31zM780 1399l-2 -23q-2 -70 -46 -110.5t-114 -40.5h-69q-70 0 -114 41t-46 110l-2 23
q0 29 27 28h53q27 0 31 -26l6 -37q4 -35 39 -35h82q35 0 39 35l6 37q4 27 30 26h54q26 1 26 -28z" />
    <glyph glyph-name="ecaron.sc" 
d="M186 31v1085q0 31 31 31h735q31 0 31 -31v-90q0 -31 -31 -31h-614v-393h448q31 0 31 -31v-90q0 -31 -31 -30h-448v-299h614q31 0 31 -31v-90q0 -31 -31 -31h-735q-31 0 -31 31zM793 1411l-121 -158q-16 -20 -45 -20h-86q-29 0 -43 20l-123 158q-16 23 10 23h88
q27 0 45 -23l66 -90l63 90q14 23 41 23h94q27 0 11 -23z" />
    <glyph glyph-name="ecircumflex.sc" 
d="M186 31v1085q0 31 31 31h735q31 0 31 -31v-90q0 -31 -31 -31h-614v-393h448q31 0 31 -31v-90q0 -31 -31 -30h-448v-299h614q31 0 31 -31v-90q0 -31 -31 -31h-735q-31 0 -31 31zM672 1411l121 -158q16 -20 -11 -20h-94q-29 0 -41 22l-63 91l-66 -93q-16 -20 -45 -20h-88
q-27 0 -10 20l123 158q14 23 43 23h86q27 0 45 -23z" />
    <glyph glyph-name="edieresis.sc" 
d="M186 31v1085q0 31 31 31h735q31 0 31 -31v-90q0 -31 -31 -31h-614v-393h448q31 0 31 -31v-90q0 -31 -31 -30h-448v-299h614q31 0 31 -31v-90q0 -31 -31 -31h-735q-31 0 -31 31zM676 1290v53q0 55 55 56h51q25 0 40.5 -15.5t15.5 -40.5v-53q0 -25 -15.5 -40t-40.5 -15h-51
q-55 0 -55 55zM330 1290v53q0 25 15 40.5t42 15.5h51q55 0 56 -56v-53q0 -55 -56 -55h-51q-27 0 -42 15t-15 40z" />
    <glyph glyph-name="edotaccent.sc" 
d="M186 31v1085q0 31 31 31h735q31 0 31 -31v-90q0 -31 -31 -31h-614v-393h448q31 0 31 -31v-90q0 -31 -31 -30h-448v-299h614q31 0 31 -31v-90q0 -31 -31 -31h-735q-31 0 -31 31zM489 1290v70q0 25 15.5 40t40.5 15h78q25 0 40 -15.5t15 -39.5v-70q0 -25 -15.5 -40
t-39.5 -15h-78q-25 0 -40.5 15t-15.5 40z" />
    <glyph glyph-name="egrave.sc" 
d="M186 31v1085q0 31 31 31h735q31 0 31 -31v-90q0 -31 -31 -31h-614v-393h448q31 0 31 -31v-90q0 -31 -31 -30h-448v-299h614q31 0 31 -31v-90q0 -31 -31 -31h-735q-31 0 -31 31zM561 1419l86 -172q10 -23 -14 -22h-68q-29 0 -47 18l-151 180q-20 20 8 21h147q29 0 39 -25z
" />
    <glyph glyph-name="emacron.sc" 
d="M186 31v1085q0 31 31 31h735q31 0 31 -31v-90q0 -31 -31 -31h-614v-393h448q31 0 31 -31v-90q0 -31 -31 -30h-448v-299h614q31 0 31 -31v-90q0 -31 -31 -31h-735q-31 0 -31 31zM391 1290v64q0 27 27 26h332q27 0 26 -26v-64q0 -27 -26 -26h-332q-27 -1 -27 26z" />
    <glyph glyph-name="eogonek.sc" 
d="M821 0h-604q-31 0 -31 31v1085q0 31 31 31h735q31 0 31 -31v-90q0 -31 -31 -31h-614v-393h448q31 0 31 -31v-90q0 -31 -31 -30h-448v-299h614q31 0 31 -31v-90q0 -31 -31 -31h-32q-59 -78 -70 -135q-6 -35 24 -35h80q29 0 29 -27v-39q0 -27 -29 -26h-110
q-41 0 -66.5 25.5t-25.5 66.5q-1 94 69 170z" />
    <glyph glyph-name="f.sc" 
d="M338 602h448q31 0 31 -31v-90q0 -31 -31 -30h-448v-420q0 -31 -27 -31h-94q-31 0 -31 31v1085q0 31 31 31h735q31 0 31 -31v-90q0 -31 -31 -31h-614v-393z" />
    <glyph glyph-name="g.sc" 
d="M598 608h354q31 0 31 -30v-355q0 -104 -70.5 -167.5t-185.5 -63.5h-285q-117 0 -186.5 63.5t-69.5 167.5v701q0 104 70 167.5t186 63.5h285q115 0 185.5 -63.5t70.5 -167.5v-101q0 -31 -31 -30h-90q-33 0 -33 30v109q0 33 -25.5 52.5t-70.5 19.5h-299q-43 0 -69.5 -19.5
t-26.5 -52.5v-717q0 -31 26.5 -50.5t69.5 -19.5h299q45 0 70.5 19.5t25.5 50.5v242h-231q-31 0 -31 30v91q0 30 31 30z" />
    <glyph glyph-name="gbreve.sc" 
d="M598 608h354q31 0 31 -30v-355q0 -104 -70.5 -167.5t-185.5 -63.5h-285q-117 0 -186.5 63.5t-69.5 167.5v701q0 104 70 167.5t186 63.5h285q115 0 185.5 -63.5t70.5 -167.5v-101q0 -31 -31 -30h-90q-33 0 -33 30v109q0 33 -25.5 52.5t-70.5 19.5h-299q-43 0 -69.5 -19.5
t-26.5 -52.5v-717q0 -31 26.5 -50.5t69.5 -19.5h299q45 0 70.5 19.5t25.5 50.5v242h-231q-31 0 -31 30v91q0 30 31 30zM780 1399l-2 -23q-2 -70 -46 -110.5t-114 -40.5h-69q-70 0 -114 41t-46 110l-2 23q0 29 27 28h53q27 0 31 -26l6 -37q4 -35 39 -35h82q35 0 39 35l6 37
q4 27 30 26h54q26 1 26 -28z" />
    <glyph glyph-name="gcircumflex.sc" 
d="M598 608h354q31 0 31 -30v-355q0 -104 -70.5 -167.5t-185.5 -63.5h-285q-117 0 -186.5 63.5t-69.5 167.5v701q0 104 70 167.5t186 63.5h285q115 0 185.5 -63.5t70.5 -167.5v-101q0 -31 -31 -30h-90q-33 0 -33 30v109q0 33 -25.5 52.5t-70.5 19.5h-299q-43 0 -69.5 -19.5
t-26.5 -52.5v-717q0 -31 26.5 -50.5t69.5 -19.5h299q45 0 70.5 19.5t25.5 50.5v242h-231q-31 0 -31 30v91q0 30 31 30zM672 1411l121 -158q16 -20 -11 -20h-94q-29 0 -41 22l-63 91l-66 -93q-16 -20 -45 -20h-88q-27 0 -10 20l123 158q14 23 43 23h86q27 0 45 -23z" />
    <glyph glyph-name="uni0123.sc" 
d="M598 608h354q31 0 31 -30v-355q0 -104 -70.5 -167.5t-185.5 -63.5h-285q-117 0 -186.5 63.5t-69.5 167.5v701q0 104 70 167.5t186 63.5h285q115 0 185.5 -63.5t70.5 -167.5v-101q0 -31 -31 -30h-90q-33 0 -33 30v109q0 33 -25.5 52.5t-70.5 19.5h-299q-43 0 -69.5 -19.5
t-26.5 -52.5v-717q0 -31 26.5 -50.5t69.5 -19.5h299q45 0 70.5 19.5t25.5 50.5v242h-231q-31 0 -31 30v91q0 30 31 30zM506 -293l24 191q6 37 41 36h60q39 0 28 -34l-47 -193q-6 -29 -34 -29h-48q-28 0 -24 29z" />
    <glyph glyph-name="gdotaccent.sc" 
d="M598 608h354q31 0 31 -30v-355q0 -104 -70.5 -167.5t-185.5 -63.5h-285q-117 0 -186.5 63.5t-69.5 167.5v701q0 104 70 167.5t186 63.5h285q115 0 185.5 -63.5t70.5 -167.5v-101q0 -31 -31 -30h-90q-33 0 -33 30v109q0 33 -25.5 52.5t-70.5 19.5h-299q-43 0 -69.5 -19.5
t-26.5 -52.5v-717q0 -31 26.5 -50.5t69.5 -19.5h299q45 0 70.5 19.5t25.5 50.5v242h-231q-31 0 -31 30v91q0 30 31 30zM489 1290v70q0 25 15.5 40t40.5 15h78q25 0 40 -15.5t15 -39.5v-70q0 -25 -15.5 -40t-39.5 -15h-78q-25 0 -40.5 15t-15.5 40z" />
    <glyph glyph-name="h.sc" 
d="M186 31v1085q0 31 31 31h90q31 0 31 -31v-514h491v514q0 31 33 31h90q31 0 31 -31v-1085q0 -31 -31 -31h-90q-33 0 -33 31v420h-491v-420q0 -31 -31 -31h-90q-31 0 -31 31z" />
    <glyph glyph-name="hbar.sc" 
d="M829 602v227h-491v-227h491zM860 1147h92q31 0 31 -31v-164h94q31 0 31 -30v-62q0 -31 -31 -31h-94v-798q0 -31 -31 -31h-92q-31 0 -31 31v420h-491v-420q0 -31 -31 -31h-90q-31 0 -31 31v798h-96q-31 0 -31 31v62q0 31 31 30h96v164q0 31 31 31h90q31 0 31 -31v-164h491
v164q0 31 31 31z" />
    <glyph glyph-name="hcircumflex.sc" 
d="M186 31v1085q0 31 31 31h90q31 0 31 -31v-514h491v514q0 31 33 31h90q31 0 31 -31v-1085q0 -31 -31 -31h-90q-33 0 -33 31v420h-491v-420q0 -31 -31 -31h-90q-31 0 -31 31zM672 1411l121 -158q16 -20 -11 -20h-94q-29 0 -41 22l-63 91l-66 -93q-16 -20 -45 -20h-88
q-27 0 -10 20l123 158q14 23 43 23h86q27 0 45 -23z" />
    <glyph glyph-name="dotlessi.sc" 
d="M190 31v84q0 31 31 30h287v856h-287q-31 0 -31 31v84q0 31 31 31h725q31 0 31 -31v-84q0 -31 -31 -31h-284v-856h284q31 0 31 -30v-84q0 -31 -31 -31h-725q-31 0 -31 31z" />
    <glyph glyph-name="iacute.sc" 
d="M190 31v84q0 31 31 30h287v856h-287q-31 0 -31 31v84q0 31 31 31h725q31 0 31 -31v-84q0 -31 -31 -31h-284v-856h284q31 0 31 -30v-84q0 -31 -31 -31h-725q-31 0 -31 31zM520 1247l86 172q10 25 39 25h148q25 0 8 -21l-152 -180q-18 -18 -47 -18h-67q-25 -1 -15 22z" />
    <glyph glyph-name="ibreve.sc" 
d="M190 31v84q0 31 31 30h287v856h-287q-31 0 -31 31v84q0 31 31 31h725q31 0 31 -31v-84q0 -31 -31 -31h-284v-856h284q31 0 31 -30v-84q0 -31 -31 -31h-725q-31 0 -31 31zM780 1399l-2 -23q-2 -70 -46 -110.5t-114 -40.5h-69q-70 0 -114 41t-46 110l-2 23q0 29 27 28h53
q27 0 31 -26l6 -37q4 -35 39 -35h82q35 0 39 35l6 37q4 27 30 26h54q26 1 26 -28z" />
    <glyph glyph-name="icircumflex.sc" 
d="M190 31v84q0 31 31 30h287v856h-287q-31 0 -31 31v84q0 31 31 31h725q31 0 31 -31v-84q0 -31 -31 -31h-284v-856h284q31 0 31 -30v-84q0 -31 -31 -31h-725q-31 0 -31 31zM672 1411l121 -158q16 -20 -11 -20h-94q-29 0 -41 22l-63 91l-66 -93q-16 -20 -45 -20h-88
q-27 0 -10 20l123 158q14 23 43 23h86q27 0 45 -23z" />
    <glyph glyph-name="idieresis.sc" 
d="M190 31v84q0 31 31 30h287v856h-287q-31 0 -31 31v84q0 31 31 31h725q31 0 31 -31v-84q0 -31 -31 -31h-284v-856h284q31 0 31 -30v-84q0 -31 -31 -31h-725q-31 0 -31 31zM330 1290v53q0 25 15 40.5t42 15.5h51q55 0 56 -56v-53q0 -55 -56 -55h-51q-27 0 -42 15t-15 40z
M676 1290v53q0 55 55 56h51q25 0 40.5 -15.5t15.5 -40.5v-53q0 -25 -15.5 -40t-40.5 -15h-51q-55 0 -55 55z" />
    <glyph glyph-name="i.sc" 
d="M190 31v84q0 31 31 30h287v856h-287q-31 0 -31 31v84q0 31 31 31h725q31 0 31 -31v-84q0 -31 -31 -31h-284v-856h284q31 0 31 -30v-84q0 -31 -31 -31h-725q-31 0 -31 31zM489 1290v70q0 25 15.5 40t40.5 15h78q25 0 40 -15.5t15 -39.5v-70q0 -25 -15.5 -40t-39.5 -15h-78
q-25 0 -40.5 15t-15.5 40z" />
    <glyph glyph-name="igrave.sc" 
d="M190 31v84q0 31 31 30h287v856h-287q-31 0 -31 31v84q0 31 31 31h725q31 0 31 -31v-84q0 -31 -31 -31h-284v-856h284q31 0 31 -30v-84q0 -31 -31 -31h-725q-31 0 -31 31zM561 1419l86 -172q10 -23 -14 -22h-68q-29 0 -47 18l-151 180q-20 20 8 21h147q29 0 39 -25z" />
    <glyph glyph-name="imacron.sc" 
d="M190 31v84q0 31 31 30h287v856h-287q-31 0 -31 31v84q0 31 31 31h725q31 0 31 -31v-84q0 -31 -31 -31h-284v-856h284q31 0 31 -30v-84q0 -31 -31 -31h-725q-31 0 -31 31zM391 1290v64q0 27 27 26h332q27 0 26 -26v-64q0 -27 -26 -26h-332q-27 -1 -27 26z" />
    <glyph glyph-name="iogonek.sc" 
d="M532 0h-311q-31 0 -31 31v84q0 31 31 30h287v856h-287q-31 0 -31 31v84q0 31 31 31h725q31 0 31 -31v-84q0 -31 -31 -31h-284v-856h284q31 0 31 -30v-84q0 -31 -31 -31h-315q-59 -78 -70 -135q-6 -35 25 -35h82q27 0 26 -27v-39q0 -27 -26 -26h-113q-41 0 -66.5 25.5
t-25.5 66.5q-1 90 69 170z" />
    <glyph glyph-name="itilde.sc" 
d="M190 31v84q0 31 31 30h287v856h-287q-31 0 -31 31v84q0 31 31 31h725q31 0 31 -31v-84q0 -31 -31 -31h-284v-856h284q31 0 31 -30v-84q0 -31 -31 -31h-725q-31 0 -31 31zM344 1260v69q0 39 50 61.5t95 22.5q41 0 76 -14l76 -35q16 -8 43 -8q66 0 123 41q8 4 10 4
q10 0 10 -17v-67q0 -41 -50 -62.5t-95 -21.5q-37 0 -76 16l-76 33q-20 10 -43 10q-61 0 -122 -43q-6 -6 -13 -6q-8 1 -8 17z" />
    <glyph glyph-name="ij.sc" 
d="M653 1147h297q31 0 31 -31v-891q0 -102 -70.5 -165.5t-185.5 -63.5h-178q-115 0 -185.5 63.5t-70.5 165.5v66q0 31 31 31h90q31 0 30 -31v-72q0 -33 27 -52.5t72 -19.5h190q45 0 71.5 19.5t26.5 52.5v782h-176q-31 0 -30 31v82q-1 33 30 33zM133 1147h279q31 0 30 -33
v-608q0 -31 -30 -31h-86q-31 0 -31 31v495h-162q-31 0 -31 31v82q0 33 31 33z" />
    <glyph glyph-name="j.sc" 
d="M469 1147h461q31 0 31 -31v-893q0 -104 -71 -167.5t-185 -63.5h-267q-115 0 -185.5 63.5t-70.5 167.5v66q0 29 31 28h90q31 0 31 -28v-74q0 -31 26.5 -50.5t71.5 -19.5h281q43 0 69.5 19.5t26.5 50.5v786h-340q-31 0 -31 31v84q0 31 31 31z" />
    <glyph glyph-name="jcircumflex.sc" 
d="M469 1147h461q31 0 31 -31v-893q0 -104 -71 -167.5t-185 -63.5h-267q-115 0 -185.5 63.5t-70.5 167.5v66q0 29 31 28h90q31 0 31 -28v-74q0 -31 26.5 -50.5t71.5 -19.5h281q43 0 69.5 19.5t26.5 50.5v786h-340q-31 0 -31 31v84q0 31 31 31zM801 1411l121 -158
q16 -20 -11 -20h-92q-27 0 -43 22l-61 91l-68 -93q-16 -20 -43 -20h-88q-27 0 -10 20l121 158q18 23 45 23h86q25 0 43 -23z" />
    <glyph glyph-name="k.sc" 
d="M543 526h-203v-495q0 -31 -31 -31h-90q-31 0 -31 31v1085q0 31 31 31h90q31 0 31 -31v-446h205l307 452q20 25 47 25h113q14 0 18 -7t-4 -18l-362 -524l397 -573q8 -10 3 -17.5t-17 -7.5h-115q-29 0 -47 25z" />
    <glyph glyph-name="uni0137.sc" 
d="M543 526h-203v-495q0 -31 -31 -31h-90q-31 0 -31 31v1085q0 31 31 31h90q31 0 31 -31v-446h205l307 452q20 25 47 25h113q14 0 18 -7t-4 -18l-362 -524l397 -573q8 -10 3 -17.5t-17 -7.5h-115q-29 0 -47 25zM504 -293l24 191q4 37 41 36h60q35 0 28 -34l-49 -193
q-6 -29 -35 -29h-45q-28 0 -24 29z" />
    <glyph glyph-name="l.sc" 
d="M227 1147h90q31 0 31 -31v-962h604q31 0 31 -31v-92q0 -31 -31 -31h-725q-31 0 -30 31v1085q-1 31 30 31z" />
    <glyph glyph-name="lacute.sc" 
d="M227 1147h90q31 0 31 -31v-962h604q31 0 31 -31v-92q0 -31 -31 -31h-725q-31 0 -30 31v1085q-1 31 30 31zM211 1247l86 172q14 25 41 25h147q25 0 9 -21l-154 -180q-16 -18 -45 -18h-70q-24 -1 -14 22z" />
    <glyph glyph-name="lcaron.sc" 
d="M227 1147h90q31 0 31 -31v-962h604q31 0 31 -31v-92q0 -31 -31 -31h-725q-31 0 -30 31v1085q-1 31 30 31zM731 911l25 191q4 37 41 37h59q35 0 29 -37l-49 -193q-6 -27 -35 -26h-45q-29 -1 -25 28z" />
    <glyph glyph-name="uni013C.sc" 
d="M227 1147h90q31 0 31 -31v-962h604q31 0 31 -31v-92q0 -31 -31 -31h-725q-31 0 -30 31v1085q-1 31 30 31zM506 -293l24 191q6 37 41 36h60q39 0 28 -34l-47 -193q-6 -29 -34 -29h-48q-28 0 -24 29z" />
    <glyph glyph-name="ldot.sc" 
d="M227 1147h90q31 0 31 -31v-962h604q31 0 31 -31v-92q0 -31 -31 -31h-725q-31 0 -30 31v1085q-1 31 30 31zM725 494v159q0 53 51 54h152q53 0 53 -54v-159q0 -23 -14.5 -38.5t-38.5 -15.5h-152q-51 1 -51 54z" />
    <glyph glyph-name="lslash.sc" 
d="M59 479l136 72v565q0 31 30 31h92q31 0 31 -31v-483l152 80q4 4 16 4q14 0 23 -15l30 -53q16 -27 -8 -43l-213 -112v-340h602q31 0 31 -31v-92q0 -31 -31 -31h-725q-31 0 -30 31v381l-74 -39q-4 -4 -15 -4q-18 0 -28 16l-31 53q-15 25 12 41z" />
    <glyph glyph-name="m.sc" 
d="M190 1147h105q31 0 41 -29l231 -530q12 -27 13 -88h6q0 55 12 88l233 530q10 29 39 29h105q33 0 33 -31v-1085q0 -31 -33 -31h-82q-31 0 -31 31v694q0 29 10 90l-6 2q-10 -66 -20 -88l-205 -448q-10 -29 -41 -29h-35q-27 0 -39 27l-207 450q-8 20 -18 86h-6
q10 -66 10 -90v-694q0 -31 -31 -31h-84q-31 0 -30 31v1085q-1 31 30 31z" />
    <glyph glyph-name="n.sc" 
d="M217 1147h62q29 0 45 -27l483 -721q6 -8 12 -23.5t11.5 -34.5t9.5 -28l4 2q-14 61 -15 91v710q0 31 31 31h92q31 0 31 -31v-1085q0 -31 -31 -31h-61q-31 0 -45 27l-486 716q-18 25 -30 82h-6q16 -53 16 -90v-704q0 -31 -31 -31h-92q-31 0 -31 31v1085q0 31 31 31z" />
    <glyph glyph-name="nacute.sc" 
d="M217 1147h62q29 0 45 -27l483 -721q6 -8 12 -23.5t11.5 -34.5t9.5 -28l4 2q-14 61 -15 91v710q0 31 31 31h92q31 0 31 -31v-1085q0 -31 -31 -31h-61q-31 0 -45 27l-486 716q-18 25 -30 82h-6q16 -53 16 -90v-704q0 -31 -31 -31h-92q-31 0 -31 31v1085q0 31 31 31z
M522 1247l86 172q10 25 39 25h148q25 0 8 -21l-154 -180q-14 -18 -45 -18h-69q-25 -1 -13 22z" />
    <glyph glyph-name="ncaron.sc" 
d="M217 1147h62q29 0 45 -27l483 -721q6 -8 12 -23.5t11.5 -34.5t9.5 -28l4 2q-14 61 -15 91v710q0 31 31 31h92q31 0 31 -31v-1085q0 -31 -31 -31h-61q-31 0 -45 27l-486 716q-18 25 -30 82h-6q16 -53 16 -90v-704q0 -31 -31 -31h-92q-31 0 -31 31v1085q0 31 31 31z
M795 1411l-121 -158q-16 -20 -45 -20h-86q-29 0 -45 20l-121 158q-16 23 10 23h88q29 0 43 -23l68 -90l61 90q18 23 43 23h94q23 0 11 -23z" />
    <glyph glyph-name="uni0146.sc" 
d="M217 1147h62q29 0 45 -27l483 -721q6 -8 12 -23.5t11.5 -34.5t9.5 -28l4 2q-14 61 -15 91v710q0 31 31 31h92q31 0 31 -31v-1085q0 -31 -31 -31h-61q-31 0 -45 27l-486 716q-18 25 -30 82h-6q16 -53 16 -90v-704q0 -31 -31 -31h-92q-31 0 -31 31v1085q0 31 31 31z
M506 -293l24 191q6 37 41 36h60q39 0 28 -34l-47 -193q-6 -29 -34 -29h-48q-28 0 -24 29z" />
    <glyph glyph-name="ntilde.sc" 
d="M217 1147h62q29 0 45 -27l483 -721q6 -8 12 -23.5t11.5 -34.5t9.5 -28l4 2q-14 61 -15 91v710q0 31 31 31h92q31 0 31 -31v-1085q0 -31 -31 -31h-61q-31 0 -45 27l-486 716q-18 25 -30 82h-6q16 -53 16 -90v-704q0 -31 -31 -31h-92q-31 0 -31 31v1085q0 31 31 31z
M344 1260v69q0 39 51 61.5t97 22.5q41 0 75 -14l74 -35q18 -8 45 -8q66 0 121 41q2 0 6 2t6 2q10 0 10 -17v-67q0 -41 -50 -62.5t-95 -21.5q-37 0 -76 16l-76 33q-20 10 -45 10q-59 0 -120 -43q-6 -6 -13 -6q-10 1 -10 17z" />
    <glyph glyph-name="eng.sc" 
d="M217 1147h62q25 0 43 -27l489 -727q10 -14 27 -88l4 2q-12 49 -13 90v719q0 31 31 31h92q31 0 31 -31v-1130q0 -104 -70.5 -168t-185.5 -64h-154q-31 0 -30 31v90q0 31 30 31h160q43 0 69.5 19.5t26.5 51.5v95l-475 696q-14 35 -22 88l-4 -2q10 -61 10 -90v-733
q0 -31 -31 -31h-90q-31 0 -31 31v1085q0 31 31 31z" />
    <glyph glyph-name="o.sc" 
d="M180 924q0 104 69.5 167.5t186.5 63.5h295q115 0 185.5 -63.5t70.5 -167.5v-701q0 -104 -70.5 -167.5t-185.5 -63.5h-295q-117 0 -186.5 63.5t-69.5 167.5v701zM332 932v-717q0 -31 26.5 -50.5t69.5 -19.5h311q43 0 70 19.5t27 50.5v717q0 33 -27 52.5t-70 19.5h-311
q-43 0 -69.5 -19.5t-26.5 -52.5z" />
    </font>
</defs>
</svg>
