<?xml version="1.0" standalone="no"?>
<!DOCTYPE svg PUBLIC "-//W3C//DTD SVG 1.1//EN" "http://www.w3.org/Graphics/SVG/1.1/DTD/svg11.dtd" >
<svg xmlns="http://www.w3.org/2000/svg" xmlns:xlink="http://www.w3.org/1999/xlink" version="1.1">
<metadata>
Created by FontForge 20170731 at Mon May 14 08:42:19 2018
 By Aleksey,,,
Copyright (c) 2018 by Oleh Lishchuk. All rights reserved.
</metadata>
<defs>
<font id="VinMonoPro-ExtraLightItalic" horiz-adv-x="1167" >
  <font-face 
    font-family="Vin Mono Pro ExtraLight Italic"
    font-weight="300"
    font-style="italic"
    font-stretch="normal"
    units-per-em="2048"
    panose-1="0 0 0 0 0 0 0 0 0 0"
    ascent="1638"
    descent="-410"
    x-height="1126"
    cap-height="1434"
    bbox="-110 -358 1330 1862"
    underline-thickness="0"
    underline-position="0"
    unicode-range="U+000D-FB02"
  />
<missing-glyph 
 />
    <glyph glyph-name=".notdef" 
 />
    <glyph glyph-name="glyph1" horiz-adv-x="0" 
 />
    <glyph glyph-name="glyph2" horiz-adv-x="681" 
 />
    <glyph glyph-name="glyph3" horiz-adv-x="0" 
 />
    <glyph glyph-name="glyph3" horiz-adv-x="0" 
 />
    <glyph glyph-name="uni000D" unicode="&#xd;" horiz-adv-x="512" 
 />
    <glyph glyph-name="space" unicode=" " 
 />
    <glyph glyph-name="exclam" unicode="!" 
d="M520 401l160 1010q4 23 27 23h61q23 0 18 -23l-196 -1010q-4 -23 -27 -22h-24q-23 -1 -19 22zM393 27l25 139q4 27 31 27h135q12 0 19 -8.5t3 -18.5l-24 -139q-4 -27 -31 -27h-135q-29 0 -23 27z" />
    <glyph glyph-name="quotedbl" unicode="&#x22;" 
d="M504 1053l57 366q0 14 17 15h71q14 0 10 -15l-69 -366q-2 -14 -19 -15h-55q-14 1 -12 15zM752 1053l57 366q4 14 16 15h72q12 0 12 -15l-71 -366q-2 -14 -19 -15h-55q-14 1 -12 15z" />
    <glyph glyph-name="numbersign" unicode="#" 
d="M369 473h346l86 488h-346zM33 422v33q0 18 16 18h250l86 488h-233q-16 0 -17 18v35q0 16 17 16h245l70 387q4 16 18 17h35q18 0 15 -17l-68 -387h346l68 387q4 16 20 17h35q18 0 14 -17l-69 -387h237q16 0 17 -16v-35q0 -18 -17 -18h-248l-88 -488h234q16 0 16 -18v-33
q0 -18 -16 -19h-246l-68 -387q-4 -16 -20 -16h-35q-18 0 -14 16l69 387h-346l-67 -387q-4 -16 -21 -16h-35q-18 0 -14 16l68 387h-238q-16 1 -16 19z" />
    <glyph glyph-name="dollar" unicode="$" 
d="M418 -174l28 166h-143q-100 0 -151.5 61.5t-34.5 163.5l26 152q4 18 21 18h45q16 0 12 -16l-26 -154q-10 -66 22.5 -105.5t97.5 -39.5h361q66 0 113 40t57 105l33 182q14 80 -48 123l-489 348q-39 27 -57.5 76t-8.5 101l29 167q18 100 92 163t174 63h131l29 168
q4 16 21 16h39q18 0 14 -16l-31 -168h131q102 0 153.5 -62.5t33.5 -163.5l-27 -151q-4 -16 -21 -16h-43q-18 0 -14 16l27 154q12 66 -20.5 105.5t-98.5 39.5h-340q-66 0 -113 -40t-57 -105l-29 -160q-14 -82 45 -123l492 -350q39 -27 56.5 -76t8.5 -100l-34 -191
q-16 -100 -89 -162.5t-176 -62.5h-139l-31 -166q-4 -18 -20 -19h-39q-16 1 -12 19z" />
    <glyph glyph-name="percent" unicode="%" 
d="M39 444l1114 576q8 4 10 4q4 0 8 -8l17 -33q4 -14 -10 -20l-1112 -576q-8 -4 -11 -4q-6 0 -10 8l-14 33q-6 12 8 20zM240 1225l-43 -248q-12 -66 21.5 -107t98.5 -41h29q66 0 114 41t60 107l43 248q12 66 -21.5 106.5t-99.5 40.5h-28q-68 0 -116 -40.5t-58 -106.5z
M129 981l41 240q18 100 89 159.5t169 59.5h23q98 0 148 -60.5t32 -158.5l-41 -240q-18 -100 -89 -159.5t-169 -59.5h-23q-100 0 -149 59.5t-31 159.5zM590 213l43 240q16 100 87 160.5t171 60.5h22q98 0 147.5 -60.5t33.5 -160.5l-43 -240q-16 -98 -88 -158.5t-170 -60.5
h-23q-98 0 -147 59.5t-33 159.5zM700 457l-43 -248q-12 -66 22 -107t101 -41h29q66 0 114 41t58 107l45 248q10 66 -22.5 106.5t-98.5 40.5h-31q-66 0 -114 -40.5t-60 -106.5z" />
    <glyph glyph-name="ampersand" unicode="&#x26;" 
d="M317 76h289q66 0 113 40t57 105l92 512h-434q-66 0 -113 -40t-57 -105l-65 -367q-12 -66 20 -105.5t98 -39.5zM567 1436h258q100 0 151.5 -61.5t35.5 -162.5l-25 -137q-4 -18 -20 -18h-43q-18 0 -15 18l25 137q12 66 -20.5 106t-98.5 40h-262q-66 0 -113 -40t-59 -106
l-45 -258q-12 -66 20.5 -105.5t98.5 -39.5h647q14 0 14 -18l-8 -39q-4 -18 -21 -19h-141l-90 -512q-18 -100 -92 -161.5t-174 -61.5h-283q-100 0 -151.5 61.5t-34.5 161.5l61 352q27 145 154 199q-100 59 -76 197l43 243q18 100 91 162t173 62z" />
    <glyph glyph-name="quotesingle" unicode="'" 
d="M631 1053l55 366q0 14 16 15h70q16 0 12 -15l-67 -366q-2 -14 -19 -15h-55q-14 1 -12 15z" />
    <glyph glyph-name="parenleft" unicode="(" 
d="M899 1528l25 -31q10 -12 -4 -22l-175 -142q-100 -80 -120 -192l-185 -1051q-20 -117 52 -194l124 -142q8 -8 -2 -22l-39 -31q-4 -4 -10 -4q-8 0 -10 4l-129 145q-90 100 -64 240l187 1057q10 63 51 128.5t96 110.5l183 146q2 4 10 4q2 0 10 -4z" />
    <glyph glyph-name="parenright" unicode=")" 
d="M571 1497l39 31q4 4 10.5 4t10.5 -4l129 -146q90 -100 63 -239l-186 -1057q-10 -63 -51 -129t-97 -111l-182 -145q-2 -4 -10 -4q-2 0 -10 4l-25 31q-10 12 4 22l174 142q100 80 121 194l184 1051q20 115 -51 192l-125 142q-8 8 2 22z" />
    <glyph glyph-name="asterisk" unicode="*" 
d="M725 1196l223 78q2 2 6 2q10 0 11 -10l6 -39q0 -14 -13 -19l-225 -59l107 -174q6 -10 -6 -21l-37 -24q-4 -2 -9 -2q-6 0 -10 6l-92 184l-156 -184q-6 -8 -12 -8q-4 0 -8 4l-29 24q-10 8 2 21l166 172l-203 59q-14 4 -6 19l21 39q6 10 14 10q4 0 6 -2l195 -76l31 223
q0 14 16 15h39q16 0 12 -15z" />
    <glyph glyph-name="plus" unicode="+" 
d="M547 682h-244q-18 0 -18 18v39q0 16 18 17h244v243q0 18 18 19h39q16 0 17 -19v-243h243q18 0 19 -17v-39q0 -18 -19 -18h-243v-244q0 -16 -17 -16h-39q-18 0 -18 16v244z" />
    <glyph glyph-name="comma" unicode="," 
d="M360 -258h-59q-25 0 -16 22l143 394q10 27 35 26h110q27 0 17 -26l-195 -394q-10 -22 -35 -22z" />
    <glyph glyph-name="hyphen" unicode="-" 
d="M358 606v39q0 14 15 14h422q14 0 14 -14v-39q0 -16 -14 -16h-422q-15 0 -15 16z" />
    <glyph glyph-name="period" unicode="." 
d="M395 27l25 139q4 27 31 27h135q27 0 22 -27l-24 -139q-4 -27 -31 -27h-137q-27 0 -21 27z" />
    <glyph glyph-name="slash" unicode="/" 
d="M74 -274l975 1800q4 10 22 10l33 -14q14 -4 6 -19l-975 -1800q-8 -10 -20 -10l-35 14q-12 7 -6 19z" />
    <glyph glyph-name="zero" unicode="0" 
d="M215 254q-14 -82 27 -132t125 -50h262q82 0 141 50t74 132l164 926q14 84 -28 133t-124 49h-262q-84 0 -143.5 -50t-73.5 -132zM137 260l162 914q23 121 109 193.5t204 72.5h252q121 0 180.5 -74t38.5 -192l-159 -914q-23 -121 -109 -193.5t-205 -72.5h-254
q-121 0 -180 73.5t-39 192.5zM508 653l22 127q4 31 35 31h125q29 0 25 -31l-23 -127q-6 -31 -35 -30h-125q-30 -1 -24 30z" />
    <glyph glyph-name="one" unicode="1" 
d="M131 16l8 43q4 16 21 17h362l223 1267l-401 -178q-2 0 -4 -2h-4q-8 0 -6 13l8 49q4 16 20 22l408 180q14 6 35 7h20q18 0 15 -17l-236 -1341h365q16 0 12 -17l-6 -43q-4 -16 -21 -16h-805q-18 0 -14 16z" />
    <glyph glyph-name="two" unicode="2" 
d="M94 16l39 220q16 92 103 147l647 432q53 37 63 96l47 269q14 82 -26.5 132t-124.5 50h-258q-84 0 -143.5 -50t-73.5 -132l-15 -84q-4 -16 -20 -17h-43q-18 0 -15 17l15 78q23 121 108.5 193.5t204.5 72.5h250q121 0 180.5 -74t38.5 -192l-47 -271q-16 -94 -102 -149
l-646 -430q-55 -39 -65 -97l-29 -149h705q18 0 14 -17l-8 -45q-4 -16 -21 -16h-766q-16 0 -12 16z" />
    <glyph glyph-name="three" unicode="3" 
d="M358 1083h-43q-18 0 -14 17l12 69q23 121 109 194t205 73h219q121 0 180 -74t39 -193l-33 -190q-29 -160 -170 -225q137 -59 107 -234l-45 -260q-23 -121 -109 -193.5t-205 -72.5h-252q-121 0 -181 72.5t-40 193.5l13 70q4 16 20 16h43q18 0 14 -16l-12 -76
q-14 -82 27 -132t125 -50h260q84 0 143 50t74 132l49 272q14 84 -28 134.5t-124 50.5h-194q-14 0 -15 18l9 43q4 16 20 16h174q84 0 143.5 51.5t73.5 133.5l35 201q14 82 -26.5 133t-124.5 51h-228q-84 0 -142 -50.5t-73 -133.5l-14 -74q-5 -17 -21 -17z" />
    <glyph glyph-name="four" unicode="4" 
d="M684 16l57 324h-653q-18 0 -14 16l6 29q4 23 12 33l660 999q10 16 28 17h51q16 0 7 -17l-662 -999h578l80 448q4 16 20 17h43q18 0 14 -17l-80 -448h164q18 0 15 -19l-9 -43q-4 -16 -20 -16h-162l-57 -324q-4 -16 -21 -16h-43q-18 0 -14 16z" />
    <glyph glyph-name="five" unicode="5" 
d="M137 260l13 72q4 14 18 14h47q16 0 12 -14l-12 -78q-14 -82 27 -132t125 -50h260q84 0 143 50t74 132l61 342q14 84 -27.5 134t-125.5 50h-461q-18 0 -15 19l109 618q4 16 21 17h661q16 0 12 -15l-8 -49q-4 -14 -18 -14h-600l-88 -498h395q121 0 182.5 -72.5t38.5 -193.5
l-57 -332q-23 -121 -109 -193.5t-205 -72.5h-254q-121 0 -180 73.5t-39 192.5z" />
    <glyph glyph-name="six" unicode="6" 
d="M274 600l-59 -340q-14 -82 27 -133t125 -51h262q84 0 142 51t73 133l61 340q14 84 -27.5 134t-123.5 50h-262q-82 0 -142 -50t-76 -134zM612 1446h238q121 0 180.5 -74t38.5 -192l-12 -66q-4 -16 -19 -16h-45q-18 0 -14 16l12 70q14 82 -26.5 133t-124.5 51h-246
q-82 0 -141.5 -50t-73.5 -134l-72 -406q80 84 203 84h252q121 0 180 -73.5t39 -192.5l-57 -332q-23 -121 -109 -193.5t-205 -72.5h-252q-119 0 -180 72.5t-41 193.5l162 916q23 121 108.5 193.5t204.5 72.5z" />
    <glyph glyph-name="seven" unicode="7" 
d="M289 1434h850q18 0 14 -17l-6 -37q-2 -12 -14 -32l-525 -781q-12 -18 -14 -32l-90 -519q-4 -16 -21 -16h-43q-18 0 -14 16l94 535q4 20 12 35l521 772h-777q-18 0 -14 18l6 41q5 17 21 17z" />
    <glyph glyph-name="eight" unicode="8" 
d="M266 549l-51 -297q-14 -82 27 -133t125 -51h260q82 0 141 50t76 134l51 297q14 82 -27 133t-125 51h-260q-82 0 -141.5 -50t-75.5 -134zM397 1176l-30 -181q-14 -82 26.5 -133t124.5 -51h219q82 0 141.5 50t75.5 134l31 181q14 82 -26.5 133t-124.5 51h-220
q-82 0 -141.5 -50t-75.5 -134zM289 1001l30 168q23 121 109 194t205 73h211q119 0 179 -73t40 -194l-31 -168q-29 -160 -166 -225q135 -63 107 -235l-51 -281q-20 -119 -106.5 -192.5t-207.5 -73.5h-250q-121 0 -181 72.5t-40 193.5l51 281q29 172 189 235q-113 67 -88 225z
" />
    <glyph glyph-name="nine" unicode="9" 
d="M856 1362h-262q-84 0 -143.5 -50t-73.5 -132l-58 -332q-14 -82 27 -132t125 -50h262q82 0 141.5 50t73.5 132l60 332q14 84 -28 133t-124 49zM242 854l57 320q23 121 109 193.5t204 72.5h252q121 0 180.5 -74t38.5 -192l-159 -914q-23 -121 -109 -193.5t-205 -72.5h-250
q-121 0 -180 73.5t-39 192.5l11 64q4 18 20 18h43q18 0 14 -18l-12 -70q-14 -82 28 -132t124 -50h258q84 0 143 50t74 132l74 416q-82 -82 -203 -82h-254q-121 0 -180 73.5t-39 192.5z" />
    <glyph glyph-name="colon" unicode=":" 
d="M395 27l25 139q4 27 31 27h135q27 0 22 -27l-24 -139q-4 -27 -31 -27h-137q-27 0 -21 27zM559 961l25 139q4 27 30 26h138q27 0 20 -26l-24 -139q-4 -25 -31 -25h-135q-27 0 -23 25z" />
    <glyph glyph-name="semicolon" unicode=";" 
d="M559 961l25 139q4 27 30 26h138q27 0 20 -26l-24 -139q-4 -25 -31 -25h-135q-27 0 -23 25zM360 -258h-59q-25 0 -16 22l147 394q10 27 35 26h111q29 0 14 -26l-197 -394q-10 -22 -35 -22z" />
    <glyph glyph-name="less" unicode="&#x3c;" 
d="M872 989l-471 -272l471 -273q14 -6 7 -22l-19 -35q-8 -8 -14 -8q-2 0 -10 4l-537 309q-14 10 -14 24.5t14 24.5l537 312q8 4 10 4q8 0 14 -10l19 -35q5 -17 -7 -23z" />
    <glyph glyph-name="equal" unicode="=" 
d="M285 551v39q0 18 18 18h561q18 0 19 -18v-39q0 -16 -19 -16h-561q-18 0 -18 16zM285 848v39q0 16 18 16h561q18 0 19 -16v-39q0 -16 -19 -17h-561q-18 1 -18 17z" />
    <glyph glyph-name="greater" unicode="&#x3e;" 
d="M768 717l-471 272q-16 6 -6 23l18 35q6 10 15 10q4 0 8 -4l536 -312q14 -8 14.5 -24.5t-14.5 -24.5l-536 -309q-4 -4 -8 -4q-6 0 -15 8l-18 35q-12 16 6 22z" />
    <glyph glyph-name="question" unicode="?" 
d="M1065 1214l-37 -200q-20 -115 -119 -189l-233 -176q-68 -51 -86 -133l-21 -121q-4 -16 -20 -16h-39q-18 0 -14 18l20 127q20 115 119 187l233 174q68 49 84 133l35 199q10 66 -22.5 105.5t-98.5 39.5h-293q-63 0 -107 -40t-54 -105l-29 -154q-4 -16 -18 -16h-46
q-18 0 -14 16l27 151q18 102 87.5 164t170.5 62h289q100 0 151 -62t35 -164zM379 27l24 139q8 27 33 27h135q27 0 23 -27l-25 -139q-6 -27 -30 -27h-138q-26 0 -22 27z" />
    <glyph glyph-name="at" unicode="@" 
d="M565 276l86 510q-152 135 -266 136q-59 0 -105.5 -40t-56.5 -106l-82 -487q-12 -66 22 -106t93 -40q108 0 309 133zM666 872l16 95q4 16 23 16h40q16 0 13 -16l-125 -729q-8 -51 18.5 -83t77.5 -32h66q51 0 88 31.5t47 83.5l104 618q29 154 -49 249t-233 95h-514
q-18 0 -15 17l8 32q2 18 23 19h516q184 0 276.5 -113t59.5 -299l-105 -618q-16 -84 -77.5 -135.5t-145.5 -51.5h-69q-74 0 -115 40t-39 108q-203 -129 -332 -129q-84 0 -130 61.5t-27 157.5l81 487q18 96 87 157.5t153 61.5q117 0 279 -123z" />
    <glyph glyph-name="A" unicode="A" 
d="M270 377h561l-118 880q-2 10 4 43h-8q-6 -39 -9 -43zM844 299h-611l-139 -283q-6 -16 -24 -16h-45q-16 0 -11 16l680 1401q10 16 27 17h33q16 0 20 -17l187 -1401q4 -16 -15 -16h-45q-16 0 -20 16z" />
    <glyph glyph-name="B" unicode="B" 
d="M850 223l59 340q12 66 -20.5 106t-97.5 40h-496l-113 -631h496q66 0 113 39.5t59 105.5zM860 1356h-452l-101 -572h453q66 0 113 40t57 106l51 280q10 66 -22.5 106t-98.5 40zM985 549l-57 -326q-18 -100 -91 -161.5t-173 -61.5h-555q-18 0 -15 16l248 1401q4 16 20 17
h510q100 0 151.5 -61.5t33.5 -162.5l-45 -266q-25 -127 -129 -188q61 -23 88.5 -78t13.5 -129z" />
    <glyph glyph-name="C" unicode="C" 
d="M885 387h43q18 0 14 -16l-27 -152q-18 -102 -90.5 -163.5t-173.5 -61.5h-336q-102 0 -152 62.5t-32 162.5l174 995q18 100 92 163t174 63h334q102 0 153.5 -62.5t33.5 -163.5l-27 -151q-4 -16 -21 -16h-43q-18 0 -14 16l27 154q12 66 -20.5 105.5t-98.5 39.5h-340
q-66 0 -113 -40t-57 -105l-178 -1000q-10 -66 22.5 -105.5t98.5 -39.5h338q66 0 112.5 40t59.5 105l26 154q5 16 21 16z" />
    <glyph glyph-name="D" unicode="D" 
d="M408 1356l-226 -1278h486q66 0 112.5 40t57.5 105l174 987q12 66 -21 106t-98 40h-485zM94 16l248 1401q4 16 20 17h543q102 0 152.5 -61.5t32.5 -164.5l-172 -983q-18 -100 -91 -162.5t-176 -62.5h-542q-19 0 -15 16z" />
    <glyph glyph-name="E" unicode="E" 
d="M94 16l248 1401q4 16 20 17h750q18 0 14 -17l-8 -45q0 -16 -18 -16h-692l-113 -649h508q18 0 14 -17l-8 -43q-4 -18 -21 -18h-507l-99 -551h692q16 0 13 -17l-6 -45q-4 -16 -21 -16h-751q-19 0 -15 16z" />
    <glyph glyph-name="F" unicode="F" 
d="M1100 1356h-692l-113 -649h508q18 0 14 -17l-8 -43q-4 -18 -21 -18h-507l-109 -613q-4 -16 -20 -16h-43q-18 0 -15 16l248 1401q4 16 20 17h750q18 0 14 -17l-8 -45q0 -16 -18 -16z" />
    <glyph glyph-name="G" unicode="G" 
d="M643 649l8 43q0 16 19 17h315q18 0 14 -17l-84 -473q-18 -102 -90.5 -163.5t-173.5 -61.5h-336q-102 0 -152 62.5t-32 162.5l174 995q18 100 92 163t174 63h334q102 0 153.5 -62.5t33.5 -163.5l-27 -151q-4 -16 -21 -16h-43q-18 0 -14 16l27 154q12 66 -20.5 105.5
t-98.5 39.5h-340q-66 0 -113 -40t-57 -105l-178 -1000q-10 -66 22.5 -105.5t98.5 -39.5h338q66 0 112.5 40t59.5 105l73 414h-254q-18 0 -14 18z" />
    <glyph glyph-name="H" unicode="H" 
d="M94 16l248 1401q4 16 20 17h44q18 0 14 -17l-125 -710h629l125 710q4 16 20 17h43q18 0 14 -17l-245 -1401q-4 -16 -21 -16h-43q-18 0 -14 16l106 613h-628l-109 -613q-4 -16 -20 -16h-43q-19 0 -15 16z" />
    <glyph glyph-name="I" unicode="I" 
d="M88 16l8 43q4 16 21 17h342l225 1282h-342q-14 0 -14 18l8 41q4 16 20 17h762q18 0 15 -17l-9 -41q0 -18 -18 -18h-344l-225 -1282h342q18 0 14 -17l-8 -43q0 -16 -19 -16h-764q-14 0 -14 16z" />
    <glyph glyph-name="J" unicode="J" 
d="M631 1376l6 41q4 16 20 17h449q18 0 14 -17l-211 -1198q-18 -102 -91 -163.5t-175 -61.5h-334q-102 0 -153.5 61.5t-32.5 163.5l16 94q4 16 21 17h43q18 0 14 -17l-16 -96q-12 -66 20.5 -105.5t97.5 -39.5h340q66 0 113 40t59 105l201 1141h-387q-18 0 -14 18z" />
    <glyph glyph-name="K" unicode="K" 
d="M578 694h-285l-121 -678q-4 -16 -20 -16h-43q-18 0 -15 16l248 1401q4 16 20 17h44q18 0 14 -17l-115 -647h287l504 649q10 14 26 15h58q16 0 6 -15l-537 -688l320 -717q6 -14 -11 -14h-59q-14 0 -22 14z" />
    <glyph glyph-name="L" unicode="L" 
d="M209 78h694q18 0 15 -17l-9 -45q-4 -16 -20 -16h-754q-18 0 -14 16l246 1401q4 16 20 17h45q16 0 12 -17z" />
    <glyph glyph-name="M" unicode="M" 
d="M344 1208l-211 -1192q-4 -16 -18 -16h-43q-14 0 -15 16l248 1401q4 16 21 17h47q16 0 20 -17l176 -899q2 -16 -6 -43h8q2 4 4.5 19.5t6.5 23.5l493 899q10 16 27 17h47q18 0 14 -17l-248 -1401q0 -16 -18 -16h-41q-18 0 -14 16l209 1192q2 14 16 43l-8 2l-15 -43
l-456 -833q-8 -16 -25 -17h-28q-14 0 -19 17l-166 831q-2 6 0 22.5t2 20.5l-8 -2v-41z" />
    <glyph glyph-name="N" unicode="N" 
d="M387 1231l-215 -1215q-4 -16 -18 -16h-45q-18 0 -15 16l248 1401q4 16 20 17h33q18 0 23 -15l405 -1220q4 -12 4 -41l9 2q0 4 -2.5 19.5t0.5 21.5l215 1216q4 16 20 17h43q18 0 14 -17l-245 -1401q-4 -16 -21 -16h-35q-14 0 -22 14l-406 1219q-4 12 -4 41h-8
q0 -4 2 -20.5t0 -22.5z" />
    <glyph glyph-name="O" unicode="O" 
d="M369 1217l-176 -1000q-12 -66 20.5 -105.5t97.5 -39.5h371q66 0 113 40t59 105l176 1000q10 66 -22.5 105.5t-98.5 39.5h-370q-66 0 -113 -39.5t-57 -105.5zM115 219l176 995q16 100 89 163t175 63h367q100 0 151 -61.5t35 -164.5l-176 -995q-18 -102 -92 -163.5
t-174 -61.5h-365q-102 0 -153 61.5t-33 163.5z" />
    <glyph glyph-name="P" unicode="P" 
d="M872 1356h-464l-123 -699h465q66 0 112.5 41t57.5 105l71 407q12 66 -20.5 106t-98.5 40zM733 580h-461l-100 -564q-4 -16 -20 -16h-43q-18 0 -15 16l248 1401q4 16 18 17h523q102 0 153 -62.5t33 -163.5l-72 -403q-16 -100 -89 -162.5t-175 -62.5z" />
    <glyph glyph-name="Q" unicode="Q" 
d="M369 1217l-176 -998q-12 -66 20.5 -105.5t97.5 -39.5h371q66 0 113 40t59 105l176 998q10 66 -22.5 105.5t-98.5 39.5h-370q-66 0 -113 -39.5t-57 -105.5zM700 -272h-65q-106 0 -170 47t-47 139l14 82h-131q-102 0 -153.5 62.5t-32.5 162.5l176 993q16 100 89 163t175 63
h367q100 0 151 -61.5t35 -164.5l-176 -993q-18 -102 -91 -163.5t-175 -61.5h-158l-14 -84q-12 -59 33.5 -85t121.5 -26h66q14 0 14 -18l-8 -39q-5 -16 -21 -16z" />
    <glyph glyph-name="R" unicode="R" 
d="M903 1356h-495l-117 -666h495q66 0 113 40t57 106l68 374q10 66 -22.5 106t-98.5 40zM848 16l-152 596h-420l-104 -596q-4 -16 -20 -16h-43q-18 0 -15 16l248 1401q4 16 20 17h553q100 0 151.5 -61.5t35.5 -164.5l-66 -370q-18 -100 -87.5 -161t-168.5 -65l148 -596
q4 -16 -15 -16h-47q-14 0 -18 16z" />
    <glyph glyph-name="S" unicode="S" 
d="M276 1047l29 167q18 100 92 163t174 63h334q102 0 153.5 -62.5t33.5 -163.5l-27 -151q-4 -16 -21 -16h-43q-18 0 -14 16l27 154q12 66 -20.5 105.5t-98.5 39.5h-340q-66 0 -113 -40t-59 -105l-27 -160q-14 -82 45 -123l492 -350q39 -27 56.5 -76t8.5 -100l-34 -191
q-16 -100 -89 -162.5t-176 -62.5h-356q-100 0 -151.5 61.5t-34.5 163.5l26 152q4 18 21 18h45q16 0 12 -16l-26 -154q-10 -66 22.5 -105.5t97.5 -39.5h361q66 0 113 40t57 105l33 182q14 80 -48 123l-489 348q-39 27 -57.5 76.5t-8.5 100.5z" />
    <glyph glyph-name="T" unicode="T" 
d="M1214 1417l-6 -45q-4 -16 -20 -16h-426l-236 -1340q-4 -16 -20 -16h-43q-18 0 -14 16l235 1340h-424q-18 0 -14 16l6 45q4 16 20 17h930q16 -1 12 -17z" />
    <glyph glyph-name="U" unicode="U" 
d="M1071 1434h43q18 0 14 -17l-210 -1198q-16 -100 -89 -162.5t-176 -62.5h-340q-100 0 -151 61.5t-35 163.5l213 1198q0 16 18 17h45q14 0 15 -17l-213 -1200q-10 -66 22.5 -105.5t98.5 -39.5h342q66 0 112.5 40t59.5 105l211 1200q4 17 20 17z" />
    <glyph glyph-name="V" unicode="V" 
d="M1153 1434h45q16 0 10 -17l-682 -1401q-6 -16 -24 -16h-35q-18 0 -18 16l-187 1401q-4 16 14 17h48q14 0 18 -17l168 -1241q0 -18 -4 -43h4q4 29 12 43l606 1241q7 17 25 17z" />
    <glyph glyph-name="W" unicode="W" 
d="M770 1417l-37 -1200q0 -6 -4 -21.5t-4 -21.5h6q6 37 8 43l418 1200q6 16 23 17h45q16 0 10 -17l-496 -1401q-6 -16 -24 -16h-35q-16 0 -16 16l30 1182q0 8 4 24.5t4 18.5h-8q0 -2 -2 -18.5t-4 -24.5l-385 -1182q-4 -16 -22 -16h-35q-14 0 -19 16l-2 1401q0 16 17 17h45
q16 0 16 -17l-6 -1200q0 -6 -6 -43h4q6 37 8 43l387 1200q6 16 23 17h41q16 -1 16 -17z" />
    <glyph glyph-name="X" unicode="X" 
d="M1120 1434h56q16 0 6 -15l-518 -669l297 -736q6 -14 -13 -14h-53q-14 0 -23 14l-262 639q-4 10 0 41h-8q-4 -27 -14 -41l-488 -639q-10 -14 -28 -14h-54q-16 0 -6 14l557 736l-282 669q-8 14 10 15h55q16 0 23 -15l246 -577q4 -8 0 -41h8q4 29 14 41l449 577q14 15 28 15
z" />
    <glyph glyph-name="Y" unicode="Y" 
d="M1194 1417l-567 -831l-101 -570q0 -16 -18 -16h-45q-14 0 -14 16l100 570l-273 831q-4 16 13 17h51q16 0 20 -17l240 -717q4 -10 0 -41h4q4 29 14 41l492 717q10 16 27 17h51q16 -1 6 -17z" />
    <glyph glyph-name="Z" unicode="Z" 
d="M897 61l-8 -45q-4 -16 -21 -16h-770q-18 0 -14 16l8 45q4 20 14 31l928 1264h-692q-14 0 -14 16l8 45q4 16 20 17h764q18 0 15 -17l-9 -45q-4 -16 -14 -31l-928 -1263h699q14 -1 14 -17z" />
    <glyph glyph-name="bracketleft" unicode="[" 
d="M688 -307h-377q-16 0 -12 14l319 1815q4 14 19 14h375q16 0 12 -14l-6 -43q-4 -16 -19 -17h-313l-299 -1695h313q16 0 13 -17l-8 -43q-5 -14 -17 -14z" />
    <glyph glyph-name="backslash" unicode="\" 
d="M457 1526l340 -1800q2 -10 -13 -19l-41 -14q-14 0 -16 10l-340 1800q-4 14 12 19l39 14h6q11 0 13 -10z" />
    <glyph glyph-name="bracketright" unicode="]" 
d="M549 -307h-377q-12 0 -12 14l8 43q4 16 18 17h312l301 1695h-314q-16 0 -12 17l8 43q0 14 17 14h376q12 0 13 -14l-322 -1815q0 -14 -16 -14z" />
    <glyph glyph-name="asciicircum" unicode="^" 
d="M889 963l-168 376l-305 -378q-6 -6 -15 -7q-6 0 -10 2l-26 25q-6 14 4 25l336 415q12 12 28 13h8q16 0 25 -13l190 -413q6 -12 -8 -25l-35 -25q-4 -2 -12 -2q-6 1 -12 7z" />
    <glyph glyph-name="underscore" unicode="_" 
d="M0 -307v78h1167v-78h-1167z" />
    <glyph glyph-name="grave" unicode="`" 
d="M768 1604l63 -162q4 -10 -8 -10h-32q-16 0 -23 10l-90 162q-10 10 6 10h68q14 0 16 -10z" />
    <glyph glyph-name="a" unicode="a" 
d="M836 199l129 729q-231 137 -404 137q-94 0 -158.5 -50t-80.5 -134l-111 -635q-16 -84 32 -134.5t142 -50.5q98 0 231.5 47.5t219.5 90.5zM860 0h-41q-18 0 -14 16l16 99q-281 -127 -450 -127q-127 0 -191.5 70.5t-44.5 187.5l113 635q20 117 109 187.5t216 70.5
q170 0 406 -127l18 98q4 16 21 16h41q18 0 14 -16l-192 -1094q-5 -16 -21 -16z" />
    <glyph glyph-name="b" unicode="b" 
d="M332 928l-129 -729q231 -137 401 -138q94 0 159.5 50.5t82.5 134.5l110 635q16 84 -31.5 134t-142.5 50q-98 0 -231 -47t-219 -90zM362 1434h41q14 0 15 -17l-72 -405q281 127 451 127q127 0 191.5 -71t43.5 -187l-112 -635q-20 -117 -109.5 -187.5t-216.5 -70.5
q-170 0 -406 127l-18 -99q-4 -16 -20 -16h-41q-18 0 -15 16l248 1401q4 17 20 17z" />
    <glyph glyph-name="c" unicode="c" 
d="M322 66h348q66 0 111.5 39.5t56.5 103.5l14 84q4 16 20 16h41q18 0 15 -16l-15 -82q-16 -98 -86.5 -157.5t-169.5 -59.5h-348q-98 0 -147 59.5t-33 157.5l123 704q18 98 89 158t169 60h348q98 0 147.5 -59.5t32.5 -158.5l-14 -81q-4 -16 -20 -17h-41q-18 0 -15 17l15 84
q12 63 -20 103t-97 40h-348q-63 0 -110.5 -39t-59.5 -104l-123 -709q-12 -63 19.5 -103t97.5 -40z" />
    <glyph glyph-name="d" unicode="d" 
d="M836 199l129 729q-231 137 -402 137q-94 0 -159.5 -50t-81.5 -134l-111 -635q-16 -84 32 -134.5t142 -50.5q98 0 231.5 47.5t219.5 90.5zM1071 1434h41q18 0 14 -17l-245 -1401q-4 -16 -21 -16h-41q-18 0 -14 16l16 99q-281 -127 -450 -127q-127 0 -191.5 70.5
t-44.5 187.5l113 635q20 117 109 187.5t216 70.5q170 0 406 -127l72 405q4 17 20 17z" />
    <glyph glyph-name="e" unicode="e" 
d="M846 1061h-348q-66 0 -112 -39t-56 -102l-58 -328h633l60 328q10 63 -21.5 102t-97.5 39zM952 520h-694l-53 -307q-12 -66 19.5 -106.5t97.5 -40.5h348q66 0 111.5 39.5t56.5 103.5l14 74q4 18 20 18h41q18 0 15 -18l-15 -72q-16 -98 -86.5 -157.5t-169.5 -59.5h-348
q-98 0 -147 59.5t-33 157.5l125 704q16 98 87 158t169 60h348q98 0 147.5 -58.5t32.5 -156.5l-67 -381q-1 -17 -19 -17z" />
    <glyph glyph-name="f" unicode="f" 
d="M285 1071l8 39q0 16 18 16h248l16 88q16 98 87 159t172 61h274q18 0 14 -17l-6 -39q-4 -18 -20 -18h-277q-66 0 -111.5 -40t-56.5 -103l-16 -91h420q14 0 14 -16l-8 -39q-4 -18 -21 -18h-417l-238 -1344q-4 -16 -20 -16h-41q-18 0 -15 16l238 1344h-248q-18 0 -14 18z
" />
    <glyph glyph-name="g" unicode="g" 
d="M836 199l129 729q-231 137 -402 137q-94 0 -159.5 -51t-81.5 -135l-111 -631q-16 -84 32 -135.5t142 -51.5q98 0 231.5 47.5t219.5 90.5zM979 1012l18 98q4 16 21 16h41q18 0 14 -16l-203 -1151q-25 -133 -148.5 -205.5t-315.5 -72.5q-174 0 -279 34q-18 2 -25.5 8.5
t-5.5 14.5l6 41q4 10 17 10h12q113 -35 279 -35q164 0 266 55.5t119 155.5l26 150q-281 -127 -448 -127q-129 0 -193.5 71.5t-44.5 188.5l111 631q23 117 111.5 188.5t217.5 71.5q168 0 404 -127z" />
    <glyph glyph-name="h" unicode="h" 
d="M362 1434h41q14 0 15 -17l-72 -405q281 127 453 127q125 0 189.5 -72t43.5 -188l-151 -863q-4 -16 -21 -16h-41q-18 0 -14 16l151 863q16 84 -30.5 135t-141.5 51q-96 0 -232 -47t-220 -90l-162 -912q-4 -16 -20 -16h-41q-18 0 -15 16l248 1401q4 17 20 17z" />
    <glyph glyph-name="i" unicode="i" 
d="M297 1073l8 37q4 16 19 16h391q14 0 14 -16l-184 -1038h332q18 0 14 -19l-8 -37q0 -16 -19 -16h-737q-18 0 -14 16l6 37q4 18 20 19h330l174 983h-332q-14 0 -14 18zM584 1329l22 123q4 27 31 27h127q27 0 20 -27l-20 -123q-6 -27 -31 -26h-127q-26 -1 -22 26z" />
    <glyph glyph-name="j" unicode="j" 
d="M451 1126h501q14 0 15 -16l-203 -1151q-25 -133 -143.5 -205.5t-307.5 -72.5q-164 0 -276 34q-18 2 -25.5 8.5t-5.5 14.5l8 41q0 10 15 10h14q104 -35 272 -35q160 0 258.5 55.5t114.5 155.5l193 1090h-443q-18 0 -14 18l6 37q5 16 21 16zM879 1479h125q29 0 22 -27
l-20 -123q-6 -27 -33 -26h-125q-27 0 -23 26l23 123q4 27 31 27z" />
    <glyph glyph-name="k" unicode="k" 
d="M508 537h-246l-92 -521q-4 -16 -20 -16h-41q-18 0 -15 16l248 1401q4 16 20 17h41q14 0 15 -17l-144 -807h246l494 502q14 14 26 14h58q23 0 8 -14l-528 -539l362 -559q10 -14 -12 -14h-58q-12 0 -22 14z" />
    <glyph glyph-name="l" unicode="l" 
d="M350 1380l8 37q4 16 19 17h389q18 0 14 -17l-235 -1345h329q18 0 15 -19l-6 -37q-4 -16 -21 -16h-737q-18 0 -14 16l6 37q4 18 20 19h332l227 1290h-331q-15 0 -15 18z" />
    <glyph glyph-name="m" unicode="m" 
d="M874 16l160 904q12 66 -18.5 105.5t-87.5 39.5q-100 0 -230 -119q0 -4 -1 -12t-1 -14l-161 -904q0 -16 -19 -16h-43q-14 0 -14 16l162 904q10 68 -20 106.5t-87 38.5q-104 0 -231 -127l-162 -922q-4 -16 -21 -16h-41q-18 0 -14 16l193 1094q4 16 20 16h41q18 0 14 -16
l-14 -84q125 113 240 113q57 0 99 -33t56 -90q137 123 260 123q82 0 127 -61.5t29 -157.5l-160 -904q-4 -16 -20 -16h-41q-19 0 -15 16z" />
    <glyph glyph-name="n" unicode="n" 
d="M307 1126h41q18 0 14 -16l-16 -98q281 127 453 127q125 0 189.5 -72t43.5 -188l-151 -863q-4 -16 -21 -16h-41q-18 0 -14 16l151 863q16 84 -30.5 135t-141.5 51q-96 0 -232 -47t-220 -90l-162 -912q-4 -16 -20 -16h-41q-18 0 -15 16l193 1094q4 16 20 16z" />
    <glyph glyph-name="o" unicode="o" 
d="M330 918l-125 -709q-12 -63 19.5 -103t97.5 -40h348q66 0 111.5 39.5t56.5 103.5l125 709q12 63 -20 103t-97 40h-348q-66 0 -112 -40t-56 -103zM129 211l125 704q16 98 87 158t169 60h348q98 0 147.5 -59.5t32.5 -158.5l-125 -704q-16 -98 -86.5 -157.5t-169.5 -59.5
h-348q-98 0 -147 59.5t-33 157.5z" />
    <glyph glyph-name="p" unicode="p" 
d="M332 928l-129 -729q231 -137 403 -138q94 0 158.5 50.5t81.5 134.5l110 635q16 84 -31.5 134t-142.5 50q-98 0 -231 -47t-219 -90zM96 -307h-41q-18 0 -14 16l246 1401q4 16 20 16h41q18 0 14 -16l-16 -98q281 127 451 127q127 0 191.5 -71t43.5 -187l-112 -635
q-20 -117 -109.5 -187.5t-216.5 -70.5q-170 0 -406 127l-71 -406q-5 -16 -21 -16z" />
    <glyph glyph-name="q" unicode="q" 
d="M836 199l129 729q-231 137 -404 137q-94 0 -158.5 -50t-80.5 -134l-111 -635q-16 -84 32 -134.5t142 -50.5q98 0 231.5 47.5t219.5 90.5zM805 -307h-41q-14 0 -14 16l71 406q-281 -127 -450 -127q-127 0 -191.5 70.5t-44.5 187.5l113 635q20 117 109 187.5t216 70.5
q170 0 406 -127l18 98q4 16 21 16h41q18 0 14 -16l-248 -1401q-4 -16 -20 -16z" />
    <glyph glyph-name="r" unicode="r" 
d="M756 53l-6 -37q-4 -16 -21 -16h-614q-18 0 -15 16l6 37q4 18 21 19h242l174 983h-240q-18 0 -14 18l6 37q4 16 20 16h297q18 0 15 -16l-27 -158q317 186 518 187q16 0 12 -17l-6 -47q-2 -14 -20 -14q-193 0 -520 -197l-140 -792h297q19 -1 15 -19z" />
    <glyph glyph-name="s" unicode="s" 
d="M934 322l-19 -107q-18 -100 -88.5 -160.5t-169.5 -60.5h-348q-98 0 -147 59.5t-33 157.5l14 82q4 16 21 16h41q18 0 14 -16l-14 -76q-10 -68 20.5 -109.5t98.5 -41.5h344q68 0 113.5 42t58.5 111l20 109q6 43 -7 83t-46 52l-469 166q-55 20 -77.5 81.5t-10.5 131.5l12 69
q18 100 89 161t169 61h328q98 0 147 -59.5t33 -158.5l-14 -81q-4 -16 -21 -17h-41q-18 0 -14 17l14 75q10 68 -20.5 110t-97.5 42h-324q-68 0 -114 -42t-58 -112l-14 -73q-6 -43 7 -82t46 -52l469 -168q55 -18 77.5 -79t10.5 -131z" />
    <glyph glyph-name="t" unicode="t" 
d="M281 1071l6 39q4 16 20 16h246l33 189q4 16 20 16h41q18 0 15 -16l-33 -189h420q18 0 14 -16l-6 -39q-4 -18 -21 -18h-422l-147 -842q-10 -66 22.5 -104.5t96.5 -38.5h276q18 0 15 -17l-7 -39q-4 -16 -20 -16h-279q-98 0 -147 59.5t-33 157.5l150 840h-246q-18 0 -14 18z
" />
    <glyph glyph-name="u" unicode="u" 
d="M860 0h-41q-18 0 -14 16l16 99q-281 -127 -452 -127q-127 0 -190.5 71.5t-43.5 188.5l152 862q4 16 20 16h41q18 0 14 -16l-151 -862q-16 -84 31 -135.5t141 -51.5q96 0 232.5 47.5t220.5 90.5l161 911q4 16 21 16h41q18 0 14 -16l-192 -1094q-5 -16 -21 -16z" />
    <glyph glyph-name="v" unicode="v" 
d="M508 133l561 977q10 16 27 16h45q16 0 10 -16l-621 -1094q-10 -16 -24 -16h-43q-14 0 -21 16l-231 1094q-4 16 14 16h45q16 0 21 -16l201 -977q4 -16 0 -51h4q4 39 12 51z" />
    <glyph glyph-name="w" unicode="w" 
d="M641 918l-350 -902q-6 -16 -25 -16h-41q-14 0 -18 16l-43 1094q-4 16 16 16h43q18 0 19 -16l28 -938q0 -27 -6 -51h6q4 27 13 51l358 938q4 16 23 16h36q18 0 19 -16l29 -938q0 -2 -7 -51h4q2 8 6.5 25.5t6.5 25.5l360 938q6 16 25 16h43q16 0 10 -16l-428 -1094
q-10 -16 -25 -16h-41q-18 0 -18 16l-33 902q0 2 6 53h-6q0 -26 -10 -53z" />
    <glyph glyph-name="x" unicode="x" 
d="M608 649l434 463q10 14 29 14h57q16 0 7 -14l-502 -539l301 -557q6 -16 -10 -16h-58q-14 0 -24 16l-254 482q-2 2 -2 26h-4q-6 -25 -9 -26l-450 -484q-14 -14 -29 -14h-57q-16 0 -4 14l512 561l-295 535q-4 16 12 16h55q14 0 25 -16l250 -461q4 -8 0 -26h6q0 12 10 26z
" />
    <glyph glyph-name="y" unicode="y" 
d="M362 1110l-151 -862q-16 -84 32 -135.5t142 -51.5q98 0 231.5 47.5t219.5 90.5l161 911q4 16 21 16h41q18 0 14 -16l-203 -1151q-25 -133 -148.5 -205.5t-315.5 -72.5q-174 0 -279 34q-18 2 -25.5 8.5t-5.5 14.5l6 41q4 10 17 10h12q113 -35 279 -35q164 0 266 55.5
t119 155.5l26 150q-281 -127 -448 -127q-129 0 -193.5 71.5t-44.5 188.5l152 862q4 16 20 16h41q18 0 14 -16z" />
    <glyph glyph-name="z" unicode="z" 
d="M104 92l875 961h-696q-14 0 -15 18l8 39q4 16 21 16h770q18 0 14 -16l-8 -45q-4 -18 -16 -31l-875 -960h707q18 0 14 -19l-8 -39q0 -16 -18 -16h-781q-18 0 -14 16l6 45q4 19 16 31z" />
    <glyph glyph-name="braceleft" unicode="{" 
d="M1028 1462h-102q-66 0 -112 -40t-58 -105l-88 -504q-25 -137 -146 -197q106 -55 82 -200l-88 -504q-12 -66 20.5 -105.5t98.5 -39.5h94q18 0 14 -19l-6 -39q-4 -16 -20 -16h-92q-100 0 -151.5 61.5t-35.5 161.5l92 516q10 63 -22.5 103t-97.5 40h-33q-18 0 -15 17l9 45
q4 16 20 16h33q63 0 107 39t55 105l92 516q16 100 90 161.5t174 61.5h100q18 0 15 -16l-8 -39q-5 -19 -21 -19z" />
    <glyph glyph-name="bar" unicode="|" 
d="M549 -293v1815q0 14 16 14h39q14 0 14 -14v-1815q0 -14 -14 -14h-39q-16 0 -16 14z" />
    <glyph glyph-name="braceright" unicode="}" 
d="M156 -233h96q66 0 112 39.5t58 105.5l88 504q25 143 154 200q-98 59 -76 197l90 504q10 66 -21.5 105.5t-97.5 39.5h-104q-16 0 -13 19l7 39q4 16 20 16h100q100 0 151.5 -61.5t33.5 -161.5l-90 -516q-10 -66 18.5 -105t93.5 -39h33q14 0 14 -16l-8 -45q-4 -16 -20 -17
h-33q-66 0 -113 -39.5t-57 -103.5l-92 -516q-16 -100 -90 -161.5t-174 -61.5h-93q-18 0 -14 16l6 39q5 19 21 19z" />
    <glyph glyph-name="asciitilde" unicode="~" 
d="M315 690l11 51q0 10 16 23l82 49q37 20 74 21q18 0 47 -9l180 -77q16 -4 29 -5q25 0 47 13l106 63q2 2 6 2q8 0 5 -10l-9 -49q-4 -16 -16 -23l-82 -49q-33 -18 -76 -18q-27 0 -45 8l-182 76q-12 6 -29 6q-25 0 -45 -14l-106 -64q-4 -2 -8.5 -2t-4.5 8z" />
    <glyph glyph-name="exclamdown" unicode="&#xa1;" 
d="M381 -285l197 1010q4 23 24 23h27q23 0 18 -23l-160 -1010q-6 -23 -26 -22h-62q-22 -1 -18 22zM557 961l25 139q6 27 32 26h136q27 0 22 -26l-24 -139q-6 -25 -31 -25h-137q-27 0 -23 25z" />
    <glyph glyph-name="cent" unicode="&#xa2;" 
d="M682 190h-131l-31 -182q-2 -14 -18 -14h-39q-14 0 -12 14l32 182h-129q-98 0 -148 60.5t-32 159.5l109 616q16 98 86.5 157.5t169.5 59.5h131l30 182q2 14 19 15h39q14 0 12 -15l-33 -182h129q98 0 148.5 -59.5t32.5 -157.5l-15 -82q-4 -16 -20 -16h-39q-16 0 -17 16
l17 84q10 66 -22.5 104.5t-96.5 38.5h-328q-66 0 -111.5 -39.5t-56.5 -103.5l-110 -622q-10 -63 21.5 -102.5t97.5 -39.5h327q66 0 112 39t56 103l15 83q4 16 20 17h41q18 0 14 -17l-14 -79q-16 -100 -87 -160t-169 -60z" />
    <glyph glyph-name="sterling" unicode="&#xa3;" 
d="M20 16l9 45q4 16 20 17h168l92 524h-168q-18 0 -14 16l6 35q4 16 21 17h168l96 544q18 102 91 164t175 62h221q102 0 153.5 -62.5t33.5 -163.5l-27 -151q-4 -16 -21 -16h-43q-18 0 -14 16l27 154q12 66 -20.5 105.5t-98.5 39.5h-227q-66 0 -113 -40t-59 -105l-97 -547
h369q18 0 14 -17l-6 -35q-4 -16 -20 -16h-369l-92 -524h577q14 0 15 -17l-8 -45q-4 -16 -21 -16h-823q-19 0 -15 16z" />
    <glyph glyph-name="currency" unicode="&#xa4;" 
d="M258 717q0 -137 96.5 -233.5t233.5 -96.5q135 0 231 96.5t96 233.5t-96 233.5t-231 96.5q-137 0 -233.5 -96.5t-96.5 -233.5zM895 459l127 -125q10 -12 0 -25l-29 -26q-2 -6 -10 -7q-8 0 -12 7l-127 125q-113 -92 -256 -93q-145 0 -258 93l-127 -127q-6 -6 -12.5 -6.5
t-12.5 6.5l-28 28q-12 12 0 25l129 127q-94 111 -95 256q0 143 92 256l-129 129q-10 10 0 24l29 29q6 6 12.5 6t12.5 -6l129 -131q111 94 258 94q143 0 256 -92l127 129q8 4 12 4t12 -4l27 -29q14 -12 0 -22l-127 -129q94 -111 94 -258t-94 -258z" />
    <glyph glyph-name="yen" unicode="&#xa5;" 
d="M229 250l7 35q2 18 20 18h244l30 168h-245q-16 0 -13 16l7 37q4 16 18 17h246l6 45l-273 831q-4 16 13 17h51q16 0 20 -17l240 -717q4 -10 0 -41h4q4 29 14 41l492 717q10 16 27 17h51q16 0 6 -17l-567 -831l-6 -45h243q18 0 15 -17l-7 -37q-4 -16 -20 -16h-244l-30 -168
h245q16 0 15 -18l-7 -35q-4 -16 -20 -17h-246l-39 -217q0 -16 -18 -16h-45q-14 0 -14 16l38 217h-243q-19 1 -15 17z" />
    <glyph glyph-name="brokenbar" unicode="&#xa6;" 
d="M549 -293v778h69v-778q0 -14 -14 -14h-39q-16 0 -16 14zM618 1522v-779h-69v779q0 14 16 14h39q14 0 14 -14z" />
    <glyph glyph-name="section" unicode="&#xa7;" 
d="M580 414l-256 266q-70 70 -52 184l64 359q16 98 87 157.5t171 59.5h289q98 0 147 -59.5t33 -157.5l-27 -146q-4 -16 -20 -16h-41q-18 0 -14 16l24 140q12 68 -19.5 109.5t-99.5 41.5h-278q-68 0 -117 -42t-59 -109l-62 -347q-14 -82 35 -133l256 -266q10 -8 -2 -20
l-37 -35q-4 -4 -12 -4t-10 2zM639 926l242 -256q72 -78 51 -187l-64 -356q-16 -98 -86.5 -158.5t-169.5 -60.5h-288q-98 0 -147.5 60.5t-33.5 158.5l25 143q4 18 20 19h41q18 0 15 -19l-25 -139q-12 -68 21.5 -108.5t101.5 -40.5h276q68 0 116 40.5t61 108.5l61 348
q14 80 -37 133l-241 258q-8 10 2 21l36 35q8 4 13 4q2 0 10 -4z" />
    <glyph glyph-name="dieresis" unicode="&#xa8;" 
d="M848 1483l10 57q8 33 39 33h57q35 0 27 -33l-10 -57q-6 -33 -39 -33h-55q-33 0 -29 33zM522 1483l10 57q8 33 39 33h56q14 0 23 -9.5t5 -23.5l-10 -57q-6 -33 -39 -33h-57q-33 0 -27 33z" />
    <glyph glyph-name="copyright" unicode="&#xa9;" 
d="M199 1040l-113 -647q-27 -145 47 -234t219 -89h287q147 0 251.5 89t131.5 234l115 647q27 145 -48 235.5t-221 90.5h-286q-145 0 -250.5 -90.5t-132.5 -235.5zM16 393l115 647q31 176 159 285t304 109h287q176 0 266 -108.5t57 -285.5l-112 -647q-33 -176 -160 -284.5
t-303 -108.5h-287q-178 0 -267.5 108.5t-58.5 284.5zM500 322h98q66 0 114 40.5t60 106.5l12 70q4 18 21 18h35q18 0 14 -18l-10 -66q-18 -98 -89 -158.5t-169 -60.5h-99q-98 0 -148 60.5t-32 158.5l86 488q16 100 87 159.5t169 59.5h101q98 0 147 -59.5t33 -159.5l-12 -66
q-4 -18 -21 -18h-37q-18 0 -14 18l12 70q12 66 -21.5 106.5t-99.5 40.5h-98q-68 0 -116 -41t-58 -106l-88 -496q-10 -66 22.5 -106.5t100.5 -40.5z" />
    <glyph glyph-name="ordfeminine" unicode="&#xaa;" 
d="M829 840l80 452q-152 88 -254 88q-57 0 -96 -30.5t-47 -81.5l-72 -404q-10 -49 18.5 -80.5t86.5 -31.5q89 0 284 88zM854 700h-33q-16 0 -12 15l8 57q-172 -82 -287 -82q-84 0 -127 48t-28 126l71 406q14 78 74 125t144 47q115 0 258 -80l10 57q4 14 16 15h37
q18 0 10 -15l-123 -704q0 -15 -18 -15z" />
    <glyph glyph-name="guillemotleft" unicode="&#xab;" 
d="M670 956l-410 -331l295 -330q8 -10 -6 -25l-27 -22q-8 -8 -14 -8q-8 0 -10 6l-310 346q-10 12 -6 29l2 8q4 14 17 28l430 347q6 6 12 6t12 -9l19 -22q10 -13 -4 -23zM1059 956l-410 -331l293 -330q10 -8 -2 -25l-31 -22q-6 -8 -12 -8t-12 6l-305 346q-12 12 -9 29l2 8
q4 16 19 28l428 347q6 6 12 6t12 -9l19 -22q12 -13 -4 -23z" />
    <glyph glyph-name="logicalnot" unicode="&#xac;" 
d="M285 762v39q0 16 18 16h561q18 0 19 -16v-223q0 -18 -19 -19h-41q-16 0 -16 19v165h-504q-18 1 -18 19z" />
    <glyph glyph-name="uni00AD" unicode="&#xad;" 
d="M358 606v39q0 14 15 14h422q14 0 14 -14v-39q0 -16 -14 -16h-422q-15 0 -15 16z" />
    <glyph glyph-name="registered" unicode="&#xae;" 
d="M199 1040l-113 -647q-27 -145 47 -234t219 -89h287q147 0 251.5 89t131.5 234l115 647q27 145 -48 235.5t-221 90.5h-286q-145 0 -250.5 -90.5t-132.5 -235.5zM784 1110h-305l-78 -444h306q63 0 106 30.5t51 79.5l39 221q10 51 -23 82t-96 31zM16 393l115 647
q31 176 159 285t304 109h287q176 0 266 -108.5t57 -285.5l-112 -647q-33 -176 -160 -284.5t-303 -108.5h-287q-178 0 -267.5 108.5t-58.5 284.5zM770 270l-102 324h-279l-57 -324q-4 -16 -21 -16h-37q-14 0 -14 16l158 895q4 14 18 15h361q94 0 143 -50.5t35 -134.5
l-39 -215q-12 -72 -64.5 -120t-128.5 -62l101 -328q0 -16 -15 -16h-41q-14 0 -18 16z" />
    <glyph glyph-name="macron" unicode="&#xaf;" 
d="M596 1479l6 32q4 14 19 15h266q16 0 12 -15l-6 -32q0 -14 -16 -15h-269q-12 1 -12 15z" />
    <glyph glyph-name="degree" unicode="&#xb0;" 
d="M506 1247q16 84 83.5 141.5t149.5 57.5t130.5 -57.5t33.5 -141.5q-16 -80 -83.5 -138t-149.5 -58t-130 58t-34 138zM571 1247q-10 -53 23 -93t86 -40q55 0 101 40t57 93q10 55 -23 94t-88 39q-53 0 -100.5 -39t-55.5 -94z" />
    <glyph glyph-name="plusminus" unicode="&#xb1;" 
d="M285 766v39q0 16 18 16h244v246q0 16 18 16h39q16 0 17 -16v-246h243q18 0 19 -16v-39q0 -16 -19 -16h-243v-246q0 -16 -17 -17h-39q-18 0 -18 17v246h-244q-18 0 -18 16zM285 281v38q0 18 18 19h561q18 0 19 -19v-38q0 -16 -19 -17h-561q-18 1 -18 17z" />
    <glyph glyph-name="uni00B2" unicode="&#xb2;" 
d="M410 729l20 119q8 49 62 84l309 196q27 16 30 43l23 125q6 37 -12.5 59.5t-55.5 22.5h-127q-35 0 -61.5 -22.5t-32.5 -59.5l-8 -43q0 -12 -12 -12h-37q-10 0 -10 12l8 39q10 66 57 106t113 40h117q66 0 98.5 -40t21.5 -106l-22 -129q-10 -49 -62 -84l-311 -196
q-25 -14 -29 -41l-12 -66h342q10 0 10 -12l-6 -35q-4 -12 -14 -12h-389q-14 0 -10 12z" />
    <glyph glyph-name="uni00B3" unicode="&#xb3;" 
d="M553 1245h-35q-10 0 -10 12l6 35q12 66 59.5 105t110.5 39h104q66 0 99 -39t22 -105l-16 -86q-12 -78 -84 -114q68 -33 51 -119l-20 -115q-10 -63 -57.5 -104t-112.5 -41h-117q-66 0 -98.5 40t-22.5 105l6 33q4 12 15 12h34q14 0 11 -12l-6 -37q-6 -37 12 -59.5t53 -22.5
h127q37 0 62.5 22.5t33.5 59.5l21 127q8 35 -10.5 57.5t-55.5 22.5h-94q-14 0 -10 10l6 37q0 12 14 12h86q37 0 63.5 22.5t33.5 57.5l16 96q6 35 -12.5 57.5t-53.5 22.5h-114q-37 0 -62.5 -22.5t-32.5 -57.5l-8 -39q0 -12 -14 -12z" />
    <glyph glyph-name="acute" unicode="&#xb4;" 
d="M791 1442l147 162q10 10 25 10h67q14 0 0 -10l-176 -162q-10 -10 -29 -10h-32q-12 0 -2 10z" />
    <glyph glyph-name="paragraph" unicode="&#xb6;" 
d="M717 -291l291 1647h-293l-291 -1647q-4 -16 -21 -16h-43q-18 0 -14 16l156 887h-92q-102 0 -153.5 62.5t-33.5 162.5l68 387q18 102 91 164t175 62h524q18 0 15 -17l-301 -1708q-4 -16 -21 -16h-43q-18 0 -14 16z" />
    <glyph glyph-name="periodcentered" unicode="&#xb7;" 
d="M504 647l24 139q4 27 31 27h137q27 0 21 -27l-25 -139q-4 -27 -30 -26h-136q-26 -1 -22 26z" />
    <glyph glyph-name="cedilla" unicode="&#xb8;" 
d="M555 -160l-6 -35q-14 -78 -92 -77h-105q-16 0 -12 14l4 22q4 16 18 17h97q31 0 37 31l4 24q4 31 -27 31h-59q-23 0 -13 20l39 115h58l-29 -84h20q35 0 53.5 -21.5t12.5 -56.5z" />
    <glyph glyph-name="uni00B9" unicode="&#xb9;" 
d="M461 729l6 33q0 12 12 12h174l105 592l-191 -78q-2 0 -2 -1t-2 -1q-6 0 -6 10l6 35q2 10 15 19l198 80q12 4 25 4h16q12 0 8 -13l-112 -647h172q12 0 10 -12l-6 -33q0 -12 -15 -12h-403q-14 0 -10 12z" />
    <glyph glyph-name="ordmasculine" unicode="&#xba;" 
d="M516 1292l-80 -452q-6 -37 12.5 -59.5t55.5 -22.5h227q37 0 64.5 22.5t33.5 59.5l80 452q6 39 -12 61.5t-55 22.5h-228q-84 0 -98 -84zM371 844l80 446q10 66 58 107t116 41h227q66 0 99.5 -41t21.5 -107l-78 -446q-12 -68 -60.5 -108t-113.5 -40h-227q-68 0 -100.5 40
t-22.5 108z" />
    <glyph glyph-name="guillemotright" unicode="&#xbb;" 
d="M928 625l-293 331q-8 10 4 23l29 22q6 8 14 9q6 0 10 -6l307 -347q10 -12 7 -28v-8q-2 -14 -17 -29l-430 -346q-6 -6 -12 -6q-10 0 -12 8l-21 22q-8 14 4 25zM539 625l-293 331q-10 10 4 23l26 22q8 8 17 9q4 0 10 -6l307 -347q10 -12 6 -28v-8q-4 -16 -18 -29l-428 -346
q-10 -6 -14 -6t-11 8l-20 22q-8 14 4 25z" />
    <glyph glyph-name="onequarter" unicode="&#xbc;" 
d="M37 434l1114 576q8 4 10 4q4 0 8 -8l17 -33q4 -14 -10 -21l-1113 -575q-8 -4 -10 -4q-6 0 -10 8l-14 33q-6 12 8 20zM952 651l-311 -463h254l41 232q4 12 14 12h35q12 0 8 -12l-41 -232h74q12 0 12 -10l-6 -35q-4 -14 -16 -14h-74l-20 -117q0 -12 -13 -12h-35
q-10 0 -10 12l21 117h-316q-10 0 -10 14l4 19q6 20 8 26l316 463q8 12 20 13h41q4 0 6 -4.5t-2 -8.5zM88 795l6 32q4 12 15 13h172l94 526l-191 -78l-2 -2h-2q-6 0 -6 10l6 35q2 10 15 19l198 80q12 4 25 4h16q12 0 8 -13l-102 -581h174q10 0 10 -13l-6 -32q-4 -12 -14 -13
h-406q-10 1 -10 13z" />
    <glyph glyph-name="onehalf" unicode="&#xbd;" 
d="M37 434l1114 576q8 4 10 4q4 0 8 -8l17 -33q4 -14 -10 -21l-1113 -575q-8 -4 -10 -4q-6 0 -10 8l-14 33q-6 12 8 20zM616 12l21 119q10 57 61 84l306 168q23 14 30 43l15 88q8 37 -11.5 59.5t-56.5 22.5h-127q-35 0 -60.5 -22.5t-33.5 -59.5l-6 -41q-4 -12 -15 -12h-34
q-12 0 -11 12l6 37q12 66 58.5 105.5t111.5 39.5h117q66 0 98.5 -40t22.5 -105l-16 -92q-10 -51 -60 -84l-307 -168q-25 -14 -29 -41l-12 -66h342q10 0 10 -12l-6 -35q-4 -12 -14 -12h-389q-13 0 -11 12zM88 795l6 32q4 12 15 13h172l94 526l-191 -78l-2 -2h-2q-6 0 -6 10
l6 35q2 10 15 19l198 80q12 4 25 4h16q12 0 8 -13l-102 -581h174q10 0 10 -13l-6 -32q-4 -12 -14 -13h-406q-10 1 -10 13z" />
    <glyph glyph-name="threequarters" unicode="&#xbe;" 
d="M37 434l1114 576q8 4 10 4q4 0 8 -8l17 -33q4 -14 -10 -21l-1113 -575q-8 -4 -10 -4q-6 0 -10 8l-14 33q-6 12 8 20zM952 651l-311 -463h254l41 232q4 12 14 12h35q12 0 8 -12l-41 -232h74q12 0 12 -10l-6 -35q-4 -14 -16 -14h-74l-20 -117q0 -12 -13 -12h-35
q-10 0 -10 12l21 117h-316q-10 0 -10 14l4 19q6 20 8 26l316 463q8 12 20 13h41q4 0 6 -4.5t-2 -8.5zM225 1255h-32q-10 0 -11 13l6 32q10 66 57.5 106t112.5 40h105q66 0 98.5 -40t20.5 -106l-9 -53q-16 -84 -86 -114q68 -33 52 -119l-15 -86q-10 -63 -57 -104.5
t-113 -41.5h-116q-66 0 -99 40t-22 106l6 35q4 12 14 12h35q14 0 10 -12l-6 -39q-6 -37 12.5 -59.5t53.5 -22.5h129q35 0 60.5 22.5t33.5 59.5l16 96q6 35 -11 57.5t-54 22.5h-97q-10 0 -10 12l6 35q4 12 15 12h86q37 0 63.5 22.5t32.5 57.5l12 66q6 37 -12 59t-53 22h-117
q-35 0 -60.5 -22.5t-33.5 -58.5l-6 -37q-1 -13 -17 -13z" />
    <glyph glyph-name="questiondown" unicode="&#xbf;" 
d="M102 -88l37 201q16 111 119 188l234 176q70 57 83 133l23 121q4 16 20 17h39q18 0 15 -17l-21 -129q-20 -115 -119 -186l-233 -174q-70 -53 -84 -133l-35 -199q-10 -66 23 -106t98 -40h291q66 0 109.5 39t54.5 107l26 153q4 16 21 17h45q16 0 12 -17l-26 -151
q-16 -102 -86 -163.5t-170 -61.5h-289q-100 0 -151.5 61.5t-35.5 163.5zM786 1100l-24 -139q-4 -25 -31 -25h-135q-27 0 -23 25l25 139q4 27 31 26h137q26 1 20 -26z" />
    <glyph glyph-name="Agrave" unicode="&#xc0;" 
d="M270 377h561l-118 880q-2 10 4 43h-8q-6 -39 -9 -43zM844 299h-611l-139 -283q-6 -16 -24 -16h-45q-16 0 -11 16l680 1401q10 16 27 17h33q16 0 20 -17l187 -1401q4 -16 -15 -16h-45q-16 0 -20 16zM721 1702l61 -162q4 -10 -8 -10h-33q-16 0 -22 10l-90 162q-10 10 6 10
h67q13 0 19 -10z" />
    <glyph glyph-name="Aacute" unicode="&#xc1;" 
d="M270 377h561l-118 880q-2 10 4 43h-8q-6 -39 -9 -43zM844 299h-611l-139 -283q-6 -16 -24 -16h-45q-16 0 -11 16l680 1401q10 16 27 17h33q16 0 20 -17l187 -1401q4 -16 -15 -16h-45q-16 0 -20 16zM719 1540l119 162q10 10 22 10h68q10 0 4 -10l-150 -162
q-10 -10 -26 -10h-33q-10 0 -4 10z" />
    <glyph glyph-name="Acircumflex" unicode="&#xc2;" 
d="M270 377h561l-118 880q-2 10 4 43h-8q-6 -39 -9 -43zM844 299h-611l-139 -283q-6 -16 -24 -16h-45q-16 0 -11 16l680 1401q10 16 27 17h33q16 0 20 -17l187 -1401q4 -16 -15 -16h-45q-16 0 -20 16zM827 1690l82 -148q4 -10 -8 -10h-39q-16 0 -22 12l-64 107l-104 -107
q-8 -12 -25 -12h-39q-14 0 -4 10l133 148q8 12 27 12h43q14 0 20 -12z" />
    <glyph glyph-name="Atilde" unicode="&#xc3;" 
d="M270 377h561l-118 880q-2 10 4 43h-8q-6 -39 -9 -43zM844 299h-611l-139 -283q-6 -16 -24 -16h-45q-16 0 -11 16l680 1401q10 16 27 17h33q16 0 20 -17l187 -1401q4 -16 -15 -16h-45q-16 0 -20 16zM575 1565l7 37q6 27 55 44t82 17q20 0 45 -10l59 -33q6 -6 21 -6
q53 0 121 39q2 0 6 2q4 0 4 -10l-6 -37q-6 -27 -53.5 -42.5t-79.5 -15.5q-25 0 -45 11l-60 34q-12 4 -22 4q-57 0 -121 -40q-2 -2 -8 -3q-5 1 -5 9z" />
    <glyph glyph-name="Adieresis" unicode="&#xc4;" 
d="M270 377h561l-118 880q-2 10 4 43h-8q-6 -39 -9 -43zM844 299h-611l-139 -283q-6 -16 -24 -16h-45q-16 0 -11 16l680 1401q10 16 27 17h33q16 0 20 -17l187 -1401q4 -16 -15 -16h-45q-16 0 -20 16zM539 1581l10 55q6 33 39 33h57q33 0 27 -33l-10 -55q-4 -33 -39 -33h-56
q-32 0 -28 33zM866 1581l11 55q4 33 36 33h58q33 0 26 -33l-8 -55q-6 -33 -39 -33h-57q-33 0 -27 33z" />
    <glyph glyph-name="Aring" unicode="&#xc5;" 
d="M270 377h561l-118 880q-2 10 4 43h-8q-6 -39 -9 -43zM709 1599.5q-4 -26.5 11 -45t41.5 -18.5t48 18.5t26 45t-10 45t-41 18.5t-49 -18.5t-26.5 -45zM844 299h-611l-139 -283q-6 -16 -24 -16h-45q-16 0 -11 16l680 1401q10 16 27 17h33q16 0 20 -17l187 -1401
q4 -16 -15 -16h-45q-16 0 -20 16zM657.5 1599.5q8.5 47.5 48 81t87.5 33.5q49 0 76.5 -33.5t19.5 -81t-48 -82t-89 -34.5q-47 0 -75 34.5t-19.5 82z" />
    <glyph glyph-name="AE" unicode="&#xc6;" 
d="M240 377h356l156 874q2 10 12 43l-4 2q-8 -27 -17 -41zM584 299h-389l-162 -283q-6 -16 -25 -16h-49q-18 0 -8 16l805 1401q10 16 26 17h457q16 0 12 -17l-6 -45q-4 -16 -20 -16h-377l-115 -649h293q18 0 14 -17l-8 -43q-4 -18 -20 -18h-293l-96 -551h376q18 0 15 -17
l-8 -45q-4 -16 -21 -16h-438q-18 0 -15 16z" />
    <glyph glyph-name="Ccedilla" unicode="&#xc7;" 
d="M555 -160l-6 -35q-14 -78 -92 -77h-105q-16 0 -12 14l4 22q4 16 18 17h97q31 0 37 31l4 24q4 31 -27 31h-59q-23 0 -13 20l35 107h-121q-102 0 -152 62.5t-32 162.5l174 995q18 100 92 163t174 63h334q102 0 153.5 -62.5t33.5 -163.5l-27 -151q-4 -16 -21 -16h-43
q-18 0 -14 16l27 154q12 66 -20.5 105.5t-98.5 39.5h-340q-66 0 -113 -40t-57 -105l-178 -1000q-10 -66 22.5 -105.5t98.5 -39.5h338q66 0 112.5 40t59.5 105l26 154q4 16 21 16h43q18 0 14 -16l-27 -152q-18 -102 -90.5 -163.5t-173.5 -61.5h-155l-27 -76h20
q35 0 53.5 -21.5t12.5 -56.5z" />
    <glyph glyph-name="Egrave" unicode="&#xc8;" 
d="M94 16l248 1401q4 16 20 17h750q18 0 14 -17l-8 -45q0 -16 -18 -16h-692l-113 -649h508q18 0 14 -17l-8 -43q-4 -18 -21 -18h-507l-99 -551h692q16 0 13 -17l-6 -45q-4 -16 -21 -16h-751q-19 0 -15 16zM715 1702l61 -162q4 -10 -8 -10h-33q-16 0 -22 10l-90 162
q-6 10 8 10h65q13 0 19 -10z" />
    <glyph glyph-name="Eacute" unicode="&#xc9;" 
d="M94 16l248 1401q4 16 20 17h750q18 0 14 -17l-8 -45q0 -16 -18 -16h-692l-113 -649h508q18 0 14 -17l-8 -43q-4 -18 -21 -18h-507l-99 -551h692q16 0 13 -17l-6 -45q-4 -16 -21 -16h-751q-19 0 -15 16zM705 1540l118 162q10 10 23 10h67q12 0 2 -10l-147 -162
q-10 -10 -27 -10h-32q-10 0 -4 10z" />
    <glyph glyph-name="Ecircumflex" unicode="&#xca;" 
d="M94 16l248 1401q4 16 20 17h750q18 0 14 -17l-8 -45q0 -16 -18 -16h-692l-113 -649h508q18 0 14 -17l-8 -43q-4 -18 -21 -18h-507l-99 -551h692q16 0 13 -17l-6 -45q-4 -16 -21 -16h-751q-19 0 -15 16zM817 1690l82 -148q4 -10 -8 -10h-39q-16 0 -23 12l-63 107
l-104 -107q-10 -12 -25 -12h-39q-14 0 -4 10l133 148q10 12 27 12h43q14 0 20 -12z" />
    <glyph glyph-name="Edieresis" unicode="&#xcb;" 
d="M94 16l248 1401q4 16 20 17h750q18 0 14 -17l-8 -45q0 -16 -18 -16h-692l-113 -649h508q18 0 14 -17l-8 -43q-4 -18 -21 -18h-507l-99 -551h692q16 0 13 -17l-6 -45q-4 -16 -21 -16h-751q-19 0 -15 16zM856 1581l10 55q4 33 37 33h58q33 0 26 -33l-8 -55q-6 -33 -39 -33
h-57q-33 0 -27 33zM528 1581l11 55q6 33 39 33h57q33 0 27 -33l-11 -55q-4 -33 -39 -33h-55q-33 0 -29 33z" />
    <glyph glyph-name="Igrave" unicode="&#xcc;" 
d="M88 16l8 43q4 16 21 17h342l225 1282h-342q-14 0 -14 18l8 41q4 16 20 17h762q18 0 15 -17l-9 -41q0 -18 -18 -18h-344l-225 -1282h342q18 0 14 -17l-8 -43q0 -16 -19 -16h-764q-14 0 -14 16zM725 1702l61 -162q4 -10 -8 -10h-33q-16 0 -22 10l-90 162q-6 10 8 10h66
q12 0 18 -10z" />
    <glyph glyph-name="Iacute" unicode="&#xcd;" 
d="M88 16l8 43q4 16 21 17h342l225 1282h-342q-14 0 -14 18l8 41q4 16 20 17h762q18 0 15 -17l-9 -41q0 -18 -18 -18h-344l-225 -1282h342q18 0 14 -17l-8 -43q0 -16 -19 -16h-764q-14 0 -14 16zM715 1540l119 162q10 10 22 10h68q12 0 2 -10l-148 -162q-10 -10 -26 -10h-33
q-10 0 -4 10z" />
    <glyph glyph-name="Icircumflex" unicode="&#xce;" 
d="M88 16l8 43q4 16 21 17h342l225 1282h-342q-14 0 -14 18l8 41q4 16 20 17h762q18 0 15 -17l-9 -41q0 -18 -18 -18h-344l-225 -1282h342q18 0 14 -17l-8 -43q0 -16 -19 -16h-764q-14 0 -14 16zM827 1690l82 -148q4 -10 -8 -10h-39q-16 0 -22 12l-64 107l-104 -107
q-8 -12 -25 -12h-39q-14 0 -4 10l133 148q8 12 27 12h43q14 0 20 -12z" />
    <glyph glyph-name="Idieresis" unicode="&#xcf;" 
d="M88 16l8 43q4 16 21 17h342l225 1282h-342q-14 0 -14 18l8 41q4 16 20 17h762q18 0 15 -17l-9 -41q0 -18 -18 -18h-344l-225 -1282h342q18 0 14 -17l-8 -43q0 -16 -19 -16h-764q-14 0 -14 16zM539 1581l10 55q6 33 39 33h57q33 0 27 -33l-10 -55q-4 -33 -39 -33h-56
q-32 0 -28 33zM866 1581l11 55q4 33 36 33h58q33 0 26 -33l-8 -55q-6 -33 -39 -33h-57q-33 0 -27 33z" />
    <glyph glyph-name="Eth" unicode="&#xd0;" 
d="M578 715h-283l-113 -637h486q66 0 112.5 40t57.5 105l174 987q12 66 -21 106t-98 40h-485l-101 -574h283q18 0 14 -16l-6 -35q-4 -16 -20 -16zM72 731l6 35q4 16 20 16h131l113 635q4 16 20 17h543q102 0 152.5 -61.5t32.5 -164.5l-172 -983q-18 -100 -91 -162.5
t-176 -62.5h-542q-18 0 -15 16l123 699h-131q-18 0 -14 16z" />
    <glyph glyph-name="Ntilde" unicode="&#xd1;" 
d="M387 1231l-215 -1215q-4 -16 -18 -16h-45q-18 0 -15 16l248 1401q4 16 20 17h33q18 0 23 -15l405 -1220q4 -12 4 -41l9 2q0 4 -2.5 19.5t0.5 21.5l215 1216q4 16 20 17h43q18 0 14 -17l-245 -1401q-4 -16 -21 -16h-35q-14 0 -22 14l-406 1219q-4 12 -4 41h-8
q0 -4 2 -20.5t0 -22.5zM575 1565l7 37q6 27 55 44t82 17q25 0 45 -10l59 -33q8 -6 23 -6q51 0 119 39q2 0 6 2q8 0 4 -10l-6 -37q-4 -27 -52.5 -42.5t-80.5 -15.5q-25 0 -45 11l-60 34q-12 4 -22 4q-57 0 -121 -40q-2 -2 -8 -3q-5 1 -5 9z" />
    <glyph glyph-name="Ograve" unicode="&#xd2;" 
d="M369 1217l-176 -1000q-12 -66 20.5 -105.5t97.5 -39.5h371q66 0 113 40t59 105l176 1000q10 66 -22.5 105.5t-98.5 39.5h-370q-66 0 -113 -39.5t-57 -105.5zM115 219l176 995q16 100 89 163t175 63h367q100 0 151 -61.5t35 -164.5l-176 -995q-18 -102 -92 -163.5
t-174 -61.5h-365q-102 0 -153 61.5t-33 163.5zM725 1702l61 -162q4 -10 -8 -10h-33q-16 0 -22 10l-90 162q-6 10 8 10h66q12 0 18 -10z" />
    <glyph glyph-name="Oacute" unicode="&#xd3;" 
d="M369 1217l-176 -1000q-12 -66 20.5 -105.5t97.5 -39.5h371q66 0 113 40t59 105l176 1000q10 66 -22.5 105.5t-98.5 39.5h-370q-66 0 -113 -39.5t-57 -105.5zM115 219l176 995q16 100 89 163t175 63h367q100 0 151 -61.5t35 -164.5l-176 -995q-18 -102 -92 -163.5
t-174 -61.5h-365q-102 0 -153 61.5t-33 163.5zM715 1540l119 162q10 10 22 10h68q12 0 2 -10l-148 -162q-10 -10 -26 -10h-33q-10 0 -4 10z" />
    <glyph glyph-name="Ocircumflex" unicode="&#xd4;" 
d="M369 1217l-176 -1000q-12 -66 20.5 -105.5t97.5 -39.5h371q66 0 113 40t59 105l176 1000q10 66 -22.5 105.5t-98.5 39.5h-370q-66 0 -113 -39.5t-57 -105.5zM115 219l176 995q16 100 89 163t175 63h367q100 0 151 -61.5t35 -164.5l-176 -995q-18 -102 -92 -163.5
t-174 -61.5h-365q-102 0 -153 61.5t-33 163.5zM827 1690l82 -148q4 -10 -8 -10h-39q-16 0 -22 12l-64 107l-104 -107q-8 -12 -25 -12h-39q-14 0 -4 10l133 148q8 12 27 12h43q14 0 20 -12z" />
    <glyph glyph-name="Otilde" unicode="&#xd5;" 
d="M369 1217l-176 -1000q-12 -66 20.5 -105.5t97.5 -39.5h371q66 0 113 40t59 105l176 1000q10 66 -22.5 105.5t-98.5 39.5h-370q-66 0 -113 -39.5t-57 -105.5zM115 219l176 995q16 100 89 163t175 63h367q100 0 151 -61.5t35 -164.5l-176 -995q-18 -102 -92 -163.5
t-174 -61.5h-365q-102 0 -153 61.5t-33 163.5zM575 1565l7 37q6 27 55 44t82 17q20 0 45 -10l59 -33q6 -6 21 -6q53 0 121 39q2 0 6 2q4 0 4 -10l-6 -37q-6 -27 -53.5 -42.5t-79.5 -15.5q-25 0 -45 11l-60 34q-12 4 -22 4q-57 0 -121 -40q-2 -2 -8 -3q-5 1 -5 9z" />
    <glyph glyph-name="Odieresis" unicode="&#xd6;" 
d="M369 1217l-176 -1000q-12 -66 20.5 -105.5t97.5 -39.5h371q66 0 113 40t59 105l176 1000q10 66 -22.5 105.5t-98.5 39.5h-370q-66 0 -113 -39.5t-57 -105.5zM115 219l176 995q16 100 89 163t175 63h367q100 0 151 -61.5t35 -164.5l-176 -995q-18 -102 -92 -163.5
t-174 -61.5h-365q-102 0 -153 61.5t-33 163.5zM866 1581l11 55q4 33 36 33h58q33 0 26 -33l-8 -55q-6 -33 -39 -33h-57q-33 0 -27 33zM539 1581l10 55q6 33 39 33h57q33 0 27 -33l-10 -55q-4 -33 -39 -33h-56q-32 0 -28 33z" />
    <glyph glyph-name="multiply" unicode="&#xd7;" 
d="M346 1006l238 -236l237 236q6 6 12.5 6t12.5 -6l26 -27q14 -10 0 -25l-235 -237l235 -236q10 -10 0 -24l-28 -27q-4 -6 -10 -6q-10 0 -13 6l-237 236l-236 -238q-8 -4 -12 -4t-12 4l-29 29q-8 12 0 24l237 236l-237 237q-14 12 0 23l29 29q4 6 10 6t12 -6z" />
    <glyph glyph-name="Oslash" unicode="&#xd8;" 
d="M291 72l583 1290h-335q-66 0 -113 -40t-57 -105l-176 -1000q-10 -61 16.5 -100t81.5 -45zM930 1362l-582 -1290h336q66 0 112 40t58 105l176 1000q10 61 -17.5 100t-82.5 45zM1001 1513l-36 -75q82 -14 119.5 -73.5t23.5 -150.5l-176 -995q-18 -102 -92 -163.5
t-174 -61.5h-353l-41 -88q-8 -12 -18 -8l-27 8q-12 4 -6 16l35 74q-80 14 -118 73.5t-23 149.5l176 995q16 100 89 163t175 63h354l41 86q2 10 13 10h6l26 -6q10 -3 6 -17z" />
    <glyph glyph-name="Ugrave" unicode="&#xd9;" 
d="M1071 1434h43q18 0 14 -17l-210 -1198q-16 -100 -89 -162.5t-176 -62.5h-340q-100 0 -151 61.5t-35 163.5l213 1198q0 16 18 17h45q14 0 15 -17l-213 -1200q-10 -66 22.5 -105.5t98.5 -39.5h342q66 0 112.5 40t59.5 105l211 1200q4 17 20 17zM725 1702l61 -162
q4 -10 -8 -10h-33q-16 0 -22 10l-90 162q-6 10 8 10h66q12 0 18 -10z" />
    <glyph glyph-name="Uacute" unicode="&#xda;" 
d="M1071 1434h43q18 0 14 -17l-210 -1198q-16 -100 -89 -162.5t-176 -62.5h-340q-100 0 -151 61.5t-35 163.5l213 1198q0 16 18 17h45q14 0 15 -17l-213 -1200q-10 -66 22.5 -105.5t98.5 -39.5h342q66 0 112.5 40t59.5 105l211 1200q4 17 20 17zM715 1540l119 162
q10 10 22 10h68q12 0 2 -10l-148 -162q-10 -10 -26 -10h-33q-10 0 -4 10z" />
    <glyph glyph-name="Ucircumflex" unicode="&#xdb;" 
d="M1071 1434h43q18 0 14 -17l-210 -1198q-16 -100 -89 -162.5t-176 -62.5h-340q-100 0 -151 61.5t-35 163.5l213 1198q0 16 18 17h45q14 0 15 -17l-213 -1200q-10 -66 22.5 -105.5t98.5 -39.5h342q66 0 112.5 40t59.5 105l211 1200q4 17 20 17zM827 1690l82 -148
q4 -10 -8 -10h-39q-16 0 -22 12l-64 107l-104 -107q-8 -12 -25 -12h-39q-14 0 -4 10l133 148q8 12 27 12h43q14 0 20 -12z" />
    <glyph glyph-name="Udieresis" unicode="&#xdc;" 
d="M1071 1434h43q18 0 14 -17l-210 -1198q-16 -100 -89 -162.5t-176 -62.5h-340q-100 0 -151 61.5t-35 163.5l213 1198q0 16 18 17h45q14 0 15 -17l-213 -1200q-10 -66 22.5 -105.5t98.5 -39.5h342q66 0 112.5 40t59.5 105l211 1200q4 17 20 17zM866 1581l11 55q4 33 36 33
h58q33 0 26 -33l-8 -55q-6 -33 -39 -33h-57q-33 0 -27 33zM539 1581l10 55q6 33 39 33h57q33 0 27 -33l-10 -55q-4 -33 -39 -33h-56q-32 0 -28 33z" />
    <glyph glyph-name="Yacute" unicode="&#xdd;" 
d="M1194 1417l-567 -831l-101 -570q0 -16 -18 -16h-45q-14 0 -14 16l100 570l-273 831q-4 16 13 17h51q16 0 20 -17l240 -717q4 -10 0 -41h4q4 29 14 41l492 717q10 16 27 17h51q16 -1 6 -17zM715 1540l121 162q10 10 22 10h68q12 0 2 -10l-148 -162q-10 -10 -26 -10h-33
q-12 0 -6 10z" />
    <glyph glyph-name="Thorn" unicode="&#xde;" 
d="M842 1071h-484l-122 -698h483q66 0 113 40t59 105l72 408q10 66 -22.5 105.5t-98.5 39.5zM705 295h-484l-49 -279q-4 -16 -20 -16h-43q-18 0 -15 16l248 1401q4 16 20 17h44q18 0 14 -17l-47 -268h481q100 0 151.5 -61.5t34.5 -163.5l-71 -404q-18 -102 -91 -163.5
t-173 -61.5z" />
    <glyph glyph-name="germandbls" unicode="&#xdf;" 
d="M563 1436h309q98 0 149.5 -54.5t35.5 -144.5l-37 -207q-23 -131 -133 -186q131 -45 102 -205l-76 -432q-16 -94 -85.5 -150.5t-168.5 -56.5h-231q-18 0 -14 16l8 39q4 18 18 19h230q68 0 112.5 38t57.5 101l75 436q12 68 -19.5 109t-98.5 41h-226q-18 0 -14 16l6 39
q4 18 21 18h184q68 0 116 41t58 109l39 209q10 59 -22.5 95t-100.5 36h-307q-63 0 -110.5 -39t-57.5 -102l-213 -1205q-4 -16 -20 -16h-41q-18 0 -15 16l213 1201q16 98 87 158.5t169 60.5z" />
    <glyph glyph-name="agrave" unicode="&#xe0;" 
d="M836 199l129 729q-231 137 -404 137q-94 0 -158.5 -50t-80.5 -134l-111 -635q-16 -84 32 -134.5t142 -50.5q98 0 231.5 47.5t219.5 90.5zM860 0h-41q-18 0 -14 16l16 99q-281 -127 -450 -127q-127 0 -191.5 70.5t-44.5 187.5l113 635q20 117 109 187.5t216 70.5
q170 0 406 -127l18 98q4 16 21 16h41q18 0 14 -16l-192 -1094q-5 -16 -21 -16zM674 1395l61 -162q4 -10 -8 -10h-33q-16 0 -22 10l-90 162q-10 10 6 10h67q13 0 19 -10z" />
    <glyph glyph-name="aacute" unicode="&#xe1;" 
d="M836 199l129 729q-231 137 -404 137q-94 0 -158.5 -50t-80.5 -134l-111 -635q-16 -84 32 -134.5t142 -50.5q98 0 231.5 47.5t219.5 90.5zM860 0h-41q-18 0 -14 16l16 99q-281 -127 -450 -127q-127 0 -191.5 70.5t-44.5 187.5l113 635q20 117 109 187.5t216 70.5
q170 0 406 -127l18 98q4 16 21 16h41q18 0 14 -16l-192 -1094q-5 -16 -21 -16zM672 1233l119 162q10 10 22 10h68q12 0 2 -10l-148 -162q-10 -10 -26 -10h-33q-10 0 -4 10z" />
    <glyph glyph-name="acircumflex" unicode="&#xe2;" 
d="M836 199l129 729q-231 137 -404 137q-94 0 -158.5 -50t-80.5 -134l-111 -635q-16 -84 32 -134.5t142 -50.5q98 0 231.5 47.5t219.5 90.5zM860 0h-41q-18 0 -14 16l16 99q-281 -127 -450 -127q-127 0 -191.5 70.5t-44.5 187.5l113 635q20 117 109 187.5t216 70.5
q170 0 406 -127l18 98q4 16 21 16h41q18 0 14 -16l-192 -1094q-5 -16 -21 -16zM780 1382l82 -147q4 -10 -8 -10h-41q-14 0 -20 12l-64 106l-104 -106q-10 -12 -27 -12h-37q-14 0 -4 10l133 147q10 12 27 13h41q16 -1 22 -13z" />
    <glyph glyph-name="atilde" unicode="&#xe3;" 
d="M836 199l129 729q-231 137 -404 137q-94 0 -158.5 -50t-80.5 -134l-111 -635q-16 -84 32 -134.5t142 -50.5q98 0 231.5 47.5t219.5 90.5zM860 0h-41q-18 0 -14 16l16 99q-281 -127 -450 -127q-127 0 -191.5 70.5t-44.5 187.5l113 635q20 117 109 187.5t216 70.5
q170 0 406 -127l18 98q4 16 21 16h41q18 0 14 -16l-192 -1094q-5 -16 -21 -16zM528 1257l7 37q6 27 55 44.5t82 17.5q20 0 45 -10l57 -33q8 -6 23 -6q53 0 121 39l2 2h4q4 0 4 -11l-6 -37q-6 -27 -53.5 -42t-80.5 -15q-23 0 -47 10l-57 35q-12 4 -22 4q-57 0 -121 -41
q-4 -2 -9 -2q-6 0 -4 8z" />
    <glyph glyph-name="adieresis" unicode="&#xe4;" 
d="M836 199l129 729q-231 137 -404 137q-94 0 -158.5 -50t-80.5 -134l-111 -635q-16 -84 32 -134.5t142 -50.5q98 0 231.5 47.5t219.5 90.5zM860 0h-41q-18 0 -14 16l16 99q-281 -127 -450 -127q-127 0 -191.5 70.5t-44.5 187.5l113 635q20 117 109 187.5t216 70.5
q170 0 406 -127l18 98q4 16 21 16h41q18 0 14 -16l-192 -1094q-5 -16 -21 -16zM492 1274l10 55q6 33 39 33h57q33 0 27 -33l-11 -55q-4 -33 -39 -33h-55q-32 0 -28 33zM819 1274l10 55q4 33 37 33h58q33 0 26 -33l-10 -55q-4 -33 -37 -33h-57q-33 0 -27 33z" />
    <glyph glyph-name="aring" unicode="&#xe5;" 
d="M836 199l129 729q-231 137 -404 137q-94 0 -158.5 -50t-80.5 -134l-111 -635q-16 -84 32 -134.5t142 -50.5q98 0 231.5 47.5t219.5 90.5zM661.5 1292.5q-4.5 -26.5 11 -45t42 -18.5t48 18.5t26 45t-10 45t-41 18.5t-49 -18.5t-27 -45zM860 0h-41q-18 0 -14 16l16 99
q-281 -127 -450 -127q-127 0 -191.5 70.5t-44.5 187.5l113 635q20 117 109 187.5t216 70.5q170 0 406 -127l18 98q4 16 21 16h41q18 0 14 -16l-192 -1094q-5 -16 -21 -16zM608 1292q8 47 49 81t88 34q49 0 77 -34t20 -81t-48 -81.5t-89 -34.5q-47 0 -76 34.5t-21 81.5z" />
    <glyph glyph-name="ae" unicode="&#xe6;" 
d="M487 211l60 332q-160 43 -250 43q-66 0 -114 -41t-60 -109l-41 -239q-12 -61 21.5 -98.5t93.5 -37.5q106 0 286 121q0 6 2 15.5t2 13.5zM967 1061h-111q-66 0 -112 -39t-56 -102l-57 -328h395l59 328q10 63 -21 102t-97 39zM1073 520h-455l-55 -307q-10 -66 21.5 -106.5
t95.5 -40.5h111q66 0 111.5 39.5t55.5 103.5l15 74q4 18 20 18h41q18 0 15 -18l-15 -72q-16 -98 -86.5 -157.5t-169.5 -59.5h-110q-145 0 -179 119q-195 -125 -317 -125q-88 0 -135 57t-31 152l41 239q18 98 89 158.5t163 60.5t260 -39l55 312q6 61 -26.5 97t-93.5 36h-105
q-68 0 -114 -42t-58 -110l-12 -63q-4 -18 -21 -19h-41q-18 0 -14 19l12 69q18 98 89 158t169 60h107q125 0 166 -86q74 86 196 86h111q98 0 147.5 -58.5t32.5 -156.5l-67 -381q-1 -17 -19 -17z" />
    <glyph glyph-name="ccedilla" unicode="&#xe7;" 
d="M555 -160l-6 -35q-14 -78 -92 -77h-105q-16 0 -12 14l4 22q4 16 18 17h97q31 0 37 31l4 24q4 31 -27 31h-59q-23 0 -13 20l35 107h-127q-98 0 -147 59.5t-33 157.5l123 704q18 98 89 158t169 60h348q98 0 147.5 -59.5t32.5 -158.5l-14 -81q-4 -16 -20 -17h-41
q-18 0 -15 17l15 84q12 63 -20 103t-97 40h-348q-63 0 -110.5 -39t-59.5 -104l-123 -709q-12 -63 19.5 -103t97.5 -40h348q66 0 111.5 39.5t56.5 103.5l14 84q4 16 20 16h41q18 0 15 -16l-15 -82q-16 -98 -86.5 -157.5t-169.5 -59.5h-161l-27 -76h20q35 0 53.5 -21.5
t12.5 -56.5z" />
    <glyph glyph-name="egrave" unicode="&#xe8;" 
d="M846 1061h-348q-66 0 -112 -39t-56 -102l-58 -328h633l60 328q10 63 -21.5 102t-97.5 39zM952 520h-694l-53 -307q-12 -66 19.5 -106.5t97.5 -40.5h348q66 0 111.5 39.5t56.5 103.5l14 74q4 18 20 18h41q18 0 15 -18l-15 -72q-16 -98 -86.5 -157.5t-169.5 -59.5h-348
q-98 0 -147 59.5t-33 157.5l125 704q16 98 87 158t169 60h348q98 0 147.5 -58.5t32.5 -156.5l-67 -381q-1 -17 -19 -17zM664 1395l61 -162q4 -10 -8 -10h-33q-16 0 -22 10l-91 162q-10 10 7 10h67q13 0 19 -10z" />
    <glyph glyph-name="eacute" unicode="&#xe9;" 
d="M846 1061h-348q-66 0 -112 -39t-56 -102l-58 -328h633l60 328q10 63 -21.5 102t-97.5 39zM952 520h-694l-53 -307q-12 -66 19.5 -106.5t97.5 -40.5h348q66 0 111.5 39.5t56.5 103.5l14 74q4 18 20 18h41q18 0 15 -18l-15 -72q-16 -98 -86.5 -157.5t-169.5 -59.5h-348
q-98 0 -147 59.5t-33 157.5l125 704q16 98 87 158t169 60h348q98 0 147.5 -58.5t32.5 -156.5l-67 -381q-1 -17 -19 -17zM664 1233l118 162q10 10 23 10h67q12 0 2 -10l-147 -162q-10 -10 -27 -10h-32q-14 0 -4 10z" />
    <glyph glyph-name="ecircumflex" unicode="&#xea;" 
d="M846 1061h-348q-66 0 -112 -39t-56 -102l-58 -328h633l60 328q10 63 -21.5 102t-97.5 39zM952 520h-694l-53 -307q-12 -66 19.5 -106.5t97.5 -40.5h348q66 0 111.5 39.5t56.5 103.5l14 74q4 18 20 18h41q18 0 15 -18l-15 -72q-16 -98 -86.5 -157.5t-169.5 -59.5h-348
q-98 0 -147 59.5t-33 157.5l125 704q16 98 87 158t169 60h348q98 0 147.5 -58.5t32.5 -156.5l-67 -381q-1 -17 -19 -17zM766 1382l80 -147q6 -10 -6 -10h-41q-14 0 -21 12l-65 106l-103 -106q-12 -12 -26 -12h-39q-10 0 -4 10l135 147q8 12 24 13h43q17 -1 23 -13z" />
    <glyph glyph-name="edieresis" unicode="&#xeb;" 
d="M846 1061h-348q-66 0 -112 -39t-56 -102l-58 -328h633l60 328q10 63 -21.5 102t-97.5 39zM952 520h-694l-53 -307q-12 -66 19.5 -106.5t97.5 -40.5h348q66 0 111.5 39.5t56.5 103.5l14 74q4 18 20 18h41q18 0 15 -18l-15 -72q-16 -98 -86.5 -157.5t-169.5 -59.5h-348
q-98 0 -147 59.5t-33 157.5l125 704q16 98 87 158t169 60h348q98 0 147.5 -58.5t32.5 -156.5l-67 -381q-1 -17 -19 -17zM477 1274l10 55q6 33 39 33h56q35 0 28 -33l-10 -55q-6 -33 -39 -33h-57q-33 0 -27 33zM803 1274l10 55q6 33 39 33h57q33 0 27 -33l-10 -55
q-6 -33 -39 -33h-56q-32 0 -28 33z" />
    <glyph glyph-name="igrave" unicode="&#xec;" 
d="M297 1073l8 37q4 16 19 16h391q14 0 14 -16l-184 -1038h332q18 0 14 -19l-8 -37q0 -16 -19 -16h-737q-18 0 -14 16l6 37q4 18 20 19h330l174 983h-332q-14 0 -14 18zM610 1395l62 -162q4 -10 -8 -10h-33q-16 0 -23 10l-90 162q-10 10 6 10h68q12 0 18 -10z" />
    <glyph glyph-name="iacute" unicode="&#xed;" 
d="M297 1073l8 37q4 16 19 16h391q14 0 14 -16l-184 -1038h332q18 0 14 -19l-8 -37q0 -16 -19 -16h-737q-18 0 -14 16l6 37q4 18 20 19h330l174 983h-332q-14 0 -14 18zM610 1233l119 162q10 10 23 10h67q12 0 2 -10l-147 -162q-10 -10 -27 -10h-33q-14 0 -4 10z" />
    <glyph glyph-name="icircumflex" unicode="&#xee;" 
d="M297 1073l8 37q4 16 19 16h391q14 0 14 -16l-184 -1038h332q18 0 14 -19l-8 -37q0 -16 -19 -16h-737q-18 0 -14 16l6 37q4 18 20 19h330l174 983h-332q-14 0 -14 18zM713 1382l82 -147q4 -10 -9 -10h-41q-14 0 -20 12l-66 106l-102 -106q-8 -12 -27 -12h-38q-10 0 -5 10
l136 147q8 12 24 13h43q17 -1 23 -13z" />
    <glyph glyph-name="idieresis" unicode="&#xef;" 
d="M297 1073l8 37q4 16 19 16h391q14 0 14 -16l-184 -1038h332q18 0 14 -19l-8 -37q0 -16 -19 -16h-737q-18 0 -14 16l6 37q4 18 20 19h330l174 983h-332q-14 0 -14 18zM424 1274l10 55q6 33 39 33h57q33 0 27 -33l-10 -55q-6 -33 -39 -33h-55q-35 0 -29 33zM750 1274l10 55
q6 33 39 33h57q33 0 27 -33l-11 -55q-4 -33 -38 -33h-56q-32 0 -28 33z" />
    <glyph glyph-name="eth" unicode="&#xf0;" 
d="M840 217l127 725q-256 119 -428 119q-84 0 -143.5 -51.5t-73.5 -135.5l-117 -665q-12 -66 19.5 -104.5t99.5 -38.5h344q68 0 114 41.5t58 109.5zM637 1239l61 96l-221 33q-23 6 -20 21l6 36q4 14 20 15h9l247 -39l68 106q8 10 22 11l27 -15q12 -6 6 -20l-57 -92l22 -2
q139 -20 203 -93t45 -176l-162 -909q-16 -98 -86.5 -157.5t-169.5 -59.5h-348q-98 0 -148 57.5t-34 151.5l119 671q23 117 104.5 189t194.5 72q186 0 436 -113l18 104q12 70 -36 123.5t-144 67.5l-57 8l-70 -113q-6 -10 -16 -10q-4 0 -6 2l-27 15q-14 4 -6 20z" />
    <glyph glyph-name="ntilde" unicode="&#xf1;" 
d="M307 1126h41q18 0 14 -16l-16 -98q281 127 453 127q125 0 189.5 -72t43.5 -188l-151 -863q-4 -16 -21 -16h-41q-18 0 -14 16l151 863q16 84 -30.5 135t-141.5 51q-96 0 -232 -47t-220 -90l-162 -912q-4 -16 -20 -16h-41q-18 0 -15 16l193 1094q4 16 20 16zM510 1257l6 37
q6 27 55.5 44.5t81.5 17.5q20 0 45 -10l60 -33q6 -6 20 -6q53 0 121 39q2 0 6 2q8 0 4 -11l-6 -37q-6 -27 -53 -42t-80 -15q-25 0 -45 10l-59 35q-12 4 -23 4q-57 0 -121 -41q-2 -2 -8 -2q-4 0 -4 8z" />
    <glyph glyph-name="ograve" unicode="&#xf2;" 
d="M330 918l-125 -709q-12 -63 19.5 -103t97.5 -40h348q66 0 111.5 39.5t56.5 103.5l125 709q12 63 -20 103t-97 40h-348q-66 0 -112 -40t-56 -103zM129 211l125 704q16 98 87 158t169 60h348q98 0 147.5 -59.5t32.5 -158.5l-125 -704q-16 -98 -86.5 -157.5t-169.5 -59.5
h-348q-98 0 -147 59.5t-33 157.5zM670 1395l63 -162q4 -10 -8 -10h-33q-16 0 -22 10l-90 162q-10 10 6 10h67q13 0 17 -10z" />
    <glyph glyph-name="oacute" unicode="&#xf3;" 
d="M330 918l-125 -709q-12 -63 19.5 -103t97.5 -40h348q66 0 111.5 39.5t56.5 103.5l125 709q12 63 -20 103t-97 40h-348q-66 0 -112 -40t-56 -103zM129 211l125 704q16 98 87 158t169 60h348q98 0 147.5 -59.5t32.5 -158.5l-125 -704q-16 -98 -86.5 -157.5t-169.5 -59.5
h-348q-98 0 -147 59.5t-33 157.5zM670 1233l121 162q10 10 22 10h68q12 0 2 -10l-148 -162q-10 -10 -26 -10h-33q-12 0 -6 10z" />
    <glyph glyph-name="ocircumflex" unicode="&#xf4;" 
d="M330 918l-125 -709q-12 -63 19.5 -103t97.5 -40h348q66 0 111.5 39.5t56.5 103.5l125 709q12 63 -20 103t-97 40h-348q-66 0 -112 -40t-56 -103zM129 211l125 704q16 98 87 158t169 60h348q98 0 147.5 -59.5t32.5 -158.5l-125 -704q-16 -98 -86.5 -157.5t-169.5 -59.5
h-348q-98 0 -147 59.5t-33 157.5zM774 1382l80 -147q6 -10 -6 -10h-41q-14 0 -21 12l-65 106l-103 -106q-12 -12 -26 -12h-39q-10 0 -4 10l135 147q8 12 25 13h43q16 -1 22 -13z" />
    <glyph glyph-name="otilde" unicode="&#xf5;" 
d="M330 918l-125 -709q-12 -63 19.5 -103t97.5 -40h348q66 0 111.5 39.5t56.5 103.5l125 709q12 63 -20 103t-97 40h-348q-66 0 -112 -40t-56 -103zM129 211l125 704q16 98 87 158t169 60h348q98 0 147.5 -59.5t32.5 -158.5l-125 -704q-16 -98 -86.5 -157.5t-169.5 -59.5
h-348q-98 0 -147 59.5t-33 157.5zM522 1257l6 37q4 27 54.5 44.5t81.5 17.5q25 0 45 -10l59 -33q10 -6 23 -6q57 0 118 39l6 2q6 0 7 -11l-9 -37q-4 -27 -51 -42t-80 -15q-23 0 -47 10l-59 35q-12 4 -23 4q-55 0 -118 -41q-4 -2 -9 -2q-6 0 -4 8z" />
    <glyph glyph-name="odieresis" unicode="&#xf6;" 
d="M330 918l-125 -709q-12 -63 19.5 -103t97.5 -40h348q66 0 111.5 39.5t56.5 103.5l125 709q12 63 -20 103t-97 40h-348q-66 0 -112 -40t-56 -103zM129 211l125 704q16 98 87 158t169 60h348q98 0 147.5 -59.5t32.5 -158.5l-125 -704q-16 -98 -86.5 -157.5t-169.5 -59.5
h-348q-98 0 -147 59.5t-33 157.5zM811 1274l10 55q6 33 39 33h58q33 0 26 -33l-10 -55q-6 -33 -39 -33h-57q-31 0 -27 33zM485 1274l11 55q6 33 39 33h55q35 0 28 -33l-10 -55q-6 -33 -39 -33h-57q-33 0 -27 33z" />
    <glyph glyph-name="divide" unicode="&#xf7;" 
d="M285 700v39q0 16 18 17h561q18 0 19 -17v-39q0 -18 -19 -18h-561q-18 0 -18 18zM526 1012v65q0 27 27 27h63q27 0 27 -27v-65q0 -27 -27 -27h-63q-27 0 -27 27zM524 360v66q0 27 27 27h63q27 0 27 -27v-66q0 -27 -27 -26h-63q-27 -1 -27 26z" />
    <glyph glyph-name="oslash" unicode="&#xf8;" 
d="M293 68l528 993h-323q-63 0 -110.5 -40t-57.5 -103l-125 -709q-10 -57 13.5 -94t74.5 -47zM872 1059l-526 -993h324q66 0 111.5 39.5t56.5 103.5l125 709q10 57 -14 94t-77 47zM217 -76l39 74q-74 16 -107.5 72.5t-19.5 140.5l125 704q16 98 87 158t169 60h348l47 88
q6 8 15 8h6l20 -8q12 -4 4 -17l-39 -76q74 -16 108 -72.5t19 -140.5l-125 -704q-16 -98 -86.5 -157.5t-169.5 -59.5h-348l-47 -88q-8 -12 -18 -8l-23 8q-10 6 -4 18z" />
    <glyph glyph-name="ugrave" unicode="&#xf9;" 
d="M860 0h-41q-18 0 -14 16l16 99q-281 -127 -452 -127q-127 0 -190.5 71.5t-43.5 188.5l152 862q4 16 20 16h41q18 0 14 -16l-151 -862q-16 -84 31 -135.5t141 -51.5q96 0 232.5 47.5t220.5 90.5l161 911q4 16 21 16h41q18 0 14 -16l-192 -1094q-5 -16 -21 -16zM670 1395
l63 -162q4 -10 -8 -10h-33q-16 0 -22 10l-90 162q-10 10 6 10h67q13 0 17 -10z" />
    <glyph glyph-name="uacute" unicode="&#xfa;" 
d="M860 0h-41q-18 0 -14 16l16 99q-281 -127 -452 -127q-127 0 -190.5 71.5t-43.5 188.5l152 862q4 16 20 16h41q18 0 14 -16l-151 -862q-16 -84 31 -135.5t141 -51.5q96 0 232.5 47.5t220.5 90.5l161 911q4 16 21 16h41q18 0 14 -16l-192 -1094q-5 -16 -21 -16zM670 1233
l121 162q10 10 22 10h68q12 0 2 -10l-148 -162q-10 -10 -26 -10h-33q-12 0 -6 10z" />
    <glyph glyph-name="ucircumflex" unicode="&#xfb;" 
d="M860 0h-41q-18 0 -14 16l16 99q-281 -127 -452 -127q-127 0 -190.5 71.5t-43.5 188.5l152 862q4 16 20 16h41q18 0 14 -16l-151 -862q-16 -84 31 -135.5t141 -51.5q96 0 232.5 47.5t220.5 90.5l161 911q4 16 21 16h41q18 0 14 -16l-192 -1094q-5 -16 -21 -16zM774 1382
l80 -147q6 -10 -6 -10h-41q-14 0 -21 12l-65 106l-103 -106q-12 -12 -26 -12h-39q-10 0 -4 10l135 147q8 12 25 13h43q16 -1 22 -13z" />
    <glyph glyph-name="udieresis" unicode="&#xfc;" 
d="M860 0h-41q-18 0 -14 16l16 99q-281 -127 -452 -127q-127 0 -190.5 71.5t-43.5 188.5l152 862q4 16 20 16h41q18 0 14 -16l-151 -862q-16 -84 31 -135.5t141 -51.5q96 0 232.5 47.5t220.5 90.5l161 911q4 16 21 16h41q18 0 14 -16l-192 -1094q-5 -16 -21 -16zM485 1274
l11 55q6 33 39 33h55q35 0 28 -33l-10 -55q-6 -33 -39 -33h-57q-33 0 -27 33zM811 1274l10 55q6 33 39 33h58q33 0 26 -33l-10 -55q-6 -33 -39 -33h-57q-31 0 -27 33z" />
    <glyph glyph-name="yacute" unicode="&#xfd;" 
d="M362 1110l-151 -862q-16 -84 32 -135.5t142 -51.5q98 0 231.5 47.5t219.5 90.5l161 911q4 16 21 16h41q18 0 14 -16l-203 -1151q-25 -133 -148.5 -205.5t-315.5 -72.5q-174 0 -279 34q-18 2 -25.5 8.5t-5.5 14.5l6 41q4 10 17 10h12q113 -35 279 -35q164 0 266 55.5
t119 155.5l26 150q-281 -127 -448 -127q-129 0 -193.5 71.5t-44.5 188.5l152 862q4 16 20 16h41q18 0 14 -16zM666 1233l147 162q14 10 27 10h65q12 0 2 -10l-176 -162q-14 -10 -29 -10h-34q-12 0 -2 10z" />
    <glyph glyph-name="thorn" unicode="&#xfe;" 
d="M332 928l-129 -729q231 -137 403 -138q94 0 158.5 49.5t79.5 129.5l114 647q14 82 -33.5 130t-142.5 48q-98 0 -231 -47t-219 -90zM96 -307h-41q-18 0 -14 16l301 1708q4 16 20 17h41q14 0 15 -17l-72 -405q281 127 453 127q125 0 190.5 -69t44.5 -179l-114 -651
q-20 -115 -109.5 -183.5t-216.5 -68.5q-170 0 -406 127l-71 -406q-5 -16 -21 -16z" />
    <glyph glyph-name="ydieresis" unicode="&#xff;" 
d="M362 1110l-151 -862q-16 -84 32 -135.5t142 -51.5q98 0 231.5 47.5t219.5 90.5l161 911q4 16 21 16h41q18 0 14 -16l-203 -1151q-25 -133 -148.5 -205.5t-315.5 -72.5q-174 0 -279 34q-18 2 -25.5 8.5t-5.5 14.5l6 41q4 10 17 10h12q113 -35 279 -35q164 0 266 55.5
t119 155.5l26 150q-281 -127 -448 -127q-129 0 -193.5 71.5t-44.5 188.5l152 862q4 16 20 16h41q18 0 14 -16zM477 1274l10 55q6 33 39 33h58q33 0 26 -33l-10 -55q-4 -33 -39 -33h-55q-33 0 -29 33zM805 1274l10 55q4 33 37 33h57q33 0 27 -33l-8 -55q-6 -33 -39 -33h-58
q-32 0 -26 33z" />
    <glyph glyph-name="Amacron" unicode="&#x100;" 
d="M270 377h561l-118 880q-2 10 4 43h-8q-6 -39 -9 -43zM844 299h-611l-139 -283q-6 -16 -24 -16h-45q-16 0 -11 16l680 1401q10 16 27 17h33q16 0 20 -17l187 -1401q4 -16 -15 -16h-45q-16 0 -20 16zM614 1577l7 33q0 14 16 14h268q12 0 13 -14l-7 -33q-4 -14 -18 -14h-266
q-17 0 -13 14z" />
    <glyph glyph-name="amacron" unicode="&#x101;" 
d="M836 199l129 729q-231 137 -404 137q-94 0 -158.5 -50t-80.5 -134l-111 -635q-16 -84 32 -134.5t142 -50.5q98 0 231.5 47.5t219.5 90.5zM860 0h-41q-18 0 -14 16l16 99q-281 -127 -450 -127q-127 0 -191.5 70.5t-44.5 187.5l113 635q20 117 109 187.5t216 70.5
q170 0 406 -127l18 98q4 16 21 16h41q18 0 14 -16l-192 -1094q-5 -16 -21 -16zM567 1270l4 33q4 14 19 14h266q16 0 12 -14l-4 -33q-4 -14 -18 -15h-266q-17 1 -13 15z" />
    <glyph glyph-name="Abreve" unicode="&#x102;" 
d="M270 377h561l-118 880q-2 10 4 43h-8q-6 -39 -9 -43zM844 299h-611l-139 -283q-6 -16 -24 -16h-45q-16 0 -11 16l680 1401q10 16 27 17h33q16 0 20 -17l187 -1401q4 -16 -15 -16h-45q-16 0 -20 16zM926 1659l-2 -14q-10 -51 -48 -83t-92 -32h-61q-53 0 -80 31.5t-18 83.5
l2 14q4 14 18 14h29q14 0 14 -14l-2 -21q-4 -23 8.5 -37t34.5 -14h72q51 0 61 51l4 21q4 14 19 14h28q17 0 13 -14z" />
    <glyph glyph-name="abreve" unicode="&#x103;" 
d="M836 199l129 729q-231 137 -404 137q-94 0 -158.5 -50t-80.5 -134l-111 -635q-16 -84 32 -134.5t142 -50.5q98 0 231.5 47.5t219.5 90.5zM860 0h-41q-18 0 -14 16l16 99q-281 -127 -450 -127q-127 0 -191.5 70.5t-44.5 187.5l113 635q20 117 109 187.5t216 70.5
q170 0 406 -127l18 98q4 16 21 16h41q18 0 14 -16l-192 -1094q-5 -16 -21 -16zM879 1352l-2 -15q-10 -51 -48 -82.5t-92 -31.5h-61q-53 0 -80 31.5t-18 82.5l2 15q4 14 18 14h29q14 0 14 -14l-4 -21q-6 -51 45 -51h70q53 0 63 51l4 21q4 14 19 14h28q17 0 13 -14z" />
    <glyph glyph-name="Aogonek" unicode="&#x104;" 
d="M270 377h564l-121 880q-2 10 4 43h-6q-6 -35 -11 -43zM897 0h-4q-6 0 -10 8l-39 291h-611l-139 -283q-6 -16 -24 -16h-45q-16 0 -11 16l680 1401q10 16 27 17h33q16 0 20 -17l180 -1417h-2q-76 -94 -88 -162q-10 -35 23 -35h90q14 0 12 -14l-4 -25q-4 -14 -18 -14h-103
q-33 0 -49 19.5t-10 52.5q16 100 92 178z" />
    <glyph glyph-name="aogonek" unicode="&#x105;" 
d="M836 199l129 729q-231 137 -404 137q-94 0 -158.5 -50t-80.5 -134l-111 -635q-16 -84 32 -134.5t142 -50.5q168 1 451 138zM811 0l-8 10l18 105q-291 -127 -450 -127q-127 0 -191.5 70.5t-44.5 187.5l113 635q20 117 109 187.5t216 70.5q170 0 406 -127l18 98q4 16 21 16
h41q18 0 14 -16l-194 -1100q-4 -10 -13 -10q-74 -88 -90 -162q-6 -35 23 -35h92q16 0 10 -14l-4 -25q0 -14 -16 -14h-103q-33 0 -50 19.5t-11 52.5q16 96 94 178z" />
    <glyph glyph-name="Cacute" unicode="&#x106;" 
d="M885 387h43q18 0 14 -16l-27 -152q-18 -102 -90.5 -163.5t-173.5 -61.5h-336q-102 0 -152 62.5t-32 162.5l174 995q18 100 92 163t174 63h334q102 0 153.5 -62.5t33.5 -163.5l-27 -151q-4 -16 -21 -16h-43q-18 0 -14 16l27 154q12 66 -20.5 105.5t-98.5 39.5h-340
q-66 0 -113 -40t-57 -105l-178 -1000q-10 -66 22.5 -105.5t98.5 -39.5h338q66 0 112.5 40t59.5 105l26 154q5 16 21 16zM715 1540l121 162q10 10 22 10h66q14 0 4 -10l-148 -162q-10 -10 -26 -10h-33q-12 0 -6 10z" />
    <glyph glyph-name="cacute" unicode="&#x107;" 
d="M322 66h348q66 0 111.5 39.5t56.5 103.5l14 84q4 16 20 16h41q18 0 15 -16l-15 -82q-16 -98 -86.5 -157.5t-169.5 -59.5h-348q-98 0 -147 59.5t-33 157.5l123 704q18 98 89 158t169 60h348q98 0 147.5 -59.5t32.5 -158.5l-14 -81q-4 -16 -20 -17h-41q-18 0 -15 17l15 84
q12 63 -20 103t-97 40h-348q-63 0 -110.5 -39t-59.5 -104l-123 -709q-12 -63 19.5 -103t97.5 -40zM684 1233l119 162q10 10 24 10h66q10 0 4 -10l-149 -162q-6 -10 -25 -10h-35q-10 0 -4 10z" />
    <glyph glyph-name="Ccircumflex" unicode="&#x108;" 
d="M885 387h43q18 0 14 -16l-27 -152q-18 -102 -90.5 -163.5t-173.5 -61.5h-336q-102 0 -152 62.5t-32 162.5l174 995q18 100 92 163t174 63h334q102 0 153.5 -62.5t33.5 -163.5l-27 -151q-4 -16 -21 -16h-43q-18 0 -14 16l27 154q12 66 -20.5 105.5t-98.5 39.5h-340
q-66 0 -113 -40t-57 -105l-178 -1000q-10 -66 22.5 -105.5t98.5 -39.5h338q66 0 112.5 40t59.5 105l26 154q5 16 21 16zM829 1690l80 -148q6 -10 -6 -10h-41q-14 0 -20 12l-66 107l-102 -107q-12 -12 -27 -12h-39q-10 0 -4 10l135 148q10 12 25 12h43q16 0 22 -12z" />
    <glyph glyph-name="ccircumflex" unicode="&#x109;" 
d="M322 66h348q66 0 111.5 39.5t56.5 103.5l14 84q4 16 20 16h41q18 0 15 -16l-15 -82q-16 -98 -86.5 -157.5t-169.5 -59.5h-348q-98 0 -147 59.5t-33 157.5l123 704q18 98 89 158t169 60h348q98 0 147.5 -59.5t32.5 -158.5l-14 -81q-4 -16 -20 -17h-41q-18 0 -15 17l15 84
q12 63 -20 103t-97 40h-348q-63 0 -110.5 -39t-59.5 -104l-123 -709q-12 -63 19.5 -103t97.5 -40zM786 1382l82 -147q4 -10 -8 -10h-39q-16 0 -22 12l-64 106l-104 -106q-8 -12 -25 -12h-39q-14 0 -4 10l133 147q12 12 27 13h43q14 -1 20 -13z" />
    <glyph glyph-name="Cdotaccent" unicode="&#x10a;" 
d="M885 387h43q18 0 14 -16l-27 -152q-18 -102 -90.5 -163.5t-173.5 -61.5h-336q-102 0 -152 62.5t-32 162.5l174 995q18 100 92 163t174 63h334q102 0 153.5 -62.5t33.5 -163.5l-27 -151q-4 -16 -21 -16h-43q-18 0 -14 16l27 154q12 66 -20.5 105.5t-98.5 39.5h-340
q-66 0 -113 -40t-57 -105l-178 -1000q-10 -66 22.5 -105.5t98.5 -39.5h338q66 0 112.5 40t59.5 105l26 154q5 16 21 16zM700 1581l11 61q8 33 39 33h63q35 0 27 -33l-11 -61q-6 -33 -38 -33h-64q-33 0 -27 33z" />
    <glyph glyph-name="cdotaccent" unicode="&#x10b;" 
d="M322 66h348q66 0 111.5 39.5t56.5 103.5l14 84q4 16 20 16h41q18 0 15 -16l-15 -82q-16 -98 -86.5 -157.5t-169.5 -59.5h-348q-98 0 -147 59.5t-33 157.5l123 704q18 98 89 158t169 60h348q98 0 147.5 -59.5t32.5 -158.5l-14 -81q-4 -16 -20 -17h-41q-18 0 -15 17l15 84
q12 63 -20 103t-97 40h-348q-63 0 -110.5 -39t-59.5 -104l-123 -709q-12 -63 19.5 -103t97.5 -40zM657 1274l11 61q8 33 39 33h63q33 0 29 -33l-13 -61q-4 -33 -38 -33h-64q-33 0 -27 33z" />
    <glyph glyph-name="Ccaron" unicode="&#x10c;" 
d="M885 387h43q18 0 14 -16l-27 -152q-18 -102 -90.5 -163.5t-173.5 -61.5h-336q-102 0 -152 62.5t-32 162.5l174 995q18 100 92 163t174 63h334q102 0 153.5 -62.5t33.5 -163.5l-27 -151q-4 -16 -21 -16h-43q-18 0 -14 16l27 154q12 66 -20.5 105.5t-98.5 39.5h-340
q-66 0 -113 -40t-57 -105l-178 -1000q-10 -66 22.5 -105.5t98.5 -39.5h338q66 0 112.5 40t59.5 105l26 154q5 16 21 16zM936 1692l-133 -148q-8 -12 -27 -12h-41q-16 0 -22 12l-82 148q-4 10 8 10h39q14 0 20 -12l66 -107l102 107q16 12 27 12h39q14 0 4 -10z" />
    <glyph glyph-name="ccaron" unicode="&#x10d;" 
d="M322 66h348q66 0 111.5 39.5t56.5 103.5l14 84q4 16 20 16h41q18 0 15 -16l-15 -82q-16 -98 -86.5 -157.5t-169.5 -59.5h-348q-98 0 -147 59.5t-33 157.5l123 704q18 98 89 158t169 60h348q98 0 147.5 -59.5t32.5 -158.5l-14 -81q-4 -16 -20 -17h-41q-18 0 -15 17l15 84
q12 63 -20 103t-97 40h-348q-63 0 -110.5 -39t-59.5 -104l-123 -709q-12 -63 19.5 -103t97.5 -40zM895 1384l-133 -147q-12 -12 -27 -12h-43q-14 0 -20 12l-82 147q-6 10 8 11h37q16 0 22 -13l66 -106l102 106q12 12 25 13h41q14 -1 4 -11z" />
    <glyph glyph-name="Dcaron" unicode="&#x10e;" 
d="M408 1356l-226 -1278h486q66 0 112.5 40t57.5 105l174 987q12 66 -21 106t-98 40h-485zM94 16l248 1401q4 16 20 17h543q102 0 152.5 -61.5t32.5 -164.5l-172 -983q-18 -100 -91 -162.5t-176 -62.5h-542q-19 0 -15 16zM895 1692l-135 -148q-10 -12 -25 -12h-43
q-16 0 -22 12l-80 148q-6 10 6 10h39q16 0 22 -12l66 -107l102 107q12 12 25 12h41q10 0 4 -10z" />
    <glyph glyph-name="dcaron" unicode="&#x10f;" 
d="M750 197l129 733q-203 135 -342 135q-82 0 -140.5 -50t-74.5 -134l-111 -635q-16 -84 24.5 -134.5t122.5 -50.5q138 1 392 136zM985 1434h41q18 0 14 -17l-247 -1401q0 -16 -19 -16h-41q-18 0 -14 16l16 99q-246 -127 -397 -127q-113 0 -168 70.5t-35 187.5l113 635
q20 117 100 187.5t193 70.5q150 0 352 -127l72 405q4 17 20 17zM1143 1243l55 170q6 20 29 21h59q23 0 12 -21l-81 -170q-10 -20 -29 -20h-33q-18 0 -12 20z" />
    <glyph glyph-name="Dcroat" unicode="&#x110;" 
d="M578 715h-283l-113 -637h486q66 0 112.5 40t57.5 105l174 987q12 66 -21 106t-98 40h-485l-101 -574h283q18 0 14 -16l-6 -35q-4 -16 -20 -16zM72 731l6 35q4 16 20 16h131l113 635q4 16 20 17h543q102 0 152.5 -61.5t32.5 -164.5l-172 -983q-18 -100 -91 -162.5
t-176 -62.5h-542q-18 0 -15 16l123 699h-131q-18 0 -14 16z" />
    <glyph glyph-name="dcroat" unicode="&#x111;" 
d="M836 199l129 729q-231 137 -402 137q-94 0 -159.5 -50t-81.5 -134l-111 -635q-16 -84 32 -134.5t142 -50.5q98 0 231.5 47.5t219.5 90.5zM668 1251l6 35q2 14 16 14h340l21 117q4 16 20 17h41q18 0 14 -17l-20 -117h141q12 0 13 -14l-7 -35q-4 -14 -18 -14h-139
l-215 -1221q-4 -16 -21 -16h-41q-18 0 -14 16l16 99q-281 -127 -450 -127q-127 0 -191.5 70.5t-44.5 187.5l113 635q20 117 109 187.5t216 70.5q170 0 406 -127l41 225h-340q-16 0 -12 14z" />
    <glyph glyph-name="Emacron" unicode="&#x112;" 
d="M94 16l248 1401q4 16 20 17h750q18 0 14 -17l-8 -45q0 -16 -18 -16h-692l-113 -649h508q18 0 14 -17l-8 -43q-4 -18 -21 -18h-507l-99 -551h692q16 0 13 -17l-6 -45q-4 -16 -21 -16h-751q-19 0 -15 16zM604 1577l6 33q0 14 17 14h268q12 0 12 -14l-6 -33q-4 -14 -18 -14
h-267q-16 0 -12 14z" />
    <glyph glyph-name="emacron" unicode="&#x113;" 
d="M846 1061h-348q-66 0 -112 -39t-56 -102l-58 -328h633l60 328q10 63 -21.5 102t-97.5 39zM952 520h-694l-53 -307q-12 -66 19.5 -106.5t97.5 -40.5h348q66 0 111.5 39.5t56.5 103.5l14 74q4 18 20 18h41q18 0 15 -18l-15 -72q-16 -98 -86.5 -157.5t-169.5 -59.5h-348
q-98 0 -147 59.5t-33 157.5l125 704q16 98 87 158t169 60h348q98 0 147.5 -58.5t32.5 -156.5l-67 -381q-1 -17 -19 -17zM551 1270l6 33q4 14 18 14h267q16 0 12 -14l-6 -33q0 -14 -17 -15h-268q-12 1 -12 15z" />
    <glyph glyph-name="Ebreve" unicode="&#x114;" 
d="M94 16l248 1401q4 16 20 17h750q18 0 14 -17l-8 -45q0 -16 -18 -16h-692l-113 -649h508q18 0 14 -17l-8 -43q-4 -18 -21 -18h-507l-99 -551h692q16 0 13 -17l-6 -45q-4 -16 -21 -16h-751q-19 0 -15 16zM915 1659l-2 -14q-10 -51 -48 -83t-91 -32h-61q-53 0 -80 31.5
t-19 83.5l2 14q4 14 19 14h29q14 0 14 -14l-2 -21q-4 -23 8 -37t35 -14h72q51 0 61 51l4 21q4 14 18 14h29q16 0 12 -14z" />
    <glyph glyph-name="ebreve" unicode="&#x115;" 
d="M846 1061h-348q-66 0 -112 -39t-56 -102l-58 -328h633l60 328q10 63 -21.5 102t-97.5 39zM952 520h-694l-53 -307q-12 -66 19.5 -106.5t97.5 -40.5h348q66 0 111.5 39.5t56.5 103.5l14 74q4 18 20 18h41q18 0 15 -18l-15 -72q-16 -98 -86.5 -157.5t-169.5 -59.5h-348
q-98 0 -147 59.5t-33 157.5l125 704q16 98 87 158t169 60h348q98 0 147.5 -58.5t32.5 -156.5l-67 -381q-1 -17 -19 -17zM864 1352l-2 -15q-10 -51 -48 -82.5t-91 -31.5h-61q-53 0 -80 31.5t-19 82.5l2 15q4 14 17 14h30q16 0 13 -14l-2 -21q-6 -51 43 -51h71q51 0 62 51
l6 21q4 14 18 14h29q16 0 12 -14z" />
    <glyph glyph-name="Edotaccent" unicode="&#x116;" 
d="M94 16l248 1401q4 16 20 17h750q18 0 14 -17l-8 -45q0 -16 -18 -16h-692l-113 -649h508q18 0 14 -17l-8 -43q-4 -18 -21 -18h-507l-99 -551h692q16 0 13 -17l-6 -45q-4 -16 -21 -16h-751q-19 0 -15 16zM688 1581l10 61q8 33 39 33h64q35 0 26 -33l-10 -61q-6 -33 -39 -33
h-63q-33 0 -27 33z" />
    <glyph glyph-name="edotaccent" unicode="&#x117;" 
d="M846 1061h-348q-66 0 -112 -39t-56 -102l-58 -328h633l60 328q10 63 -21.5 102t-97.5 39zM952 520h-694l-53 -307q-12 -66 19.5 -106.5t97.5 -40.5h348q66 0 111.5 39.5t56.5 103.5l14 74q4 18 20 18h41q18 0 15 -18l-15 -72q-16 -98 -86.5 -157.5t-169.5 -59.5h-348
q-98 0 -147 59.5t-33 157.5l125 704q16 98 87 158t169 60h348q98 0 147.5 -58.5t32.5 -156.5l-67 -381q-1 -17 -19 -17zM637 1274l10 61q8 33 39 33h64q35 0 26 -33l-10 -61q-6 -33 -39 -33h-63q-33 0 -27 33z" />
    <glyph glyph-name="Eogonek" unicode="&#x118;" 
d="M745 0h-636q-18 0 -15 16l248 1401q4 16 20 17h750q18 0 14 -17l-8 -45q0 -16 -18 -16h-692l-113 -649h508q18 0 14 -17l-8 -43q-4 -18 -21 -18h-507l-99 -551h692q16 0 13 -17l-6 -45q-4 -16 -21 -16h-57q-72 -86 -88 -158q-6 -35 22 -35h90q16 0 13 -14l-4 -24
q-4 -16 -17 -17h-104q-33 0 -49.5 20.5t-10.5 53.5q16 94 90 174z" />
    <glyph glyph-name="eogonek" unicode="&#x119;" 
d="M846 1061h-348q-66 0 -112 -39t-56 -102l-58 -328h633l60 328q10 63 -21.5 102t-97.5 39zM606 -6h-297q-98 0 -147 59.5t-33 157.5l125 704q16 98 87 158t169 60h348q98 0 147.5 -58.5t32.5 -156.5l-67 -381q0 -16 -19 -17h-694l-53 -307q-12 -66 19.5 -106.5t97.5 -40.5
h348q66 0 111.5 39.5t56.5 103.5l14 74q4 18 20 18h41q18 0 15 -18l-15 -72q-16 -96 -84.5 -155.5t-164.5 -61.5q-68 -90 -80 -152q-10 -35 22 -35h90q16 0 13 -14l-4 -24q-4 -16 -19 -17h-102q-33 0 -49.5 20.5t-10.5 53.5q12 84 82 168z" />
    <glyph glyph-name="Ecaron" unicode="&#x11a;" 
d="M94 16l248 1401q4 16 20 17h750q18 0 14 -17l-8 -45q0 -16 -18 -16h-692l-113 -649h508q18 0 14 -17l-8 -43q-4 -18 -21 -18h-507l-99 -551h692q16 0 13 -17l-6 -45q-4 -16 -21 -16h-751q-19 0 -15 16zM926 1692l-135 -148q-8 -12 -25 -12h-43q-16 0 -23 12l-79 148
q-6 10 6 10h39q16 0 22 -12l66 -107l102 107q12 12 25 12h41q10 0 4 -10z" />
    <glyph glyph-name="ecaron" unicode="&#x11b;" 
d="M846 1061h-348q-66 0 -112 -39t-56 -102l-58 -328h633l60 328q10 63 -21.5 102t-97.5 39zM952 520h-694l-53 -307q-12 -66 19.5 -106.5t97.5 -40.5h348q66 0 111.5 39.5t56.5 103.5l14 74q4 18 20 18h41q18 0 15 -18l-15 -72q-16 -98 -86.5 -157.5t-169.5 -59.5h-348
q-98 0 -147 59.5t-33 157.5l125 704q16 98 87 158t169 60h348q98 0 147.5 -58.5t32.5 -156.5l-67 -381q-1 -17 -19 -17zM872 1384l-133 -147q-10 -12 -26 -12h-41q-16 0 -23 12l-82 147q-4 10 8 11h39q14 0 21 -13l65 -106l103 106q16 12 26 13h39q14 -1 4 -11z" />
    <glyph glyph-name="Gcircumflex" unicode="&#x11c;" 
d="M643 649l8 43q0 16 19 17h315q18 0 14 -17l-84 -473q-18 -102 -90.5 -163.5t-173.5 -61.5h-336q-102 0 -152 62.5t-32 162.5l174 995q18 100 92 163t174 63h334q102 0 153.5 -62.5t33.5 -163.5l-27 -151q-4 -16 -21 -16h-43q-18 0 -14 16l27 154q12 66 -20.5 105.5
t-98.5 39.5h-340q-66 0 -113 -40t-57 -105l-178 -1000q-10 -66 22.5 -105.5t98.5 -39.5h338q66 0 112.5 40t59.5 105l73 414h-254q-18 0 -14 18zM858 1849l82 -149q4 -10 -8 -10h-41q-12 0 -21 12l-63 108l-105 -108q-12 -12 -26 -12h-39q-10 0 -4 10l135 149q12 12 25 13
h43q14 -1 22 -13z" />
    <glyph glyph-name="gcircumflex" unicode="&#x11d;" 
d="M836 199l129 729q-231 137 -402 137q-94 0 -159.5 -51t-81.5 -135l-111 -631q-16 -84 32 -135.5t142 -51.5q98 0 231.5 47.5t219.5 90.5zM979 1012l18 98q4 16 21 16h41q18 0 14 -16l-203 -1151q-25 -133 -148.5 -205.5t-315.5 -72.5q-174 0 -279 34q-18 2 -25.5 8.5
t-5.5 14.5l6 41q4 10 17 10h12q113 -35 279 -35q164 0 266 55.5t119 155.5l26 150q-281 -127 -448 -127q-129 0 -193.5 71.5t-44.5 188.5l111 631q23 117 111.5 188.5t217.5 71.5q168 0 404 -127zM793 1382l81 -147q4 -10 -8 -10h-41q-14 0 -20 12l-64 106l-104 -106
q-10 -12 -27 -12h-39q-12 0 -2 10l133 147q10 12 27 13h41q17 -1 23 -13z" />
    <glyph glyph-name="Gbreve" unicode="&#x11e;" 
d="M643 649l8 43q0 16 19 17h315q18 0 14 -17l-84 -473q-18 -102 -90.5 -163.5t-173.5 -61.5h-336q-102 0 -152 62.5t-32 162.5l174 995q18 100 92 163t174 63h334q102 0 153.5 -62.5t33.5 -163.5l-27 -151q-4 -16 -21 -16h-43q-18 0 -14 16l27 154q12 66 -20.5 105.5
t-98.5 39.5h-340q-66 0 -113 -40t-57 -105l-178 -1000q-10 -66 22.5 -105.5t98.5 -39.5h338q66 0 112.5 40t59.5 105l73 414h-254q-18 0 -14 18zM956 1817l-2 -13q-10 -53 -49 -84.5t-90 -31.5h-61q-51 0 -79 31.5t-20 84.5l2 13q4 16 19 16h29q16 0 12 -16l-2 -19
q-6 -51 45 -51h69q51 0 62 51l6 19q4 16 18 16h29q16 0 12 -16z" />
    <glyph glyph-name="gbreve" unicode="&#x11f;" 
d="M836 199l129 729q-231 137 -402 137q-94 0 -159.5 -51t-81.5 -135l-111 -631q-16 -84 32 -135.5t142 -51.5q98 0 231.5 47.5t219.5 90.5zM979 1012l18 98q4 16 21 16h41q18 0 14 -16l-203 -1151q-25 -133 -148.5 -205.5t-315.5 -72.5q-174 0 -279 34q-18 2 -25.5 8.5
t-5.5 14.5l6 41q4 10 17 10h12q113 -35 279 -35q164 0 266 55.5t119 155.5l26 150q-281 -127 -448 -127q-129 0 -193.5 71.5t-44.5 188.5l111 631q23 117 111.5 188.5t217.5 71.5q168 0 404 -127zM891 1352l-2 -15q-10 -51 -48 -82.5t-91 -31.5h-62q-53 0 -79.5 31.5
t-18.5 82.5l2 15q4 14 18 14h29q16 0 12 -14l-2 -21q-6 -51 45 -51h70q23 0 41 14.5t20 36.5l6 21q4 14 19 14h29q16 0 12 -14z" />
    <glyph glyph-name="Gdotaccent" unicode="&#x120;" 
d="M643 649l8 43q0 16 19 17h315q18 0 14 -17l-84 -473q-18 -102 -90.5 -163.5t-173.5 -61.5h-336q-102 0 -152 62.5t-32 162.5l174 995q18 100 92 163t174 63h334q102 0 153.5 -62.5t33.5 -163.5l-27 -151q-4 -16 -21 -16h-43q-18 0 -14 16l27 154q12 66 -20.5 105.5
t-98.5 39.5h-340q-66 0 -113 -40t-57 -105l-178 -1000q-10 -66 22.5 -105.5t98.5 -39.5h338q66 0 112.5 40t59.5 105l73 414h-254q-18 0 -14 18zM729 1739l10 61q6 33 39 33h64q33 0 26 -33l-10 -61q-6 -33 -39 -33h-63q-33 0 -27 33z" />
    <glyph glyph-name="gdotaccent" unicode="&#x121;" 
d="M836 199l129 729q-231 137 -402 137q-94 0 -159.5 -51t-81.5 -135l-111 -631q-16 -84 32 -135.5t142 -51.5q98 0 231.5 47.5t219.5 90.5zM979 1012l18 98q4 16 21 16h41q18 0 14 -16l-203 -1151q-25 -133 -148.5 -205.5t-315.5 -72.5q-174 0 -279 34q-18 2 -25.5 8.5
t-5.5 14.5l6 41q4 10 17 10h12q113 -35 279 -35q164 0 266 55.5t119 155.5l26 150q-281 -127 -448 -127q-129 0 -193.5 71.5t-44.5 188.5l111 631q23 117 111.5 188.5t217.5 71.5q168 0 404 -127zM664 1274l10 61q8 33 39 33h63q35 0 27 -33l-10 -61q-6 -33 -39 -33h-64
q-32 0 -26 33z" />
    <glyph glyph-name="uni0122" unicode="&#x122;" 
d="M643 649l8 43q0 16 19 17h315q18 0 14 -17l-84 -473q-18 -102 -90.5 -163.5t-173.5 -61.5h-336q-102 0 -152 62.5t-32 162.5l174 995q18 100 92 163t174 63h334q102 0 153.5 -62.5t33.5 -163.5l-27 -151q-4 -16 -21 -16h-43q-18 0 -14 16l27 154q12 66 -20.5 105.5
t-98.5 39.5h-340q-66 0 -113 -40t-57 -105l-178 -1000q-10 -66 22.5 -105.5t98.5 -39.5h338q66 0 112.5 40t59.5 105l73 414h-254q-18 0 -14 18zM373 -276l55 170q8 23 29 22h59q23 0 12 -22l-82 -170q-10 -20 -28 -21h-33q-18 1 -12 21z" />
    <glyph glyph-name="uni0123" unicode="&#x123;" 
d="M836 199l129 729q-231 137 -402 137q-94 0 -159.5 -51t-81.5 -135l-111 -631q-16 -84 32 -135.5t142 -51.5q98 0 231.5 47.5t219.5 90.5zM979 1012l18 98q4 16 21 16h41q18 0 14 -16l-203 -1151q-25 -133 -148.5 -205.5t-315.5 -72.5q-174 0 -279 34q-18 2 -25.5 8.5
t-5.5 14.5l6 41q4 10 17 10h12q113 -35 279 -35q164 0 266 55.5t119 155.5l26 150q-281 -127 -448 -127q-129 0 -193.5 71.5t-44.5 188.5l111 631q23 117 111.5 188.5t217.5 71.5q168 0 404 -127zM829 1415l-53 -170q-10 -20 -28 -20h-60q-27 0 -12 20l82 170q10 20 28 21
h31q18 -1 12 -21z" />
    <glyph glyph-name="Hcircumflex" unicode="&#x124;" 
d="M94 16l248 1401q4 16 20 17h44q18 0 14 -17l-125 -710h629l125 710q4 16 20 17h43q18 0 14 -17l-245 -1401q-4 -16 -21 -16h-43q-18 0 -14 16l106 613h-628l-109 -613q-4 -16 -20 -16h-43q-19 0 -15 16zM827 1690l82 -148q4 -10 -8 -10h-39q-16 0 -22 12l-64 107
l-104 -107q-8 -12 -25 -12h-39q-14 0 -4 10l133 148q8 12 27 12h43q14 0 20 -12z" />
    <glyph glyph-name="hcircumflex" unicode="&#x125;" 
d="M362 1434h41q14 0 15 -17l-72 -405q281 127 453 127q125 0 189.5 -72t43.5 -188l-151 -863q-4 -16 -21 -16h-41q-18 0 -14 16l151 863q16 84 -30.5 135t-141.5 51q-96 0 -232 -47t-220 -90l-162 -912q-4 -16 -20 -16h-41q-18 0 -15 16l248 1401q4 17 20 17zM467 1675
l80 -149q6 -10 -6 -10h-41q-12 0 -21 12l-65 106l-103 -106q-16 -12 -26 -12h-39q-10 0 -4 10l135 149q10 10 24 11h43q17 -1 23 -11z" />
    <glyph glyph-name="Hbar" unicode="&#x126;" 
d="M924 707l75 428h-630l-74 -428h629zM1069 1434h43q18 0 14 -17l-36 -213h137q18 0 14 -18l-6 -35q-4 -16 -21 -16h-137l-196 -1119q-4 -16 -21 -16h-43q-18 0 -14 16l106 613h-628l-109 -613q-4 -16 -20 -16h-43q-18 0 -15 16l197 1119h-137q-14 0 -15 16l6 35
q4 18 21 18h137l39 213q4 16 20 17h44q18 0 14 -17l-39 -213h631l37 213q4 17 20 17z" />
    <glyph glyph-name="hbar" unicode="&#x127;" 
d="M158 1251l6 35q2 14 18 14h140l20 117q4 16 20 17h41q14 0 15 -17l-21 -117h340q12 0 13 -14l-7 -35q-4 -14 -18 -14h-340l-39 -225q281 127 453 127q125 0 189.5 -72t43.5 -188l-151 -863q-4 -16 -21 -16h-41q-18 0 -14 16l151 863q16 84 -30.5 135t-141.5 51
q-96 0 -232 -47t-220 -90l-162 -912q-4 -16 -20 -16h-41q-18 0 -15 16l215 1221h-139q-16 0 -12 14z" />
    <glyph glyph-name="Itilde" unicode="&#x128;" 
d="M88 16l8 43q4 16 21 17h342l225 1282h-342q-14 0 -14 18l8 41q4 16 20 17h762q18 0 15 -17l-9 -41q0 -18 -18 -18h-344l-225 -1282h342q18 0 14 -17l-8 -43q0 -16 -19 -16h-764q-14 0 -14 16zM575 1565l7 37q6 27 55 44t82 17q20 0 45 -10l59 -33q6 -6 21 -6q53 0 121 39
q2 0 6 2q4 0 4 -10l-6 -37q-6 -27 -53.5 -42.5t-79.5 -15.5q-25 0 -45 11l-60 34q-12 4 -22 4q-57 0 -121 -40q-2 -2 -8 -3q-5 1 -5 9z" />
    <glyph glyph-name="itilde" unicode="&#x129;" 
d="M297 1073l8 37q4 16 19 16h391q14 0 14 -16l-184 -1038h332q18 0 14 -19l-8 -37q0 -16 -19 -16h-737q-18 0 -14 16l6 37q4 18 20 19h330l174 983h-332q-14 0 -14 18zM461 1257l6 37q4 27 54 44.5t81 17.5q25 0 45 -10l60 -33q10 -6 22 -6q53 0 121 39q2 0 6 2q4 0 4 -11
l-6 -37q-6 -27 -53 -42t-80 -15q-23 0 -47 10l-60 35q-8 4 -20 4q-57 0 -121 -41q-4 -2 -8 -2q-6 0 -4 8z" />
    <glyph glyph-name="Imacron" unicode="&#x12a;" 
d="M88 16l8 43q4 16 21 17h342l225 1282h-342q-14 0 -14 18l8 41q4 16 20 17h762q18 0 15 -17l-9 -41q0 -18 -18 -18h-344l-225 -1282h342q18 0 14 -17l-8 -43q0 -16 -19 -16h-764q-14 0 -14 16zM614 1577l7 33q0 14 16 14h268q12 0 13 -14l-7 -33q-4 -14 -18 -14h-266
q-17 0 -13 14z" />
    <glyph glyph-name="imacron" unicode="&#x12b;" 
d="M297 1073l8 37q4 16 19 16h391q14 0 14 -16l-184 -1038h332q18 0 14 -19l-8 -37q0 -16 -19 -16h-737q-18 0 -14 16l6 37q4 18 20 19h330l174 983h-332q-14 0 -14 18zM500 1270l4 33q4 14 18 14h266q16 0 13 -14l-6 -33q0 -14 -17 -15h-268q-14 1 -10 15z" />
    <glyph glyph-name="Ibreve" unicode="&#x12c;" 
d="M88 16l8 43q4 16 21 17h342l225 1282h-342q-14 0 -14 18l8 41q4 16 20 17h762q18 0 15 -17l-9 -41q0 -18 -18 -18h-344l-225 -1282h342q18 0 14 -17l-8 -43q0 -16 -19 -16h-764q-14 0 -14 16zM926 1659l-2 -14q-10 -51 -48 -83t-92 -32h-61q-53 0 -80 31.5t-18 83.5l2 14
q4 14 18 14h29q14 0 14 -14l-2 -21q-4 -23 8.5 -37t34.5 -14h72q51 0 61 51l4 21q4 14 19 14h28q17 0 13 -14z" />
    <glyph glyph-name="ibreve" unicode="&#x12d;" 
d="M297 1073l8 37q4 16 19 16h391q14 0 14 -16l-184 -1038h332q18 0 14 -19l-8 -37q0 -16 -19 -16h-737q-18 0 -14 16l6 37q4 18 20 19h330l174 983h-332q-14 0 -14 18zM811 1352l-2 -15q-10 -51 -48 -82.5t-91 -31.5h-62q-53 0 -79.5 31.5t-18.5 82.5l2 15q4 14 18 14h29
q16 0 12 -14l-2 -21q-6 -51 45 -51h70q51 0 61 51l7 21q4 14 18 14h29q16 0 12 -14z" />
    <glyph glyph-name="Iogonek" unicode="&#x12e;" 
d="M465 0h-363q-14 0 -14 16l8 43q4 16 21 17h342l225 1282h-342q-14 0 -14 18l8 41q4 16 20 17h762q18 0 15 -17l-9 -41q0 -18 -18 -18h-344l-225 -1282h342q18 0 14 -17l-8 -43q0 -16 -19 -16h-344q-76 -92 -90 -162q-6 -35 23 -35h90q14 0 12 -14l-4 -25q-4 -14 -16 -14
h-105q-33 0 -49 19.5t-10 52.5q16 94 92 178z" />
    <glyph glyph-name="iogonek" unicode="&#x12f;" 
d="M449 0h-322q-18 0 -14 16l6 37q4 18 20 19h330l174 983h-332q-14 0 -14 18l8 37q4 16 19 16h391q14 0 14 -16l-184 -1038h332q18 0 14 -19l-8 -37q0 -16 -19 -16h-360q-70 -88 -86 -158q-10 -35 22 -35h90q16 0 13 -14l-4 -24q-4 -16 -17 -17h-104q-33 0 -49.5 20.5
t-10.5 53.5q17 94 91 174zM584 1329l22 123q4 27 31 27h127q27 0 20 -27l-20 -123q-6 -27 -31 -26h-127q-26 -1 -22 26z" />
    <glyph glyph-name="Idotaccent" unicode="&#x130;" 
d="M88 16l8 43q4 16 21 17h342l225 1282h-342q-14 0 -14 18l8 41q4 16 20 17h762q18 0 15 -17l-9 -41q0 -18 -18 -18h-344l-225 -1282h342q18 0 14 -17l-8 -43q0 -16 -19 -16h-764q-14 0 -14 16zM698 1581l11 61q8 33 39 33h63q35 0 27 -33l-11 -61q-6 -33 -39 -33h-63
q-33 0 -27 33z" />
    <glyph glyph-name="dotlessi" unicode="&#x131;" 
d="M297 1073l8 37q4 16 19 16h391q14 0 14 -16l-184 -1038h332q18 0 14 -19l-8 -37q0 -16 -19 -16h-737q-18 0 -14 16l6 37q4 18 20 19h330l174 983h-332q-14 0 -14 18z" />
    <glyph glyph-name="IJ" unicode="&#x132;" 
d="M817 1434h295q18 0 14 -17l-211 -1198q-18 -102 -91.5 -164.5t-176.5 -62.5h-205q-102 0 -153 62.5t-33 162.5l16 94q4 18 21 19h43q18 0 14 -19l-16 -94q-12 -66 21.5 -106.5t99.5 -40.5h209q66 0 113.5 41t60.5 106l200 1141h-235q-16 0 -15 18l9 39q4 19 20 19z
M545 1415l-148 -835q-4 -18 -20 -19h-43q-16 0 -12 19l137 778h-232q-18 0 -14 18l8 39q4 18 21 19h288q19 -1 15 -19z" />
    <glyph glyph-name="ij" unicode="&#x133;" 
d="M516 -291l8 39q4 18 21 19h100q63 0 109.5 38.5t58.5 104.5l203 1145h-195q-18 0 -14 18l6 37q4 16 21 16h247q10 0 15.5 -4t3.5 -12l-211 -1198q-16 -98 -88 -158.5t-170 -60.5h-101q-14 0 -14 16zM506 0h-459q-20 0 -16 16l6 37q4 18 20 19h195l174 983h-195
q-18 0 -14 18l6 37q4 16 21 16h248q10 0 15 -4t3 -12l-182 -1038h194q16 0 13 -19l-7 -37q-4 -16 -22 -16zM369 1329l22 123q4 27 31 27h125q27 0 22 -27l-22 -123q-4 -27 -31 -26h-125q-26 -1 -22 26zM958 1329l23 123q4 27 31 27h125q27 0 22 -27l-22 -123q-4 -27 -31 -26
h-125q-27 -1 -23 26z" />
    <glyph glyph-name="Jcircumflex" unicode="&#x134;" 
d="M631 1376l6 41q4 16 20 17h449q18 0 14 -17l-211 -1198q-18 -102 -91 -163.5t-175 -61.5h-334q-102 0 -153.5 61.5t-32.5 163.5l16 94q4 16 21 17h43q18 0 14 -17l-16 -96q-12 -66 20.5 -105.5t97.5 -39.5h340q66 0 113 40t59 105l201 1141h-387q-18 0 -14 18zM969 1690
l82 -148q4 -10 -9 -10h-38q-16 0 -23 12l-63 107l-105 -107q-8 -12 -25 -12h-38q-14 0 -5 10l134 148q12 12 26 12h43q15 0 21 -12z" />
    <glyph glyph-name="jcircumflex" unicode="&#x135;" 
d="M451 1126h501q14 0 15 -16l-203 -1151q-25 -133 -143.5 -205.5t-307.5 -72.5q-164 0 -276 34q-18 2 -25.5 8.5t-5.5 14.5l8 41q0 10 15 10h14q104 -35 272 -35q160 0 258.5 55.5t114.5 155.5l193 1090h-443q-18 0 -14 18l6 37q5 16 21 16zM807 1382l82 -147q4 -10 -8 -10
h-39q-16 0 -23 12l-63 106l-105 -106q-8 -12 -24 -12h-39q-14 0 -4 10l133 147q8 12 26 13h41q17 -1 23 -13z" />
    <glyph glyph-name="uni0136" unicode="&#x136;" 
d="M578 694h-285l-121 -678q-4 -16 -20 -16h-43q-18 0 -15 16l248 1401q4 16 20 17h44q18 0 14 -17l-115 -647h287l504 649q10 14 26 15h58q16 0 6 -15l-537 -688l320 -717q6 -14 -11 -14h-59q-14 0 -22 14zM373 -276l53 170q12 23 29 22h59q25 0 14 -22l-82 -170
q-10 -20 -30 -21h-31q-18 1 -12 21z" />
    <glyph glyph-name="uni0137" unicode="&#x137;" 
d="M508 537h-246l-92 -521q-4 -16 -20 -16h-41q-18 0 -15 16l248 1401q4 16 20 17h41q14 0 15 -17l-144 -807h246l494 502q14 14 26 14h58q23 0 8 -14l-528 -539l362 -559q10 -14 -12 -14h-58q-12 0 -22 14zM373 -276l53 170q12 23 29 22h59q25 0 14 -22l-82 -170
q-10 -20 -30 -21h-31q-18 1 -12 21z" />
    <glyph glyph-name="Lacute" unicode="&#x139;" 
d="M209 78h694q18 0 15 -17l-9 -45q-4 -16 -20 -16h-754q-18 0 -14 16l246 1401q4 16 20 17h45q16 0 12 -17zM395 1534l119 162q10 10 25 10h65q10 0 4 -12l-149 -160q-6 -10 -25 -10h-35q-10 0 -4 10z" />
    <glyph glyph-name="lacute" unicode="&#x13a;" 
d="M350 1380l8 37q4 16 19 17h389q18 0 14 -17l-235 -1345h329q18 0 15 -19l-6 -37q-4 -16 -21 -16h-737q-18 0 -14 16l6 37q4 18 20 19h332l227 1290h-331q-15 0 -15 18zM592 1540l121 162q10 10 22 10h68q12 0 2 -10l-148 -162q-10 -10 -26 -10h-33q-12 0 -6 10z" />
    <glyph glyph-name="uni013B" unicode="&#x13b;" 
d="M209 78h694q18 0 15 -17l-9 -45q-4 -16 -20 -16h-754q-18 0 -14 16l246 1401q4 16 20 17h45q16 0 12 -17zM373 -276l53 170q12 23 29 22h59q25 0 14 -22l-82 -170q-10 -20 -30 -21h-31q-18 1 -12 21z" />
    <glyph glyph-name="uni013C" unicode="&#x13c;" 
d="M350 1380l8 37q4 16 19 17h389q18 0 14 -17l-235 -1345h329q18 0 15 -19l-6 -37q-4 -16 -21 -16h-737q-18 0 -14 16l6 37q4 18 20 19h332l227 1290h-331q-15 0 -15 18zM373 -276l53 170q12 23 29 22h59q25 0 14 -22l-82 -170q-10 -20 -30 -21h-31q-18 1 -12 21z" />
    <glyph glyph-name="Lcaron" unicode="&#x13d;" 
d="M209 78h694q18 0 15 -17l-9 -45q-4 -16 -20 -16h-754q-18 0 -14 16l246 1401q4 16 20 17h45q16 0 12 -17zM846 1241l53 170q10 23 29 23h59q25 0 14 -21l-81 -172q-10 -18 -31 -18h-31q-20 0 -12 18z" />
    <glyph glyph-name="lcaron" unicode="&#x13e;" 
d="M350 1380l8 37q4 16 19 17h391q16 0 12 -17l-235 -1345h329q18 0 15 -19l-6 -37q-4 -16 -21 -16h-737q-18 0 -14 16l6 37q4 18 20 19h332l227 1290h-331q-15 0 -15 18zM1055 1241l55 170q6 23 29 23h59q23 0 12 -21l-82 -172q-10 -18 -28 -18h-33q-20 0 -12 18z" />
    <glyph glyph-name="Ldot" unicode="&#x13f;" 
d="M209 78h694q18 0 15 -17l-9 -45q-4 -16 -20 -16h-754q-18 0 -14 16l246 1401q4 16 20 17h45q16 0 12 -17zM760 647l24 139q4 27 31 27h137q27 0 21 -27l-23 -139q-6 -27 -32 -26h-136q-26 -1 -22 26z" />
    <glyph glyph-name="ldot" unicode="&#x140;" 
d="M350 1380l8 37q4 16 19 17h391q16 0 12 -17l-235 -1345h329q18 0 15 -19l-6 -37q-4 -16 -21 -16h-737q-18 0 -14 16l6 37q4 18 20 19h332l227 1290h-331q-15 0 -15 18zM1092 647l24 139q6 27 31 27h137q27 0 23 -27l-25 -139q-6 -27 -31 -26h-137q-26 -1 -22 26z" />
    <glyph glyph-name="Lslash" unicode="&#x141;" 
d="M49 502l-12 30q-8 12 10 23l186 98l134 764q4 16 20 17h45q16 0 12 -17l-125 -717l222 119q4 2 10 2q10 0 12 -8l12 -29q4 -16 -10 -24l-260 -139l-96 -543h694q18 0 15 -17l-9 -45q-4 -16 -20 -16h-754q-18 0 -14 16l98 559l-147 -79q-4 -2 -11 -2q-10 0 -12 8z" />
    <glyph glyph-name="lslash" unicode="&#x142;" 
d="M360 524l-8 31q-4 14 13 25l210 96l121 686h-331q-14 0 -15 18l8 37q4 16 19 17h391q16 0 12 -17l-123 -702l177 82q2 2 8 2q8 0 12 -8l10 -33q2 -12 -14 -23l-205 -94l-100 -569h329q18 0 15 -19l-6 -37q-4 -16 -21 -16h-737q-18 0 -14 16l6 37q4 18 20 19h332l92 530
l-180 -84q-2 -2 -8 -2q-9 0 -13 8z" />
    <glyph glyph-name="Nacute" unicode="&#x143;" 
d="M387 1231l-215 -1215q-4 -16 -18 -16h-45q-18 0 -15 16l248 1401q4 16 20 17h33q18 0 23 -15l405 -1220q4 -12 4 -41l9 2q0 4 -2.5 19.5t0.5 21.5l215 1216q4 16 20 17h43q18 0 14 -17l-245 -1401q-4 -16 -21 -16h-35q-14 0 -22 14l-406 1219q-4 12 -4 41h-8
q0 -4 2 -20.5t0 -22.5zM725 1540l119 162q10 10 24 10h66q10 0 4 -10l-150 -162q-6 -10 -24 -10h-35q-10 0 -4 10z" />
    <glyph glyph-name="nacute" unicode="&#x144;" 
d="M307 1126h41q18 0 14 -16l-16 -98q281 127 453 127q125 0 189.5 -72t43.5 -188l-151 -863q-4 -16 -21 -16h-41q-18 0 -14 16l151 863q16 84 -30.5 135t-141.5 51q-96 0 -232 -47t-220 -90l-162 -912q-4 -16 -20 -16h-41q-18 0 -15 16l193 1094q4 16 20 16zM659 1233
l119 162q10 10 23 10h67q10 0 4 -10l-149 -162q-10 -10 -27 -10h-32q-11 0 -5 10z" />
    <glyph glyph-name="uni0145" unicode="&#x145;" 
d="M387 1231l-215 -1215q-4 -16 -18 -16h-45q-18 0 -15 16l248 1401q4 16 20 17h33q18 0 23 -15l405 -1220q4 -12 4 -41l9 2q0 4 -2.5 19.5t0.5 21.5l215 1216q4 16 20 17h43q18 0 14 -17l-245 -1401q-4 -16 -21 -16h-35q-14 0 -22 14l-406 1219q-4 12 -4 41h-8
q0 -4 2 -20.5t0 -22.5zM373 -276l53 170q12 23 29 22h59q25 0 14 -22l-82 -170q-10 -20 -30 -21h-31q-18 1 -12 21z" />
    <glyph glyph-name="uni0146" unicode="&#x146;" 
d="M307 1126h41q18 0 14 -16l-16 -98q281 127 453 127q125 0 189.5 -72t43.5 -188l-151 -863q-4 -16 -21 -16h-41q-18 0 -14 16l151 863q16 84 -30.5 135t-141.5 51q-96 0 -232 -47t-220 -90l-162 -912q-4 -16 -20 -16h-41q-18 0 -15 16l193 1094q4 16 20 16zM373 -276
l53 170q12 23 29 22h59q25 0 14 -22l-82 -170q-10 -20 -30 -21h-31q-18 1 -12 21z" />
    <glyph glyph-name="Ncaron" unicode="&#x147;" 
d="M387 1231l-215 -1215q-4 -16 -18 -16h-45q-18 0 -15 16l248 1401q4 16 20 17h33q18 0 23 -15l405 -1220q4 -12 4 -41l9 2q0 4 -2.5 19.5t0.5 21.5l215 1216q4 16 20 17h43q18 0 14 -17l-245 -1401q-4 -16 -21 -16h-35q-14 0 -22 14l-406 1219q-4 12 -4 41h-8
q0 -4 2 -20.5t0 -22.5zM936 1692l-135 -148q-8 -12 -25 -12h-43q-14 0 -20 12l-82 148q-6 10 6 10h39q16 0 22 -12l66 -107l102 107q12 12 25 12h41q10 0 4 -10z" />
    <glyph glyph-name="ncaron" unicode="&#x148;" 
d="M307 1126h41q18 0 14 -16l-16 -98q281 127 453 127q125 0 189.5 -72t43.5 -188l-151 -863q-4 -16 -21 -16h-41q-18 0 -14 16l151 863q16 84 -30.5 135t-141.5 51q-96 0 -232 -47t-220 -90l-162 -912q-4 -16 -20 -16h-41q-18 0 -15 16l193 1094q4 16 20 16zM870 1384
l-135 -147q-10 -12 -24 -12h-43q-14 0 -21 12l-82 147q-6 10 6 11h39q16 0 23 -13l65 -106l103 106q12 12 24 13h41q10 -1 4 -11z" />
    <glyph glyph-name="Eng" unicode="&#x14a;" 
d="M598 -307h-178q-18 0 -14 16l8 45q4 16 20 17h178q66 0 113 39.5t59 105.5l19 109l-406 1212q-6 18 -2 43h-4q-2 -6 -2 -20.5t-2 -20.5l-215 -1223q-4 -16 -20 -16h-43q-18 0 -15 16l248 1401q4 16 20 17h33q14 0 21 -17l409 -1218q2 -6 2 -43h4q0 31 3 43l215 1218
q4 16 20 17h43q18 0 14 -17l-264 -1499q-16 -100 -89 -162.5t-175 -62.5z" />
    <glyph glyph-name="eng" unicode="&#x14b;" 
d="M307 1126h41q18 0 14 -16l-16 -98q281 127 453 127q125 0 189.5 -72t43.5 -188l-172 -975q-16 -94 -87 -152.5t-169 -58.5h-192q-18 0 -15 16l6 39q4 18 21 19h192q63 0 110.5 37.5t57.5 99.5l172 975q16 84 -30.5 135t-141.5 51q-96 0 -232 -47t-220 -90l-162 -912
q-4 -16 -20 -16h-41q-18 0 -15 16l193 1094q4 16 20 16z" />
    <glyph glyph-name="Omacron" unicode="&#x14c;" 
d="M369 1217l-176 -1000q-12 -66 20.5 -105.5t97.5 -39.5h371q66 0 113 40t59 105l176 1000q10 66 -22.5 105.5t-98.5 39.5h-370q-66 0 -113 -39.5t-57 -105.5zM115 219l176 995q16 100 89 163t175 63h367q100 0 151 -61.5t35 -164.5l-176 -995q-18 -102 -92 -163.5
t-174 -61.5h-365q-102 0 -153 61.5t-33 163.5zM614 1577l7 33q0 14 16 14h268q12 0 13 -14l-7 -33q-4 -14 -18 -14h-266q-17 0 -13 14z" />
    <glyph glyph-name="omacron" unicode="&#x14d;" 
d="M330 918l-125 -709q-12 -63 19.5 -103t97.5 -40h348q66 0 111.5 39.5t56.5 103.5l125 709q12 63 -20 103t-97 40h-348q-66 0 -112 -40t-56 -103zM129 211l125 704q16 98 87 158t169 60h348q98 0 147.5 -59.5t32.5 -158.5l-125 -704q-16 -98 -86.5 -157.5t-169.5 -59.5
h-348q-98 0 -147 59.5t-33 157.5zM559 1270l6 33q4 14 19 14h266q16 0 12 -14l-6 -33q0 -14 -16 -15h-269q-12 1 -12 15z" />
    <glyph glyph-name="Obreve" unicode="&#x14e;" 
d="M369 1217l-176 -1000q-12 -66 20.5 -105.5t97.5 -39.5h371q66 0 113 40t59 105l176 1000q10 66 -22.5 105.5t-98.5 39.5h-370q-66 0 -113 -39.5t-57 -105.5zM115 219l176 995q16 100 89 163t175 63h367q100 0 151 -61.5t35 -164.5l-176 -995q-18 -102 -92 -163.5
t-174 -61.5h-365q-102 0 -153 61.5t-33 163.5zM926 1659l-2 -14q-10 -51 -48 -83t-92 -32h-61q-53 0 -80 31.5t-18 83.5l2 14q4 14 18 14h29q14 0 14 -14l-2 -21q-4 -23 8.5 -37t34.5 -14h72q51 0 61 51l4 21q4 14 19 14h28q17 0 13 -14z" />
    <glyph glyph-name="obreve" unicode="&#x14f;" 
d="M330 918l-125 -709q-12 -63 19.5 -103t97.5 -40h348q66 0 111.5 39.5t56.5 103.5l125 709q12 63 -20 103t-97 40h-348q-66 0 -112 -40t-56 -103zM129 211l125 704q16 98 87 158t169 60h348q98 0 147.5 -59.5t32.5 -158.5l-125 -704q-16 -98 -86.5 -157.5t-169.5 -59.5
h-348q-98 0 -147 59.5t-33 157.5zM872 1352l-4 -15q-8 -51 -46 -82.5t-91 -31.5h-61q-53 0 -80 31.5t-19 82.5l2 15q4 14 17 14h31q16 0 12 -14l-2 -21q-6 -51 43 -51h71q51 0 62 51l6 21q4 14 18 14h29q16 0 12 -14z" />
    <glyph glyph-name="Ohungarumlaut" unicode="&#x150;" 
d="M369 1217l-176 -1000q-12 -66 20.5 -105.5t97.5 -39.5h371q66 0 113 40t59 105l176 1000q10 66 -22.5 105.5t-98.5 39.5h-370q-66 0 -113 -39.5t-57 -105.5zM115 219l176 995q16 100 89 163t175 63h367q100 0 151 -61.5t35 -164.5l-176 -995q-18 -102 -92 -163.5
t-174 -61.5h-365q-102 0 -153 61.5t-33 163.5zM819 1540l119 150q10 10 23 10h59q12 0 4 -12l-141 -148q-10 -10 -27 -10h-33q-14 0 -4 10zM633 1540l119 148q6 12 20 12h62q14 0 4 -12l-140 -148q-14 -10 -26 -10h-33q-12 0 -6 10z" />
    <glyph glyph-name="ohungarumlaut" unicode="&#x151;" 
d="M330 918l-125 -709q-12 -63 19.5 -103t97.5 -40h348q66 0 111.5 39.5t56.5 103.5l125 709q12 63 -20 103t-97 40h-348q-66 0 -112 -40t-56 -103zM129 211l125 704q16 98 87 158t169 60h348q98 0 147.5 -59.5t32.5 -158.5l-125 -704q-16 -98 -86.5 -157.5t-169.5 -59.5
h-348q-98 0 -147 59.5t-33 157.5zM766 1233l119 149q6 10 22 11h60q12 0 4 -13l-142 -147q-14 -10 -26 -10h-33q-14 0 -4 10zM580 1233l116 147q8 12 23 13h59q14 0 4 -13l-139 -147q-10 -10 -25 -10h-34q-14 0 -4 10z" />
    <glyph glyph-name="OE" unicode="&#x152;" 
d="M281 1217l-177 -1000q-12 -66 21 -105.5t98 -39.5h189q63 0 110 39t60 104l178 1002q10 66 -22.5 105.5t-98.5 39.5h-186q-66 0 -113 -39.5t-59 -105.5zM815 1434h442q18 0 15 -17l-8 -45q-4 -16 -21 -16h-381l-114 -649h296q18 0 15 -17l-8 -43q-4 -18 -21 -18h-297
l-96 -551h381q18 0 14 -17l-8 -45q-4 -16 -20 -16h-443q-18 0 -14 16l4 25q-66 -47 -156 -47h-182q-102 0 -153.5 62.5t-32.5 162.5l176 995q18 102 91 164t173 62h184q88 0 140 -47l4 24q4 17 20 17z" />
    <glyph glyph-name="oe" unicode="&#x153;" 
d="M502 209l125 709q10 66 -21 104.5t-94 38.5h-129q-66 0 -112 -40t-56 -103l-125 -709q-12 -63 19.5 -103t97.5 -40h131q63 0 108.5 38.5t55.5 104.5zM588 696l39 219zM961 1061h-105q-59 0 -101 -39t-53 -102l-57 -328h375l59 328q10 63 -21 102t-97 39zM1067 520h-434
l-55 -309q-10 -66 18.5 -105.5t85.5 -39.5h102q63 0 110.5 38.5t59.5 104.5l13 74q4 18 20 18h41q18 0 14 -18l-12 -72q-18 -98 -89 -157.5t-169 -59.5h-108q-106 0 -150 82q-72 -82 -184 -82h-135q-98 0 -147.5 59.5t-33.5 157.5l125 704q16 98 87 158t169 60h135
q113 0 156 -82q72 82 178 82h109q98 0 148 -58.5t32 -156.5l-66 -381q-4 -17 -20 -17z" />
    <glyph glyph-name="Racute" unicode="&#x154;" 
d="M903 1356h-495l-117 -666h495q66 0 113 40t57 106l68 374q10 66 -22.5 106t-98.5 40zM848 16l-152 596h-420l-104 -596q-4 -16 -20 -16h-43q-18 0 -15 16l248 1401q4 16 20 17h553q100 0 151.5 -61.5t35.5 -164.5l-66 -370q-18 -100 -87.5 -161t-168.5 -65l148 -596
q4 -16 -15 -16h-47q-14 0 -18 16zM653 1540l121 162q10 10 23 10h65q14 0 4 -10l-147 -162q-10 -10 -27 -10h-33q-12 0 -6 10z" />
    <glyph glyph-name="racute" unicode="&#x155;" 
d="M756 53l-6 -37q-4 -16 -21 -16h-614q-18 0 -15 16l6 37q4 18 21 19h242l174 983h-240q-18 0 -14 18l6 37q4 16 20 16h297q18 0 15 -16l-27 -158q317 186 518 187q16 0 12 -17l-6 -47q-2 -14 -20 -14q-193 0 -520 -197l-140 -792h297q19 -1 15 -19zM686 1233l121 162
q10 10 22 10h66q14 0 4 -10l-147 -162q-10 -10 -27 -10h-33q-12 0 -6 10z" />
    <glyph glyph-name="uni0156" unicode="&#x156;" 
d="M903 1356h-495l-117 -666h495q66 0 113 40t57 106l68 374q10 66 -22.5 106t-98.5 40zM848 16l-152 596h-420l-104 -596q-4 -16 -20 -16h-43q-18 0 -15 16l248 1401q4 16 20 17h553q100 0 151.5 -61.5t35.5 -164.5l-66 -370q-18 -100 -87.5 -161t-168.5 -65l148 -596
q4 -16 -15 -16h-47q-14 0 -18 16zM373 -276l53 170q12 23 29 22h59q25 0 14 -22l-82 -170q-10 -20 -30 -21h-31q-18 1 -12 21z" />
    <glyph glyph-name="uni0157" unicode="&#x157;" 
d="M756 53l-6 -37q-4 -16 -21 -16h-614q-18 0 -15 16l6 37q4 18 21 19h242l174 983h-240q-18 0 -14 18l6 37q4 16 20 16h297q18 0 15 -16l-27 -158q317 186 518 187q16 0 12 -17l-6 -47q-2 -14 -20 -14q-193 0 -520 -197l-140 -792h297q19 -1 15 -19zM291 -276l53 170
q12 23 29 22h59q25 0 14 -22l-81 -170q-10 -20 -31 -21h-31q-18 1 -12 21z" />
    <glyph glyph-name="Rcaron" unicode="&#x158;" 
d="M903 1356h-495l-117 -666h495q66 0 113 40t57 106l68 374q10 66 -22.5 106t-98.5 40zM848 16l-152 596h-420l-104 -596q-4 -16 -20 -16h-43q-18 0 -15 16l248 1401q4 16 20 17h553q100 0 151.5 -61.5t35.5 -164.5l-66 -370q-18 -100 -87.5 -161t-168.5 -65l148 -596
q4 -16 -15 -16h-47q-14 0 -18 16zM874 1692l-133 -148q-8 -12 -26 -12h-41q-16 0 -23 12l-82 148q-4 10 9 10h38q14 0 21 -12l65 -107l103 107q16 12 26 12h39q14 0 4 -10z" />
    <glyph glyph-name="rcaron" unicode="&#x159;" 
d="M756 53l-6 -37q-4 -16 -21 -16h-614q-18 0 -15 16l6 37q4 18 21 19h242l174 983h-240q-18 0 -14 18l6 37q4 16 20 16h297q18 0 15 -16l-27 -158q317 186 518 187q16 0 12 -17l-6 -47q-2 -14 -20 -14q-193 0 -520 -197l-140 -792h297q19 -1 15 -19zM897 1384l-133 -147
q-10 -12 -27 -12h-43q-14 0 -20 12l-82 147q-4 10 8 11h39q14 0 20 -13l66 -106l102 106q12 12 27 13h39q14 -1 4 -11z" />
    <glyph glyph-name="Sacute" unicode="&#x15a;" 
d="M276 1047l29 167q18 100 92 163t174 63h334q102 0 153.5 -62.5t33.5 -163.5l-27 -151q-4 -16 -21 -16h-43q-18 0 -14 16l27 154q12 66 -20.5 105.5t-98.5 39.5h-340q-66 0 -113 -40t-59 -105l-27 -160q-14 -82 45 -123l492 -350q39 -27 56.5 -76t8.5 -100l-34 -191
q-16 -100 -89 -162.5t-176 -62.5h-356q-100 0 -151.5 61.5t-34.5 163.5l26 152q4 18 21 18h45q16 0 12 -16l-26 -154q-10 -66 22.5 -105.5t97.5 -39.5h361q66 0 113 40t57 105l33 182q14 80 -48 123l-489 348q-39 27 -57.5 76.5t-8.5 100.5zM713 1540l118 162q10 10 23 10
h68q12 0 2 -10l-148 -162q-10 -10 -26 -10h-33q-10 0 -4 10z" />
    <glyph glyph-name="sacute" unicode="&#x15b;" 
d="M934 322l-19 -107q-18 -100 -88.5 -160.5t-169.5 -60.5h-348q-98 0 -147 59.5t-33 157.5l14 82q4 16 21 16h41q18 0 14 -16l-14 -76q-10 -68 20.5 -109.5t98.5 -41.5h344q68 0 113.5 42t58.5 111l20 109q6 43 -7 83t-46 52l-469 166q-55 20 -77.5 81.5t-10.5 131.5l12 69
q18 100 89 161t169 61h328q98 0 147 -59.5t33 -158.5l-14 -81q-4 -16 -21 -17h-41q-18 0 -14 17l14 75q10 68 -20.5 110t-97.5 42h-324q-68 0 -114 -42t-58 -112l-14 -73q-6 -43 7 -82t46 -52l469 -168q55 -18 77.5 -79t10.5 -131zM670 1233l121 162q10 10 22 10h68
q12 0 2 -10l-148 -162q-10 -10 -26 -10h-33q-12 0 -6 10z" />
    <glyph glyph-name="Scircumflex" unicode="&#x15c;" 
d="M276 1047l29 167q18 100 92 163t174 63h334q102 0 153.5 -62.5t33.5 -163.5l-27 -151q-4 -16 -21 -16h-43q-18 0 -14 16l27 154q12 66 -20.5 105.5t-98.5 39.5h-340q-66 0 -113 -40t-59 -105l-27 -160q-14 -82 45 -123l492 -350q39 -27 56.5 -76t8.5 -100l-34 -191
q-16 -100 -89 -162.5t-176 -62.5h-356q-100 0 -151.5 61.5t-34.5 163.5l26 152q4 18 21 18h45q16 0 12 -16l-26 -154q-10 -66 22.5 -105.5t97.5 -39.5h361q66 0 113 40t57 105l33 182q14 80 -48 123l-489 348q-39 27 -57.5 76.5t-8.5 100.5zM825 1690l82 -148q4 -10 -8 -10
h-39q-16 0 -22 12l-64 107l-104 -107q-10 -12 -25 -12h-39q-14 0 -4 10l133 148q10 12 27 12h43q14 0 20 -12z" />
    <glyph glyph-name="scircumflex" unicode="&#x15d;" 
d="M934 322l-19 -107q-18 -100 -88.5 -160.5t-169.5 -60.5h-348q-98 0 -147 59.5t-33 157.5l14 82q4 16 21 16h41q18 0 14 -16l-14 -76q-10 -68 20.5 -109.5t98.5 -41.5h344q68 0 113.5 42t58.5 111l20 109q6 43 -7 83t-46 52l-469 166q-55 20 -77.5 81.5t-10.5 131.5l12 69
q18 100 89 161t169 61h328q98 0 147 -59.5t33 -158.5l-14 -81q-4 -16 -21 -17h-41q-18 0 -14 17l14 75q10 68 -20.5 110t-97.5 42h-324q-68 0 -114 -42t-58 -112l-14 -73q-6 -43 7 -82t46 -52l469 -168q55 -18 77.5 -79t10.5 -131zM774 1382l80 -147q6 -10 -6 -10h-41
q-14 0 -21 12l-65 106l-103 -106q-12 -12 -26 -12h-39q-10 0 -4 10l135 147q8 12 25 13h43q16 -1 22 -13z" />
    <glyph glyph-name="Scedilla" unicode="&#x15e;" 
d="M555 -160l-6 -35q-14 -78 -92 -77h-105q-16 0 -12 14l4 22q4 16 18 17h97q31 0 37 31l4 24q4 31 -27 31h-59q-23 0 -13 20l35 105h-133q-100 0 -151.5 61.5t-34.5 163.5l26 152q4 18 21 18h45q16 0 12 -16l-26 -154q-10 -66 22.5 -105.5t97.5 -39.5h361q66 0 113 40
t57 105l33 182q14 80 -48 123l-489 348q-39 27 -57.5 76t-8.5 101l29 167q18 100 92 163t174 63h334q102 0 153.5 -62.5t33.5 -163.5l-27 -151q-4 -16 -21 -16h-43q-18 0 -14 16l27 154q12 66 -20.5 105.5t-98.5 39.5h-340q-66 0 -113 -40t-59 -105l-27 -160
q-14 -82 45 -123l492 -350q39 -27 56.5 -76t8.5 -100l-34 -191q-16 -100 -89 -162.5t-176 -62.5h-163l-27 -74h20q35 0 53.5 -21.5t12.5 -56.5z" />
    <glyph glyph-name="scedilla" unicode="&#x15f;" 
d="M555 -160l-6 -35q-14 -78 -92 -77h-105q-16 0 -12 14l4 22q4 16 18 17h97q31 0 37 31l4 24q4 31 -27 31h-59q-23 0 -13 20l35 107h-127q-98 0 -147 59.5t-33 157.5l14 82q4 16 21 16h41q18 0 14 -16l-14 -76q-10 -68 20.5 -109.5t98.5 -41.5h344q68 0 113.5 42t58.5 111
l20 109q6 43 -7 83t-46 52l-469 166q-55 20 -77.5 81.5t-10.5 131.5l12 69q18 100 89 161t169 61h328q98 0 147 -59.5t33 -158.5l-14 -81q-4 -16 -21 -17h-41q-18 0 -14 17l14 75q10 68 -20.5 110t-97.5 42h-324q-68 0 -114 -42t-58 -112l-14 -73q-6 -43 7 -82t46 -52
l469 -168q55 -18 77.5 -79.5t10.5 -130.5l-19 -107q-18 -100 -88.5 -160.5t-169.5 -60.5h-161l-27 -76h20q35 0 53.5 -21.5t12.5 -56.5z" />
    <glyph glyph-name="Scaron" unicode="&#x160;" 
d="M276 1047l29 167q18 100 92 163t174 63h334q102 0 153.5 -62.5t33.5 -163.5l-27 -151q-4 -16 -21 -16h-43q-18 0 -14 16l27 154q12 66 -20.5 105.5t-98.5 39.5h-340q-66 0 -113 -40t-59 -105l-27 -160q-14 -82 45 -123l492 -350q39 -27 56.5 -76t8.5 -100l-34 -191
q-16 -100 -89 -162.5t-176 -62.5h-356q-100 0 -151.5 61.5t-34.5 163.5l26 152q4 18 21 18h45q16 0 12 -16l-26 -154q-10 -66 22.5 -105.5t97.5 -39.5h361q66 0 113 40t57 105l33 182q14 80 -48 123l-489 348q-39 27 -57.5 76.5t-8.5 100.5zM934 1692l-135 -148
q-8 -12 -25 -12h-43q-16 0 -22 12l-80 148q-6 10 6 10h39q16 0 22 -12l66 -107l102 107q12 12 25 12h41q10 0 4 -10z" />
    <glyph glyph-name="scaron" unicode="&#x161;" 
d="M934 322l-19 -107q-18 -100 -88.5 -160.5t-169.5 -60.5h-348q-98 0 -147 59.5t-33 157.5l14 82q4 16 21 16h41q18 0 14 -16l-14 -76q-10 -68 20.5 -109.5t98.5 -41.5h344q68 0 113.5 42t58.5 111l20 109q6 43 -7 83t-46 52l-469 166q-55 20 -77.5 81.5t-10.5 131.5l12 69
q18 100 89 161t169 61h328q98 0 147 -59.5t33 -158.5l-14 -81q-4 -16 -21 -17h-41q-18 0 -14 17l14 75q10 68 -20.5 110t-97.5 42h-324q-68 0 -114 -42t-58 -112l-14 -73q-6 -43 7 -82t46 -52l469 -168q55 -18 77.5 -79t10.5 -131zM881 1384l-133 -147q-10 -12 -27 -12h-43
q-14 0 -21 12l-82 147q-4 10 9 11h39q14 0 20 -13l66 -106l102 106q16 12 27 13h39q14 -1 4 -11z" />
    <glyph glyph-name="uni0162" unicode="&#x162;" 
d="M1214 1417l-6 -45q-4 -16 -20 -16h-426l-236 -1340q-4 -16 -20 -16h-43q-18 0 -14 16l235 1340h-424q-18 0 -14 16l6 45q4 16 20 17h930q16 -1 12 -17zM354 -276l54 170q10 23 28 22h60q25 0 12 -22l-82 -170q-6 -20 -29 -21h-30q-19 1 -13 21z" />
    <glyph glyph-name="uni0163" unicode="&#x163;" 
d="M281 1071l6 39q4 16 20 16h246l33 189q4 16 20 16h41q18 0 15 -16l-33 -189h420q18 0 14 -16l-6 -39q-4 -18 -21 -18h-422l-147 -842q-10 -66 22.5 -104.5t96.5 -38.5h276q18 0 15 -17l-7 -39q-4 -16 -20 -16h-279q-98 0 -147 59.5t-33 157.5l150 840h-246q-18 0 -14 18z
M492 -276l53 170q8 23 28 22h60q25 0 12 -22l-82 -170q-6 -20 -28 -21h-31q-18 1 -12 21z" />
    <glyph glyph-name="Tcaron" unicode="&#x164;" 
d="M1214 1417l-6 -45q-4 -16 -20 -16h-426l-236 -1340q-4 -16 -20 -16h-43q-18 0 -14 16l235 1340h-424q-18 0 -14 16l6 45q4 16 20 17h930q16 -1 12 -17zM936 1692l-135 -148q-8 -12 -25 -12h-43q-16 0 -22 12l-80 148q-6 10 6 10h39q16 0 22 -12l66 -107l102 107
q12 12 25 12h41q10 0 4 -10z" />
    <glyph glyph-name="tcaron" unicode="&#x165;" 
d="M281 1071l6 39q4 16 20 16h246l33 189q4 16 20 16h41q18 0 15 -16l-33 -189h420q18 0 14 -16l-6 -39q-4 -18 -21 -18h-420l-149 -842q-10 -66 22.5 -104.5t96.5 -38.5h276q18 0 15 -17l-7 -39q-4 -16 -20 -16h-279q-98 0 -147 59.5t-33 157.5l150 840h-246q-18 0 -14 18z
M977 1249l55 170q6 23 29 23h59q23 0 13 -23l-82 -170q-10 -18 -29 -18h-33q-18 0 -12 18z" />
    <glyph glyph-name="Tbar" unicode="&#x166;" 
d="M356 772h226l104 584h-422q-18 0 -14 16l4 45q4 16 18 17h930q18 0 15 -17l-5 -45q-4 -16 -20 -16h-428l-105 -584h222q16 0 16 -18l-4 -33q-4 -18 -21 -19h-225l-121 -686q-4 -16 -20 -16h-43q-18 0 -14 16l120 686h-221q-16 0 -16 19l4 33q4 18 20 18z" />
    <glyph glyph-name="tbar" unicode="&#x167;" 
d="M297 721l4 33q4 16 23 16h165l52 283h-242q-18 0 -14 18l4 39q0 16 18 16h246l35 189q0 16 18 16h41q18 0 15 -16l-33 -189h420q16 0 16 -16l-4 -39q-4 -18 -21 -18h-424l-51 -283h285q16 0 12 -16l-4 -33q0 -16 -16 -16h-289l-88 -494q-12 -66 19.5 -104.5t95.5 -38.5
h278q18 0 14 -17l-4 -39q0 -16 -18 -16h-279q-98 0 -148 59.5t-34 157.5l88 492h-162q-18 0 -18 16z" />
    <glyph glyph-name="Utilde" unicode="&#x168;" 
d="M1071 1434h43q18 0 14 -17l-210 -1198q-16 -100 -89 -162.5t-176 -62.5h-340q-100 0 -151 61.5t-35 163.5l213 1198q0 16 18 17h45q14 0 15 -17l-213 -1200q-10 -66 22.5 -105.5t98.5 -39.5h342q66 0 112.5 40t59.5 105l211 1200q4 17 20 17zM575 1565l7 37q6 27 55 44
t82 17q20 0 45 -10l59 -33q6 -6 21 -6q53 0 121 39q2 0 6 2q4 0 4 -10l-6 -37q-6 -27 -53.5 -42.5t-79.5 -15.5q-25 0 -45 11l-60 34q-12 4 -22 4q-57 0 -121 -40q-2 -2 -8 -3q-5 1 -5 9z" />
    <glyph glyph-name="utilde" unicode="&#x169;" 
d="M860 0h-41q-18 0 -14 16l16 99q-281 -127 -452 -127q-127 0 -190.5 71.5t-43.5 188.5l152 862q4 16 20 16h41q18 0 14 -16l-151 -862q-16 -84 31 -135.5t141 -51.5q96 0 232.5 47.5t220.5 90.5l161 911q4 16 21 16h41q18 0 14 -16l-192 -1094q-5 -16 -21 -16zM522 1257
l6 37q4 27 54.5 44.5t81.5 17.5q25 0 45 -10l59 -33q10 -6 23 -6q57 0 118 39l6 2q6 0 7 -11l-9 -37q-4 -27 -51 -42t-80 -15q-23 0 -47 10l-59 35q-12 4 -23 4q-55 0 -118 -41q-4 -2 -9 -2q-6 0 -4 8z" />
    <glyph glyph-name="Umacron" unicode="&#x16a;" 
d="M1071 1434h43q18 0 14 -17l-210 -1198q-16 -100 -89 -162.5t-176 -62.5h-340q-100 0 -151 61.5t-35 163.5l213 1198q0 16 18 17h45q14 0 15 -17l-213 -1200q-10 -66 22.5 -105.5t98.5 -39.5h342q66 0 112.5 40t59.5 105l211 1200q4 17 20 17zM614 1577l7 33q0 14 16 14
h268q12 0 13 -14l-7 -33q-4 -14 -18 -14h-266q-17 0 -13 14z" />
    <glyph glyph-name="umacron" unicode="&#x16b;" 
d="M860 0h-41q-18 0 -14 16l16 99q-281 -127 -452 -127q-127 0 -190.5 71.5t-43.5 188.5l152 862q4 16 20 16h41q18 0 14 -16l-151 -862q-16 -84 31 -135.5t141 -51.5q96 0 232.5 47.5t220.5 90.5l161 911q4 16 21 16h41q18 0 14 -16l-192 -1094q-5 -16 -21 -16zM559 1270
l6 33q4 14 19 14h266q16 0 12 -14l-6 -33q0 -14 -16 -15h-269q-12 1 -12 15z" />
    <glyph glyph-name="Ubreve" unicode="&#x16c;" 
d="M1071 1434h43q18 0 14 -17l-210 -1198q-16 -100 -89 -162.5t-176 -62.5h-340q-100 0 -151 61.5t-35 163.5l213 1198q0 16 18 17h45q14 0 15 -17l-213 -1200q-10 -66 22.5 -105.5t98.5 -39.5h342q66 0 112.5 40t59.5 105l211 1200q4 17 20 17zM926 1659l-2 -14
q-10 -51 -48 -83t-92 -32h-61q-53 0 -80 31.5t-18 83.5l2 14q4 14 18 14h29q14 0 14 -14l-2 -21q-4 -23 8.5 -37t34.5 -14h72q51 0 61 51l4 21q4 14 19 14h28q17 0 13 -14z" />
    <glyph glyph-name="ubreve" unicode="&#x16d;" 
d="M860 0h-41q-18 0 -14 16l16 99q-281 -127 -452 -127q-127 0 -190.5 71.5t-43.5 188.5l152 862q4 16 20 16h41q18 0 14 -16l-151 -862q-16 -84 31 -135.5t141 -51.5q96 0 232.5 47.5t220.5 90.5l161 911q4 16 21 16h41q18 0 14 -16l-192 -1094q-5 -16 -21 -16zM872 1352
l-4 -15q-8 -51 -46 -82.5t-91 -31.5h-61q-53 0 -80 31.5t-19 82.5l2 15q4 14 17 14h31q16 0 12 -14l-2 -21q-6 -51 43 -51h71q51 0 62 51l6 21q4 14 18 14h29q16 0 12 -14z" />
    <glyph glyph-name="Uring" unicode="&#x16e;" 
d="M1071 1434h43q18 0 14 -17l-210 -1198q-16 -100 -89 -162.5t-176 -62.5h-340q-100 0 -151 61.5t-35 163.5l213 1198q0 16 18 17h45q14 0 15 -17l-213 -1200q-10 -66 22.5 -105.5t98.5 -39.5h342q66 0 112.5 40t59.5 105l211 1200q4 17 20 17zM657.5 1599.5
q8.5 47.5 48 81t87.5 33.5q49 0 76.5 -33.5t19.5 -81t-48 -82t-89 -34.5q-47 0 -75 34.5t-19.5 82zM709 1599.5q-4 -26.5 11 -45t41.5 -18.5t48 18.5t26 45t-10 45t-41 18.5t-49 -18.5t-26.5 -45z" />
    <glyph glyph-name="uring" unicode="&#x16f;" 
d="M655 1327q-4 -27 10.5 -45t41 -18t49 18t26.5 45t-11 45.5t-42 18.5t-48.5 -18.5t-25.5 -45.5zM860 0h-41q-18 0 -14 16l16 99q-281 -127 -452 -127q-127 0 -190.5 71.5t-43.5 188.5l152 862q4 16 20 16h41q18 0 14 -16l-151 -862q-16 -84 31 -135.5t141 -51.5
q96 0 232.5 47.5t220.5 90.5l161 911q4 16 21 16h41q18 0 14 -16l-192 -1094q-5 -16 -21 -16zM602 1327q10 49 49 83t88 34q47 0 76 -34t21 -83q-10 -47 -50.5 -81t-87.5 -34q-49 0 -76.5 34t-19.5 81z" />
    <glyph glyph-name="Uhungarumlaut" unicode="&#x170;" 
d="M1071 1434h43q18 0 14 -17l-210 -1198q-16 -100 -89 -162.5t-176 -62.5h-340q-100 0 -151 61.5t-35 163.5l213 1198q0 16 18 17h45q14 0 15 -17l-213 -1200q-10 -66 22.5 -105.5t98.5 -39.5h342q66 0 112.5 40t59.5 105l211 1200q4 17 20 17zM819 1540l119 150
q10 10 23 10h59q12 0 4 -12l-141 -148q-10 -10 -27 -10h-33q-14 0 -4 10zM633 1540l119 148q6 12 20 12h62q14 0 4 -12l-140 -148q-14 -10 -26 -10h-33q-12 0 -6 10z" />
    <glyph glyph-name="uhungarumlaut" unicode="&#x171;" 
d="M860 0h-41q-18 0 -14 16l16 99q-281 -127 -452 -127q-127 0 -190.5 71.5t-43.5 188.5l152 862q4 16 20 16h41q18 0 14 -16l-151 -862q-16 -84 31 -135.5t141 -51.5q96 0 232.5 47.5t220.5 90.5l161 911q4 16 21 16h41q18 0 14 -16l-192 -1094q-5 -16 -21 -16zM580 1233
l116 147q8 12 23 13h59q14 0 4 -13l-139 -147q-10 -10 -25 -10h-34q-14 0 -4 10zM766 1233l119 149q6 10 22 11h60q12 0 4 -13l-142 -147q-14 -10 -26 -10h-33q-14 0 -4 10z" />
    <glyph glyph-name="Uogonek" unicode="&#x172;" 
d="M657 -6q-66 -82 -82 -152q-6 -35 23 -35h92q12 0 12 -14l-6 -24q0 -16 -16 -17h-102q-33 0 -50.5 20.5t-11.5 53.5q16 86 84 168h-287q-100 0 -151 61.5t-35 163.5l213 1198q0 16 18 17h45q14 0 15 -17l-213 -1200q-10 -66 22.5 -105.5t98.5 -39.5h342q66 0 112.5 40
t59.5 105l211 1200q4 16 20 17h43q18 0 14 -17l-210 -1198q-16 -100 -88.5 -161.5t-172.5 -63.5z" />
    <glyph glyph-name="uogonek" unicode="&#x173;" 
d="M811 0q-8 0 -8 10l18 105q-281 -127 -452 -127q-127 0 -190.5 71.5t-43.5 188.5l152 862q4 16 20 16h41q18 0 14 -16l-151 -862q-16 -84 31 -135.5t141 -51.5q160 0 453 138l161 911q4 16 21 16h41q18 0 14 -16l-194 -1100q0 -10 -11 -10q-74 -88 -90 -162q-6 -35 23 -35
h90q14 0 12 -14l-4 -25q-4 -14 -16 -14h-105q-33 0 -49 19.5t-10 52.5q16 94 92 178z" />
    <glyph glyph-name="Wcircumflex" unicode="&#x174;" 
d="M770 1417l-37 -1200q0 -6 -4 -21.5t-4 -21.5h6q6 37 8 43l418 1200q6 16 23 17h45q16 0 10 -17l-496 -1401q-6 -16 -24 -16h-35q-16 0 -16 16l30 1182q0 8 4 24.5t4 18.5h-8q0 -2 -2 -18.5t-4 -24.5l-385 -1182q-4 -16 -22 -16h-35q-14 0 -19 16l-2 1401q0 16 17 17h45
q16 0 16 -17l-6 -1200q0 -6 -6 -43h4q6 37 8 43l387 1200q6 16 23 17h41q16 -1 16 -17zM823 1690l82 -148q6 -10 -6 -10h-41q-14 0 -20 12l-66 107l-102 -107q-12 -12 -27 -12h-39q-10 0 -4 10l135 148q10 12 25 12h43q16 0 20 -12z" />
    <glyph glyph-name="wcircumflex" unicode="&#x175;" 
d="M641 918l-350 -902q-6 -16 -25 -16h-41q-14 0 -18 16l-43 1094q-4 16 16 16h43q18 0 19 -16l28 -938q0 -27 -6 -51h6q4 27 13 51l358 938q4 16 23 16h36q18 0 19 -16l29 -938q0 -2 -7 -51h4q2 8 6.5 25.5t6.5 25.5l360 938q6 16 25 16h43q16 0 10 -16l-428 -1094
q-10 -16 -25 -16h-41q-18 0 -18 16l-33 902q0 2 6 53h-6q0 -26 -10 -53zM772 1382l82 -147q6 -10 -6 -10h-41q-14 0 -21 12l-65 106l-103 -106q-12 -12 -26 -12h-39q-10 0 -4 10l135 147q8 12 25 13h43q14 -1 20 -13z" />
    <glyph glyph-name="Ycircumflex" unicode="&#x176;" 
d="M1194 1417l-567 -831l-101 -570q0 -16 -18 -16h-45q-14 0 -14 16l100 570l-273 831q-4 16 13 17h51q16 0 20 -17l240 -717q4 -10 0 -41h4q4 29 14 41l492 717q10 16 27 17h51q16 -1 6 -17zM829 1690l82 -148q4 -10 -8 -10h-41q-14 0 -20 12l-64 107l-104 -107
q-10 -12 -27 -12h-39q-10 0 -4 10l135 148q10 12 25 12h43q16 0 22 -12z" />
    <glyph glyph-name="ycircumflex" unicode="&#x177;" 
d="M362 1110l-151 -862q-16 -84 32 -135.5t142 -51.5q98 0 231.5 47.5t219.5 90.5l161 911q4 16 21 16h41q18 0 14 -16l-203 -1151q-25 -133 -148.5 -205.5t-315.5 -72.5q-174 0 -279 34q-18 2 -25.5 8.5t-5.5 14.5l6 41q4 10 17 10h12q113 -35 279 -35q164 0 266 55.5
t119 155.5l26 150q-281 -127 -448 -127q-129 0 -193.5 71.5t-44.5 188.5l152 862q4 16 20 16h41q18 0 14 -16zM766 1382l82 -147q4 -10 -8 -10h-39q-16 0 -23 12l-63 106l-105 -106q-8 -12 -24 -12h-39q-14 0 -4 10l133 147q8 12 26 13h43q15 -1 21 -13z" />
    <glyph glyph-name="Ydieresis" unicode="&#x178;" 
d="M1194 1417l-567 -831l-101 -570q0 -16 -18 -16h-45q-14 0 -14 16l100 570l-273 831q-4 16 13 17h51q16 0 20 -17l240 -717q4 -10 0 -41h4q4 29 14 41l492 717q10 16 27 17h51q16 -1 6 -17zM541 1581l10 55q6 33 39 33h57q33 0 27 -33l-10 -55q-6 -33 -39 -33h-56
q-34 0 -28 33zM868 1581l9 55q6 33 38 33h58q33 0 26 -33l-10 -55q-4 -33 -39 -33h-55q-33 0 -27 33z" />
    <glyph glyph-name="Zacute" unicode="&#x179;" 
d="M897 61l-8 -45q-4 -16 -21 -16h-770q-18 0 -14 16l8 45q4 20 14 31l928 1264h-692q-14 0 -14 16l8 45q4 16 20 17h764q18 0 15 -17l-9 -45q-4 -16 -14 -31l-928 -1263h699q14 -1 14 -17zM715 1540l119 162q10 10 22 10h68q12 0 2 -10l-148 -162q-10 -10 -26 -10h-33
q-10 0 -4 10z" />
    <glyph glyph-name="zacute" unicode="&#x17a;" 
d="M104 92l875 961h-696q-14 0 -15 18l8 39q4 16 21 16h770q18 0 14 -16l-8 -45q-4 -18 -16 -31l-875 -960h707q18 0 14 -19l-8 -39q0 -16 -18 -16h-781q-18 0 -14 16l6 45q4 19 16 31zM672 1233l119 162q10 10 24 10h66q10 0 4 -10l-148 -162q-10 -10 -26 -10h-35
q-10 0 -4 10z" />
    <glyph glyph-name="Zdotaccent" unicode="&#x17b;" 
d="M897 61l-8 -45q-4 -16 -21 -16h-770q-18 0 -14 16l8 45q4 20 14 31l928 1264h-692q-14 0 -14 16l8 45q4 16 20 17h764q18 0 15 -17l-9 -45q-4 -16 -14 -31l-928 -1263h699q14 -1 14 -17zM698 1581l11 61q8 33 39 33h63q35 0 27 -33l-11 -61q-6 -33 -39 -33h-63
q-33 0 -27 33z" />
    <glyph glyph-name="zdotaccent" unicode="&#x17c;" 
d="M104 92l875 961h-696q-14 0 -15 18l8 39q4 16 21 16h770q18 0 14 -16l-8 -45q-4 -18 -16 -31l-875 -960h707q18 0 14 -19l-8 -39q0 -16 -18 -16h-781q-18 0 -14 16l6 45q4 19 16 31zM645 1274l10 61q8 33 39 33h64q33 0 28 -33l-12 -61q-4 -33 -39 -33h-63q-33 0 -27 33z
" />
    <glyph glyph-name="Zcaron" unicode="&#x17d;" 
d="M897 61l-8 -45q-4 -16 -21 -16h-770q-18 0 -14 16l8 45q4 20 14 31l928 1264h-692q-14 0 -14 16l8 45q4 16 20 17h764q18 0 15 -17l-9 -45q-4 -16 -14 -31l-928 -1263h699q14 -1 14 -17zM936 1692l-135 -148q-8 -12 -25 -12h-43q-16 0 -22 12l-80 148q-6 10 6 10h39
q16 0 22 -12l66 -107l102 107q12 12 25 12h41q10 0 4 -10z" />
    <glyph glyph-name="zcaron" unicode="&#x17e;" 
d="M104 92l875 961h-696q-14 0 -15 18l8 39q4 16 21 16h770q18 0 14 -16l-8 -45q-4 -18 -16 -31l-875 -960h707q18 0 14 -19l-8 -39q0 -16 -18 -16h-781q-18 0 -14 16l6 45q4 19 16 31zM883 1384l-133 -147q-12 -12 -27 -12h-43q-14 0 -21 12l-81 147q-6 10 8 11h37
q16 0 22 -13l66 -106l102 106q12 12 25 13h41q14 -1 4 -11z" />
    <glyph glyph-name="uni018F" unicode="&#x18f;" 
d="M328 72h338q66 0 112.5 39t59.5 102l75 440h-628l-78 -440q-10 -66 22.5 -103.5t98.5 -37.5zM238 731h690l84 479q12 66 -21 107t-98 41h-338q-66 0 -113 -40t-59 -106l-16 -90q0 -16 -19 -16h-45q-14 0 -14 16l16 88q18 102 91 164t175 62h334q102 0 152.5 -62.5
t32.5 -163.5l-175 -991q-18 -102 -90.5 -163.5t-173.5 -61.5h-336q-100 0 -151 60.5t-35 160.5l88 498q5 18 21 18z" />
    <glyph glyph-name="florin" unicode="&#x192;" 
d="M287 866l6 39q4 16 18 17h238l51 292q16 98 88 159t170 61h129q16 0 17 -17l-9 -39q-4 -18 -20 -18h-131q-63 0 -109.5 -39t-58.5 -104l-51 -295h260q16 0 16 -17l-8 -39q-4 -18 -21 -18h-260l-200 -1139q-4 -16 -21 -16h-41q-18 0 -14 16l201 1139h-238q-20 0 -12 18z
" />
    <glyph glyph-name="uni01DD" unicode="&#x1dd;" 
d="M324 66h346q66 0 111.5 38.5t56.5 102.5l57 328h-633l-57 -328q-10 -63 21.5 -102t97.5 -39zM217 606h692l54 307q12 66 -20 107t-97 41h-348q-63 0 -110.5 -40t-57.5 -103l-15 -74q-4 -18 -20 -19h-39q-20 0 -16 19l14 71q16 98 87 158t169 60h348q98 0 147.5 -59.5
t32.5 -158.5l-125 -704q-16 -98 -86.5 -157.5t-169.5 -59.5h-348q-98 0 -147 58.5t-33 156.5l68 381q0 16 20 16z" />
    <glyph glyph-name="Aringacute" unicode="&#x1fa;" 
d="M270 377h561l-118 880q-2 10 4 43h-8q-6 -39 -9 -43zM698 1540q-4 -27 10.5 -45t43.5 -18q27 0 48 18t25 45t-10 45.5t-40.5 18.5t-49.5 -18.5t-27 -45.5zM860 1620q27 -35 19 -80q-14 -82 -105 -123l187 -1401q4 -16 -15 -16h-45q-16 0 -20 16l-37 283h-611l-139 -283
q-6 -16 -24 -16h-45q-16 0 -11 16l680 1401l4 4q4 6 9 9q-35 12 -51.5 41.5t-10.5 68.5q8 47 49 81t88 34q27 0 43 -8l105 143q14 10 24 10h66q14 0 4 -10l-147 -162q-5 -4 -17 -8z" />
    <glyph glyph-name="aringacute" unicode="&#x1fb;" 
d="M836 199l129 729q-231 137 -404 137q-94 0 -158.5 -50t-80.5 -134l-111 -635q-16 -84 32 -134.5t142 -50.5q98 0 231.5 47.5t219.5 90.5zM661.5 1292.5q-4.5 -26.5 11 -45t42 -18.5t48 18.5t26 45t-10 45t-41 18.5t-49 -18.5t-27 -45zM860 0h-41q-18 0 -14 16l16 99
q-281 -127 -450 -127q-127 0 -191.5 70.5t-44.5 187.5l113 635q20 117 109 187.5t216 70.5q170 0 406 -127l18 98q4 16 21 16h41q18 0 14 -16l-192 -1094q-5 -16 -21 -16zM819 1376q33 -33 23 -84q-8 -47 -48 -81.5t-89 -34.5q-47 0 -76 34.5t-21 81.5t49 81t88 34
q20 0 31 -4l101 137q8 10 24 10h66q10 0 4 -10z" />
    <glyph glyph-name="AEacute" unicode="&#x1fc;" 
d="M240 377h356l156 874q2 10 12 43l-4 2q-8 -27 -17 -41zM584 299h-389l-162 -283q-6 -16 -25 -16h-49q-18 0 -8 16l805 1401q10 16 26 17h457q16 0 12 -17l-6 -45q-4 -16 -20 -16h-377l-115 -649h293q18 0 14 -17l-8 -43q-4 -18 -20 -18h-293l-96 -551h376q18 0 15 -17
l-8 -45q-4 -16 -21 -16h-438q-18 0 -15 16zM811 1540l121 162q10 10 22 10h68q12 0 2 -10l-147 -162q-10 -10 -27 -10h-33q-12 0 -6 10z" />
    <glyph glyph-name="aeacute" unicode="&#x1fd;" 
d="M487 211l60 332q-160 43 -250 43q-66 0 -114 -41t-60 -109l-41 -239q-12 -61 21.5 -98.5t93.5 -37.5q106 0 286 121q0 6 2 15.5t2 13.5zM967 1061h-111q-66 0 -112 -39t-56 -102l-57 -328h395l59 328q10 63 -21 102t-97 39zM1073 520h-455l-55 -307q-10 -66 21.5 -106.5
t95.5 -40.5h111q66 0 111.5 39.5t55.5 103.5l15 74q4 18 20 18h41q18 0 15 -18l-15 -72q-16 -98 -86.5 -157.5t-169.5 -59.5h-110q-145 0 -179 119q-195 -125 -317 -125q-88 0 -135 57t-31 152l41 239q18 98 89 158.5t163 60.5t260 -39l55 312q6 61 -26.5 97t-93.5 36h-105
q-68 0 -114 -42t-58 -110l-12 -63q-4 -18 -21 -19h-41q-18 0 -14 19l12 69q18 98 89 158t169 60h107q125 0 166 -86q74 86 196 86h111q98 0 147.5 -58.5t32.5 -156.5l-67 -381q-1 -17 -19 -17zM672 1233l119 162q10 10 22 10h68q10 0 4 -10l-150 -162q-10 -10 -26 -10h-33
q-10 0 -4 10z" />
    <glyph glyph-name="Oslashacute" unicode="&#x1fe;" 
d="M291 72l583 1290h-335q-66 0 -113 -40t-57 -105l-176 -1000q-10 -61 16.5 -100t81.5 -45zM930 1362l-582 -1290h336q66 0 112 40t58 105l176 1000q10 61 -17.5 100t-82.5 45zM1001 1513l-36 -75q82 -14 119.5 -73.5t23.5 -150.5l-176 -995q-18 -102 -92 -163.5
t-174 -61.5h-353l-41 -88q-8 -12 -18 -8l-27 8q-12 4 -6 16l35 74q-80 14 -118 73.5t-23 149.5l176 995q16 100 89 163t175 63h354l41 86q2 10 13 10h6l26 -6q10 -3 6 -17zM715 1540l119 162q10 10 22 10h68q12 0 2 -10l-148 -162q-10 -10 -26 -10h-33q-10 0 -4 10z" />
    <glyph glyph-name="oslashacute" unicode="&#x1ff;" 
d="M293 68l528 993h-323q-63 0 -110.5 -40t-57.5 -103l-125 -709q-10 -57 13.5 -94t74.5 -47zM872 1059l-526 -993h324q66 0 111.5 39.5t56.5 103.5l125 709q10 57 -14 94t-77 47zM217 -76l39 74q-74 16 -107.5 72.5t-19.5 140.5l125 704q16 98 87 158t169 60h348l47 88
q6 8 15 8h6l20 -8q12 -4 4 -17l-39 -76q74 -16 108 -72.5t19 -140.5l-125 -704q-16 -98 -86.5 -157.5t-169.5 -59.5h-348l-47 -88q-8 -12 -18 -8l-23 8q-10 6 -4 18zM670 1233l121 162q10 10 22 10h68q12 0 2 -10l-148 -162q-10 -10 -26 -10h-33q-12 0 -6 10z" />
    <glyph glyph-name="uni0218" unicode="&#x218;" 
d="M276 1047l29 167q18 100 92 163t174 63h334q102 0 153.5 -62.5t33.5 -163.5l-27 -151q-4 -16 -21 -16h-43q-18 0 -14 16l27 154q12 66 -20.5 105.5t-98.5 39.5h-340q-66 0 -113 -40t-59 -105l-27 -160q-14 -82 45 -123l492 -350q39 -27 56.5 -76t8.5 -100l-34 -191
q-16 -100 -89 -162.5t-176 -62.5h-356q-100 0 -151.5 61.5t-34.5 163.5l26 152q4 18 21 18h45q16 0 12 -16l-26 -154q-10 -66 22.5 -105.5t97.5 -39.5h361q66 0 113 40t57 105l33 182q14 80 -48 123l-489 348q-39 27 -57.5 76.5t-8.5 100.5zM373 -276l55 170q8 23 29 22h59
q23 0 12 -22l-82 -170q-10 -20 -28 -21h-33q-18 1 -12 21z" />
    <glyph glyph-name="uni0219" unicode="&#x219;" 
d="M934 322l-19 -107q-18 -100 -88.5 -160.5t-169.5 -60.5h-348q-98 0 -147 59.5t-33 157.5l14 82q4 16 21 16h41q18 0 14 -16l-14 -76q-10 -68 20.5 -109.5t98.5 -41.5h344q68 0 113.5 42t58.5 111l20 109q6 43 -7 83t-46 52l-469 166q-55 20 -77.5 81.5t-10.5 131.5l12 69
q18 100 89 161t169 61h328q98 0 147 -59.5t33 -158.5l-14 -81q-4 -16 -21 -17h-41q-18 0 -14 17l14 75q10 68 -20.5 110t-97.5 42h-324q-68 0 -114 -42t-58 -112l-14 -73q-6 -43 7 -82t46 -52l469 -168q55 -18 77.5 -79t10.5 -131zM373 -276l53 170q12 23 29 22h59
q25 0 14 -22l-82 -170q-10 -20 -30 -21h-31q-18 1 -12 21z" />
    <glyph glyph-name="uni021A" unicode="&#x21a;" 
d="M1217 1417l-5 -45q-4 -16 -20 -16h-428l-238 -1340q-4 -16 -20 -16h-43q-18 0 -14 16l237 1340h-422q-18 0 -14 16l4 45q4 16 18 17h930q19 -1 15 -17zM354 -276l54 170q10 23 28 22h60q25 0 12 -22l-82 -170q-6 -20 -29 -21h-30q-19 1 -13 21z" />
    <glyph glyph-name="uni021B" unicode="&#x21b;" 
d="M281 1071l6 39q4 16 20 16h246l33 189q4 16 20 16h41q18 0 15 -16l-33 -189h420q18 0 14 -16l-6 -39q-4 -18 -21 -18h-422l-147 -842q-10 -66 22.5 -104.5t96.5 -38.5h276q18 0 15 -17l-7 -39q-4 -16 -20 -16h-279q-98 0 -147 59.5t-33 157.5l150 840h-246q-18 0 -14 18z
M492 -276l53 170q8 23 28 22h60q25 0 12 -22l-82 -170q-6 -20 -28 -21h-31q-18 1 -12 21z" />
    <glyph glyph-name="uni0237" unicode="&#x237;" 
d="M451 1126h501q14 0 15 -16l-203 -1151q-25 -133 -143.5 -205.5t-307.5 -72.5q-164 0 -276 34q-18 2 -25.5 8.5t-5.5 14.5l8 41q0 10 15 10h14q104 -35 272 -35q160 0 258.5 55.5t114.5 155.5l193 1090h-443q-18 0 -14 18l6 37q5 16 21 16z" />
    <glyph glyph-name="uni0259" unicode="&#x259;" 
d="M324 66h346q66 0 111.5 38.5t56.5 102.5l57 328h-633l-57 -328q-10 -63 21.5 -102t97.5 -39zM217 606h692l54 307q12 66 -20 107t-97 41h-348q-63 0 -110.5 -40t-57.5 -103l-15 -74q-4 -18 -20 -19h-39q-20 0 -16 19l14 71q16 98 87 158t169 60h348q98 0 147.5 -59.5
t32.5 -158.5l-125 -704q-16 -98 -86.5 -157.5t-169.5 -59.5h-348q-98 0 -147 58.5t-33 156.5l68 381q0 16 20 16z" />
    <glyph glyph-name="circumflex" unicode="&#x2c6;" 
d="M811 1593l80 -149q6 -10 -6 -10h-41q-12 0 -21 12l-65 106l-103 -106q-16 -12 -26 -12h-39q-10 0 -4 10l135 149q10 10 24 11h43q17 -1 23 -11z" />
    <glyph glyph-name="caron" unicode="&#x2c7;" 
d="M918 1593l-134 -147q-10 -12 -26 -12h-41q-16 0 -23 12l-82 147q-2 10 9 11h38q14 0 21 -11l65 -108l103 106q12 12 26 13h39q13 -1 5 -11z" />
    <glyph glyph-name="breve" unicode="&#x2d8;" 
d="M909 1561l-4 -13q-10 -53 -48 -84.5t-89 -31.5h-61q-53 0 -80 32.5t-19 83.5l2 13q2 14 17 14h30q14 0 13 -14l-2 -21q-6 -51 43 -51h71q51 0 62 51l6 21q2 14 18 14h29q14 0 12 -14z" />
    <glyph glyph-name="dotaccent" unicode="&#x2d9;" 
d="M682 1483l10 61q8 33 39 33h64q14 0 21 -9t5 -24l-10 -61q-6 -33 -39 -33h-63q-33 0 -27 33z" />
    <glyph glyph-name="ring" unicode="&#x2da;" 
d="M639 1501q10 49 49 83t88 34q47 0 76 -35t20 -82q-10 -47 -50 -82t-87 -35q-49 0 -76.5 34t-19.5 83zM692 1501.5q-4 -26.5 10.5 -45t41 -18.5t49 18.5t26.5 45t-11 45t-42 18.5t-48.5 -18.5t-25.5 -45z" />
    <glyph glyph-name="ogonek" unicode="&#x2db;" 
d="M446 6h56q-78 -96 -92 -164q-6 -35 22 -35h90q16 0 13 -14l-5 -24q0 -16 -16 -17h-104q-33 0 -49.5 20.5t-10.5 53.5q16 96 96 180z" />
    <glyph glyph-name="tilde" unicode="&#x2dc;" 
d="M551 1466l6 39q4 25 54.5 42.5t80.5 17.5q29 0 45 -11l60 -32q6 -4 22 -4q47 0 121 36q2 2 6 2t4 -10l-6 -37q-6 -27 -53 -41t-80 -14q-29 0 -47 10l-59 33q-12 4 -21 4q-57 0 -121 -41q-4 -2 -8 -2q-6 0 -4 8z" />
    <glyph glyph-name="hungarumlaut" unicode="&#x2dd;" 
d="M741 1442l119 149q10 10 23 11h59q14 0 4 -11l-141 -147q-10 -12 -27 -12h-33q-14 0 -4 10zM557 1442l117 149q6 10 22 11h60q14 0 4 -11l-139 -147q-12 -12 -27 -12h-33q-14 0 -4 10z" />
    <glyph glyph-name="uni0400" unicode="&#x400;" 
d="M94 16l248 1401q4 16 20 17h750q18 0 14 -17l-8 -45q0 -16 -18 -16h-692l-113 -649h508q18 0 14 -17l-8 -43q-4 -18 -21 -18h-507l-99 -551h692q16 0 13 -17l-6 -45q-4 -16 -21 -16h-751q-19 0 -15 16zM715 1702l61 -162q4 -10 -8 -10h-33q-16 0 -22 10l-90 162
q-6 10 8 10h65q13 0 19 -10z" />
    <glyph glyph-name="uni0401" unicode="&#x401;" 
d="M94 16l248 1401q4 16 20 17h750q18 0 14 -17l-8 -45q0 -16 -18 -16h-692l-113 -649h508q18 0 14 -17l-8 -43q-4 -18 -21 -18h-507l-99 -551h692q16 0 13 -17l-6 -45q-4 -16 -21 -16h-751q-19 0 -15 16zM856 1581l10 55q4 33 37 33h58q33 0 26 -33l-8 -55q-6 -33 -39 -33
h-57q-33 0 -27 33zM528 1581l11 55q6 33 39 33h57q33 0 27 -33l-11 -55q-4 -33 -39 -33h-55q-33 0 -29 33z" />
    <glyph glyph-name="uni0402" unicode="&#x402;" 
d="M764 -2h-148q-14 0 -14 16l8 45q4 16 21 17h149q66 0 113 40t57 105l66 371q12 66 -20.5 105.5t-98.5 39.5h-373l-127 -721q-4 -16 -20 -16h-43q-18 0 -15 16l236 1340h-295q-18 0 -14 16l6 45q4 16 20 17h672q18 0 14 -17l-8 -45q-4 -16 -20 -16h-297l-94 -541h368
q102 0 153.5 -62.5t33.5 -162.5l-66 -367q-16 -100 -89 -162.5t-175 -62.5z" />
    <glyph glyph-name="uni0403" unicode="&#x403;" 
d="M432 1434h664q18 0 14 -17l-6 -45q-4 -16 -21 -16h-604l-235 -1340q-4 -16 -21 -16h-43q-18 0 -14 16l246 1401q4 17 20 17zM752 1540l118 162q10 10 23 10h68q12 0 2 -10l-148 -162q-10 -10 -27 -10h-32q-10 0 -4 10z" />
    <glyph glyph-name="uni0404" unicode="&#x404;" 
d="M1065 1063q-4 -16 -21 -16h-43q-18 0 -14 16l27 154q12 66 -20.5 105.5t-98.5 39.5h-340q-66 0 -113 -40t-57 -105l-82 -455h477q18 0 15 -19l-9 -41q-4 -16 -20 -16h-475l-84 -469q-10 -66 22.5 -105.5t98.5 -39.5h338q66 0 112.5 40t59.5 105l26 154q4 16 21 16h43
q18 0 14 -16l-27 -152q-18 -102 -90.5 -163.5t-173.5 -61.5h-336q-102 0 -152 62.5t-32 162.5l174 995q18 100 92 163t174 63h334q102 0 153.5 -62.5t33.5 -163.5z" />
    <glyph glyph-name="uni0405" unicode="&#x405;" 
d="M276 1047l29 167q18 100 92 163t174 63h334q102 0 153.5 -62.5t33.5 -163.5l-27 -151q-4 -16 -21 -16h-43q-18 0 -14 16l27 154q12 66 -20.5 105.5t-98.5 39.5h-340q-66 0 -113 -40t-59 -105l-27 -160q-14 -82 45 -123l492 -350q39 -27 56.5 -76t8.5 -100l-34 -191
q-16 -100 -89 -162.5t-176 -62.5h-356q-100 0 -151.5 61.5t-34.5 163.5l26 152q4 18 21 18h45q16 0 12 -16l-26 -154q-10 -66 22.5 -105.5t97.5 -39.5h361q66 0 113 40t57 105l33 182q14 80 -48 123l-489 348q-39 27 -57.5 76.5t-8.5 100.5z" />
    <glyph glyph-name="uni0406" unicode="&#x406;" 
d="M88 16l8 43q4 16 21 17h342l225 1282h-342q-14 0 -14 18l8 41q4 16 20 17h762q18 0 15 -17l-9 -41q0 -18 -18 -18h-344l-225 -1282h342q18 0 14 -17l-8 -43q0 -16 -19 -16h-764q-14 0 -14 16z" />
    <glyph glyph-name="uni0407" unicode="&#x407;" 
d="M88 16l8 43q4 16 21 17h342l225 1282h-342q-14 0 -14 18l8 41q4 16 20 17h762q18 0 15 -17l-9 -41q0 -18 -18 -18h-344l-225 -1282h342q18 0 14 -17l-8 -43q0 -16 -19 -16h-764q-14 0 -14 16zM539 1581l10 55q6 33 39 33h57q33 0 27 -33l-10 -55q-4 -33 -39 -33h-56
q-32 0 -28 33zM866 1581l11 55q4 33 36 33h58q33 0 26 -33l-8 -55q-6 -33 -39 -33h-57q-33 0 -27 33z" />
    <glyph glyph-name="uni0408" unicode="&#x408;" 
d="M631 1376l6 41q4 16 20 17h449q18 0 14 -17l-211 -1198q-18 -102 -91 -163.5t-175 -61.5h-334q-102 0 -153.5 61.5t-32.5 163.5l16 94q4 16 21 17h43q18 0 14 -17l-16 -96q-12 -66 20.5 -105.5t97.5 -39.5h340q66 0 113 40t59 105l201 1141h-387q-18 0 -14 18z" />
    <glyph glyph-name="uni0409" unicode="&#x409;" 
d="M936 729h-213l-115 -651h213q66 0 113 40t59 105l64 361q10 66 -22.5 105.5t-98.5 39.5zM846 1417l-109 -610h211q100 0 151.5 -62.5t35.5 -164.5l-64 -355q-16 -100 -89 -162.5t-175 -62.5h-272q-18 0 -15 16l236 1340h-275l-278 -1145q-51 -217 -236 -217h-30
q-18 0 -15 16l8 41q4 16 21 17h20q119 0 156 151l291 1198q4 16 20 17h393q15 -1 15 -17z" />
    <glyph glyph-name="uni040A" unicode="&#x40a;" 
d="M932 702h-240l-110 -624h239q66 0 113 40t59 105l58 334q12 66 -20.5 105.5t-98.5 39.5zM817 1417l-112 -637h239q100 0 151.5 -61.5t34.5 -163.5l-59 -330q-16 -102 -90 -163.5t-176 -61.5h-297q-20 0 -16 16l120 686h-448l-121 -686q-4 -16 -20 -16h-46q-18 0 -14 16
l248 1401q4 16 20 17h43q18 0 15 -17l-113 -637h451l112 637q4 16 21 17h43q18 -1 14 -17z" />
    <glyph glyph-name="uni040B" unicode="&#x40b;" 
d="M915 16l101 576q12 66 -20.5 105.5t-98.5 39.5h-373l-127 -721q-4 -16 -20 -16h-43q-18 0 -15 16l236 1340h-295q-18 0 -14 16l6 45q4 16 20 17h672q18 0 14 -17l-8 -45q-4 -16 -20 -16h-297l-94 -541h368q102 0 153.5 -62.5t33.5 -162.5l-101 -574q-4 -16 -20 -16h-43
q-19 0 -15 16z" />
    <glyph glyph-name="uni040C" unicode="&#x40c;" 
d="M293 694l-121 -678q-4 -16 -20 -16h-43q-18 0 -15 16l248 1401q4 16 20 17h44q18 0 14 -17l-115 -647h287l504 649q10 14 26 15h58q16 0 6 -15l-537 -688l320 -717q6 -14 -11 -14h-59q-14 0 -22 14l-299 680h-285zM713 1540l121 162q10 10 22 10h68q12 0 2 -10l-148 -162
q-10 -10 -26 -10h-33q-12 0 -6 10z" />
    <glyph glyph-name="uni040D" unicode="&#x40d;" 
d="M362 1434h44q18 0 14 -17l-215 -1212q-2 -20 -15 -43h5q18 35 20 39l836 1218q10 14 26 15h35q18 0 14 -17l-245 -1401q-4 -16 -21 -16h-43q-18 0 -14 16l213 1217q2 8 16 43h-6q-8 -27 -18 -41l-836 -1221q-14 -14 -29 -14h-34q-18 0 -15 16l248 1401q4 17 20 17z
M725 1702l61 -162q4 -10 -8 -10h-33q-16 0 -22 10l-90 162q-6 10 8 10h66q12 0 18 -10z" />
    <glyph glyph-name="uni040E" unicode="&#x40e;" 
d="M616 410l510 1007q6 16 23 17h49q16 0 10 -17l-608 -1206q-31 -59 -38 -72.5t-34.5 -54.5t-45 -52.5t-49.5 -24.5t-68 -13h-107q-18 0 -14 16l6 41q4 16 20 17h95q31 0 52 8t40.5 32.5t27 38t27.5 56.5q6 10 8 16l29 57l-283 1141q-4 16 17 17h49q14 0 18 -17l252 -1007
q2 -12 -2 -43h6q4 31 10 43zM645 1708q14 0 14 -14l-8 -56q-4 -23 8.5 -37t34.5 -14h174q51 0 62 51l12 56q4 14 19 14h32q16 0 13 -14l-9 -52q-10 -51 -48 -82.5t-91 -31.5h-174q-53 0 -79.5 31.5t-18.5 82.5l8 52q4 14 18 14h33z" />
    <glyph glyph-name="uni040F" unicode="&#x40f;" 
d="M862 0h-340l-43 -250q-4 -16 -20 -16h-43q-18 0 -15 16l43 250h-335q-18 0 -15 16l248 1401q4 16 20 17h44q18 0 14 -17l-238 -1339h633l236 1339q4 16 20 17h43q16 0 12 -19l-245 -1399q-5 -16 -19 -16z" />
    <glyph glyph-name="uni0410" unicode="&#x410;" 
d="M270 377h561l-118 880q-2 10 4 43h-8q-6 -39 -9 -43zM844 299h-611l-139 -283q-6 -16 -24 -16h-45q-16 0 -11 16l680 1401q10 16 27 17h33q16 0 20 -17l187 -1401q4 -16 -15 -16h-45q-16 0 -20 16z" />
    <glyph glyph-name="uni0411" unicode="&#x411;" 
d="M297 729l-115 -651h492q66 0 113 40t55 105l61 361q10 66 -23.5 105.5t-97.5 39.5h-485zM360 1434h664q18 0 14 -17l-12 -45q-4 -16 -20 -16h-598l-97 -549h488q100 0 150 -62.5t32 -164.5l-59 -355q-20 -102 -94 -163.5t-175 -61.5h-544q-18 0 -13 16l244 1401
q4 17 20 17z" />
    <glyph glyph-name="uni0412" unicode="&#x412;" 
d="M850 223l59 340q12 66 -20.5 106t-97.5 40h-496l-113 -631h496q66 0 113 39.5t59 105.5zM860 1356h-452l-101 -572h453q66 0 113 40t57 106l51 280q10 66 -22.5 106t-98.5 40zM985 549l-57 -326q-18 -100 -91 -161.5t-173 -61.5h-555q-18 0 -15 16l248 1401q4 16 20 17
h510q100 0 151.5 -61.5t33.5 -162.5l-45 -266q-25 -127 -129 -188q61 -23 88.5 -78t13.5 -129z" />
    <glyph glyph-name="uni0413" unicode="&#x413;" 
d="M432 1434h664q18 0 14 -17l-6 -45q-4 -16 -21 -16h-604l-235 -1340q-4 -16 -21 -16h-43q-18 0 -14 16l246 1401q4 17 20 17z" />
    <glyph glyph-name="uni0414" unicode="&#x414;" 
d="M178 78h627l225 1278h-495l-273 -1123q-27 -106 -84 -155zM-98 -250l55 311q4 16 16 17h97q82 23 112 145l289 1194q6 16 21 17h612q18 0 14 -17l-235 -1339h137q18 0 14 -17l-55 -311q-4 -16 -21 -16h-43q-18 0 -14 16l43 250h-919l-45 -250q-4 -16 -21 -16h-43
q-18 0 -14 16z" />
    <glyph glyph-name="uni0415" unicode="&#x415;" 
d="M94 16l248 1401q4 16 20 17h750q18 0 14 -17l-8 -45q0 -16 -18 -16h-692l-113 -649h508q18 0 14 -17l-8 -43q-4 -18 -21 -18h-507l-99 -551h692q16 0 13 -17l-6 -45q-4 -16 -21 -16h-751q-19 0 -15 16z" />
    <glyph glyph-name="uni0416" unicode="&#x416;" 
d="M569 696h-82l-438 -680q-10 -16 -29 -16h-49q-14 0 -8 16l463 715l-186 686q-4 16 12 17h51q16 0 21 -17l176 -647h82l114 647q4 16 21 17h43q18 0 14 -17l-115 -647h82l406 647q6 16 27 17h49q14 0 8 -17l-430 -686l211 -715q4 -16 -15 -16h-49q-16 0 -20 16l-201 680
h-80l-121 -680q-4 -16 -20 -16h-43q-18 0 -14 16z" />
    <glyph glyph-name="uni0417" unicode="&#x417;" 
d="M182 391h43q18 0 15 -16l-27 -154q-10 -66 22.5 -105.5t98.5 -39.5h328q66 0 112.5 40t56.5 105l60 340q12 66 -20.5 106t-98.5 40h-291q-18 0 -14 16l8 41q4 16 21 16h282q66 0 113 40t59 106l49 286q12 66 -20.5 106t-97.5 40h-312q-66 0 -112.5 -40t-59.5 -106
l-26 -153q-4 -16 -21 -17h-43q-18 0 -14 17l26 151q18 102 91 164t176 62h305q102 0 153.5 -61.5t32.5 -162.5l-47 -270q-27 -141 -145 -197q106 -55 82 -200l-58 -324q-16 -100 -90 -161.5t-174 -61.5h-323q-100 0 -151.5 61.5t-35.5 163.5l27 152q4 16 20 16z" />
    <glyph glyph-name="uni0418" unicode="&#x418;" 
d="M362 1434h44q18 0 14 -17l-215 -1212q-2 -20 -15 -43h5q18 35 20 39l836 1218q10 14 26 15h35q18 0 14 -17l-245 -1401q-4 -16 -21 -16h-43q-18 0 -14 16l213 1217q2 8 16 43h-6q-8 -27 -18 -41l-836 -1221q-14 -14 -29 -14h-34q-18 0 -15 16l248 1401q4 17 20 17z" />
    <glyph glyph-name="uni0419" unicode="&#x419;" 
d="M362 1434h44q18 0 14 -17l-215 -1212q-2 -20 -15 -43h5q18 35 20 39l836 1218q10 14 26 15h35q18 0 14 -17l-245 -1401q-4 -16 -21 -16h-43q-18 0 -14 16l213 1217q2 8 16 43h-6q-8 -27 -18 -41l-836 -1221q-14 -14 -29 -14h-34q-18 0 -15 16l248 1401q4 17 20 17z
M602 1708h35q16 0 12 -14l-8 -56q-6 -51 43 -51h176q51 0 62 51l10 56q4 14 18 14h35q12 0 12 -14l-10 -52q-10 -53 -48 -83.5t-89 -30.5h-176q-53 0 -79 31.5t-17 82.5l8 52q4 14 16 14z" />
    <glyph glyph-name="uni041A" unicode="&#x41a;" 
d="M293 694l-121 -678q-4 -16 -20 -16h-43q-18 0 -15 16l248 1401q4 16 20 17h44q18 0 14 -17l-115 -647h287l504 649q10 14 26 15h58q16 0 6 -15l-537 -688l320 -717q6 -14 -11 -14h-59q-14 0 -22 14l-299 680h-285z" />
    <glyph glyph-name="uni041B" unicode="&#x41b;" 
d="M860 0h-45q-16 0 -12 16l235 1340h-506l-276 -1145q-55 -217 -236 -217h-55q-18 0 -14 16l6 41q4 16 20 17h46q121 0 155 151l291 1198q4 16 20 17h623q18 0 14 -17l-245 -1401q-5 -16 -21 -16z" />
    <glyph glyph-name="uni041C" unicode="&#x41c;" 
d="M344 1208l-211 -1192q-4 -16 -18 -16h-43q-14 0 -15 16l248 1401q4 16 21 17h47q16 0 20 -17l176 -899q2 -16 -6 -43h8q2 4 4.5 19.5t6.5 23.5l493 899q10 16 27 17h47q18 0 14 -17l-248 -1401q0 -16 -18 -16h-41q-18 0 -14 16l209 1192q2 14 16 43l-8 2l-15 -43
l-456 -833q-8 -16 -25 -17h-28q-14 0 -19 17l-166 831q-2 6 0 22.5t2 20.5l-8 -2v-41z" />
    <glyph glyph-name="uni041D" unicode="&#x41d;" 
d="M94 16l248 1401q4 16 20 17h44q18 0 14 -17l-125 -710h629l125 710q4 16 20 17h43q18 0 14 -17l-245 -1401q-4 -16 -21 -16h-43q-18 0 -14 16l106 613h-628l-109 -613q-4 -16 -20 -16h-43q-19 0 -15 16z" />
    <glyph glyph-name="uni041E" unicode="&#x41e;" 
d="M371 1217l-183 -1000q-12 -66 21 -105.5t98 -39.5h371q66 0 113 40t59 105l182 1000q12 66 -19.5 105.5t-97.5 39.5h-370q-66 0 -114 -39.5t-60 -105.5zM113 219l180 995q16 102 89 164t173 62h367q102 0 153 -62.5t35 -163.5l-180 -995q-16 -100 -89 -162.5t-175 -62.5
h-365q-102 0 -153 62.5t-35 162.5z" />
    <glyph glyph-name="uni041F" unicode="&#x41f;" 
d="M94 16l248 1401q4 16 20 17h750q18 0 14 -17l-245 -1401q-4 -16 -21 -16h-43q-18 0 -14 16l235 1340h-630l-236 -1340q-4 -16 -20 -16h-43q-19 0 -15 16z" />
    <glyph glyph-name="uni0420" unicode="&#x420;" 
d="M872 1356h-464l-123 -699h465q66 0 112.5 41t57.5 105l71 407q12 66 -20.5 106t-98.5 40zM733 580h-461l-100 -564q-4 -16 -20 -16h-43q-18 0 -15 16l248 1401q4 16 18 17h523q102 0 153 -62.5t33 -163.5l-72 -403q-16 -100 -89 -162.5t-175 -62.5z" />
    <glyph glyph-name="uni0421" unicode="&#x421;" 
d="M885 387h43q18 0 14 -16l-27 -152q-18 -102 -90.5 -163.5t-173.5 -61.5h-336q-102 0 -152 62.5t-32 162.5l174 995q18 100 92 163t174 63h334q102 0 153.5 -62.5t33.5 -163.5l-27 -151q-4 -16 -21 -16h-43q-18 0 -14 16l27 154q12 66 -20.5 105.5t-98.5 39.5h-340
q-66 0 -113 -40t-57 -105l-178 -1000q-10 -66 22.5 -105.5t98.5 -39.5h338q66 0 112.5 40t59.5 105l26 154q5 16 21 16z" />
    <glyph glyph-name="uni0422" unicode="&#x422;" 
d="M1217 1417l-5 -45q-4 -16 -20 -16h-428l-238 -1340q-4 -16 -20 -16h-43q-18 0 -14 16l237 1340h-422q-18 0 -14 16l4 45q4 16 18 17h930q19 -1 15 -17z" />
    <glyph glyph-name="uni0423" unicode="&#x423;" 
d="M616 410l510 1007q6 16 23 17h49q16 0 10 -17l-608 -1206q-31 -59 -38 -72.5t-34.5 -54.5t-45 -52.5t-49.5 -24.5t-68 -13h-107q-18 0 -14 16l6 41q4 16 20 17h95q31 0 52 8t40.5 32.5t27 38t27.5 56.5q6 10 8 16l29 57l-283 1141q-4 16 17 17h49q14 0 18 -17l252 -1007
q2 -6 -4 -43h8q4 31 10 43z" />
    <glyph glyph-name="uni0424" unicode="&#x424;" 
d="M483 215l179 1004h-228q-66 0 -113 -40t-57 -106l-127 -713q-10 -66 23 -105.5t98 -39.5h225zM739 1219l-178 -1004h225q66 0 113 40t59 105l125 713q12 66 -20.5 106t-97.5 40h-226zM717 1440h43q18 0 14 -17l-22 -127h223q102 0 153.5 -61t32.5 -164l-125 -709
q-18 -102 -91 -163.5t-175 -61.5h-223l-23 -127q-4 -16 -18 -16h-45q-18 0 -15 16l23 127h-223q-100 0 -151.5 61.5t-35.5 163.5l125 709q18 102 91 163.5t176 61.5h223l22 127q5 17 21 17z" />
    <glyph glyph-name="uni0425" unicode="&#x425;" 
d="M1120 1434h56q16 0 6 -15l-518 -669l297 -736q6 -14 -13 -14h-53q-14 0 -23 14l-262 639q-4 10 0 41h-8q-4 -27 -14 -41l-488 -639q-10 -14 -28 -14h-54q-16 0 -6 14l557 736l-282 669q-8 14 10 15h55q16 0 23 -15l246 -577q4 -8 0 -41h8q4 29 14 41l449 577q14 15 28 15
z" />
    <glyph glyph-name="uni0426" unicode="&#x426;" 
d="M420 1417l-238 -1339h615l235 1339q4 16 21 17h43q18 0 14 -19l-236 -1337h140q18 0 14 -17l-55 -311q-4 -16 -21 -16h-43q-18 0 -14 16l45 250h-831q-18 0 -15 16l248 1401q4 16 20 17h44q18 -1 14 -17z" />
    <glyph glyph-name="uni0427" unicode="&#x427;" 
d="M860 0h-43q-18 0 -14 16l104 602h-501q-100 0 -151.5 61.5t-35.5 164.5l103 573q4 16 20 17h43q18 0 14 -17l-102 -575q-10 -66 22.5 -106t98.5 -40h504l127 721q4 16 20 17h43q18 0 14 -17l-245 -1401q-5 -16 -21 -16z" />
    <glyph glyph-name="uni0428" unicode="&#x428;" 
d="M324 1417l-236 -1339h371l235 1339q4 16 21 17h45q14 0 12 -19l-235 -1337h372l236 1339q4 16 20 17h43q16 0 15 -19l-248 -1399q-4 -16 -19 -16h-942q-18 0 -14 16l246 1401q4 16 20 17h43q19 -1 15 -17z" />
    <glyph glyph-name="uni0429" unicode="&#x429;" 
d="M-16 16l245 1401q4 16 21 17h43q18 0 14 -17l-235 -1339h340l237 1339q4 16 21 17h43q16 0 14 -19l-238 -1337h342l236 1339q4 16 20 17h43q16 0 15 -19l-236 -1337h127q18 0 15 -17l-56 -311q-4 -16 -20 -16h-43q-18 0 -14 16l45 250h-965q-18 0 -14 16z" />
    <glyph glyph-name="uni042A" unicode="&#x42a;" 
d="M487 729l-114 -651h323q66 0 113 40t57 105l64 361q12 63 -20.5 104t-98.5 41h-324zM201 1372l6 45q4 16 20 17h369q14 0 14 -17l-108 -610h319q102 0 153.5 -62.5t33.5 -164.5l-64 -355q-16 -100 -89 -162.5t-175 -62.5h-381q-18 0 -14 16l235 1340h-307q-16 0 -12 16z
" />
    <glyph glyph-name="uni042B" unicode="&#x42b;" 
d="M211 729l-115 -651h365q66 0 113 40t59 105l63 361q10 66 -22.5 105.5t-98.5 39.5h-364zM332 1417l-109 -610h365q100 0 151.5 -62.5t34.5 -164.5l-63 -355q-18 -102 -91 -163.5t-174 -61.5h-426q-14 0 -14 16l248 1401q4 16 20 17h43q19 -1 15 -17zM1210 1417
l-245 -1401q-4 -16 -21 -16h-43q-18 0 -14 16l246 1401q4 16 20 17h45q16 -1 12 -17z" />
    <glyph glyph-name="uni042C" unicode="&#x42c;" 
d="M297 729l-115 -651h496q66 0 113 40t57 105l63 361q12 63 -20.5 104t-97.5 41h-496zM420 1417l-109 -610h492q102 0 153.5 -62.5t32.5 -164.5l-61 -355q-18 -100 -92 -162.5t-174 -62.5h-553q-18 0 -15 16l248 1401q4 16 20 17h44q18 -1 14 -17z" />
    <glyph glyph-name="uni042D" unicode="&#x42d;" 
d="M279 1063l26 151q18 100 92 163t174 63h334q102 0 153.5 -62.5t33.5 -163.5l-177 -995q-18 -102 -90.5 -163.5t-173.5 -61.5h-336q-102 0 -152 62.5t-32 162.5l27 152q4 16 18 16h45q18 0 15 -16l-29 -154q-10 -66 22.5 -105.5t98.5 -39.5h338q66 0 112.5 40t59.5 105
l82 469h-441q-14 0 -14 16l8 41q4 18 21 19h440l80 455q12 66 -20.5 105.5t-98.5 39.5h-340q-66 0 -113 -40t-57 -105l-29 -154q-4 -16 -20 -16h-43q-18 0 -14 16z" />
    <glyph glyph-name="uni042E" unicode="&#x42e;" 
d="M637 1217l-176 -1000q-12 -66 20.5 -105.5t98.5 -39.5h182q66 0 113 40t59 105l176 1000q10 66 -22.5 105.5t-98.5 39.5h-182q-66 0 -113 -39.5t-57 -105.5zM383 219l72 410h-271l-106 -613q-4 -16 -21 -16h-43q-18 0 -14 16l246 1401q4 16 20 17h43q18 0 15 -17
l-125 -710h270l90 507q16 100 89 163t175 63h178q100 0 151.5 -61.5t35.5 -164.5l-176 -995q-18 -102 -91 -163.5t-176 -61.5h-176q-102 0 -153 62.5t-33 162.5z" />
    <glyph glyph-name="uni042F" unicode="&#x42f;" 
d="M922 692l116 664h-516q-66 0 -111.5 -40t-56.5 -106l-63 -372q-8 -66 24.5 -106t98.5 -40h508zM547 614l-416 -598q-10 -16 -27 -16h-53q-18 0 -8 16l418 598h-64q-102 0 -152 62.5t-30 163.5l61 368q18 100 92 163t177 63h567q18 0 14 -17l-245 -1401q-4 -16 -21 -16
h-45q-16 0 -12 16l104 598h-360z" />
    <glyph glyph-name="uni0430" unicode="&#x430;" 
d="M836 199l129 729q-231 137 -404 137q-94 0 -158.5 -50t-80.5 -134l-111 -635q-16 -84 32 -134.5t142 -50.5q98 0 231.5 47.5t219.5 90.5zM860 0h-41q-18 0 -14 16l16 99q-281 -127 -450 -127q-127 0 -191.5 70.5t-44.5 187.5l113 635q20 117 109 187.5t216 70.5
q170 0 406 -127l18 98q4 16 21 16h41q18 0 14 -16l-192 -1094q-5 -16 -21 -16z" />
    <glyph glyph-name="uni0431" unicode="&#x431;" 
d="M328 911l-125 -704q-10 -63 23.5 -102t103.5 -39h329q68 0 115 42t57 109l121 680q12 66 -25.5 105.5t-103.5 39.5q-110 0 -495 -131zM844 1114q94 0 147 -60.5t37 -156.5l-121 -686q-16 -98 -87.5 -157.5t-170.5 -59.5h-336q-100 0 -151 56t-35 151l162 919
q39 219 293 258q14 2 197.5 29t242.5 35h8q10 0 14.5 -4t2.5 -11l-9 -41q0 -18 -32 -20q-330 -45 -431 -59q-180 -25 -210 -185l-23 -129q371 121 502 121z" />
    <glyph glyph-name="uni0432" unicode="&#x432;" 
d="M760 539h-498l-82 -465h498q68 0 115 38t57 101l33 176q10 68 -22.5 109t-100.5 41zM803 1053h-451l-78 -441h451q68 0 115 41t59 109l29 160q10 59 -23.5 95t-101.5 36zM850 588q61 -23 91 -77t15 -130l-30 -174q-16 -94 -87 -150.5t-169 -56.5h-561q-18 0 -15 16
l193 1094q4 16 20 16h512q98 0 149.5 -54t35.5 -144l-29 -158q-23 -127 -125 -182z" />
    <glyph glyph-name="uni0433" unicode="&#x433;" 
d="M129 215l14 74q12 70 56.5 131t105.5 82l537 215q37 14 64.5 53t35.5 80l10 57q10 70 -20.5 112t-97.5 42h-324q-68 0 -114 -42t-58 -110l-14 -75q0 -16 -19 -17h-43q-16 0 -12 17l14 81q16 98 87 158t169 60h328q98 0 147 -60.5t33 -161.5l-10 -53q-10 -66 -55 -127
t-107 -86l-537 -215q-80 -29 -100 -133l-12 -78q-12 -70 18.5 -111.5t98.5 -41.5h344q68 0 113.5 42t58.5 109l14 76q0 16 18 16h43q16 0 13 -16l-15 -82q-16 -98 -86.5 -157.5t-169.5 -59.5h-348q-98 0 -147 60.5t-33 160.5z" />
    <glyph glyph-name="uni0434" unicode="&#x434;" 
d="M840 217l127 725q-256 119 -428 119q-84 0 -143.5 -51.5t-73.5 -135.5l-117 -665q-12 -66 19.5 -104.5t99.5 -38.5h344q68 0 114 41.5t58 109.5zM406 1440l421 -51q139 -18 203 -91t45 -178l-162 -909q-16 -98 -86.5 -157.5t-169.5 -59.5h-348q-98 0 -148 57.5t-34 151.5
l119 671q23 117 104.5 189t194.5 72q186 0 436 -113l18 104q12 72 -36 125.5t-144 65.5l-430 51q-20 6 -20 21l8 36q4 14 18 15h11z" />
    <glyph glyph-name="uni0435" unicode="&#x435;" 
d="M846 1061h-348q-66 0 -112 -39t-56 -102l-58 -328h633l60 328q10 63 -21.5 102t-97.5 39zM952 520h-694l-53 -307q-12 -66 19.5 -106.5t97.5 -40.5h348q66 0 111.5 39.5t56.5 103.5l14 74q4 18 20 18h41q18 0 15 -18l-15 -72q-16 -98 -86.5 -157.5t-169.5 -59.5h-348
q-98 0 -147 59.5t-33 157.5l125 704q16 98 87 158t169 60h348q98 0 147.5 -58.5t32.5 -156.5l-67 -381q-1 -17 -19 -17z" />
    <glyph glyph-name="uni0436" unicode="&#x436;" 
d="M541 537h-72l-408 -523q-10 -14 -28 -14h-49q-16 0 -7 14l437 559l-219 539q-4 14 14 14h49q16 0 21 -14l204 -502h72l86 500q4 16 23 16h41q16 0 12 -16l-86 -500h71l379 502q10 14 29 14h49q18 0 4 -14l-405 -539l239 -559q6 -14 -12 -14h-49q-14 0 -23 14l-223 523
h-74l-90 -521q-4 -16 -20 -16h-41q-18 0 -14 16z" />
    <glyph glyph-name="uni0437" unicode="&#x437;" 
d="M481 621h275q68 0 116 40.5t58 108.5l24 154q10 59 -25.5 95t-103.5 36h-313q-68 0 -116 -41t-58 -109l-14 -76q-4 -18 -21 -18h-41q-18 0 -14 18l16 80q18 98 89 158.5t169 60.5h328q98 0 147.5 -54t32.5 -144l-22 -152q-25 -137 -146 -192q115 -51 86 -197l-28 -186
q-16 -92 -88 -148.5t-170 -56.5h-349q-100 0 -148 60.5t-30 158.5l15 80q4 18 20 18h41q18 0 14 -18l-14 -76q-10 -68 23.5 -108.5t101.5 -40.5h336q68 0 116 37.5t58 101.5l31 186q10 68 -25 109t-102 41h-285q-18 0 -12 18l8 39q4 17 20 17z" />
    <glyph glyph-name="uni0438" unicode="&#x438;" 
d="M860 0h-41q-18 0 -14 16l16 99q-281 -127 -452 -127q-127 0 -190.5 71.5t-43.5 188.5l152 862q4 16 20 16h41q18 0 14 -16l-151 -862q-16 -84 31 -135.5t141 -51.5q96 0 232.5 47.5t220.5 90.5l161 911q4 16 21 16h41q18 0 14 -16l-192 -1094q-5 -16 -21 -16z" />
    <glyph glyph-name="uni0439" unicode="&#x439;" 
d="M362 1110l-151 -862q-16 -84 31 -135.5t141 -51.5q96 0 232.5 47.5t220.5 90.5l161 911q4 16 21 16h41q18 0 14 -16l-192 -1094q-4 -16 -21 -16h-41q-18 0 -14 16l16 99q-281 -127 -452 -127q-127 0 -190.5 71.5t-43.5 188.5l152 862q4 16 20 16h41q18 0 14 -16z
M938 1393l-10 -50q-10 -53 -48 -84.5t-89 -31.5h-181q-53 0 -78.5 32.5t-17.5 83.5l8 50q0 14 17 14h34q12 0 13 -14l-8 -54q-6 -51 43 -51h180q51 0 61 51l10 54q4 14 19 14h35q12 0 12 -14z" />
    <glyph glyph-name="uni043A" unicode="&#x43a;" 
d="M508 537h-246l-92 -521q-4 -16 -20 -16h-41q-18 0 -15 16l193 1094q4 16 20 16h41q18 0 14 -16l-88 -500h246l494 502q14 14 26 14h58q23 0 8 -14l-528 -539l362 -559q10 -14 -12 -14h-58q-12 0 -22 14z" />
    <glyph glyph-name="uni043B" unicode="&#x43b;" 
d="M987 1053h-477l-205 -842q-51 -217 -235 -217h-47q-18 0 -15 16l6 39q4 16 21 17h41q117 0 155 151l218 893q4 16 20 16h590q18 0 14 -16l-192 -1094q-4 -16 -21 -16h-41q-18 0 -14 16z" />
    <glyph glyph-name="uni043C" unicode="&#x43c;" 
d="M1055 1126h49q18 0 14 -16l-192 -1094q-4 -16 -19 -16h-43q-16 0 -12 16l162 930q2 4 8 19.5t8 23.5h-8q-12 -37 -14 -41l-449 -702q-10 -16 -27 -17h-16q-16 0 -20 17l-201 702v41h-8v-43l-164 -930q-4 -16 -21 -16h-41q-18 0 -14 16l193 1094q4 16 20 16h51
q16 0 21 -16l209 -739q4 -10 -2 -41h8q4 31 12 41l469 739q11 16 27 16z" />
    <glyph glyph-name="uni043D" unicode="&#x43d;" 
d="M897 537h-635l-92 -521q-4 -16 -20 -16h-41q-18 0 -15 16l193 1094q4 16 20 16h41q18 0 14 -16l-88 -500h635l88 500q4 16 21 16h41q18 0 14 -16l-192 -1094q-4 -16 -21 -16h-41q-18 0 -14 16z" />
    <glyph glyph-name="uni043E" unicode="&#x43e;" 
d="M330 918l-127 -709q-12 -66 19.5 -104.5t94.5 -38.5h349q63 0 110 38.5t62 104.5l127 709q12 66 -20 104.5t-95 38.5h-348q-63 0 -110.5 -38.5t-61.5 -104.5zM127 211l127 704q16 98 87 158t169 60h348q98 0 148.5 -59.5t33.5 -158.5l-127 -704q-16 -98 -86.5 -157.5
t-169.5 -59.5h-348q-98 0 -148 59.5t-34 157.5z" />
    <glyph glyph-name="uni043F" unicode="&#x43f;" 
d="M307 1126h41q18 0 14 -16l-16 -98q281 127 453 127q125 0 189.5 -72t43.5 -188l-151 -863q-4 -16 -21 -16h-41q-18 0 -14 16l151 863q16 84 -30.5 135t-141.5 51q-96 0 -232 -47t-220 -90l-162 -912q-4 -16 -20 -16h-41q-18 0 -15 16l193 1094q4 16 20 16z" />
    <glyph glyph-name="uni0440" unicode="&#x440;" 
d="M332 928l-129 -729q231 -137 403 -138q94 0 158.5 50.5t81.5 134.5l110 635q16 84 -31.5 134t-142.5 50q-98 0 -231 -47t-219 -90zM96 -307h-41q-18 0 -14 16l246 1401q4 16 20 16h41q18 0 14 -16l-16 -98q281 127 451 127q127 0 191.5 -71t43.5 -187l-112 -635
q-20 -117 -109.5 -187.5t-216.5 -70.5q-170 0 -406 127l-71 -406q-5 -16 -21 -16z" />
    <glyph glyph-name="uni0441" unicode="&#x441;" 
d="M322 66h348q66 0 111.5 39.5t56.5 103.5l14 84q4 16 20 16h41q18 0 15 -16l-15 -82q-16 -98 -86.5 -157.5t-169.5 -59.5h-348q-98 0 -147 59.5t-33 157.5l123 704q18 98 89 158t169 60h348q98 0 147.5 -59.5t32.5 -158.5l-14 -81q-4 -16 -20 -17h-41q-18 0 -15 17l15 84
q12 63 -20 103t-97 40h-348q-63 0 -110.5 -39t-59.5 -104l-123 -709q-12 -63 19.5 -103t97.5 -40z" />
    <glyph glyph-name="uni0442" unicode="&#x442;" 
d="M874 16l160 904q12 66 -18.5 105.5t-87.5 39.5q-100 0 -230 -119q0 -4 -1 -12t-1 -14l-161 -904q0 -16 -19 -16h-43q-14 0 -14 16l162 904q10 68 -20 106.5t-87 38.5q-104 0 -231 -127l-162 -922q-4 -16 -21 -16h-41q-18 0 -14 16l193 1094q4 16 20 16h41q18 0 14 -16
l-14 -84q125 113 240 113q57 0 99 -33t56 -90q137 123 260 123q82 0 127 -61.5t29 -157.5l-160 -904q-4 -16 -20 -16h-41q-19 0 -15 16z" />
    <glyph glyph-name="uni0443" unicode="&#x443;" 
d="M362 1110l-151 -862q-16 -84 32 -135.5t142 -51.5q98 0 231.5 47.5t219.5 90.5l161 911q4 16 21 16h41q18 0 14 -16l-203 -1151q-25 -133 -148.5 -205.5t-315.5 -72.5q-174 0 -279 34q-18 2 -25.5 8.5t-5.5 14.5l6 41q4 10 17 10h12q113 -35 279 -35q164 0 266 55.5
t119 155.5l26 150q-281 -127 -448 -127q-129 0 -193.5 71.5t-44.5 188.5l152 862q4 16 20 16h41q18 0 14 -16z" />
    <glyph glyph-name="uni0444" unicode="&#x444;" 
d="M242 61q86 0 235 103l141 799q-117 102 -200 102q-59 0 -105.5 -40t-58.5 -105l-125 -713q-12 -66 20 -106t93 -40zM913 207l125 713q12 66 -19.5 105.5t-92.5 39.5q-84 0 -232 -100l-141 -803q113 -100 197 -101q59 0 105 40t58 106zM539 84l-66 -375q-4 -16 -20 -16
h-41q-18 0 -15 16l66 377q-150 -98 -250 -98q-84 0 -130 61.5t-30 157.5l125 713q18 96 86 157.5t152 61.5q100 0 215 -99l67 377q4 16 21 17h41q18 0 14 -17l-65 -375q147 96 245 97q84 0 130 -61.5t30 -157.5l-125 -713q-18 -96 -85.5 -157.5t-151.5 -61.5q-100 0 -213 96
z" />
    <glyph glyph-name="uni0445" unicode="&#x445;" 
d="M608 649l434 463q10 14 29 14h57q16 0 7 -14l-502 -539l301 -557q6 -16 -10 -16h-58q-14 0 -24 16l-254 482q-2 2 -2 26h-4q-6 -25 -9 -26l-450 -484q-14 -14 -29 -14h-57q-16 0 -4 14l512 561l-295 535q-4 16 12 16h55q14 0 25 -16l250 -461q4 -8 0 -26h6q0 12 10 26z
" />
    <glyph glyph-name="uni0446" unicode="&#x446;" 
d="M1061 1110l-184 -1036h143q8 0 12 -5.5t2 -11.5l-53 -301q0 -18 -18 -18h-41q-16 0 -17 18l45 244h-143q-16 0 -16 16l18 99q-291 -127 -451 -127q-127 0 -191.5 71.5t-43.5 188.5l151 862q4 16 21 16h41q18 0 14 -16l-151 -862q-16 -84 30.5 -135.5t141.5 -51.5
q170 0 452 138l162 911q4 16 19 16h40q21 0 17 -16z" />
    <glyph glyph-name="uni0447" unicode="&#x447;" 
d="M856 0h-41q-18 0 -14 16l90 512q-262 -109 -438 -108q-131 0 -198 66.5t-46 175.5l78 448q4 16 20 16h41q18 0 14 -16l-75 -444q-12 -76 38 -122t146 -46q160 0 434 112l86 500q4 16 21 16h43q16 0 12 -16l-190 -1094q-5 -16 -21 -16z" />
    <glyph glyph-name="uni0448" unicode="&#x448;" 
d="M301 1110l-160 -903q-10 -68 19.5 -107t87.5 -39q102 0 231 119q0 10 4 27l158 903q4 16 21 16h40q18 0 15 -16l-160 -903q-10 -68 19.5 -107t87.5 -39q104 0 229 125l164 924q4 16 20 16h41q14 0 15 -16l-193 -1094q-4 -16 -20 -16h-41q-18 0 -15 16l15 82
q-129 -111 -240 -110q-59 0 -101 32.5t-55 90.5q-145 -123 -260 -123q-84 0 -129 61.5t-26 157.5l157 903q4 16 21 16h41q18 0 14 -16z" />
    <glyph glyph-name="uni0449" unicode="&#x449;" 
d="M301 1110l-160 -903q-10 -68 19.5 -107t87.5 -39q102 0 231 119q0 10 4 27l158 903q4 16 21 16h40q18 0 15 -16l-160 -903q-10 -68 19.5 -107t87.5 -39q104 0 229 125l164 924q4 16 20 16h41q18 0 15 -16l-185 -1036h125q20 0 12 -19l-53 -305q-4 -16 -18 -16h-41
q-16 0 -17 16l45 250h-122q-18 0 -15 16l15 82q-129 -111 -240 -110q-59 0 -101 32.5t-55 90.5q-145 -123 -260 -123q-84 0 -129 61.5t-26 157.5l157 903q4 16 21 16h41q18 0 14 -16z" />
    <glyph glyph-name="uni044A" unicode="&#x44a;" 
d="M756 569h-297l-86 -495h295q68 0 117 41t59 108l35 197q12 68 -21.5 108.5t-101.5 40.5zM143 1071l7 39q4 16 20 16h371q18 0 14 -16l-82 -467h303q98 0 147.5 -60.5t32.5 -158.5l-36 -205q-16 -98 -88 -158.5t-170 -60.5h-361q-18 0 -14 16l182 1037h-311q-19 0 -15 18z
" />
    <glyph glyph-name="uni044B" unicode="&#x44b;" 
d="M500 569h-258l-86 -495h256q68 0 117 41t59 108l35 197q12 68 -21.5 108.5t-101.5 40.5zM283 1126h41q18 0 14 -16l-82 -467h264q98 0 147.5 -60.5t32.5 -158.5l-36 -205q-16 -98 -88 -158.5t-170 -60.5h-322q-18 0 -14 16l192 1094q5 16 21 16zM885 0h-41q-18 0 -15 16
l193 1094q4 16 20 16h41q18 0 15 -16l-193 -1094q-4 -16 -20 -16z" />
    <glyph glyph-name="uni044C" unicode="&#x44c;" 
d="M739 569h-467l-88 -495h467q68 0 116 41t60 108l35 197q12 68 -21.5 108.5t-101.5 40.5zM645 0h-532q-14 0 -15 16l195 1094q0 16 18 16h41q18 0 15 -16l-82 -467h473q98 0 147 -60.5t33 -158.5l-37 -205q-16 -98 -87 -158.5t-169 -60.5z" />
    <glyph glyph-name="uni044D" unicode="&#x44d;" 
d="M293 817h-41q-14 0 -14 17l14 81q18 98 89 158t169 60h348q98 0 147.5 -59.5t32.5 -158.5l-125 -704q-16 -98 -86.5 -157.5t-169.5 -59.5h-348q-98 0 -147 59.5t-33 157.5l14 82q4 16 21 16h41q18 0 14 -16l-14 -84q-12 -63 19.5 -103t97.5 -40h348q66 0 111.5 39.5
t56.5 103.5l57 328h-481q-16 0 -15 18l7 39q4 16 20 16h483l54 308q12 63 -20 103t-97 40h-348q-63 0 -110.5 -39t-59.5 -104l-15 -84q-4 -17 -20 -17z" />
    <glyph glyph-name="uni044E" unicode="&#x44e;" 
d="M600 909l-121 -692q-12 -68 22 -109.5t101 -41.5h137q68 0 117 42t59 109l123 692q12 68 -21.5 110t-101.5 42h-137q-68 0 -117 -42t-61 -110zM401 211l58 326h-260l-93 -521q-4 -16 -20 -16h-41q-18 0 -14 16l192 1094q4 16 21 16h41q18 0 14 -16l-88 -500h262l53 305
q16 98 87 158t169 60h152q98 0 148.5 -59.5t31.5 -158.5l-123 -704q-18 -98 -89 -157.5t-169 -59.5h-151q-98 0 -147.5 59.5t-33.5 157.5z" />
    <glyph glyph-name="uni044F" unicode="&#x44f;" 
d="M414 557h465l88 496h-471q-68 0 -116 -42t-61 -112l-30 -192q-10 -68 23.5 -109t101.5 -41zM80 14l377 469h-68q-98 0 -147 60.5t-31 158.5l35 201q18 100 90 161.5t170 61.5h532q16 0 13 -16l-191 -1094q-4 -16 -20 -16h-43q-16 0 -13 16l82 467h-321l-379 -469
q-10 -14 -27 -14h-53q-20 0 -6 14z" />
    <glyph glyph-name="uni0450" unicode="&#x450;" 
d="M846 1061h-348q-66 0 -112 -39t-56 -102l-58 -328h633l60 328q10 63 -21.5 102t-97.5 39zM952 520h-694l-53 -307q-12 -66 19.5 -106.5t97.5 -40.5h348q66 0 111.5 39.5t56.5 103.5l14 74q4 18 20 18h41q18 0 15 -18l-15 -72q-16 -98 -86.5 -157.5t-169.5 -59.5h-348
q-98 0 -147 59.5t-33 157.5l125 704q16 98 87 158t169 60h348q98 0 147.5 -58.5t32.5 -156.5l-67 -381q-1 -17 -19 -17zM664 1395l61 -162q4 -10 -8 -10h-33q-16 0 -22 10l-91 162q-10 10 7 10h67q13 0 19 -10z" />
    <glyph glyph-name="uni0451" unicode="&#x451;" 
d="M846 1061h-348q-66 0 -112 -39t-56 -102l-58 -328h633l60 328q10 63 -21.5 102t-97.5 39zM952 520h-694l-53 -307q-12 -66 19.5 -106.5t97.5 -40.5h348q66 0 111.5 39.5t56.5 103.5l14 74q4 18 20 18h41q18 0 15 -18l-15 -72q-16 -98 -86.5 -157.5t-169.5 -59.5h-348
q-98 0 -147 59.5t-33 157.5l125 704q16 98 87 158t169 60h348q98 0 147.5 -58.5t32.5 -156.5l-67 -381q-1 -17 -19 -17zM477 1274l10 55q6 33 39 33h56q35 0 28 -33l-10 -55q-6 -33 -39 -33h-57q-33 0 -27 33zM803 1274l10 55q6 33 39 33h57q33 0 27 -33l-10 -55
q-6 -33 -39 -33h-56q-32 0 -28 33z" />
    <glyph glyph-name="uni0452" unicode="&#x452;" 
d="M150 0h-41q-18 0 -15 20l215 1217h-119q-16 0 -12 14l6 35q2 14 19 14h119l20 117q4 16 20 17h41q14 0 15 -17l-23 -117h342q12 0 13 -14l-7 -35q-4 -14 -18 -14h-340l-41 -223q274 125 453 125q127 0 191.5 -72t43.5 -188l-172 -975q-16 -96 -85.5 -153.5t-168.5 -57.5
h-178q-18 0 -14 16l6 39q4 18 20 19h178q63 0 110.5 37.5t57.5 99.5l172 975q14 84 -33.5 135t-142.5 51q-170 0 -452 -133l-160 -912q-4 -20 -20 -20z" />
    <glyph glyph-name="uni0453" unicode="&#x453;" 
d="M129 215l14 74q12 70 56.5 131t105.5 82l537 215q37 14 64.5 53t35.5 80l10 57q10 70 -20.5 112t-97.5 42h-324q-68 0 -114 -42t-58 -110l-14 -75q0 -16 -19 -17h-43q-16 0 -12 17l14 81q16 98 87 158t169 60h328q98 0 147 -60.5t33 -161.5l-10 -53q-10 -66 -55 -127
t-107 -86l-537 -215q-80 -29 -100 -133l-12 -78q-12 -70 18.5 -111.5t98.5 -41.5h344q68 0 113.5 42t58.5 109l14 76q0 16 18 16h43q16 0 13 -16l-15 -82q-16 -98 -86.5 -157.5t-169.5 -59.5h-348q-98 0 -147 60.5t-33 160.5zM672 1233l119 162q14 10 24 10h66q16 0 2 -10
l-146 -162q-10 -10 -26 -10h-35q-10 0 -4 10z" />
    <glyph glyph-name="uni0454" unicode="&#x454;" 
d="M1004 817h-41q-18 0 -15 17l15 84q12 63 -20 103t-97 40h-348q-66 0 -112 -40t-56 -103l-56 -308h484q18 0 14 -16l-6 -39q-4 -18 -21 -18h-483l-57 -328q-12 -63 19.5 -103t97.5 -40h348q63 0 110 38.5t60 104.5l14 84q4 16 20 16h41q14 0 15 -16l-15 -82
q-18 -98 -88.5 -157.5t-169.5 -59.5h-348q-98 0 -147 59.5t-33 157.5l125 704q16 98 87 158t169 60h348q98 0 147.5 -59.5t32.5 -158.5l-14 -81q-4 -17 -20 -17z" />
    <glyph glyph-name="uni0455" unicode="&#x455;" 
d="M934 322l-19 -107q-18 -100 -88.5 -160.5t-169.5 -60.5h-348q-98 0 -147 59.5t-33 157.5l14 82q4 16 21 16h41q18 0 14 -16l-14 -76q-10 -68 20.5 -109.5t98.5 -41.5h344q68 0 113.5 42t58.5 111l20 109q6 43 -7 83t-46 52l-469 166q-55 20 -77.5 81.5t-10.5 131.5l12 69
q18 100 89 161t169 61h328q98 0 147 -59.5t33 -158.5l-14 -81q-4 -16 -21 -17h-41q-18 0 -14 17l14 75q10 68 -20.5 110t-97.5 42h-324q-68 0 -114 -42t-58 -112l-14 -73q-6 -43 7 -82t46 -52l469 -168q55 -18 77.5 -79t10.5 -131z" />
    <glyph glyph-name="uni0456" unicode="&#x456;" 
d="M297 1073l8 37q4 16 19 16h391q14 0 14 -16l-184 -1038h332q18 0 14 -19l-8 -37q0 -16 -19 -16h-737q-18 0 -14 16l6 37q4 18 20 19h330l174 983h-332q-14 0 -14 18zM586 1329l20 123q4 27 31 27h127q27 0 20 -27l-20 -123q-4 -27 -31 -26h-127q-26 -1 -20 26z" />
    <glyph glyph-name="uni0457" unicode="&#x457;" 
d="M297 1073l8 37q4 16 19 16h391q14 0 14 -16l-184 -1038h332q18 0 14 -19l-8 -37q0 -16 -19 -16h-737q-18 0 -14 16l6 37q4 18 20 19h330l174 983h-332q-14 0 -14 18zM424 1274l10 55q6 33 39 33h57q33 0 27 -33l-10 -55q-6 -33 -39 -33h-55q-35 0 -29 33zM750 1274l10 55
q6 33 39 33h57q33 0 27 -33l-11 -55q-4 -33 -38 -33h-56q-32 0 -28 33z" />
    <glyph glyph-name="uni0458" unicode="&#x458;" 
d="M451 1126h501q14 0 15 -16l-203 -1151q-25 -133 -143.5 -205.5t-307.5 -72.5q-164 0 -276 34q-18 2 -25.5 8.5t-5.5 14.5l8 41q0 10 15 10h14q104 -35 272 -35q160 0 258.5 55.5t114.5 155.5l193 1090h-443q-18 0 -14 18l6 37q5 16 21 16zM879 1479h125q29 0 22 -27
l-20 -123q-6 -27 -33 -26h-125q-27 0 -23 26l23 123q4 27 31 27z" />
    <glyph glyph-name="uni0459" unicode="&#x459;" 
d="M1004 223l34 197q12 68 -21.5 108.5t-101.5 40.5h-229l-88 -495h229q68 0 116.5 40.5t60.5 108.5zM1114 424l-37 -205q-16 -98 -86.5 -158.5t-169.5 -60.5h-295q-14 0 -14 16l184 1037h-284l-205 -842q-55 -217 -236 -217h-26q-18 0 -15 16l9 39q0 16 20 17h18
q117 0 156 151l215 893q4 16 21 16h397q18 0 14 -16l-82 -467h236q98 0 147 -60.5t33 -158.5z" />
    <glyph glyph-name="uni045A" unicode="&#x45a;" 
d="M985 223l33 180q10 68 -23.5 109t-101.5 41h-227l-84 -479h227q68 0 116 40.5t60 108.5zM764 1110l-84 -483h231q100 0 149.5 -60.5t33.5 -158.5l-33 -189q-18 -98 -89 -158.5t-171 -60.5h-291q-14 0 -14 16l96 537h-434l-95 -537q-4 -16 -20 -16h-41q-18 0 -14 16
l192 1094q4 16 21 16h41q18 0 14 -16l-84 -483h432l84 483q4 16 21 16h41q18 0 14 -16z" />
    <glyph glyph-name="uni045B" unicode="&#x45b;" 
d="M158 1251l6 35q2 14 18 14h140l20 117q4 16 20 17h41q14 0 15 -17l-21 -117h340q12 0 13 -14l-7 -35q-4 -14 -18 -14h-340l-39 -225q281 127 453 127q125 0 189.5 -72t43.5 -188l-151 -863q-4 -16 -21 -16h-41q-18 0 -14 16l151 863q16 84 -30.5 135t-141.5 51
q-96 0 -232 -47t-220 -90l-162 -912q-4 -16 -20 -16h-41q-18 0 -15 16l215 1221h-139q-16 0 -12 14z" />
    <glyph glyph-name="uni045C" unicode="&#x45c;" 
d="M508 537h-246l-92 -521q-4 -16 -20 -16h-41q-18 0 -15 16l193 1094q4 16 20 16h41q18 0 14 -16l-88 -500h246l494 502q14 14 26 14h58q23 0 8 -14l-528 -539l362 -559q10 -14 -12 -14h-58q-12 0 -22 14zM608 1233l121 162q10 10 23 10h67q12 0 2 -10l-147 -162
q-10 -10 -27 -10h-33q-12 0 -6 10z" />
    <glyph glyph-name="uni045D" unicode="&#x45d;" 
d="M860 0h-41q-18 0 -14 16l16 99q-281 -127 -452 -127q-127 0 -190.5 71.5t-43.5 188.5l152 862q4 16 20 16h41q18 0 14 -16l-151 -862q-16 -84 31 -135.5t141 -51.5q96 0 232.5 47.5t220.5 90.5l161 911q4 16 21 16h41q18 0 14 -16l-192 -1094q-5 -16 -21 -16zM670 1395
l63 -162q4 -10 -8 -10h-33q-16 0 -22 10l-90 162q-10 10 6 10h67q13 0 17 -10z" />
    <glyph glyph-name="uni045E" unicode="&#x45e;" 
d="M362 1110l-151 -862q-16 -84 32 -135.5t142 -51.5q98 0 231.5 47.5t219.5 90.5l161 911q4 16 21 16h41q18 0 14 -16l-203 -1151q-25 -133 -148.5 -205.5t-315.5 -72.5q-174 0 -279 34q-18 2 -25.5 8.5t-5.5 14.5l6 41q4 10 17 10h12q113 -35 279 -35q164 0 266 55.5
t119 155.5l26 150q-281 -127 -448 -127q-129 0 -193.5 71.5t-44.5 188.5l152 862q4 16 20 16h41q18 0 14 -16zM938 1393l-8 -50q-10 -53 -49 -84.5t-90 -31.5h-179q-51 0 -78.5 31.5t-19.5 84.5l8 50q4 14 19 14h32q14 0 15 -14l-8 -54q-6 -51 43 -51h180q51 0 61 51l10 54
q4 14 19 14h35q14 0 10 -14z" />
    <glyph glyph-name="uni045F" unicode="&#x45f;" 
d="M860 0h-41q-18 0 -14 16l16 99q-170 -74 -276 -101l-47 -258q-8 -18 -21 -18h-41q-18 0 -14 18l43 240q-66 -8 -96 -8q-127 0 -190.5 71.5t-43.5 188.5l152 862q4 16 20 16h41q18 0 14 -16l-151 -862q-16 -84 31 -135.5t141 -51.5q96 0 232.5 47.5t220.5 90.5l161 911
q4 16 21 16h41q18 0 14 -16l-192 -1094q-5 -16 -21 -16z" />
    <glyph glyph-name="uni0490" unicode="&#x490;" 
d="M166 16l246 1401q4 16 20 17h596l39 221q4 18 20 18h43q18 0 15 -18l-49 -283q-4 -16 -21 -16h-596l-235 -1340q-4 -16 -21 -16h-43q-18 0 -14 16z" />
    <glyph glyph-name="uni0491" unicode="&#x491;" 
d="M70 -6h-47q-18 0 -15 16l6 39q4 16 21 17h41q117 0 155 151l218 893q4 16 20 16h418l37 203q4 18 20 19h41q18 0 14 -19l-45 -258q-4 -18 -20 -18h-424l-205 -842q-51 -217 -235 -217z" />
    <glyph glyph-name="uni04D8" unicode="&#x4d8;" 
d="M328 72h338q66 0 112.5 39t59.5 102l75 440h-628l-78 -440q-10 -66 22.5 -103.5t98.5 -37.5zM238 731h690l84 479q12 66 -21 107t-98 41h-338q-66 0 -113 -40t-59 -106l-16 -90q0 -16 -19 -16h-45q-14 0 -14 16l16 88q18 102 91 164t175 62h334q102 0 152.5 -62.5
t32.5 -163.5l-175 -991q-18 -102 -90.5 -163.5t-173.5 -61.5h-336q-100 0 -151 60.5t-35 160.5l88 498q5 18 21 18z" />
    <glyph glyph-name="uni04D9" unicode="&#x4d9;" 
d="M324 66h346q66 0 111.5 38.5t56.5 102.5l57 328h-633l-57 -328q-10 -63 21.5 -102t97.5 -39zM217 606h692l54 307q12 66 -20 107t-97 41h-348q-63 0 -110.5 -40t-57.5 -103l-15 -74q-4 -18 -20 -19h-39q-20 0 -16 19l14 71q16 98 87 158t169 60h348q98 0 147.5 -59.5
t32.5 -158.5l-125 -704q-16 -98 -86.5 -157.5t-169.5 -59.5h-348q-98 0 -147 58.5t-33 156.5l68 381q0 16 20 16z" />
    <glyph glyph-name="Wgrave" unicode="&#x1e80;" 
d="M770 1417l-37 -1200q0 -6 -4 -21.5t-4 -21.5h6q6 37 8 43l418 1200q6 16 23 17h45q16 0 10 -17l-496 -1401q-6 -16 -24 -16h-35q-16 0 -16 16l30 1182q0 8 4 24.5t4 18.5h-8q0 -2 -2 -18.5t-4 -24.5l-385 -1182q-4 -16 -22 -16h-35q-14 0 -19 16l-2 1401q0 16 17 17h45
q16 0 16 -17l-6 -1200q0 -6 -6 -43h4q6 37 8 43l387 1200q6 16 23 17h41q16 -1 16 -17zM721 1702l63 -162q4 -10 -8 -10h-33q-16 0 -22 10l-90 162q-10 10 6 10h68q12 0 16 -10z" />
    <glyph glyph-name="wgrave" unicode="&#x1e81;" 
d="M641 918l-350 -902q-6 -16 -25 -16h-41q-14 0 -18 16l-43 1094q-4 16 16 16h43q18 0 19 -16l28 -938q0 -27 -6 -51h6q4 27 13 51l358 938q4 16 23 16h36q18 0 19 -16l29 -938q0 -2 -7 -51h4q2 8 6.5 25.5t6.5 25.5l360 938q6 16 25 16h43q16 0 10 -16l-428 -1094
q-10 -16 -25 -16h-41q-18 0 -18 16l-33 902q0 2 6 53h-6q0 -26 -10 -53zM670 1395l63 -162q4 -10 -8 -10h-35q-14 0 -20 10l-90 162q-10 10 6 10h67q13 0 17 -10z" />
    <glyph glyph-name="Wacute" unicode="&#x1e82;" 
d="M770 1417l-37 -1200q0 -6 -4 -21.5t-4 -21.5h6q6 37 8 43l418 1200q6 16 23 17h45q16 0 10 -17l-496 -1401q-6 -16 -24 -16h-35q-16 0 -16 16l30 1182q0 8 4 24.5t4 18.5h-8q0 -2 -2 -18.5t-4 -24.5l-385 -1182q-4 -16 -22 -16h-35q-14 0 -19 16l-2 1401q0 16 17 17h45
q16 0 16 -17l-6 -1200q0 -6 -6 -43h4q6 37 8 43l387 1200q6 16 23 17h41q16 -1 16 -17zM711 1540l118 162q10 10 25 10h66q10 0 4 -10l-148 -162q-10 -10 -26 -10h-35q-10 0 -4 10z" />
    <glyph glyph-name="wacute" unicode="&#x1e83;" 
d="M641 918l-350 -902q-6 -16 -25 -16h-41q-14 0 -18 16l-43 1094q-4 16 16 16h43q18 0 19 -16l28 -938q0 -27 -6 -51h6q4 27 13 51l358 938q4 16 23 16h36q18 0 19 -16l29 -938q0 -2 -7 -51h4q2 8 6.5 25.5t6.5 25.5l360 938q6 16 25 16h43q16 0 10 -16l-428 -1094
q-10 -16 -25 -16h-41q-18 0 -18 16l-33 902q0 2 6 53h-6q0 -26 -10 -53zM670 1233l121 162q10 10 22 10h68q12 0 2 -10l-148 -162q-10 -10 -26 -10h-33q-12 0 -6 10z" />
    <glyph glyph-name="Wdieresis" unicode="&#x1e84;" 
d="M770 1417l-37 -1200q0 -6 -4 -21.5t-4 -21.5h6q6 37 8 43l418 1200q6 16 23 17h45q16 0 10 -17l-496 -1401q-6 -16 -24 -16h-35q-16 0 -16 16l30 1182q0 8 4 24.5t4 18.5h-8q0 -2 -2 -18.5t-4 -24.5l-385 -1182q-4 -16 -22 -16h-35q-14 0 -19 16l-2 1401q0 16 17 17h45
q16 0 16 -17l-6 -1200q0 -6 -6 -43h4q6 37 8 43l387 1200q6 16 23 17h41q16 -1 16 -17zM862 1581l10 55q6 33 39 33h58q33 0 26 -33l-10 -55q-6 -33 -39 -33h-57q-33 0 -27 33zM537 1581l10 55q4 33 39 33h55q35 0 29 -33l-11 -55q-6 -33 -38 -33h-58q-32 0 -26 33z" />
    <glyph glyph-name="wdieresis" unicode="&#x1e85;" 
d="M641 918l-350 -902q-6 -16 -25 -16h-41q-14 0 -18 16l-43 1094q-4 16 16 16h43q18 0 19 -16l28 -938q0 -27 -6 -51h6q4 27 13 51l358 938q4 16 23 16h36q18 0 19 -16l29 -938q0 -2 -7 -51h4q2 8 6.5 25.5t6.5 25.5l360 938q6 16 25 16h43q16 0 10 -16l-428 -1094
q-10 -16 -25 -16h-41q-18 0 -18 16l-33 902q0 2 6 53h-6q0 -26 -10 -53zM811 1274l10 55q6 33 39 33h58q33 0 26 -33l-10 -55q-6 -33 -39 -33h-57q-33 0 -27 33zM485 1274l11 55q4 33 39 33h55q33 0 28 -33l-10 -55q-6 -33 -39 -33h-57q-33 0 -27 33z" />
    <glyph glyph-name="uni1E9E" unicode="&#x1e9e;" 
d="M612 864l355 494h-410q-66 0 -112 -40t-56 -104l-213 -1198q0 -16 -18 -16h-45q-14 0 -15 16l213 1198q16 98 87 159t169 61h508q18 0 8 -17l-399 -575h121q94 0 140 -60.5t30 -156.5l-72 -408q-16 -96 -88 -156.5t-170 -60.5h-205q-14 0 -14 16l8 43q4 16 21 17h200
q68 0 114 41t58 108l70 402q12 68 -22.5 108.5t-104.5 40.5h-160q-18 0 -14 19l6 34q4 19 10 35z" />
    <glyph glyph-name="Ygrave" unicode="&#x1ef2;" 
d="M1194 1417l-567 -831l-101 -570q0 -16 -18 -16h-45q-14 0 -14 16l100 570l-273 831q-4 16 13 17h51q16 0 20 -17l240 -717q4 -10 0 -41h4q4 29 14 41l492 717q10 16 27 17h51q16 -1 6 -17zM727 1702l61 -162q4 -10 -8 -10h-32q-16 0 -23 10l-90 162q-10 10 6 10h68
q12 0 18 -10z" />
    <glyph glyph-name="ygrave" unicode="&#x1ef3;" 
d="M362 1110l-151 -862q-16 -84 32 -135.5t142 -51.5q98 0 231.5 47.5t219.5 90.5l161 911q4 16 21 16h41q18 0 14 -16l-203 -1151q-25 -133 -148.5 -205.5t-315.5 -72.5q-174 0 -279 34q-18 2 -25.5 8.5t-5.5 14.5l6 41q4 10 17 10h12q113 -35 279 -35q164 0 266 55.5
t119 155.5l26 150q-281 -127 -448 -127q-129 0 -193.5 71.5t-44.5 188.5l152 862q4 16 20 16h41q18 0 14 -16zM659 1395l62 -162q4 -10 -8 -10h-33q-16 0 -23 10l-90 162q-10 10 6 10h68q12 0 18 -10z" />
    <glyph glyph-name="figuredash" unicode="&#x2012;" 
d="M285 700v39q0 16 18 17h561q18 0 19 -17v-39q0 -18 -19 -18h-561q-18 0 -18 18z" />
    <glyph glyph-name="endash" unicode="&#x2013;" 
d="M205 606v39q0 14 14 14h729q14 0 15 -14v-39q0 -16 -15 -16h-729q-14 0 -14 16z" />
    <glyph glyph-name="emdash" unicode="&#x2014;" 
d="M51 606v39q0 14 15 14h1036q14 0 14 -14v-39q0 -16 -14 -16h-1036q-15 0 -15 16z" />
    <glyph glyph-name="quoteleft" unicode="&#x2018;" 
d="M743 1434h58q23 0 16 -25l-129 -377q-10 -27 -35 -26h-108q-29 0 -15 26l179 377q14 25 34 25z" />
    <glyph glyph-name="quoteright" unicode="&#x2019;" 
d="M602 1006h-57q-23 0 -17 24l131 377q6 27 33 27h109q27 0 14 -27l-178 -377q-10 -24 -35 -24z" />
    <glyph glyph-name="quotesinglbase" unicode="&#x201a;" 
d="M373 -244h-58q-23 0 -16 23l131 379q6 27 33 26h108q27 0 17 -26l-182 -379q-6 -23 -33 -23z" />
    <glyph glyph-name="quotedblleft" unicode="&#x201c;" 
d="M934 1434h57q23 0 17 -25l-131 -377q-6 -27 -35 -26h-109q-29 0 -14 26l180 377q15 25 35 25zM645 1434h55q27 0 17 -25l-133 -377q-6 -27 -33 -26h-109q-25 0 -14 26l180 377q14 25 37 25z" />
    <glyph glyph-name="quotedblright" unicode="&#x201d;" 
d="M498 1006h-56q-27 0 -16 24l131 377q6 27 35 27h108q25 0 15 -27l-180 -377q-14 -24 -37 -24zM788 1006h-57q-25 0 -14 24l131 377q10 27 35 27h106q27 0 17 -27l-181 -377q-14 -24 -37 -24z" />
    <glyph glyph-name="quotedblbase" unicode="&#x201e;" 
d="M279 -244h-58q-23 0 -16 23l131 379q10 27 35 26h108q29 0 15 -26l-181 -379q-9 -23 -34 -23zM569 -244h-57q-23 0 -16 23l133 379q6 27 33 26h108q27 0 16 -26l-182 -379q-10 -23 -35 -23z" />
    <glyph glyph-name="dagger" unicode="&#x2020;" 
d="M326 1077l8 37q4 14 18 14h297l68 394q4 14 18 14h39q16 0 12 -14l-69 -394h299q14 0 10 -14l-8 -37q-4 -14 -19 -14h-292l-240 -1356q-4 -14 -16 -14h-39q-16 0 -13 14l238 1356h-299q-16 0 -12 14z" />
    <glyph glyph-name="daggerdbl" unicode="&#x2021;" 
d="M158 98l8 37q4 16 18 17h293l162 927h-299q-14 0 -12 15l8 36q4 14 18 15h297l66 377q4 14 18 14h39q16 0 12 -14l-65 -377h297q14 0 10 -15l-8 -36q-2 -14 -19 -15h-292l-164 -927h301q16 0 12 -17l-8 -37q-4 -14 -19 -14h-296l-68 -377q-4 -14 -16 -14h-39
q-16 0 -13 14l66 377h-297q-14 0 -10 14z" />
    <glyph glyph-name="bullet" unicode="&#x2022;" 
d="M420 539l31 172q14 72 84 71h174q33 0 49 -19.5t10 -51.5l-31 -172q-14 -72 -84 -72h-174q-33 0 -48 19.5t-11 52.5z" />
    <glyph glyph-name="ellipsis" unicode="&#x2026;" 
d="M395 27l25 139q4 27 31 27h135q27 0 22 -27l-24 -139q-4 -27 -31 -27h-137q-27 0 -21 27zM47 27l23 139q8 27 32 27h136q27 0 22 -27l-24 -139q-4 -27 -31 -27h-137q-27 0 -21 27zM727 27l25 139q4 27 30 27h138q10 0 16 -8.5t4 -18.5l-25 -139q-4 -27 -30 -27h-135
q-27 0 -23 27z" />
    <glyph glyph-name="perthousand" unicode="&#x2030;" 
d="M29 623l1169 292h4q10 0 10 -12l2 -37q4 -16 -16 -20l-1167 -291q-16 0 -17 12v37q-5 15 15 19zM240 1225l-35 -201q-12 -66 17.5 -106.5t88.5 -40.5h27q59 0 103 40.5t55 106.5l36 201q10 66 -18.5 106.5t-87.5 40.5h-29q-59 0 -103 -40.5t-54 -106.5zM137 1028l33 193
q18 100 85 159.5t159 59.5h20q92 0 137 -59.5t29 -159.5l-35 -193q-16 -98 -83.5 -158.5t-157.5 -60.5h-23q-92 0 -137 60.5t-27 158.5zM713 213l20 115q16 100 75.5 160.5t139.5 60.5h19q78 0 115.5 -60.5t21.5 -160.5l-21 -115q-18 -100 -76.5 -159.5t-138.5 -59.5h-18
q-80 0 -116.5 59.5t-20.5 159.5zM803 332l-23 -123q-12 -66 10.5 -107t71.5 -41h19q49 0 84.5 40t48.5 108l20 123q12 68 -9 107.5t-73 39.5h-16q-49 0 -86 -40.5t-47 -106.5zM250 213l20 115q16 100 76 160.5t139 60.5h17q80 0 117.5 -60.5t21.5 -160.5l-20 -115
q-18 -100 -77 -159.5t-138 -59.5h-19q-80 0 -116.5 59.5t-20.5 159.5zM340 332l-23 -123q-12 -66 10.5 -107t71.5 -41h17q49 0 86 41t49 107l20 123q12 66 -10 106.5t-72 40.5h-16q-49 0 -86 -40.5t-47 -106.5z" />
    <glyph glyph-name="guilsinglleft" unicode="&#x2039;" 
d="M870 956l-409 -331l293 -330q12 -8 -2 -23l-31 -24q-6 -8 -12.5 -8t-12.5 6l-305 346q-12 8 -8 29l2 8q4 20 16 28l430 347q6 6 12.5 6t12.5 -9l18 -22q12 -13 -4 -23z" />
    <glyph glyph-name="guilsinglright" unicode="&#x203a;" 
d="M729 625l-295 331q-8 12 6 23l27 22q8 8 14 8.5t11 -5.5l309 -347q8 -14 6 -28l-2 -8q-4 -18 -17 -29l-430 -346q-6 -6 -12 -6t-12 8l-19 24q-10 12 4 23z" />
    <glyph glyph-name="fraction" unicode="&#x2044;" 
d="M-104 -57l1380 1585q8 8 14 8l8 -4l27 -23q10 -6 0 -20l-1380 -1585q-6 -6 -12.5 -6t-8.5 2l-28 22q-12 9 0 21z" />
    <glyph glyph-name="Euro" unicode="&#x20ac;" 
d="M80 575l6 33q4 18 20 19h142l33 180h-144q-18 0 -14 18l6 35q4 16 21 17h143l59 337q16 100 89 163t175 63h289q102 0 153.5 -62.5t33.5 -163.5l-27 -151q-4 -16 -21 -16h-43q-18 0 -14 16l27 154q12 66 -20.5 105.5t-98.5 39.5h-295q-66 0 -113 -40t-57 -105l-59 -340
h440q18 0 14 -17l-6 -35q-4 -18 -20 -18h-441l-32 -180h442q16 0 12 -19l-6 -33q0 -18 -18 -18h-443l-59 -340q-12 -66 20.5 -105.5t98.5 -39.5h293q66 0 112.5 40t59.5 105l26 154q4 16 21 16h43q18 0 14 -16l-27 -152q-18 -102 -90.5 -163.5t-173.5 -61.5h-289
q-102 0 -153 62.5t-33 162.5l60 338h-142q-16 0 -14 18z" />
    <glyph glyph-name="uni20B4" unicode="&#x20b4;" 
d="M156 575l6 33q4 16 20 17h201l291 182h-459q-18 0 -14 18l6 33q4 16 20 16h555l92 58q43 27 72 82t39 112l16 93q12 63 -21.5 103t-98.5 40h-314q-66 0 -112.5 -40t-57.5 -105l-20 -113q-4 -16 -21 -17h-43q-18 0 -14 17l20 110q16 100 89 163t176 63h309
q102 0 153.5 -60.5t32.5 -160.5l-14 -82q-35 -184 -143 -252l-15 -11h113q16 0 12 -16l-4 -33q-4 -18 -20 -18h-209l-291 -182h467q18 0 14 -17l-6 -33q-4 -18 -20 -18h-564l-55 -35q-88 -61 -113 -192l-20 -115q-10 -66 22.5 -104.5t98.5 -38.5h334q66 0 112.5 40t59.5 105
l20 113q0 16 19 16h45q14 0 14 -18l-21 -111q-18 -102 -90.5 -163.5t-175.5 -61.5h-330q-100 0 -151 61.5t-35 161.5l19 102q27 152 127 240h-109q-14 0 -14 18z" />
    <glyph glyph-name="uni2116" unicode="&#x2116;" 
d="M958 1223l-28 -156q-10 -68 12.5 -107.5t71.5 -39.5h14q49 0 86 39.5t49 107.5l27 156q12 66 -10.5 106.5t-71.5 40.5h-16q-49 0 -86.5 -40.5t-47.5 -106.5zM233 1184l-204 -1168q-4 -16 -21 -16h-41q-18 0 -14 16l246 1401q4 16 20 17h35q16 0 20 -17l258 -1171v-43l9 2
v12v16.5v14.5l207 1169q4 16 20 17h41q18 0 14 -17l-248 -1401q-4 -16 -20 -16h-33q-16 0 -20 16l-260 1170v43l-9 -2v-43zM795 651l4 31q4 16 20 16h326q18 0 14 -16l-6 -31q0 -16 -18 -16h-328q-16 0 -12 16zM868 1073l25 148q18 100 75.5 159.5t135.5 59.5h16
q78 0 115 -59.5t18 -159.5l-24 -148q-18 -98 -75.5 -158.5t-135.5 -60.5h-17q-78 0 -114.5 60.5t-18.5 158.5z" />
    <glyph glyph-name="trademark" unicode="&#x2122;" 
d="M690 1421l-6 -35q0 -12 -14 -12h-197l-115 -645q0 -12 -14 -12h-35q-10 0 -10 12l115 645h-201q-10 0 -10 12l6 35q4 12 14 13h457q14 -1 10 -13zM838 1266l-97 -537q0 -12 -14 -12h-31q-14 0 -10 12l121 692q4 12 14 13h41q10 0 15 -15l73 -403q2 -10 -2 -35h4
q4 25 11 35l215 405q8 12 20 13h39q10 0 10 -13l-123 -692q0 -12 -14 -12h-33q-12 0 -8 12l94 539q4 18 11 32h-5q0 -2 -4 -14t-8 -18l-196 -367q-6 -12 -19 -12h-16q-10 0 -15 12l-69 365v34l-4 -2v-32z" />
    <glyph glyph-name="arrowleft" unicode="&#x2190;" 
d="M1083 682h-901l285 -262q12 -12 2 -25l-25 -24q-6 -6 -12 -6q-4 0 -12 4l-338 317q-12 10 -12 29v4q0 18 12 29l338 317q6 6 12 6t12 -6l25 -25q12 -12 -2 -22l-285 -266h901q14 0 15 -15v-39q-1 -16 -15 -16z" />
    <glyph glyph-name="arrowup" unicode="&#x2191;" 
d="M549 217v903l-264 -286q-2 -6 -13 -7q-4 0 -10 7l-26 24q-10 10 0 25l315 338q16 12 31 12h4q12 0 28 -12l318 -338q10 -14 0 -25l-25 -24q-6 -6 -12 -6.5t-12 6.5l-267 286v-903q0 -14 -14 -14h-39q-14 0 -14 14z" />
    <glyph glyph-name="arrowright" unicode="&#x2192;" 
d="M985 682h-901q-14 0 -14 16v39q0 14 14 15h901l-285 266q-14 10 -2 22l25 25q6 6 12 6t13 -6l337 -317q12 -10 13 -29v-4q0 -18 -13 -29l-337 -317q-8 -4 -13 -4q-6 0 -12 6l-25 24q-10 12 2 25z" />
    <glyph glyph-name="arrowdown" unicode="&#x2193;" 
d="M618 1217v-902l265 287q2 6 12 6q4 0 10 -6l27 -24q10 -10 0 -25l-316 -338q-12 -12 -30 -12h-4q-16 0 -29 12l-317 338q-10 14 0 25l24 24q6 6 12.5 6t12.5 -6l266 -287v902q0 16 14 16h39q14 0 14 -16z" />
    <glyph glyph-name="uni2196" unicode="&#x2196;" 
d="M911 340l-637 637l17 -387q0 -18 -17 -19h-34q-18 0 -19 17l-14 463q-2 12 10 28l4 4q10 10 29 11l463 -15q18 0 18 -16v-35q0 -16 -18 -16l-389 14l637 -639q10 -10 0 -20l-27 -27q-6 -6 -10 -6q-7 0 -13 6z" />
    <glyph glyph-name="uni2197" unicode="&#x2197;" 
d="M205 389l639 637l-389 -16q-16 0 -17 16l-2 37q0 16 19 16l460 17q18 0 31 -13l2 -2q12 -12 13 -30l-15 -463q0 -16 -18 -17h-33q-20 0 -16 17l12 391l-637 -639q-8 -4 -10 -4q-6 0 -11 4l-28 29q-10 10 0 20z" />
    <glyph glyph-name="uni2198" unicode="&#x2198;" 
d="M256 1096l637 -637l-16 387q0 18 16 18h35q18 0 18 -16l15 -463q2 -16 -11 -29l-4 -4q-12 -12 -28 -12l-463 16q-18 0 -19 17v35q0 16 19 16l389 -14l-637 637q-10 10 0 22l26 27q4 4 11 4q8 0 12 -4z" />
    <glyph glyph-name="uni2199" unicode="&#x2199;" 
d="M963 1047l-639 -639l389 16q8 2 12 -3t4 -13l2 -35q0 -16 -18 -17l-461 -16q-18 0 -31 12l-2 2q-12 12 -12 29l14 465q0 16 19 16h32q18 0 19 -16l-15 -391l637 639q8 4 11 4q6 0 10 -4l29 -29q10 -10 0 -20z" />
    <glyph glyph-name="minus" unicode="&#x2212;" 
d="M285 700v39q0 16 18 17h561q18 0 19 -17v-39q0 -18 -19 -18h-561q-18 0 -18 18z" />
    <glyph glyph-name="approxequal" unicode="&#x2248;" 
d="M293 758v49q0 14 12 22l74 50q35 20 72 20q18 0 47 -8l194 -78q20 -4 31 -4q25 0 43 12l96 64q2 2 6 2q6 0 6 -8v-52q0 -10 -12 -22l-74 -47q-35 -20 -71 -21q-18 0 -47 8l-195 78q-20 4 -29 4q-29 0 -45 -14l-96 -63h-2l-4 -2q-6 0 -6 10zM293 510v51q0 10 12 23l74 49
q35 20 72 20q23 0 47 -10l194 -76q10 -4 31 -4q23 0 43 10l96 64q4 4 6 4q6 0 6 -10v-49q0 -14 -12 -23l-74 -47q-29 -20 -71 -20q-29 0 -47 8l-195 75q-16 6 -29 7q-29 0 -45 -15l-96 -63q-2 -2 -6 -2q-6 0 -6 8z" />
    <glyph glyph-name="notequal" unicode="&#x2260;" 
d="M614 903l66 180q4 10 14 11h2l4 -2l35 -13q14 -6 10 -18l-59 -158h178q18 0 19 -16v-39q0 -16 -19 -17h-205l-81 -223h286q18 0 19 -18v-39q0 -16 -19 -16h-313l-68 -183q-4 -10 -14 -10q-2 0 -4 2l-37 14q-14 4 -10 19l59 158h-174q-18 0 -18 16v39q0 18 18 18h201
l82 223h-283q-18 0 -18 17v39q0 16 18 16h311z" />
    <glyph glyph-name="lessequal" unicode="&#x2264;" 
d="M285 250v39q0 16 18 16h561q18 0 19 -16v-39q0 -18 -19 -19h-561q-18 1 -18 19zM872 1075l-471 -272l471 -271q14 -8 7 -24l-19 -35q-8 -8 -14 -8q-2 0 -10 4l-537 309q-14 10 -14 24.5t14 24.5l537 312q8 4 10 4q8 0 14 -10l19 -35q7 -15 -7 -23z" />
    <glyph glyph-name="greaterequal" unicode="&#x2265;" 
d="M766 803l-471 272q-14 8 -6 23l18 35q6 10 15 10q2 0 10 -4l536 -312q14 -8 14.5 -24.5t-14.5 -24.5l-536 -309q-8 -4 -10 -4q-6 0 -15 8l-18 35q-8 16 6 24zM883 289v-39q0 -18 -19 -19h-561q-18 0 -18 19v39q0 16 18 16h561q19 0 19 -16z" />
    <glyph glyph-name="uniFB01" unicode="&#xfb01;" 
d="M147 1071l7 39q0 16 18 16h221l17 88q16 98 85.5 159t168.5 61h208q18 0 15 -17l-4 -39q0 -18 -19 -18h-209q-63 0 -110 -39t-60 -104l-16 -91h348q16 0 17 -16l-5 -39q-4 -18 -20 -18h-354l-238 -1344q-4 -16 -20 -16h-41q-18 0 -15 16l240 1344h-217q-17 0 -17 18z
M1026 1126h41q16 0 16 -16l-194 -1094q-4 -16 -21 -16h-41q-18 0 -14 16l195 1094q0 16 18 16zM995 1329l21 123q4 27 31 27h124q29 0 25 -27l-22 -123q-4 -27 -29 -26h-127q-27 -1 -23 26z" />
    <glyph glyph-name="uniFB02" unicode="&#xfb02;" 
d="M145 1071l7 39q4 16 20 16h219l17 88q16 98 86.5 159t169.5 61h208q18 0 15 -17l-8 -39q0 -18 -19 -18h-209q-66 0 -111.5 -40t-56.5 -103l-16 -91h350q18 0 14 -16l-6 -39q-4 -18 -20 -18h-350l-238 -1344q-4 -16 -20 -16h-41q-18 0 -15 16l238 1344h-219q-19 0 -15 18z
M1081 1434h41q18 0 15 -17l-248 -1401q-4 -16 -21 -16h-41q-18 0 -14 16l248 1401q4 17 20 17z" />
    <glyph glyph-name="glyph487" 
d="M373 -276l55 170q8 23 29 22h59q23 0 12 -22l-82 -170q-10 -20 -28 -21h-33q-18 1 -12 21z" />
    <glyph glyph-name="a.sc" 
d="M276 305h525l-137 680q-2 14 2 39h-4q-6 -33 -11 -39zM815 236h-577l-121 -222q-10 -14 -25 -14h-41q-14 0 -8 14l604 1119q8 14 25 14h28q18 0 19 -14l213 -1119q0 -14 -14 -14h-41q-18 0 -19 14z" />
    <glyph glyph-name="ae.sc" 
d="M248 305h334l118 682q2 14 13 39h-4l-6.5 -19.5t-6.5 -17.5zM569 236h-368l-144 -222q-10 -14 -24 -14h-43q-14 0 -8 14l725 1119q6 14 22 14h428q16 0 12 -17l-6 -38q-4 -16 -18 -17h-357l-90 -506h279q16 0 12 -16l-6 -39q-4 -16 -18 -16h-279l-76 -426h357
q14 0 14 -17l-8 -39q-4 -16 -19 -16h-411q-16 0 -13 16z" />
    <glyph glyph-name="b.sc" 
d="M825 182l45 269q10 49 -22.5 79.5t-93.5 30.5h-467l-86 -489h465q63 0 106 30.5t53 79.5zM803 1075h-426l-78 -446h426q61 0 104 30.5t52 81.5l39 224q10 49 -22 79.5t-95 30.5zM940 434l-45 -250q-14 -82 -80.5 -133t-163.5 -51h-518q-14 0 -14 16l196 1114q4 16 21 17
h477q94 0 143.5 -50t34.5 -134l-37 -205q-18 -104 -114 -154q57 -18 83.5 -63.5t16.5 -106.5z" />
    <glyph glyph-name="c.sc" 
d="M530 1153h316q94 0 143 -51t35 -135l-23 -119q0 -14 -18 -14h-39q-16 0 -12 14l20 123q10 51 -22.5 81.5t-95.5 30.5h-318q-61 0 -105 -30.5t-53 -81.5l-139 -793q-8 -51 23.5 -81.5t93.5 -30.5h319q63 0 106.5 30.5t51.5 81.5l21 121q4 14 20 14h39q16 0 12 -14
l-20 -119q-16 -84 -83 -135t-161 -51h-315q-96 0 -144.5 51t-34.5 135l140 787q16 84 82.5 135t160.5 51z" />
    <glyph glyph-name="d.sc" 
d="M377 1075l-178 -1003h456q63 0 106.5 30.5t53.5 79.5l137 783q10 49 -22.5 79.5t-95.5 30.5h-457zM119 16l196 1114q4 16 19 17h510q96 0 144 -51.5t34 -132.5l-137 -779q-14 -82 -81 -133t-163 -51h-510q-16 0 -12 16z" />
    <glyph glyph-name="dcroat.sc" 
d="M551 567h-268l-88 -495h456q63 0 106.5 30.5t51.5 79.5l139 783q8 49 -24.5 79.5t-94.5 30.5h-458l-78 -446h268q12 0 12 -17l-6 -30q-2 -15 -16 -15zM74 582l6 30q4 16 18 17h123l90 501q0 16 19 17h510q96 0 144 -51.5t34 -132.5l-137 -779q-14 -82 -81 -133t-163 -51
h-510q-16 0 -12 16l96 551h-123q-16 1 -14 15z" />
    <glyph glyph-name="thorn.sc" 
d="M793 852h-455l-96 -545h456q61 0 105.5 31t52.5 82l55 319q10 49 -22.5 81t-95.5 32zM350 922h455q94 0 143 -51.5t35 -135.5l-55 -313q-16 -84 -83 -135t-161 -51h-455l-39 -220q-4 -16 -18 -16h-41q-16 0 -12 16l196 1114q4 16 19 17h39q14 0 14 -17z" />
    <glyph glyph-name="e.sc" 
d="M119 16l196 1114q4 16 19 17h704q18 0 15 -17l-9 -38q0 -16 -18 -17h-649l-90 -506h479q16 0 12 -16l-6 -39q-4 -16 -18 -16h-480l-75 -426h651q16 0 12 -17l-6 -39q-4 -16 -18 -16h-707q-16 0 -12 16z" />
    <glyph glyph-name="f.sc" 
d="M287 569h479q16 0 12 -16l-6 -39q-4 -16 -18 -16h-480l-84 -482q-4 -16 -18 -16h-41q-16 0 -12 16l196 1114q4 16 19 17h704q18 0 15 -17l-9 -38q0 -16 -18 -17h-649z" />
    <glyph glyph-name="g.sc" 
d="M643 571h295q16 0 12 -14l-65 -377q-16 -84 -83 -135t-161 -51h-315q-96 0 -144.5 51t-34.5 135l140 787q16 84 82.5 135t160.5 51h316q94 0 143 -51t35 -135l-23 -119q0 -14 -18 -14h-39q-16 0 -12 14l20 123q10 51 -22.5 81.5t-95.5 30.5h-318q-61 0 -105 -30.5
t-53 -81.5l-139 -793q-8 -51 23.5 -81.5t93.5 -30.5h319q63 0 106.5 30.5t51.5 81.5l57 322h-239q-16 0 -13 16l7 41q4 14 18 14z" />
    <glyph glyph-name="h.sc" 
d="M119 16l196 1114q4 16 19 17h39q14 0 14 -17l-100 -561h596l98 561q4 16 18 17h39q18 0 15 -17l-197 -1114q-4 -16 -18 -16h-39q-18 0 -15 16l86 482h-596l-84 -482q-4 -16 -18 -16h-41q-16 0 -12 16z" />
    <glyph glyph-name="hbar.sc" 
d="M883 569l57 330h-594l-59 -330h596zM999 1147h39q18 0 15 -17l-31 -167h131q16 0 12 -17l-4 -31q-4 -16 -18 -16h-131l-156 -883q-4 -16 -18 -16h-41q-16 0 -13 16l86 482h-596l-84 -482q-4 -16 -18 -16h-41q-16 0 -12 16l155 883h-131q-16 0 -12 16l6 31q4 16 19 17h129
l30 167q4 16 19 17h39q14 0 14 -17l-31 -167h596l29 167q4 17 18 17z" />
    <glyph glyph-name="dotlessi.sc" 
d="M113 16l8 37q0 16 18 17h322l178 1007h-324q-16 0 -12 17l6 36q4 16 19 17h716q16 0 13 -17l-6 -36q-4 -16 -19 -17h-321l-179 -1007h322q18 0 14 -17l-8 -37q0 -16 -18 -16h-715q-18 0 -14 16z" />
    <glyph glyph-name="ij.sc" 
d="M758 1147h278q16 0 13 -17l-168 -950q-16 -84 -83 -135t-161 -51h-195q-96 0 -144 51t-34 133l12 76q4 14 17 14h41q14 0 14 -14l-14 -76q-8 -51 24.5 -81.5t94.5 -30.5h198q61 0 105.5 30.5t52.5 81.5l160 899h-224q-12 0 -12 17l8 36q1 17 17 17zM217 1147h272
q16 0 13 -17l-117 -663q-4 -16 -18 -16h-39q-16 0 -13 16l109 610h-219q-14 0 -15 17l9 36q0 17 18 17z" />
    <glyph glyph-name="j.sc" 
d="M612 1147h420q18 0 15 -17l-168 -950q-14 -84 -82 -135t-164 -51h-316q-94 0 -143 51t-35 135l15 74q2 14 18 14h39q14 0 12 -14l-12 -76q-8 -51 23.5 -81.5t95.5 -30.5h321q61 0 104.5 30.5t51.5 81.5l158 899h-365q-16 0 -12 17l6 36q4 17 18 17z" />
    <glyph glyph-name="k.sc" 
d="M563 553h-276l-94 -537q-4 -16 -19 -16h-39q-14 0 -14 16l196 1114q4 16 19 17h41q16 0 12 -17l-90 -509h274l455 514q12 12 27 12h51q20 0 4 -12l-487 -549l319 -574q4 -12 -10 -12h-53q-14 0 -23 12z" />
    <glyph glyph-name="l.sc" 
d="M360 1147h39q16 0 13 -17l-187 -1058h654q14 0 14 -17l-8 -39q-4 -16 -19 -16h-708q-16 0 -13 16l197 1114q4 17 18 17z" />
    <glyph glyph-name="lslash.sc" 
d="M57 449l172 79l107 602q4 16 18 17h39q18 0 15 -17l-101 -567l209 96q4 4 8 5q8 0 11 -9l12 -26q4 -14 -10 -23l-242 -112l-76 -422h655q14 0 15 -17l-8 -39q-4 -16 -19 -16h-710q-16 0 -13 16l78 441l-137 -64q-2 -2 -8 -2q-8 0 -13 8l-12 27q-6 13 10 23z" />
    <glyph glyph-name="m.sc" 
d="M299 1147h43q18 0 18 -14l193 -703q2 -12 -2 -39h4q4 25 12 39l439 703q10 14 24 14h43q14 0 14 -17l-196 -1114q-4 -16 -21 -16h-36q-16 0 -13 16l164 928q2 14 12 39l-4 2q-2 -6 -7 -20.5t-9 -20.5l-406 -645q-6 -12 -22 -12h-27q-12 0 -16 12l-182 645v19.5t-2 19.5
h-5v-39l-163 -928q-4 -16 -19 -16h-37q-18 0 -14 16l197 1114q4 17 18 17z" />
    <glyph glyph-name="n.sc" 
d="M334 1147h33q14 0 18 -12l420 -955q2 -4 3 -17t1 -18h6q-4 20 0 39l166 946q4 16 18 17h39q18 0 15 -17l-197 -1114q-4 -16 -18 -16h-33q-12 0 -21 12l-417 953l-7 36h-4q4 -20 0 -40l-166 -945q-4 -16 -18 -16h-41q-16 0 -12 16l196 1114q5 17 19 17z" />
    <glyph glyph-name="eng.sc" 
d="M334 1147h31q12 0 18 -14l422 -953q2 -4 2 -39l4 2q0 27 4 39l166 948q4 16 18 17h39q18 0 15 -17l-211 -1191q-14 -82 -81 -133.5t-163 -51.5h-166q-18 0 -14 17l8 39q0 16 18 16h168q63 0 106.5 30.5t51.5 80.5l16 88l-421 944v39h-5q0 -27 -2 -39l-168 -953
q-4 -16 -18 -16h-41q-16 0 -12 16l196 1114q5 17 19 17z" />
    <glyph glyph-name="o.sc" 
d="M272 967q14 84 81 135t163 51h344q96 0 144.5 -51t33.5 -135l-139 -787q-14 -84 -80.5 -135t-161.5 -51h-346q-96 0 -144 51t-34 135zM342 971l-139 -793q-8 -51 24.5 -81.5t94.5 -30.5h350q61 0 104 30.5t51 81.5l142 793q8 51 -25 81.5t-94 30.5h-348
q-63 0 -106.5 -30.5t-53.5 -81.5z" />
    <glyph glyph-name="oslash.sc" 
d="M305 66l510 1017h-315q-63 0 -105.5 -30.5t-52.5 -81.5l-139 -793q-8 -47 20.5 -77.5t81.5 -34.5zM868 1081l-510 -1015h316q61 0 103 30.5t50 81.5l142 793q8 45 -20 75.5t-81 34.5zM242 -59l28 55q-76 10 -113.5 60t-23.5 124l139 787q14 84 81 135t163 51h334l35 68
q2 8 12 8h6l23 -6q10 -2 6 -15l-29 -57q74 -10 112 -60.5t23 -123.5l-139 -787q-14 -84 -80.5 -135t-161.5 -51h-335l-35 -68q-4 -12 -15 -8l-24 8q-12 3 -6 15z" />
    <glyph glyph-name="oe.sc" 
d="M262 971l-139 -793q-8 -51 23.5 -81.5t93.5 -30.5h178q61 0 104 30.5t51 81.5l140 793q8 51 -24 81.5t-93 30.5h-176q-61 0 -105.5 -30.5t-52.5 -81.5zM1163 1075h-360l-88 -506h282q16 0 13 -16l-6 -39q-4 -16 -21 -16h-283l-73 -426h360q16 0 12 -17l-6 -39
q-4 -16 -18 -16h-416q-18 0 -14 16l4 19q-63 -41 -146 -41h-174q-96 0 -144 51t-34 135l139 787q16 84 83 135t161 51h174q84 0 131 -41l2 18q4 16 19 17h416q18 0 14 -17l-8 -38q-1 -17 -19 -17z" />
    <glyph glyph-name="p.sc" 
d="M813 1075h-436l-96 -543h436q63 0 106 32t51 81l58 320q8 49 -25 79.5t-94 30.5zM334 1147h489q96 0 144.5 -51.5t33.5 -132.5l-55 -316q-14 -82 -80.5 -133t-163.5 -51h-434l-78 -447q-4 -16 -20 -16h-39q-16 0 -12 16l196 1114q5 17 19 17z" />
    <glyph glyph-name="q.sc" 
d="M344 971l-141 -791q-8 -51 24.5 -81.5t94.5 -30.5h350q61 0 105 30.5t52 81.5l140 791q8 51 -25 81.5t-92 30.5h-350q-63 0 -106.5 -30.5t-51.5 -81.5zM719 -168l-6 -35q-2 -14 -19 -14h-61q-98 0 -159.5 39t-47.5 115l10 59h-125q-94 0 -144 51t-34 135l139 785
q14 84 81 135t163 51h344q96 0 144.5 -51t33.5 -135l-139 -785q-14 -82 -80.5 -134t-161.5 -52h-151l-12 -62q-6 -45 37.5 -65.5t113.5 -20.5h60q18 0 14 -16z" />
    <glyph glyph-name="r.sc" 
d="M846 1075h-467l-92 -518h467q63 0 106 30.5t51 80.5l54 297q8 49 -25 79.5t-94 30.5zM827 14l-155 471h-398l-84 -469q0 -16 -18 -16h-39q-16 0 -12 16l196 1114q4 16 19 17h520q96 0 144.5 -51.5t33.5 -132.5l-51 -291q-14 -82 -78.5 -132.5t-156.5 -54.5l153 -471
q4 -14 -12 -14h-43q-15 0 -19 14z" />
    <glyph glyph-name="s.sc" 
d="M264 836l23 131q14 84 80.5 135t160.5 51h318q96 0 144 -51t34 -135l-20 -119q-4 -14 -19 -14h-39q-18 0 -14 14l22 123q8 51 -24.5 81.5t-93.5 30.5h-322q-59 0 -103 -30.5t-53 -81.5l-22 -125q-10 -66 49 -96l469 -279q80 -49 66 -143l-27 -148q-14 -84 -82 -135
t-162 -51h-336q-94 0 -143 51t-35 135l21 119q4 14 18 14h41q16 0 12 -14l-20 -121q-8 -51 23.5 -81.5t95.5 -30.5h340q61 0 104 30.5t51 81.5l25 141q10 63 -47 97l-471 276q-80 54 -64 144z" />
    <glyph glyph-name="t.sc" 
d="M250 1147h874q16 0 13 -17l-9 -38q0 -16 -18 -17h-401l-187 -1059q-4 -16 -18 -16h-39q-14 0 -14 16l188 1059h-401q-14 0 -15 17l8 38q5 17 19 17z" />
    <glyph glyph-name="tbar.sc" 
d="M346 621h213l80 454h-401q-16 0 -13 17l6 38q4 16 19 17h874q16 0 13 -17l-7 -38q-4 -16 -20 -17h-401l-80 -454h213q16 0 12 -15l-6 -33q0 -14 -19 -14h-211l-96 -543q-4 -16 -18 -16h-39q-14 0 -14 16l96 543h-211q-16 0 -12 14l4 33q4 15 18 15z" />
    <glyph glyph-name="u.sc" 
d="M332 1147h39q14 0 14 -17l-168 -952q-8 -51 23.5 -81.5t93.5 -30.5h323q61 0 105.5 30.5t52.5 81.5l168 952q4 16 18 17h39q18 0 15 -17l-168 -950q-14 -84 -82 -135t-162 -51h-319q-96 0 -144.5 51t-34.5 135l168 950q5 17 19 17z" />
    <glyph glyph-name="v.sc" 
d="M254 1147h41q18 0 18 -14l195 -971q2 -6 -4 -39h4q4 31 10 39l537 971q10 14 24 14h41q14 0 8 -14l-604 -1119q-10 -14 -24 -14h-31q-16 0 -16 14l-213 1119q0 14 14 14z" />
    <glyph glyph-name="w.sc" 
d="M717 1130v-933q0 -4 -2 -18.5t-4 -20.5h4q8 37 8 39l360 933q4 16 21 17h41q14 0 10 -14l-432 -1117q-6 -16 -23 -16h-30q-8 0 -13.5 4t-3.5 10l-6 920q0 10 6 41h-4q-8 -37 -8 -39l-328 -920q-4 -16 -20 -16h-33q-16 0 -16 16l-37 1114q-4 16 14 17h41q12 0 17 -14
l28 -936q0 -8 -6 -39h4q6 37 8 39l332 933q4 16 21 17h34q13 -1 17 -17z" />
    <glyph glyph-name="x.sc" 
d="M274 1147h50q12 0 20 -12l250 -451q8 -16 4 -39h2q4 29 12 37l412 453q8 12 27 12h49q16 0 4 -12l-471 -535l299 -588q4 -12 -10 -12h-50q-14 0 -22 12l-264 502q-8 10 -2 37h-4q-4 -25 -15 -37l-444 -502q-8 -12 -25 -12h-49q-18 0 -6 12l506 586l-285 537q-4 12 12 12z
" />
    <glyph glyph-name="y.sc" 
d="M266 1147h45q12 0 21 -12l246 -564q4 -10 0 -36h6q4 27 12 38l442 562q12 12 27 12h45q18 0 6 -12l-512 -670l-80 -449q-4 -16 -18 -16h-39q-14 0 -14 16l79 449l-278 670q-4 12 12 12z" />
    <glyph glyph-name="z.sc" 
d="M330 1147h717q16 0 12 -17l-6 -38q-4 -16 -13 -29l-839 -991h657q16 0 12 -17l-6 -39q-4 -16 -18 -16h-723q-18 0 -14 16l8 39q0 16 12 29l840 991h-652q-14 0 -14 17l8 38q5 17 19 17z" />
    <glyph glyph-name="uni01DD.sc" 
d="M336 66h319q63 0 105.5 29.5t52.5 78.5l59 342h-593l-62 -342q-8 -49 25 -78.5t94 -29.5zM530 1149h314q96 0 144 -51t34 -133l-137 -785q-16 -84 -83 -135t-161 -51h-315q-94 0 -144.5 50t-34.5 132l70 397q4 14 19 15h649l67 377q10 51 -22.5 81.5t-95.5 30.5h-318
q-63 0 -106 -30.5t-54 -79.5l-12 -74q-4 -16 -18 -16h-39q-14 0 -15 16l15 72q14 82 80.5 133t162.5 51z" />
    <glyph glyph-name="germandbls.sc" 
d="M526 1147h478q16 0 6 -14l-359 -457h115q88 0 133 -49t31 -127l-58 -322q-14 -80 -78.5 -129t-158.5 -49h-193q-16 0 -12 16l6 37q4 16 19 17h188q63 0 106.5 30.5t53.5 83.5l55 318q10 53 -24.5 84.5t-100.5 31.5h-149q-16 0 -15 15l6 33q4 20 11 30l317 381h-385
q-61 0 -104 -29.5t-52 -78.5l-167 -953q-4 -16 -21 -16h-39q-16 0 -12 16l168 953q14 80 79.5 129t155.5 49z" />
    <glyph glyph-name="aacute.sc" 
d="M276 305h525l-137 680q-2 14 2 39h-4q-6 -33 -11 -39zM815 236h-577l-121 -222q-10 -14 -25 -14h-41q-14 0 -8 14l604 1119q8 14 25 14h28q18 0 19 -14l213 -1119q0 -14 -14 -14h-41q-18 0 -19 14zM680 1253l119 162q10 10 22 10h68q12 0 2 -10l-148 -162
q-10 -10 -26 -10h-33q-10 0 -4 10z" />
    <glyph glyph-name="abreve.sc" 
d="M276 305h525l-137 680q-2 14 2 39h-4q-6 -33 -11 -39zM815 236h-577l-121 -222q-10 -14 -25 -14h-41q-14 0 -8 14l604 1119q8 14 25 14h28q18 0 19 -14l213 -1119q0 -14 -14 -14h-41q-18 0 -19 14zM877 1372l-5 -14q-8 -51 -46 -83t-91 -32h-61q-53 0 -80 32t-19 83l3 14
q4 14 16 14h31q16 0 12 -14l-2 -20q-6 -51 43 -52h72q51 0 61 52l6 20q4 14 19 14h28q17 0 13 -14z" />
    <glyph glyph-name="acircumflex.sc" 
d="M276 305h525l-137 680q-2 14 2 39h-4q-6 -33 -11 -39zM815 236h-577l-121 -222q-10 -14 -25 -14h-41q-14 0 -8 14l604 1119q8 14 25 14h28q18 0 19 -14l213 -1119q0 -14 -14 -14h-41q-18 0 -19 14zM776 1403l82 -148q6 -10 -6 -10h-41q-14 0 -20 12l-66 107l-102 -107
q-12 -12 -27 -12h-39q-10 0 -4 10l135 148q8 12 25 12h43q18 0 20 -12z" />
    <glyph glyph-name="agrave.sc" 
d="M276 305h525l-137 680q-2 14 2 39h-4q-6 -33 -11 -39zM815 236h-577l-121 -222q-10 -14 -25 -14h-41q-14 0 -8 14l604 1119q8 14 25 14h28q18 0 19 -14l213 -1119q0 -14 -14 -14h-41q-18 0 -19 14zM670 1415l63 -162q4 -10 -8 -10h-35q-12 0 -22 10l-90 162q-6 10 8 10
h67q11 0 17 -10z" />
    <glyph glyph-name="adieresis.sc" 
d="M276 305h525l-137 680q-2 14 2 39h-4q-6 -33 -11 -39zM815 236h-577l-121 -222q-10 -14 -25 -14h-41q-14 0 -8 14l604 1119q8 14 25 14h28q18 0 19 -14l213 -1119q0 -14 -14 -14h-41q-18 0 -19 14zM489 1294l11 56q4 33 39 32h55q35 0 29 -32l-11 -56q-6 -33 -39 -32h-57
q-33 -1 -27 32zM815 1294l10 56q6 33 39 32h58q33 0 26 -32l-10 -56q-6 -33 -39 -32h-57q-31 -1 -27 32z" />
    <glyph glyph-name="amacron.sc" 
d="M276 305h525l-137 680q-2 14 2 39h-4q-6 -33 -11 -39zM815 236h-577l-121 -222q-10 -14 -25 -14h-41q-14 0 -8 14l604 1119q8 14 25 14h28q18 0 19 -14l213 -1119q0 -14 -14 -14h-41q-18 0 -19 14zM563 1290l6 33q4 14 19 14h266q16 0 12 -14l-6 -33q0 -14 -16 -14h-269
q-12 0 -12 14z" />
    <glyph glyph-name="aring.sc" 
d="M276 305h525l-137 680q-2 14 2 39h-4q-6 -33 -11 -39zM659.5 1323q-4.5 -27 10 -45t41 -18t48 18t25.5 45t-10 45t-40.5 18t-48 -18t-26 -45zM815 236h-577l-121 -222q-10 -14 -25 -14h-41q-14 0 -8 14l604 1119q8 14 25 14h28q18 0 19 -14l213 -1119q0 -14 -14 -14h-41
q-18 0 -19 14zM606 1323q8 49 48 83t87 34q49 0 77 -34t20 -83q-8 -47 -48 -82t-90 -35q-47 0 -74.5 35t-19.5 82z" />
    <glyph glyph-name="atilde.sc" 
d="M276 305h525l-137 680q-2 14 2 39h-4q-6 -33 -11 -39zM815 236h-577l-121 -222q-10 -14 -25 -14h-41q-14 0 -8 14l604 1119q8 14 25 14h28q18 0 19 -14l213 -1119q0 -14 -14 -14h-41q-18 0 -19 14zM526 1278l6 37q4 27 54.5 44t81.5 17q25 0 45 -10l59 -33q10 -6 23 -6
q57 0 118 39l7 2q8 0 4 -10l-6 -37q-4 -27 -51.5 -42t-80.5 -15q-23 0 -47 10l-59 35q-12 4 -23 4q-55 0 -118 -41q-4 -2 -9 -2q-6 0 -4 8z" />
    <glyph glyph-name="aogonek.sc" 
d="M276 305h523l-135 680q-2 14 2 39h-2q-6 -29 -13 -39zM868 0l-8 8l-47 228h-575l-121 -222q-10 -14 -25 -14h-41q-14 0 -8 14l606 1119q4 14 23 14h28q18 0 19 -14l205 -1133q-72 -90 -88 -162q-10 -35 22 -35h90q14 0 13 -14l-5 -25q-4 -14 -18 -14h-102
q-33 0 -49.5 19.5t-10.5 52.5q16 100 92 178z" />
    </font>
</defs>
</svg>
