<?xml version="1.0" standalone="no"?>
<!DOCTYPE svg PUBLIC "-//W3C//DTD SVG 1.1//EN" "http://www.w3.org/Graphics/SVG/1.1/DTD/svg11.dtd" >
<svg xmlns="http://www.w3.org/2000/svg" xmlns:xlink="http://www.w3.org/1999/xlink" version="1.1">
<metadata>
Created by FontForge 20170731 at Mon May 14 08:42:19 2018
 By Aleksey,,,
Copyright (c) 2018 by Oleh Lishchuk. All rights reserved.
</metadata>
<defs>
<font id="VinMonoPro-Italic" horiz-adv-x="1167" >
  <font-face 
    font-family="Vin Mono Pro Italic"
    font-weight="400"
    font-style="italic"
    font-stretch="normal"
    units-per-em="2048"
    panose-1="0 0 0 0 0 0 0 0 0 0"
    ascent="1638"
    descent="-410"
    x-height="1126"
    cap-height="1434"
    bbox="-107 -360 1343.02 1817"
    underline-thickness="0"
    underline-position="0"
    unicode-range="U+000D-FB02"
  />
<missing-glyph 
 />
    <glyph glyph-name=".notdef" 
 />
    <glyph glyph-name="glyph1" horiz-adv-x="0" 
 />
    <glyph glyph-name="glyph2" horiz-adv-x="681" 
 />
    <glyph glyph-name="glyph3" horiz-adv-x="0" 
 />
    <glyph glyph-name="glyph3" horiz-adv-x="0" 
 />
    <glyph glyph-name="uni000D" unicode="&#xd;" horiz-adv-x="512" 
 />
    <glyph glyph-name="space" unicode=" " 
 />
    <glyph glyph-name="exclam" unicode="!" 
d="M498 465l147 924q10 45 51 45h80q43 0 37 -45l-180 -924q-6 -45 -53 -45h-45q-43 0 -37 45zM373 47l26 152q6 47 56 47h145q45 0 39 -47l-27 -152q-10 -47 -55 -47h-145q-49 0 -39 47z" />
    <glyph glyph-name="quotedbl" unicode="&#x22;" 
d="M432 1008l64 401q4 25 26 25h113q25 0 18 -25l-78 -401q-6 -25 -28 -25h-94q-25 0 -21 25zM750 1008l61 401q6 25 29 25h112q23 0 19 -25l-80 -401q-4 -25 -29 -25h-94q-22 0 -18 25z" />
    <glyph glyph-name="numbersign" unicode="#" 
d="M395 496h299l78 442h-299zM23 403v62q0 31 30 31h217l80 442h-194q-31 0 -31 31v61q0 31 31 31h215l61 342q4 31 35 31h63q31 0 25 -31l-59 -342h299l61 342q4 31 35 31h63q31 0 25 -31l-59 -342h194q31 0 31 -31v-61q0 -31 -31 -31h-217l-78 -442h193q31 0 30 -31v-62
q0 -31 -30 -30h-215l-62 -342q-4 -31 -35 -31h-63q-31 0 -25 31l60 342h-299l-60 -342q-6 -31 -37 -31h-61q-31 0 -27 31l62 342h-197q-30 -1 -30 30z" />
    <glyph glyph-name="dollar" unicode="$" 
d="M387 -164l27 154h-90q-121 0 -180.5 73.5t-39.5 192.5l25 135q4 31 35 31l90 2q31 0 25 -31l-25 -143q-8 -49 16.5 -79t73.5 -30h320q49 0 83.5 30t43.5 79l28 160q10 57 -33 90l-458 338q-92 70 -70 192l25 146q23 121 108.5 193.5t204.5 72.5h74l28 153q4 31 35 31h76
q31 0 25 -31l-27 -153h74q121 0 180 -74t39 -192l-25 -136q-4 -31 -35 -30h-88q-31 0 -26 30l24 144q8 49 -16.5 78.5t-73.5 29.5h-297q-49 0 -85 -29.5t-44 -78.5l-22 -140q-10 -57 32 -88l457 -340q41 -31 60.5 -83t11.5 -109l-31 -168q-23 -121 -108.5 -193.5
t-204.5 -72.5h-78l-27 -154q-6 -31 -37 -31h-75q-31 0 -25 31z" />
    <glyph glyph-name="percent" unicode="%" 
d="M43 465l1085 600q12 4 17 4q10 0 16 -12l29 -62q10 -20 -12 -34l-1086 -601q-12 -4 -16 -4q-10 0 -17 13l-28 61q-11 19 12 35zM276 1204l-34 -188q-10 -51 17.5 -83t78.5 -32h47q51 0 88 32t47 83l33 188q8 51 -17.5 83t-76.5 32h-47q-53 0 -90.5 -32t-45.5 -83z
M123 1028l29 166q20 113 100 180.5t190 67.5h27q113 0 169 -67.5t36 -180.5l-29 -166q-20 -113 -100 -181.5t-193 -68.5h-26q-111 0 -167 68.5t-36 181.5zM547 240l31 166q20 113 99 181t191 68h27q111 0 167 -68.5t36 -180.5l-29 -166q-20 -113 -100 -180.5t-193 -67.5h-24
q-113 0 -168 67.5t-37 180.5zM700 418l-32 -189q-8 -51 17.5 -82.5t78.5 -31.5h45q53 0 90 31.5t45 82.5l33 189q10 51 -16.5 82.5t-77.5 31.5h-45q-51 0 -89.5 -31.5t-48.5 -82.5z" />
    <glyph glyph-name="ampersand" unicode="&#x26;" 
d="M340 143h262q49 0 85 30t44 79l78 442h-373q-47 0 -83 -29.5t-44 -78.5l-59 -334q-8 -49 16.5 -79t73.5 -30zM578 1440h233q119 0 179.5 -73t39.5 -191l-18 -103q-6 -31 -37 -31h-88q-31 0 -25 31l19 109q8 49 -16.5 78.5t-73.5 29.5h-246q-49 0 -85 -29.5t-44 -78.5
l-39 -230q-10 -49 14.5 -78.5t73.5 -29.5h641q31 0 24 -31l-14 -88q-6 -31 -37 -31h-121l-77 -436q-20 -119 -106.5 -191.5t-205.5 -72.5h-247q-119 0 -180.5 72.5t-41.5 191.5l52 287q29 158 157 225q-104 74 -76 225l31 181q23 119 109 191.5t205 72.5z" />
    <glyph glyph-name="quotesingle" unicode="'" 
d="M594 1008l59 401q4 25 29 25h111q25 0 20 -25l-76 -401q-4 -25 -28 -25h-95q-24 0 -20 25z" />
    <glyph glyph-name="parenleft" unicode="(" 
d="M897 1528l57 -62q16 -16 -4 -34l-190 -170q-84 -78 -101 -177l-167 -942q-16 -100 40 -176l130 -170q12 -18 -7 -35l-82 -61q-6 -6 -16 -6q-8 0 -16 8l-144 186q-82 106 -55 248l168 955q25 141 143 247l209 187q12 8 19 8q10 0 16 -6z" />
    <glyph glyph-name="parenright" unicode=")" 
d="M530 1466l80 62q8 6 19 6q8 0 16 -8l143 -187q82 -106 56 -247l-168 -955q-25 -141 -144 -248l-208 -186q-12 -8 -19 -8q-10 0 -16 6l-58 61q-14 16 5 35l188 170q86 76 102 176l166 942q20 100 -39 177l-131 170q-10 20 8 34z" />
    <glyph glyph-name="asterisk" unicode="*" 
d="M750 1174l235 88q4 2 10 2q16 0 17 -17l12 -71q4 -23 -20 -29l-240 -60l117 -180q12 -18 -9 -33l-69 -45q-8 -6 -17 -6q-12 0 -14 13l-92 196l-162 -198q-10 -10 -20 -11q-4 0 -13 4l-55 45q-16 14 2 33l180 180l-217 60q-20 6 -10 29l37 71q10 16 24 17q6 0 9 -2
l204 -86l27 235q4 25 27 25h75q23 0 17 -25z" />
    <glyph glyph-name="plus" unicode="+" 
d="M516 655h-223q-31 0 -31 31v76q0 31 31 31h223v221q0 31 31 30h74q31 0 30 -30v-221h223q31 0 31 -31v-76q0 -31 -31 -31h-223v-221q0 -31 -30 -31h-74q-31 0 -31 31v221z" />
    <glyph glyph-name="comma" unicode="," 
d="M362 -262h-83q-39 0 -27 39l151 420q14 45 62 45h129q47 0 27 -43l-201 -424q-17 -37 -58 -37z" />
    <glyph glyph-name="hyphen" unicode="-" 
d="M358 588v74q0 25 25 24h401q25 0 25 -24v-74q0 -25 -25 -25h-401q-25 0 -25 25z" />
    <glyph glyph-name="period" unicode="." 
d="M373 47l26 152q10 47 56 47h145q45 0 39 -47l-27 -152q-10 -47 -55 -47h-145q-45 0 -39 47z" />
    <glyph glyph-name="slash" unicode="/" 
d="M59 -248l959 1768q6 16 24 16q6 0 9 -2l65 -27q23 -8 8 -28l-956 -1770q-10 -16 -25 -16q-6 0 -8 2l-65 26q-21 6 -11 31z" />
    <glyph glyph-name="zero" unicode="0" 
d="M264 285q-10 -66 22.5 -105t96.5 -39h254q66 0 112 40t56 104l151 864q12 63 -19.5 103t-96.5 40h-254q-63 0 -110.5 -39t-59.5 -104zM117 299l147 836q25 139 124 223t237 84h227q137 0 206.5 -84t47.5 -223l-148 -836q-25 -137 -124 -222t-238 -85h-227q-137 0 -207 84
t-45 223zM485 649l25 135q4 23 19.5 36.5t35.5 13.5h131q45 0 39 -50l-24 -135q-4 -23 -19.5 -36t-36.5 -13h-131q-45 0 -39 49z" />
    <glyph glyph-name="one" unicode="1" 
d="M119 31l14 82q4 31 37 30h330l198 1121l-360 -140q-4 -2 -12 -2q-18 0 -15 23l17 90q6 31 37 41l385 147q31 10 61 11h37q31 0 24 -31l-221 -1260h332q29 0 25 -30l-15 -82q-6 -31 -37 -31h-813q-30 0 -24 31z" />
    <glyph glyph-name="two" unicode="2" 
d="M70 31l45 254q20 113 129 180l606 362q47 29 53 78l43 244q12 63 -20.5 103t-98.5 40h-249q-63 0 -110.5 -39t-59.5 -104l-17 -94q-4 -31 -35 -31h-90q-31 0 -24 31l14 80q25 139 124 223t236 84h226q137 0 206.5 -84t45.5 -223l-43 -250q-10 -53 -45 -102.5t-84 -75.5
l-605 -363q-45 -27 -55 -78l-22 -116h665q31 0 25 -31l-15 -88q-6 -31 -36 -31h-785q-30 0 -24 31z" />
    <glyph glyph-name="three" unicode="3" 
d="M375 1038h-90q-31 0 -25 31l10 64q25 137 124.5 222t238.5 85h205q137 0 206.5 -84t45.5 -223l-27 -152q-29 -160 -172 -236q131 -72 102 -241l-37 -205q-25 -139 -124 -223t-236 -84h-225q-137 0 -207 84t-45 223l10 63q6 31 37 31h88q31 0 27 -31l-15 -77
q-10 -66 23 -105t96 -39h250q63 0 110.5 39t59.5 105l41 239q12 63 -19.5 103.5t-97.5 40.5h-190q-31 0 -27 30l16 88q6 31 37 31h174q66 0 113 40t57 104l33 186q12 63 -19.5 103t-97.5 40h-233q-66 0 -112 -40t-56 -103l-14 -78q-4 -31 -35 -31z" />
    <glyph glyph-name="four" unicode="4" 
d="M662 31l49 270h-615q-31 0 -26 31l10 47q4 29 22 59l625 967q16 29 47 29h107q29 0 12 -29l-617 -954h461l64 366q6 31 37 31h88q31 0 26 -31l-65 -366h129q31 0 24 -31l-16 -88q-4 -31 -35 -31h-129l-47 -270q-6 -31 -37 -31h-88q-30 0 -26 31z" />
    <glyph glyph-name="five" unicode="5" 
d="M117 299l12 72q6 23 29 22h102q25 0 21 -22l-17 -86q-10 -66 22.5 -105t96.5 -39h252q63 0 110.5 39t59.5 105l57 325q10 66 -22.5 105t-98.5 39h-458q-31 0 -27 30l111 619q4 31 34 31h666q25 0 20 -25l-18 -102q-4 -23 -29 -23h-544l-68 -381h324q141 0 211.5 -84
t46.5 -223l-54 -297q-25 -139 -124 -223t-236 -84h-225q-139 0 -209 85t-45 222z" />
    <glyph glyph-name="six" unicode="6" 
d="M317 588l-53 -301q-10 -66 22.5 -105t96.5 -39h252q63 0 110.5 39t59.5 105l51 301q12 63 -19.5 103t-97.5 40h-254q-66 0 -112 -40t-56 -103zM627 1444h207q137 0 206.5 -84t44.5 -223l-6 -39q-6 -31 -37 -31h-88q-31 0 -26 31l10 53q10 66 -22.5 104.5t-96.5 38.5h-233
q-66 0 -112 -40t-56 -103l-58 -320q76 49 166 50h226q137 0 206.5 -84t47.5 -224l-50 -272q-25 -139 -124 -223t-236 -84h-225q-139 0 -209 85t-45 222l147 836q25 137 124.5 222t238.5 85z" />
    <glyph glyph-name="seven" unicode="7" 
d="M293 1434h868q31 0 25 -31l-10 -66q-6 -29 -27 -59l-498 -711q-18 -25 -26 -59l-84 -477q-4 -31 -35 -31h-90q-31 0 -25 31l90 514q8 35 27 59l479 686h-719q-31 0 -24 31l14 82q4 31 35 31z" />
    <glyph glyph-name="eight" unicode="8" 
d="M313 547l-49 -268q-10 -66 22.5 -105t96.5 -39h250q66 0 112 40t56 104l49 268q10 63 -21.5 103t-95.5 40h-252q-66 0 -112 -40t-56 -103zM440 1153l-28 -168q-10 -66 22.5 -104.5t95.5 -38.5h209q63 0 109.5 40t56.5 103l31 168q10 66 -22.5 104.5t-96.5 38.5h-207
q-63 0 -110.5 -38.5t-59.5 -104.5zM264 1006l23 127q25 137 124 222t238 85h180q137 0 207 -84t45 -223l-22 -127q-29 -160 -166 -234q133 -76 102 -246l-39 -227q-25 -137 -124 -222t-238 -85h-223q-137 0 -207 84t-45 223l41 227q29 174 188 246q-113 76 -84 234z" />
    <glyph glyph-name="nine" unicode="9" 
d="M838 1292h-252q-66 0 -112 -40t-56 -103l-51 -291q-12 -63 19.5 -103t96.5 -40h254q66 0 112 40t56 103l51 291q12 63 -20 103t-98 40zM219 872l45 263q25 137 124 222t239 85h225q137 0 206.5 -84t45.5 -223l-148 -836q-25 -139 -124 -223t-236 -84h-225q-137 0 -207 84
t-45 223l6 39q6 31 37 31h88q31 0 26 -31l-10 -53q-10 -66 23 -105t96 -39h250q63 0 110.5 39t59.5 105l57 329q-72 -49 -166 -49h-225q-137 0 -207 84t-45 223z" />
    <glyph glyph-name="colon" unicode=":" 
d="M373 47l26 152q10 47 56 47h145q45 0 39 -47l-27 -152q-10 -47 -55 -47h-145q-45 0 -39 47zM528 928l27 151q10 47 55 47h146q45 0 39 -47l-27 -151q-10 -47 -55 -47h-146q-45 0 -39 47z" />
    <glyph glyph-name="semicolon" unicode=";" 
d="M528 928l27 151q10 47 55 47h146q45 0 39 -47l-27 -151q-10 -47 -55 -47h-146q-45 0 -39 47zM362 -262h-83q-37 0 -25 39l154 420q16 45 63 45h129q45 0 25 -43l-205 -424q-17 -37 -58 -37z" />
    <glyph glyph-name="less" unicode="&#x3c;" 
d="M889 950l-408 -233l408 -234q27 -16 10 -41l-35 -67q-10 -14 -26 -15q-4 0 -17 5l-532 307q-27 14 -27 45t27 45l532 307q6 4 17 4q18 0 26 -14l35 -68q17 -25 -10 -41z" />
    <glyph glyph-name="equal" unicode="=" 
d="M262 528v76q0 31 31 31h581q31 0 31 -31v-76q0 -31 -31 -30h-581q-31 -1 -31 30zM262 844v74q0 31 31 30h581q31 0 31 -30v-74q0 -31 -31 -31h-581q-31 0 -31 31z" />
    <glyph glyph-name="greater" unicode="&#x3e;" 
d="M690 717l-407 233q-27 16 -11 41l35 68q8 14 27 14q10 0 16 -4l533 -307q27 -14 26.5 -45t-26.5 -45l-533 -307q-12 -4 -16 -5q-16 0 -27 15l-35 67q-16 25 11 41z" />
    <glyph glyph-name="question" unicode="?" 
d="M1087 1176l-38 -215q-8 -55 -46 -109.5t-90 -87.5l-223 -148q-49 -37 -63 -94l-15 -71q-6 -31 -39 -31h-75q-31 0 -27 31l14 92q8 57 44 110.5t89 85.5l222 142q51 35 61 92l37 211q8 49 -16.5 78.5t-73.5 29.5h-277q-49 0 -81.5 -29.5t-43.5 -78.5l-24 -146
q-6 -31 -37 -30h-88q-31 0 -27 30l25 138q23 121 106.5 193.5t202.5 72.5h264q121 0 180 -73.5t39 -192.5zM358 47l27 152q6 47 55 47h146q45 0 39 -47l-27 -152q-10 -47 -55 -47h-146q-49 0 -39 47z" />
    <glyph glyph-name="at" unicode="@" 
d="M526 319l70 420q-125 125 -215 125q-41 0 -76 -29.5t-43 -80.5l-74 -443q-8 -51 18.5 -80.5t67.5 -29.5q78 -1 252 118zM623 893l10 59q6 31 37 31h82q31 0 24 -31l-112 -669q-8 -45 15 -73t69 -28h38q45 0 78 28t41 73l94 563q27 150 -49 243t-225 93h-502q-31 0 -24 30
l14 62q6 31 37 31h506q205 0 308 -126t64 -333l-94 -563q-20 -102 -96 -166t-180 -64h-53q-76 0 -125.5 36t-61.5 99q-197 -123 -311 -122q-86 0 -134 69.5t-28 177.5l72 439q20 111 94 179t162 68q115 0 250 -106z" />
    <glyph glyph-name="A" unicode="A" 
d="M344 412h426l-84 665q-4 37 8 86h-8q-16 -68 -24 -86zM788 262h-516l-110 -233q-14 -29 -45 -29h-92q-33 0 -19 29l656 1376q14 29 45 29h61q31 0 35 -29l170 -1376q4 -29 -27 -29h-94q-29 0 -33 29z" />
    <glyph glyph-name="B" unicode="B" 
d="M834 260l51 291q8 49 -16.5 80t-73.5 31h-463l-90 -512h463q49 0 84 30.5t45 79.5zM862 1284h-422l-82 -475h422q49 0 84 30.5t43 80.5l45 254q8 49 -16.5 79.5t-73.5 30.5zM1026 510l-43 -244q-20 -119 -105 -192.5t-206 -73.5h-576q-31 0 -26 31l241 1372q6 31 37 31
h535q121 0 180 -74t39 -193l-37 -206q-25 -141 -135 -213q59 -31 84.5 -93.5t11.5 -144.5z" />
    <glyph glyph-name="C" unicode="C" 
d="M860 424h88q31 0 25 -31l-23 -135q-23 -121 -108.5 -193.5t-204.5 -72.5h-307q-121 0 -180.5 73.5t-38.5 192.5l161 918q23 121 109 193.5t205 72.5h307q121 0 180.5 -74t38.5 -192l-25 -136q-4 -31 -36 -30h-88q-31 0 -25 30l25 144q8 49 -16.5 78.5t-74.5 29.5h-321
q-49 0 -84 -29.5t-43 -78.5l-166 -934q-8 -49 16.5 -79t73.5 -30h322q49 0 85 30t44 79l24 143q6 31 37 31z" />
    <glyph glyph-name="D" unicode="D" 
d="M440 1284l-198 -1134h430q49 0 84 30.5t45 79.5l160 914q8 49 -16.5 79.5t-74.5 30.5h-430zM70 31l241 1372q6 31 37 31h543q121 0 180 -74t39 -193l-160 -901q-20 -119 -105 -192.5t-206 -73.5h-543q-30 0 -26 31z" />
    <glyph glyph-name="E" unicode="E" 
d="M70 31l241 1372q6 31 37 31h778q31 0 25 -31l-14 -88q-6 -31 -37 -31h-660l-96 -549h481q31 0 27 -30l-16 -89q-6 -31 -37 -30h-482l-75 -436h657q31 0 27 -31l-17 -88q-4 -31 -35 -31h-778q-30 0 -26 31z" />
    <glyph glyph-name="F" unicode="F" 
d="M1100 1284h-660l-96 -549h481q31 0 27 -30l-16 -89q-6 -31 -37 -30h-482l-98 -555q-4 -31 -35 -31h-88q-31 0 -26 31l241 1372q6 31 37 31h778q31 0 25 -31l-14 -88q-6 -31 -37 -31z" />
    <glyph glyph-name="G" unicode="G" 
d="M584 623l16 90q4 31 35 30h369q31 0 26 -30l-80 -455q-23 -121 -108.5 -193.5t-204.5 -72.5h-307q-121 0 -180.5 73.5t-38.5 192.5l161 918q23 121 109 193.5t205 72.5h307q121 0 180.5 -74t38.5 -192l-25 -136q-4 -31 -36 -30h-88q-31 0 -25 30l25 144q8 49 -16.5 78.5
t-74.5 29.5h-321q-49 0 -84 -29.5t-43 -78.5l-166 -934q-8 -49 16.5 -79t73.5 -30h322q49 0 85 30t44 79l59 342h-248q-30 0 -26 31z" />
    <glyph glyph-name="H" unicode="H" 
d="M70 31l241 1372q6 31 37 31h88q31 0 27 -31l-119 -668h541l116 668q6 31 37 31h88q31 0 25 -31l-242 -1372q-4 -31 -35 -31h-90q-31 0 -24 31l98 555h-541l-98 -555q-4 -31 -35 -31h-88q-30 0 -26 31z" />
    <glyph glyph-name="I" unicode="I" 
d="M74 31l14 82q4 31 37 30h309l203 1147h-311q-31 0 -25 31l14 82q6 31 37 31h770q31 0 27 -31l-14 -82q-6 -31 -37 -31h-312l-200 -1147h309q31 0 27 -30l-17 -82q-4 -31 -35 -31h-772q-30 0 -24 31z" />
    <glyph glyph-name="J" unicode="J" 
d="M571 1321l15 82q6 31 37 31h483q31 0 27 -31l-203 -1145q-23 -121 -109 -193.5t-205 -72.5h-290q-119 0 -179.5 72.5t-40.5 193.5l17 86q4 31 35 31h90q31 0 24 -31l-16 -94q-8 -49 16.5 -79t73.5 -30h303q49 0 85 30t44 79l185 1040h-367q-31 0 -25 31z" />
    <glyph glyph-name="K" unicode="K" 
d="M553 670h-219l-113 -639q-6 -31 -37 -31h-88q-31 0 -26 31l241 1372q6 31 37 31h88q31 0 27 -31l-105 -590h220l448 594q20 27 51 27h113q31 0 10 -27l-510 -666l301 -714q10 -27 -20 -27h-113q-31 0 -41 27z" />
    <glyph glyph-name="L" unicode="L" 
d="M258 152h649q31 0 25 -31l-17 -90q-4 -31 -34 -31h-768q-31 0 -27 31l244 1372q4 31 35 31h90q31 0 24 -31z" />
    <glyph glyph-name="M" unicode="M" 
d="M358 1014l-172 -983q-6 -31 -36 -31h-82q-31 0 -25 31l242 1372q6 31 37 31h102q27 0 35 -29l127 -748q4 -29 -4 -86h8q8 53 24 86l392 748q14 29 45 29h102q31 0 27 -31l-244 -1372q-4 -31 -35 -31h-82q-31 0 -26 31l174 983q0 4 26 88h-8q-23 -70 -33 -86l-346 -656
q-14 -31 -45 -30h-35q-31 0 -37 30l-116 656q-4 41 0 86l-11 -2q0 -68 -4 -86z" />
    <glyph glyph-name="N" unicode="N" 
d="M397 1030l-176 -999q-6 -31 -37 -31h-88q-31 0 -26 31l243 1372q4 31 35 31h62q31 0 41 -27l350 -1014q10 -23 14 -84l8 2q-4 57 0 86l178 1006q4 31 35 31h90q31 0 25 -31l-242 -1372q-6 -31 -37 -31h-61q-31 0 -41 27l-350 1009q-8 20 -14 82l-9 -2q4 -55 0 -86z" />
    <glyph glyph-name="O" unicode="O" 
d="M416 1184l-164 -934q-8 -49 16.5 -79t73.5 -30h334q49 0 85 30t44 79l164 934q8 49 -16.5 78.5t-73.5 29.5h-334q-49 0 -85 -29.5t-44 -78.5zM102 258l162 918q23 121 109 193.5t205 72.5h321q121 0 180.5 -74t38.5 -192l-162 -918q-23 -121 -108.5 -193.5t-204.5 -72.5
h-321q-119 0 -179.5 72.5t-40.5 193.5z" />
    <glyph glyph-name="P" unicode="P" 
d="M874 1284h-434l-100 -569h434q49 0 84 29.5t43 78.5l64 351q8 49 -17 79.5t-74 30.5zM739 565h-426l-94 -534q-4 -31 -35 -31h-90q-29 0 -24 31l241 1372q6 31 35 31h547q121 0 180.5 -74t38.5 -193l-59 -336q-20 -119 -106.5 -192.5t-207.5 -73.5z" />
    <glyph glyph-name="Q" unicode="Q" 
d="M416 1184l-162 -926q-8 -49 16.5 -80t73.5 -31h334q49 0 84 31t45 80l162 926q8 49 -16.5 78.5t-73.5 29.5h-334q-49 0 -85 -29.5t-44 -78.5zM719 -272h-94q-113 0 -175.5 61t-43.5 170l8 39h-90q-121 0 -180.5 73.5t-39.5 192.5l160 912q23 121 109 193.5t205 72.5h321
q121 0 180.5 -74t38.5 -192l-160 -912q-23 -121 -108.5 -193.5t-204.5 -72.5h-88l-8 -45q-8 -43 21.5 -66.5t78.5 -23.5h92q31 0 27 -31l-14 -74q-4 -30 -35 -30z" />
    <glyph glyph-name="R" unicode="R" 
d="M887 1284h-447l-96 -555h447q49 0 83.5 29.5t43.5 79.5l59 336q8 49 -16.5 79.5t-73.5 30.5zM799 29l-125 549h-357l-98 -547q-4 -31 -35 -31h-88q-31 0 -26 31l241 1372q6 31 37 31h559q121 0 180.5 -74t38.5 -193l-57 -323q-16 -98 -80.5 -167t-157.5 -91l123 -557
q2 -12 -5 -20.5t-21 -8.5h-94q-27 0 -35 29z" />
    <glyph glyph-name="S" unicode="S" 
d="M258 1030l25 146q23 121 108.5 193.5t204.5 72.5h285q121 0 180 -74t39 -192l-25 -136q-4 -31 -35 -30h-90q-29 0 -24 30l24 144q8 49 -16.5 78.5t-73.5 29.5h-297q-49 0 -85 -29.5t-44 -78.5l-24 -140q-10 -57 34 -88l457 -340q41 -31 60.5 -83t11.5 -109l-31 -168
q-23 -121 -108.5 -193.5t-204.5 -72.5h-305q-121 0 -180.5 73.5t-39.5 192.5l25 135q4 31 35 31l90 2q31 0 25 -31l-25 -143q-8 -49 16.5 -79t73.5 -30h320q49 0 83.5 30t43.5 79l28 160q10 57 -33 90l-458 338q-93 69 -70 192z" />
    <glyph glyph-name="T" unicode="T" 
d="M1212 1403l-14 -88q-6 -31 -37 -31h-375l-221 -1253q-6 -31 -37 -31h-88q-31 0 -26 31l221 1253h-375q-31 0 -24 31l14 88q6 31 37 31h901q30 0 24 -31z" />
    <glyph glyph-name="U" unicode="U" 
d="M1044 1434h89q31 0 26 -31l-203 -1145q-23 -121 -108.5 -193.5t-204.5 -72.5h-321q-119 0 -179.5 72.5t-40.5 193.5l203 1145q6 31 37 31h88q31 0 25 -31l-203 -1153q-8 -49 16.5 -79t73.5 -30h334q49 0 85 30t44 79l203 1153q5 31 36 31z" />
    <glyph glyph-name="V" unicode="V" 
d="M1106 1434h92q31 0 16 -29l-655 -1376q-14 -29 -43 -29h-61q-31 0 -35 29l-170 1376q-4 29 26 29h95q29 0 32 -29l132 -1049q4 -23 -7 -86h7q16 68 24 86l502 1049q14 29 45 29z" />
    <glyph glyph-name="W" unicode="W" 
d="M801 1403l-31 -1000q0 -8 -12 -88h6q2 8 8 40t10 48l334 1000q10 31 41 31h90q31 0 21 -31l-488 -1372q-10 -31 -41 -31h-63q-31 0 -31 31l21 973q0 8 12 88h-8q-10 -70 -19 -88l-319 -973q-10 -31 -41 -31h-64q-29 0 -32 31l-2 1372q0 31 30 31h92q29 0 29 -31
l-20 -1000q0 -8 -13 -88h6q2 8 8.5 40t10.5 48l321 1000q10 31 41 31h74q33 0 29 -31z" />
    <glyph glyph-name="X" unicode="X" 
d="M1071 1434h109q29 0 12 -27l-481 -659l264 -721q10 -27 -21 -27h-108q-29 0 -39 27l-203 542q-12 33 0 84h-8q-12 -57 -33 -84l-391 -542q-20 -27 -51 -27h-107q-29 0 -12 27l518 721l-248 659q-10 27 21 27h108q33 0 39 -27l187 -479q10 -31 2 -84h8q8 49 31 84l354 479
q16 27 49 27z" />
    <glyph glyph-name="Y" unicode="Y" 
d="M1200 1405l-541 -838l-94 -536q-6 -31 -37 -31h-88q-31 0 -24 31l94 536l-246 838q-6 29 23 29h100q33 0 39 -29l180 -612q8 -31 0 -84h6q14 61 31 86l395 610q16 29 47 29h103q28 0 12 -29z" />
    <glyph glyph-name="Z" unicode="Z" 
d="M930 119l-17 -88q-4 -31 -34 -31h-795q-31 0 -27 31l17 88q6 31 26 57l863 1108h-646q-31 0 -24 31l16 88q4 31 35 31h793q31 0 24 -31l-14 -88q-6 -31 -27 -58l-864 -1107h649q31 0 25 -31z" />
    <glyph glyph-name="bracketleft" unicode="[" 
d="M711 -307h-430q-25 0 -21 24l318 1794q4 25 26 25h430q25 0 21 -25l-17 -88q-4 -25 -26 -24h-305l-277 -1569h303q25 0 21 -25l-17 -88q-3 -24 -26 -24z" />
    <glyph glyph-name="backslash" unicode="\" 
d="M487 1520l334 -1768q4 -25 -20 -31l-76 -26q-2 -2 -8 -2q-14 0 -19 16l-333 1770q-4 20 18 28l76 27q4 2 8 2q16 0 20 -16z" />
    <glyph glyph-name="bracketright" unicode="]" 
d="M580 -307h-430q-23 0 -19 24l14 88q6 25 29 25h303l279 1569h-305q-25 0 -19 24l14 88q6 25 29 25h430q25 0 21 -25l-318 -1794q-3 -24 -28 -24z" />
    <glyph glyph-name="asciicircum" unicode="^" 
d="M872 1008l-161 270l-262 -272q-10 -10 -22.5 -10.5t-20.5 8.5l-48 53q-16 18 9 43l301 311q27 23 55 23h29q29 0 47 -23l190 -309q18 -23 -8 -43l-63 -53q-10 -8 -25 -9q-13 1 -21 11z" />
    <glyph glyph-name="underscore" unicode="_" 
d="M0 -307v149h1167v-149h-1167z" />
    <glyph glyph-name="grave" unicode="`" 
d="M811 1616l57 -168q6 -20 -16 -21h-57q-27 0 -37 17l-113 174q-14 18 10 18h125q25 0 31 -20z" />
    <glyph glyph-name="a" unicode="a" 
d="M805 248l110 631q-215 129 -362 129q-76 0 -129 -42t-66 -108l-104 -592q-10 -66 27.5 -106.5t113.5 -40.5q146 0 410 129zM874 0h-81q-31 0 -27 31l12 65q-246 -113 -420 -112q-133 0 -201.5 75.5t-45.5 202.5l106 600q20 127 116.5 204t231.5 77q172 0 377 -113l12 66
q4 31 35 30h82q31 0 27 -30l-189 -1065q-4 -31 -35 -31z" />
    <glyph glyph-name="b" unicode="b" 
d="M362 879l-110 -631q215 -129 362 -129q76 0 129.5 41t65.5 108l104 592q10 66 -27.5 107t-113.5 41q-146 0 -410 -129zM348 1434h82q31 0 25 -31l-66 -373q246 113 420 113q133 0 201.5 -76t46.5 -203l-107 -600q-20 -125 -116.5 -202.5t-229.5 -77.5q-174 0 -379 112
l-12 -65q-4 -31 -35 -31h-82q-31 0 -26 31l241 1372q6 31 37 31z" />
    <glyph glyph-name="c" unicode="c" 
d="M332 127h348q47 0 80 28.5t41 73.5l16 95q6 31 37 30h82q31 0 25 -30l-15 -86q-20 -111 -100 -178.5t-191 -67.5h-348q-111 0 -166 67.5t-35 178.5l115 651q18 111 98 178.5t191 67.5h348q111 0 166 -68t37 -178l-17 -86q-4 -31 -34 -31h-82q-31 0 -27 31l17 94
q8 45 -14.5 73.5t-69.5 28.5h-349q-45 0 -77.5 -27.5t-42.5 -74.5l-117 -668q-8 -47 15.5 -74.5t68.5 -27.5z" />
    <glyph glyph-name="d" unicode="d" 
d="M805 248l110 631q-215 129 -362 129q-76 0 -129 -41t-64 -107l-104 -592q-12 -68 27 -108.5t114 -40.5q144 0 408 129zM1044 1434h82q31 0 25 -31l-242 -1372q-4 -31 -35 -31h-81q-31 0 -27 31l12 65q-246 -113 -420 -112q-133 0 -201.5 76.5t-45.5 203.5l106 600
q20 125 116.5 202t229.5 77q174 0 379 -113l66 373q5 31 36 31z" />
    <glyph glyph-name="e" unicode="e" 
d="M834 999h-349q-45 0 -77.5 -27.5t-40.5 -74.5l-48 -262h553l48 262q8 45 -15.5 73.5t-70.5 28.5zM961 498h-666l-47 -267q-8 -47 16.5 -75.5t69.5 -28.5h348q45 0 78 27.5t41 74.5l12 68q6 31 37 31h82q31 0 24 -31l-10 -59q-20 -111 -99 -178.5t-190 -67.5h-348
q-111 0 -167 67.5t-36 178.5l115 651q20 111 99 178.5t190 67.5h348q111 0 167 -67t36 -177l-64 -363q-5 -30 -36 -30z" />
    <glyph glyph-name="f" unicode="f" 
d="M258 1020l14 76q4 31 35 30h232l10 62q20 111 100 178.5t191 67.5h272q31 0 27 -31l-15 -76q-4 -31 -34 -31h-275q-47 0 -80 -28.5t-41 -73.5l-12 -68h377q31 0 24 -30l-12 -76q-6 -31 -37 -31h-377l-223 -1265q-4 -31 -35 -31h-82q-31 0 -26 31l223 1265h-231
q-31 0 -25 31z" />
    <glyph glyph-name="g" unicode="g" 
d="M805 248l110 631q-215 129 -362 129q-76 0 -129 -42t-66 -110l-102 -586q-12 -68 25.5 -109.5t113.5 -41.5q146 0 410 129zM942 1030l12 66q4 31 35 30h82q31 0 27 -30l-199 -1123q-27 -152 -173 -224.5t-353 -72.5q-82 0 -240 23q-72 12 -67 43l14 76q4 23 33 22
q2 0 10 -1t12 -1q123 -25 250 -24q141 0 248.5 41t124.5 133l20 108q-246 -113 -413 -112q-137 0 -206 78.5t-46 209.5l102 582q23 131 120 210t234 79q168 0 373 -113z" />
    <glyph glyph-name="h" unicode="h" 
d="M348 1434h82q31 0 25 -31l-66 -373q246 113 416 113q135 0 203.5 -79t46.5 -210l-146 -825q-4 -29 -35 -29h-81q-31 0 -27 29l145 827q12 68 -26.5 110t-116.5 42q-141 0 -406 -129l-149 -848q-4 -31 -35 -31h-82q-31 0 -26 31l241 1372q6 31 37 31z" />
    <glyph glyph-name="i" unicode="i" 
d="M276 1028l13 68q4 31 35 30h430q31 0 26 -30l-170 -967h318q31 0 24 -31l-12 -67q-4 -31 -35 -31h-778q-31 0 -27 31l13 67q6 31 37 31h317l151 868h-317q-31 0 -25 31zM580 1313l22 129q10 45 55 45h136q45 0 38 -45l-22 -129q-6 -45 -55 -45h-136q-44 0 -38 45z" />
    <glyph glyph-name="j" unicode="j" 
d="M430 1126h526q31 0 25 -30l-197 -1123q-27 -152 -161 -224.5t-324 -72.5q-70 0 -227 23q-72 12 -68 43l14 76q4 23 33 22q2 0 10.5 -1t12.5 -1q123 -25 229 -24q129 0 226.5 41t113.5 133l178 1009h-413q-31 0 -25 31l12 68q4 30 35 30zM860 1489h135q45 0 39 -47
l-22 -127q-6 -47 -56 -47h-135q-45 0 -39 47l23 127q10 47 55 47z" />
    <glyph glyph-name="k" unicode="k" 
d="M504 506h-207l-84 -475q-4 -31 -35 -31h-82q-31 0 -26 31l241 1372q6 31 37 31h82q31 0 25 -31l-133 -760h204l420 457q23 27 43 26h109q14 0 19 -8t-5 -18l-479 -525l315 -548q6 -10 -1 -18.5t-21 -8.5h-111q-20 0 -35 27z" />
    <glyph glyph-name="l" unicode="l" 
d="M328 1335l12 68q6 31 37 31h428q31 0 26 -31l-225 -1274h318q31 0 26 -31l-12 -67q-6 -31 -37 -31h-778q-31 0 -25 31l13 67q4 31 34 31h318l207 1176h-318q-30 -1 -24 30z" />
    <glyph glyph-name="m" unicode="m" 
d="M834 31l151 866q8 53 -12.5 82t-59.5 29q-74 0 -190 -99q0 -10 -2 -14l-152 -864q-6 -31 -37 -31h-81q-31 0 -25 31l152 866q10 53 -10.5 82t-59.5 29q-76 0 -191 -101l-153 -876q-6 -31 -37 -31h-82q-31 0 -25 31l189 1065q4 31 35 30h82q31 0 26 -30l-8 -43
q123 90 221 90q113 0 150 -115q143 115 258 115q84 0 130 -68.5t25 -179.5l-151 -864q-6 -31 -37 -31h-82q-30 0 -24 31z" />
    <glyph glyph-name="n" unicode="n" 
d="M293 1126h82q31 0 26 -30l-12 -66q246 113 416 113q135 0 203.5 -79t46.5 -210l-146 -825q-4 -29 -35 -29h-81q-31 0 -27 29l145 827q12 68 -26.5 110t-116.5 42q-141 0 -406 -129l-149 -848q-4 -31 -35 -31h-82q-31 0 -26 31l188 1065q4 30 35 30z" />
    <glyph glyph-name="o" unicode="o" 
d="M367 897l-119 -668q-8 -45 15.5 -73.5t70.5 -28.5h348q45 0 78 27.5t41 74.5l119 668q8 45 -15.5 73.5t-70.5 28.5h-349q-45 0 -77.5 -27.5t-40.5 -74.5zM106 238l115 651q20 111 99 178.5t190 67.5h348q111 0 167 -68t36 -178l-115 -651q-20 -111 -99 -178.5t-190 -67.5
h-348q-111 0 -167 67.5t-36 178.5z" />
    <glyph glyph-name="p" unicode="p" 
d="M362 879l-110 -631q215 -129 362 -129q76 0 129.5 41t63.5 106l104 592q12 66 -25.5 108t-113.5 42q-146 0 -410 -129zM123 -307h-82q-31 0 -25 31l242 1372q4 31 35 30h82q31 0 26 -30l-12 -66q246 113 418 113q135 0 203.5 -77t46.5 -204l-107 -600
q-20 -125 -116.5 -201.5t-229.5 -76.5q-174 0 -379 112l-65 -372q-6 -31 -37 -31z" />
    <glyph glyph-name="q" unicode="q" 
d="M805 248l110 631q-215 129 -362 129q-76 0 -129 -42t-66 -108l-104 -592q-10 -66 27.5 -106.5t113.5 -40.5q146 0 410 129zM819 -307h-82q-31 0 -24 31l65 372q-246 -113 -420 -112q-133 0 -201.5 75.5t-45.5 202.5l106 600q20 127 116.5 204t231.5 77q172 0 377 -113
l12 66q4 31 35 30h82q31 0 27 -30l-242 -1372q-6 -31 -37 -31z" />
    <glyph glyph-name="r" unicode="r" 
d="M797 98l-13 -67q-4 -31 -34 -31h-656q-31 0 -26 31l12 67q6 31 37 31h231l154 868h-226q-31 0 -26 31l12 68q6 31 37 30h338q31 0 25 -30l-23 -125q289 170 487 170q31 0 25 -29l-14 -96q-6 -23 -35 -23q-164 0 -490 -182l-120 -682h280q31 0 25 -31z" />
    <glyph glyph-name="s" unicode="s" 
d="M965 344l-17 -94q-20 -115 -100 -186.5t-191 -71.5h-348q-111 0 -167 67.5t-36 178.5l15 86q6 31 37 30h82q31 0 24 -30l-12 -74q-20 -123 88 -123h334q109 0 133 133l12 70q4 29 -6 55.5t-33 34.5l-469 186q-55 20 -79.5 77.5t-14.5 125.5l12 74q20 113 100.5 182.5
t190.5 69.5h328q111 0 167 -68t36 -178l-15 -86q-6 -31 -37 -31h-81q-31 0 -25 31l12 74q20 123 -88 122h-313q-109 0 -133 -131l-9 -45q-4 -29 6.5 -55.5t32.5 -34.5l469 -186q55 -23 80 -79t15 -124z" />
    <glyph glyph-name="t" unicode="t" 
d="M244 1020l14 76q4 31 35 30h225l31 174q6 31 37 31h82q31 0 24 -31l-30 -174h382q31 0 27 -30l-14 -76q-6 -31 -37 -31h-383l-131 -751q-8 -45 14.5 -74t69.5 -29h280q31 0 25 -31l-12 -75q-6 -31 -37 -31h-281q-111 0 -167 67.5t-36 178.5l132 745h-224q-30 0 -26 31z
" />
    <glyph glyph-name="u" unicode="u" 
d="M874 0h-81q-31 0 -27 31l12 65q-246 -113 -413 -112q-137 0 -206 78.5t-46 209.5l145 826q4 29 35 28h82q31 0 26 -28l-145 -828q-12 -68 27 -109.5t116 -41.5q141 0 406 129l149 848q4 31 35 30h82q31 0 27 -30l-189 -1065q-4 -31 -35 -31z" />
    <glyph glyph-name="v" unicode="v" 
d="M532 254l478 844q18 29 45 28h96q31 0 16 -28l-600 -1069q-14 -29 -45 -29h-78q-31 0 -36 29l-218 1069q-6 29 25 28h92q29 0 37 -28l158 -844q8 -33 0 -88h8q4 51 22 88z" />
    <glyph glyph-name="w" unicode="w" 
d="M610 772l-282 -741q-10 -31 -41 -31h-78q-31 0 -31 31l-47 1065q0 31 29 30h86q33 0 33 -30l16 -783q0 -23 -10 -90h6q18 78 22 90l291 783q10 31 41 30h74q33 0 33 -30l14 -783q0 -23 -10 -90h6q18 80 22 90l293 783q10 31 41 30h86q31 0 21 -30l-424 -1065
q-14 -31 -43 -31h-76q-31 0 -31 31l-22 741q0 20 10 92h-6q-9 -53 -23 -92z" />
    <glyph glyph-name="x" unicode="x" 
d="M618 713l359 389q20 25 51 24h109q31 0 10 -24l-477 -524l293 -551q10 -27 -19 -27h-110q-31 0 -43 27l-211 413q-6 12 -2 45h-9q-4 -31 -14 -45l-373 -415q-20 -25 -51 -25h-106q-33 0 -9 25l484 553l-281 522q-14 27 19 26h106q29 0 45 -26l203 -387q8 -16 4 -43h6
q4 23 16 43z" />
    <glyph glyph-name="y" unicode="y" 
d="M401 1096l-145 -826q-12 -68 25.5 -109.5t113.5 -41.5q145 0 410 129l149 848q4 31 35 30h82q31 0 27 -30l-199 -1123q-27 -152 -173 -224.5t-353 -72.5q-82 0 -240 23q-72 12 -67 43l14 76q4 23 33 22q2 0 10 -1t12 -1q123 -25 250 -24q141 0 248.5 41t124.5 133l20 108
q-246 -113 -413 -112q-137 0 -206 78.5t-46 209.5l145 824q4 31 35 30h82q30 1 26 -30z" />
    <glyph glyph-name="z" unicode="z" 
d="M113 162l786 827h-623q-31 0 -24 31l12 76q6 31 37 30h774q31 0 27 -30l-15 -78q-6 -31 -28 -53l-791 -828h637q31 0 25 -31l-15 -75q-4 -31 -34 -31h-785q-31 0 -26 31l14 78q2 26 29 53z" />
    <glyph glyph-name="braceleft" unicode="{" 
d="M1026 1399h-115q-49 0 -83.5 -30t-43.5 -79l-79 -450q-29 -156 -156 -226q109 -72 80 -225l-80 -450q-10 -49 14.5 -79t73.5 -30h113q31 0 24 -31l-12 -75q-6 -31 -37 -31h-104q-119 0 -179.5 72.5t-40.5 193.5l84 471q8 49 -16.5 79t-73.5 30h-28q-31 0 -25 30l16 90
q4 31 35 31h29q49 0 82 30t43 79l84 471q20 119 105 192.5t206 73.5h109q31 0 24 -31l-12 -75q-6 -31 -37 -31z" />
    <glyph glyph-name="bar" unicode="|" 
d="M522 -283v1794q0 25 25 25h74q25 0 24 -25v-1794q0 -25 -24 -24h-74q-25 -1 -25 24z" />
    <glyph glyph-name="braceright" unicode="}" 
d="M160 -170h110q49 0 85 29.5t44 79.5l78 450q29 156 158 225q-102 72 -74 226l80 450q8 49 -16.5 79t-73.5 30h-115q-31 0 -24 31l12 75q6 31 37 31h108q119 0 179.5 -72.5t37.5 -193.5l-81 -471q-10 -49 13 -79t73 -30h28q29 0 25 -31l-17 -90q-4 -31 -34 -30h-29
q-47 0 -84 -30t-45 -79l-82 -471q-23 -121 -109 -193.5t-204 -72.5h-105q-31 0 -24 31l12 75q6 31 37 31z" />
    <glyph glyph-name="asciitilde" unicode="~" 
d="M287 680l16 92q4 25 27 37l63 37q47 27 105 26q43 0 71 -14l152 -70q18 -8 47 -8q35 0 70 19l94 53q4 4 10 4q10 0 8 -14l-16 -92q-4 -25 -27 -37l-63 -35q-47 -29 -105 -29q-35 0 -71 15l-152 69q-25 10 -47 10q-35 0 -70 -18l-94 -55q-4 -4 -10 -4q-10 0 -8 14z" />
    <glyph glyph-name="exclamdown" unicode="&#xa1;" 
d="M354 -262l181 924q6 45 51 45h45q45 0 39 -45l-148 -924q-10 -45 -53 -45h-80q-41 0 -35 45zM526 928l27 151q10 47 57 47h146q45 0 39 -47l-27 -151q-10 -47 -55 -47h-146q-47 0 -41 47z" />
    <glyph glyph-name="cent" unicode="&#xa2;" 
d="M678 180h-103l-28 -166q-4 -23 -29 -22h-74q-25 0 -20 22l29 166h-103q-111 0 -166 67.5t-34 178.5l102 582q18 111 98 178t191 67h102l29 166q4 23 28 23h74q25 0 21 -23l-29 -166h102q111 0 166.5 -67.5t36.5 -177.5l-16 -88q-6 -31 -37 -31h-80q-33 0 -27 31l17 94
q8 47 -15.5 74.5t-68.5 27.5h-328q-47 0 -80 -28.5t-41 -73.5l-104 -594q-8 -47 15.5 -75t68.5 -28h327q47 0 80 29t41 74l17 94q6 31 37 31h81q31 0 25 -31l-14 -88q-20 -111 -100 -178.5t-191 -67.5z" />
    <glyph glyph-name="sterling" unicode="&#xa3;" 
d="M2 31l16 88q6 31 37 31h154l76 428h-154q-31 0 -27 30l13 62q4 31 35 30h153l84 476q23 121 109 193.5t204 72.5h191q121 0 180.5 -74t38.5 -192l-25 -136q-4 -31 -34 -30h-90q-31 0 -25 30l25 144q8 49 -16.5 78.5t-74.5 29.5h-202q-49 0 -85 -29.5t-44 -78.5l-84 -484
h321q31 0 27 -30l-12 -62q-4 -31 -35 -30h-324l-76 -428h537q31 0 25 -31l-17 -88q-4 -31 -35 -31h-839q-31 0 -27 31z" />
    <glyph glyph-name="currency" unicode="&#xa4;" 
d="M295 717q0 -121 85 -206t206 -85q119 0 205 86t86 205t-86 205t-205 86q-121 0 -206 -85t-85 -206zM932 467l112 -113q20 -23 0 -43l-53 -53q-10 -10 -20 -10q-12 0 -23 10l-112 113q-111 -82 -250 -82q-137 0 -252 82l-113 -113q-8 -10 -22 -10q-12 0 -21 10l-53 53
q-23 20 0 43l113 113q-80 113 -80 250t80 250l-113 114q-23 23 0 43l53 54q10 10 21 10q8 0 22 -10l113 -115q115 82 252 82q135 0 250 -82l112 115q14 10 23 10q10 0 20 -10l53 -54q20 -23 0 -43l-114 -114q82 -106 82 -250q0 -141 -80 -250z" />
    <glyph glyph-name="yen" unicode="&#xa5;" 
d="M199 236l10 59q6 31 37 31h221l25 137h-222q-31 0 -26 31l12 61q4 31 35 31h213l-240 819q-6 29 23 29h100q33 0 39 -29l180 -612q8 -31 0 -84h6q14 61 31 86l395 610q16 29 47 29h103q29 0 12 -29l-528 -819h213q31 0 26 -31l-12 -61q-4 -31 -35 -31h-223l-25 -137h224
q31 0 24 -31l-10 -59q-6 -31 -37 -31h-221l-31 -174q-6 -31 -37 -31h-88q-31 0 -24 31l30 174h-223q-30 0 -24 31z" />
    <glyph glyph-name="brokenbar" unicode="&#xa6;" 
d="M522 -283v779h123v-779q0 -25 -24 -24h-74q-25 -1 -25 24zM645 1511v-778h-123v778q0 25 25 25h74q24 0 24 -25z" />
    <glyph glyph-name="section" unicode="&#xa7;" 
d="M537 383l-232 227q-78 78 -57 191l69 395q18 111 97.5 178.5t191.5 67.5h264q111 0 167.5 -67.5t35.5 -178.5l-20 -115q-6 -31 -37 -30h-82q-31 0 -25 30l19 103q20 123 -88 123h-238q-55 0 -95 -34t-48 -89l-66 -371q-10 -55 27 -94l231 -230q14 -14 -4 -32l-76 -72
q-12 -8 -20 -8t-14 6zM680 961l221 -222q78 -72 57 -190l-69 -395q-20 -111 -99 -178.5t-190 -67.5h-264q-111 0 -167 67.5t-36 178.5l21 114q6 31 36 31h82q31 0 25 -31l-18 -100q-8 -55 19.5 -89t82.5 -34h223q55 0 94 34t50 89l65 369q10 53 -27 96l-221 221q-18 14 4 33
l76 71q8 8 21 9q8 0 14 -6z" />
    <glyph glyph-name="dieresis" unicode="&#xa8;" 
d="M842 1489l8 55q10 49 59 49h54q47 0 41 -49l-11 -55q-10 -49 -57 -49h-53q-23 0 -34 13t-7 36zM502 1489l8 55q10 49 59 49h54q23 0 34 -13t7 -36l-9 -55q-10 -49 -59 -49h-53q-23 0 -34 13t-7 36z" />
    <glyph glyph-name="copyright" unicode="&#xa9;" 
d="M244 1030l-111 -627q-23 -125 40 -202.5t189 -77.5h287q125 0 216 76.5t114 203.5l111 627q23 127 -42 204t-190 77h-287q-125 0 -214.5 -77t-112.5 -204zM10 403l111 627q31 180 161 292t312 112h287q182 0 273 -112t58 -292l-110 -627q-33 -182 -163 -292.5
t-310 -110.5h-287q-182 0 -273.5 111.5t-58.5 291.5zM524 383h72q51 0 88 31.5t47 85.5l10 53q4 31 35 31h70q31 0 24 -31l-8 -47q-20 -111 -99 -178.5t-190 -67.5h-71q-111 0 -167 67.5t-36 178.5l74 422q20 111 99 178.5t190 67.5h71q111 0 167 -68t36 -178l-8 -47
q-4 -31 -35 -31h-70q-31 0 -24 31l10 53q8 51 -17.5 84t-78.5 33h-72q-51 0 -89 -32t-48 -85l-76 -434q-8 -51 17.5 -84t78.5 -33z" />
    <glyph glyph-name="ordfeminine" unicode="&#xaa;" 
d="M809 870l68 392q-145 80 -228 79q-45 0 -75.5 -23.5t-38.5 -64.5l-66 -376q-8 -39 15.5 -62.5t68.5 -23.5q82 -1 256 79zM864 700h-61q-25 0 -19 25l7 35q-172 -72 -267 -72q-88 0 -134 52.5t-30 136.5l68 380q14 84 76.5 135.5t152.5 51.5q100 0 240 -70l6 35
q6 25 29 25h61q25 0 19 -25l-119 -684q-6 -25 -29 -25z" />
    <glyph glyph-name="guillemotleft" unicode="&#xab;" 
d="M647 918l-354 -293l250 -293q16 -20 -8 -43l-52 -43q-10 -10 -22 -10t-21 8l-270 317q-16 18 -12 51l4 25q6 31 31 51l380 318q10 8 25 8q12 0 20 -10l35 -43q17 -23 -6 -43zM1059 918l-354 -293l251 -293q16 -20 -8 -43l-51 -43q-10 -10 -25 -10q-12 0 -20 8l-268 317
q-18 18 -13 51l4 25q4 31 31 51l381 318q10 8 22.5 8t20.5 -10l37 -43q17 -25 -8 -43z" />
    <glyph glyph-name="logicalnot" unicode="&#xac;" 
d="M262 748v75q0 31 31 31h581q31 0 31 -31v-260q0 -31 -31 -31h-75q-31 0 -31 31v154h-475q-31 0 -31 31z" />
    <glyph glyph-name="uni00AD" unicode="&#xad;" 
d="M358 588v74q0 25 25 24h401q25 0 25 -24v-74q0 -25 -25 -25h-401q-25 0 -25 25z" />
    <glyph glyph-name="registered" unicode="&#xae;" 
d="M244 1030l-111 -627q-23 -125 40 -202.5t189 -77.5h287q125 0 216 76.5t114 203.5l111 627q23 127 -42 204t-190 77h-287q-125 0 -214.5 -77t-112.5 -204zM743 1042h-229l-57 -325h229q47 0 81 22.5t42 59.5l29 162q6 37 -21 59t-74 22zM10 403l111 627q31 180 161 292
t312 112h287q182 0 273 -112t58 -292l-110 -627q-33 -182 -163 -292.5t-310 -110.5h-287q-182 0 -273.5 111.5t-58.5 291.5zM729 287l-94 301h-203l-51 -299q-6 -27 -33 -27h-76q-27 0 -22 27l151 858q8 27 31 27h328q111 0 167 -60.5t38 -159.5l-25 -149
q-29 -145 -170 -199l92 -319q4 -25 -24 -25h-80q-25 0 -29 25z" />
    <glyph glyph-name="macron" unicode="&#xaf;" 
d="M565 1489l10 53q4 25 29 25h314q25 0 18 -25l-8 -53q-4 -25 -29 -25h-313q-25 0 -21 25z" />
    <glyph glyph-name="degree" unicode="&#xb0;" 
d="M475 1225q16 94 94 159.5t170 65.5q94 0 148.5 -65.5t38.5 -159.5q-16 -92 -94 -159t-170 -67q-94 0 -148.5 67t-38.5 159zM588 1225q-8 -45 18.5 -79t73.5 -34t86 34t47 79t-18.5 79.5t-73.5 34.5q-45 0 -85 -33.5t-48 -80.5z" />
    <glyph glyph-name="plusminus" unicode="&#xb1;" 
d="M262 762v74q0 31 31 30h223v224q0 31 31 30h74q31 0 30 -30v-224h223q31 0 31 -30v-74q0 -31 -31 -31h-223v-223q0 -31 -30 -31h-74q-31 0 -31 31v223h-223q-31 0 -31 31zM262 250v74q0 31 31 30h581q31 0 31 -30v-74q0 -31 -31 -31h-581q-31 0 -31 31z" />
    <glyph glyph-name="uni00B2" unicode="&#xb2;" 
d="M397 735l25 139q10 61 72 97l290 164q23 12 25 32l20 115q4 29 -9 45t-42 16h-123q-57 0 -71 -61l-9 -49q-2 -18 -22 -19h-57q-20 0 -17 19l8 41q14 76 66.5 121t128.5 45h104q76 0 113 -45t25 -121l-23 -119q-10 -66 -74 -98l-288 -164q-20 -10 -25 -31l-8 -49h321
q18 0 15 -20l-11 -58q-4 -18 -20 -18h-399q-19 0 -15 18z" />
    <glyph glyph-name="uni00B3" unicode="&#xb3;" 
d="M561 1223h-57q-20 0 -17 20l7 31q12 74 65 119t127 45h100q74 0 112 -45t24 -119l-13 -66q-12 -80 -86 -121q66 -39 49 -122l-14 -88q-14 -74 -67.5 -120t-126.5 -46h-105q-76 0 -112.5 46t-22.5 120l4 32q4 18 23 19h57q20 0 16 -19l-6 -41q-6 -27 7.5 -44t41.5 -17h123
q59 0 70 61l20 111q4 27 -9 43t-40 16h-96q-18 0 -14 19l8 57q4 20 22 21h88q29 0 49.5 16t24.5 43l14 88q4 27 -9 44t-40 17h-116q-61 0 -72 -61l-6 -39q-5 -20 -23 -20z" />
    <glyph glyph-name="acute" unicode="&#xb4;" 
d="M772 1448l148 168q20 20 43 20h124q18 0 0 -18l-204 -174q-20 -16 -47 -17h-58q-18 1 -6 21z" />
    <glyph glyph-name="paragraph" unicode="&#xb6;" 
d="M698 -276l275 1560h-197l-274 -1560q-6 -31 -37 -31h-88q-31 0 -25 31l150 847h-82q-121 0 -180.5 74t-38.5 193l57 329q23 121 109 194t204 73h547q31 0 27 -31l-297 -1679q-6 -31 -37 -31h-88q-31 0 -25 31z" />
    <glyph glyph-name="periodcentered" unicode="&#xb7;" 
d="M477 641l27 152q10 47 55 47h146q49 0 38 -47l-26 -152q-6 -47 -55 -47h-146q-45 0 -39 47z" />
    <glyph glyph-name="cedilla" unicode="&#xb8;" 
d="M575 -156l-6 -45q-8 -41 -37.5 -66.5t-70.5 -25.5h-123q-25 0 -21 25l5 26q6 25 28 25h103q31 0 36 31l3 16q6 31 -25 31h-51q-45 0 -29 43l37 102h90l-27 -69h13q41 0 62 -26t13 -67z" />
    <glyph glyph-name="uni00B9" unicode="&#xb9;" 
d="M457 735l8 53q2 18 22 19h158l90 518l-168 -57q-2 -2 -6 -2q-10 0 -10 14l10 57q4 18 23 27l186 63q37 6 39 7h22q20 0 17 -19l-109 -608h158q16 0 14 -19l-8 -53q-4 -18 -22 -18h-410q-18 0 -14 18z" />
    <glyph glyph-name="ordmasculine" unicode="&#xba;" 
d="M539 1278l-74 -424q-10 -57 47 -57h227q55 0 66 57l76 424q10 59 -47 59h-228q-57 0 -67 -59zM356 860l74 414q12 74 66.5 120t128.5 46h227q74 0 111.5 -46t23.5 -120l-72 -414q-14 -76 -67 -121t-127 -45h-227q-74 0 -112 45t-26 121z" />
    <glyph glyph-name="guillemotright" unicode="&#xbb;" 
d="M895 625l-250 293q-16 20 8 43l52 43q10 10 24 10q12 0 19 -8l270 -318q18 -23 12 -51l-4 -25q-6 -31 -31 -51l-381 -317q-10 -8 -22 -8q-14 0 -21 10l-36 43q-16 25 8 43zM483 625l-250 293q-18 18 9 43l49 43q10 10 24 10q12 0 21 -8l268 -318q18 -18 14 -51l-4 -25
q-6 -33 -32 -51l-379 -317q-10 -8 -25 -8q-12 0 -20 10l-37 43q-16 23 10 43z" />
    <glyph glyph-name="onequarter" unicode="&#xbc;" 
d="M39 434l1085 600q10 6 17 6q10 0 14 -12l31 -63q8 -23 -15 -33l-1085 -600q-8 -6 -14 -6q-14 0 -17 12l-30 63q-11 19 14 33zM981 641l-289 -430h197l33 184q4 18 22 19h57q18 0 15 -19l-33 -184h55q18 0 17 -18l-11 -58q-4 -20 -24 -20h-53l-19 -97q0 -18 -18 -18h-60
q-18 0 -14 18l16 97h-297q-20 0 -16 20l6 29q4 23 15 39l294 438q14 18 31 18h68q18 0 8 -18zM94 811l8 53q4 18 23 19h158l77 442l-167 -57q-4 -2 -9 -2q-12 0 -8 14l10 57q4 20 23 27l186 63q31 6 37 7h25q18 0 14 -19l-92 -532h156q20 0 16 -19l-10 -53q-4 -18 -23 -18
h-409q-19 0 -15 18z" />
    <glyph glyph-name="onehalf" unicode="&#xbd;" 
d="M39 434l1085 600q10 6 17 6q10 0 14 -12l31 -63q8 -23 -15 -33l-1085 -600q-8 -6 -14 -6q-14 0 -17 12l-30 63q-11 19 14 33zM608 18l25 140q10 66 72 96l284 131q20 10 25 35l12 72q6 27 -7 43t-42 16h-125q-27 0 -46.5 -16.5t-23.5 -42.5l-8 -46q-4 -16 -22 -16h-58
q-18 0 -14 16l6 35q12 76 65.5 121t129.5 45h104q76 0 113 -45t22 -121l-12 -75q-14 -66 -76 -99l-282 -131q-20 -6 -25 -31l-8 -49h321q18 0 15 -20l-11 -58q0 -18 -20 -18h-397q-21 0 -17 18zM94 811l8 53q4 18 23 19h158l77 442l-167 -57q-4 -2 -9 -2q-12 0 -8 14l10 57
q4 20 23 27l186 63q31 6 37 7h25q18 0 14 -19l-92 -532h156q20 0 16 -19l-10 -53q-4 -18 -23 -18h-409q-19 0 -15 18z" />
    <glyph glyph-name="threequarters" unicode="&#xbe;" 
d="M39 434l1085 600q10 6 17 6q10 0 14 -12l31 -63q8 -23 -15 -33l-1085 -600q-8 -6 -14 -6q-14 0 -17 12l-30 63q-11 19 14 33zM981 641l-289 -430h197l33 184q4 18 22 19h57q18 0 15 -19l-33 -184h55q18 0 17 -18l-11 -58q-4 -20 -24 -20h-53l-19 -97q0 -18 -18 -18h-60
q-18 0 -14 18l16 97h-297q-20 0 -16 20l6 29q4 23 15 39l294 438q14 18 31 18h68q18 0 8 -18zM246 1227h-58q-20 0 -16 20l6 31q12 74 65.5 119t127.5 45h100q74 0 112 -45t23 -119l-6 -35q-12 -80 -86 -121q63 -41 49 -123l-10 -57q-12 -74 -65.5 -120t-129.5 -46h-104
q-74 0 -111 46t-24 120l6 33q4 18 22 18h58q18 0 14 -18l-6 -41q-4 -27 9.5 -44.5t39.5 -17.5h123q57 0 72 62l12 80q4 27 -9.5 43t-39.5 16h-94q-20 0 -17 19l10 57q4 20 23 20h88q61 0 72 60l10 57q4 27 -9.5 44.5t-39.5 17.5h-117q-61 0 -72 -62l-6 -39q-4 -20 -22 -20z
" />
    <glyph glyph-name="questiondown" unicode="&#xbf;" 
d="M80 -49l37 215q10 55 48 109.5t87 86.5l223 148q53 39 64 94l16 72q6 31 37 31h76q31 0 26 -31l-14 -92q-8 -57 -44 -110.5t-87 -86.5l-221 -141q-53 -35 -64 -92l-37 -211q-8 -49 16.5 -79t73.5 -30h277q49 0 83 30t42 79l26 145q4 31 35 31h90q31 0 25 -31l-25 -137
q-23 -121 -106.5 -193.5t-202.5 -72.5h-262q-121 0 -180 73.5t-39 192.5zM807 1079l-27 -151q-6 -47 -53 -47h-147q-20 0 -30.5 13t-6.5 34l26 151q6 47 54 47h147q20 0 30.5 -13.5t6.5 -33.5z" />
    <glyph glyph-name="Agrave" unicode="&#xc0;" 
d="M344 412h426l-84 665q-4 37 8 86h-8q-16 -68 -24 -86zM788 262h-516l-110 -233q-14 -29 -45 -29h-92q-33 0 -19 29l656 1376q14 29 45 29h61q31 0 35 -29l170 -1376q4 -29 -27 -29h-94q-29 0 -33 29zM752 1706l57 -170q6 -20 -16 -20h-58q-27 0 -39 16l-110 176
q-16 16 10 16h125q25 0 31 -18z" />
    <glyph glyph-name="Aacute" unicode="&#xc1;" 
d="M344 412h426l-84 665q-4 37 8 86h-8q-16 -68 -24 -86zM788 262h-516l-110 -233q-14 -29 -45 -29h-92q-33 0 -19 29l656 1376q14 29 45 29h61q31 0 35 -29l170 -1376q4 -29 -27 -29h-94q-29 0 -33 29zM709 1536l116 170q12 18 39 18h125q20 0 4 -16l-174 -176
q-20 -16 -45 -16h-57q-22 0 -8 20z" />
    <glyph glyph-name="Acircumflex" unicode="&#xc2;" 
d="M344 412h426l-84 665q-4 37 8 86h-8q-16 -68 -24 -86zM788 262h-516l-110 -233q-14 -29 -45 -29h-92q-33 0 -19 29l656 1376q14 29 45 29h61q31 0 35 -29l170 -1376q4 -29 -27 -29h-94q-29 0 -33 29zM858 1696l90 -156q14 -18 -12 -18h-78q-23 0 -33 20l-51 94l-90 -94
q-16 -20 -41 -20h-74q-25 0 -6 18l146 156q16 18 41 18h73q25 0 35 -18z" />
    <glyph glyph-name="Atilde" unicode="&#xc3;" 
d="M344 412h426l-84 665q-4 37 8 86h-8q-16 -68 -24 -86zM788 262h-516l-110 -233q-14 -29 -45 -29h-92q-33 0 -19 29l656 1376q14 29 45 29h61q31 0 35 -29l170 -1376q4 -29 -27 -29h-94q-29 0 -33 29zM532 1552l11 60q6 35 59 56.5t96 21.5q37 0 64 -15l67 -33
q14 -8 37 -8q63 0 127 41q8 4 11 4q10 0 6 -14l-11 -61q-6 -35 -57 -54.5t-96 -19.5q-35 0 -66 12l-65 35q-14 6 -37 6q-63 0 -127 -41q-6 -4 -12 -4q-9 0 -7 14z" />
    <glyph glyph-name="Adieresis" unicode="&#xc4;" 
d="M344 412h426l-84 665q-4 37 8 86h-8q-16 -68 -24 -86zM788 262h-516l-110 -233q-14 -29 -45 -29h-92q-33 0 -19 29l656 1376q14 29 45 29h61q31 0 35 -29l170 -1376q4 -29 -27 -29h-94q-29 0 -33 29zM516 1579l10 53q10 49 60 49h51q49 0 43 -49l-10 -53q-6 -49 -60 -49
h-51q-49 0 -43 49zM856 1579l10 53q10 49 58 49h53q23 0 34 -13t7 -36l-8 -53q-10 -49 -60 -49h-53q-47 0 -41 49z" />
    <glyph glyph-name="Aring" unicode="&#xc5;" 
d="M344 412h426l-84 665q-4 37 8 86h-8q-16 -68 -24 -86zM709 1622q-4 -29 12 -48.5t43 -19.5t50.5 20.5t27.5 47.5t-12.5 46.5t-43 19.5t-50 -19.5t-27.5 -46.5zM788 262h-516l-110 -233q-14 -29 -45 -29h-92q-33 0 -19 29l656 1376q14 29 45 29h61q31 0 35 -29l170 -1376
q4 -29 -27 -29h-94q-29 0 -33 29zM631 1622q10 59 60 101t110 42q57 0 92 -42t25 -101q-8 -59 -58.5 -101t-110 -42t-94 42t-24.5 101z" />
    <glyph glyph-name="AE" unicode="&#xc6;" 
d="M311 412h269l127 716q4 27 24 89l-4 2q-12 -43 -35 -86zM553 262h-322l-122 -233q-14 -29 -43 -29h-101q-14 0 -19 8t3 21l745 1376q14 29 43 29h488q31 0 24 -31l-14 -88q-6 -31 -37 -31h-313l-97 -549h226q29 0 24 -30l-16 -89q-4 -31 -35 -30h-225l-78 -436h313
q31 0 27 -31l-16 -88q-4 -31 -35 -31h-434q-31 0 -27 31z" />
    <glyph glyph-name="Ccedilla" unicode="&#xc7;" 
d="M575 -156l-6 -45q-8 -41 -37.5 -66.5t-70.5 -25.5h-123q-25 0 -21 25l5 26q6 25 28 25h103q31 0 36 31l3 16q6 31 -25 31h-51q-45 0 -29 43l31 88h-88q-121 0 -180.5 73.5t-38.5 192.5l161 918q23 121 109 193.5t205 72.5h307q121 0 180.5 -74t38.5 -192l-25 -136
q-4 -31 -36 -30h-88q-31 0 -25 30l25 144q8 49 -16.5 78.5t-74.5 29.5h-321q-49 0 -84 -29.5t-43 -78.5l-166 -934q-8 -49 16.5 -79t73.5 -30h322q49 0 85 30t44 79l24 143q6 31 37 31h88q31 0 25 -31l-23 -135q-23 -121 -108.5 -193.5t-204.5 -72.5h-129l-21 -55h13
q41 0 62 -26t13 -67z" />
    <glyph glyph-name="Egrave" unicode="&#xc8;" 
d="M70 31l241 1372q6 31 37 31h778q31 0 25 -31l-14 -88q-6 -31 -37 -31h-660l-96 -549h481q31 0 27 -30l-16 -89q-6 -31 -37 -30h-482l-75 -436h657q31 0 27 -31l-17 -88q-4 -31 -35 -31h-778q-30 0 -26 31zM756 1706l57 -170q4 -20 -16 -20h-60q-25 0 -37 16l-112 176
q-12 16 10 16h127q21 0 31 -18z" />
    <glyph glyph-name="Eacute" unicode="&#xc9;" 
d="M70 31l241 1372q6 31 37 31h778q31 0 25 -31l-14 -88q-6 -31 -37 -31h-660l-96 -549h481q31 0 27 -30l-16 -89q-6 -31 -37 -30h-482l-75 -436h657q31 0 27 -31l-17 -88q-4 -31 -35 -31h-778q-30 0 -26 31zM684 1536l117 170q14 18 39 18h125q20 0 4 -16l-174 -176
q-20 -16 -43 -16h-60q-22 0 -8 20z" />
    <glyph glyph-name="Ecircumflex" unicode="&#xca;" 
d="M70 31l241 1372q6 31 37 31h778q31 0 25 -31l-14 -88q-6 -31 -37 -31h-660l-96 -549h481q31 0 27 -30l-16 -89q-6 -31 -37 -30h-482l-75 -436h657q31 0 27 -31l-17 -88q-4 -31 -35 -31h-778q-30 0 -26 31zM848 1696l90 -156q14 -18 -12 -18h-78q-23 0 -33 20l-51 94
l-90 -94q-16 -20 -41 -20h-74q-25 0 -6 18l145 156q14 18 41 18h74q27 0 35 -18z" />
    <glyph glyph-name="Edieresis" unicode="&#xcb;" 
d="M70 31l241 1372q6 31 37 31h778q31 0 25 -31l-14 -88q-6 -31 -37 -31h-660l-96 -549h481q31 0 27 -30l-16 -89q-6 -31 -37 -30h-482l-75 -436h657q31 0 27 -31l-17 -88q-4 -31 -35 -31h-778q-30 0 -26 31zM846 1579l10 53q10 49 57 49h54q23 0 34 -13t7 -36l-9 -53
q-10 -49 -59 -49h-53q-47 0 -41 49zM506 1579l10 53q10 49 59 49h52q49 0 43 -49l-11 -53q-6 -49 -59 -49h-51q-49 0 -43 49z" />
    <glyph glyph-name="Igrave" unicode="&#xcc;" 
d="M74 31l14 82q4 31 37 30h309l203 1147h-311q-31 0 -25 31l14 82q6 31 37 31h770q31 0 27 -31l-14 -82q-6 -31 -37 -31h-312l-200 -1147h309q31 0 27 -30l-17 -82q-4 -31 -35 -31h-772q-30 0 -24 31zM766 1706l57 -170q4 -20 -16 -20h-59q-25 0 -37 16l-113 176
q-12 16 10 16h127q23 0 31 -18z" />
    <glyph glyph-name="Iacute" unicode="&#xcd;" 
d="M74 31l14 82q4 31 37 30h309l203 1147h-311q-31 0 -25 31l14 82q6 31 37 31h770q31 0 27 -31l-14 -82q-6 -31 -37 -31h-312l-200 -1147h309q31 0 27 -30l-17 -82q-4 -31 -35 -31h-772q-30 0 -24 31zM694 1536l117 170q16 18 39 18h125q20 0 4 -16l-174 -176
q-20 -16 -43 -16h-60q-22 0 -8 20z" />
    <glyph glyph-name="Icircumflex" unicode="&#xce;" 
d="M74 31l14 82q4 31 37 30h309l203 1147h-311q-31 0 -25 31l14 82q6 31 37 31h770q31 0 27 -31l-14 -82q-6 -31 -37 -31h-312l-200 -1147h309q31 0 27 -30l-17 -82q-4 -31 -35 -31h-772q-30 0 -24 31zM858 1696l90 -156q14 -18 -12 -18h-78q-23 0 -33 20l-51 94l-90 -94
q-16 -20 -41 -20h-74q-25 0 -6 18l146 156q16 18 41 18h73q25 0 35 -18z" />
    <glyph glyph-name="Idieresis" unicode="&#xcf;" 
d="M74 31l14 82q4 31 37 30h309l203 1147h-311q-31 0 -25 31l14 82q6 31 37 31h770q31 0 27 -31l-14 -82q-6 -31 -37 -31h-312l-200 -1147h309q31 0 27 -30l-17 -82q-4 -31 -35 -31h-772q-30 0 -24 31zM516 1579l10 53q10 49 60 49h51q49 0 43 -49l-10 -53q-6 -49 -60 -49
h-51q-49 0 -43 49zM856 1579l10 53q10 49 58 49h53q23 0 34 -13t7 -36l-8 -53q-10 -49 -60 -49h-53q-47 0 -41 49z" />
    <glyph glyph-name="Eth" unicode="&#xd0;" 
d="M565 670h-233l-90 -520h430q49 0 84 30.5t45 79.5l160 914q8 49 -16.5 79.5t-74.5 30.5h-430l-86 -491h234q31 0 24 -31l-10 -62q-4 -30 -37 -30zM47 700l12 62q4 31 35 31h111l106 610q6 31 37 31h543q121 0 180 -74t39 -193l-160 -901q-20 -119 -105 -192.5t-206 -73.5
h-543q-31 0 -26 31l112 639h-108q-31 -1 -27 30z" />
    <glyph glyph-name="Ntilde" unicode="&#xd1;" 
d="M397 1030l-176 -999q-6 -31 -37 -31h-88q-31 0 -26 31l243 1372q4 31 35 31h62q31 0 41 -27l350 -1014q10 -23 14 -84l8 2q-4 57 0 86l178 1006q4 31 35 31h90q31 0 25 -31l-242 -1372q-6 -31 -37 -31h-61q-31 0 -41 27l-350 1009q-8 20 -14 82l-9 -2q4 -55 0 -86z
M532 1552l13 60q6 35 58 56.5t95 21.5q37 0 66 -15l65 -33q14 -8 37 -8q63 0 127 41q8 4 11 4q10 0 6 -14l-11 -61q-6 -35 -57 -54.5t-94 -19.5q-37 0 -66 12l-67 35q-14 6 -37 6q-63 0 -127 -41q-4 -4 -12 -4q-7 0 -7 14z" />
    <glyph glyph-name="Ograve" unicode="&#xd2;" 
d="M416 1184l-164 -934q-8 -49 16.5 -79t73.5 -30h334q49 0 85 30t44 79l164 934q8 49 -16.5 78.5t-73.5 29.5h-334q-49 0 -85 -29.5t-44 -78.5zM102 258l162 918q23 121 109 193.5t205 72.5h321q121 0 180.5 -74t38.5 -192l-162 -918q-23 -121 -108.5 -193.5t-204.5 -72.5
h-321q-119 0 -179.5 72.5t-40.5 193.5zM766 1706l57 -170q4 -20 -16 -20h-59q-25 0 -37 16l-113 176q-12 16 10 16h127q23 0 31 -18z" />
    <glyph glyph-name="Oacute" unicode="&#xd3;" 
d="M416 1184l-164 -934q-8 -49 16.5 -79t73.5 -30h334q49 0 85 30t44 79l164 934q8 49 -16.5 78.5t-73.5 29.5h-334q-49 0 -85 -29.5t-44 -78.5zM102 258l162 918q23 121 109 193.5t205 72.5h321q121 0 180.5 -74t38.5 -192l-162 -918q-23 -121 -108.5 -193.5t-204.5 -72.5
h-321q-119 0 -179.5 72.5t-40.5 193.5zM694 1536l117 170q16 18 39 18h125q20 0 4 -16l-174 -176q-20 -16 -43 -16h-60q-22 0 -8 20z" />
    <glyph glyph-name="Ocircumflex" unicode="&#xd4;" 
d="M416 1184l-164 -934q-8 -49 16.5 -79t73.5 -30h334q49 0 85 30t44 79l164 934q8 49 -16.5 78.5t-73.5 29.5h-334q-49 0 -85 -29.5t-44 -78.5zM102 258l162 918q23 121 109 193.5t205 72.5h321q121 0 180.5 -74t38.5 -192l-162 -918q-23 -121 -108.5 -193.5t-204.5 -72.5
h-321q-119 0 -179.5 72.5t-40.5 193.5zM858 1696l90 -156q14 -18 -12 -18h-78q-23 0 -33 20l-51 94l-90 -94q-16 -20 -41 -20h-74q-25 0 -6 18l146 156q16 18 41 18h73q25 0 35 -18z" />
    <glyph glyph-name="Otilde" unicode="&#xd5;" 
d="M416 1184l-164 -934q-8 -49 16.5 -79t73.5 -30h334q49 0 85 30t44 79l164 934q8 49 -16.5 78.5t-73.5 29.5h-334q-49 0 -85 -29.5t-44 -78.5zM102 258l162 918q23 121 109 193.5t205 72.5h321q121 0 180.5 -74t38.5 -192l-162 -918q-23 -121 -108.5 -193.5t-204.5 -72.5
h-321q-119 0 -179.5 72.5t-40.5 193.5zM532 1552l11 60q6 35 59 56.5t96 21.5q37 0 64 -15l67 -33q14 -8 37 -8q63 0 127 41q8 4 11 4q10 0 6 -14l-11 -61q-6 -35 -57 -54.5t-96 -19.5q-35 0 -66 12l-65 35q-14 6 -37 6q-63 0 -127 -41q-6 -4 -12 -4q-9 0 -7 14z" />
    <glyph glyph-name="Odieresis" unicode="&#xd6;" 
d="M416 1184l-164 -934q-8 -49 16.5 -79t73.5 -30h334q49 0 85 30t44 79l164 934q8 49 -16.5 78.5t-73.5 29.5h-334q-49 0 -85 -29.5t-44 -78.5zM102 258l162 918q23 121 109 193.5t205 72.5h321q121 0 180.5 -74t38.5 -192l-162 -918q-23 -121 -108.5 -193.5t-204.5 -72.5
h-321q-119 0 -179.5 72.5t-40.5 193.5zM856 1579l10 53q10 49 58 49h53q23 0 34 -13t7 -36l-8 -53q-10 -49 -60 -49h-53q-47 0 -41 49zM516 1579l10 53q10 49 60 49h51q49 0 43 -49l-10 -53q-6 -49 -60 -49h-51q-49 0 -43 49z" />
    <glyph glyph-name="multiply" unicode="&#xd7;" 
d="M377 1020l207 -207l207 207q10 10 22 10q10 0 21 -10l53 -53q23 -20 0 -43l-207 -207l207 -207q23 -23 0 -43l-53 -51q-8 -10 -21 -10q-14 0 -22 10l-207 205l-207 -207q-10 -10 -21 -11q-12 0 -22 11l-53 53q-20 20 0 43l206 207l-206 207q-25 20 0 43l53 53
q10 10 20 10q13 0 23 -10z" />
    <glyph glyph-name="Oslash" unicode="&#xd8;" 
d="M297 150l547 1142h-299q-49 0 -85 -29.5t-44 -78.5l-164 -934q-12 -73 45 -100zM924 1284l-545 -1143h299q47 0 83 30t44 79l164 934q16 73 -45 100zM1026 1495l-33 -68q74 -27 108 -93t17 -158l-162 -918q-23 -121 -108.5 -193.5t-204.5 -72.5h-321h-15l-39 -80
q-10 -16 -22 -16l-2 2h-4l-37 12q-20 6 -10 29l34 67q-74 27 -106.5 92.5t-18.5 159.5l162 918q23 121 109 193.5t205 72.5h321h16l39 78q6 16 23 16q4 0 6 -2l37 -10q16 -6 6 -29z" />
    <glyph glyph-name="Ugrave" unicode="&#xd9;" 
d="M1044 1434h89q31 0 26 -31l-203 -1145q-23 -121 -108.5 -193.5t-204.5 -72.5h-321q-119 0 -179.5 72.5t-40.5 193.5l203 1145q6 31 37 31h88q31 0 25 -31l-203 -1153q-8 -49 16.5 -79t73.5 -30h334q49 0 85 30t44 79l203 1153q5 31 36 31zM766 1706l57 -170
q4 -20 -16 -20h-59q-25 0 -37 16l-113 176q-12 16 10 16h127q23 0 31 -18z" />
    <glyph glyph-name="Uacute" unicode="&#xda;" 
d="M1044 1434h89q31 0 26 -31l-203 -1145q-23 -121 -108.5 -193.5t-204.5 -72.5h-321q-119 0 -179.5 72.5t-40.5 193.5l203 1145q6 31 37 31h88q31 0 25 -31l-203 -1153q-8 -49 16.5 -79t73.5 -30h334q49 0 85 30t44 79l203 1153q5 31 36 31zM694 1536l117 170q16 18 39 18
h125q20 0 4 -16l-174 -176q-20 -16 -43 -16h-60q-22 0 -8 20z" />
    <glyph glyph-name="Ucircumflex" unicode="&#xdb;" 
d="M1044 1434h89q31 0 26 -31l-203 -1145q-23 -121 -108.5 -193.5t-204.5 -72.5h-321q-119 0 -179.5 72.5t-40.5 193.5l203 1145q6 31 37 31h88q31 0 25 -31l-203 -1153q-8 -49 16.5 -79t73.5 -30h334q49 0 85 30t44 79l203 1153q5 31 36 31zM858 1696l90 -156
q14 -18 -12 -18h-78q-23 0 -33 20l-51 94l-90 -94q-16 -20 -41 -20h-74q-25 0 -6 18l146 156q16 18 41 18h73q25 0 35 -18z" />
    <glyph glyph-name="Udieresis" unicode="&#xdc;" 
d="M1044 1434h89q31 0 26 -31l-203 -1145q-23 -121 -108.5 -193.5t-204.5 -72.5h-321q-119 0 -179.5 72.5t-40.5 193.5l203 1145q6 31 37 31h88q31 0 25 -31l-203 -1153q-8 -49 16.5 -79t73.5 -30h334q49 0 85 30t44 79l203 1153q5 31 36 31zM856 1579l10 53q10 49 58 49h53
q23 0 34 -13t7 -36l-8 -53q-10 -49 -60 -49h-53q-47 0 -41 49zM516 1579l10 53q10 49 60 49h51q49 0 43 -49l-10 -53q-6 -49 -60 -49h-51q-49 0 -43 49z" />
    <glyph glyph-name="Yacute" unicode="&#xdd;" 
d="M1200 1405l-541 -838l-94 -536q-6 -31 -37 -31h-88q-31 0 -24 31l94 536l-246 838q-6 29 23 29h100q33 0 39 -29l180 -612q8 -31 0 -84h6q14 61 31 86l395 610q16 29 47 29h103q28 0 12 -29zM696 1536l117 170q12 18 37 18h127q20 0 4 -16l-176 -176q-16 -16 -43 -16h-57
q-23 0 -9 20z" />
    <glyph glyph-name="Thorn" unicode="&#xde;" 
d="M823 1016h-430l-100 -570h430q49 0 85 30t44 79l61 350q8 49 -16.5 80t-73.5 31zM690 297h-424l-47 -266q-4 -31 -35 -31h-88q-31 0 -26 31l241 1372q6 31 37 31h88q31 0 27 -31l-43 -238h424q121 0 180 -73.5t39 -192.5l-59 -336q-23 -121 -109 -193.5t-205 -72.5z" />
    <glyph glyph-name="germandbls" unicode="&#xdf;" 
d="M565 1440h314q111 0 167 -65.5t35 -172.5l-28 -164q-25 -137 -135 -202q123 -57 94 -222l-66 -374q-18 -109 -97 -174.5t-190 -65.5h-200q-31 0 -25 31l12 75q6 31 37 31h193q109 0 129 119l67 379q10 57 -12 90t-76 33h-184q-31 0 -27 30l15 76q4 31 37 31h143
q55 0 91 34t46 89l31 172q20 115 -88 115h-307q-47 0 -80 -29t-41 -74l-207 -1171q-4 -31 -35 -31h-82q-31 0 -26 31l204 1163q20 111 100 178.5t191 67.5z" />
    <glyph glyph-name="agrave" unicode="&#xe0;" 
d="M805 248l110 631q-215 129 -362 129q-76 0 -129 -42t-66 -108l-104 -592q-10 -66 27.5 -106.5t113.5 -40.5q146 0 410 129zM874 0h-81q-31 0 -27 31l12 65q-246 -113 -420 -112q-133 0 -201.5 75.5t-45.5 202.5l106 600q20 127 116.5 204t231.5 77q172 0 377 -113l12 66
q4 31 35 30h82q31 0 27 -30l-189 -1065q-4 -31 -35 -31zM696 1399l58 -170q6 -20 -15 -21h-59q-25 0 -37 17l-113 176q-12 16 11 16h125q24 0 30 -18z" />
    <glyph glyph-name="aacute" unicode="&#xe1;" 
d="M805 248l110 631q-215 129 -362 129q-76 0 -129 -42t-66 -108l-104 -592q-10 -66 27.5 -106.5t113.5 -40.5q146 0 410 129zM874 0h-81q-31 0 -27 31l12 65q-246 -113 -420 -112q-133 0 -201.5 75.5t-45.5 202.5l106 600q20 127 116.5 204t231.5 77q172 0 377 -113l12 66
q4 31 35 30h82q31 0 27 -30l-189 -1065q-4 -31 -35 -31zM653 1229l117 170q12 18 39 18h125q20 0 4 -16l-174 -176q-20 -16 -43 -17h-59q-23 1 -9 21z" />
    <glyph glyph-name="acircumflex" unicode="&#xe2;" 
d="M805 248l110 631q-215 129 -362 129q-76 0 -129 -42t-66 -108l-104 -592q-10 -66 27.5 -106.5t113.5 -40.5q146 0 410 129zM874 0h-81q-31 0 -27 31l12 65q-246 -113 -420 -112q-133 0 -201.5 75.5t-45.5 202.5l106 600q20 127 116.5 204t231.5 77q172 0 377 -113l12 66
q4 31 35 30h82q31 0 27 -30l-189 -1065q-4 -31 -35 -31zM805 1389l90 -156q10 -18 -12 -19h-80q-23 0 -33 21l-51 94l-88 -94q-20 -20 -43 -21h-74q-25 0 -6 19l145 156q14 18 41 18h76q23 0 35 -18z" />
    <glyph glyph-name="atilde" unicode="&#xe3;" 
d="M805 248l110 631q-215 129 -362 129q-76 0 -129 -42t-66 -108l-104 -592q-10 -66 27.5 -106.5t113.5 -40.5q146 0 410 129zM874 0h-81q-31 0 -27 31l12 65q-246 -113 -420 -112q-133 0 -201.5 75.5t-45.5 202.5l106 600q20 127 116.5 204t231.5 77q172 0 377 -113l12 66
q4 31 35 30h82q31 0 27 -30l-189 -1065q-4 -31 -35 -31zM477 1245l12 60q6 35 58.5 56t95.5 21q37 0 66 -14l65 -33q14 -8 37 -8q63 0 127 41q8 4 10 4q10 0 6 -14l-10 -62q-6 -35 -57 -54t-94 -19q-37 0 -66 12l-68 35q-16 6 -36 6q-63 0 -127 -41q-4 -4 -13 -4q-6 0 -6 14
z" />
    <glyph glyph-name="adieresis" unicode="&#xe4;" 
d="M805 248l110 631q-215 129 -362 129q-76 0 -129 -42t-66 -108l-104 -592q-10 -66 27.5 -106.5t113.5 -40.5q146 0 410 129zM874 0h-81q-31 0 -27 31l12 65q-246 -113 -420 -112q-133 0 -201.5 75.5t-45.5 202.5l106 600q20 127 116.5 204t231.5 77q172 0 377 -113l12 66
q4 31 35 30h82q31 0 27 -30l-189 -1065q-4 -31 -35 -31zM463 1272l8 53q10 49 59 49h54q23 0 34 -13t7 -36l-9 -53q-10 -49 -59 -49h-53q-51 0 -41 49zM803 1272l8 53q10 49 59 49h54q47 0 41 -49l-11 -53q-10 -49 -57 -49h-53q-51 0 -41 49z" />
    <glyph glyph-name="aring" unicode="&#xe5;" 
d="M805 248l110 631q-215 129 -362 129q-76 0 -129 -42t-66 -108l-104 -592q-10 -66 27.5 -106.5t113.5 -40.5q146 0 410 129zM653 1315q-4 -29 12.5 -48.5t43 -19.5t50 19.5t27.5 48.5q4 27 -12 46t-42.5 19t-50.5 -19t-28 -46zM874 0h-81q-31 0 -27 31l12 65
q-246 -113 -420 -112q-133 0 -201.5 75.5t-45.5 202.5l106 600q20 127 116.5 204t231.5 77q172 0 377 -113l12 66q4 31 35 30h82q31 0 27 -30l-189 -1065q-4 -31 -35 -31zM577.5 1314.5q10.5 59.5 59.5 101.5t108.5 42t94 -42t24.5 -101.5t-60 -101.5t-109.5 -42t-93.5 42
t-23.5 101.5z" />
    <glyph glyph-name="ae" unicode="&#xe6;" 
d="M457 238l49 286q-102 31 -178 31q-55 0 -98.5 -34t-53.5 -89l-35 -207q-8 -51 19.5 -78.5t70.5 -27.5q93 0 226 119zM942 999h-106q-45 0 -78 -27.5t-41 -74.5l-47 -262h309l47 262q8 47 -15.5 74.5t-68.5 27.5zM1069 498h-424l-47 -267q-8 -47 15.5 -75.5t68.5 -28.5
h106q45 0 78 27.5t41 74.5l13 68q6 31 36 31h82q31 0 25 -31l-10 -59q-20 -111 -99.5 -178.5t-189.5 -67.5h-105q-150 0 -192 110q-168 -119 -289 -118q-94 0 -147.5 67.5t-32.5 175.5l35 203q20 113 101 180.5t196 67.5q92 0 200 -25l41 236q0 6 4 18q0 92 -92 92h-86
q-53 0 -88 -32.5t-45 -89.5l-6 -41q-6 -31 -37 -31h-82q-31 0 -24 31l8 53q20 111 99 178.5t190 67.5h98q111 0 164 -64q76 63 186 64h105q111 0 167 -67t35 -177l-63 -363q-4 -30 -35 -30z" />
    <glyph glyph-name="ccedilla" unicode="&#xe7;" 
d="M575 -156l-6 -45q-8 -41 -37.5 -66.5t-70.5 -25.5h-123q-25 0 -21 25l5 26q6 25 28 25h103q31 0 36 31l3 16q6 31 -25 31h-51q-45 0 -29 43l31 88h-111q-111 0 -166 67.5t-35 178.5l115 651q18 111 98 178.5t191 67.5h348q111 0 166 -68t37 -178l-17 -86q-4 -31 -34 -31
h-82q-31 0 -27 31l17 94q8 45 -14.5 73.5t-69.5 28.5h-349q-45 0 -77.5 -27.5t-42.5 -74.5l-117 -668q-8 -47 15.5 -74.5t68.5 -27.5h348q47 0 80 28.5t41 73.5l16 95q6 31 37 30h82q31 0 25 -30l-15 -86q-20 -111 -100 -178.5t-191 -67.5h-147l-21 -55h13q41 0 62 -26
t13 -67z" />
    <glyph glyph-name="egrave" unicode="&#xe8;" 
d="M834 999h-349q-45 0 -77.5 -27.5t-40.5 -74.5l-48 -262h553l48 262q8 45 -15.5 73.5t-70.5 28.5zM961 498h-666l-47 -267q-8 -47 16.5 -75.5t69.5 -28.5h348q45 0 78 27.5t41 74.5l12 68q6 31 37 31h82q31 0 24 -31l-10 -59q-20 -111 -99 -178.5t-190 -67.5h-348
q-111 0 -167 67.5t-36 178.5l115 651q20 111 99 178.5t190 67.5h348q111 0 167 -67t36 -177l-64 -363q-5 -30 -36 -30zM709 1399l55 -170q6 -20 -14 -21h-60q-25 0 -37 17l-112 176q-12 16 10 16h127q23 0 31 -18z" />
    <glyph glyph-name="eacute" unicode="&#xe9;" 
d="M834 999h-349q-45 0 -77.5 -27.5t-40.5 -74.5l-48 -262h553l48 262q8 45 -15.5 73.5t-70.5 28.5zM961 498h-666l-47 -267q-8 -47 16.5 -75.5t69.5 -28.5h348q45 0 78 27.5t41 74.5l12 68q6 31 37 31h82q31 0 24 -31l-10 -59q-20 -111 -99 -178.5t-190 -67.5h-348
q-111 0 -167 67.5t-36 178.5l115 651q20 111 99 178.5t190 67.5h348q111 0 167 -67t36 -177l-64 -363q-5 -30 -36 -30zM631 1229l117 170q12 18 38 18h125q20 0 4 -16l-174 -176q-20 -16 -45 -17h-57q-22 1 -8 21z" />
    <glyph glyph-name="ecircumflex" unicode="&#xea;" 
d="M834 999h-349q-45 0 -77.5 -27.5t-40.5 -74.5l-48 -262h553l48 262q8 45 -15.5 73.5t-70.5 28.5zM961 498h-666l-47 -267q-8 -47 16.5 -75.5t69.5 -28.5h348q45 0 78 27.5t41 74.5l12 68q6 31 37 31h82q31 0 24 -31l-10 -59q-20 -111 -99 -178.5t-190 -67.5h-348
q-111 0 -167 67.5t-36 178.5l115 651q20 111 99 178.5t190 67.5h348q111 0 167 -67t36 -177l-64 -363q-5 -30 -36 -30zM801 1389l90 -156q10 -18 -12 -19h-78q-23 0 -33 21l-53 94l-88 -94q-16 -20 -41 -21h-74q-25 0 -6 19l145 156q16 18 41 18h74q25 0 35 -18z" />
    <glyph glyph-name="edieresis" unicode="&#xeb;" 
d="M834 999h-349q-45 0 -77.5 -27.5t-40.5 -74.5l-48 -262h553l48 262q8 45 -15.5 73.5t-70.5 28.5zM961 498h-666l-47 -267q-8 -47 16.5 -75.5t69.5 -28.5h348q45 0 78 27.5t41 74.5l12 68q6 31 37 31h82q31 0 24 -31l-10 -59q-20 -111 -99 -178.5t-190 -67.5h-348
q-111 0 -167 67.5t-36 178.5l115 651q20 111 99 178.5t190 67.5h348q111 0 167 -67t36 -177l-64 -363q-5 -30 -36 -30zM459 1272l10 53q10 49 59 49h52q49 0 43 -49l-11 -53q-6 -49 -59 -49h-51q-49 0 -43 49zM799 1272l10 53q10 49 57 49h54q23 0 34 -13t7 -36l-9 -53
q-10 -49 -59 -49h-53q-47 0 -41 49z" />
    <glyph glyph-name="igrave" unicode="&#xec;" 
d="M276 1028l13 68q4 31 35 30h430q31 0 26 -30l-170 -967h318q31 0 24 -31l-12 -67q-4 -31 -35 -31h-778q-31 0 -27 31l13 67q6 31 37 31h317l151 868h-317q-31 0 -25 31zM672 1399l55 -170q6 -20 -14 -21h-60q-25 0 -37 17l-112 176q-12 16 10 16h127q23 0 31 -18z" />
    <glyph glyph-name="iacute" unicode="&#xed;" 
d="M276 1028l13 68q4 31 35 30h430q31 0 26 -30l-170 -967h318q31 0 24 -31l-12 -67q-4 -31 -35 -31h-778q-31 0 -27 31l13 67q6 31 37 31h317l151 868h-317q-31 0 -25 31zM594 1229l117 170q12 18 39 18h124q20 0 5 -16l-174 -176q-20 -16 -46 -17h-57q-22 1 -8 21z" />
    <glyph glyph-name="icircumflex" unicode="&#xee;" 
d="M276 1028l13 68q4 31 35 30h430q31 0 26 -30l-170 -967h318q31 0 24 -31l-12 -67q-4 -31 -35 -31h-778q-31 0 -27 31l13 67q6 31 37 31h317l151 868h-317q-31 0 -25 31zM764 1389l90 -156q10 -18 -12 -19h-78q-23 0 -33 21l-53 94l-88 -94q-16 -20 -41 -21h-74
q-25 0 -6 19l145 156q16 18 41 18h74q25 0 35 -18z" />
    <glyph glyph-name="idieresis" unicode="&#xef;" 
d="M276 1028l13 68q4 31 35 30h430q31 0 26 -30l-170 -967h318q31 0 24 -31l-12 -67q-4 -31 -35 -31h-778q-31 0 -27 31l13 67q6 31 37 31h317l151 868h-317q-31 0 -25 31zM422 1272l10 53q10 49 60 49h51q49 0 43 -49l-11 -53q-6 -49 -59 -49h-51q-49 0 -43 49zM762 1272
l10 53q10 49 57 49h54q23 0 34 -13t7 -36l-9 -53q-10 -49 -59 -49h-53q-47 0 -41 49z" />
    <glyph glyph-name="eth" unicode="&#xf0;" 
d="M805 250l113 635q-250 109 -390 108q-66 0 -112.5 -41t-59.5 -108l-104 -600q-20 -117 88 -117h334q111 0 131 123zM623 1235l34 59l-165 27q-29 4 -39.5 13t-6.5 24l11 63q8 27 43 27q12 0 18 -2l209 -29l47 86q8 20 41 21l43 -17q25 -10 14 -37l-38 -67
q166 -25 226 -100.5t38 -204.5l-152 -860q-20 -111 -99 -178.5t-190 -67.5h-348q-111 0 -167 63.5t-38 169.5l109 619q23 129 111 207.5t208 78.5q168 0 410 -98l14 80q25 135 -137 160l-53 6l-43 -80q-14 -23 -33 -22q-2 0 -5 1t-5 1l-43 18q-28 6 -14 39z" />
    <glyph glyph-name="ntilde" unicode="&#xf1;" 
d="M293 1126h82q31 0 26 -30l-12 -66q246 113 416 113q135 0 203.5 -79t46.5 -210l-146 -825q-4 -29 -35 -29h-81q-31 0 -27 29l145 827q12 68 -26.5 110t-116.5 42q-141 0 -406 -129l-149 -848q-4 -31 -35 -31h-82q-31 0 -26 31l188 1065q4 30 35 30zM485 1245l11 60
q6 35 59 56t96 21q37 0 64 -14l67 -33q14 -8 37 -8q59 0 127 41q8 4 10 4q10 0 7 -14l-11 -62q-6 -35 -57 -54t-96 -19q-35 0 -66 12l-65 35q-16 6 -37 6q-63 0 -127 -41q-6 -4 -12 -4q-9 0 -7 14z" />
    <glyph glyph-name="ograve" unicode="&#xf2;" 
d="M367 897l-119 -668q-8 -45 15.5 -73.5t70.5 -28.5h348q45 0 78 27.5t41 74.5l119 668q8 45 -15.5 73.5t-70.5 28.5h-349q-45 0 -77.5 -27.5t-40.5 -74.5zM106 238l115 651q20 111 99 178.5t190 67.5h348q111 0 167 -68t36 -178l-115 -651q-20 -111 -99 -178.5t-190 -67.5
h-348q-111 0 -167 67.5t-36 178.5zM711 1399l57 -170q6 -20 -14 -21h-60q-25 0 -37 17l-112 176q-12 16 10 16h125q25 0 31 -18z" />
    <glyph glyph-name="oacute" unicode="&#xf3;" 
d="M367 897l-119 -668q-8 -45 15.5 -73.5t70.5 -28.5h348q45 0 78 27.5t41 74.5l119 668q8 45 -15.5 73.5t-70.5 28.5h-349q-45 0 -77.5 -27.5t-40.5 -74.5zM106 238l115 651q20 111 99 178.5t190 67.5h348q111 0 167 -68t36 -178l-115 -651q-20 -111 -99 -178.5t-190 -67.5
h-348q-111 0 -167 67.5t-36 178.5zM633 1229l119 170q12 18 36 18h127q23 0 3 -16l-175 -176q-16 -16 -43 -17h-59q-18 1 -8 21z" />
    <glyph glyph-name="ocircumflex" unicode="&#xf4;" 
d="M367 897l-119 -668q-8 -45 15.5 -73.5t70.5 -28.5h348q45 0 78 27.5t41 74.5l119 668q8 45 -15.5 73.5t-70.5 28.5h-349q-45 0 -77.5 -27.5t-40.5 -74.5zM106 238l115 651q20 111 99 178.5t190 67.5h348q111 0 167 -68t36 -178l-115 -651q-20 -111 -99 -178.5t-190 -67.5
h-348q-111 0 -167 67.5t-36 178.5zM805 1389l90 -156q10 -18 -12 -19h-78q-25 0 -35 21l-51 94l-88 -94q-16 -20 -41 -21h-76q-25 0 -6 19l145 156q14 18 43 18h74q25 0 35 -18z" />
    <glyph glyph-name="otilde" unicode="&#xf5;" 
d="M367 897l-119 -668q-8 -45 15.5 -73.5t70.5 -28.5h348q45 0 78 27.5t41 74.5l119 668q8 45 -15.5 73.5t-70.5 28.5h-349q-45 0 -77.5 -27.5t-40.5 -74.5zM106 238l115 651q20 111 99 178.5t190 67.5h348q111 0 167 -68t36 -178l-115 -651q-20 -111 -99 -178.5t-190 -67.5
h-348q-111 0 -167 67.5t-36 178.5zM479 1245l10 60q6 35 58.5 56t95.5 21q39 0 66 -14l65 -33q14 -8 37 -8q63 0 127 41q8 4 12 4q6 0 6 -14l-10 -62q-6 -35 -58 -54t-95 -19q-37 0 -66 12l-68 35q-12 6 -34 6q-61 0 -129 -41q-4 -4 -11 -4q-8 0 -6 14z" />
    <glyph glyph-name="odieresis" unicode="&#xf6;" 
d="M367 897l-119 -668q-8 -45 15.5 -73.5t70.5 -28.5h348q45 0 78 27.5t41 74.5l119 668q8 45 -15.5 73.5t-70.5 28.5h-349q-45 0 -77.5 -27.5t-40.5 -74.5zM106 238l115 651q20 111 99 178.5t190 67.5h348q111 0 167 -68t36 -178l-115 -651q-20 -111 -99 -178.5t-190 -67.5
h-348q-111 0 -167 67.5t-36 178.5zM803 1272l10 53q6 49 57 49h54q47 0 41 -49l-11 -53q-6 -49 -57 -49h-53q-51 0 -41 49zM463 1272l10 53q6 49 59 49h52q23 0 34 -13t7 -36l-9 -53q-10 -49 -59 -49h-53q-51 0 -41 49z" />
    <glyph glyph-name="divide" unicode="&#xf7;" 
d="M262 686v76q0 31 31 31h581q31 0 31 -31v-76q0 -31 -31 -31h-581q-31 0 -31 31zM494 995v99q0 47 47 47h92q47 0 47 -47v-99q0 -47 -47 -47h-92q-47 0 -47 47zM492 354v99q0 45 45 45h92q47 0 47 -45v-99q0 -47 -47 -47h-92q-45 0 -45 47z" />
    <glyph glyph-name="oslash" unicode="&#xf8;" 
d="M324 129l446 870h-285q-45 0 -77.5 -28.5t-40.5 -73.5l-119 -668q-8 -43 13.5 -69.5t62.5 -30.5zM844 997l-447 -870h285q45 0 78 27.5t41 74.5l119 668q8 43 -13.5 69.5t-62.5 30.5zM223 -66l31 62q-84 16 -124 80.5t-24 161.5l115 651q20 111 99 178.5t190 67.5h330
l41 79q8 14 20 15q4 0 6 -2l29 -8q14 -6 8 -27l-33 -62q86 -16 126 -80.5t24 -160.5l-115 -651q-20 -111 -99 -178.5t-190 -67.5h-329l-41 -80q-10 -14 -21 -14q-6 0 -8 2l-27 8q-18 6 -8 26z" />
    <glyph glyph-name="ugrave" unicode="&#xf9;" 
d="M874 0h-81q-31 0 -27 31l12 65q-246 -113 -413 -112q-137 0 -206 78.5t-46 209.5l145 826q4 29 35 28h82q31 0 26 -28l-145 -828q-12 -68 27 -109.5t116 -41.5q141 0 406 129l149 848q4 31 35 30h82q31 0 27 -30l-189 -1065q-4 -31 -35 -31zM711 1399l57 -170
q6 -20 -14 -21h-60q-25 0 -37 17l-112 176q-12 16 10 16h125q25 0 31 -18z" />
    <glyph glyph-name="uacute" unicode="&#xfa;" 
d="M874 0h-81q-31 0 -27 31l12 65q-246 -113 -413 -112q-137 0 -206 78.5t-46 209.5l145 826q4 29 35 28h82q31 0 26 -28l-145 -828q-12 -68 27 -109.5t116 -41.5q141 0 406 129l149 848q4 31 35 30h82q31 0 27 -30l-189 -1065q-4 -31 -35 -31zM633 1229l119 170
q12 18 36 18h127q23 0 3 -16l-175 -176q-16 -16 -43 -17h-59q-18 1 -8 21z" />
    <glyph glyph-name="ucircumflex" unicode="&#xfb;" 
d="M874 0h-81q-31 0 -27 31l12 65q-246 -113 -413 -112q-137 0 -206 78.5t-46 209.5l145 826q4 29 35 28h82q31 0 26 -28l-145 -828q-12 -68 27 -109.5t116 -41.5q141 0 406 129l149 848q4 31 35 30h82q31 0 27 -30l-189 -1065q-4 -31 -35 -31zM805 1389l90 -156
q10 -18 -12 -19h-78q-25 0 -35 21l-51 94l-88 -94q-16 -20 -41 -21h-76q-25 0 -6 19l145 156q14 18 43 18h74q25 0 35 -18z" />
    <glyph glyph-name="udieresis" unicode="&#xfc;" 
d="M874 0h-81q-31 0 -27 31l12 65q-246 -113 -413 -112q-137 0 -206 78.5t-46 209.5l145 826q4 29 35 28h82q31 0 26 -28l-145 -828q-12 -68 27 -109.5t116 -41.5q141 0 406 129l149 848q4 31 35 30h82q31 0 27 -30l-189 -1065q-4 -31 -35 -31zM463 1272l10 53q6 49 59 49
h52q23 0 34 -13t7 -36l-9 -53q-10 -49 -59 -49h-53q-51 0 -41 49zM803 1272l10 53q6 49 57 49h54q47 0 41 -49l-11 -53q-6 -49 -57 -49h-53q-51 0 -41 49z" />
    <glyph glyph-name="yacute" unicode="&#xfd;" 
d="M401 1096l-145 -826q-12 -68 25.5 -109.5t113.5 -41.5q145 0 410 129l149 848q4 31 35 30h82q31 0 27 -30l-199 -1123q-27 -152 -173 -224.5t-353 -72.5q-82 0 -240 23q-72 12 -67 43l14 76q4 23 33 22q2 0 10 -1t12 -1q123 -25 250 -24q141 0 248.5 41t124.5 133l20 108
q-246 -113 -413 -112q-137 0 -206 78.5t-46 209.5l145 824q4 31 35 30h82q30 1 26 -30zM645 1229l148 170q14 18 41 18h124q23 0 3 -16l-205 -176q-23 -16 -47 -17h-60q-20 1 -4 21z" />
    <glyph glyph-name="thorn" unicode="&#xfe;" 
d="M362 879l-110 -631q215 -129 362 -129q76 0 129.5 41t65.5 106l106 598q10 66 -28.5 105t-114.5 39q-146 0 -410 -129zM123 -307h-82q-31 0 -25 31l295 1679q6 31 37 31h82q31 0 25 -31l-66 -373q246 113 420 113q133 0 201.5 -76t46.5 -201l-107 -604
q-20 -125 -116.5 -201.5t-229.5 -76.5q-174 0 -379 112l-65 -372q-6 -31 -37 -31z" />
    <glyph glyph-name="ydieresis" unicode="&#xff;" 
d="M401 1096l-145 -826q-12 -68 25.5 -109.5t113.5 -41.5q145 0 410 129l149 848q4 31 35 30h82q31 0 27 -30l-199 -1123q-27 -152 -173 -224.5t-353 -72.5q-82 0 -240 23q-72 12 -67 43l14 76q4 23 33 22q2 0 10 -1t12 -1q123 -25 250 -24q141 0 248.5 41t124.5 133l20 108
q-246 -113 -413 -112q-137 0 -206 78.5t-46 209.5l145 824q4 31 35 30h82q30 1 26 -30zM444 1272l11 53q6 49 59 49h51q49 0 43 -49l-10 -53q-10 -49 -59 -49h-52q-49 0 -43 49zM784 1272l11 53q6 49 57 49h53q47 0 41 -49l-10 -53q-6 -49 -57 -49h-54q-47 0 -41 49z" />
    <glyph glyph-name="Amacron" unicode="&#x100;" 
d="M344 412h426l-84 665q-4 37 8 86h-8q-16 -68 -24 -86zM788 262h-516l-110 -233q-14 -29 -45 -29h-92q-33 0 -19 29l656 1376q14 29 45 29h61q31 0 35 -29l170 -1376q4 -29 -27 -29h-94q-29 0 -33 29zM582 1577l10 55q4 23 29 23h313q23 0 18 -23l-10 -55q-4 -25 -27 -25
h-313q-24 0 -20 25z" />
    <glyph glyph-name="amacron" unicode="&#x101;" 
d="M805 248l110 631q-215 129 -362 129q-76 0 -129 -42t-66 -108l-104 -592q-10 -66 27.5 -106.5t113.5 -40.5q146 0 410 129zM874 0h-81q-31 0 -27 31l12 65q-246 -113 -420 -112q-133 0 -201.5 75.5t-45.5 202.5l106 600q20 127 116.5 204t231.5 77q172 0 377 -113l12 66
q4 31 35 30h82q31 0 27 -30l-189 -1065q-4 -31 -35 -31zM526 1270l11 55q4 23 28 23h314q25 0 18 -23l-8 -55q-6 -25 -29 -25h-313q-25 0 -21 25z" />
    <glyph glyph-name="Abreve" unicode="&#x102;" 
d="M344 412h426l-84 665q-4 37 8 86h-8q-16 -68 -24 -86zM788 262h-516l-110 -233q-14 -29 -45 -29h-92q-33 0 -19 29l656 1376q14 29 45 29h61q31 0 35 -29l170 -1376q4 -29 -27 -29h-94q-29 0 -33 29zM963 1679l-5 -20q-14 -66 -62 -104.5t-112 -38.5h-67
q-66 0 -99.5 38.5t-23.5 104.5l4 20q4 23 27 23h47q23 0 22 -23l-2 -30q-4 -41 37 -41h78q39 0 49 41l10 30q6 23 33 23h45q25 0 19 -23z" />
    <glyph glyph-name="abreve" unicode="&#x103;" 
d="M805 248l110 631q-215 129 -362 129q-76 0 -129 -42t-66 -108l-104 -592q-10 -66 27.5 -106.5t113.5 -40.5q146 0 410 129zM874 0h-81q-31 0 -27 31l12 65q-246 -113 -420 -112q-133 0 -201.5 75.5t-45.5 202.5l106 600q20 127 116.5 204t231.5 77q172 0 377 -113l12 66
q4 31 35 30h82q31 0 27 -30l-189 -1065q-4 -31 -35 -31zM909 1372l-4 -20q-14 -66 -62 -105t-112 -39h-67q-66 0 -99 39t-24 105l2 20q4 23 26 23h47q23 0 23 -23v-31q-6 -41 35 -41h78q41 0 51 41l10 31q6 23 31 23h47q22 0 18 -23z" />
    <glyph glyph-name="Aogonek" unicode="&#x104;" 
d="M344 412h426l-84 665q-2 31 6 86h-6q-8 -53 -24 -86zM856 0h-6q-27 0 -31 27l-28 235h-519l-110 -233q-14 -29 -45 -29h-92q-33 0 -19 29l656 1376q14 29 45 29h61q31 0 35 -29l170 -1378q4 -27 -23 -27h-8q-72 -80 -92 -143q-10 -35 20 -35h82q25 0 21 -23l-6 -35
q-4 -25 -29 -24h-109q-39 0 -58 24.5t-13 63.5q14 92 98 172z" />
    <glyph glyph-name="aogonek" unicode="&#x105;" 
d="M805 248l110 631q-215 129 -362 129q-76 0 -129 -42t-66 -108l-104 -592q-10 -66 27.5 -106.5t113.5 -40.5q146 0 410 129zM788 0q-29 0 -22 27l12 69q-254 -113 -420 -112q-133 0 -201.5 75.5t-45.5 202.5l106 600q20 127 116.5 204t231.5 77q172 0 377 -113l12 66
q6 31 35 30h82q33 0 27 -30l-189 -1069q-6 -27 -32 -27h-3q-72 -80 -94 -143q-10 -35 21 -35h84q25 0 18 -23l-4 -35q-6 -25 -29 -24h-110q-39 0 -58.5 24.5t-13.5 63.5q18 92 100 172z" />
    <glyph glyph-name="Cacute" unicode="&#x106;" 
d="M860 424h88q31 0 25 -31l-23 -135q-23 -121 -108.5 -193.5t-204.5 -72.5h-307q-121 0 -180.5 73.5t-38.5 192.5l161 918q23 121 109 193.5t205 72.5h307q121 0 180.5 -74t38.5 -192l-25 -136q-4 -31 -36 -30h-88q-31 0 -25 30l25 144q8 49 -16.5 78.5t-74.5 29.5h-321
q-49 0 -84 -29.5t-43 -78.5l-166 -934q-8 -49 16.5 -79t73.5 -30h322q49 0 85 30t44 79l24 143q6 31 37 31zM698 1536l117 170q16 18 39 18h125q20 0 4 -16l-174 -176q-20 -16 -43 -16h-59q-23 0 -9 20z" />
    <glyph glyph-name="cacute" unicode="&#x107;" 
d="M332 127h348q47 0 80 28.5t41 73.5l16 95q6 31 37 30h82q31 0 25 -30l-15 -86q-20 -111 -100 -178.5t-191 -67.5h-348q-111 0 -166 67.5t-35 178.5l115 651q18 111 98 178.5t191 67.5h348q111 0 166 -68t37 -178l-17 -86q-4 -31 -34 -31h-82q-31 0 -27 31l17 94
q8 45 -14.5 73.5t-69.5 28.5h-349q-45 0 -77.5 -27.5t-42.5 -74.5l-117 -668q-8 -47 15.5 -74.5t68.5 -27.5zM645 1229l119 170q12 18 37 18h127q23 0 2 -16l-174 -176q-16 -16 -43 -17h-60q-18 1 -8 21z" />
    <glyph glyph-name="Ccircumflex" unicode="&#x108;" 
d="M860 424h88q31 0 25 -31l-23 -135q-23 -121 -108.5 -193.5t-204.5 -72.5h-307q-121 0 -180.5 73.5t-38.5 192.5l161 918q23 121 109 193.5t205 72.5h307q121 0 180.5 -74t38.5 -192l-25 -136q-4 -31 -36 -30h-88q-31 0 -25 30l25 144q8 49 -16.5 78.5t-74.5 29.5h-321
q-49 0 -84 -29.5t-43 -78.5l-166 -934q-8 -49 16.5 -79t73.5 -30h322q49 0 85 30t44 79l24 143q6 31 37 31zM862 1696l90 -156q14 -18 -12 -18h-78q-23 0 -33 20l-51 94l-90 -94q-16 -20 -41 -20h-74q-25 0 -6 18l146 156q16 18 41 18h73q25 0 35 -18z" />
    <glyph glyph-name="ccircumflex" unicode="&#x109;" 
d="M332 127h348q47 0 80 28.5t41 73.5l16 95q6 31 37 30h82q31 0 25 -30l-15 -86q-20 -111 -100 -178.5t-191 -67.5h-348q-111 0 -166 67.5t-35 178.5l115 651q18 111 98 178.5t191 67.5h348q111 0 166 -68t37 -178l-17 -86q-4 -31 -34 -31h-82q-31 0 -27 31l17 94
q8 45 -14.5 73.5t-69.5 28.5h-349q-45 0 -77.5 -27.5t-42.5 -74.5l-117 -668q-8 -47 15.5 -74.5t68.5 -27.5zM817 1389l90 -156q10 -18 -12 -19h-78q-25 0 -35 21l-51 94l-88 -94q-16 -20 -41 -21h-76q-25 0 -6 19l146 156q14 18 43 18h73q25 0 35 -18z" />
    <glyph glyph-name="Cdotaccent" unicode="&#x10a;" 
d="M860 424h88q31 0 25 -31l-23 -135q-23 -121 -108.5 -193.5t-204.5 -72.5h-307q-121 0 -180.5 73.5t-38.5 192.5l161 918q23 121 109 193.5t205 72.5h307q121 0 180.5 -74t38.5 -192l-25 -136q-4 -31 -36 -30h-88q-31 0 -25 30l25 144q8 49 -16.5 78.5t-74.5 29.5h-321
q-49 0 -84 -29.5t-43 -78.5l-166 -934q-8 -49 16.5 -79t73.5 -30h322q49 0 85 30t44 79l24 143q6 31 37 31zM680 1579l12 68q10 49 58 49h73q23 0 34 -13.5t7 -35.5l-12 -68q-6 -49 -57 -49h-74q-47 0 -41 49z" />
    <glyph glyph-name="cdotaccent" unicode="&#x10b;" 
d="M332 127h348q47 0 80 28.5t41 73.5l16 95q6 31 37 30h82q31 0 25 -30l-15 -86q-20 -111 -100 -178.5t-191 -67.5h-348q-111 0 -166 67.5t-35 178.5l115 651q18 111 98 178.5t191 67.5h348q111 0 166 -68t37 -178l-17 -86q-4 -31 -34 -31h-82q-31 0 -27 31l17 94
q8 45 -14.5 73.5t-69.5 28.5h-349q-45 0 -77.5 -27.5t-42.5 -74.5l-117 -668q-8 -47 15.5 -74.5t68.5 -27.5zM635 1272l12 67q6 49 58 50h73q47 0 41 -50l-12 -67q-10 -49 -57 -49h-74q-51 0 -41 49z" />
    <glyph glyph-name="Ccaron" unicode="&#x10c;" 
d="M860 424h88q31 0 25 -31l-23 -135q-23 -121 -108.5 -193.5t-204.5 -72.5h-307q-121 0 -180.5 73.5t-38.5 192.5l161 918q23 121 109 193.5t205 72.5h307q121 0 180.5 -74t38.5 -192l-25 -136q-4 -31 -36 -30h-88q-31 0 -25 30l25 144q8 49 -16.5 78.5t-74.5 29.5h-321
q-49 0 -84 -29.5t-43 -78.5l-166 -934q-8 -49 16.5 -79t73.5 -30h322q49 0 85 30t44 79l24 143q6 31 37 31zM981 1696l-145 -154q-16 -20 -41 -20h-76q-20 0 -35 20l-90 154q-8 18 12 18h76q20 0 35 -18l53 -97l86 97q18 18 41 18h78q20 0 6 -18z" />
    <glyph glyph-name="ccaron" unicode="&#x10d;" 
d="M332 127h348q47 0 80 28.5t41 73.5l16 95q6 31 37 30h82q31 0 25 -30l-15 -86q-20 -111 -100 -178.5t-191 -67.5h-348q-111 0 -166 67.5t-35 178.5l115 651q18 111 98 178.5t191 67.5h348q111 0 166 -68t37 -178l-17 -86q-4 -31 -34 -31h-82q-31 0 -27 31l17 94
q8 45 -14.5 73.5t-69.5 28.5h-349q-45 0 -77.5 -27.5t-42.5 -74.5l-117 -668q-8 -47 15.5 -74.5t68.5 -27.5zM934 1389l-143 -154q-16 -20 -43 -21h-74q-25 0 -35 21l-90 154q-8 18 12 18h74q25 0 35 -18l55 -97l84 97q18 18 41 18h80q20 0 4 -18z" />
    <glyph glyph-name="Dcaron" unicode="&#x10e;" 
d="M440 1284l-198 -1134h430q49 0 84 30.5t45 79.5l160 914q8 49 -16.5 79.5t-74.5 30.5h-430zM70 31l241 1372q6 31 37 31h543q121 0 180 -74t39 -193l-160 -901q-20 -119 -105 -192.5t-206 -73.5h-543q-30 0 -26 31zM936 1696l-145 -154q-16 -20 -41 -20h-76q-20 0 -35 20
l-90 154q-8 18 12 18h76q20 0 35 -18l53 -97l86 97q18 18 41 18h78q20 0 6 -18z" />
    <glyph glyph-name="dcaron" unicode="&#x10f;" 
d="M709 244l112 639q-186 125 -295 125q-63 0 -109 -41t-57 -107l-104 -592q-12 -68 19.5 -108.5t95.5 -40.5q109 0 338 125zM948 1434h82q31 0 27 -31l-244 -1372q-4 -31 -35 -31h-82q-31 0 -26 31l12 63q-221 -111 -363 -110q-115 0 -172 77.5t-36 202.5l106 600
q20 125 105.5 202t201.5 77q137 0 324 -111l65 371q4 31 35 31zM1122 1217l58 186q10 33 43 33h59q33 0 18 -33l-81 -186q-10 -25 -37 -25h-41q-29 0 -19 25z" />
    <glyph glyph-name="Dcroat" unicode="&#x110;" 
d="M565 670h-233l-90 -520h430q49 0 84 30.5t45 79.5l160 914q8 49 -16.5 79.5t-74.5 30.5h-430l-86 -491h234q31 0 24 -31l-10 -62q-4 -30 -37 -30zM47 700l12 62q4 31 35 31h111l106 610q6 31 37 31h543q121 0 180 -74t39 -193l-160 -901q-20 -119 -105 -192.5t-206 -73.5
h-543q-31 0 -26 31l112 639h-108q-31 -1 -27 30z" />
    <glyph glyph-name="dcroat" unicode="&#x111;" 
d="M805 248l110 631q-215 129 -362 129q-76 0 -129 -41t-64 -107l-104 -592q-12 -68 27 -108.5t114 -40.5q144 0 408 129zM651 1237l11 61q6 25 28 25h303l15 80q6 31 36 31h82q31 0 25 -31l-14 -80h112q25 0 21 -25l-10 -61q-4 -23 -29 -23h-113l-209 -1183q-4 -31 -35 -31
h-81q-31 0 -27 31l12 65q-246 -113 -420 -112q-133 0 -201.5 76.5t-45.5 203.5l106 600q20 125 116.5 202t229.5 77q174 0 379 -113l33 184h-303q-25 0 -21 23z" />
    <glyph glyph-name="Emacron" unicode="&#x112;" 
d="M70 31l241 1372q6 31 37 31h778q31 0 25 -31l-14 -88q-6 -31 -37 -31h-660l-96 -549h481q31 0 27 -30l-16 -89q-6 -31 -37 -30h-482l-75 -436h657q31 0 27 -31l-17 -88q-4 -31 -35 -31h-778q-30 0 -26 31zM571 1577l11 55q4 23 28 23h314q23 0 18 -23l-10 -55
q-4 -25 -27 -25h-313q-25 0 -21 25z" />
    <glyph glyph-name="emacron" unicode="&#x113;" 
d="M834 999h-349q-45 0 -77.5 -27.5t-40.5 -74.5l-48 -262h553l48 262q8 45 -15.5 73.5t-70.5 28.5zM961 498h-666l-47 -267q-8 -47 16.5 -75.5t69.5 -28.5h348q45 0 78 27.5t41 74.5l12 68q6 31 37 31h82q31 0 24 -31l-10 -59q-20 -111 -99 -178.5t-190 -67.5h-348
q-111 0 -167 67.5t-36 178.5l115 651q20 111 99 178.5t190 67.5h348q111 0 167 -67t36 -177l-64 -363q-5 -30 -36 -30zM524 1270l11 55q4 23 26 23h313q25 0 21 -23l-10 -55q-4 -25 -27 -25h-313q-25 0 -21 25z" />
    <glyph glyph-name="Ebreve" unicode="&#x114;" 
d="M70 31l241 1372q6 31 37 31h778q31 0 25 -31l-14 -88q-6 -31 -37 -31h-660l-96 -549h481q31 0 27 -30l-16 -89q-6 -31 -37 -30h-482l-75 -436h657q31 0 27 -31l-17 -88q-4 -31 -35 -31h-778q-30 0 -26 31zM952 1679l-4 -20q-14 -66 -61 -104.5t-113 -38.5h-67
q-63 0 -98.5 38.5t-24.5 104.5l4 20q4 23 26 23h48q23 0 22 -23l-2 -30q-4 -41 37 -41h78q39 0 49 41l10 30q6 23 33 23h45q24 0 18 -23z" />
    <glyph glyph-name="ebreve" unicode="&#x115;" 
d="M834 999h-349q-45 0 -77.5 -27.5t-40.5 -74.5l-48 -262h553l48 262q8 45 -15.5 73.5t-70.5 28.5zM961 498h-666l-47 -267q-8 -47 16.5 -75.5t69.5 -28.5h348q45 0 78 27.5t41 74.5l12 68q6 31 37 31h82q31 0 24 -31l-10 -59q-20 -111 -99 -178.5t-190 -67.5h-348
q-111 0 -167 67.5t-36 178.5l115 651q20 111 99 178.5t190 67.5h348q111 0 167 -67t36 -177l-64 -363q-5 -30 -36 -30zM905 1372l-4 -20q-14 -66 -62 -105t-112 -39h-68q-66 0 -98.5 39t-23.5 105l4 20q0 23 26 23h45q25 0 25 -23l-2 -31q-4 -41 37 -41h78q39 0 49 41l10 31
q6 23 31 23h47q24 0 18 -23z" />
    <glyph glyph-name="Edotaccent" unicode="&#x116;" 
d="M70 31l241 1372q6 31 37 31h778q31 0 25 -31l-14 -88q-6 -31 -37 -31h-660l-96 -549h481q31 0 27 -30l-16 -89q-6 -31 -37 -30h-482l-75 -436h657q31 0 27 -31l-17 -88q-4 -31 -35 -31h-778q-30 0 -26 31zM666 1579l12 68q10 49 57 49h74q23 0 34 -13.5t7 -35.5l-12 -68
q-6 -49 -58 -49h-73q-47 0 -41 49z" />
    <glyph glyph-name="edotaccent" unicode="&#x117;" 
d="M834 999h-349q-45 0 -77.5 -27.5t-40.5 -74.5l-48 -262h553l48 262q8 45 -15.5 73.5t-70.5 28.5zM961 498h-666l-47 -267q-8 -47 16.5 -75.5t69.5 -28.5h348q45 0 78 27.5t41 74.5l12 68q6 31 37 31h82q31 0 24 -31l-10 -59q-20 -111 -99 -178.5t-190 -67.5h-348
q-111 0 -167 67.5t-36 178.5l115 651q20 111 99 178.5t190 67.5h348q111 0 167 -67t36 -177l-64 -363q-5 -30 -36 -30zM618 1272l13 67q10 49 57 50h74q23 0 34 -13.5t7 -36.5l-12 -67q-6 -49 -58 -49h-74q-47 0 -41 49z" />
    <glyph glyph-name="Eogonek" unicode="&#x118;" 
d="M752 0h-656q-31 0 -26 31l241 1372q6 31 37 31h778q31 0 25 -31l-14 -88q-6 -31 -37 -31h-660l-96 -549h481q31 0 27 -30l-16 -89q-6 -31 -37 -30h-482l-75 -436h657q31 0 27 -31l-17 -88q-4 -31 -35 -31h-36q-72 -80 -93 -141q-10 -35 21 -35h84q25 0 18 -25l-6 -32
q-4 -25 -26 -25h-111q-39 0 -58.5 23.5t-13.5 62.5q19 96 99 172z" />
    <glyph glyph-name="eogonek" unicode="&#x119;" 
d="M834 999h-349q-45 0 -77.5 -27.5t-40.5 -74.5l-48 -262h553l48 262q8 45 -15.5 73.5t-70.5 28.5zM592 -8h-283q-111 0 -167 67.5t-36 178.5l115 651q20 111 99 178.5t190 67.5h348q111 0 167 -67t36 -177l-64 -363q-6 -31 -36 -30h-666l-47 -267q-8 -47 16.5 -75.5
t69.5 -28.5h348q45 0 78 27.5t41 74.5l12 68q6 31 37 31h82q31 0 24 -31l-10 -59q-18 -104 -91 -171t-175 -75q-63 -70 -84 -133q-10 -35 20 -35h82q25 0 21 -25l-6 -32q-4 -25 -29 -25h-109q-39 0 -58 23.5t-13 62.5q14 84 88 164z" />
    <glyph glyph-name="Ecaron" unicode="&#x11a;" 
d="M70 31l241 1372q6 31 37 31h778q31 0 25 -31l-14 -88q-6 -31 -37 -31h-660l-96 -549h481q31 0 27 -30l-16 -89q-6 -31 -37 -30h-482l-75 -436h657q31 0 27 -31l-17 -88q-4 -31 -35 -31h-778q-30 0 -26 31zM967 1696l-146 -154q-16 -20 -41 -20h-75q-20 0 -35 20l-90 154
q-10 18 12 18h76q20 0 34 -18l54 -97l86 97q18 18 41 18h78q22 0 6 -18z" />
    <glyph glyph-name="ecaron" unicode="&#x11b;" 
d="M834 999h-349q-45 0 -77.5 -27.5t-40.5 -74.5l-48 -262h553l48 262q8 45 -15.5 73.5t-70.5 28.5zM961 498h-666l-47 -267q-8 -47 16.5 -75.5t69.5 -28.5h348q45 0 78 27.5t41 74.5l12 68q6 31 37 31h82q31 0 24 -31l-10 -59q-20 -111 -99 -178.5t-190 -67.5h-348
q-111 0 -167 67.5t-36 178.5l115 651q20 111 99 178.5t190 67.5h348q111 0 167 -67t36 -177l-64 -363q-5 -30 -36 -30zM920 1389l-146 -154q-16 -20 -41 -21h-76q-20 0 -34 21l-91 154q-8 18 13 18h76q23 0 32 -18l56 -97l86 97q18 18 41 18h77q21 0 7 -18z" />
    <glyph glyph-name="Gcircumflex" unicode="&#x11c;" 
d="M584 623l16 90q4 31 35 30h369q31 0 26 -30l-80 -455q-23 -121 -108.5 -193.5t-204.5 -72.5h-307q-121 0 -180.5 73.5t-38.5 192.5l161 918q23 121 109 193.5t205 72.5h307q121 0 180.5 -74t38.5 -192l-25 -136q-4 -31 -36 -30h-88q-31 0 -25 30l25 144q8 49 -16.5 78.5
t-74.5 29.5h-321q-49 0 -84 -29.5t-43 -78.5l-166 -934q-8 -49 16.5 -79t73.5 -30h322q49 0 85 30t44 79l59 342h-248q-30 0 -26 31zM879 1763l90 -153q10 -18 -13 -19h-79q-23 0 -33 19l-51 96l-88 -96q-23 -18 -43 -19h-74q-23 0 -6 19l145 153q16 20 41 21h76
q21 -1 35 -21z" />
    <glyph glyph-name="gcircumflex" unicode="&#x11d;" 
d="M805 248l110 631q-215 129 -362 129q-76 0 -129 -42t-66 -110l-102 -586q-12 -68 25.5 -109.5t113.5 -41.5q146 0 410 129zM942 1030l12 66q4 31 35 30h82q31 0 27 -30l-199 -1123q-27 -152 -173 -224.5t-353 -72.5q-82 0 -240 23q-72 12 -67 43l14 76q4 23 33 22
q2 0 10 -1t12 -1q123 -25 250 -24q141 0 248.5 41t124.5 133l20 108q-246 -113 -413 -112q-137 0 -206 78.5t-46 209.5l102 582q23 131 120 210t234 79q168 0 373 -113zM821 1389l90 -156q10 -18 -12 -19h-78q-25 0 -35 21l-51 94l-88 -94q-16 -20 -41 -21h-76q-25 0 -6 19
l146 156q14 18 43 18h73q25 0 35 -18z" />
    <glyph glyph-name="Gbreve" unicode="&#x11e;" 
d="M584 623l16 90q4 31 35 30h369q31 0 26 -30l-80 -455q-23 -121 -108.5 -193.5t-204.5 -72.5h-307q-121 0 -180.5 73.5t-38.5 192.5l161 918q23 121 109 193.5t205 72.5h307q121 0 180.5 -74t38.5 -192l-25 -136q-4 -31 -36 -30h-88q-31 0 -25 30l25 144q8 49 -16.5 78.5
t-74.5 29.5h-321q-49 0 -84 -29.5t-43 -78.5l-166 -934q-8 -49 16.5 -79t73.5 -30h322q49 0 85 30t44 79l59 342h-248q-30 0 -26 31zM983 1747l-4 -21q-14 -63 -62.5 -103t-111.5 -40h-68q-66 0 -98.5 40t-24.5 103l2 21q4 25 27 25h47q23 0 23 -25l-2 -31q-4 -39 37 -39h77
q41 0 52 39l8 31q10 25 33 25h45q24 0 20 -25z" />
    <glyph glyph-name="gbreve" unicode="&#x11f;" 
d="M805 248l110 631q-215 129 -362 129q-76 0 -129 -42t-66 -110l-102 -586q-12 -68 25.5 -109.5t113.5 -41.5q146 0 410 129zM942 1030l12 66q4 31 35 30h82q31 0 27 -30l-199 -1123q-27 -152 -173 -224.5t-353 -72.5q-82 0 -240 23q-72 12 -67 43l14 76q4 23 33 22
q2 0 10 -1t12 -1q123 -25 250 -24q141 0 248.5 41t124.5 133l20 108q-246 -113 -413 -112q-137 0 -206 78.5t-46 209.5l102 582q23 131 120 210t234 79q168 0 373 -113zM926 1372l-4 -20q-14 -66 -62.5 -105t-111.5 -39h-68q-66 0 -99.5 39t-23.5 105l2 20q4 23 27 23h47
q27 0 22 -23v-31q-4 -41 35 -41h80q39 0 49 41l10 31q6 23 31 23h47q23 0 19 -23z" />
    <glyph glyph-name="Gdotaccent" unicode="&#x120;" 
d="M584 623l16 90q4 31 35 30h369q31 0 26 -30l-80 -455q-23 -121 -108.5 -193.5t-204.5 -72.5h-307q-121 0 -180.5 73.5t-38.5 192.5l161 918q23 121 109 193.5t205 72.5h307q121 0 180.5 -74t38.5 -192l-25 -136q-4 -31 -36 -30h-88q-31 0 -25 30l25 144q8 49 -16.5 78.5
t-74.5 29.5h-321q-49 0 -84 -29.5t-43 -78.5l-166 -934q-8 -49 16.5 -79t73.5 -30h322q49 0 85 30t44 79l59 342h-248q-30 0 -26 31zM696 1647l11 67q10 49 59 49h74q23 0 33 -14t6 -35l-11 -67q-10 -49 -59 -50h-74q-23 0 -33 15t-6 35z" />
    <glyph glyph-name="gdotaccent" unicode="&#x121;" 
d="M805 248l110 631q-215 129 -362 129q-76 0 -129 -42t-66 -110l-102 -586q-12 -68 25.5 -109.5t113.5 -41.5q146 0 410 129zM942 1030l12 66q4 31 35 30h82q31 0 27 -30l-199 -1123q-27 -152 -173 -224.5t-353 -72.5q-82 0 -240 23q-72 12 -67 43l14 76q4 23 33 22
q2 0 10 -1t12 -1q123 -25 250 -24q141 0 248.5 41t124.5 133l20 108q-246 -113 -413 -112q-137 0 -206 78.5t-46 209.5l102 582q23 131 120 210t234 79q168 0 373 -113zM639 1272l12 67q6 49 58 50h73q47 0 41 -50l-12 -67q-10 -49 -57 -49h-74q-51 0 -41 49z" />
    <glyph glyph-name="uni0122" unicode="&#x122;" 
d="M584 623l16 90q4 31 35 30h369q31 0 26 -30l-80 -455q-23 -121 -108.5 -193.5t-204.5 -72.5h-307q-121 0 -180.5 73.5t-38.5 192.5l161 918q23 121 109 193.5t205 72.5h307q121 0 180.5 -74t38.5 -192l-25 -136q-4 -31 -36 -30h-88q-31 0 -25 30l25 144q8 49 -16.5 78.5
t-74.5 29.5h-321q-49 0 -84 -29.5t-43 -78.5l-166 -934q-8 -49 16.5 -79t73.5 -30h322q49 0 85 30t44 79l59 342h-248q-30 0 -26 31zM360 -289l58 187q10 33 43 32h59q33 0 19 -32l-82 -187q-10 -25 -37 -24h-41q-25 -1 -19 24z" />
    <glyph glyph-name="uni0123" unicode="&#x123;" 
d="M805 248l110 631q-215 129 -362 129q-76 0 -129 -42t-66 -110l-102 -586q-12 -68 25.5 -109.5t113.5 -41.5q146 0 410 129zM942 1030l12 66q4 31 35 30h82q31 0 27 -30l-199 -1123q-27 -152 -173 -224.5t-353 -72.5q-82 0 -240 23q-72 12 -67 43l14 76q4 23 33 22
q2 0 10 -1t12 -1q123 -25 250 -24q141 0 248.5 41t124.5 133l20 108q-246 -113 -413 -112q-137 0 -206 78.5t-46 209.5l102 582q23 131 120 210t234 79q168 0 373 -113zM825 1434l-57 -187q-10 -33 -43 -33h-59q-16 0 -21.5 9.5t2.5 23.5l82 187q10 25 35 24h43q24 1 18 -24
z" />
    <glyph glyph-name="Hcircumflex" unicode="&#x124;" 
d="M70 31l241 1372q6 31 37 31h88q31 0 27 -31l-119 -668h541l116 668q6 31 37 31h88q31 0 25 -31l-242 -1372q-4 -31 -35 -31h-90q-31 0 -24 31l98 555h-541l-98 -555q-4 -31 -35 -31h-88q-30 0 -26 31zM858 1696l90 -156q14 -18 -12 -18h-78q-23 0 -33 20l-51 94l-90 -94
q-16 -20 -41 -20h-74q-25 0 -6 18l146 156q16 18 41 18h73q25 0 35 -18z" />
    <glyph glyph-name="hcircumflex" unicode="&#x125;" 
d="M348 1434h82q31 0 25 -31l-66 -373q246 113 416 113q135 0 203.5 -79t46.5 -210l-146 -825q-4 -29 -35 -29h-81q-31 0 -27 29l145 827q12 68 -26.5 110t-116.5 42q-141 0 -406 -129l-149 -848q-4 -31 -35 -31h-82q-31 0 -26 31l241 1372q6 31 37 31zM512 1690l90 -156
q8 -18 -14 -18h-78q-23 0 -33 20l-51 94l-90 -96q-18 -18 -41 -18h-74q-20 0 -6 18l145 156q18 18 41 18h74q23 0 37 -18z" />
    <glyph glyph-name="Hbar" unicode="&#x126;" 
d="M885 735l57 336h-539l-59 -336h541zM1038 1434h88q31 0 25 -31l-37 -209h107q31 0 24 -31l-10 -61q-6 -31 -37 -31h-104l-185 -1040q-4 -31 -35 -31h-90q-31 0 -24 31l98 555h-541l-98 -555q-4 -31 -35 -31h-88q-31 0 -26 31l184 1040h-107q-31 0 -24 31l10 61
q6 31 37 31h104l37 209q6 31 37 31h88q31 0 27 -31l-37 -209h539l36 209q6 31 37 31z" />
    <glyph glyph-name="hbar" unicode="&#x127;" 
d="M145 1237l13 61q4 25 26 25h113l14 80q6 31 37 31h82q31 0 25 -31l-15 -80h305q25 0 19 -25l-10 -61q-4 -23 -29 -23h-303l-33 -184q246 113 416 113q135 0 203.5 -79t46.5 -210l-146 -825q-4 -29 -35 -29h-81q-31 0 -27 29l145 827q12 68 -26.5 110t-116.5 42
q-141 0 -406 -129l-149 -848q-4 -31 -35 -31h-82q-31 0 -26 31l209 1183h-113q-25 0 -21 23z" />
    <glyph glyph-name="Itilde" unicode="&#x128;" 
d="M74 31l14 82q4 31 37 30h309l203 1147h-311q-31 0 -25 31l14 82q6 31 37 31h770q31 0 27 -31l-14 -82q-6 -31 -37 -31h-312l-200 -1147h309q31 0 27 -30l-17 -82q-4 -31 -35 -31h-772q-30 0 -24 31zM532 1552l11 60q6 35 59 56.5t96 21.5q37 0 64 -15l67 -33q14 -8 37 -8
q63 0 127 41q8 4 11 4q10 0 6 -14l-11 -61q-6 -35 -57 -54.5t-96 -19.5q-35 0 -66 12l-65 35q-14 6 -37 6q-63 0 -127 -41q-6 -4 -12 -4q-9 0 -7 14z" />
    <glyph glyph-name="itilde" unicode="&#x129;" 
d="M276 1028l13 68q4 31 35 30h430q31 0 26 -30l-170 -967h318q31 0 24 -31l-12 -67q-4 -31 -35 -31h-778q-31 0 -27 31l13 67q6 31 37 31h317l151 868h-317q-31 0 -25 31zM438 1245l11 60q6 35 59 56t96 21q37 0 64 -14l67 -33q14 -8 37 -8q59 0 127 41q8 4 10 4
q10 0 6 -14l-10 -62q-6 -35 -57 -54t-96 -19q-35 0 -66 12l-65 35q-14 6 -37 6q-63 0 -127 -41q-6 -4 -13 -4q-8 0 -6 14z" />
    <glyph glyph-name="Imacron" unicode="&#x12a;" 
d="M74 31l14 82q4 31 37 30h309l203 1147h-311q-31 0 -25 31l14 82q6 31 37 31h770q31 0 27 -31l-14 -82q-6 -31 -37 -31h-312l-200 -1147h309q31 0 27 -30l-17 -82q-4 -31 -35 -31h-772q-30 0 -24 31zM582 1577l10 55q4 23 29 23h313q23 0 18 -23l-10 -55q-4 -25 -27 -25
h-313q-24 0 -20 25z" />
    <glyph glyph-name="imacron" unicode="&#x12b;" 
d="M276 1028l13 68q4 31 35 30h430q31 0 26 -30l-170 -967h318q31 0 24 -31l-12 -67q-4 -31 -35 -31h-778q-31 0 -27 31l13 67q6 31 37 31h317l151 868h-317q-31 0 -25 31zM487 1270l11 55q4 23 26 23h314q25 0 20 -23l-10 -55q-4 -25 -27 -25h-313q-25 0 -21 25z" />
    <glyph glyph-name="Ibreve" unicode="&#x12c;" 
d="M74 31l14 82q4 31 37 30h309l203 1147h-311q-31 0 -25 31l14 82q6 31 37 31h770q31 0 27 -31l-14 -82q-6 -31 -37 -31h-312l-200 -1147h309q31 0 27 -30l-17 -82q-4 -31 -35 -31h-772q-30 0 -24 31zM963 1679l-5 -20q-14 -66 -62 -104.5t-112 -38.5h-67q-66 0 -99.5 38.5
t-23.5 104.5l4 20q4 23 27 23h47q23 0 22 -23l-2 -30q-4 -41 37 -41h78q39 0 49 41l10 30q6 23 33 23h45q25 0 19 -23z" />
    <glyph glyph-name="ibreve" unicode="&#x12d;" 
d="M276 1028l13 68q4 31 35 30h430q31 0 26 -30l-170 -967h318q31 0 24 -31l-12 -67q-4 -31 -35 -31h-778q-31 0 -27 31l13 67q6 31 37 31h317l151 868h-317q-31 0 -25 31zM868 1372l-4 -20q-14 -66 -62 -105t-112 -39h-67q-66 0 -100 39t-23 105l4 20q0 23 26 23h45
q25 0 25 -23l-2 -31q-4 -41 37 -41h78q39 0 49 41l10 31q6 23 31 23h47q24 0 18 -23z" />
    <glyph glyph-name="Iogonek" unicode="&#x12e;" 
d="M467 0h-369q-31 0 -24 31l14 82q4 31 37 30h309l203 1147h-311q-31 0 -25 31l14 82q6 31 37 31h770q31 0 27 -31l-14 -82q-6 -31 -37 -31h-312l-200 -1147h309q31 0 27 -30l-17 -82q-4 -31 -35 -31h-317q-72 -80 -92 -143q-12 -35 18 -35h84q25 0 21 -23l-6 -35
q-4 -25 -29 -24h-109q-41 0 -60.5 24.5t-10.5 63.5q14 92 98 172z" />
    <glyph glyph-name="iogonek" unicode="&#x12f;" 
d="M440 0h-313q-31 0 -27 31l13 67q6 31 37 31h317l151 868h-317q-31 0 -25 31l13 68q4 31 35 30h430q31 0 26 -30l-170 -967h318q31 0 24 -31l-12 -67q-4 -31 -35 -31h-377q-72 -80 -92 -141q-10 -35 21 -35h82q25 0 20 -25l-6 -32q-4 -25 -29 -25h-108q-39 0 -58.5 23.5
t-13.5 62.5q18 94 96 172zM580 1313l22 129q10 45 55 45h136q45 0 38 -45l-22 -129q-6 -45 -55 -45h-136q-44 0 -38 45z" />
    <glyph glyph-name="Idotaccent" unicode="&#x130;" 
d="M74 31l14 82q4 31 37 30h309l203 1147h-311q-31 0 -25 31l14 82q6 31 37 31h770q31 0 27 -31l-14 -82q-6 -31 -37 -31h-312l-200 -1147h309q31 0 27 -30l-17 -82q-4 -31 -35 -31h-772q-30 0 -24 31zM676 1579l12 68q10 49 57 49h74q23 0 34 -13.5t7 -35.5l-12 -68
q-6 -49 -57 -49h-74q-47 0 -41 49z" />
    <glyph glyph-name="dotlessi" unicode="&#x131;" 
d="M276 1028l13 68q4 31 35 30h430q31 0 26 -30l-170 -967h318q31 0 24 -31l-12 -67q-4 -31 -35 -31h-778q-31 0 -27 31l13 67q6 31 37 31h317l151 868h-317q-31 0 -25 31z" />
    <glyph glyph-name="IJ" unicode="&#x132;" 
d="M811 1434h313q31 0 27 -31l-203 -1143q-23 -121 -108.5 -193.5t-204.5 -72.5h-191q-121 0 -181 73.5t-40 192.5l17 86q4 31 34 31h91q31 0 24 -31l-16 -92q-8 -49 16.5 -80t73.5 -31h205q49 0 84.5 31t44.5 80l184 1036h-195q-31 0 -26 31l14 80q8 33 37 33zM575 1401
l-139 -789q-6 -31 -37 -30h-82q-31 0 -26 30l121 678h-183q-31 0 -24 31l14 80q4 33 37 33h295q28 0 24 -33z" />
    <glyph glyph-name="ij" unicode="&#x133;" 
d="M506 -276l14 75q4 31 35 31h98q45 0 78 27.5t43 74.5l187 1065h-154q-31 0 -25 31l13 68q4 31 34 30h263q35 0 30 -30l-204 -1157q-18 -111 -98.5 -178.5t-190.5 -67.5h-97q-30 0 -26 31zM498 0h-445q-33 0 -28 31l12 67q6 31 37 31h151l154 868h-154q-31 0 -24 31l12 68
q4 31 35 30h262q35 0 31 -30l-172 -967h155q31 0 25 -31l-12 -67q-4 -31 -39 -31zM346 1313l23 129q6 47 55 47h135q45 0 39 -47l-23 -129q-10 -45 -55 -45h-135q-49 0 -39 45zM928 1313l22 129q6 47 56 47h135q45 0 39 -47l-23 -129q-10 -45 -55 -45h-135q-49 0 -39 45z
" />
    <glyph glyph-name="Jcircumflex" unicode="&#x134;" 
d="M571 1321l15 82q6 31 37 31h483q31 0 27 -31l-203 -1145q-23 -121 -109 -193.5t-205 -72.5h-290q-119 0 -179.5 72.5t-40.5 193.5l17 86q4 31 35 31h90q31 0 24 -31l-16 -94q-8 -49 16.5 -79t73.5 -30h303q49 0 85 30t44 79l185 1040h-367q-31 0 -25 31zM989 1696
l90 -156q10 -18 -12 -18h-78q-25 0 -35 20l-51 94l-88 -94q-16 -20 -41 -20h-76q-25 0 -6 18l146 156q18 18 43 18h73q25 0 35 -18z" />
    <glyph glyph-name="jcircumflex" unicode="&#x135;" 
d="M430 1126h526q31 0 25 -30l-197 -1123q-27 -152 -161 -224.5t-324 -72.5q-70 0 -227 23q-72 12 -68 43l14 76q4 23 33 22q2 0 10.5 -1t12.5 -1q123 -25 229 -24q129 0 226.5 41t113.5 133l178 1009h-413q-31 0 -25 31l12 68q4 30 35 30zM831 1389l91 -156q10 -18 -13 -19
h-78q-23 0 -32 21l-54 94l-88 -94q-16 -20 -41 -21h-73q-25 0 -6 19l145 156q14 18 41 18h74q26 0 34 -18z" />
    <glyph glyph-name="uni0136" unicode="&#x136;" 
d="M553 670h-219l-113 -639q-6 -31 -37 -31h-88q-31 0 -26 31l241 1372q6 31 37 31h88q31 0 27 -31l-105 -590h220l448 594q20 27 51 27h113q31 0 10 -27l-510 -666l301 -714q10 -27 -20 -27h-113q-31 0 -41 27zM360 -289l58 187q10 33 41 32h59q35 0 21 -32l-82 -187
q-10 -25 -37 -24h-43q-23 -1 -17 24z" />
    <glyph glyph-name="uni0137" unicode="&#x137;" 
d="M504 506h-207l-84 -475q-4 -31 -35 -31h-82q-31 0 -26 31l241 1372q6 31 37 31h82q31 0 25 -31l-133 -760h204l420 457q23 27 43 26h109q14 0 19 -8t-5 -18l-479 -525l315 -548q6 -10 -1 -18.5t-21 -8.5h-111q-20 0 -35 27zM360 -289l58 187q10 33 41 32h59q35 0 21 -32
l-82 -187q-10 -25 -37 -24h-43q-23 -1 -17 24z" />
    <glyph glyph-name="Lacute" unicode="&#x139;" 
d="M258 152h649q31 0 25 -31l-17 -90q-4 -31 -34 -31h-768q-31 0 -27 31l244 1372q4 31 35 31h90q31 0 24 -31zM387 1534l119 168q14 20 37 20h127q20 0 2 -18l-174 -174q-16 -16 -43 -17h-58q-18 1 -10 21z" />
    <glyph glyph-name="lacute" unicode="&#x13a;" 
d="M328 1335l12 68q6 31 37 31h428q31 0 26 -31l-225 -1274h318q31 0 26 -31l-12 -67q-6 -31 -37 -31h-778q-31 0 -25 31l13 67q4 31 34 31h318l207 1176h-318q-30 -1 -24 30zM578 1536l118 170q12 18 37 18h127q23 0 2 -16l-174 -176q-16 -16 -43 -16h-57q-20 0 -10 20z
" />
    <glyph glyph-name="uni013B" unicode="&#x13b;" 
d="M258 152h649q31 0 25 -31l-17 -90q-4 -31 -34 -31h-768q-31 0 -27 31l244 1372q4 31 35 31h90q31 0 24 -31zM360 -289l58 187q10 33 41 32h59q35 0 21 -32l-82 -187q-10 -25 -37 -24h-43q-23 -1 -17 24z" />
    <glyph glyph-name="uni013C" unicode="&#x13c;" 
d="M328 1335l12 68q6 31 37 31h428q31 0 26 -31l-225 -1274h318q31 0 26 -31l-12 -67q-6 -31 -37 -31h-778q-31 0 -25 31l13 67q4 31 34 31h318l207 1176h-318q-30 -1 -24 30zM360 -289l58 187q10 33 41 32h59q35 0 21 -32l-82 -187q-10 -25 -37 -24h-43q-23 -1 -17 24z" />
    <glyph glyph-name="Lcaron" unicode="&#x13d;" 
d="M258 152h649q31 0 25 -31l-17 -90q-4 -31 -34 -31h-768q-31 0 -27 31l244 1372q4 31 35 31h90q31 0 24 -31zM829 1217l58 184q10 33 43 33h59q35 0 21 -31l-82 -186q-14 -27 -37 -27h-43q-25 0 -19 27z" />
    <glyph glyph-name="lcaron" unicode="&#x13e;" 
d="M328 1335l12 68q6 31 37 31h428q31 0 26 -31l-225 -1274h318q31 0 26 -31l-12 -67q-6 -31 -37 -31h-778q-31 0 -25 31l13 67q4 31 34 31h318l207 1176h-318q-28 -1 -24 30zM1061 1217l57 184q10 33 43 33h60q35 0 20 -31l-82 -186q-12 -27 -37 -27h-43q-24 0 -18 27z" />
    <glyph glyph-name="Ldot" unicode="&#x13f;" 
d="M258 152h649q31 0 25 -31l-17 -90q-4 -31 -34 -31h-768q-31 0 -27 31l244 1372q4 31 35 31h90q31 0 24 -31zM733 641l27 152q10 47 55 47h148q47 0 36 -47l-26 -152q-6 -47 -53 -47h-148q-45 0 -39 47z" />
    <glyph glyph-name="ldot" unicode="&#x140;" 
d="M328 1335l12 68q6 31 37 31h428q31 0 26 -31l-225 -1274h318q31 0 26 -31l-12 -67q-6 -31 -37 -31h-778q-31 0 -25 31l13 67q4 31 34 31h318l207 1176h-318q-28 -1 -24 30zM1075 641l27 152q10 47 53 47h148q49 0 38 -47l-26 -152q-6 -47 -55 -47h-148q-43 0 -37 47z" />
    <glyph glyph-name="Lslash" unicode="&#x141;" 
d="M39 487l-21 56q-10 25 19 41l164 90l129 729q4 31 35 31h90q31 0 24 -31l-112 -639l184 102q12 4 16 4q14 0 23 -14l22 -55q6 -29 -20 -43l-250 -137l-84 -469h649q31 0 25 -31l-17 -90q-4 -31 -34 -31h-768q-31 0 -27 31l88 499l-94 -53q-6 -4 -19 -4q-16 0 -22 14z" />
    <glyph glyph-name="lslash" unicode="&#x142;" 
d="M356 514l-16 57q-8 25 20 39l205 101l105 594h-318q-29 0 -24 30l12 68q6 31 37 31h428q31 0 26 -31l-108 -617l139 68q6 4 17 4q16 0 22 -16l17 -58q8 -23 -23 -41l-197 -96l-92 -518h318q31 0 26 -31l-12 -67q-6 -31 -37 -31h-778q-31 0 -25 31l13 67q4 31 34 31h318
l78 442l-146 -71q-12 -4 -16 -4q-17 0 -23 18z" />
    <glyph glyph-name="Nacute" unicode="&#x143;" 
d="M397 1030l-176 -999q-6 -31 -37 -31h-88q-31 0 -26 31l243 1372q4 31 35 31h62q31 0 41 -27l350 -1014q10 -23 14 -84l8 2q-4 57 0 86l178 1006q4 31 35 31h90q31 0 25 -31l-242 -1372q-6 -31 -37 -31h-61q-31 0 -41 27l-350 1009q-8 20 -14 82l-9 -2q4 -55 0 -86z
M688 1536l117 170q14 18 39 18h125q20 0 4 -16l-174 -176q-16 -16 -43 -16h-60q-22 0 -8 20z" />
    <glyph glyph-name="nacute" unicode="&#x144;" 
d="M293 1126h82q31 0 26 -30l-12 -66q246 113 416 113q135 0 203.5 -79t46.5 -210l-146 -825q-4 -29 -35 -29h-81q-31 0 -27 29l145 827q12 68 -26.5 110t-116.5 42q-141 0 -406 -129l-149 -848q-4 -31 -35 -31h-82q-31 0 -26 31l188 1065q4 30 35 30zM641 1229l117 170
q12 18 39 18h125q20 0 4 -16l-174 -176q-20 -16 -45 -17h-58q-22 1 -8 21z" />
    <glyph glyph-name="uni0145" unicode="&#x145;" 
d="M397 1030l-176 -999q-6 -31 -37 -31h-88q-31 0 -26 31l243 1372q4 31 35 31h62q31 0 41 -27l350 -1014q10 -23 14 -84l8 2q-4 57 0 86l178 1006q4 31 35 31h90q31 0 25 -31l-242 -1372q-6 -31 -37 -31h-61q-31 0 -41 27l-350 1009q-8 20 -14 82l-9 -2q4 -55 0 -86z
M360 -289l58 187q10 33 41 32h59q35 0 21 -32l-82 -187q-10 -25 -37 -24h-43q-23 -1 -17 24z" />
    <glyph glyph-name="uni0146" unicode="&#x146;" 
d="M293 1126h82q31 0 26 -30l-12 -66q246 113 416 113q135 0 203.5 -79t46.5 -210l-146 -825q-4 -29 -35 -29h-81q-31 0 -27 29l145 827q12 68 -26.5 110t-116.5 42q-141 0 -406 -129l-149 -848q-4 -31 -35 -31h-82q-31 0 -26 31l188 1065q4 30 35 30zM360 -289l58 187
q10 33 41 32h59q35 0 21 -32l-82 -187q-10 -25 -37 -24h-43q-23 -1 -17 24z" />
    <glyph glyph-name="Ncaron" unicode="&#x147;" 
d="M397 1030l-176 -999q-6 -31 -37 -31h-88q-31 0 -26 31l243 1372q4 31 35 31h62q31 0 41 -27l350 -1014q10 -23 14 -84l8 2q-4 57 0 86l178 1006q4 31 35 31h90q31 0 25 -31l-242 -1372q-6 -31 -37 -31h-61q-31 0 -41 27l-350 1009q-8 20 -14 82l-9 -2q4 -55 0 -86z
M977 1696l-143 -154q-20 -20 -43 -20h-74q-25 0 -35 20l-90 154q-10 18 12 18h74q25 0 35 -18l55 -97l84 97q18 18 41 18h78q20 0 6 -18z" />
    <glyph glyph-name="ncaron" unicode="&#x148;" 
d="M293 1126h82q31 0 26 -30l-12 -66q246 113 416 113q135 0 203.5 -79t46.5 -210l-146 -825q-4 -29 -35 -29h-81q-31 0 -27 29l145 827q12 68 -26.5 110t-116.5 42q-141 0 -406 -129l-149 -848q-4 -31 -35 -31h-82q-31 0 -26 31l188 1065q4 30 35 30zM930 1389l-146 -154
q-16 -20 -41 -21h-75q-20 0 -35 21l-90 154q-10 18 12 18h76q23 0 33 -18l55 -97l86 97q18 18 41 18h78q22 0 6 -18z" />
    <glyph glyph-name="Eng" unicode="&#x14a;" 
d="M584 -307h-166q-31 0 -25 31l17 88q4 31 34 30h172q49 0 84 31t43 80l21 115l-344 989q-8 35 -8 86h-4q0 -49 -7 -88l-182 -1024q-4 -31 -35 -31h-88q-31 0 -26 31l241 1372q6 31 37 31h62q27 0 36 -29l359 -1018q10 -29 6 -86l6 2q0 49 6 88l178 1012q6 31 35 31h88
q33 0 27 -31l-254 -1444q-20 -119 -107 -192.5t-206 -73.5z" />
    <glyph glyph-name="eng" unicode="&#x14b;" 
d="M293 1126h82q31 0 26 -30l-12 -66q246 113 416 113q135 0 203.5 -79t46.5 -210l-162 -924q-20 -106 -99 -171.5t-190 -65.5h-182q-31 0 -25 31l13 75q6 31 36 31h183q47 0 78.5 26.5t40.5 71.5l163 928q12 68 -26.5 110t-116.5 42q-141 0 -406 -129l-149 -848
q-4 -31 -35 -31h-82q-31 0 -26 31l188 1065q4 30 35 30z" />
    <glyph glyph-name="Omacron" unicode="&#x14c;" 
d="M416 1184l-164 -934q-8 -49 16.5 -79t73.5 -30h334q49 0 85 30t44 79l164 934q8 49 -16.5 78.5t-73.5 29.5h-334q-49 0 -85 -29.5t-44 -78.5zM102 258l162 918q23 121 109 193.5t205 72.5h321q121 0 180.5 -74t38.5 -192l-162 -918q-23 -121 -108.5 -193.5t-204.5 -72.5
h-321q-119 0 -179.5 72.5t-40.5 193.5zM582 1577l10 55q4 23 29 23h313q23 0 18 -23l-10 -55q-4 -25 -27 -25h-313q-24 0 -20 25z" />
    <glyph glyph-name="omacron" unicode="&#x14d;" 
d="M367 897l-119 -668q-8 -45 15.5 -73.5t70.5 -28.5h348q45 0 78 27.5t41 74.5l119 668q8 45 -15.5 73.5t-70.5 28.5h-349q-45 0 -77.5 -27.5t-40.5 -74.5zM106 238l115 651q20 111 99 178.5t190 67.5h348q111 0 167 -68t36 -178l-115 -651q-20 -111 -99 -178.5t-190 -67.5
h-348q-111 0 -167 67.5t-36 178.5zM528 1270l9 55q6 23 28 23h314q25 0 20 -23l-10 -55q-4 -25 -29 -25h-313q-25 0 -19 25z" />
    <glyph glyph-name="Obreve" unicode="&#x14e;" 
d="M416 1184l-164 -934q-8 -49 16.5 -79t73.5 -30h334q49 0 85 30t44 79l164 934q8 49 -16.5 78.5t-73.5 29.5h-334q-49 0 -85 -29.5t-44 -78.5zM102 258l162 918q23 121 109 193.5t205 72.5h321q121 0 180.5 -74t38.5 -192l-162 -918q-23 -121 -108.5 -193.5t-204.5 -72.5
h-321q-119 0 -179.5 72.5t-40.5 193.5zM963 1679l-5 -20q-14 -66 -62 -104.5t-112 -38.5h-67q-66 0 -99.5 38.5t-23.5 104.5l4 20q4 23 27 23h47q23 0 22 -23l-2 -30q-4 -41 37 -41h78q39 0 49 41l10 30q6 23 33 23h45q25 0 19 -23z" />
    <glyph glyph-name="obreve" unicode="&#x14f;" 
d="M367 897l-119 -668q-8 -45 15.5 -73.5t70.5 -28.5h348q45 0 78 27.5t41 74.5l119 668q8 45 -15.5 73.5t-70.5 28.5h-349q-45 0 -77.5 -27.5t-40.5 -74.5zM106 238l115 651q20 111 99 178.5t190 67.5h348q111 0 167 -68t36 -178l-115 -651q-20 -111 -99 -178.5t-190 -67.5
h-348q-111 0 -167 67.5t-36 178.5zM909 1372l-4 -20q-14 -66 -62 -105t-112 -39h-67q-66 0 -99 39t-24 105l2 20q4 23 26 23h47q27 0 23 -23v-31q-4 -41 35 -41h80q39 0 49 41l10 31q6 23 31 23h47q22 0 18 -23z" />
    <glyph glyph-name="Ohungarumlaut" unicode="&#x150;" 
d="M416 1184l-164 -934q-8 -49 16.5 -79t73.5 -30h334q49 0 85 30t44 79l164 934q8 49 -16.5 78.5t-73.5 29.5h-334q-49 0 -85 -29.5t-44 -78.5zM102 258l162 918q23 121 109 193.5t205 72.5h321q121 0 180.5 -74t38.5 -192l-162 -918q-23 -121 -108.5 -193.5t-204.5 -72.5
h-321q-119 0 -179.5 72.5t-40.5 193.5zM819 1536l121 152q14 20 37 20h106q27 0 4 -18l-157 -156q-23 -18 -43 -18h-60q-22 0 -8 20zM604 1536l115 152q14 20 37 20h104q6 0 10 -2t3 -7t-7 -9l-151 -156q-23 -18 -43 -18h-60q-22 0 -8 20z" />
    <glyph glyph-name="ohungarumlaut" unicode="&#x151;" 
d="M367 897l-119 -668q-8 -45 15.5 -73.5t70.5 -28.5h348q45 0 78 27.5t41 74.5l119 668q8 45 -15.5 73.5t-70.5 28.5h-349q-45 0 -77.5 -27.5t-40.5 -74.5zM106 238l115 651q20 111 99 178.5t190 67.5h348q111 0 167 -68t36 -178l-115 -651q-20 -111 -99 -178.5t-190 -67.5
h-348q-111 0 -167 67.5t-36 178.5zM766 1229l119 151q16 20 39 21h104q25 0 6 -19l-160 -155q-18 -18 -43 -19h-57q-24 1 -8 21zM551 1229l113 151q14 20 38 21h105q25 0 6 -19l-154 -155q-18 -18 -43 -19h-57q-24 1 -8 21z" />
    <glyph glyph-name="OE" unicode="&#x152;" 
d="M338 1184l-164 -934q-8 -49 16.5 -79t73.5 -30h174q49 0 84 30t43 79l166 934q8 49 -16.5 78.5t-73.5 29.5h-174q-49 0 -85 -29.5t-44 -78.5zM805 1434h448q31 0 25 -31l-16 -88q-4 -31 -35 -31h-328l-96 -549h237q31 0 27 -30l-16 -89q-6 -31 -37 -30h-238l-78 -436h328
q31 0 25 -31l-15 -88q-6 -31 -37 -31h-446q-16 0 -25 14q-57 -23 -125 -22h-159q-121 0 -180.5 73.5t-38.5 192.5l161 918q23 121 109 193.5t205 72.5h159q66 0 117 -23q11 15 29 15z" />
    <glyph glyph-name="oe" unicode="&#x153;" 
d="M467 229l117 668q10 47 -10.5 74.5t-61.5 27.5h-123q-47 0 -80 -28.5t-41 -73.5l-118 -668q-8 -45 15 -73.5t68 -28.5h125q41 0 71 27.5t38 74.5zM934 999h-105q-37 0 -64.5 -28.5t-37.5 -73.5l-45 -262h289l47 262q8 47 -15.5 74.5t-68.5 27.5zM1059 498h-402l-47 -267
q-8 -47 10.5 -75.5t57.5 -28.5h102q47 0 80 28.5t41 73.5l12 68q4 31 35 31h82q31 0 27 -31l-10 -59q-20 -111 -100.5 -178.5t-190.5 -67.5h-117q-86 0 -133 55q-68 -55 -158 -55h-137q-111 0 -167 67.5t-36 178.5l115 651q20 111 99 178.5t190 67.5h139q88 0 137 -56
q66 55 154 56h116q111 0 167.5 -67t35.5 -177l-63 -363q-6 -30 -39 -30z" />
    <glyph glyph-name="Racute" unicode="&#x154;" 
d="M887 1284h-447l-96 -555h447q49 0 83.5 29.5t43.5 79.5l59 336q8 49 -16.5 79.5t-73.5 30.5zM799 29l-125 549h-357l-98 -547q-4 -31 -35 -31h-88q-31 0 -26 31l241 1372q6 31 37 31h559q121 0 180.5 -74t38.5 -193l-57 -323q-16 -98 -80.5 -167t-157.5 -91l123 -557
q2 -12 -5 -20.5t-21 -8.5h-94q-27 0 -35 29zM645 1536l117 170q12 18 39 18h125q20 0 4 -16l-174 -176q-20 -16 -43 -16h-60q-22 0 -8 20z" />
    <glyph glyph-name="racute" unicode="&#x155;" 
d="M797 98l-13 -67q-4 -31 -34 -31h-656q-31 0 -26 31l12 67q6 31 37 31h231l154 868h-226q-31 0 -26 31l12 68q6 31 37 30h338q31 0 25 -30l-23 -125q289 170 487 170q31 0 25 -29l-14 -96q-6 -23 -35 -23q-164 0 -490 -182l-120 -682h280q31 0 25 -31zM653 1229l117 170
q16 18 39 18h125q20 0 4 -16l-174 -176q-16 -16 -43 -17h-59q-23 1 -9 21z" />
    <glyph glyph-name="uni0156" unicode="&#x156;" 
d="M887 1284h-447l-96 -555h447q49 0 83.5 29.5t43.5 79.5l59 336q8 49 -16.5 79.5t-73.5 30.5zM799 29l-125 549h-357l-98 -547q-4 -31 -35 -31h-88q-31 0 -26 31l241 1372q6 31 37 31h559q121 0 180.5 -74t38.5 -193l-57 -323q-16 -98 -80.5 -167t-157.5 -91l123 -557
q2 -12 -5 -20.5t-21 -8.5h-94q-27 0 -35 29zM360 -289l58 187q10 33 41 32h59q35 0 21 -32l-82 -187q-10 -25 -37 -24h-43q-23 -1 -17 24z" />
    <glyph glyph-name="uni0157" unicode="&#x157;" 
d="M797 98l-13 -67q-4 -31 -34 -31h-656q-31 0 -26 31l12 67q6 31 37 31h231l154 868h-226q-31 0 -26 31l12 68q6 31 37 30h338q31 0 25 -30l-23 -125q289 170 487 170q31 0 25 -29l-14 -96q-6 -23 -35 -23q-164 0 -490 -182l-120 -682h280q31 0 25 -31zM279 -289l57 187
q10 33 41 32h59q35 0 21 -32l-82 -187q-10 -25 -37 -24h-43q-22 -1 -16 24z" />
    <glyph glyph-name="Rcaron" unicode="&#x158;" 
d="M887 1284h-447l-96 -555h447q49 0 83.5 29.5t43.5 79.5l59 336q8 49 -16.5 79.5t-73.5 30.5zM799 29l-125 549h-357l-98 -547q-4 -31 -35 -31h-88q-31 0 -26 31l241 1372q6 31 37 31h559q121 0 180.5 -74t38.5 -193l-57 -323q-16 -98 -80.5 -167t-157.5 -91l123 -557
q2 -12 -5 -20.5t-21 -8.5h-94q-27 0 -35 29zM928 1696l-146 -154q-16 -20 -41 -20h-75q-25 0 -35 20l-90 154q-8 18 12 18h76q23 0 33 -18l55 -97l86 97q18 18 41 18h78q20 0 6 -18z" />
    <glyph glyph-name="rcaron" unicode="&#x159;" 
d="M797 98l-13 -67q-4 -31 -34 -31h-656q-31 0 -26 31l12 67q6 31 37 31h231l154 868h-226q-31 0 -26 31l12 68q6 31 37 30h338q31 0 25 -30l-23 -125q289 170 487 170q31 0 25 -29l-14 -96q-6 -23 -35 -23q-164 0 -490 -182l-120 -682h280q31 0 25 -31zM942 1389l-145 -154
q-16 -20 -41 -21h-74q-25 0 -35 21l-92 154q-10 18 14 18h74q25 0 35 -18l55 -97l84 97q18 18 41 18h78q22 0 6 -18z" />
    <glyph glyph-name="Sacute" unicode="&#x15a;" 
d="M258 1030l25 146q23 121 108.5 193.5t204.5 72.5h285q121 0 180 -74t39 -192l-25 -136q-4 -31 -35 -30h-90q-29 0 -24 30l24 144q8 49 -16.5 78.5t-73.5 29.5h-297q-49 0 -85 -29.5t-44 -78.5l-24 -140q-10 -57 34 -88l457 -340q41 -31 60.5 -83t11.5 -109l-31 -168
q-23 -121 -108.5 -193.5t-204.5 -72.5h-305q-121 0 -180.5 73.5t-39.5 192.5l25 135q4 31 35 31l90 2q31 0 25 -31l-25 -143q-8 -49 16.5 -79t73.5 -30h320q49 0 83.5 30t43.5 79l28 160q10 57 -33 90l-458 338q-93 69 -70 192zM692 1536l117 170q14 18 39 18h125
q20 0 4 -16l-174 -176q-20 -16 -43 -16h-60q-22 0 -8 20z" />
    <glyph glyph-name="sacute" unicode="&#x15b;" 
d="M965 344l-17 -94q-20 -115 -100 -186.5t-191 -71.5h-348q-111 0 -167 67.5t-36 178.5l15 86q6 31 37 30h82q31 0 24 -30l-12 -74q-20 -123 88 -123h334q109 0 133 133l12 70q4 29 -6 55.5t-33 34.5l-469 186q-55 20 -79.5 77.5t-14.5 125.5l12 74q20 113 100.5 182.5
t190.5 69.5h328q111 0 167 -68t36 -178l-15 -86q-6 -31 -37 -31h-81q-31 0 -25 31l12 74q20 123 -88 122h-313q-109 0 -133 -131l-9 -45q-4 -29 6.5 -55.5t32.5 -34.5l469 -186q55 -23 80 -79t15 -124zM633 1229l119 170q12 18 36 18h127q23 0 3 -16l-175 -176
q-16 -16 -43 -17h-59q-18 1 -8 21z" />
    <glyph glyph-name="Scircumflex" unicode="&#x15c;" 
d="M258 1030l25 146q23 121 108.5 193.5t204.5 72.5h285q121 0 180 -74t39 -192l-25 -136q-4 -31 -35 -30h-90q-29 0 -24 30l24 144q8 49 -16.5 78.5t-73.5 29.5h-297q-49 0 -85 -29.5t-44 -78.5l-24 -140q-10 -57 34 -88l457 -340q41 -31 60.5 -83t11.5 -109l-31 -168
q-23 -121 -108.5 -193.5t-204.5 -72.5h-305q-121 0 -180.5 73.5t-39.5 192.5l25 135q4 31 35 31l90 2q31 0 25 -31l-25 -143q-8 -49 16.5 -79t73.5 -30h320q49 0 83.5 30t43.5 79l28 160q10 57 -33 90l-458 338q-93 69 -70 192zM856 1696l90 -156q14 -18 -12 -18h-78
q-23 0 -33 20l-51 94l-90 -94q-16 -20 -41 -20h-74q-25 0 -6 18l146 156q14 18 41 18h73q27 0 35 -18z" />
    <glyph glyph-name="scircumflex" unicode="&#x15d;" 
d="M965 344l-17 -94q-20 -115 -100 -186.5t-191 -71.5h-348q-111 0 -167 67.5t-36 178.5l15 86q6 31 37 30h82q31 0 24 -30l-12 -74q-20 -123 88 -123h334q109 0 133 133l12 70q4 29 -6 55.5t-33 34.5l-469 186q-55 20 -79.5 77.5t-14.5 125.5l12 74q20 113 100.5 182.5
t190.5 69.5h328q111 0 167 -68t36 -178l-15 -86q-6 -31 -37 -31h-81q-31 0 -25 31l12 74q20 123 -88 122h-313q-109 0 -133 -131l-9 -45q-4 -29 6.5 -55.5t32.5 -34.5l469 -186q55 -23 80 -79t15 -124zM805 1389l90 -156q10 -18 -12 -19h-78q-25 0 -35 21l-51 94l-88 -94
q-16 -20 -41 -21h-76q-25 0 -6 19l145 156q14 18 43 18h74q25 0 35 -18z" />
    <glyph glyph-name="Scedilla" unicode="&#x15e;" 
d="M575 -156l-6 -45q-8 -41 -37.5 -66.5t-70.5 -25.5h-123q-25 0 -21 25l5 26q6 25 28 25h103q31 0 36 31l3 16q6 31 -25 31h-51q-45 0 -29 43l31 86h-94q-121 0 -180.5 73.5t-39.5 192.5l25 135q4 31 35 31l90 2q31 0 25 -31l-25 -143q-8 -49 16.5 -79t73.5 -30h320
q49 0 83.5 30t43.5 79l28 160q10 57 -33 90l-458 338q-92 70 -70 192l25 146q23 121 108.5 193.5t204.5 72.5h285q121 0 180 -74t39 -192l-25 -136q-4 -31 -35 -30h-90q-29 0 -24 30l24 144q8 49 -16.5 78.5t-73.5 29.5h-297q-49 0 -85 -29.5t-44 -78.5l-24 -140
q-10 -57 34 -88l457 -340q41 -31 60.5 -83t11.5 -109l-31 -168q-23 -121 -108.5 -193.5t-204.5 -72.5h-121l-21 -53h13q41 0 62 -26t13 -67z" />
    <glyph glyph-name="scedilla" unicode="&#x15f;" 
d="M575 -156l-6 -45q-8 -41 -37.5 -66.5t-70.5 -25.5h-123q-25 0 -21 25l5 26q6 25 28 25h103q31 0 36 31l3 16q6 31 -25 31h-51q-45 0 -29 43l31 88h-109q-111 0 -167 67.5t-36 178.5l15 86q6 31 37 30h82q31 0 24 -30l-12 -74q-20 -123 88 -123h334q109 0 133 133l12 70
q4 29 -6 55.5t-33 34.5l-469 186q-55 20 -79.5 77.5t-14.5 125.5l12 74q20 113 100.5 182.5t190.5 69.5h328q111 0 167 -68t36 -178l-15 -86q-6 -31 -37 -31h-81q-31 0 -25 31l12 74q20 123 -88 122h-313q-109 0 -133 -131l-9 -45q-4 -29 6.5 -55.5t32.5 -34.5l469 -186
q55 -23 80 -79t15 -124l-17 -94q-20 -115 -100 -186.5t-191 -71.5h-149l-21 -55h13q41 0 62 -26t13 -67z" />
    <glyph glyph-name="Scaron" unicode="&#x160;" 
d="M258 1030l25 146q23 121 108.5 193.5t204.5 72.5h285q121 0 180 -74t39 -192l-25 -136q-4 -31 -35 -30h-90q-29 0 -24 30l24 144q8 49 -16.5 78.5t-73.5 29.5h-297q-49 0 -85 -29.5t-44 -78.5l-24 -140q-10 -57 34 -88l457 -340q41 -31 60.5 -83t11.5 -109l-31 -168
q-23 -121 -108.5 -193.5t-204.5 -72.5h-305q-121 0 -180.5 73.5t-39.5 192.5l25 135q4 31 35 31l90 2q31 0 25 -31l-25 -143q-8 -49 16.5 -79t73.5 -30h320q49 0 83.5 30t43.5 79l28 160q10 57 -33 90l-458 338q-93 69 -70 192zM975 1696l-146 -154q-16 -20 -41 -20h-75
q-20 0 -35 20l-90 154q-10 18 12 18h76q20 0 35 -18l53 -97l86 97q18 18 41 18h78q22 0 6 -18z" />
    <glyph glyph-name="scaron" unicode="&#x161;" 
d="M965 344l-17 -94q-20 -115 -100 -186.5t-191 -71.5h-348q-111 0 -167 67.5t-36 178.5l15 86q6 31 37 30h82q31 0 24 -30l-12 -74q-20 -123 88 -123h334q109 0 133 133l12 70q4 29 -6 55.5t-33 34.5l-469 186q-55 20 -79.5 77.5t-14.5 125.5l12 74q20 113 100.5 182.5
t190.5 69.5h328q111 0 167 -68t36 -178l-15 -86q-6 -31 -37 -31h-81q-31 0 -25 31l12 74q20 123 -88 122h-313q-109 0 -133 -131l-9 -45q-4 -29 6.5 -55.5t32.5 -34.5l469 -186q55 -23 80 -79t15 -124zM922 1389l-144 -154q-16 -20 -43 -21h-73q-25 0 -35 21l-90 154
q-8 18 12 18h74q25 0 34 -18l56 -97l84 97q18 18 41 18h80q18 0 4 -18z" />
    <glyph glyph-name="uni0162" unicode="&#x162;" 
d="M1212 1403l-14 -88q-6 -31 -37 -31h-375l-221 -1253q-6 -31 -37 -31h-88q-31 0 -26 31l221 1253h-375q-31 0 -24 31l14 88q6 31 37 31h901q30 0 24 -31zM340 -289l57 187q10 33 43 32h60q33 0 18 -32l-82 -187q-10 -25 -37 -24h-41q-24 -1 -18 24z" />
    <glyph glyph-name="uni0163" unicode="&#x163;" 
d="M244 1020l14 76q4 31 35 30h225l31 174q6 31 37 31h82q31 0 24 -31l-30 -174h382q31 0 27 -30l-14 -76q-6 -31 -37 -31h-383l-131 -751q-8 -45 14.5 -74t69.5 -29h280q31 0 25 -31l-12 -75q-6 -31 -37 -31h-281q-111 0 -167 67.5t-36 178.5l132 745h-224q-30 0 -26 31z
M469 -289l57 187q10 33 43 32h60q33 0 18 -32l-82 -187q-10 -25 -37 -24h-41q-24 -1 -18 24z" />
    <glyph glyph-name="Tcaron" unicode="&#x164;" 
d="M1212 1403l-14 -88q-6 -31 -37 -31h-375l-221 -1253q-6 -31 -37 -31h-88q-31 0 -26 31l221 1253h-375q-31 0 -24 31l14 88q6 31 37 31h901q30 0 24 -31zM977 1696l-146 -154q-16 -20 -40 -20h-76q-20 0 -35 20l-90 154q-8 18 12 18h76q20 0 35 -18l53 -97l86 97
q18 18 41 18h78q20 0 6 -18z" />
    <glyph glyph-name="tcaron" unicode="&#x165;" 
d="M244 1020l14 76q4 31 35 30h225l31 174q6 31 37 31h82q31 0 24 -31l-30 -174h382q31 0 27 -30l-14 -76q-6 -31 -37 -31h-383l-131 -751q-8 -45 14.5 -74t69.5 -29h280q31 0 25 -31l-12 -75q-6 -31 -37 -31h-281q-111 0 -167 67.5t-36 178.5l132 745h-224q-30 0 -26 31z
M956 1243l58 184q10 33 43 33h59q33 0 19 -30l-82 -187q-10 -27 -37 -26h-41q-29 -1 -19 26z" />
    <glyph glyph-name="Tbar" unicode="&#x166;" 
d="M346 799h205l86 485h-371q-31 0 -26 31l12 88q4 31 35 31h901q31 0 26 -31l-12 -88q-4 -31 -35 -31h-379l-88 -485h199q31 0 27 -31l-8 -61q-4 -31 -35 -31h-203l-117 -645q-4 -31 -35 -31h-88q-31 0 -26 31l114 645h-198q-31 0 -27 31l8 61q4 31 35 31z" />
    <glyph glyph-name="tbar" unicode="&#x167;" 
d="M268 659l8 62q4 23 33 22h142l43 246h-220q-31 0 -24 31l8 76q6 31 35 30h225l33 174q4 31 35 31h82q31 0 26 -31l-32 -174h382q31 0 27 -30l-10 -76q-4 -31 -35 -31h-389l-43 -246h258q25 0 20 -22l-8 -62q-4 -25 -28 -24h-263l-71 -397q-10 -45 12.5 -74t69.5 -29h280
q31 0 27 -31l-10 -75q-4 -31 -35 -31h-281q-111 0 -167 67.5t-38 178.5l70 391h-137q-29 -1 -25 24z" />
    <glyph glyph-name="Utilde" unicode="&#x168;" 
d="M1044 1434h89q31 0 26 -31l-203 -1145q-23 -121 -108.5 -193.5t-204.5 -72.5h-321q-119 0 -179.5 72.5t-40.5 193.5l203 1145q6 31 37 31h88q31 0 25 -31l-203 -1153q-8 -49 16.5 -79t73.5 -30h334q49 0 85 30t44 79l203 1153q5 31 36 31zM532 1552l11 60q6 35 59 56.5
t96 21.5q37 0 64 -15l67 -33q14 -8 37 -8q63 0 127 41q8 4 11 4q10 0 6 -14l-11 -61q-6 -35 -57 -54.5t-96 -19.5q-35 0 -66 12l-65 35q-14 6 -37 6q-63 0 -127 -41q-6 -4 -12 -4q-9 0 -7 14z" />
    <glyph glyph-name="utilde" unicode="&#x169;" 
d="M874 0h-81q-31 0 -27 31l12 65q-246 -113 -413 -112q-137 0 -206 78.5t-46 209.5l145 826q4 29 35 28h82q31 0 26 -28l-145 -828q-12 -68 27 -109.5t116 -41.5q141 0 406 129l149 848q4 31 35 30h82q31 0 27 -30l-189 -1065q-4 -31 -35 -31zM479 1245l10 60q6 35 58.5 56
t95.5 21q39 0 66 -14l65 -33q14 -8 37 -8q63 0 127 41q8 4 12 4q6 0 6 -14l-10 -62q-6 -35 -58 -54t-95 -19q-37 0 -66 12l-68 35q-12 6 -34 6q-61 0 -129 -41q-4 -4 -11 -4q-8 0 -6 14z" />
    <glyph glyph-name="Umacron" unicode="&#x16a;" 
d="M1044 1434h89q31 0 26 -31l-203 -1145q-23 -121 -108.5 -193.5t-204.5 -72.5h-321q-119 0 -179.5 72.5t-40.5 193.5l203 1145q6 31 37 31h88q31 0 25 -31l-203 -1153q-8 -49 16.5 -79t73.5 -30h334q49 0 85 30t44 79l203 1153q5 31 36 31zM582 1577l10 55q4 23 29 23h313
q23 0 18 -23l-10 -55q-4 -25 -27 -25h-313q-24 0 -20 25z" />
    <glyph glyph-name="umacron" unicode="&#x16b;" 
d="M874 0h-81q-31 0 -27 31l12 65q-246 -113 -413 -112q-137 0 -206 78.5t-46 209.5l145 826q4 29 35 28h82q31 0 26 -28l-145 -828q-12 -68 27 -109.5t116 -41.5q141 0 406 129l149 848q4 31 35 30h82q31 0 27 -30l-189 -1065q-4 -31 -35 -31zM528 1270l9 55q6 23 28 23
h314q25 0 20 -23l-10 -55q-4 -25 -29 -25h-313q-25 0 -19 25z" />
    <glyph glyph-name="Ubreve" unicode="&#x16c;" 
d="M1044 1434h89q31 0 26 -31l-203 -1145q-23 -121 -108.5 -193.5t-204.5 -72.5h-321q-119 0 -179.5 72.5t-40.5 193.5l203 1145q6 31 37 31h88q31 0 25 -31l-203 -1153q-8 -49 16.5 -79t73.5 -30h334q49 0 85 30t44 79l203 1153q5 31 36 31zM963 1679l-5 -20
q-14 -66 -62 -104.5t-112 -38.5h-67q-66 0 -99.5 38.5t-23.5 104.5l4 20q4 23 27 23h47q23 0 22 -23l-2 -30q-4 -41 37 -41h78q39 0 49 41l10 30q6 23 33 23h45q25 0 19 -23z" />
    <glyph glyph-name="ubreve" unicode="&#x16d;" 
d="M874 0h-81q-31 0 -27 31l12 65q-246 -113 -413 -112q-137 0 -206 78.5t-46 209.5l145 826q4 29 35 28h82q31 0 26 -28l-145 -828q-12 -68 27 -109.5t116 -41.5q141 0 406 129l149 848q4 31 35 30h82q31 0 27 -30l-189 -1065q-4 -31 -35 -31zM909 1372l-4 -20
q-14 -66 -62 -105t-112 -39h-67q-66 0 -99 39t-24 105l2 20q4 23 26 23h47q27 0 23 -23v-31q-4 -41 35 -41h80q39 0 49 41l10 31q6 23 31 23h47q22 0 18 -23z" />
    <glyph glyph-name="Uring" unicode="&#x16e;" 
d="M1044 1434h89q31 0 26 -31l-203 -1145q-23 -121 -108.5 -193.5t-204.5 -72.5h-321q-119 0 -179.5 72.5t-40.5 193.5l203 1145q6 31 37 31h88q31 0 25 -31l-203 -1153q-8 -49 16.5 -79t73.5 -30h334q49 0 85 30t44 79l203 1153q5 31 36 31zM631 1622q10 59 60 101t110 42
q57 0 92 -42t25 -101q-8 -59 -58.5 -101t-110 -42t-94 42t-24.5 101zM709 1622q-4 -29 12 -48.5t43 -19.5t50.5 20.5t27.5 47.5t-12.5 46.5t-43 19.5t-50 -19.5t-27.5 -46.5z" />
    <glyph glyph-name="uring" unicode="&#x16f;" 
d="M653 1341.5q-4 -26.5 12.5 -47t43.5 -20.5q29 0 52 20.5t27.5 47t-12 47t-43.5 20.5q-29 0 -52.5 -20.5t-27.5 -47zM874 0h-81q-31 0 -27 31l12 65q-246 -113 -413 -112q-137 0 -206 78.5t-46 209.5l145 826q4 29 35 28h82q31 0 26 -28l-145 -828q-12 -68 27 -109.5
t116 -41.5q141 0 406 129l149 848q4 31 35 30h82q31 0 27 -30l-189 -1065q-4 -31 -35 -31zM577.5 1341.5q10.5 59.5 59.5 101.5t108.5 42t94 -42t24.5 -101.5t-60 -101.5t-108 -42q-59 0 -94 42t-24.5 101.5z" />
    <glyph glyph-name="Uhungarumlaut" unicode="&#x170;" 
d="M1044 1434h89q31 0 26 -31l-203 -1145q-23 -121 -108.5 -193.5t-204.5 -72.5h-321q-119 0 -179.5 72.5t-40.5 193.5l203 1145q6 31 37 31h88q31 0 25 -31l-203 -1153q-8 -49 16.5 -79t73.5 -30h334q49 0 85 30t44 79l203 1153q5 31 36 31zM819 1536l121 152q14 20 37 20
h106q27 0 4 -18l-157 -156q-23 -18 -43 -18h-60q-22 0 -8 20zM604 1536l115 152q14 20 37 20h104q6 0 10 -2t3 -7t-7 -9l-151 -156q-23 -18 -43 -18h-60q-22 0 -8 20z" />
    <glyph glyph-name="uhungarumlaut" unicode="&#x171;" 
d="M874 0h-81q-31 0 -27 31l12 65q-246 -113 -413 -112q-137 0 -206 78.5t-46 209.5l145 826q4 29 35 28h82q31 0 26 -28l-145 -828q-12 -68 27 -109.5t116 -41.5q141 0 406 129l149 848q4 31 35 30h82q31 0 27 -30l-189 -1065q-4 -31 -35 -31zM551 1229l113 151
q14 20 38 21h105q25 0 6 -19l-154 -155q-18 -18 -43 -19h-57q-24 1 -8 21zM766 1229l119 151q16 20 39 21h104q25 0 6 -19l-160 -155q-18 -18 -43 -19h-57q-24 1 -8 21z" />
    <glyph glyph-name="Uogonek" unicode="&#x172;" 
d="M659 -8q-63 -70 -84 -133q-10 -35 21 -35h82q25 0 20 -25l-6 -32q-4 -25 -28 -25h-109q-39 0 -58.5 23.5t-13.5 62.5q14 84 88 164h-249q-119 0 -179.5 72.5t-40.5 193.5l203 1145q6 31 37 31h88q31 0 25 -31l-203 -1153q-8 -49 16.5 -79t73.5 -30h334q49 0 85 30t44 79
l203 1153q6 31 36 31h89q31 0 26 -31l-203 -1145q-20 -117 -101 -189.5t-196 -76.5z" />
    <glyph glyph-name="uogonek" unicode="&#x173;" 
d="M788 0q-29 0 -22 27l12 69q-246 -113 -413 -112q-137 0 -206 78.5t-46 209.5l145 826q4 29 35 28h82q31 0 26 -28l-145 -828q-12 -68 27 -109.5t116 -41.5q141 0 406 129l149 848q4 31 35 30h82q31 0 27 -30l-189 -1069q-6 -27 -32 -27q-72 -80 -93 -143q-12 -35 19 -35
h84q23 0 18 -23l-6 -35q-4 -25 -27 -24h-108q-39 0 -59.5 23.5t-14.5 64.5q18 96 98 172z" />
    <glyph glyph-name="Wcircumflex" unicode="&#x174;" 
d="M801 1403l-31 -1000q0 -8 -12 -88h6q2 8 8 40t10 48l334 1000q10 31 41 31h90q31 0 21 -31l-488 -1372q-10 -31 -41 -31h-63q-31 0 -31 31l21 973q0 8 12 88h-8q-10 -70 -19 -88l-319 -973q-10 -31 -41 -31h-64q-29 0 -32 31l-2 1372q0 31 30 31h92q29 0 29 -31
l-20 -1000q0 -8 -13 -88h6q2 8 8.5 40t10.5 48l321 1000q10 31 41 31h74q33 0 29 -31zM858 1696l90 -156q10 -18 -12 -18h-78q-25 0 -35 20l-51 94l-88 -94q-16 -20 -41 -20h-76q-25 0 -6 18l146 156q14 18 43 18h73q25 0 35 -18z" />
    <glyph glyph-name="wcircumflex" unicode="&#x175;" 
d="M610 772l-282 -741q-10 -31 -41 -31h-78q-31 0 -31 31l-47 1065q0 31 29 30h86q33 0 33 -30l16 -783q0 -23 -10 -90h6q18 78 22 90l291 783q10 31 41 30h74q33 0 33 -30l14 -783q0 -23 -10 -90h6q18 80 22 90l293 783q10 31 41 30h86q31 0 21 -30l-424 -1065
q-14 -31 -43 -31h-76q-31 0 -31 31l-22 741q0 20 10 92h-6q-9 -53 -23 -92zM805 1389l90 -156q10 -18 -12 -19h-78q-25 0 -35 21l-51 94l-88 -94q-16 -20 -41 -21h-76q-25 0 -6 19l145 156q14 18 41 18h76q25 0 35 -18z" />
    <glyph glyph-name="Ycircumflex" unicode="&#x176;" 
d="M1200 1405l-541 -838l-94 -536q-6 -31 -37 -31h-88q-31 0 -24 31l94 536l-246 838q-6 29 23 29h100q33 0 39 -29l180 -612q8 -31 0 -84h6q14 61 31 86l395 610q16 29 47 29h103q28 0 12 -29zM860 1696l90 -156q10 -18 -12 -18h-78q-25 0 -35 20l-51 94l-88 -94
q-16 -20 -41 -20h-76q-25 0 -6 18l146 156q16 18 43 18h73q27 0 35 -18z" />
    <glyph glyph-name="ycircumflex" unicode="&#x177;" 
d="M401 1096l-145 -826q-12 -68 25.5 -109.5t113.5 -41.5q145 0 410 129l149 848q4 31 35 30h82q31 0 27 -30l-199 -1123q-27 -152 -173 -224.5t-353 -72.5q-82 0 -240 23q-72 12 -67 43l14 76q4 23 33 22q2 0 10 -1t12 -1q123 -25 250 -24q141 0 248.5 41t124.5 133l20 108
q-246 -113 -413 -112q-137 0 -206 78.5t-46 209.5l145 824q4 31 35 30h82q30 1 26 -30zM786 1389l91 -156q10 -18 -13 -19h-78q-25 0 -34 21l-52 94l-88 -94q-16 -20 -41 -21h-75q-25 0 -7 19l146 156q18 18 43 18h74q26 0 34 -18z" />
    <glyph glyph-name="Ydieresis" unicode="&#x178;" 
d="M1200 1405l-541 -838l-94 -536q-6 -31 -37 -31h-88q-31 0 -24 31l94 536l-246 838q-6 29 23 29h100q33 0 39 -29l180 -612q8 -31 0 -84h6q14 61 31 86l395 610q16 29 47 29h103q28 0 12 -29zM518 1579l10 53q6 49 60 49h51q23 0 34 -13t7 -36l-8 -53q-10 -49 -60 -49h-53
q-51 0 -41 49zM858 1579l10 53q6 49 58 49h53q47 0 41 -49l-10 -53q-6 -49 -58 -49h-53q-51 0 -41 49z" />
    <glyph glyph-name="Zacute" unicode="&#x179;" 
d="M930 119l-17 -88q-4 -31 -34 -31h-795q-31 0 -27 31l17 88q6 31 26 57l863 1108h-646q-31 0 -24 31l16 88q4 31 35 31h793q31 0 24 -31l-14 -88q-6 -31 -27 -58l-864 -1107h649q31 0 25 -31zM694 1536l117 170q16 18 39 18h125q20 0 4 -16l-174 -176q-20 -16 -43 -16h-60
q-22 0 -8 20z" />
    <glyph glyph-name="zacute" unicode="&#x17a;" 
d="M113 162l786 827h-623q-31 0 -24 31l12 76q6 31 37 30h774q31 0 27 -30l-15 -78q-6 -31 -28 -53l-791 -828h637q31 0 25 -31l-15 -75q-4 -31 -34 -31h-785q-31 0 -26 31l14 78q2 26 29 53zM637 1229l119 170q12 18 37 18h127q23 0 2 -16l-174 -176q-16 -16 -43 -17h-60
q-18 1 -8 21z" />
    <glyph glyph-name="Zdotaccent" unicode="&#x17b;" 
d="M930 119l-17 -88q-4 -31 -34 -31h-795q-31 0 -27 31l17 88q6 31 26 57l863 1108h-646q-31 0 -24 31l16 88q4 31 35 31h793q31 0 24 -31l-14 -88q-6 -31 -27 -58l-864 -1107h649q31 0 25 -31zM676 1579l12 68q10 49 57 49h74q23 0 34 -13.5t7 -35.5l-12 -68
q-6 -49 -57 -49h-74q-47 0 -41 49z" />
    <glyph glyph-name="zdotaccent" unicode="&#x17c;" 
d="M113 162l786 827h-623q-31 0 -24 31l12 76q6 31 37 30h774q31 0 27 -30l-15 -78q-6 -31 -28 -53l-791 -828h637q31 0 25 -31l-15 -75q-4 -31 -34 -31h-785q-31 0 -26 31l14 78q2 26 29 53zM627 1272l12 67q6 49 57 50h74q47 0 41 -50l-12 -67q-10 -49 -58 -49h-73
q-51 0 -41 49z" />
    <glyph glyph-name="Zcaron" unicode="&#x17d;" 
d="M930 119l-17 -88q-4 -31 -34 -31h-795q-31 0 -27 31l17 88q6 31 26 57l863 1108h-646q-31 0 -24 31l16 88q4 31 35 31h793q31 0 24 -31l-14 -88q-6 -31 -27 -58l-864 -1107h649q31 0 25 -31zM977 1696l-146 -154q-16 -20 -40 -20h-76q-20 0 -35 20l-90 154q-8 18 12 18
h76q20 0 35 -18l53 -97l86 97q18 18 41 18h78q20 0 6 -18z" />
    <glyph glyph-name="zcaron" unicode="&#x17e;" 
d="M113 162l786 827h-623q-31 0 -24 31l12 76q6 31 37 30h774q31 0 27 -30l-15 -78q-6 -31 -28 -53l-791 -828h637q31 0 25 -31l-15 -75q-4 -31 -34 -31h-785q-31 0 -26 31l14 78q2 26 29 53zM926 1389l-144 -154q-16 -20 -43 -21h-73q-25 0 -35 21l-90 154q-8 18 12 18h74
q25 0 35 -18l55 -97l84 97q18 18 41 18h80q20 0 4 -18z" />
    <glyph glyph-name="uni018F" unicode="&#x18f;" 
d="M348 141h322q49 0 85 30t44 79l63 364h-538l-66 -364q-8 -49 16.5 -79t73.5 -30zM229 764h660l74 416q8 49 -16.5 79.5t-74.5 30.5h-321q-49 0 -84 -29.5t-43 -78.5l-21 -115q-6 -31 -36 -31h-88q-31 0 -27 31l20 107q20 119 106.5 192.5t207.5 73.5h307q119 0 179.5 -73
t39.5 -193l-162 -916q-23 -121 -108.5 -193.5t-204.5 -72.5h-307q-121 0 -180.5 72.5t-38.5 191.5l84 477q3 31 34 31z" />
    <glyph glyph-name="florin" unicode="&#x192;" 
d="M252 815l14 76q4 31 35 31h207l47 266q20 111 99 178.5t190 67.5h145q31 0 25 -31l-13 -76q-6 -31 -36 -31h-146q-45 0 -77.5 -27.5t-41.5 -74.5l-49 -272h242q31 0 27 -31l-15 -76q-4 -31 -37 -31h-241l-187 -1060q-4 -31 -37 -31h-81q-31 0 -25 31l186 1060h-207
q-28 0 -24 31z" />
    <glyph glyph-name="uni01DD" unicode="&#x1dd;" 
d="M334 127h348q45 0 78 27.5t41 74.5l47 263h-553l-45 -263q-8 -45 14.5 -73.5t69.5 -28.5zM207 629h665l48 266q8 47 -15.5 75.5t-68.5 28.5h-349q-47 0 -79.5 -28.5t-40.5 -73.5l-13 -68q-6 -31 -37 -30h-79q-33 0 -27 30l10 60q20 111 100 178.5t189 67.5h348
q111 0 167 -68t36 -178l-115 -651q-20 -111 -99 -178.5t-190 -67.5h-348q-111 0 -167 66.5t-36 177.5l64 362q6 31 37 31z" />
    <glyph glyph-name="Aringacute" unicode="&#x1fa;" 
d="M344 412h426l-84 665q-4 37 8 86h-8q-16 -68 -24 -86zM692 1526q-6 -27 10.5 -47.5t42.5 -20.5q29 0 52.5 20.5t27.5 47.5q4 29 -12 48t-43 19t-50.5 -19t-27.5 -48zM891 1606q18 -35 10 -80q-12 -84 -98 -127l170 -1370q4 -29 -27 -29h-94q-29 0 -33 29l-31 233h-516
l-110 -233q-14 -29 -45 -29h-92q-33 0 -19 29l656 1374q-59 43 -48 123q10 59 60.5 101t109.5 42q35 0 58 -14l96 141q16 20 39 21h125q23 0 4 -19l-174 -174q-14 -14 -41 -18z" />
    <glyph glyph-name="aringacute" unicode="&#x1fb;" 
d="M805 248l110 631q-215 129 -362 129q-76 0 -129 -42t-66 -108l-104 -592q-10 -66 27.5 -106.5t113.5 -40.5q146 0 410 129zM653 1315q-4 -29 12.5 -48.5t43 -19.5t50 19.5t27.5 48.5q4 27 -12 46t-42.5 19t-50.5 -19t-28 -46zM874 0h-81q-31 0 -27 31l12 65
q-246 -113 -420 -112q-133 0 -201.5 75.5t-45.5 202.5l106 600q20 127 116.5 204t231.5 77q172 0 377 -113l12 66q4 31 35 30h82q31 0 27 -30l-189 -1065q-4 -31 -35 -31zM846 1407q27 -41 18 -92q-10 -59 -60 -101.5t-109.5 -42.5t-93.5 42t-23.5 101.5t59.5 101.5t108 42
q10 0 27 -4l94 135q14 20 37 21h127q23 0 4 -19l-174 -174q-2 -2 -7 -5t-7 -5z" />
    <glyph glyph-name="AEacute" unicode="&#x1fc;" 
d="M311 412h269l127 716q4 27 24 89l-4 2q-12 -43 -35 -86zM553 262h-322l-122 -233q-14 -29 -43 -29h-101q-14 0 -19 8t3 21l745 1376q14 29 43 29h488q31 0 24 -31l-14 -88q-6 -31 -37 -31h-313l-97 -549h226q29 0 24 -30l-16 -89q-4 -31 -35 -30h-225l-78 -436h313
q31 0 27 -31l-16 -88q-4 -31 -35 -31h-434q-31 0 -27 31zM770 1536l117 170q14 18 39 18h125q25 0 4 -16l-174 -176q-16 -16 -43 -16h-60q-22 0 -8 20z" />
    <glyph glyph-name="aeacute" unicode="&#x1fd;" 
d="M457 238l49 286q-102 31 -178 31q-55 0 -98.5 -34t-53.5 -89l-35 -207q-8 -51 19.5 -78.5t70.5 -27.5q93 0 226 119zM942 999h-106q-45 0 -78 -27.5t-41 -74.5l-47 -262h309l47 262q8 47 -15.5 74.5t-68.5 27.5zM1069 498h-424l-47 -267q-8 -47 15.5 -75.5t68.5 -28.5
h106q45 0 78 27.5t41 74.5l13 68q6 31 36 31h82q31 0 25 -31l-10 -59q-20 -111 -99.5 -178.5t-189.5 -67.5h-105q-150 0 -192 110q-168 -119 -289 -118q-94 0 -147.5 67.5t-32.5 175.5l35 203q20 113 101 180.5t196 67.5q92 0 200 -25l41 236q0 6 4 18q0 92 -92 92h-86
q-53 0 -88 -32.5t-45 -89.5l-6 -41q-6 -31 -37 -31h-82q-31 0 -24 31l8 53q20 111 99 178.5t190 67.5h98q111 0 164 -64q76 63 186 64h105q111 0 167 -67t35 -177l-63 -363q-4 -30 -35 -30zM635 1229l117 170q12 18 39 18h124q20 0 5 -16l-175 -176q-20 -16 -43 -17h-59
q-22 1 -8 21z" />
    <glyph glyph-name="Oslashacute" unicode="&#x1fe;" 
d="M297 150l547 1142h-299q-49 0 -85 -29.5t-44 -78.5l-164 -934q-12 -73 45 -100zM924 1284l-545 -1143h299q47 0 83 30t44 79l164 934q16 73 -45 100zM1026 1495l-33 -68q74 -27 108 -93t17 -158l-162 -918q-23 -121 -108.5 -193.5t-204.5 -72.5h-321h-15l-39 -80
q-10 -16 -22 -16l-2 2h-4l-37 12q-20 6 -10 29l34 67q-74 27 -106.5 92.5t-18.5 159.5l162 918q23 121 109 193.5t205 72.5h321h16l39 78q6 16 23 16q4 0 6 -2l37 -10q16 -6 6 -29zM694 1536l117 170q16 18 39 18h125q20 0 4 -16l-174 -176q-20 -16 -43 -16h-60q-22 0 -8 20
z" />
    <glyph glyph-name="oslashacute" unicode="&#x1ff;" 
d="M324 129l446 870h-285q-45 0 -77.5 -28.5t-40.5 -73.5l-119 -668q-8 -43 13.5 -69.5t62.5 -30.5zM844 997l-447 -870h285q45 0 78 27.5t41 74.5l119 668q8 43 -13.5 69.5t-62.5 30.5zM223 -66l31 62q-84 16 -124 80.5t-24 161.5l115 651q20 111 99 178.5t190 67.5h330
l41 79q8 14 20 15q4 0 6 -2l29 -8q14 -6 8 -27l-33 -62q86 -16 126 -80.5t24 -160.5l-115 -651q-20 -111 -99 -178.5t-190 -67.5h-329l-41 -80q-10 -14 -21 -14q-6 0 -8 2l-27 8q-18 6 -8 26zM633 1229l119 170q12 18 36 18h127q23 0 3 -16l-175 -176q-16 -16 -43 -17h-59
q-18 1 -8 21z" />
    <glyph glyph-name="uni0218" unicode="&#x218;" 
d="M258 1030l25 146q23 121 108.5 193.5t204.5 72.5h285q121 0 180 -74t39 -192l-25 -136q-4 -31 -35 -30h-90q-29 0 -24 30l24 144q8 49 -16.5 78.5t-73.5 29.5h-297q-49 0 -85 -29.5t-44 -78.5l-24 -140q-10 -57 34 -88l457 -340q41 -31 60.5 -83t11.5 -109l-31 -168
q-23 -121 -108.5 -193.5t-204.5 -72.5h-305q-121 0 -180.5 73.5t-39.5 192.5l25 135q4 31 35 31l90 2q31 0 25 -31l-25 -143q-8 -49 16.5 -79t73.5 -30h320q49 0 83.5 30t43.5 79l28 160q10 57 -33 90l-458 338q-93 69 -70 192zM360 -289l58 187q10 33 43 32h59q33 0 19 -32
l-82 -187q-10 -25 -37 -24h-41q-25 -1 -19 24z" />
    <glyph glyph-name="uni0219" unicode="&#x219;" 
d="M965 344l-17 -94q-20 -115 -100 -186.5t-191 -71.5h-348q-111 0 -167 67.5t-36 178.5l15 86q6 31 37 30h82q31 0 24 -30l-12 -74q-20 -123 88 -123h334q109 0 133 133l12 70q4 29 -6 55.5t-33 34.5l-469 186q-55 20 -79.5 77.5t-14.5 125.5l12 74q20 113 100.5 182.5
t190.5 69.5h328q111 0 167 -68t36 -178l-15 -86q-6 -31 -37 -31h-81q-31 0 -25 31l12 74q20 123 -88 122h-313q-109 0 -133 -131l-9 -45q-4 -29 6.5 -55.5t32.5 -34.5l469 -186q55 -23 80 -79t15 -124zM360 -289l58 187q10 33 41 32h59q35 0 21 -32l-82 -187
q-10 -25 -37 -24h-43q-23 -1 -17 24z" />
    <glyph glyph-name="uni021A" unicode="&#x21a;" 
d="M1214 1403l-12 -88q-4 -31 -35 -31h-379l-225 -1253q-4 -31 -35 -31h-88q-31 0 -26 31l223 1253h-371q-31 0 -26 31l12 88q4 31 35 31h901q30 0 26 -31zM340 -289l57 187q10 33 43 32h60q33 0 18 -32l-82 -187q-10 -25 -37 -24h-41q-24 -1 -18 24z" />
    <glyph glyph-name="uni021B" unicode="&#x21b;" 
d="M244 1020l14 76q4 31 35 30h225l31 174q6 31 37 31h82q31 0 24 -31l-30 -174h382q31 0 27 -30l-14 -76q-6 -31 -37 -31h-383l-131 -751q-8 -45 14.5 -74t69.5 -29h280q31 0 25 -31l-12 -75q-6 -31 -37 -31h-281q-111 0 -167 67.5t-36 178.5l132 745h-224q-30 0 -26 31z
M469 -289l57 187q10 33 43 32h60q33 0 18 -32l-82 -187q-10 -25 -37 -24h-41q-24 -1 -18 24z" />
    <glyph glyph-name="uni0237" unicode="&#x237;" 
d="M430 1126h526q31 0 25 -30l-197 -1123q-27 -152 -161 -224.5t-324 -72.5q-70 0 -227 23q-72 12 -68 43l14 76q4 23 33 22q2 0 10.5 -1t12.5 -1q123 -25 229 -24q129 0 226.5 41t113.5 133l178 1009h-413q-31 0 -25 31l12 68q4 30 35 30z" />
    <glyph glyph-name="uni0259" unicode="&#x259;" 
d="M334 127h348q45 0 78 27.5t41 74.5l47 263h-553l-45 -263q-8 -45 14.5 -73.5t69.5 -28.5zM207 629h665l48 266q8 47 -15.5 75.5t-68.5 28.5h-349q-47 0 -79.5 -28.5t-40.5 -73.5l-13 -68q-6 -31 -37 -30h-79q-33 0 -27 30l10 60q20 111 100 178.5t189 67.5h348
q111 0 167 -68t36 -178l-115 -651q-20 -111 -99 -178.5t-190 -67.5h-348q-111 0 -167 66.5t-36 177.5l64 362q6 31 37 31z" />
    <glyph glyph-name="circumflex" unicode="&#x2c6;" 
d="M844 1608l90 -156q8 -18 -12 -18h-78q-25 0 -35 20l-51 94l-88 -96q-18 -18 -41 -18h-76q-20 0 -6 18l145 156q18 18 41 18h76q25 0 35 -18z" />
    <glyph glyph-name="caron" unicode="&#x2c7;" 
d="M961 1608l-144 -156q-23 -18 -43 -18h-74q-25 0 -34 18l-91 156q-10 18 13 18h74q25 0 34 -18l56 -97l84 95q16 20 41 20h77q21 0 7 -18z" />
    <glyph glyph-name="breve" unicode="&#x2d8;" 
d="M948 1589l-4 -18q-14 -63 -62 -103.5t-112 -40.5h-68q-63 0 -98 40t-24 104l2 18q4 25 26 25h47q23 0 23 -25v-30q-4 -39 35 -39h78q41 0 51 39l10 30q6 25 31 25h47q22 0 18 -25z" />
    <glyph glyph-name="dotaccent" unicode="&#x2d9;" 
d="M662 1489l10 67q10 49 59 50h74q47 0 41 -50l-12 -67q-10 -49 -58 -49h-76q-23 0 -32.5 14.5t-5.5 34.5z" />
    <glyph glyph-name="ring" unicode="&#x2da;" 
d="M616.5 1532q10.5 59 59.5 101t108.5 42t94 -42t24.5 -101t-60 -101t-110 -42q-57 0 -92 42t-24.5 101zM692 1532q-4 -27 12.5 -46.5t43 -19.5t50 19.5t27.5 46.5q6 27 -10 47t-43 20q-29 0 -52.5 -20t-27.5 -47z" />
    <glyph glyph-name="ogonek" unicode="&#x2db;" 
d="M428 10h86q-82 -88 -100 -151q-12 -35 18 -35h84q25 0 21 -25l-7 -32q-6 -25 -28 -25h-109q-39 0 -59.5 23.5t-11.5 62.5q18 100 106 182z" />
    <glyph glyph-name="tilde" unicode="&#x2dc;" 
d="M514 1462l10 62q6 35 58.5 56.5t95.5 21.5q39 0 65 -15l68 -35q16 -6 35 -6q61 0 127 39q6 4 12 4q8 0 6 -14l-10 -59q-6 -35 -58.5 -55.5t-95.5 -20.5q-37 0 -65 14l-66 33q-14 8 -37 8q-63 0 -127 -41q-8 -6 -12 -6q-10 0 -6 14z" />
    <glyph glyph-name="hungarumlaut" unicode="&#x2dd;" 
d="M725 1446l121 153q14 20 37 21h106q27 0 4 -18l-157 -156q-18 -18 -43 -19h-60q-22 1 -8 19zM510 1448l115 151q14 20 37 21h104q6 0 10 -2t3 -7t-7 -9l-151 -156q-18 -18 -43 -19h-60q-22 1 -8 21z" />
    <glyph glyph-name="uni0400" unicode="&#x400;" 
d="M70 31l241 1372q6 31 37 31h778q31 0 25 -31l-14 -88q-6 -31 -37 -31h-660l-96 -549h481q31 0 27 -30l-16 -89q-6 -31 -37 -30h-482l-75 -436h657q31 0 27 -31l-17 -88q-4 -31 -35 -31h-778q-30 0 -26 31zM756 1706l57 -170q4 -20 -16 -20h-60q-25 0 -37 16l-112 176
q-12 16 10 16h127q21 0 31 -18z" />
    <glyph glyph-name="uni0401" unicode="&#x401;" 
d="M70 31l241 1372q6 31 37 31h778q31 0 25 -31l-14 -88q-6 -31 -37 -31h-660l-96 -549h481q31 0 27 -30l-16 -89q-6 -31 -37 -30h-482l-75 -436h657q31 0 27 -31l-17 -88q-4 -31 -35 -31h-778q-30 0 -26 31zM846 1579l10 53q10 49 57 49h54q23 0 34 -13t7 -36l-9 -53
q-10 -49 -59 -49h-53q-47 0 -41 49zM506 1579l10 53q10 49 59 49h52q49 0 43 -49l-11 -53q-6 -49 -59 -49h-51q-49 0 -43 49z" />
    <glyph glyph-name="uni0402" unicode="&#x402;" 
d="M709 -6h-93q-31 0 -24 31l14 88q6 31 37 30h98q49 0 85 30t44 79l58 330q8 49 -16.5 78.5t-73.5 29.5h-277l-117 -659q-4 -31 -34 -31h-88q-31 0 -27 31l221 1253h-256q-31 0 -24 31l14 88q6 31 37 31h661q31 0 27 -31l-17 -88q-6 -31 -36 -31h-256l-78 -442h270
q121 0 180.5 -74t38.5 -193l-55 -315q-23 -121 -108.5 -193.5t-204.5 -72.5z" />
    <glyph glyph-name="uni0403" unicode="&#x403;" 
d="M436 1434h682q31 0 27 -31l-17 -88q-6 -31 -36 -31h-564l-221 -1253q-4 -31 -35 -31h-88q-31 0 -26 31l241 1372q6 31 37 31zM725 1536l119 170q12 18 37 18h127q23 0 2 -16l-174 -176q-16 -16 -43 -16h-58q-20 0 -10 20z" />
    <glyph glyph-name="uni0404" unicode="&#x404;" 
d="M1087 1040q-4 -31 -34 -30h-90q-31 0 -25 30l25 144q8 49 -16.5 78.5t-74.5 29.5h-321q-49 0 -84 -29.5t-43 -78.5l-70 -396h406q31 0 26 -30l-14 -82q-6 -31 -37 -31h-407l-70 -395q-8 -49 16.5 -79t73.5 -30h322q49 0 85 30t44 79l24 143q6 31 37 31h88q31 0 25 -31
l-23 -135q-23 -121 -108.5 -193.5t-204.5 -72.5h-307q-121 0 -180.5 73.5t-38.5 192.5l161 918q23 121 109 193.5t205 72.5h307q121 0 180.5 -74t38.5 -192z" />
    <glyph glyph-name="uni0405" unicode="&#x405;" 
d="M258 1030l25 146q23 121 108.5 193.5t204.5 72.5h285q121 0 180 -74t39 -192l-25 -136q-4 -31 -35 -30h-90q-29 0 -24 30l24 144q8 49 -16.5 78.5t-73.5 29.5h-297q-49 0 -85 -29.5t-44 -78.5l-24 -140q-10 -57 34 -88l457 -340q41 -31 60.5 -83t11.5 -109l-31 -168
q-23 -121 -108.5 -193.5t-204.5 -72.5h-305q-121 0 -180.5 73.5t-39.5 192.5l25 135q4 31 35 31l90 2q31 0 25 -31l-25 -143q-8 -49 16.5 -79t73.5 -30h320q49 0 83.5 30t43.5 79l28 160q10 57 -33 90l-458 338q-93 69 -70 192z" />
    <glyph glyph-name="uni0406" unicode="&#x406;" 
d="M74 31l14 82q4 31 37 30h309l203 1147h-311q-31 0 -25 31l14 82q6 31 37 31h770q31 0 27 -31l-14 -82q-6 -31 -37 -31h-312l-200 -1147h309q31 0 27 -30l-17 -82q-4 -31 -35 -31h-772q-30 0 -24 31z" />
    <glyph glyph-name="uni0407" unicode="&#x407;" 
d="M74 31l14 82q4 31 37 30h309l203 1147h-311q-31 0 -25 31l14 82q6 31 37 31h770q31 0 27 -31l-14 -82q-6 -31 -37 -31h-312l-200 -1147h309q31 0 27 -30l-17 -82q-4 -31 -35 -31h-772q-30 0 -24 31zM516 1579l10 53q10 49 60 49h53q47 0 41 -49l-10 -53q-6 -49 -60 -49
h-51q-49 0 -43 49zM856 1579l10 53q10 49 58 49h55q23 0 33 -14t6 -35l-8 -53q-10 -49 -60 -49h-53q-47 0 -41 49z" />
    <glyph glyph-name="uni0408" unicode="&#x408;" 
d="M571 1321l15 82q6 31 37 31h483q31 0 27 -31l-203 -1145q-23 -121 -109 -193.5t-205 -72.5h-290q-119 0 -179.5 72.5t-40.5 193.5l17 86q4 31 35 31h90q31 0 24 -31l-16 -94q-8 -49 16.5 -79t73.5 -30h303q49 0 85 30t44 79l185 1040h-367q-31 0 -25 31z" />
    <glyph glyph-name="uni0409" unicode="&#x409;" 
d="M905 698h-153l-99 -548h154q49 0 85 30.5t44 79.5l59 330q8 49 -16.5 78.5t-73.5 29.5zM874 1403l-96 -555h146q121 0 180 -74t39 -192l-56 -316q-23 -121 -108.5 -193.5t-204.5 -72.5h-266q-31 0 -25 31l222 1253h-185l-254 -1046q-27 -115 -93.5 -180.5t-170.5 -65.5
h-51q-31 0 -27 31l15 81q6 31 38 31h21q92 0 123 123l278 1145q6 31 35 31h416q30 0 24 -31z" />
    <glyph glyph-name="uni040A" unicode="&#x40a;" 
d="M897 664h-186l-90 -514h186q51 0 87 30.5t44 79.5l53 295q8 49 -17.5 79t-76.5 30zM842 1403l-105 -588h183q119 0 179 -72.5t38 -193.5l-50 -283q-23 -121 -107.5 -193.5t-203.5 -72.5h-303q-31 0 -27 31l113 633h-352l-113 -633q-4 -31 -37 -31h-88q-31 0 -26 31
l243 1372q4 31 35 31h90q31 0 27 -31l-105 -588h353l104 588q4 31 37 31h88q31 0 27 -31z" />
    <glyph glyph-name="uni040B" unicode="&#x40b;" 
d="M831 31l97 551q8 49 -16.5 78.5t-73.5 29.5h-277l-117 -659q-4 -31 -34 -31h-88q-31 0 -27 31l221 1253h-254q-33 0 -26 31l14 88q6 31 37 31h661q31 0 27 -31l-17 -88q-6 -31 -36 -31h-256l-78 -442h270q121 0 180.5 -74t38.5 -193l-96 -544q-4 -31 -35 -31h-90
q-31 0 -25 31z" />
    <glyph glyph-name="uni040C" unicode="&#x40c;" 
d="M334 670l-113 -639q-6 -31 -37 -31h-88q-31 0 -26 31l241 1372q6 31 37 31h88q31 0 27 -31l-105 -590h220l448 594q20 27 51 27h113q31 0 10 -27l-510 -666l301 -714q10 -27 -20 -27h-113q-31 0 -41 27l-266 643h-217zM682 1536l119 170q12 18 37 18h127q23 0 2 -16
l-174 -176q-16 -16 -43 -16h-58q-20 0 -10 20z" />
    <glyph glyph-name="uni040D" unicode="&#x40d;" 
d="M348 1434h90q31 0 25 -31l-176 -1000q-2 -18 -29 -86l6 -2q18 45 43 84l707 1008q20 27 51 27h61q31 0 25 -31l-242 -1372q-6 -31 -37 -31h-88q-31 0 -26 31l178 1005q2 18 29 86l-7 2q-18 -45 -43 -84l-708 -1013q-16 -27 -49 -27h-62q-31 0 -26 31l243 1372q4 31 35 31
zM766 1706l57 -170q4 -20 -16 -20h-59q-25 0 -37 16l-113 176q-12 16 10 16h127q23 0 31 -18z" />
    <glyph glyph-name="uni040E" unicode="&#x40e;" 
d="M633 551l426 852q6 31 37 31h98q29 0 23 -31l-586 -1165q-76 -147 -117 -187q-57 -59 -147 -59h-129q-33 0 -27 31l14 81q4 31 37 31h98q25 0 42.5 6t34 31t21.5 34t23 52l13 25l-242 1122q-6 29 27 29h98q29 0 35 -29l190 -854q8 -33 0 -86h6q9 53 25 86zM651 1722
q27 0 23 -22l-4 -51q-4 -41 35 -41h143q41 0 51 41l14 51q4 23 29 22h62q25 0 18 -22l-8 -47q-16 -66 -63.5 -105t-110.5 -39h-160q-66 0 -99.5 39t-23.5 105l6 47q4 23 27 22h61z" />
    <glyph glyph-name="uni040F" unicode="&#x40f;" 
d="M874 0h-315l-41 -236q-6 -31 -37 -30h-88q-31 0 -24 30l41 236h-314q-31 0 -26 31l241 1372q6 31 37 31h88q31 0 27 -31l-221 -1253h538l221 1253q6 31 37 31h88q31 0 25 -33l-242 -1370q-4 -31 -35 -31z" />
    <glyph glyph-name="uni0410" unicode="&#x410;" 
d="M344 412h426l-84 665q-4 37 8 86h-8q-16 -68 -24 -86zM788 262h-516l-110 -233q-14 -29 -45 -29h-92q-33 0 -19 29l656 1376q14 29 45 29h61q31 0 35 -29l170 -1376q4 -29 -27 -29h-94q-29 0 -33 29z" />
    <glyph glyph-name="uni0411" unicode="&#x411;" 
d="M338 698l-98 -548h442q49 0 83 30.5t42 79.5l55 330q8 49 -18.5 78.5t-75.5 29.5h-430zM348 1434h692q31 0 25 -31l-21 -88q-6 -31 -36 -31h-568l-75 -436h430q121 0 179 -74t36 -192l-52 -316q-23 -119 -109.5 -192.5t-207.5 -73.5h-547q-31 0 -24 31l239 1372
q6 31 39 31z" />
    <glyph glyph-name="uni0412" unicode="&#x412;" 
d="M834 260l51 291q8 49 -16.5 80t-73.5 31h-463l-90 -512h463q49 0 84 30.5t45 79.5zM862 1284h-422l-82 -475h422q49 0 84 30.5t43 80.5l45 254q8 49 -16.5 79.5t-73.5 30.5zM1026 510l-43 -244q-20 -119 -105 -192.5t-206 -73.5h-576q-31 0 -26 31l241 1372q6 31 37 31
h535q121 0 180 -74t39 -193l-37 -206q-25 -141 -135 -213q59 -31 84.5 -93.5t11.5 -144.5z" />
    <glyph glyph-name="uni0413" unicode="&#x413;" 
d="M436 1434h682q31 0 27 -31l-17 -88q-6 -31 -36 -31h-564l-221 -1253q-4 -31 -35 -31h-88q-31 0 -26 31l241 1372q6 31 37 31z" />
    <glyph glyph-name="uni0414" unicode="&#x414;" 
d="M252 150h522l201 1134h-416l-242 -997q-22 -86 -65 -137zM-106 -236l61 355q4 31 29 31h86q68 16 92 120l276 1133q6 31 37 31h645q31 0 25 -31l-221 -1253h106q31 0 25 -31l-62 -355q-6 -31 -37 -30h-88q-31 0 -24 30l41 236h-801l-41 -236q-6 -31 -37 -30h-88
q-30 -1 -24 30z" />
    <glyph glyph-name="uni0415" unicode="&#x415;" 
d="M70 31l241 1372q6 31 37 31h778q31 0 25 -31l-14 -88q-6 -31 -37 -31h-660l-96 -549h481q31 0 27 -30l-16 -89q-6 -31 -37 -30h-482l-75 -436h657q31 0 27 -31l-17 -88q-4 -31 -35 -31h-778q-30 0 -26 31z" />
    <glyph glyph-name="uni0416" unicode="&#x416;" 
d="M528 674h-36l-388 -645q-18 -29 -47 -29h-100q-33 0 -14 29l428 712l-158 664q-8 29 25 29h98q33 0 37 -29l141 -588h39l104 586q4 31 35 31h90q31 0 25 -31l-102 -586h38l349 588q18 29 47 29h98q33 0 14 -29l-391 -664l176 -712q8 -29 -24 -29h-99q-33 0 -39 29
l-159 645h-37l-113 -643q-6 -31 -37 -31h-88q-31 0 -24 31z" />
    <glyph glyph-name="uni0417" unicode="&#x417;" 
d="M172 426h88q31 0 27 -31l-27 -143q-8 -49 16.5 -79t73.5 -30h318q49 0 83.5 30t43.5 79l55 305q8 49 -16.5 79t-73.5 30h-283q-31 0 -24 30l14 88q6 31 37 31h274q49 0 85 29.5t44 79.5l45 258q8 49 -16.5 78.5t-73.5 29.5h-299q-49 0 -85 -29.5t-44 -78.5l-24 -144
q-4 -31 -37 -30h-88q-31 0 -25 30l23 136q23 121 108.5 193.5t204.5 72.5h285q119 0 180 -73t41 -191l-39 -211q-25 -152 -152 -224q109 -70 80 -227l-45 -256q-20 -119 -106 -191.5t-207 -72.5h-301q-121 0 -180.5 73.5t-38.5 192.5l22 135q6 31 37 31z" />
    <glyph glyph-name="uni0418" unicode="&#x418;" 
d="M348 1434h90q31 0 25 -31l-176 -1000q-2 -18 -29 -86l6 -2q18 45 43 84l707 1008q20 27 51 27h61q31 0 25 -31l-242 -1372q-6 -31 -37 -31h-88q-31 0 -26 31l178 1005q2 18 29 86l-7 2q-18 -45 -43 -84l-708 -1013q-16 -27 -49 -27h-62q-31 0 -26 31l243 1372q4 31 35 31
z" />
    <glyph glyph-name="uni0419" unicode="&#x419;" 
d="M348 1434h90q31 0 25 -31l-176 -1000q-2 -18 -29 -86l6 -2q18 45 43 84l707 1008q20 27 51 27h61q31 0 25 -31l-242 -1372q-6 -31 -37 -31h-88q-31 0 -26 31l178 1005q2 18 29 86l-7 2q-18 -45 -43 -84l-708 -1013q-16 -27 -49 -27h-62q-31 0 -26 31l243 1372q4 31 35 31
zM596 1722h61q25 0 21 -22l-2 -51q-6 -41 33 -41h145q43 0 49 41l15 51q6 23 32 22h60q23 0 18 -22l-10 -47q-14 -66 -61.5 -105t-110.5 -39h-162q-63 0 -97 39t-26 105l6 47q6 22 29 22z" />
    <glyph glyph-name="uni041A" unicode="&#x41a;" 
d="M334 670l-113 -639q-6 -31 -37 -31h-88q-31 0 -26 31l241 1372q6 31 37 31h88q31 0 27 -31l-105 -590h220l448 594q20 27 51 27h113q31 0 10 -27l-510 -666l301 -714q10 -27 -20 -27h-113q-31 0 -41 27l-266 643h-217z" />
    <glyph glyph-name="uni041B" unicode="&#x41b;" 
d="M872 0h-88q-31 0 -24 31l221 1253h-408l-254 -1046q-27 -115 -93 -180.5t-171 -65.5h-84q-33 0 -26 31l14 81q6 31 37 31h55q94 0 121 123l279 1145q10 31 36 31h637q33 0 27 -31l-242 -1372q-4 -31 -37 -31z" />
    <glyph glyph-name="uni041C" unicode="&#x41c;" 
d="M358 1014l-172 -983q-6 -31 -36 -31h-82q-31 0 -25 31l242 1372q6 31 37 31h102q27 0 35 -29l127 -748q4 -29 -4 -86h8q8 53 24 86l392 748q14 29 45 29h102q31 0 27 -31l-244 -1372q-4 -31 -35 -31h-82q-31 0 -26 31l174 983q0 4 26 88h-8q-23 -70 -33 -86l-346 -656
q-14 -31 -45 -30h-35q-31 0 -37 30l-116 656q-4 41 0 86l-11 -2q0 -68 -4 -86z" />
    <glyph glyph-name="uni041D" unicode="&#x41d;" 
d="M70 31l241 1372q6 31 37 31h88q31 0 27 -31l-119 -668h541l116 668q6 31 37 31h88q31 0 25 -31l-242 -1372q-4 -31 -35 -31h-90q-31 0 -24 31l98 555h-541l-98 -555q-4 -31 -35 -31h-88q-30 0 -26 31z" />
    <glyph glyph-name="uni041E" unicode="&#x41e;" 
d="M420 1184l-170 -934q-10 -49 13.5 -79t72.5 -30h334q49 0 86 30t47 79l170 934q10 49 -14.5 78.5t-73.5 29.5h-334q-49 0 -86 -29.5t-45 -78.5zM100 258l168 918q20 121 105.5 193.5t204.5 72.5h321q119 0 180.5 -73t42.5 -193l-170 -918q-18 -119 -103 -192.5
t-206 -73.5h-321q-119 0 -180.5 72.5t-41.5 193.5z" />
    <glyph glyph-name="uni041F" unicode="&#x41f;" 
d="M70 31l241 1372q6 31 37 31h778q31 0 25 -31l-242 -1372q-4 -31 -35 -31h-90q-31 0 -24 31l221 1253h-541l-221 -1253q-4 -31 -35 -31h-88q-30 0 -26 31z" />
    <glyph glyph-name="uni0420" unicode="&#x420;" 
d="M874 1284h-434l-100 -569h434q49 0 84 29.5t43 78.5l64 351q8 49 -17 79.5t-74 30.5zM739 565h-426l-94 -534q-4 -31 -35 -31h-90q-29 0 -24 31l241 1372q6 31 35 31h547q121 0 180.5 -74t38.5 -193l-59 -336q-20 -119 -106.5 -192.5t-207.5 -73.5z" />
    <glyph glyph-name="uni0421" unicode="&#x421;" 
d="M860 424h88q31 0 25 -31l-23 -135q-23 -121 -108.5 -193.5t-204.5 -72.5h-307q-121 0 -180.5 73.5t-38.5 192.5l161 918q23 121 109 193.5t205 72.5h307q121 0 180.5 -74t38.5 -192l-25 -136q-4 -31 -34 -30h-90q-31 0 -25 30l25 144q8 49 -16.5 78.5t-74.5 29.5h-321
q-49 0 -84 -29.5t-43 -78.5l-166 -934q-8 -49 16.5 -79t73.5 -30h322q49 0 85 30t44 79l24 143q6 31 37 31z" />
    <glyph glyph-name="uni0422" unicode="&#x422;" 
d="M1214 1403l-12 -88q-4 -31 -35 -31h-379l-225 -1253q-4 -31 -35 -31h-88q-31 0 -26 31l223 1253h-371q-31 0 -26 31l12 88q4 31 35 31h901q30 0 26 -31z" />
    <glyph glyph-name="uni0423" unicode="&#x423;" 
d="M633 551l426 852q6 31 37 31h98q29 0 23 -31l-586 -1165q-76 -147 -117 -187q-57 -59 -147 -59h-129q-33 0 -27 31l14 81q4 31 37 31h98q25 0 42.5 6t34 31t21.5 34t23 52l13 25l-242 1122q-6 29 27 29h98q29 0 35 -29l190 -854q6 -29 -2 -86h8q9 53 25 86z" />
    <glyph glyph-name="uni0424" unicode="&#x424;" 
d="M459 285l153 864h-168q-49 0 -84.5 -29.5t-44.5 -79.5l-112 -647q-8 -49 16.5 -78.5t73.5 -29.5h166zM762 1149l-152 -864h166q49 0 85 29.5t44 78.5l115 647q8 49 -16.5 79t-73.5 30h-168zM694 1442h88q31 0 27 -31l-21 -113h160q121 0 180.5 -73.5t38.5 -192.5
l-110 -631q-23 -121 -109 -193.5t-205 -72.5h-159l-21 -112q-6 -31 -37 -31h-88q-31 0 -24 31l18 112h-160q-121 0 -180 74t-39 192l111 631q23 121 108.5 193.5t204.5 72.5h162l18 113q6 31 37 31z" />
    <glyph glyph-name="uni0425" unicode="&#x425;" 
d="M1071 1434h109q29 0 12 -27l-481 -659l264 -721q10 -27 -21 -27h-108q-29 0 -39 27l-203 542q-12 33 0 84h-8q-12 -57 -33 -84l-391 -542q-20 -27 -51 -27h-107q-29 0 -12 27l518 721l-248 659q-10 27 21 27h108q33 0 39 -27l187 -479q10 -31 2 -84h8q8 49 31 84l354 479
q16 27 49 27z" />
    <glyph glyph-name="uni0426" unicode="&#x426;" 
d="M463 1403l-221 -1253h508l221 1253q6 31 37 31h88q31 0 24 -33l-221 -1251h113q31 0 26 -31l-63 -355q-4 -31 -35 -30h-90q-31 0 -25 30l41 236h-770q-31 0 -26 31l241 1372q6 31 37 31h88q31 0 27 -31z" />
    <glyph glyph-name="uni0427" unicode="&#x427;" 
d="M874 0h-90q-31 0 -24 31l98 561h-442q-119 0 -180.5 72.5t-40.5 193.5l96 545q6 31 37 31h88q31 0 26 -31l-98 -551q-8 -49 16.5 -79t73.5 -30h451l116 660q6 31 37 31h88q31 0 25 -31l-242 -1372q-4 -31 -35 -31z" />
    <glyph glyph-name="uni0428" unicode="&#x428;" 
d="M381 1403l-221 -1253h276l221 1253q4 31 35 31h90q31 0 25 -33l-221 -1251h276l221 1253q6 31 37 31h88q31 0 25 -33l-242 -1370q-4 -31 -35 -31h-942q-31 0 -26 31l241 1372q6 31 37 31h88q31 0 27 -31z" />
    <glyph glyph-name="uni0429" unicode="&#x429;" 
d="M-18 31l241 1372q6 31 37 31h88q31 0 25 -31l-221 -1253h245l221 1253q6 31 37 31h88q31 0 27 -33l-221 -1251h246l221 1253q4 31 35 31h90q31 0 24 -33l-221 -1251h96q31 0 25 -31l-61 -355q-6 -31 -37 -30h-88q-31 0 -27 30l43 236h-889q-30 0 -24 31z" />
    <glyph glyph-name="uni042A" unicode="&#x42a;" 
d="M539 698l-97 -548h256q49 0 84 30.5t45 79.5l58 330q8 49 -16.5 78.5t-73.5 29.5h-256zM201 1315l16 88q4 31 35 31h387q31 0 25 -31l-99 -555h250q119 0 179.5 -73t39.5 -193l-57 -316q-20 -119 -105.5 -192.5t-205.5 -73.5h-369q-31 0 -27 31l222 1253h-267
q-30 0 -24 31z" />
    <glyph glyph-name="uni042B" unicode="&#x42b;" 
d="M260 698l-98 -548h268q49 0 85 30.5t44 79.5l59 330q8 49 -17.5 78.5t-72.5 29.5h-268zM383 1403l-96 -555h260q121 0 180 -74t39 -192l-55 -316q-23 -121 -109 -193.5t-205 -72.5h-381q-31 0 -24 31l241 1372q6 31 37 31h88q31 0 25 -31zM1227 1403l-242 -1372
q-4 -31 -35 -31h-90q-31 0 -24 31l241 1372q6 31 37 31h90q29 0 23 -31z" />
    <glyph glyph-name="uni042C" unicode="&#x42c;" 
d="M338 698l-96 -548h442q49 0 84 30.5t45 79.5l57 330q8 49 -16.5 78.5t-73.5 29.5h-442zM463 1403l-98 -555h436q121 0 180 -74t39 -192l-55 -316q-23 -121 -109 -193.5t-205 -72.5h-555q-31 0 -26 31l241 1372q6 31 37 31h88q31 0 27 -31z" />
    <glyph glyph-name="uni042D" unicode="&#x42d;" 
d="M248 1040l24 136q23 121 109 193.5t205 72.5h307q121 0 180.5 -74t38.5 -192l-162 -918q-23 -121 -108.5 -193.5t-204.5 -72.5h-307q-121 0 -180.5 73.5t-38.5 192.5l22 135q6 31 37 31h88q31 0 27 -31l-27 -143q-8 -49 16.5 -79t73.5 -30h322q49 0 85 30t44 79l69 395
h-381q-31 0 -24 31l14 82q6 31 37 30h379l70 396q8 49 -16.5 78.5t-74.5 29.5h-321q-49 0 -84 -29.5t-43 -78.5l-27 -144q-4 -31 -35 -30h-88q-30 -1 -26 30z" />
    <glyph glyph-name="uni042E" unicode="&#x42e;" 
d="M690 1184l-166 -934q-8 -49 16.5 -79t73.5 -30h138q49 0 84.5 30t44.5 79l163 934q8 49 -16 78.5t-74 29.5h-137q-49 0 -84 -29.5t-43 -78.5zM377 258l57 328h-198l-99 -555q-4 -31 -35 -31h-88q-31 0 -26 31l241 1372q6 31 37 31h88q31 0 27 -31l-119 -668h199l78 441
q23 121 108.5 193.5t204.5 72.5h123q121 0 180 -74t39 -192l-162 -918q-23 -121 -108.5 -193.5t-204.5 -72.5h-123q-121 0 -180 73.5t-39 192.5z" />
    <glyph glyph-name="uni042F" unicode="&#x42f;" 
d="M885 735l96 549h-457q-49 0 -82.5 -30.5t-42.5 -79.5l-55 -330q-6 -49 19.5 -79t74.5 -30h447zM582 586l-383 -557q-20 -29 -45 -29h-105q-31 0 -16 29l383 557h-4q-121 0 -179.5 73.5t-35.5 192.5l51 315q23 119 110.5 193t206.5 74h561q31 0 25 -31l-240 -1372
q-6 -31 -39 -31h-88q-31 0 -24 31l98 555h-276z" />
    <glyph glyph-name="uni0430" unicode="&#x430;" 
d="M805 248l110 631q-215 129 -362 129q-76 0 -129 -42t-66 -108l-104 -592q-10 -66 27.5 -106.5t113.5 -40.5q146 0 410 129zM874 0h-81q-31 0 -27 31l12 65q-246 -113 -420 -112q-133 0 -201.5 75.5t-45.5 202.5l106 600q20 127 116.5 204t231.5 77q172 0 377 -113l12 66
q4 31 35 30h82q31 0 27 -30l-189 -1065q-4 -31 -35 -31z" />
    <glyph glyph-name="uni0431" unicode="&#x431;" 
d="M356 840l-104 -594q-20 -119 90 -119h330q111 0 131 123l104 596q10 51 -28.5 80.5t-94.5 29.5q-125 1 -428 -116zM821 1092q115 0 182.5 -69t49.5 -175l-109 -610q-20 -111 -100 -178.5t-191 -67.5h-342q-113 0 -169 65.5t-38 173.5l154 867q25 131 111 200.5t276 100.5
q240 35 389 49h17q23 0 32 -7t4 -20l-12 -78q-6 -29 -78 -36q-131 -12 -368 -45q-115 -14 -165 -52.5t-63 -111.5l-18 -109q299 103 438 103z" />
    <glyph glyph-name="uni0432" unicode="&#x432;" 
d="M750 512h-451l-68 -375h453q55 0 90 32t45 87l25 133q10 55 -14.5 89t-79.5 34zM788 989h-405l-61 -340h407q55 0 91 34t46 89l19 102q10 53 -16 84t-81 31zM885 592q127 -55 98 -223l-22 -129q-18 -109 -97.5 -174.5t-189.5 -65.5h-578q-31 0 -26 31l188 1065
q4 31 35 30h534q111 0 167.5 -65.5t35.5 -171.5l-16 -96q-23 -133 -129 -201z" />
    <glyph glyph-name="uni0433" unicode="&#x433;" 
d="M109 250l14 80q10 66 56 123t110 79l538 209q59 25 70 88l6 39q10 59 -11.5 95t-74.5 36h-313q-111 0 -131 -122l-13 -74q-6 -31 -36 -31h-82q-31 0 -25 31l14 86q20 111 99.5 178.5t189.5 67.5h328q111 0 166 -70t35 -182l-11 -68q-12 -66 -57 -122t-109 -81l-538 -206
q-57 -18 -70 -89l-10 -57q-10 -61 11.5 -97t74.5 -36h334q111 0 131 123l12 74q6 31 37 30h82q31 0 25 -30l-15 -86q-20 -111 -99 -178.5t-190 -67.5h-348q-111 0 -165.5 70.5t-34.5 187.5z" />
    <glyph glyph-name="uni0434" unicode="&#x434;" 
d="M805 250l113 635q-250 109 -390 108q-66 0 -112.5 -41t-59.5 -108l-104 -600q-20 -117 88 -117h334q111 0 131 123zM424 1446l407 -43q313 -33 267 -305l-152 -860q-20 -111 -99 -178.5t-190 -67.5h-348q-111 0 -167 63.5t-38 169.5l109 619q23 129 111 207.5t208 78.5
q168 0 410 -98l14 80q10 63 -23.5 106.5t-113.5 53.5l-424 49q-49 8 -45 37l12 63q4 27 41 27q13 0 21 -2z" />
    <glyph glyph-name="uni0435" unicode="&#x435;" 
d="M834 999h-349q-45 0 -77.5 -27.5t-40.5 -74.5l-48 -262h553l48 262q8 45 -15.5 73.5t-70.5 28.5zM961 498h-666l-47 -267q-8 -47 16.5 -75.5t69.5 -28.5h348q45 0 78 27.5t41 74.5l12 68q6 31 37 31h82q31 0 24 -31l-10 -59q-20 -111 -99 -178.5t-190 -67.5h-348
q-111 0 -167 67.5t-36 178.5l115 651q20 111 99 178.5t190 67.5h348q111 0 167 -67t36 -177l-64 -363q-5 -30 -36 -30z" />
    <glyph glyph-name="uni0436" unicode="&#x436;" 
d="M502 506h-51l-345 -479q-20 -27 -51 -27h-92q-33 0 -12 27l397 548l-194 525q-6 27 26 26h94q31 0 37 -26l164 -457h51l78 453q6 31 39 30h82q29 0 23 -30l-78 -453h49l323 457q20 27 52 26h92q33 0 12 -26l-375 -525l207 -548q6 -27 -22 -27h-95q-31 0 -41 27l-176 479
h-51l-82 -475q-6 -31 -37 -31h-82q-31 0 -24 31z" />
    <glyph glyph-name="uni0437" unicode="&#x437;" 
d="M506 651h246q55 0 94 34t49 89l14 109q8 51 -20.5 82.5t-83.5 31.5h-285q-55 0 -95 -33.5t-48 -89.5l-12 -73q-6 -31 -37 -31h-82q-31 0 -25 31l17 86q20 111 100 178.5t190 67.5h328q111 0 166 -64.5t35 -171.5l-15 -100q-25 -139 -145 -209q113 -59 84 -217l-18 -138
q-23 -109 -103 -174t-190 -65h-353q-111 0 -166 67.5t-34 178.5l16 86q6 31 37 30h82q31 0 24 -30l-12 -74q-8 -55 19.5 -89t83.5 -34h313q55 0 94 33t47 86l23 145q8 55 -20.5 89t-84.5 34h-262q-31 0 -24 31l16 74q6 30 37 30z" />
    <glyph glyph-name="uni0438" unicode="&#x438;" 
d="M874 0h-81q-31 0 -27 31l12 65q-246 -113 -413 -112q-137 0 -206 78.5t-46 209.5l145 826q4 29 35 28h82q31 0 26 -28l-145 -828q-12 -68 27 -109.5t116 -41.5q141 0 406 129l149 848q4 31 35 30h82q31 0 27 -30l-189 -1065q-4 -31 -35 -31z" />
    <glyph glyph-name="uni0439" unicode="&#x439;" 
d="M401 1098l-145 -828q-12 -68 27 -109.5t116 -41.5q141 0 406 129l149 848q4 31 35 30h82q31 0 27 -30l-189 -1065q-4 -31 -35 -31h-81q-31 0 -27 31l12 65q-246 -113 -413 -112q-137 0 -206 78.5t-46 209.5l145 826q4 29 35 28h82q30 1 26 -28zM967 1413l-11 -47
q-14 -63 -61 -103t-113 -40h-174q-63 0 -97 38.5t-24 104.5l7 47q0 23 26 23h62q23 0 22 -23l-4 -51q-6 -41 35 -41h158q39 0 49 41l14 51q6 23 31 23h61q23 0 19 -23z" />
    <glyph glyph-name="uni043A" unicode="&#x43a;" 
d="M504 506h-207l-84 -475q-4 -31 -35 -31h-82q-31 0 -26 31l188 1065q4 31 35 30h82q31 0 26 -30l-79 -453h204l420 457q23 27 43 26h109q14 0 19 -8t-5 -18l-479 -525l315 -548q6 -10 -1 -18.5t-21 -8.5h-111q-20 0 -35 27z" />
    <glyph glyph-name="uni043B" unicode="&#x43b;" 
d="M936 989h-404l-184 -751q-27 -115 -93.5 -180.5t-170.5 -65.5h-64q-33 0 -26 31l14 73q4 31 37 31h43q90 0 121 123l205 846q6 31 35 30h622q31 0 27 -30l-189 -1065q-4 -31 -35 -31h-81q-31 0 -27 31z" />
    <glyph glyph-name="uni043C" unicode="&#x43c;" 
d="M999 1126h109q31 0 27 -30l-189 -1065q-4 -31 -35 -31h-82q-31 0 -26 31l137 774q0 2 27 88h-9q-18 -55 -34 -86l-346 -578q-18 -29 -48 -28h-20q-31 0 -39 28l-143 580q-4 25 -4 84h-9q0 -61 -4 -88l-137 -774q-4 -31 -35 -31h-82q-31 0 -26 31l188 1065q6 31 37 30h109
q29 0 36 -28l152 -617q6 -29 -2 -86h8q8 55 27 86l366 617q18 28 47 28z" />
    <glyph glyph-name="uni043D" unicode="&#x43d;" 
d="M850 506h-553l-84 -475q-4 -31 -35 -31h-82q-31 0 -26 31l188 1065q4 31 35 30h82q31 0 26 -30l-79 -455h552l80 455q4 31 35 30h82q31 0 27 -30l-189 -1065q-4 -31 -35 -31h-81q-31 0 -27 31z" />
    <glyph glyph-name="uni043E" unicode="&#x43e;" 
d="M369 897l-123 -668q-8 -45 14.5 -73.5t67.5 -28.5h348q45 0 80 28.5t43 73.5l123 668q8 45 -14.5 73.5t-67.5 28.5h-348q-45 0 -80 -27.5t-43 -74.5zM104 238l119 651q18 111 97 178.5t190 67.5h348q111 0 167 -68t38 -178l-119 -651q-18 -111 -97 -178.5t-190 -67.5
h-348q-111 0 -167 67.5t-38 178.5z" />
    <glyph glyph-name="uni043F" unicode="&#x43f;" 
d="M293 1126h82q31 0 26 -30l-12 -66q246 113 416 113q135 0 203.5 -79t46.5 -210l-146 -825q-4 -29 -35 -29h-81q-31 0 -27 29l145 827q12 68 -26.5 110t-116.5 42q-141 0 -406 -129l-149 -848q-4 -31 -35 -31h-82q-31 0 -26 31l188 1065q4 30 35 30z" />
    <glyph glyph-name="uni0440" unicode="&#x440;" 
d="M362 879l-110 -631q215 -129 362 -129q76 0 129.5 41t63.5 106l104 592q12 66 -25.5 108t-113.5 42q-146 0 -410 -129zM123 -307h-82q-31 0 -25 31l242 1372q4 31 35 30h82q31 0 26 -30l-12 -66q246 113 418 113q135 0 203.5 -77t46.5 -204l-107 -600
q-20 -125 -116.5 -201.5t-229.5 -76.5q-174 0 -379 112l-65 -372q-6 -31 -37 -31z" />
    <glyph glyph-name="uni0441" unicode="&#x441;" 
d="M332 127h348q47 0 80 28.5t41 73.5l16 95q6 31 37 30h82q31 0 25 -30l-15 -86q-20 -111 -100 -178.5t-191 -67.5h-348q-111 0 -166 67.5t-35 178.5l115 651q18 111 98 178.5t191 67.5h348q111 0 166 -68t37 -178l-17 -86q-4 -31 -34 -31h-82q-31 0 -27 31l17 94
q8 45 -14.5 73.5t-69.5 28.5h-349q-45 0 -77.5 -27.5t-42.5 -74.5l-117 -668q-8 -47 15.5 -74.5t68.5 -27.5z" />
    <glyph glyph-name="uni0442" unicode="&#x442;" 
d="M834 31l151 866q8 53 -12.5 82t-59.5 29q-74 0 -190 -99q0 -10 -2 -14l-152 -864q-6 -31 -37 -31h-81q-31 0 -25 31l152 866q10 53 -10.5 82t-59.5 29q-76 0 -191 -101l-153 -876q-6 -31 -37 -31h-82q-31 0 -25 31l189 1065q4 31 35 30h82q31 0 26 -30l-8 -43
q123 90 221 90q113 0 150 -115q143 115 258 115q84 0 130 -68.5t25 -179.5l-151 -864q-6 -31 -37 -31h-82q-30 0 -24 31z" />
    <glyph glyph-name="uni0443" unicode="&#x443;" 
d="M401 1096l-145 -826q-12 -68 25.5 -109.5t113.5 -41.5q145 0 410 129l149 848q4 31 35 30h82q31 0 27 -30l-199 -1123q-27 -152 -173 -224.5t-353 -72.5q-82 0 -240 23q-72 12 -67 43l14 76q4 23 33 22q2 0 10 -1t12 -1q123 -25 250 -24q141 0 248.5 41t124.5 133l20 108
q-246 -113 -413 -112q-137 0 -206 78.5t-46 209.5l145 824q4 31 35 30h82q30 1 26 -30z" />
    <glyph glyph-name="uni0444" unicode="&#x444;" 
d="M256 119q70 0 193 84l126 721q-96 84 -161 84q-43 0 -80 -30t-45 -81l-119 -668q-8 -51 18.5 -80.5t67.5 -29.5zM881 229l116 668q10 51 -16.5 81t-69.5 30q-59 0 -192 -84l-127 -721q102 -84 164 -84q43 0 80 29.5t45 80.5zM567 63l-59 -339q-6 -31 -37 -31h-82
q-31 0 -24 31l59 339q-135 -80 -227 -79q-90 0 -139.5 68.5t-30.5 178.5l118 664q18 109 92 178.5t164.5 69.5t198.5 -80l62 340q4 31 34 31h82q31 0 27 -31l-62 -340q139 80 230 80q88 0 137 -68.5t31 -179.5l-119 -664q-18 -109 -92 -178t-162 -69q-92 -1 -201 79z" />
    <glyph glyph-name="uni0445" unicode="&#x445;" 
d="M618 713l359 389q20 25 51 24h109q31 0 10 -24l-477 -524l293 -551q10 -27 -19 -27h-110q-31 0 -43 27l-211 413q-6 12 -2 45h-9q-4 -31 -14 -45l-373 -415q-20 -25 -51 -25h-106q-33 0 -9 25l484 553l-281 522q-14 27 19 26h106q29 0 45 -26l203 -387q8 -16 4 -43h6
q4 23 16 43z" />
    <glyph glyph-name="uni0446" unicode="&#x446;" 
d="M1081 1096l-170 -959h140q31 0 26 -31l-59 -327q-4 -31 -35 -31h-82q-31 0 -27 31l41 221h-139q-33 0 -26 31l10 65q-246 -113 -412 -112q-137 0 -205.5 78.5t-46.5 209.5l146 826q4 29 34 28h82q31 0 27 -28l-147 -828q-10 -68 28.5 -109.5t116.5 -41.5q145 0 403 129
l152 848q4 31 35 30h82q30 1 26 -30z" />
    <glyph glyph-name="uni0447" unicode="&#x447;" 
d="M860 0h-82q-31 0 -24 31l80 458q-240 -90 -392 -90q-139 0 -209.5 76t-48.5 201l72 422q6 29 37 28h82q31 0 24 -28l-67 -410q-10 -63 30.5 -100t122.5 -37q125 0 375 90l80 455q6 31 37 30h82q31 0 24 -30l-186 -1065q-6 -31 -37 -31z" />
    <glyph glyph-name="uni0448" unicode="&#x448;" 
d="M340 1096l-154 -867q-8 -53 12.5 -81.5t61.5 -28.5q86 0 191 112l153 865q4 31 35 30h82q31 0 27 -30l-154 -867q-8 -53 12.5 -81.5t59.5 -28.5q74 0 188 100l156 877q4 31 34 30h82q31 0 27 -30l-188 -1065q-6 -31 -35 -31h-82q-33 0 -27 31l6 41q-123 -88 -219 -88
q-115 0 -151 114q-137 -115 -256 -114q-84 0 -130 68.5t-28 178.5l154 865q4 31 36 30h82q29 1 25 -30z" />
    <glyph glyph-name="uni0449" unicode="&#x449;" 
d="M340 1096l-154 -867q-8 -53 12.5 -81.5t61.5 -28.5q70 0 189 98l155 879q4 31 35 30h82q31 0 27 -30l-154 -867q-8 -53 12.5 -81.5t59.5 -28.5q74 0 188 100l156 877q4 31 34 30h82q31 0 27 -30l-170 -959h123q14 0 21.5 -8t2.5 -23l-59 -342q-4 -31 -35 -30h-82
q-31 0 -26 30l43 236h-123q-33 0 -27 31l6 41q-123 -88 -219 -88q-115 0 -151 114q-137 -115 -256 -114q-84 0 -130 68.5t-28 178.5l154 865q4 31 36 30h82q29 1 25 -30z" />
    <glyph glyph-name="uni044A" unicode="&#x44a;" 
d="M745 543h-274l-72 -406h275q55 0 94 34t49 89l29 160q10 55 -18 89t-83 34zM117 1020l14 76q4 31 35 30h377q31 0 24 -30l-73 -416h294q111 0 167.5 -67.5t35.5 -178.5l-33 -188q-20 -111 -99 -178.5t-189 -67.5h-408q-31 0 -26 31l170 958h-263q-30 0 -26 31z" />
    <glyph glyph-name="uni044B" unicode="&#x44b;" 
d="M469 543h-201l-71 -406h200q55 0 95 34t49 89l28 160q10 55 -17.5 89t-82.5 34zM258 1126h82q31 0 27 -30l-74 -416h219q111 0 167 -67.5t36 -178.5l-33 -188q-20 -111 -99 -178.5t-190 -67.5h-332q-31 0 -26 31l188 1065q4 30 35 30zM909 0h-82q-31 0 -26 31l188 1065
q4 31 35 30h82q31 0 27 -30l-189 -1065q-4 -31 -35 -31z" />
    <glyph glyph-name="uni044C" unicode="&#x44c;" 
d="M733 543h-416l-71 -406h416q55 0 96 34t49 89l29 160q8 55 -20 89t-83 34zM659 0h-550q-31 0 -25 31l188 1065q4 31 35 30h82q31 0 27 -30l-74 -416h436q111 0 167 -67.5t36 -178.5l-33 -188q-20 -111 -99 -178.5t-190 -67.5z" />
    <glyph glyph-name="uni044D" unicode="&#x44d;" 
d="M313 772h-82q-31 0 -26 31l16 86q18 111 98 178.5t191 67.5h348q111 0 166 -68t37 -178l-115 -651q-20 -111 -100 -178.5t-191 -67.5h-348q-111 0 -166 67.5t-35 178.5l15 86q6 31 37 30h82q31 0 24 -30l-16 -95q-8 -47 15.5 -74.5t68.5 -27.5h348q47 0 80 28.5t41 73.5
l49 277h-418q-31 0 -26 31l14 73q4 31 35 31h417l46 256q8 45 -14.5 73.5t-69.5 28.5h-349q-45 0 -77.5 -27.5t-42.5 -74.5l-17 -94q-4 -31 -35 -31z" />
    <glyph glyph-name="uni044E" unicode="&#x44e;" 
d="M649 877l-110 -627q-10 -55 18.5 -89t83.5 -34h104q55 0 95.5 34t50.5 89l110 627q10 55 -18.5 88.5t-83.5 33.5h-104q-55 0 -96.5 -33.5t-49.5 -88.5zM393 238l47 268h-211l-84 -475q-6 -31 -36 -31h-82q-31 0 -25 31l188 1065q4 31 35 30h82q31 0 27 -30l-82 -455h213
l43 248q20 111 99 178.5t190 67.5h147q111 0 166 -68t37 -178l-115 -651q-20 -111 -100 -178.5t-191 -67.5h-145q-111 0 -167 67.5t-36 178.5z" />
    <glyph glyph-name="uni044F" unicode="&#x44f;" 
d="M428 584h416l71 405h-423q-55 0 -94.5 -32.5t-47.5 -86.5l-26 -163q-8 -55 20.5 -89t83.5 -34zM47 27l340 419h-10q-111 0 -165 68t-34 178l33 193q20 109 99 175t190 66h551q31 0 24 -30l-184 -1065q-6 -31 -39 -31h-82q-29 0 -22 31l71 415h-272l-338 -419
q-23 -27 -45 -27h-105q-14 0 -17 8.5t5 18.5z" />
    <glyph glyph-name="uni0450" unicode="&#x450;" 
d="M834 999h-349q-45 0 -77.5 -27.5t-40.5 -74.5l-48 -262h553l48 262q8 45 -15.5 73.5t-70.5 28.5zM961 498h-666l-47 -267q-8 -47 16.5 -75.5t69.5 -28.5h348q45 0 78 27.5t41 74.5l12 68q6 31 37 31h82q31 0 24 -31l-10 -59q-20 -111 -99 -178.5t-190 -67.5h-348
q-111 0 -167 67.5t-36 178.5l115 651q20 111 99 178.5t190 67.5h348q111 0 167 -67t36 -177l-64 -363q-5 -30 -36 -30zM709 1399l55 -170q6 -20 -14 -21h-60q-25 0 -37 17l-112 176q-12 16 10 16h127q23 0 31 -18z" />
    <glyph glyph-name="uni0451" unicode="&#x451;" 
d="M834 999h-349q-45 0 -77.5 -27.5t-40.5 -74.5l-48 -262h553l48 262q8 45 -15.5 73.5t-70.5 28.5zM961 498h-666l-47 -267q-8 -47 16.5 -75.5t69.5 -28.5h348q45 0 78 27.5t41 74.5l12 68q6 31 37 31h82q31 0 24 -31l-10 -59q-20 -111 -99 -178.5t-190 -67.5h-348
q-111 0 -167 67.5t-36 178.5l115 651q20 111 99 178.5t190 67.5h348q111 0 167 -67t36 -177l-64 -363q-5 -30 -36 -30zM459 1272l10 53q10 49 59 49h52q49 0 43 -49l-11 -53q-6 -49 -59 -49h-51q-49 0 -43 49zM799 1272l10 53q10 49 57 49h54q23 0 34 -13t7 -36l-9 -53
q-10 -49 -59 -49h-53q-47 0 -41 49z" />
    <glyph glyph-name="uni0452" unicode="&#x452;" 
d="M178 0h-82q-31 0 -24 39l207 1175h-93q-25 0 -20 23l12 61q4 25 27 25h92l14 80q6 31 37 31h82q31 0 25 -31l-15 -80h305q25 0 19 -25l-10 -61q-4 -23 -29 -23h-303l-33 -180q252 109 410 109q139 0 208.5 -79t47.5 -210l-162 -924q-20 -106 -99 -171.5t-190 -65.5h-164
q-31 0 -26 31l14 75q4 31 35 31h166q47 0 79.5 26.5t41.5 71.5l161 928q12 68 -27.5 110t-119.5 42q-145 0 -399 -121l-150 -848q-6 -39 -37 -39z" />
    <glyph glyph-name="uni0453" unicode="&#x453;" 
d="M109 250l14 80q10 66 56 123t110 79l538 209q59 25 70 88l6 39q10 59 -11.5 95t-74.5 36h-313q-111 0 -131 -122l-13 -74q-6 -31 -36 -31h-82q-31 0 -25 31l14 86q20 111 99.5 178.5t189.5 67.5h328q111 0 166 -70t35 -182l-11 -68q-12 -66 -57 -122t-109 -81l-538 -206
q-57 -18 -70 -89l-10 -57q-10 -61 11.5 -97t74.5 -36h334q111 0 131 123l12 74q6 31 37 30h82q31 0 25 -30l-15 -86q-20 -111 -99 -178.5t-190 -67.5h-348q-111 0 -165.5 70.5t-34.5 187.5zM647 1229l115 170q16 18 39 18h125q25 0 4 -16l-172 -174q-18 -18 -45 -19h-60
q-20 1 -6 21z" />
    <glyph glyph-name="uni0454" unicode="&#x454;" 
d="M1010 772h-82q-31 0 -25 31l17 94q8 47 -15.5 74.5t-68.5 27.5h-349q-47 0 -79.5 -28.5t-40.5 -73.5l-45 -256h417q31 0 25 -31l-12 -73q-6 -31 -37 -31h-418l-47 -277q-8 -45 14.5 -73.5t69.5 -28.5h348q45 0 78 27.5t43 74.5l16 95q4 31 35 30h82q31 0 27 -30l-17 -86
q-18 -111 -98 -178.5t-191 -67.5h-348q-111 0 -166 67.5t-37 178.5l115 651q20 111 100 178.5t191 67.5h348q111 0 166 -68t35 -178l-14 -86q-6 -31 -37 -31z" />
    <glyph glyph-name="uni0455" unicode="&#x455;" 
d="M965 344l-17 -94q-20 -115 -100 -186.5t-191 -71.5h-348q-111 0 -167 67.5t-36 178.5l15 86q6 31 37 30h82q31 0 24 -30l-12 -74q-20 -123 88 -123h334q109 0 133 133l12 70q4 29 -6 55.5t-33 34.5l-469 186q-55 20 -79.5 77.5t-14.5 125.5l12 74q20 113 100.5 182.5
t190.5 69.5h328q111 0 167 -68t36 -178l-15 -86q-6 -31 -37 -31h-81q-31 0 -25 31l12 74q20 123 -88 122h-313q-109 0 -133 -131l-9 -45q-4 -29 6.5 -55.5t32.5 -34.5l469 -186q55 -23 80 -79t15 -124z" />
    <glyph glyph-name="uni0456" unicode="&#x456;" 
d="M276 1028l13 68q4 31 35 30h430q31 0 26 -30l-170 -967h318q31 0 24 -31l-12 -67q-4 -31 -35 -31h-778q-31 0 -27 31l13 67q6 31 37 31h317l151 868h-317q-31 0 -25 31zM580 1313l22 129q10 45 55 45h136q45 0 38 -45l-22 -129q-6 -45 -55 -45h-136q-44 0 -38 45z" />
    <glyph glyph-name="uni0457" unicode="&#x457;" 
d="M276 1028l13 68q4 31 35 30h430q31 0 26 -30l-170 -967h318q31 0 24 -31l-12 -67q-4 -31 -35 -31h-778q-31 0 -27 31l13 67q6 31 37 31h317l151 868h-317q-31 0 -25 31zM422 1272l10 53q10 49 60 49h51q49 0 43 -49l-11 -53q-6 -49 -59 -49h-51q-49 0 -43 49zM762 1272
l10 53q10 49 57 49h54q23 0 34 -13t7 -36l-9 -53q-10 -49 -59 -49h-53q-47 0 -41 49z" />
    <glyph glyph-name="uni0458" unicode="&#x458;" 
d="M430 1126h526q31 0 25 -30l-197 -1123q-27 -152 -161 -224.5t-324 -72.5q-70 0 -227 23q-72 12 -68 43l14 76q4 23 33 22q2 0 10.5 -1t12.5 -1q123 -25 229 -24q129 0 226.5 41t113.5 133l178 1009h-413q-31 0 -25 31l12 68q4 30 35 30zM860 1489h135q45 0 39 -47
l-22 -127q-6 -47 -56 -47h-135q-45 0 -39 47l23 127q10 47 55 47z" />
    <glyph glyph-name="uni0459" unicode="&#x459;" 
d="M946 260l29 160q10 55 -17.5 89t-83.5 34h-167l-72 -406h168q55 0 95 34t48 89zM1120 434l-33 -188q-20 -111 -99 -178.5t-189 -67.5h-301q-31 0 -25 31l168 958h-203l-182 -751q-61 -246 -266 -246h-35q-33 0 -27 31l15 73q4 31 37 31h14q94 0 121 123l207 846
q4 31 34 30h422q31 0 27 -30l-74 -416h187q111 0 166.5 -67.5t35.5 -178.5z" />
    <glyph glyph-name="uni045A" unicode="&#x45a;" 
d="M934 260l24 141q8 55 -19.5 89t-82.5 34h-170l-68 -387h170q55 0 95.5 34t50.5 89zM788 1096l-77 -437h190q111 0 167 -67.5t36 -177.5l-31 -168q-18 -111 -98 -178.5t-191 -67.5h-303q-31 0 -24 31l86 493h-353l-88 -493q-4 -31 -34 -31h-82q-31 0 -27 31l188 1065
q6 31 37 30h82q31 0 25 -30l-76 -437h352l78 437q4 31 35 30h82q30 1 26 -30z" />
    <glyph glyph-name="uni045B" unicode="&#x45b;" 
d="M145 1237l13 61q4 25 26 25h113l14 80q6 31 37 31h82q31 0 25 -31l-15 -80h305q25 0 19 -25l-10 -61q-4 -23 -29 -23h-303l-33 -184q246 113 416 113q135 0 203.5 -79t46.5 -210l-146 -825q-4 -29 -35 -29h-81q-31 0 -27 29l145 827q12 68 -26.5 110t-116.5 42
q-141 0 -406 -129l-149 -848q-4 -31 -35 -31h-82q-31 0 -26 31l209 1183h-113q-25 0 -21 23z" />
    <glyph glyph-name="uni045C" unicode="&#x45c;" 
d="M504 506h-207l-84 -475q-4 -31 -35 -31h-82q-31 0 -26 31l188 1065q4 31 35 30h82q31 0 26 -30l-79 -453h204l420 457q23 27 43 26h109q14 0 19 -8t-5 -18l-479 -525l315 -548q6 -10 -1 -18.5t-21 -8.5h-111q-20 0 -35 27zM580 1229l118 170q12 18 37 18h127q23 0 2 -16
l-174 -176q-16 -16 -43 -17h-59q-18 1 -8 21z" />
    <glyph glyph-name="uni045D" unicode="&#x45d;" 
d="M874 0h-81q-31 0 -27 31l12 65q-246 -113 -413 -112q-137 0 -206 78.5t-46 209.5l145 826q4 29 35 28h82q31 0 26 -28l-145 -828q-12 -68 27 -109.5t116 -41.5q141 0 406 129l149 848q4 31 35 30h82q31 0 27 -30l-189 -1065q-4 -31 -35 -31zM711 1399l57 -170
q6 -20 -14 -21h-60q-25 0 -37 17l-112 176q-12 16 10 16h125q25 0 31 -18z" />
    <glyph glyph-name="uni045E" unicode="&#x45e;" 
d="M401 1096l-145 -826q-12 -68 25.5 -109.5t113.5 -41.5q145 0 410 129l149 848q4 31 35 30h82q31 0 27 -30l-199 -1123q-27 -152 -173 -224.5t-353 -72.5q-82 0 -240 23q-72 12 -67 43l14 76q4 23 33 22q2 0 10 -1t12 -1q123 -25 250 -24q141 0 248.5 41t124.5 133l20 108
q-246 -113 -413 -112q-137 0 -206 78.5t-46 209.5l145 824q4 31 35 30h82q30 1 26 -30zM971 1413l-10 -47q-14 -63 -61.5 -103t-113.5 -40h-174q-63 0 -97 38.5t-23 104.5l6 47q4 23 26 23h62q23 0 22 -23l-4 -51q-4 -41 37 -41h158q41 0 47 41l14 51q6 23 31 23h61
q25 0 19 -23z" />
    <glyph glyph-name="uni045F" unicode="&#x45f;" 
d="M874 0h-81q-31 0 -27 31l12 65q-82 -39 -198 -76l-43 -241q-6 -31 -37 -31h-82q-31 0 -25 31l37 209q-23 -4 -65 -4q-137 0 -206 78.5t-46 209.5l145 826q4 29 35 28h82q31 0 26 -28l-145 -828q-12 -68 27 -109.5t116 -41.5q141 0 406 129l149 848q4 31 35 30h82
q31 0 27 -30l-189 -1065q-4 -31 -35 -31z" />
    <glyph glyph-name="uni0490" unicode="&#x490;" 
d="M158 31l241 1372q6 31 37 31h559l35 194q4 31 35 31h90q31 0 25 -31l-56 -313q-4 -31 -34 -31h-562l-221 -1253q-4 -31 -35 -31h-88q-30 0 -26 31z" />
    <glyph glyph-name="uni0491" unicode="&#x491;" 
d="M84 -8h-64q-33 0 -26 31l14 73q4 31 37 31h43q90 0 121 123l205 846q6 31 35 30h438l33 181q6 31 36 30h82q31 0 25 -30l-51 -287q-4 -31 -35 -31h-445l-184 -751q-27 -115 -93.5 -180.5t-170.5 -65.5z" />
    <glyph glyph-name="uni04D8" unicode="&#x4d8;" 
d="M348 141h322q49 0 85 30t44 79l63 364h-538l-66 -364q-8 -49 16.5 -79t73.5 -30zM229 764h660l74 416q8 49 -16.5 79.5t-74.5 30.5h-321q-49 0 -84 -29.5t-43 -78.5l-21 -115q-6 -31 -36 -31h-88q-31 0 -27 31l20 107q20 119 106.5 192.5t207.5 73.5h307q119 0 179.5 -73
t39.5 -193l-162 -916q-23 -121 -108.5 -193.5t-204.5 -72.5h-307q-121 0 -180.5 72.5t-38.5 191.5l84 477q3 31 34 31z" />
    <glyph glyph-name="uni04D9" unicode="&#x4d9;" 
d="M334 127h348q45 0 78 27.5t41 74.5l47 263h-553l-45 -263q-8 -45 14.5 -73.5t69.5 -28.5zM207 629h665l48 266q8 47 -15.5 75.5t-68.5 28.5h-349q-47 0 -79.5 -28.5t-40.5 -73.5l-13 -68q-6 -31 -37 -30h-79q-33 0 -27 30l10 60q20 111 100 178.5t189 67.5h348
q111 0 167 -68t36 -178l-115 -651q-20 -111 -99 -178.5t-190 -67.5h-348q-111 0 -167 66.5t-36 177.5l64 362q6 31 37 31z" />
    <glyph glyph-name="Wgrave" unicode="&#x1e80;" 
d="M801 1403l-31 -1000q0 -8 -12 -88h6q2 8 8 40t10 48l334 1000q10 31 41 31h90q31 0 21 -31l-488 -1372q-10 -31 -41 -31h-63q-31 0 -31 31l21 973q0 8 12 88h-8q-10 -70 -19 -88l-319 -973q-10 -31 -41 -31h-64q-29 0 -32 31l-2 1372q0 31 30 31h92q29 0 29 -31
l-20 -1000q0 -8 -13 -88h6q2 8 8.5 40t10.5 48l321 1000q10 31 41 31h74q33 0 29 -31zM764 1706l57 -170q6 -20 -14 -20h-59q-25 0 -37 16l-113 176q-12 16 10 16h125q25 0 31 -18z" />
    <glyph glyph-name="wgrave" unicode="&#x1e81;" 
d="M610 772l-282 -741q-10 -31 -41 -31h-78q-31 0 -31 31l-47 1065q0 31 29 30h86q33 0 33 -30l16 -783q0 -23 -10 -90h6q18 78 22 90l291 783q10 31 41 30h74q33 0 33 -30l14 -783q0 -23 -10 -90h6q18 80 22 90l293 783q10 31 41 30h86q31 0 21 -30l-424 -1065
q-14 -31 -43 -31h-76q-31 0 -31 31l-22 741q0 20 10 92h-6q-9 -53 -23 -92zM711 1399l57 -170q6 -20 -16 -21h-58q-27 0 -37 17l-112 176q-16 16 10 16h125q25 0 31 -18z" />
    <glyph glyph-name="Wacute" unicode="&#x1e82;" 
d="M801 1403l-31 -1000q0 -8 -12 -88h6q2 8 8 40t10 48l334 1000q10 31 41 31h90q31 0 21 -31l-488 -1372q-10 -31 -41 -31h-63q-31 0 -31 31l21 973q0 8 12 88h-8q-10 -70 -19 -88l-319 -973q-10 -31 -41 -31h-64q-29 0 -32 31l-2 1372q0 31 30 31h92q29 0 29 -31
l-20 -1000q0 -8 -13 -88h6q2 8 8.5 40t10.5 48l321 1000q10 31 41 31h74q33 0 29 -31zM694 1536l117 170q12 18 37 18h127q20 0 4 -16l-176 -176q-16 -16 -43 -16h-58q-22 0 -8 20z" />
    <glyph glyph-name="wacute" unicode="&#x1e83;" 
d="M610 772l-282 -741q-10 -31 -41 -31h-78q-31 0 -31 31l-47 1065q0 31 29 30h86q33 0 33 -30l16 -783q0 -23 -10 -90h6q18 78 22 90l291 783q10 31 41 30h74q33 0 33 -30l14 -783q0 -23 -10 -90h6q18 80 22 90l293 783q10 31 41 30h86q31 0 21 -30l-424 -1065
q-14 -31 -43 -31h-76q-31 0 -31 31l-22 741q0 20 10 92h-6q-9 -53 -23 -92zM633 1229l117 170q16 18 38 18h125q20 0 5 -16l-175 -176q-16 -16 -43 -17h-59q-22 1 -8 21z" />
    <glyph glyph-name="Wdieresis" unicode="&#x1e84;" 
d="M801 1403l-31 -1000q0 -8 -12 -88h6q2 8 8 40t10 48l334 1000q10 31 41 31h90q31 0 21 -31l-488 -1372q-10 -31 -41 -31h-63q-31 0 -31 31l21 973q0 8 12 88h-8q-10 -70 -19 -88l-319 -973q-10 -31 -41 -31h-64q-29 0 -32 31l-2 1372q0 31 30 31h92q29 0 29 -31
l-20 -1000q0 -8 -13 -88h6q2 8 8.5 40t10.5 48l321 1000q10 31 41 31h74q33 0 29 -31zM856 1579l10 53q6 49 58 49h53q47 0 41 -49l-10 -53q-6 -49 -58 -49h-53q-51 0 -41 49zM516 1579l10 53q6 49 60 49h51q23 0 34 -13t7 -36l-8 -53q-10 -49 -60 -49h-53q-51 0 -41 49z
" />
    <glyph glyph-name="wdieresis" unicode="&#x1e85;" 
d="M610 772l-282 -741q-10 -31 -41 -31h-78q-31 0 -31 31l-47 1065q0 31 29 30h86q33 0 33 -30l16 -783q0 -23 -10 -90h6q18 78 22 90l291 783q10 31 41 30h74q33 0 33 -30l14 -783q0 -23 -10 -90h6q18 80 22 90l293 783q10 31 41 30h86q31 0 21 -30l-424 -1065
q-14 -31 -43 -31h-76q-31 0 -31 31l-22 741q0 20 10 92h-6q-9 -53 -23 -92zM803 1272l8 53q10 49 59 49h54q47 0 41 -49l-11 -53q-10 -49 -57 -49h-53q-51 0 -41 49zM463 1272l8 53q10 49 59 49h54q23 0 34 -13t7 -36l-9 -53q-10 -49 -59 -49h-53q-51 0 -41 49z" />
    <glyph glyph-name="uni1E9E" unicode="&#x1e9e;" 
d="M618 907l271 383h-330q-47 0 -80 -28.5t-41 -73.5l-205 -1157q-4 -31 -34 -31h-90q-31 0 -25 31l203 1157q20 111 100 178.5t191 67.5h520q14 0 18 -8.5t-4 -20.5l-358 -543h73q94 0 141.5 -67.5t26.5 -176.5l-65 -372q-18 -111 -98 -178.5t-191 -67.5h-176q-31 0 -27 31
l17 82q4 31 34 30h164q106 0 131 123l62 355q10 55 -21.5 88.5t-93.5 33.5h-123q-29 0 -24 31l12 74q6 30 22 59z" />
    <glyph glyph-name="Ygrave" unicode="&#x1ef2;" 
d="M1200 1405l-541 -838l-94 -536q-6 -31 -37 -31h-88q-31 0 -24 31l94 536l-246 838q-6 29 23 29h100q33 0 39 -29l180 -612q8 -31 0 -84h6q14 61 31 86l395 610q16 29 47 29h103q28 0 12 -29zM766 1706l57 -170q6 -20 -14 -20h-59q-25 0 -37 16l-113 176q-12 16 10 16h125
q25 0 31 -18z" />
    <glyph glyph-name="ygrave" unicode="&#x1ef3;" 
d="M401 1096l-145 -826q-12 -68 25.5 -109.5t113.5 -41.5q145 0 410 129l149 848q4 31 35 30h82q31 0 27 -30l-199 -1123q-27 -152 -173 -224.5t-353 -72.5q-82 0 -240 23q-72 12 -67 43l14 76q4 23 33 22q2 0 10 -1t12 -1q123 -25 250 -24q141 0 248.5 41t124.5 133l20 108
q-246 -113 -413 -112q-137 0 -206 78.5t-46 209.5l145 824q4 31 35 30h82q30 1 26 -30zM680 1399l57 -170q4 -20 -16 -21h-59q-25 0 -37 17l-113 176q-12 16 10 16h127q23 0 31 -18z" />
    <glyph glyph-name="figuredash" unicode="&#x2012;" 
d="M262 686v76q0 31 31 31h581q31 0 31 -31v-76q0 -31 -31 -31h-581q-31 0 -31 31z" />
    <glyph glyph-name="endash" unicode="&#x2013;" 
d="M205 588v74q0 25 24 24h709q25 0 25 -24v-74q0 -25 -25 -25h-709q-24 0 -24 25z" />
    <glyph glyph-name="emdash" unicode="&#x2014;" 
d="M51 588v74q0 25 25 24h1016q25 0 24 -24v-74q0 -25 -24 -25h-1016q-25 0 -25 25z" />
    <glyph glyph-name="quoteleft" unicode="&#x2018;" 
d="M741 1434h76q41 0 31 -39l-113 -379q-10 -47 -57 -47h-123q-45 0 -29 47l160 379q18 39 55 39z" />
    <glyph glyph-name="quoteright" unicode="&#x2019;" 
d="M631 969h-78q-39 0 -29 41l113 376q10 47 57 48h121q47 0 31 -45l-160 -381q-18 -39 -55 -39z" />
    <glyph glyph-name="quotesinglbase" unicode="&#x201a;" 
d="M401 -221h-75q-41 0 -31 39l113 379q10 45 57 45h123q45 0 28 -45l-159 -379q-17 -39 -56 -39z" />
    <glyph glyph-name="quotedblleft" unicode="&#x201c;" 
d="M918 1434h75q39 0 29 -39l-113 -381q-14 -45 -59 -45h-121q-23 0 -30 12t1 33l162 381q15 39 56 39zM586 1434h78q39 0 28 -39l-114 -381q-10 -45 -58 -45h-123q-45 0 -28 45l161 381q19 39 56 39z" />
    <glyph glyph-name="quotedblright" unicode="&#x201d;" 
d="M469 969h-76q-39 0 -28 41l112 379q10 45 60 45h120q47 0 29 -45l-162 -379q-14 -41 -55 -41zM801 969h-78q-39 0 -29 41l115 379q10 45 57 45h123q45 0 29 -45l-162 -379q-16 -41 -55 -41z" />
    <glyph glyph-name="quotedblbase" unicode="&#x201e;" 
d="M260 -221h-78q-39 0 -28 39l112 379q14 45 60 45h123q45 0 28 -45l-162 -379q-16 -39 -55 -39zM590 -221h-76q-39 0 -29 39l113 379q14 45 59 45h121q45 0 29 -45l-162 -379q-12 -39 -55 -39z" />
    <glyph glyph-name="dagger" unicode="&#x2020;" 
d="M283 1040l14 70q6 23 29 23h297l65 378q6 25 29 25h76q25 0 18 -25l-66 -378h297q25 0 19 -23l-14 -70q-4 -23 -29 -22h-293l-227 -1301q-6 -25 -31 -24h-74q-25 0 -18 24l227 1301h-301q-24 -1 -18 22z" />
    <glyph glyph-name="daggerdbl" unicode="&#x2021;" 
d="M123 113l14 67q6 25 29 25h293l143 819h-301q-23 0 -18 25l14 67q6 25 29 25h297l65 370q6 25 29 25h76q25 0 18 -25l-66 -370h297q25 0 21 -25l-16 -67q-4 -25 -29 -25h-293l-143 -819h301q25 0 20 -25l-16 -67q-4 -25 -29 -25h-297l-63 -371q-6 -25 -31 -24h-74
q-25 0 -18 24l63 371h-297q-22 0 -18 25z" />
    <glyph glyph-name="bullet" unicode="&#x2022;" 
d="M385 508l41 231q14 72 84 72h233q33 0 48.5 -19.5t11.5 -52.5l-41 -231q-14 -72 -86 -72h-232q-33 0 -48 19.5t-11 52.5z" />
    <glyph glyph-name="ellipsis" unicode="&#x2026;" 
d="M373 47l26 152q10 47 56 47h145q45 0 39 -47l-27 -152q-10 -47 -55 -47h-145q-45 0 -39 47zM4 47l27 152q10 47 55 47h145q45 0 39 -47l-26 -152q-10 -47 -56 -47h-145q-45 0 -39 47zM735 47l27 152q6 47 55 47h146q45 0 38 -47l-26 -152q-10 -47 -55 -47h-146
q-49 0 -39 47z" />
    <glyph glyph-name="perthousand" unicode="&#x2030;" 
d="M43 682l1141 211q25 0 24 -19l-2 -75q0 -23 -24 -27l-1141 -213q-2 -2 -8 -2q-16 0 -17 23l2 71q-4 27 25 31zM276 1204l-30 -168q-10 -51 15.5 -82.5t74.5 -31.5h45q49 0 84 31.5t45 82.5l29 168q8 51 -15.5 83t-72.5 32h-45q-49 0 -85.5 -32t-44.5 -83zM127 1049
l25 145q20 113 98 180.5t186 67.5h27q109 0 163 -67.5t33 -180.5l-24 -145q-20 -113 -99 -181.5t-188 -68.5h-24q-109 0 -163 68.5t-34 181.5zM670 240l14 77q20 113 86 180.5t154 67.5h20q88 0 130 -67.5t24 -180.5l-15 -77q-20 -113 -85.5 -180.5t-155.5 -67.5h-21
q-88 0 -128.5 67.5t-22.5 180.5zM807 328l-16 -99q-8 -51 5 -82.5t46 -31.5h24q33 0 58.5 31.5t33.5 82.5l17 99q8 51 -5.5 82.5t-45.5 31.5h-23q-33 0 -58.5 -30.5t-35.5 -83.5zM195 240l14 77q20 113 85.5 180.5t154.5 67.5h20q88 0 130 -67.5t22 -180.5l-15 -77
q-18 -113 -83.5 -180.5t-155.5 -67.5h-21q-88 0 -129.5 67.5t-21.5 180.5zM332 328l-17 -99q-8 -51 5.5 -82.5t46.5 -31.5h22q33 0 58.5 30.5t35.5 83.5l17 99q8 51 -5.5 82.5t-45.5 31.5h-25q-33 0 -58.5 -31.5t-33.5 -82.5z" />
    <glyph glyph-name="guilsinglleft" unicode="&#x2039;" 
d="M862 918l-354 -293l250 -293q16 -20 -6 -43l-54 -43q-10 -10 -24 -10q-12 0 -19 8l-270 317q-16 16 -12 51l4 25q8 33 31 51l380 318q10 8 23 8q14 0 23 -10l34 -43q19 -23 -6 -43z" />
    <glyph glyph-name="guilsinglright" unicode="&#x203a;" 
d="M682 625l-250 293q-18 23 6 43l54 43q8 10 22 10q12 0 21 -8l268 -318q18 -23 12 -51l-4 -25q-2 -27 -31 -51l-381 -317q-8 -8 -22 -8q-12 0 -21 10l-37 43q-14 25 9 43z" />
    <glyph glyph-name="fraction" unicode="&#x2044;" 
d="M-94 -20l1323 1544q8 12 20 12q6 0 13 -6l55 -43q14 -12 0 -33l-1323 -1546q-10 -10 -21 -10q-6 0 -14 4l-53 43q-18 12 0 35z" />
    <glyph glyph-name="Euro" unicode="&#x20ac;" 
d="M47 557l10 61q6 31 37 31h119l25 135h-119q-31 0 -27 31l12 62q4 31 35 30h121l47 269q23 121 109 193.5t205 72.5h272q121 0 180.5 -74t38.5 -192l-25 -136q-4 -31 -34 -30h-90q-31 0 -25 30l25 144q8 49 -16.5 78.5t-74.5 29.5h-286q-49 0 -84 -29.5t-43 -78.5
l-49 -277h383q31 0 26 -30l-12 -62q-4 -31 -35 -31h-385l-22 -135h383q31 0 24 -31l-10 -61q-6 -31 -37 -31h-383l-49 -276q-8 -49 16.5 -79t73.5 -30h287q49 0 85 30t44 79l24 143q6 31 37 31h88q31 0 25 -31l-23 -135q-23 -121 -108.5 -193.5t-204.5 -72.5h-272
q-121 0 -180.5 73.5t-39.5 192.5l48 268h-121q-31 0 -25 31z" />
    <glyph glyph-name="uni20B4" unicode="&#x20b4;" 
d="M135 557l10 59q6 31 37 31h201l203 137h-379q-31 0 -27 31l10 59q6 31 37 31h537l96 64q53 41 70 125l16 94q8 47 -16.5 75.5t-73.5 28.5h-287q-49 0 -84.5 -29.5t-44.5 -78.5l-18 -103q-4 -31 -35 -30h-90q-31 0 -25 30l17 95q23 121 108.5 193.5t204.5 72.5h272
q121 0 181.5 -71t40.5 -183l-11 -62q-25 -145 -106 -221h55q31 0 27 -31l-10 -59q-6 -31 -37 -31h-209l-203 -137h387q31 0 27 -31l-12 -59q-4 -31 -35 -31h-547l-62 -43q-53 -37 -69 -123l-21 -114q-8 -47 16.5 -76t73.5 -29h310q49 0 85 30t44 79l16 102q6 31 37 31l88 -2
q31 0 27 -31l-17 -94q-23 -121 -108.5 -193.5t-204.5 -72.5h-295q-121 0 -181.5 70.5t-39.5 185.5l14 82q18 115 88 198h-63q-31 0 -25 31z" />
    <glyph glyph-name="uni2116" unicode="&#x2116;" 
d="M985 1198l-20 -113q-8 -51 5 -82.5t46 -31.5h24q33 0 58.5 31.5t34.5 82.5l20 113q10 51 -5 83t-48 32h-23q-33 0 -57.5 -32t-34.5 -83zM252 928l-158 -897q-4 -31 -35 -31h-82q-31 0 -26 31l242 1372q6 31 36 31h62q29 0 37 -29l186 -907q4 -18 4 -86h8q0 61 4 88
l160 903q6 31 37 31h82q31 0 25 -31l-242 -1372q-6 -31 -37 -31h-61q-31 0 -37 29l-189 903q-4 25 -4 86l-8 -2q0 -70 -4 -88zM780 647l11 58q8 29 36 28h324q29 0 23 -28l-9 -58q-6 -31 -35 -31h-323q-31 0 -27 31zM860 1102l17 92q18 113 80.5 180.5t146.5 67.5h16
q84 0 122 -67.5t20 -180.5l-17 -92q-20 -111 -82.5 -179.5t-144.5 -68.5h-19q-84 0 -121.5 68.5t-17.5 179.5z" />
    <glyph glyph-name="trademark" unicode="&#x2122;" 
d="M692 1415l-10 -57q-4 -20 -25 -21h-172l-104 -602q-4 -18 -25 -18h-57q-18 0 -14 18l106 602h-176q-18 0 -14 21l10 57q4 18 22 19h443q20 -1 16 -19zM836 1169l-76 -434q-4 -18 -23 -18h-53q-18 0 -14 18l118 680q4 18 23 19h66q23 0 22 -21l51 -328q4 -25 -4 -57h4
q8 37 19 57l166 330q10 18 28 19h68q18 0 14 -19l-119 -680q-4 -18 -22 -18h-53q-18 0 -15 18l76 434q2 18 16 56l-4 2q-16 -47 -20 -56l-143 -280q-10 -16 -29 -17h-21q-20 0 -20 17l-47 278v56h-4q0 -40 -4 -56z" />
    <glyph glyph-name="arrowleft" unicode="&#x2190;" 
d="M1055 655h-772l225 -206q23 -20 2 -41l-45 -46q-10 -10 -23 -10q-10 0 -20 10l-311 295q-23 23 -23 54v12q0 31 23 53l311 297q8 8 20 8q14 0 23 -10l45 -43q23 -23 -2 -43l-225 -207h772q25 0 24 -24v-74q1 -25 -24 -25z" />
    <glyph glyph-name="arrowup" unicode="&#x2191;" 
d="M522 246v772l-207 -225q-10 -10 -20 -11q-12 0 -21 11l-45 43q-25 20 0 43l295 313q20 20 54 20h12q29 0 53 -20l295 -313q25 -23 0 -43l-43 -43q-8 -10 -20.5 -10.5t-22.5 10.5l-207 227v-774q0 -25 -24 -25h-74q-25 0 -25 25z" />
    <glyph glyph-name="arrowright" unicode="&#x2192;" 
d="M885 655h-772q-25 0 -25 25v74q0 25 25 24h772l-226 207q-25 20 -2 43l45 43q8 10 23 10q12 0 20 -8l312 -297q23 -23 22 -53v-12q0 -31 -22 -54l-312 -295q-10 -10 -20 -10q-12 0 -23 10l-45 46q-20 20 2 41z" />
    <glyph glyph-name="arrowdown" unicode="&#x2193;" 
d="M645 1190v-774l207 225q8 10 20.5 10t20.5 -8l45 -45q25 -23 0 -43l-295 -311q-18 -23 -53 -23h-12q-31 0 -54 23l-295 311q-25 23 0 43l43 45q8 8 21 8q14 0 22 -10l207 -225v774q0 23 25 22h76q22 1 22 -22z" />
    <glyph glyph-name="uni2196" unicode="&#x2196;" 
d="M874 340l-546 547l12 -305q4 -31 -29 -31h-61q-33 0 -33 31l-10 428q0 33 20 53l11 10q20 20 53 21l430 -11q31 0 31 -30v-64q0 -29 -31 -28l-307 12l547 -547q16 -16 0 -33l-54 -53q-6 -8 -16.5 -8t-16.5 8z" />
    <glyph glyph-name="uni2197" unicode="&#x2197;" 
d="M207 428l547 547l-305 -14q-31 -4 -31 28l-2 64q0 31 30 30l431 11q29 0 53 -21l8 -10q23 -18 23 -51l-11 -430q0 -31 -32 -31h-62q-33 0 -29 31l13 305l-547 -547q-8 -8 -16.5 -8t-16.5 8l-53 53q-18 17 0 35z" />
    <glyph glyph-name="uni2198" unicode="&#x2198;" 
d="M293 1094l547 -547l-13 307q-4 31 29 31h62q33 0 32 -31l11 -430q0 -29 -21 -53l-10 -9q-18 -23 -53 -22l-431 10q-31 4 -30 33v61q0 33 30 29l308 -12l-547 547q-18 16 0 34l53 52q6 8 16.5 8t16.5 -8z" />
    <glyph glyph-name="uni2199" unicode="&#x2199;" 
d="M961 1008l-547 -547l305 14q31 0 31 -31l2 -61q0 -29 -31 -33l-430 -10q-29 0 -53 20l-9 11q-23 23 -22 53l10 430q0 31 33 31h61q33 0 29 -31l-12 -307l546 547q6 8 16.5 8t16.5 -8l54 -54q16 -16 0 -32z" />
    <glyph glyph-name="minus" unicode="&#x2212;" 
d="M262 686v76q0 31 31 31h581q31 0 31 -31v-76q0 -31 -31 -31h-581q-31 0 -31 31z" />
    <glyph glyph-name="approxequal" unicode="&#x2248;" 
d="M266 756v90q0 23 21 37l55 37q47 29 102 28q37 0 74 -16l164 -68q25 -10 47 -10q39 0 66 18l86 56q8 4 10 4q10 0 10 -14v-93q0 -23 -20 -37l-56 -34q-47 -29 -102 -29q-43 0 -74 14l-164 70q-18 8 -47 8q-41 0 -65 -18l-86 -56q-8 -4 -11 -4q-10 1 -10 17zM266 467v92
q0 23 21 37l55 37q45 27 100 26q41 0 76 -14l164 -67q18 -10 49 -11q35 0 64 17l86 55q4 4 10 4q10 0 10 -14v-92q0 -23 -20 -37l-56 -35q-47 -29 -102 -29q-37 0 -74 17l-164 67q-18 10 -47 10q-37 0 -65 -18l-86 -55q-4 -4 -11 -4q-10 0 -10 14z" />
    <glyph glyph-name="notequal" unicode="&#x2260;" 
d="M600 948l64 170q6 16 22 17q6 0 8 -2l70 -27q27 -8 14 -31l-47 -127h143q31 0 31 -30v-74q0 -31 -31 -31h-192l-66 -178h258q31 0 31 -31v-76q0 -31 -31 -30h-309l-61 -170q-6 -16 -23 -17h-4q-2 2 -4 2l-72 27q-20 10 -14 31l47 127h-141q-31 0 -31 30v76q0 31 31 31
h192l66 178h-258q-31 0 -31 31v74q0 31 31 30h307z" />
    <glyph glyph-name="lessequal" unicode="&#x2264;" 
d="M262 236v75q0 31 31 31h581q31 0 31 -31v-75q0 -31 -31 -31h-581q-31 0 -31 31zM889 1047l-408 -234l408 -233q27 -16 10 -43l-35 -66q-8 -14 -26 -14q-10 0 -17 4l-532 305q-27 18 -27 47q0 31 27 45l532 307q12 4 17 4q16 0 26 -16l35 -66q17 -26 -10 -40z" />
    <glyph glyph-name="greaterequal" unicode="&#x2265;" 
d="M686 813l-407 234q-27 14 -11 40l35 66q10 16 27 16q4 0 16 -4l533 -307q27 -14 26 -45q0 -29 -26 -47l-533 -305q-6 -4 -16 -4q-18 0 -27 14l-35 66q-16 27 11 43zM905 311v-75q0 -31 -31 -31h-581q-31 0 -31 31v75q0 31 31 31h581q31 0 31 -31z" />
    <glyph glyph-name="uniFB01" unicode="&#xfb01;" 
d="M129 1020l10 76q4 31 35 30h191l12 62q18 111 97 178.5t190 67.5h192q31 0 27 -31l-11 -76q-4 -31 -34 -31h-193q-47 0 -82 -28.5t-43 -73.5l-12 -68h293q33 0 26 -30l-8 -76q-6 -31 -37 -31h-299l-225 -1265q-4 -31 -35 -31h-82q-31 0 -26 31l225 1265h-184
q-31 0 -27 31zM1018 1126h82q31 0 26 -30l-190 -1065q-4 -31 -35 -31h-82q-31 0 -26 31l190 1065q4 30 35 30zM979 1313l20 129q6 47 54 47h137q45 0 39 -47l-23 -129q-6 -45 -51 -45h-137q-45 0 -39 45z" />
    <glyph glyph-name="uniFB02" unicode="&#xfb02;" 
d="M125 1020l12 76q6 31 37 30h188l11 62q20 111 100 178.5t191 67.5h192q31 0 25 -31l-13 -76q-6 -31 -37 -31h-192q-47 0 -80 -28.5t-41 -73.5l-12 -68h295q31 0 26 -30l-14 -76q-4 -31 -35 -31h-297l-223 -1265q-4 -31 -35 -31h-82q-31 0 -26 31l223 1265h-188
q-31 0 -25 31zM1071 1434h82q31 0 27 -31l-244 -1372q-4 -31 -35 -31h-82q-31 0 -26 31l243 1372q4 31 35 31z" />
    <glyph glyph-name="glyph487" 
d="M360 -289l58 187q10 33 43 32h59q33 0 19 -32l-82 -187q-10 -25 -37 -24h-41q-25 -1 -19 24z" />
    <glyph glyph-name="a.sc" 
d="M342 334h403l-102 504q-2 10 4 75h-6q-4 -49 -20 -75zM770 205h-500l-100 -180q-14 -25 -39 -25h-80q-29 0 -14 25l584 1095q14 27 38 27h54q27 0 30 -25l197 -1097q4 -25 -22 -25h-80q-27 0 -31 25z" />
    <glyph glyph-name="ae.sc" 
d="M307 334h260l99 553q6 37 20 76h-4q-14 -37 -31 -72zM545 205h-318l-110 -180q-14 -25 -37 -25h-86q-29 0 -14 25l675 1095q6 27 37 27h453q27 0 22 -27l-12 -76q-6 -27 -33 -26h-305l-74 -426h222q27 0 22 -27l-14 -76q-4 -27 -31 -26h-221l-59 -334h305q27 0 22 -27
l-14 -75q-4 -27 -31 -27h-409q-27 0 -21 27z" />
    <glyph glyph-name="b.sc" 
d="M813 213l39 227q6 37 -19.5 59.5t-72.5 22.5h-441l-69 -393h440q47 0 81 23.5t42 60.5zM807 1018h-401l-64 -367h401q47 0 81 22.5t40 59.5l37 203q6 35 -19.5 58.5t-74.5 23.5zM975 403l-33 -184q-16 -98 -94 -158.5t-186 -60.5h-539q-27 0 -21 27l193 1093q4 27 31 27
h499q109 0 165.5 -60.5t39.5 -156.5l-29 -160q-18 -111 -120 -174q119 -54 94 -193z" />
    <glyph glyph-name="c.sc" 
d="M541 1155h293q111 0 167 -60.5t39 -158.5l-20 -107q-4 -25 -31 -24h-74q-27 0 -24 24l20 113q6 37 -19.5 59.5t-74.5 22.5h-303q-49 0 -83 -22.5t-40 -59.5l-131 -737q-6 -37 19.5 -59.5t74.5 -22.5h303q51 0 84 22.5t39 59.5l21 112q4 27 33 27h75q27 0 21 -27l-19 -106
q-16 -98 -94 -158.5t-188 -60.5h-293q-109 0 -165 60.5t-40 158.5l129 725q16 98 94 158.5t187 60.5z" />
    <glyph glyph-name="d.sc" 
d="M403 1018l-155 -889h411q49 0 83 23.5t40 60.5l127 723q6 37 -19.5 59.5t-74.5 22.5h-412zM98 27l193 1093q6 27 33 27h510q109 0 165 -60.5t39 -158.5l-125 -709q-16 -98 -94 -158.5t-188 -60.5h-510q-27 0 -23 27z" />
    <glyph glyph-name="dcroat.sc" 
d="M541 530h-228l-71 -401h413q49 0 83 23.5t42 60.5l127 723q6 35 -20.5 58.5t-73.5 23.5h-414l-67 -383h229q25 0 21 -27l-11 -53q-3 -25 -30 -25zM55 555l11 53q4 27 30 27h107l84 485q6 27 32 27h510q109 0 166.5 -60.5t38.5 -158.5l-125 -709q-16 -98 -94 -158.5
t-188 -60.5h-510q-27 0 -23 27l88 503h-104q-27 0 -23 25z" />
    <glyph glyph-name="thorn.sc" 
d="M778 805h-411l-78 -438h411q109 0 123 84l49 272q6 37 -19.5 59.5t-74.5 22.5zM389 934h406q111 0 167 -59.5t39 -159.5l-47 -258q-16 -98 -94 -158.5t-188 -60.5h-406l-37 -211q-6 -27 -32 -27h-76q-27 0 -23 27l193 1093q6 27 33 27h75q27 0 23 -27z" />
    <glyph glyph-name="e.sc" 
d="M98 27l193 1093q6 27 33 27h727q27 0 20 -27l-12 -76q-4 -27 -31 -26h-625l-75 -426h456q27 0 23 -27l-14 -76q-4 -27 -31 -26h-457l-57 -334h622q27 0 23 -27l-14 -75q-4 -27 -31 -27h-727q-27 0 -23 27z" />
    <glyph glyph-name="f.sc" 
d="M330 592h454q27 0 23 -27l-14 -76q-4 -27 -31 -26h-457l-76 -436q-4 -27 -28 -27h-80q-27 0 -23 27l193 1093q6 27 33 27h727q27 0 20 -27l-12 -76q-4 -27 -31 -26h-625z" />
    <glyph glyph-name="g.sc" 
d="M614 598h338q29 0 23 -27l-64 -360q-16 -98 -94 -158.5t-188 -60.5h-293q-109 0 -165 60.5t-40 158.5l129 725q16 98 94 158.5t187 60.5h293q111 0 167 -60.5t39 -158.5l-20 -107q-4 -25 -31 -24h-74q-27 0 -24 24l20 113q6 37 -19.5 59.5t-74.5 22.5h-303
q-49 0 -83 -22.5t-40 -59.5l-131 -737q-6 -37 19.5 -59.5t74.5 -22.5h303q51 0 84 22.5t39 59.5l47 264h-235q-27 0 -21 27l13 75q5 27 30 27z" />
    <glyph glyph-name="h.sc" 
d="M98 27l193 1093q6 27 33 27h75q27 0 23 -27l-94 -528h522l92 528q4 27 33 27h76q27 0 20 -27l-192 -1093q-4 -27 -31 -27h-76q-27 0 -22 27l77 436h-522l-76 -436q-6 -27 -32 -27h-76q-27 0 -23 27z" />
    <glyph glyph-name="hbar.sc" 
d="M850 592l45 256h-522l-45 -256h522zM973 1147h78q27 0 20 -27l-29 -166h107q27 0 20 -26l-8 -54q-6 -27 -33 -26h-104l-145 -821q-4 -27 -31 -27h-76q-27 0 -22 27l77 436h-522l-76 -436q-6 -27 -32 -27h-76q-27 0 -23 27l146 821h-105q-27 0 -22 26l10 54q4 27 31 26
h104l29 166q6 27 33 27h75q27 0 23 -27l-29 -166h520l29 166q4 27 31 27z" />
    <glyph glyph-name="dotlessi.sc" 
d="M100 27l13 71q8 27 32 27h297l158 897h-297q-27 0 -22 27l12 71q6 27 33 27h723q27 0 22 -27l-12 -71q-8 -27 -33 -27h-295l-160 -897h297q27 0 23 -27l-14 -71q-4 -27 -31 -27h-723q-27 0 -23 27z" />
    <glyph glyph-name="ij.sc" 
d="M756 1147h293q27 0 22 -27l-160 -907q-18 -98 -96 -157.5t-186 -59.5h-185q-109 0 -165 59.5t-39 157.5l12 68q4 27 31 26h77q27 0 21 -26l-12 -74q-6 -37 19.5 -59.5t74.5 -22.5h194q47 0 81 22.5t42 59.5l144 815h-189q-27 0 -22 27l12 69q8 29 31 29zM231 1147h277
q27 0 22 -29l-110 -622q-6 -27 -31 -27h-74q-27 0 -22 27l94 526h-178q-27 0 -23 27l13 69q5 29 32 29z" />
    <glyph glyph-name="j.sc" 
d="M584 1147h448q29 0 23 -27l-160 -909q-16 -98 -95 -158.5t-188 -60.5h-280q-109 0 -165 60.5t-40 158.5l12 68q4 27 31 26h76q29 0 22 -26l-12 -74q-6 -37 19.5 -59.5t74.5 -22.5h291q49 0 83 22.5t40 59.5l145 817h-348q-27 0 -22 27l12 71q6 27 33 27z" />
    <glyph glyph-name="k.sc" 
d="M543 532h-224l-88 -505q-6 -27 -30 -27h-78q-27 0 -23 27l195 1093q4 27 31 27h75q27 0 23 -27l-82 -465h223l408 469q18 23 45 23h94q8 0 12 -3t3 -8.5t-7 -11.5l-465 -530l303 -571q12 -23 -16 -23h-96q-25 0 -39 23z" />
    <glyph glyph-name="l.sc" 
d="M338 1147h78q27 0 20 -27l-174 -989h617q29 0 22 -27l-14 -77q-4 -27 -31 -27h-719q-29 0 -22 27l192 1093q4 27 31 27z" />
    <glyph glyph-name="lslash.sc" 
d="M47 471l156 74l102 575q4 27 31 27h76q27 0 22 -27l-90 -508l178 86q12 4 17 4q14 0 16 -12l18 -47q10 -23 -14 -37l-235 -112l-64 -363h617q29 0 22 -27l-12 -77q-6 -27 -33 -27h-721q-27 0 -20 27l69 397l-96 -45q-6 -4 -14 -4q-18 0 -21 14l-20 45q-7 25 16 37z" />
    <glyph glyph-name="m.sc" 
d="M295 1147h88q27 0 31 -25l151 -577q6 -27 -2 -76h6q10 51 25 76l356 577q14 25 39 25h88q27 0 23 -27l-193 -1093q-6 -27 -33 -27h-69q-27 0 -23 27l133 757q6 39 25 76l-8 2q-14 -51 -29 -74l-317 -503q-14 -25 -39 -25h-33q-23 0 -31 25l-141 503q-4 12 -4 40v34l-4 -2
q0 -6 -1 -34.5t-3 -41.5l-135 -757q-4 -27 -31 -27h-70q-29 0 -22 27l192 1093q4 27 31 27z" />
    <glyph glyph-name="n.sc" 
d="M324 1147h53q25 0 35 -23l374 -784q4 -8 6.5 -20.5t3.5 -28t3 -23.5h6q-4 51 0 76l137 776q4 27 31 27h78q27 0 20 -27l-192 -1093q-4 -27 -31 -27h-53q-25 0 -35 23l-375 780q-12 29 -12 71h-6q4 -51 0 -77l-138 -770q-4 -27 -30 -27h-78q-25 0 -21 27l193 1093
q4 27 31 27z" />
    <glyph glyph-name="eng.sc" 
d="M324 1147h53q23 0 33 -25l376 -788q8 -14 9 -74l6 2q-4 35 4 76l137 782q4 27 31 27h78q27 0 20 -27l-201 -1147q-18 -98 -96 -158.5t-186 -60.5h-158q-27 0 -22 27l14 76q4 27 31 26h163q47 0 82 23.5t41 58.5l17 94l-371 764q-10 33 -6 74l-4 -2q0 -4 -2 -32.5
t-4 -41.5l-140 -794q-6 -27 -32 -27h-76q-27 0 -23 27l193 1093q6 27 33 27z" />
    <glyph glyph-name="o.sc" 
d="M252 936q16 98 94 158.5t186 60.5h310q109 0 166 -60.5t41 -158.5l-129 -725q-16 -98 -95.5 -158.5t-187.5 -60.5h-309q-109 0 -165.5 60.5t-39.5 158.5zM383 942l-131 -737q-6 -37 19.5 -59.5t74.5 -22.5h322q47 0 80.5 22.5t39.5 59.5l132 737q6 37 -20 59.5t-75 22.5
h-319q-49 0 -83 -22.5t-40 -59.5z" />
    <glyph glyph-name="oslash.sc" 
d="M311 127l473 897h-280q-47 0 -81 -22.5t-40 -59.5l-131 -737q-11 -62 59 -78zM860 1022l-475 -899h283q47 0 80.5 22.5t39.5 59.5l132 737q10 64 -60 80zM217 -47l29 51q-72 20 -104.5 74.5t-18.5 132.5l129 725q16 98 94 158.5t186 60.5h322l33 62q6 12 20 12q4 0 6 -2
l31 -8q18 -6 10 -25l-28 -51q70 -20 103.5 -74.5t19.5 -132.5l-129 -725q-16 -98 -95.5 -158.5t-187.5 -60.5h-322l-32 -62q-6 -12 -25 -12l-33 10q-18 9 -8 25z" />
    <glyph glyph-name="oe.sc" 
d="M307 942l-129 -737q-6 -37 19.5 -59.5t74.5 -22.5h166q47 0 81 22.5t40 59.5l131 737q6 37 -19.5 59.5t-74.5 22.5h-166q-47 0 -81 -22.5t-42 -59.5zM758 592l61 344zM1149 1018h-315l-76 -426h235q27 0 23 -27l-15 -76q-4 -27 -30 -26h-236l-59 -334h317q27 0 23 -27
l-15 -75q-4 -27 -30 -27h-420q-14 0 -23 14q-55 -23 -118 -22h-156q-109 0 -165 60.5t-40 158.5l127 725q18 98 96 158.5t187 60.5h155q61 0 113 -22q6 14 27 14h417q29 0 25 -27l-14 -76q-4 -26 -33 -26z" />
    <glyph glyph-name="p.sc" 
d="M817 1018h-411l-78 -438h411q49 0 83 22.5t40 59.5l49 274q6 35 -20.5 58.5t-73.5 23.5zM324 1147h510q109 0 166 -60.5t38 -158.5l-45 -260q-16 -98 -95 -157.5t-187 -59.5h-406l-76 -424q-4 -27 -30 -27h-78q-25 0 -21 27l193 1093q6 27 31 27z" />
    <glyph glyph-name="q.sc" 
d="M383 942l-129 -731q-8 -37 18.5 -59.5t73.5 -22.5h322q47 0 81.5 22.5t41.5 59.5l129 731q6 37 -20 59.5t-75 22.5h-319q-49 0 -83 -22.5t-40 -59.5zM750 -129l-11 -61q-6 -27 -30 -27h-84q-104 0 -164 51t-45 139l4 25h-90q-111 0 -167.5 60.5t-37.5 158.5l127 719
q16 98 94 158.5t186 60.5h310q109 0 166 -60.5t41 -158.5l-127 -719q-18 -98 -96 -158.5t-187 -60.5h-94l-6 -31q-6 -33 25.5 -50t80.5 -17h84q10 0 16.5 -8.5t4.5 -20.5z" />
    <glyph glyph-name="r.sc" 
d="M831 1018h-425l-76 -430h426q49 0 82.5 22.5t40.5 59.5l47 266q6 35 -20 58.5t-75 23.5zM791 25l-138 434h-346l-78 -432q-4 -27 -30 -27h-76q-27 0 -23 27l193 1093q4 27 31 27h526q109 0 165 -60.5t40 -158.5l-45 -250q-14 -84 -72.5 -140.5t-144.5 -72.5l131 -440
q4 -25 -25 -25h-80q-24 0 -28 25z" />
    <glyph glyph-name="s.sc" 
d="M248 821l20 115q16 98 94 158.5t187 60.5h274q111 0 167.5 -60.5t39.5 -158.5l-20 -107q-2 -25 -31 -24h-74q-29 0 -24 24l20 113q6 37 -19.5 59.5t-74.5 22.5h-287q-47 0 -80.5 -22.5t-40.5 -59.5l-20 -106q-6 -41 39 -70l442 -268q39 -25 58.5 -68t11.5 -88l-23 -131
q-18 -98 -96 -158.5t-186 -60.5h-295q-111 0 -167.5 60.5t-39.5 158.5l20 104q4 27 31 27l76 2q27 0 22 -27l-20 -112q-6 -37 20.5 -59.5t73.5 -22.5h307q49 0 83 22.5t40 59.5l23 125q6 39 -39 67l-443 269q-39 25 -58 67.5t-11 87.5z" />
    <glyph glyph-name="t.sc" 
d="M260 1147h852q27 0 23 -27l-15 -76q-4 -27 -30 -26h-363l-174 -991q-4 -27 -31 -27h-76q-29 0 -22 27l174 991h-360q-27 0 -23 26l14 76q4 27 31 27z" />
    <glyph glyph-name="tbar.sc" 
d="M340 643h192l66 375h-360q-27 0 -23 26l14 76q4 27 31 27h852q27 0 23 -27l-15 -76q-4 -27 -30 -26h-363l-65 -375h194q27 0 23 -27l-11 -53q-4 -27 -30 -26h-195l-90 -510q-4 -27 -31 -27h-76q-29 0 -22 27l90 510h-192q-27 0 -23 26l10 53q4 27 31 27z" />
    <glyph glyph-name="u.sc" 
d="M317 1147h76q27 0 23 -27l-162 -915q-6 -37 19.5 -59.5t74.5 -22.5h316q49 0 82.5 22.5t39.5 59.5l162 915q4 27 31 27h78q27 0 20 -27l-159 -909q-16 -98 -95.5 -158.5t-187.5 -60.5h-305q-109 0 -165 60.5t-40 158.5l160 909q5 27 32 27z" />
    <glyph glyph-name="v.sc" 
d="M252 1147h82q27 0 31 -25l163 -813q4 -20 -6 -76h6q10 55 21 76l452 813q14 25 39 25h78q27 0 17 -27l-584 -1095q-14 -25 -41 -25h-51q-27 0 -31 27l-199 1095q-4 25 23 25z" />
    <glyph glyph-name="w.sc" 
d="M743 1120l5 -772q-2 -37 -11 -76h4q10 59 17 76l293 772q6 27 32 27h80q25 0 19 -25l-424 -1095q-10 -27 -37 -27h-55q-27 0 -27 25l-14 751q0 8 12 76h-8q-12 -66 -17 -76l-276 -749q-10 -27 -35 -27h-55q-29 0 -29 27l-37 1093q0 27 27 27h80q25 0 24 -25l17 -774
q2 -20 -9 -76h5q8 41 16 74l278 774q10 27 35 27h64q22 0 26 -27z" />
    <glyph glyph-name="x.sc" 
d="M270 1147h92q27 0 35 -23l201 -370q12 -31 4 -74h4q14 53 29 72l330 372q18 23 45 23h94q27 0 8 -23l-438 -526l270 -575q8 -23 -18 -23h-92q-27 0 -37 23l-215 421q-8 16 -4 72h-5q-8 -45 -28 -72l-365 -421q-18 -23 -43 -23h-92q-29 0 -10 23l473 575l-256 526
q-9 23 18 23z" />
    <glyph glyph-name="y.sc" 
d="M266 1147h84q25 0 33 -23l199 -477q10 -27 2 -74h6q8 49 26 74l365 477q18 23 43 23h86q12 0 16 -6t-4 -17l-491 -673l-76 -424q-4 -27 -31 -27h-75q-29 0 -23 27l74 424l-256 673q-9 23 22 23z" />
    <glyph glyph-name="z.sc" 
d="M319 1147h740q27 0 22 -27l-14 -76q-4 -29 -20 -49l-787 -866h617q27 0 20 -27l-12 -75q-6 -27 -31 -27h-743q-27 0 -23 27l14 75q4 27 23 50l786 866h-614q-27 0 -23 26l15 76q3 27 30 27z" />
    <glyph glyph-name="uni01DD.sc" 
d="M354 123h303q51 0 84 22.5t39 59.5l51 280h-522l-49 -280q-6 -37 19.5 -59.5t74.5 -22.5zM541 1153h293q111 0 167 -60.5t39 -156.5l-129 -725q-16 -98 -94 -158.5t-188 -60.5h-293q-109 0 -165 60.5t-40 158.5l68 379q4 27 30 26h625l57 324q6 39 -19.5 60.5t-74.5 21.5
h-305q-49 0 -82 -21.5t-41 -60.5l-16 -94q-4 -27 -31 -27h-76q-29 0 -22 27l16 90q16 96 94 156.5t187 60.5z" />
    <glyph glyph-name="germandbls.sc" 
d="M535 1147h487q31 0 12 -25l-327 -430h77q88 0 133.5 -54t28.5 -142l-51 -295q-14 -90 -87 -145.5t-175 -55.5h-170q-29 0 -23 27l13 71q4 27 32 27h158q109 0 125 94l49 277q8 41 -23.5 67.5t-88.5 26.5h-121q-29 0 -23 26l10 64q10 39 21 51l248 291h-322
q-47 0 -78.5 -20.5t-36.5 -55.5l-163 -919q-4 -27 -31 -27h-76q-27 0 -22 27l161 919q16 90 88.5 145.5t174.5 55.5z" />
    <glyph glyph-name="aacute.sc" 
d="M342 334h403l-102 504q-2 10 4 75h-6q-4 -49 -20 -75zM770 205h-500l-100 -180q-14 -25 -39 -25h-80q-29 0 -14 25l584 1095q14 27 38 27h54q27 0 30 -25l197 -1097q4 -25 -22 -25h-80q-27 0 -31 25zM651 1249l119 170q12 18 37 19h127q23 0 2 -17l-174 -176
q-16 -16 -43 -16h-57q-21 0 -11 20z" />
    <glyph glyph-name="abreve.sc" 
d="M342 334h403l-102 504q-2 10 4 75h-6q-4 -49 -20 -75zM770 205h-500l-100 -180q-14 -25 -39 -25h-80q-29 0 -14 25l584 1095q14 27 38 27h54q27 0 30 -25l197 -1097q4 -25 -22 -25h-80q-27 0 -31 25zM913 1393l-4 -21q-14 -66 -62 -104.5t-112 -38.5h-67q-66 0 -99.5 39
t-23.5 104l4 21q4 23 26 22h48q23 0 22 -22l-2 -31q-4 -41 37 -41h78q39 0 49 41l10 31q6 23 33 22h45q24 1 18 -22z" />
    <glyph glyph-name="acircumflex.sc" 
d="M342 334h403l-102 504q-2 10 4 75h-6q-4 -49 -20 -75zM770 205h-500l-100 -180q-14 -25 -39 -25h-80q-29 0 -14 25l584 1095q14 27 38 27h54q27 0 30 -25l197 -1097q4 -25 -22 -25h-80q-27 0 -31 25zM809 1409l90 -156q14 -18 -12 -18h-78q-23 0 -33 20l-51 95l-90 -95
q-16 -20 -41 -20h-74q-25 0 -6 18l145 156q16 18 41 18h74q25 0 35 -18z" />
    <glyph glyph-name="agrave.sc" 
d="M342 334h403l-102 504q-2 10 4 75h-6q-4 -49 -20 -75zM770 205h-500l-100 -180q-14 -25 -39 -25h-80q-29 0 -14 25l584 1095q14 27 38 27h54q27 0 30 -25l197 -1097q4 -25 -22 -25h-80q-27 0 -31 25zM702 1419l58 -170q6 -20 -17 -20h-57q-27 0 -39 16l-110 176
q-16 16 10 17h125q24 -1 30 -19z" />
    <glyph glyph-name="adieresis.sc" 
d="M342 334h403l-102 504q-2 10 4 75h-6q-4 -49 -20 -75zM770 205h-500l-100 -180q-14 -25 -39 -25h-80q-29 0 -14 25l584 1095q14 27 38 27h54q27 0 30 -25l197 -1097q4 -25 -22 -25h-80q-27 0 -31 25zM467 1292l10 54q10 49 60 49h51q49 0 43 -49l-10 -54q-6 -49 -60 -49
h-51q-49 0 -43 49zM807 1292l10 54q10 49 57 49h54q23 0 34 -13.5t7 -35.5l-8 -54q-10 -49 -60 -49h-53q-47 0 -41 49z" />
    <glyph glyph-name="amacron.sc" 
d="M342 334h403l-102 504q-2 10 4 75h-6q-4 -49 -20 -75zM770 205h-500l-100 -180q-14 -25 -39 -25h-80q-29 0 -14 25l584 1095q14 27 38 27h54q27 0 30 -25l197 -1097q4 -25 -22 -25h-80q-27 0 -31 25zM532 1290l11 56q4 23 28 22h314q23 0 18 -22l-10 -56q-4 -25 -27 -24
h-313q-25 -1 -21 24z" />
    <glyph glyph-name="aring.sc" 
d="M342 334h403l-102 504q-2 10 4 75h-6q-4 -49 -20 -75zM657.5 1327q-4.5 -27 12 -46t43 -19t50 19t30.5 46q4 27 -12.5 47.5t-43.5 20.5q-29 0 -52 -20.5t-27.5 -47.5zM770 205h-500l-100 -180q-14 -25 -39 -25h-80q-29 0 -14 25l584 1095q14 27 38 27h54q27 0 30 -25
l197 -1097q4 -25 -22 -25h-80q-27 0 -31 25zM581.5 1327q10.5 59 59.5 101t108.5 42t94.5 -42t24.5 -101t-60.5 -101t-108 -42q-59 0 -94 42t-24.5 101z" />
    <glyph glyph-name="atilde.sc" 
d="M342 334h403l-102 504q-2 10 4 75h-6q-4 -49 -20 -75zM770 205h-500l-100 -180q-14 -25 -39 -25h-80q-29 0 -14 25l584 1095q14 27 38 27h54q27 0 30 -25l197 -1097q4 -25 -22 -25h-80q-27 0 -31 25zM483 1266l11 59q6 35 59 56.5t96 21.5q37 0 64 -14l67 -33
q14 -8 37 -8q63 0 127 41q8 4 10 4q10 0 7 -15l-11 -61q-6 -35 -57 -54.5t-96 -19.5q-35 0 -66 12l-65 35q-14 6 -37 6q-63 0 -127 -41q-6 -4 -13 -4q-8 1 -6 15z" />
    <glyph glyph-name="aogonek.sc" 
d="M342 334h401l-100 504q-2 10 4 75h-6q-4 -49 -20 -75zM831 0q-20 0 -24 23l-37 182h-500l-100 -180q-14 -25 -39 -25h-80q-29 0 -14 25l584 1095q14 27 38 27h54q27 0 30 -25l197 -1099q4 -23 -20 -23q-74 -78 -93 -143q-12 -35 19 -35h84q23 0 18 -23l-6 -35
q-4 -25 -27 -24h-108q-39 0 -59.5 23.5t-14.5 64.5q18 96 98 172z" />
    </font>
</defs>
</svg>
