<?xml version="1.0" standalone="no"?>
<!DOCTYPE svg PUBLIC "-//W3C//DTD SVG 1.1//EN" "http://www.w3.org/Graphics/SVG/1.1/DTD/svg11.dtd" >
<svg xmlns="http://www.w3.org/2000/svg" xmlns:xlink="http://www.w3.org/1999/xlink" version="1.1">
<metadata>
Created by FontForge 20170731 at Mon May 14 08:42:19 2018
 By Aleksey,,,
Copyright (c) 2018 by Oleh Lishchuk. All rights reserved.
</metadata>
<defs>
<font id="VinMonoPro-Thin" horiz-adv-x="1167" >
  <font-face 
    font-family="Vin Mono Pro Thin"
    font-weight="200"
    font-stretch="normal"
    units-per-em="2048"
    panose-1="0 0 0 0 0 0 0 0 0 0"
    ascent="1638"
    descent="-410"
    x-height="1126"
    cap-height="1434"
    bbox="0 -354 1249 1792"
    underline-thickness="0"
    underline-position="0"
    unicode-range="U+0020-FB02"
  />
<missing-glyph 
 />
    <glyph glyph-name=".notdef" 
 />
    <glyph glyph-name="glyph1" horiz-adv-x="0" 
 />
    <glyph glyph-name="glyph2" 
 />
    <glyph glyph-name="space" unicode=" " 
 />
    <glyph glyph-name="exclam" unicode="!" 
d="M565 369l-18 1054q0 10 10 11h53q10 0 11 -11l-19 -1054q0 -10 -10 -11h-17q-10 1 -10 11zM500 16v131q0 16 16 17h131q16 0 17 -17v-131q0 -16 -17 -16h-131q-16 0 -16 16z" />
    <glyph glyph-name="quotedbl" unicode="&#x22;" 
d="M449 1075l-7 348q0 10 11 11h49q10 0 10 -11l-6 -348q0 -10 -10 -10h-37q-10 0 -10 10zM662 1075l-7 348q0 10 11 11h49q10 0 10 -11l-6 -348q0 -10 -10 -10h-37q-10 0 -10 10z" />
    <glyph glyph-name="numbersign" unicode="#" 
d="M354 461h369l92 512h-369zM39 430v21q0 10 10 10h264l93 512h-254q-10 0 -11 10v21q0 10 11 10h260l71 409q4 10 13 11h20q12 0 8 -11l-71 -409h368l74 409q0 10 12 11h21q8 0 8 -11l-74 -409h258q10 0 10 -10v-21q0 -10 -10 -10h-264l-92 -512h254q10 0 10 -10v-21
q0 -10 -10 -10h-260l-74 -410q0 -10 -10 -10h-21q-10 0 -10 10l74 410h-369l-72 -410q-4 -10 -12 -10h-20q-12 0 -8 10l71 410h-258q-10 0 -10 10z" />
    <glyph glyph-name="dollar" unicode="$" 
d="M563 -180v174h-170q-92 0 -148.5 56t-56.5 149v159q0 10 11 11h20q10 0 10 -11v-159q0 -74 45 -119t119 -45h381q74 0 119 45t45 119v194q0 94 -78 142l-569 354q-92 57 -92 166v180q0 92 56 148.5t148 56.5h160v174q0 10 10 10h21q10 0 10 -10v-174h160
q92 0 148.5 -56.5t56.5 -148.5v-160q0 -10 -11 -10h-20q-10 0 -10 10v160q0 74 -45 119t-119 45h-361q-74 0 -118.5 -45t-44.5 -119v-172q0 -94 77 -141l570 -357q92 -57 92 -166v-200q0 -92 -56.5 -148.5t-148.5 -56.5h-170v-174q0 -10 -10 -10h-21q-10 0 -10 10z" />
    <glyph glyph-name="percent" unicode="%" 
d="M59 434l1028 563q2 2 6.5 2t8.5 -6l10 -16q6 -10 -4 -14l-1028 -564q-2 -2 -6 -2t-8 6l-11 17q-6 10 4 14zM102 1235v-279q0 -74 45.5 -118.5t118.5 -44.5h21q74 0 119 45t45 118v279q0 74 -45.5 119t-118.5 45h-21q-74 0 -119 -45t-45 -119zM61 956v279q0 92 56.5 148.5
t148.5 56.5h21q92 0 148.5 -56.5t56.5 -148.5v-279q0 -92 -56.5 -148t-148.5 -56h-21q-92 0 -148.5 56t-56.5 148zM676 199v278q0 92 56 148.5t149 56.5h20q92 0 148.5 -56.5t56.5 -148.5v-278q0 -92 -56.5 -148.5t-148.5 -56.5h-20q-92 0 -148.5 56.5t-56.5 148.5zM717 477
v-278q0 -74 45 -119t119 -45h20q74 0 119 45t45 119v278q0 74 -45 119t-119 45h-20q-74 0 -119 -45t-45 -119z" />
    <glyph glyph-name="ampersand" unicode="&#x26;" 
d="M399 41h301q74 0 119 45t45 119v549h-465q-74 0 -118.5 -45t-44.5 -119v-385q0 -74 44.5 -119t118.5 -45zM410 1434h270q92 0 148.5 -56.5t56.5 -146.5v-156q0 -10 -11 -10h-20q-10 0 -10 10v154q0 74 -45 119t-119 45h-270q-74 0 -119 -45t-45 -119v-275
q0 -74 45 -118.5t119 -44.5h649q10 0 10 -11v-16q0 -10 -10 -10h-154v-551q0 -90 -56 -146.5t-149 -56.5h-301q-92 0 -148 56.5t-56 146.5v385q0 139 116 186q-106 53 -106 182v275q0 90 56.5 146.5t148.5 56.5z" />
    <glyph glyph-name="quotesingle" unicode="'" 
d="M555 1075l-6 348q0 10 10 11h49q10 0 10 -11l-6 -348q0 -10 -10 -10h-37q-10 0 -10 10z" />
    <glyph glyph-name="parenleft" unicode="(" 
d="M729 1528l12 -17q6 -6 -2 -14l-145 -127q-41 -35 -66.5 -91t-25.5 -112v-1106q0 -55 25.5 -111t66.5 -91l145 -127q8 -8 2 -15l-12 -16q-4 -4 -8 -4t-6 2l-146 125q-49 43 -78.5 107.5t-29.5 129.5v1106q0 66 29.5 130.5t78.5 107.5l146 125q2 2 6 2t8 -4z" />
    <glyph glyph-name="parenright" unicode=")" 
d="M426 1511l12 17q4 4 8.5 4t6.5 -2l145 -125q49 -43 79 -107.5t30 -130.5v-1106q0 -66 -30 -130t-79 -107l-145 -125q-2 -2 -6.5 -2t-8.5 4l-12 16q-6 6 2 15l145 127q41 35 67 91t26 111v1106q0 55 -26 111.5t-67 91.5l-145 127q-8 8 -2 14z" />
    <glyph glyph-name="asterisk" unicode="*" 
d="M600 1208l203 72q8 2 12 -6l6 -21q4 -12 -6 -12l-205 -61l131 -170q4 -8 -4 -15l-16 -12q-2 -2 -6 -2t-8 4l-121 176l-123 -178q-4 -4 -6 -4q-4 0 -6 2l-19 14q-10 6 -2 15l129 168l-207 61q-10 0 -6 12l10 21q4 10 13 6l202 -70l-6 215q0 10 10 11h21q12 0 8 -11z" />
    <glyph glyph-name="plus" unicode="+" 
d="M563 696h-256q-10 0 -10 11v20q0 10 10 10h256v256q0 10 10 11h21q10 0 10 -11v-256h256q10 0 10 -10v-20q0 -10 -10 -11h-256v-256q0 -10 -10 -10h-21q-10 0 -10 10v256z" />
    <glyph glyph-name="comma" unicode="," 
d="M504 -256h-47q-16 0 -13 16l74 377q4 16 21 17h100q16 0 12 -17l-125 -377q-6 -16 -22 -16z" />
    <glyph glyph-name="hyphen" unicode="-" 
d="M358 614v21q0 10 11 10h430q10 0 10 -10v-21q0 -10 -10 -10h-430q-11 0 -11 10z" />
    <glyph glyph-name="period" unicode="." 
d="M502 16v131q0 16 16 17h131q16 0 17 -17v-131q0 -16 -17 -16h-131q-16 0 -16 16z" />
    <glyph glyph-name="slash" unicode="/" 
d="M231 -287l664 1817q2 6 14 6l19 -6q10 -4 6 -12l-664 -1819q-4 -10 -12 -6l-20 8q-9 4 -7 12z" />
    <glyph glyph-name="zero" unicode="0" 
d="M246 240q0 -92 56 -148.5t149 -56.5h266q92 0 148.5 56t56.5 149v954q0 92 -56.5 148.5t-148.5 56.5h-266q-92 0 -148.5 -56.5t-56.5 -148.5v-954zM205 240v954q0 111 67.5 178.5t178.5 67.5h266q111 0 178.5 -67.5t67.5 -178.5v-954q0 -111 -68 -178.5t-178 -67.5h-266
q-111 0 -178.5 67.5t-67.5 178.5zM502 655v123q0 20 20 21h123q20 0 21 -21v-123q0 -20 -21 -20h-123q-20 0 -20 20z" />
    <glyph glyph-name="one" unicode="1" 
d="M236 10v21q0 10 10 10h379v1343l-398 -192v27q0 10 9 14l387 197q8 4 18 4h14q10 0 11 -11v-1382h381q10 0 10 -10v-21q0 -10 -10 -10h-801q-10 0 -10 10z" />
    <glyph glyph-name="two" unicode="2" 
d="M203 10l2 199q4 82 65 133l586 467q51 41 51 106v279q0 92 -56 148.5t-149 56.5h-262q-92 0 -148 -56.5t-56 -148.5v-78q0 -10 -11 -10h-20q-10 0 -10 10v78q0 111 67.5 178.5t177.5 67.5h262q111 0 178.5 -67.5t67.5 -178.5v-283q0 -80 -63 -133l-586 -465
q-49 -39 -53 -106l-2 -166h725q10 0 10 -10v-21q0 -10 -10 -10h-756q-10 0 -10 10z" />
    <glyph glyph-name="three" unicode="3" 
d="M256 1106h-20q-10 0 -11 10v72q0 111 67.5 178.5t178.5 67.5h225q111 0 178.5 -68t67.5 -178v-209q0 -158 -129 -221q70 -25 110 -85.5t40 -144.5v-288q0 -111 -68 -178.5t-178 -67.5h-266q-111 0 -178.5 67.5t-67.5 178.5v71q0 10 10 11h21q10 0 10 -11v-71
q0 -92 56 -148.5t149 -56.5h266q92 0 148.5 56t56.5 149v288q0 92 -56.5 148.5t-148.5 56.5h-195q-10 0 -10 10v21q0 10 10 10h174q92 0 148.5 56.5t56.5 148.5v209q0 92 -56.5 148.5t-148.5 56.5h-225q-92 0 -148.5 -56.5t-56.5 -148.5v-72q0 -10 -10 -10z" />
    <glyph glyph-name="four" unicode="4" 
d="M793 10v348h-672q-10 0 -10 11v20q0 10 4 19l499 1017q4 8 15 9l30 -9l-503 -1026h637v492q0 10 10 10h20q10 0 11 -10v-492h180q10 0 10 -10v-20q0 -10 -10 -11h-180v-348q0 -10 -11 -10h-20q-10 0 -10 10z" />
    <glyph glyph-name="five" unicode="5" 
d="M205 240v71q0 10 10 11h21q10 0 10 -11v-71q0 -92 56 -148.5t149 -56.5h266q92 0 148.5 56t56.5 149v350q0 92 -56.5 148.5t-148.5 56.5h-463q-10 0 -10 10v618q0 10 10 11h659q10 0 11 -11v-20q0 -10 -11 -10h-628v-557h432q111 0 178.5 -68t67.5 -178v-350
q0 -111 -68 -178.5t-178 -67.5h-266q-111 0 -178.5 67.5t-67.5 178.5z" />
    <glyph glyph-name="six" unicode="6" 
d="M246 606v-360q0 -92 56 -148.5t149 -56.5h266q92 0 148.5 56.5t56.5 148.5v360q0 92 -56.5 148.5t-148.5 56.5h-266q-92 0 -148.5 -56.5t-56.5 -148.5zM451 1446h251q111 0 178.5 -67.5t67.5 -178.5v-78q0 -10 -10 -10h-20q-10 0 -11 10v78q0 92 -56 148.5t-149 56.5
h-251q-92 0 -148.5 -56.5t-56.5 -148.5v-448q68 100 205 100h266q111 0 178.5 -67.5t67.5 -178.5v-360q0 -111 -68 -178.5t-178 -67.5h-266q-111 0 -178.5 67.5t-67.5 178.5v954q0 111 67.5 178.5t178.5 67.5z" />
    <glyph glyph-name="seven" unicode="7" 
d="M133 1434h842q10 0 10 -11v-20q0 -8 -4 -21l-395 -815q-4 -12 -4 -20v-537q0 -10 -11 -10h-20q-10 0 -10 10v545q0 8 4 20l395 818h-807q-10 0 -10 10v20q0 11 10 11z" />
    <glyph glyph-name="eight" unicode="8" 
d="M717 754h-266q-92 0 -148.5 -56.5t-56.5 -148.5v-309q0 -92 56 -148.5t149 -56.5h266q92 0 148.5 56t56.5 149v309q0 92 -56.5 148.5t-148.5 56.5zM266 1188v-189q0 -92 56.5 -148t148.5 -56h225q92 0 148.5 56t56.5 148v189q0 92 -56.5 148.5t-148.5 56.5h-225
q-92 0 -148.5 -56.5t-56.5 -148.5zM225 999v189q0 111 67.5 178.5t178.5 67.5h225q111 0 178.5 -68t67.5 -178v-189q0 -158 -129 -221q70 -25 110 -85t40 -144v-309q0 -111 -68 -178.5t-178 -67.5h-266q-111 0 -178.5 67.5t-67.5 178.5v309q0 84 40 144.5t109 84.5
q-129 63 -129 221z" />
    <glyph glyph-name="nine" unicode="9" 
d="M717 1399h-266q-92 0 -148.5 -56.5t-56.5 -148.5v-350q0 -92 56 -148.5t149 -56.5h266q92 0 148.5 56.5t56.5 148.5v350q0 92 -56.5 148.5t-148.5 56.5zM205 844v350q0 111 67.5 178.5t178.5 67.5h266q111 0 178.5 -67.5t67.5 -178.5v-954q0 -111 -68 -178.5t-178 -67.5
h-262q-111 0 -178.5 67.5t-67.5 178.5v77q0 10 10 11h21q10 0 10 -11v-77q0 -92 56 -148.5t149 -56.5h262q92 0 148.5 56t56.5 149v458q-68 -100 -205 -100h-266q-111 0 -178.5 67.5t-67.5 178.5z" />
    <glyph glyph-name="colon" unicode=":" 
d="M502 16v131q0 16 16 17h131q16 0 17 -17v-131q0 -16 -17 -16h-131q-16 0 -16 16zM502 979v131q0 16 16 16h131q16 0 17 -16v-131q0 -16 -17 -16h-131q-16 0 -16 16z" />
    <glyph glyph-name="semicolon" unicode=";" 
d="M502 979v131q0 16 16 16h131q16 0 17 -16v-131q0 -16 -17 -16h-131q-16 0 -16 16zM504 -256h-47q-16 0 -13 16l74 377q4 16 21 17h100q16 0 12 -17l-125 -377q-6 -16 -22 -16z" />
    <glyph glyph-name="less" unicode="&#x3c;" 
d="M864 1008l-504 -291l504 -291q8 -6 4 -14l-10 -19q-4 -4 -8 -4t-6 2l-539 311q-8 4 -8 14.5t8 14.5l539 313q2 2 6 3q6 0 8 -7l10 -18q4 -10 -4 -14z" />
    <glyph glyph-name="equal" unicode="=" 
d="M297 563v21q0 10 10 10h553q10 0 10 -10v-21q0 -10 -10 -10h-553q-10 0 -10 10zM297 850v20q0 10 10 11h553q10 0 10 -11v-20q0 -10 -10 -10h-553q-10 0 -10 10z" />
    <glyph glyph-name="greater" unicode="&#x3e;" 
d="M807 717l-504 291q-8 4 -4 14l10 18q2 6 8 7q4 0 7 -3l538 -313q8 -4 8 -14t-8 -15l-538 -311q-2 -2 -6.5 -2t-8.5 4l-10 19q-4 8 4 14z" />
    <glyph glyph-name="question" unicode="?" 
d="M934 1235v-195q0 -106 -80 -182l-205 -190q-68 -63 -67 -156v-143q0 -10 -11 -11h-20q-10 0 -10 11v145q0 106 80 182l204 189q68 63 68 155v195q0 74 -45 119t-119 45h-301q-72 0 -113 -44t-41 -120v-160q0 -10 -10 -10h-20q-10 0 -11 10v160q0 94 52.5 149.5
t142.5 55.5h301q92 0 148.5 -56.5t56.5 -148.5zM487 16v131q0 16 17 17h131q16 0 16 -17v-131q0 -16 -16 -16h-131q-17 0 -17 16z" />
    <glyph glyph-name="at" unicode="@" 
d="M637 252v561q-205 139 -315 139q-70 0 -113 -45t-43 -119v-512q0 -74 43 -118.5t113 -44.5q110 0 315 139zM637 860v113q0 10 10 10h21q10 0 10 -10v-758q0 -55 33.5 -89t89.5 -34h78q55 0 88.5 34t33.5 89v645q0 156 -95 252t-253 96h-522q-10 0 -10 11v20q0 10 10 10
h522q174 0 281.5 -106.5t107.5 -282.5v-645q0 -74 -45 -119t-118 -45h-78q-72 0 -117 42t-47 112q-186 -133 -320 -133q-82 0 -137 57t-55 147v512q0 90 55.5 147.5t136.5 57.5q134 0 320 -133z" />
    <glyph glyph-name="A" unicode="A" 
d="M268 358h633l-313 992v20h-8q0 -2 1 -10t1 -10zM913 317h-657l-96 -307q-4 -10 -15 -10h-22q-10 0 -6 10l444 1413q0 10 12 11h21q10 0 14 -11l445 -1413q0 -10 -9 -10h-20q-12 0 -12 10z" />
    <glyph glyph-name="B" unicode="B" 
d="M922 205v364q0 74 -45.5 119t-118.5 45h-512v-692h512q74 0 119 45t45 119zM713 1393h-467v-623h467q74 0 119 45t45 119v295q0 74 -45 119t-119 45zM963 567v-364q0 -90 -56.5 -146.5t-148.5 -56.5h-543q-10 0 -10 10v1413q0 10 10 11h498q92 0 148.5 -56.5t56.5 -146.5
v-295q0 -121 -93 -174q63 -18 100.5 -69.5t37.5 -125.5z" />
    <glyph glyph-name="C" unicode="C" 
d="M932 369h20q10 0 11 -11v-159q0 -92 -56.5 -148.5t-148.5 -56.5h-348q-92 0 -148.5 56t-56.5 149v1036q0 92 56 148.5t149 56.5h348q92 0 148.5 -56.5t56.5 -148.5v-160q0 -10 -11 -10h-20q-10 0 -10 10v160q0 74 -45.5 119t-118.5 45h-348q-74 0 -119 -45t-45 -119
v-1036q0 -74 45 -119t119 -45h348q74 0 119 45t45 119v159q0 11 10 11z" />
    <glyph glyph-name="D" unicode="D" 
d="M246 1393v-1352h512q74 0 119 45t45 119v1024q0 74 -45.5 119t-118.5 45h-512zM205 10v1413q0 10 10 11h543q92 0 148.5 -56.5t56.5 -148.5v-1024q0 -92 -56.5 -148.5t-148.5 -56.5h-543q-10 0 -10 10z" />
    <glyph glyph-name="E" unicode="E" 
d="M205 10v1413q0 10 10 11h737q10 0 11 -11v-20q0 -10 -11 -10h-706v-701h522q10 0 10 -10v-20q0 -10 -10 -11h-522v-610h706q10 0 11 -10v-21q0 -10 -11 -10h-737q-10 0 -10 10z" />
    <glyph glyph-name="F" unicode="F" 
d="M952 1393h-706v-701h522q10 0 10 -10v-20q0 -10 -10 -11h-522v-641q0 -10 -10 -10h-21q-10 0 -10 10v1413q0 10 10 11h737q10 0 11 -11v-20q-1 -10 -11 -10z" />
    <glyph glyph-name="G" unicode="G" 
d="M655 662v20q0 10 11 10h286q10 0 11 -10v-483q0 -92 -56.5 -148.5t-148.5 -56.5h-348q-92 0 -148.5 56t-56.5 149v1036q0 92 56 148.5t149 56.5h348q92 0 148.5 -56.5t56.5 -148.5v-160q0 -10 -11 -10h-20q-10 0 -10 10v160q0 74 -45.5 119t-118.5 45h-348
q-74 0 -119 -45t-45 -119v-1036q0 -74 45 -119t119 -45h348q74 0 119 45t45 119v452h-256q-11 1 -11 11z" />
    <glyph glyph-name="H" unicode="H" 
d="M205 10v1413q0 10 10 11h21q10 0 10 -11v-731h676v731q0 10 10 11h20q10 0 11 -11v-1413q0 -10 -11 -10h-20q-10 0 -10 10v641h-676v-641q0 -10 -10 -10h-21q-10 0 -10 10z" />
    <glyph glyph-name="I" unicode="I" 
d="M195 10v21q0 10 10 10h358v1352h-358q-10 0 -10 10v20q0 10 10 11h758q10 0 10 -11v-20q0 -10 -10 -10h-359v-1352h359q10 0 10 -10v-21q0 -10 -10 -10h-758q-10 0 -10 10z" />
    <glyph glyph-name="J" unicode="J" 
d="M512 1403v20q0 10 10 11h430q10 0 11 -11v-1224q0 -92 -56.5 -148.5t-148.5 -56.5h-359q-92 0 -148 56t-56 149v98q0 10 10 10h20q10 0 11 -10v-98q0 -74 45 -119t118 -45h359q74 0 119 45t45 119v1194h-400q-10 0 -10 10z" />
    <glyph glyph-name="K" unicode="K" 
d="M565 707h-319v-697q0 -10 -10 -10h-21q-10 0 -10 10v1413q0 10 10 11h21q10 0 10 -11v-675h319l412 677q8 8 16 9l33 -9l-426 -698l451 -727h-31q-8 0 -16 8z" />
    <glyph glyph-name="L" unicode="L" 
d="M276 41h717q10 0 11 -10v-21q0 -10 -11 -10h-747q-10 0 -10 10v1413q0 10 10 11h20q10 0 10 -11v-1382z" />
    <glyph glyph-name="M" unicode="M" 
d="M205 1307v-1297q0 -10 -10 -10h-21q-10 0 -10 10v1413q0 10 10 11h21q10 0 14 -11l371 -977v-6v-8v-6h8v6v8v6l370 977q4 10 15 11h20q10 0 11 -11v-1413q0 -10 -11 -10h-20q-10 0 -10 10v1299q0 2 6 20h-8q-2 -2 -2.5 -10t-0.5 -10l-348 -922q-4 -10 -14 -10h-23
q-10 0 -14 10l-350 920v10t-2 10h-8q6 -18 6 -20z" />
    <glyph glyph-name="N" unicode="N" 
d="M246 1333v-1323q0 -10 -10 -10h-21q-10 0 -10 10v1413q0 10 10 11h21q10 0 14 -9l668 -1327q2 -4 2 -18l8 2q0 2 -2 6q-4 8 -4 12v1323q0 10 10 11h20q10 0 11 -11v-1413q0 -10 -11 -10h-20q-10 0 -14 8l-668 1327q-2 4 -2 19l-8 -2q0 -2 2 -6q4 -9 4 -13z" />
    <glyph glyph-name="O" unicode="O" 
d="M225 1235v-1036q0 -74 45 -119t119 -45h389q74 0 119 45t45 119v1036q0 74 -45 119t-119 45h-389q-74 0 -119 -45t-45 -119zM184 199v1036q0 92 56.5 148.5t148.5 56.5h389q92 0 148.5 -56.5t56.5 -148.5v-1036q0 -92 -56.5 -148.5t-148.5 -56.5h-389q-92 0 -148.5 56.5
t-56.5 148.5z" />
    <glyph glyph-name="P" unicode="P" 
d="M725 1393h-479v-764h479q74 0 119 45t45 119v436q0 74 -45 119t-119 45zM725 588h-479v-578q0 -10 -10 -10h-21q-10 0 -10 10v1413q0 10 10 11h510q92 0 148.5 -56.5t56.5 -148.5v-436q0 -92 -56.5 -148.5t-148.5 -56.5z" />
    <glyph glyph-name="Q" unicode="Q" 
d="M225 1235v-1036q0 -74 45 -119t119 -45h389q74 0 119 45t45 119v1036q0 74 -45 119t-119 45h-389q-74 0 -119 -45t-45 -119zM840 -272h-52q-104 0 -174.5 38.5t-70.5 124.5v103h-154q-92 0 -148.5 56t-56.5 149v1036q0 92 56.5 148.5t148.5 56.5h389q92 0 148.5 -56.5
t56.5 -148.5v-1036q0 -92 -56.5 -148.5t-148.5 -56.5h-194v-103q0 -123 204 -122h52q10 0 10 -11v-20q0 -10 -10 -10z" />
    <glyph glyph-name="R" unicode="R" 
d="M766 1393h-520v-723h520q74 0 119 45t45 119v395q0 74 -45 119t-119 45zM969 10l-273 619h-450v-619q0 -10 -10 -10h-21q-10 0 -10 10v1413q0 10 10 11h551q92 0 148.5 -56.5t56.5 -148.5v-395q0 -92 -56.5 -148.5t-148.5 -56.5h-27l267 -629h-23q-10 0 -14 10z" />
    <glyph glyph-name="S" unicode="S" 
d="M199 1055v180q0 92 56 148.5t148 56.5h361q92 0 148.5 -56.5t56.5 -148.5v-160q0 -10 -11 -10h-20q-10 0 -10 10v160q0 74 -45 119t-119 45h-361q-74 0 -118.5 -45t-44.5 -119v-172q0 -94 77 -141l570 -357q92 -57 92 -166v-200q0 -92 -56.5 -148.5t-148.5 -56.5h-381
q-92 0 -148.5 56t-56.5 149v159q0 10 11 11h20q10 0 10 -11v-159q0 -74 45 -119t119 -45h381q74 0 119 45t45 119v194q0 94 -78 142l-569 354q-92 57 -92 166z" />
    <glyph glyph-name="T" unicode="T" 
d="M1065 1423v-20q0 -10 -10 -10h-451v-1383q0 -10 -10 -10h-21q-10 0 -10 10v1383h-450q-10 0 -11 10v20q0 10 11 11h942q10 -1 10 -11z" />
    <glyph glyph-name="U" unicode="U" 
d="M932 1434h20q10 0 11 -11v-1224q0 -92 -56.5 -148.5t-148.5 -56.5h-348q-92 0 -148.5 56t-56.5 149v1224q0 10 10 11h21q10 0 10 -11v-1224q0 -74 45 -119t119 -45h348q74 0 119 45t45 119v1224q0 11 10 11z" />
    <glyph glyph-name="V" unicode="V" 
d="M1024 1434h20q8 0 9 -11l-445 -1413q-4 -10 -14 -10h-21q-12 0 -12 10l-444 1413q-4 10 6 11h22q10 0 15 -11l422 -1339v-21h4q0 14 2 21l424 1339q0 11 12 11z" />
    <glyph glyph-name="W" unicode="W" 
d="M602 1423l189 -1300v-21h4v21l231 1300q4 10 12 11h21q12 0 8 -11l-252 -1413q-4 -10 -12 -10h-21q-12 0 -12 10l-190 1288q-2 4 0 11.5t2 9.5h-9q0 -2 2.5 -9t-0.5 -12l-188 -1288q0 -10 -12 -10h-21q-8 0 -12 10l-252 1413q0 10 8 11h21q8 0 12 -11l229 -1300v-21h5v21
l190 1300q4 10 12 11h23q8 -1 12 -11z" />
    <glyph glyph-name="X" unicode="X" 
d="M993 1434l31 -9l-418 -675l441 -750h-27q-12 0 -16 8l-416 690v19h-8q0 -14 -2 -19l-416 -690q-4 -8 -15 -8l-32 8l448 742l-416 684h27q10 0 14 -9l390 -626q2 -4 2 -19h8v19l389 626q4 9 16 9z" />
    <glyph glyph-name="Y" unicode="Y" 
d="M1038 1425l-432 -831v-584q0 -10 -10 -10h-21q-10 0 -10 10v584l-428 840h25q10 0 14 -9l404 -772q4 -4 4 -18h4q0 14 2 18l403 772q8 8 17 9z" />
    <glyph glyph-name="Z" unicode="Z" 
d="M973 31v-21q0 -10 -10 -10h-758q-10 0 -10 10v21q0 10 4 18l725 1344h-715q-10 0 -10 10v20q0 10 10 11h749q10 0 11 -11v-20q0 -10 -4 -19l-725 -1343h723q10 0 10 -10z" />
    <glyph glyph-name="bracketleft" unicode="[" 
d="M829 -307h-348q-10 0 -10 10v1823q0 10 10 10h348q10 0 11 -10v-21q0 -10 -11 -10h-317v-1761h317q10 0 11 -10v-21q-1 -10 -11 -10z" />
    <glyph glyph-name="backslash" unicode="\" 
d="M270 1530l664 -1817q4 -8 -6 -12l-21 -8q-8 -4 -12 6l-664 1819q-4 8 7 12l18 6h4q6 0 10 -6z" />
    <glyph glyph-name="bracketright" unicode="]" 
d="M686 -307h-348q-10 0 -10 10v21q0 10 10 10h317v1761h-317q-10 0 -10 10v21q0 10 10 10h348q10 0 10 -10v-1823q0 -10 -10 -10z" />
    <glyph glyph-name="asciicircum" unicode="^" 
d="M831 940l-247 430l-250 -432q-2 -6 -8 -6q-2 0 -7 2l-18 10q-6 6 -2 14l270 467q4 8 14.5 8.5t14.5 -8.5l270 -464q6 -8 -4 -15l-18 -10q-2 0 -6 -2q-5 0 -9 6z" />
    <glyph glyph-name="underscore" unicode="_" 
d="M0 -307v41h1167v-41h-1167z" />
    <glyph glyph-name="grave" unicode="`" 
d="M565 1597l90 -163h-20q-12 0 -17 8l-102 162z" />
    <glyph glyph-name="a" unicode="a" 
d="M922 174v371q-258 57 -410 57q-127 0 -196.5 -55t-69.5 -150v-174q0 -86 61.5 -139t163.5 -53q175 0 451 143zM205 223v174q0 111 84 178.5t217 67.5q41 0 108.5 -7t122 -16.5t114.5 -18.5t71 -11v338q0 74 -45.5 119t-118.5 45h-338q-74 0 -119 -45.5t-45 -118.5v-78
q0 -10 -10 -10h-21q-10 0 -10 10v78q0 92 56.5 148.5t148.5 56.5h338q92 0 148.5 -56.5t56.5 -148.5v-918q0 -10 -11 -10h-20q-10 0 -10 10v115q-270 -135 -447 -135q-123 0 -196.5 64.5t-73.5 168.5z" />
    <glyph glyph-name="b" unicode="b" 
d="M246 952v-778q276 -143 448 -143q104 0 166 56t62 149v655q0 92 -61.5 148.5t-166.5 56.5q-172 -1 -448 -144zM215 1434h21q10 0 10 -11v-422q270 135 444 136q125 0 199 -68t74 -178v-655q0 -111 -74 -178.5t-199 -67.5q-174 0 -444 135v-115q0 -10 -10 -10h-21
q-10 0 -10 10v1413q0 11 10 11z" />
    <glyph glyph-name="c" unicode="c" 
d="M410 35h348q74 0 119 45t45 119v77q0 10 10 11h20q10 0 11 -11v-77q0 -92 -56.5 -148.5t-148.5 -56.5h-348q-92 0 -148.5 56t-56.5 149v729q0 92 56 148.5t149 56.5h348q92 0 148.5 -56.5t56.5 -148.5v-78q0 -10 -11 -10h-20q-10 0 -10 10v78q0 74 -45.5 119t-118.5 45
h-348q-74 0 -119 -45.5t-45 -118.5v-729q0 -74 45 -119t119 -45z" />
    <glyph glyph-name="d" unicode="d" 
d="M922 174v778q-276 143 -449 144q-104 0 -165.5 -56.5t-61.5 -148.5v-655q0 -92 61.5 -148.5t165.5 -56.5q173 0 449 143zM932 1434h20q10 0 11 -11v-1413q0 -10 -11 -10h-20q-10 0 -10 10v115q-270 -135 -445 -135q-125 0 -198.5 67.5t-73.5 178.5v655q0 111 73.5 178.5
t198.5 67.5q174 0 445 -136v422q0 11 10 11z" />
    <glyph glyph-name="e" unicode="e" 
d="M758 1092h-348q-74 0 -119 -44t-45 -116v-361h676v361q0 72 -45 116t-119 44zM952 530h-706v-327q0 -76 45 -122t119 -46h348q74 0 119 45t45 119v77q0 10 10 11h20q10 0 11 -11v-77q0 -92 -56.5 -148.5t-148.5 -56.5h-348q-92 0 -148.5 56t-56.5 149v729q0 92 56 148.5
t149 56.5h348q92 0 148.5 -55.5t56.5 -145.5v-391q-1 -11 -11 -11z" />
    <glyph glyph-name="f" unicode="f" 
d="M205 1096v20q0 10 10 10h256v103q0 92 56.5 148.5t148.5 56.5h276q10 0 11 -11v-20q0 -10 -11 -10h-276q-74 0 -119 -45t-45 -119v-103h440q10 0 11 -10v-20q0 -10 -11 -11h-440v-1075q0 -10 -10 -10h-21q-10 0 -10 10v1075h-256q-10 1 -10 11z" />
    <glyph glyph-name="g" unicode="g" 
d="M922 174v778q-276 143 -449 144q-104 0 -165.5 -56.5t-61.5 -148.5v-655q0 -92 61.5 -148.5t165.5 -56.5q173 0 449 143zM922 1001v115q0 10 10 10h20q10 0 11 -10v-1163q0 -125 -98.5 -197.5t-286.5 -72.5q-63 0 -192.5 15t-129.5 38v22q0 6 6 6t8 -2q117 -39 301 -38
q176 0 263.5 61t87.5 168v172q-270 -135 -445 -135q-125 0 -198.5 67.5t-73.5 178.5v655q0 111 73.5 178.5t198.5 67.5q175 -1 445 -136z" />
    <glyph glyph-name="h" unicode="h" 
d="M215 1434h21q10 0 10 -11v-422q281 135 448 136q123 0 196 -68t73 -178v-881q0 -10 -11 -10h-20q-10 0 -10 10v881q0 92 -60.5 148.5t-163.5 56.5q-176 0 -452 -144v-942q0 -10 -10 -10h-21q-10 0 -10 10v1413q0 11 10 11z" />
    <glyph glyph-name="i" unicode="i" 
d="M215 1096v20q0 10 10 10h369q10 0 10 -10v-1075h338q10 0 10 -10v-21q0 -10 -10 -10h-717q-10 0 -10 10v21q0 10 10 10h338v1044h-338q-10 1 -10 11zM451 1337v121q0 16 16 17h121q16 0 16 -17v-121q0 -16 -16 -16h-121q-16 0 -16 16z" />
    <glyph glyph-name="j" unicode="j" 
d="M360 1126h490q10 0 10 -10v-1163q0 -125 -98 -197.5t-287 -72.5q-63 0 -192 15t-129 38v22q0 6 6 6t8 -2q117 -39 301 -38q176 0 263 62t87 169v1130h-459q-10 0 -10 11v20q0 10 10 10zM727 1475h121q16 0 16 -17v-121q0 -16 -16 -16h-121q-16 0 -16 16v121q0 17 16 17z
" />
    <glyph glyph-name="k" unicode="k" 
d="M510 553h-264v-543q0 -10 -10 -10h-21q-10 0 -10 10v1413q0 10 10 11h21q10 0 10 -11v-829h262l444 524q8 8 17 8l37 -8l-459 -545l481 -573h-31q-8 0 -16 8z" />
    <glyph glyph-name="l" unicode="l" 
d="M215 1403v20q0 10 10 11h369q10 0 10 -11v-1382h338q10 0 10 -10v-21q0 -10 -10 -10h-717q-10 0 -10 10v21q0 10 10 10h338v1352h-338q-10 0 -10 10z" />
    <glyph glyph-name="m" unicode="m" 
d="M983 10v922q0 74 -43 119t-109 45q-117 0 -229 -131q2 -10 2 -33v-922q0 -10 -10 -10h-21q-10 0 -10 10v922q0 74 -42 119t-109 45q-121 0 -228 -142v-944q0 -10 -10 -10h-20q-10 0 -11 10v1106q0 10 11 10h20q10 0 10 -10v-104q96 125 228 125q63 0 111 -35t69 -94
q115 129 239 129q82 0 137.5 -57.5t55.5 -147.5v-922q0 -10 -10 -10h-21q-10 0 -10 10z" />
    <glyph glyph-name="n" unicode="n" 
d="M215 1126h21q10 0 10 -10v-115q281 135 448 136q123 0 196 -68t73 -178v-881q0 -10 -11 -10h-20q-10 0 -10 10v881q0 92 -60.5 148.5t-163.5 56.5q-176 0 -452 -144v-942q0 -10 -10 -10h-21q-10 0 -10 10v1106q0 10 10 10z" />
    <glyph glyph-name="o" unicode="o" 
d="M246 928v-729q0 -74 45 -119t119 -45h348q74 0 119 45t45 119v729q0 74 -45.5 119t-118.5 45h-348q-74 0 -119 -45t-45 -119zM205 199v729q0 92 56 148.5t149 56.5h348q92 0 148.5 -56.5t56.5 -148.5v-729q0 -92 -56.5 -148.5t-148.5 -56.5h-348q-92 0 -148.5 56.5
t-56.5 148.5z" />
    <glyph glyph-name="p" unicode="p" 
d="M246 952v-778q276 -143 448 -143q104 0 166 56t62 149v655q0 92 -61.5 148.5t-166.5 56.5q-172 -1 -448 -144zM236 -307h-21q-10 0 -10 10v1413q0 10 10 10h21q10 0 10 -10v-115q270 135 444 136q125 0 199 -68t74 -178v-655q0 -111 -74 -178.5t-199 -67.5
q-174 0 -444 135v-422q0 -10 -10 -10z" />
    <glyph glyph-name="q" unicode="q" 
d="M922 174v778q-276 143 -449 144q-104 0 -165.5 -56.5t-61.5 -148.5v-655q0 -92 61.5 -148.5t165.5 -56.5q173 0 449 143zM952 -307h-20q-10 0 -10 10v422q-270 -135 -445 -135q-125 0 -198.5 67.5t-73.5 178.5v655q0 111 73.5 178.5t198.5 67.5q174 0 445 -136v115
q0 10 10 10h20q10 0 11 -10v-1413q-1 -10 -11 -10z" />
    <glyph glyph-name="r" unicode="r" 
d="M829 31v-21q0 -10 -10 -10h-594q-10 0 -10 10v21q0 10 10 10h246v1044h-246q-10 0 -10 11v20q0 10 10 10h277q10 0 10 -10v-174q276 195 500 195q10 0 10 -11v-20q0 -10 -10 -10q-92 0 -210 -47.5t-179.5 -86t-110.5 -73.5v-848h307q10 0 10 -10z" />
    <glyph glyph-name="s" unicode="s" 
d="M963 309v-110q0 -92 -56.5 -148.5t-148.5 -56.5h-348q-92 0 -148.5 56t-56.5 149v77q0 10 10 11h21q10 0 10 -11v-77q0 -74 45 -119t119 -45h348q74 0 119 45t45 119v129q0 51 -24 97t-64 58l-496 158q-57 18 -90 82.5t-33 134.5v70q0 92 56.5 148.5t148.5 56.5h328
q92 0 148 -56.5t56 -148.5v-78q0 -10 -10 -10h-20q-10 0 -11 10v78q0 74 -45 119t-118 45h-328q-74 0 -119 -45.5t-45 -118.5v-88q0 -51 23.5 -97.5t64.5 -58.5l496 -158q57 -18 90 -82.5t33 -134.5z" />
    <glyph glyph-name="t" unicode="t" 
d="M205 1096v20q0 10 10 10h256v195q0 10 10 10h21q10 0 10 -10v-195h440q10 0 11 -10v-20q0 -10 -11 -11h-440v-886q0 -74 45 -119t119 -45h276q10 0 11 -10v-21q0 -10 -11 -10h-276q-92 0 -148.5 56t-56.5 149v886h-256q-10 1 -10 11z" />
    <glyph glyph-name="u" unicode="u" 
d="M952 0h-20q-10 0 -10 10v115q-281 -135 -449 -135q-123 0 -195.5 67.5t-72.5 178.5v880q0 10 10 10h21q10 0 10 -10v-880q0 -92 60.5 -148.5t162.5 -56.5q176 0 453 143v942q0 10 10 10h20q10 0 11 -10v-1106q-1 -10 -11 -10z" />
    <glyph glyph-name="v" unicode="v" 
d="M588 72l413 1044q4 10 15 10h20q8 0 8 -10l-436 -1106q-4 -10 -12 -10h-25q-8 0 -12 10l-436 1106q-4 10 8 10h21q10 0 14 -10l414 -1044q2 -6 2 -31h4q0 25 2 31z" />
    <glyph glyph-name="w" unicode="w" 
d="M580 993l-211 -983q-4 -10 -13 -10h-24q-8 0 -13 10l-237 1106q-4 10 8 10h21q10 0 14 -10l215 -1016q2 -10 2 -30h4q0 20 2 30l213 1016q4 10 12 10h19q8 0 12 -10l215 -1016q2 -10 2 -30h4q0 20 2 30l215 1016q4 10 15 10h20q12 0 8 -10l-237 -1106q-4 -10 -12 -10h-25
q-8 0 -12 10l-213 983v17.5t-2 15.5h-4q4 -17 0 -33z" />
    <glyph glyph-name="x" unicode="x" 
d="M596 616l383 502q4 8 14 8l37 -8l-418 -547l406 -561q4 -10 -6 -10h-31q-8 0 -14 10l-373 516q-2 2 -2 19h-4q0 -16 -2 -19l-396 -518q-8 -8 -16 -8l-35 8l428 565l-399 543q-4 10 6 10h31q8 0 14 -10l367 -500q2 -4 2 -18h4q0 14 4 18z" />
    <glyph glyph-name="y" unicode="y" 
d="M440 -297l117 299l-434 1114q-4 10 8 10h21q10 0 14 -10l409 -1046q2 -4 3 -31h4q0 27 2 31l417 1046q4 10 15 10h20q8 0 8 -10l-561 -1413q-4 -10 -12 -10h-22q-13 0 -9 10z" />
    <glyph glyph-name="z" unicode="z" 
d="M190 55l738 1030h-733q-10 0 -11 11v20q0 10 11 10h768q10 0 10 -10v-26q0 -12 -6 -19l-738 -1030h744q10 0 10 -10v-21q0 -10 -10 -10h-778q-10 0 -11 10v27q0 12 6 18z" />
    <glyph glyph-name="braceleft" unicode="{" 
d="M866 1495h-96q-74 0 -119 -45t-45 -119v-532q0 -129 -106 -183q117 -47 116 -186v-532q0 -74 45.5 -119t118.5 -45h86q10 0 11 -10v-21q0 -10 -11 -10h-86q-92 0 -148.5 56t-56.5 147v536q0 74 -45 118t-118 44h-35q-10 0 -10 10v21q0 10 10 10h35q74 0 113.5 44
t39.5 118v536q0 90 56.5 146.5t148.5 56.5h96q10 0 11 -10v-21q-1 -10 -11 -10z" />
    <glyph glyph-name="bar" unicode="|" 
d="M563 -297v1823q0 10 10 10h21q10 0 10 -10v-1823q0 -10 -10 -10h-21q-10 0 -10 10z" />
    <glyph glyph-name="braceright" unicode="}" 
d="M301 -266h86q74 0 119 45t45 119v532q0 139 117 186q-106 53 -107 183v532q0 74 -45 119t-119 45h-96q-10 0 -10 10v21q0 10 10 10h96q92 0 148.5 -56.5t56.5 -146.5v-536q0 -74 40 -118t114 -44h35q10 0 10 -10v-21q0 -10 -10 -10h-35q-74 0 -119 -44t-45 -118v-536
q0 -90 -56.5 -146.5t-148.5 -56.5h-86q-10 0 -10 10v21q0 10 10 10z" />
    <glyph glyph-name="asciitilde" unicode="~" 
d="M315 692l-8 33q0 8 8 16l82 56q27 16 58 16q18 0 32 -6l211 -80q6 -2 21 -2q23 0 33 8l100 68l8 -33q0 -8 -8 -16l-82 -54q-27 -16 -57 -16q-16 0 -33 6l-211 80q-6 2 -20 2q-23 0 -33 -10z" />
    <glyph glyph-name="exclamdown" unicode="&#xa1;" 
d="M547 -297l18 1055q0 10 10 10h17q10 0 10 -10l19 -1055q0 -10 -11 -10h-53q-10 0 -10 10zM500 979v131q0 16 16 16h131q16 0 17 -16v-131q0 -16 -17 -16h-131q-16 0 -16 16z" />
    <glyph glyph-name="cent" unicode="&#xa2;" 
d="M748 195h-144v-191q0 -10 -10 -10h-21q-10 0 -10 10v191h-143q-92 0 -148.5 56t-56.5 148v635q0 92 56.5 148.5t148.5 56.5h143v191q0 10 10 10h21q10 0 10 -10v-191h144q92 0 148 -56.5t56 -148.5v-78q0 -10 -10 -10h-20q-10 0 -11 10v78q0 74 -45 119t-118 45h-328
q-74 0 -119 -45t-45 -119v-635q0 -74 45 -118.5t119 -44.5h328q74 0 118.5 45t44.5 118v78q0 10 11 10h20q10 0 10 -10v-78q0 -92 -56 -148t-148 -56z" />
    <glyph glyph-name="sterling" unicode="&#xa3;" 
d="M127 10v21q0 10 10 10h176v573h-176q-10 0 -10 11v20q0 10 10 10h176v580q0 92 56.5 148.5t148.5 56.5h240q92 0 148.5 -56.5t56.5 -148.5v-160q0 -10 -11 -10h-20q-10 0 -10 10v160q0 74 -45.5 119t-118.5 45h-240q-74 0 -119 -45t-45 -119v-580h394q10 0 10 -10v-20
q0 -10 -10 -11h-394v-573h598q10 0 11 -10v-21q0 -10 -11 -10h-815q-10 0 -10 10z" />
    <glyph glyph-name="currency" unicode="&#xa4;" 
d="M240 716.5q0 -143.5 101 -245.5t246.5 -102t247 102t101.5 245.5t-101.5 246t-247 102.5t-246.5 -102.5t-101 -246zM877 457l133 -133q6 -8 0 -15l-15 -14q-2 -2 -6 -2q-6 0 -8 2l-133 133q-106 -100 -260 -100q-145 0 -260 100l-135 -135q-4 -4 -9 -4q-2 0 -6 4l-16 16
q-6 6 0 15l135 135q-98 109 -98 258q0 147 98 258l-137 137q-8 6 0 14l16 17q4 4 6 4q4 0 8 -4l138 -137q111 100 260 100t260 -98l135 135q4 4 8 4q2 0 6 -4l15 -15q8 -6 0 -14l-135 -135q100 -115 100 -262q0 -154 -100 -260z" />
    <glyph glyph-name="yen" unicode="&#xa5;" 
d="M299 258v23q0 10 10 10h256v184h-256q-10 0 -10 10v23q0 10 10 10h256v76l-428 840h25q10 0 14 -9l404 -772q4 -4 4 -18h4q0 14 2 18l403 772q8 8 17 9l28 -9l-432 -831v-76h256q10 0 10 -10v-23q0 -10 -10 -10h-256v-184h256q10 0 10 -10v-23q0 -10 -10 -10h-256v-238
q0 -10 -10 -10h-21q-10 0 -10 10v238h-256q-10 0 -10 10z" />
    <glyph glyph-name="brokenbar" unicode="&#xa6;" 
d="M563 -297v778h41v-778q0 -10 -10 -10h-21q-10 0 -10 10zM604 1526v-778h-41v778q0 10 10 10h21q10 0 10 -10z" />
    <glyph glyph-name="section" unicode="&#xa7;" 
d="M625 430l-318 285q-80 70 -80 182v338q0 92 56.5 148.5t148.5 56.5h301q92 0 148.5 -56.5t56.5 -148.5v-160q0 -10 -10 -10h-21q-10 0 -10 10v160q0 74 -45 119t-119 45h-301q-74 0 -119 -45t-45 -119v-336q0 -92 68 -154l317 -284q8 -6 2 -15l-16 -14q-2 -4 -6 -4
q-6 0 -8 2zM557 909l301 -276q80 -76 80 -182v-338q0 -92 -56.5 -148.5t-148.5 -56.5h-301q-92 0 -148.5 56t-56.5 149v159q0 10 11 11h20q10 0 10 -11v-159q0 -74 45 -119t119 -45h301q74 0 119 45t45 119v336q0 92 -68 153l-301 279q-8 6 0 14l13 12q4 4 8 4q6 0 8 -2z
" />
    <glyph glyph-name="dieresis" unicode="&#xa8;" 
d="M690 1479v59q0 25 25 25h59q25 0 25 -25v-59q0 -25 -25 -25h-59q-25 0 -25 25zM371 1479v59q0 25 24 25h60q25 0 24 -25v-59q0 -25 -24 -25h-60q-24 0 -24 25z" />
    <glyph glyph-name="copyright" unicode="&#xa9;" 
d="M92 1044v-655q0 -156 95.5 -252t252.5 -96h287q158 0 253 96t95 252v655q0 156 -95 252.5t-253 96.5h-287q-158 0 -253 -96.5t-95 -252.5zM51 389v655q0 176 107.5 283t281.5 107h287q174 0 281.5 -106.5t107.5 -283.5v-655q0 -176 -107.5 -282.5t-281.5 -106.5h-287
q-174 0 -281.5 106.5t-107.5 282.5zM535 291h112q74 0 119 45t45 119v77q0 10 10 11h21q10 0 10 -11v-77q0 -92 -56.5 -148.5t-148.5 -56.5h-112q-92 0 -148.5 56t-56.5 149v524q0 92 56 148.5t149 56.5h112q92 0 148.5 -56.5t56.5 -148.5v-78q0 -10 -10 -10h-21
q-10 0 -10 10v78q0 74 -45 119t-119 45h-112q-74 0 -119 -45t-45 -119v-524q0 -74 45 -119t119 -45z" />
    <glyph glyph-name="ordfeminine" unicode="&#xaa;" 
d="M793 825v226q-197 35 -250 34q-80 0 -123 -34.5t-43 -92.5v-106q0 -53 38 -86t99 -33q113 0 279 92zM334 852v106q0 74 57.5 120t147.5 46q57 0 254 -32v204q0 45 -27 73t-72 28h-209q-45 0 -71.5 -28t-26.5 -73v-45q0 -10 -10 -10h-23q-10 0 -10 10v47q0 61 38 100.5
t101 39.5h213q61 0 100.5 -39t39.5 -101v-587q0 -10 -11 -11h-22q-10 0 -10 11v67q-182 -86 -279 -86q-82 0 -131 44t-49 116z" />
    <glyph glyph-name="guillemotleft" unicode="&#xab;" 
d="M610 975l-377 -350l377 -349q6 -6 0 -14l-14 -14q-2 -4 -8 -4q-4 0 -6 2l-392 362q-6 6 -6 16.5t6 16.5l392 363q2 2 6 2q6 0 8 -5l14 -12q6 -8 0 -14zM987 975l-377 -350l377 -349q8 -6 2 -14l-16 -14q-2 -4 -6 -4q-6 0 -9 2l-389 362q-8 6 -8 16.5t8 16.5l389 363
q2 2 9 2q4 0 8 -5l12 -12q8 -8 0 -14z" />
    <glyph glyph-name="logicalnot" unicode="&#xac;" 
d="M297 768v20q0 10 10 11h553q10 0 10 -11v-204q0 -10 -10 -11h-22q-10 0 -11 11v174h-520q-10 0 -10 10z" />
    <glyph glyph-name="uni00AD" unicode="&#xad;" 
d="M358 614v21q0 10 11 10h430q10 0 10 -10v-21q0 -10 -10 -10h-430q-11 0 -11 10z" />
    <glyph glyph-name="registered" unicode="&#xae;" 
d="M92 1044v-655q0 -156 95.5 -252t252.5 -96h287q158 0 253 96t95 252v655q0 156 -95 252.5t-253 96.5h-287q-158 0 -253 -96.5t-95 -252.5zM705 1143h-345v-504h345q70 0 111.5 35t41.5 92v250q0 57 -41.5 92t-111.5 35zM51 389v655q0 176 107.5 283t281.5 107h287
q174 0 281.5 -106.5t107.5 -283.5v-655q0 -176 -107.5 -282.5t-281.5 -106.5h-287q-174 0 -281.5 106.5t-107.5 282.5zM844 260l-166 338h-318v-338q0 -10 -12 -10h-18q-10 0 -11 10v914q0 10 11 10h375q88 0 141 -46t53 -122v-250q0 -72 -48 -118t-128 -50l164 -338
q4 -10 -6 -10h-23q-10 0 -14 10z" />
    <glyph glyph-name="macron" unicode="&#xaf;" 
d="M453 1475v20q0 10 10 10h244q10 0 10 -10v-20q0 -10 -10 -11h-244q-10 1 -10 11z" />
    <glyph glyph-name="degree" unicode="&#xb0;" 
d="M399 1259.5q0 75.5 54.5 130t130 54.5t130 -54.5t54.5 -130t-54.5 -130t-130 -54.5t-130 54.5t-54.5 130zM440 1259.5q0 -59.5 42 -101.5t101.5 -42t101.5 42t42 101.5t-42 101.5t-101.5 42t-101.5 -42t-42 -101.5z" />
    <glyph glyph-name="plusminus" unicode="&#xb1;" 
d="M297 768v20q0 10 10 11h256v256q0 10 10 10h21q10 0 10 -10v-256h256q10 0 10 -11v-20q0 -10 -10 -10h-256v-256q0 -10 -10 -10h-21q-10 0 -10 10v256h-256q-10 0 -10 10zM297 297v20q0 10 10 11h553q10 0 10 -11v-20q0 -10 -10 -10h-553q-10 0 -10 10z" />
    <glyph glyph-name="uni00B2" unicode="&#xb2;" 
d="M389 725v111q0 45 41 75l283 213q25 18 24 50v131q0 41 -25.5 66.5t-66.5 25.5h-129q-41 0 -65.5 -25.5t-24.5 -66.5l-8 -50l-33 9v39q0 61 37 98t98 37h123q61 0 98 -37t37 -98v-136q0 -43 -39 -75l-284 -213q-25 -18 -25 -48v-73l361 -8l-9 -33z" />
    <glyph glyph-name="uni00B3" unicode="&#xb3;" 
d="M426 1257l-31 9v34q0 59 37 97.5t96 38.5h109q61 0 98 -38t37 -98v-94q0 -80 -65 -112q74 -29 73 -117v-129q0 -59 -36.5 -97t-96.5 -38h-125q-61 0 -98 37.5t-37 97.5l8 43l33 -8v-37q0 -41 24.5 -66.5t65.5 -25.5h131q41 0 65.5 25.5t24.5 66.5v135q0 41 -24.5 65.5
t-65.5 24.5l-104 8l8 33h86q41 0 66.5 24.5t25.5 65.5v101q0 41 -24.5 66.5t-65.5 25.5h-115q-41 0 -65.5 -26t-24.5 -66v-37q0 -9 -10 -9z" />
    <glyph glyph-name="acute" unicode="&#xb4;" 
d="M514 1434l88 163q6 6 14 7h37l-102 -162q-8 -8 -16 -8h-21z" />
    <glyph glyph-name="paragraph" unicode="&#xb6;" 
d="M879 -297v1690h-342v-1690q0 -10 -11 -10h-20q-10 0 -10 10v905h-101q-92 0 -148.5 56.5t-56.5 148.5v416q0 92 56.5 148.5t148.5 56.5h514q10 0 11 -11v-1720q0 -10 -11 -10h-20q-10 0 -10 10z" />
    <glyph glyph-name="periodcentered" unicode="&#xb7;" 
d="M502 651v131q0 16 16 17h131q16 0 17 -17v-131q0 -16 -17 -16h-131q-16 0 -16 16z" />
    <glyph glyph-name="cedilla" unicode="&#xb8;" 
d="M672 -162v-28q0 -33 -19.5 -52.5t-52.5 -19.5h-94q-10 0 -10 10v21q0 10 10 10h94q31 0 31 31v28q0 31 -31 31h-63q-12 0 -9 10l19 121h43l-17 -90h27q33 0 52.5 -19.5t19.5 -52.5z" />
    <glyph glyph-name="uni00B9" unicode="&#xb9;" 
d="M434 725l8 31h181v630l-193 -81v24q0 8 8 12l189 89q8 4 16 4l21 -9v-669l190 -8l-8 -31z" />
    <glyph glyph-name="ordmasculine" unicode="&#xba;" 
d="M375 1298v-464q0 -43 26.5 -70t69.5 -27h227q43 0 70 27t27 70v464q0 45 -27 72t-70 27h-227q-43 0 -69.5 -27t-26.5 -72zM332 836v462q0 61 38 100.5t101 39.5h227q61 0 100.5 -39t39.5 -101v-462q0 -63 -39 -101.5t-101 -38.5h-227q-63 0 -101 38.5t-38 101.5z" />
    <glyph glyph-name="guillemotright" unicode="&#xbb;" 
d="M934 625l-377 350q-6 6 0 14l14 12q2 4 9 5q4 0 6 -2l391 -363q6 -6 6 -16.5t-6 -16.5l-391 -362q-2 -2 -6 -2q-6 0 -9 4l-14 14q-6 8 0 14zM557 625l-377 350q-8 6 0 14l13 12q4 4 8 5q6 0 8 -2l389 -363q8 -6 8 -16.5t-8 -16.5l-389 -362q-2 -2 -8 -2q-4 0 -6 4l-17 14
q-6 8 2 14z" />
    <glyph glyph-name="onequarter" unicode="&#xbc;" 
d="M47 786l8 31h181v569l-193 -81v24q0 8 8 12l189 89q8 4 16 4l20 -9v-608l191 -8l-8 -31zM59 434l1028 563q2 2 6.5 2t8.5 -6l10 -16q6 -10 -4 -14l-1028 -564q-2 -2 -6 -2t-8 6l-11 17q-6 10 4 14zM922 657l-240 -479h285l8 262l31 -8v-254h81q10 0 11 -8v-23
q0 -10 -11 -10h-81l-7 -137l-32 8v129h-326q-8 0 -8 10v15q0 12 2 18l242 477q4 8 12 9z" />
    <glyph glyph-name="onehalf" unicode="&#xbd;" 
d="M47 786l8 31h181v569l-193 -81v24q0 8 8 12l189 89q8 4 16 4l20 -9v-608l191 -8l-8 -31zM59 434l1028 563q2 2 6.5 2t8.5 -6l10 -16q6 -10 -4 -14l-1028 -564q-2 -2 -6 -2t-8 6l-11 17q-6 10 4 14zM719 8v111q0 49 41 76l282 186q25 18 25 49v96q0 41 -25.5 66.5
t-66.5 25.5h-129q-41 0 -65.5 -25.5t-24.5 -66.5l-8 -49l-33 8v39q0 61 36.5 98t98.5 37h123q61 0 98 -36.5t37 -98.5v-100q0 -43 -39 -76l-285 -186q-25 -18 -24 -47v-74l360 -8l-8 -33z" />
    <glyph glyph-name="threequarters" unicode="&#xbe;" 
d="M59 434l1028 563q2 2 6.5 2t8.5 -6l10 -16q6 -10 -4 -14l-1028 -564q-2 -2 -6 -2t-8 6l-11 17q-6 10 4 14zM922 657l-240 -479h285l8 262l31 -8v-254h81q10 0 11 -8v-23q0 -10 -11 -10h-81l-7 -137l-32 8v129h-326q-8 0 -8 10v15q0 12 2 18l242 477q4 8 12 9zM92 1270
l-31 8v35q0 59 37 97t97 38h108q61 0 98 -38t37 -97v-64q0 -80 -65 -112q74 -29 73 -117v-98q0 -59 -36.5 -97.5t-96.5 -38.5h-125q-61 0 -98 38t-37 98l8 43l33 -9v-36q0 -41 24.5 -67t65.5 -26h131q41 0 66 26t25 67v104q0 41 -25 65.5t-66 24.5l-104 8l8 33h86
q41 0 66.5 24.5t25.5 65.5v70q0 41 -24.5 66.5t-65.5 25.5h-114q-41 0 -66 -25.5t-25 -66.5v-37q0 -8 -10 -8z" />
    <glyph glyph-name="questiondown" unicode="&#xbf;" 
d="M233 -109v195q0 106 80 182l205 191q68 63 68 155v144q0 10 10 10h20q10 0 11 -10v-146q0 -106 -80 -182l-205 -188q-68 -63 -68 -156v-195q0 -74 45.5 -118.5t118.5 -44.5h301q72 0 113 44t41 119v160q0 10 10 10h21q10 0 10 -10v-160q0 -94 -52.5 -149t-142.5 -55h-301
q-92 0 -148.5 56t-56.5 148zM680 1110v-131q0 -16 -16 -16h-132q-16 0 -16 16v131q0 16 16 16h132q16 0 16 -16z" />
    <glyph glyph-name="Agrave" unicode="&#xc0;" 
d="M268 358h633l-313 992v20h-8q0 -2 1 -10t1 -10zM913 317h-657l-96 -307q-4 -10 -15 -10h-22q-10 0 -6 10l444 1413q0 10 12 11h21q10 0 14 -11l445 -1413q0 -10 -9 -10h-20q-12 0 -12 10zM504 1700l90 -164h-21q-12 0 -16 8l-102 162z" />
    <glyph glyph-name="Aacute" unicode="&#xc1;" 
d="M268 358h633l-313 992v20h-8q0 -2 1 -10t1 -10zM913 317h-657l-96 -307q-4 -10 -15 -10h-22q-10 0 -6 10l444 1413q0 10 12 11h21q10 0 14 -11l445 -1413q0 -10 -9 -10h-20q-12 0 -12 10zM571 1542l93 158q6 6 14 6l41 -8l-107 -154q-8 -8 -16 -8z" />
    <glyph glyph-name="Acircumflex" unicode="&#xc2;" 
d="M268 358h633l-313 992v20h-8q0 -2 1 -10t1 -10zM913 317h-657l-96 -307q-4 -10 -15 -10h-22q-10 0 -6 10l444 1413q0 10 12 11h21q10 0 14 -11l445 -1413q0 -10 -9 -10h-20q-12 0 -12 10zM612 1688l101 -152h-21q-8 0 -16 8l-92 115l-90 -115q-8 -8 -17 -8l-24 6l102 146
q4 8 16 8h27q10 0 14 -8z" />
    <glyph glyph-name="Atilde" unicode="&#xc3;" 
d="M268 358h633l-313 992v20h-8q0 -2 1 -10t1 -10zM913 317h-657l-96 -307q-4 -10 -15 -10h-22q-10 0 -6 10l444 1413q0 10 12 11h21q10 0 14 -11l445 -1413q0 -10 -9 -10h-20q-12 0 -12 10zM420 1571v26q0 18 47 35t69.5 17t36.5 -9l62 -32q8 -4 16 -4q18 0 62.5 15
t54.5 15v-24q0 -20 -43 -33.5t-70 -13.5q-23 0 -39 8l-61 33q-8 4 -16 4q-37 0 -109 -41q-2 -2 -6 -2t-4 6z" />
    <glyph glyph-name="Adieresis" unicode="&#xc4;" 
d="M268 358h633l-313 992v20h-8q0 -2 1 -10t1 -10zM913 317h-657l-96 -307q-4 -10 -15 -10h-22q-10 0 -6 10l444 1413q0 10 12 11h21q10 0 14 -11l445 -1413q0 -10 -9 -10h-20q-12 0 -12 10zM371 1581v59q0 25 24 25h60q25 0 24 -25v-59q0 -25 -24 -25h-60q-24 0 -24 25z
M690 1581v59q0 25 25 25h59q25 0 25 -25v-59q0 -25 -25 -25h-59q-25 0 -25 25z" />
    <glyph glyph-name="Aring" unicode="&#xc5;" 
d="M268 358h633l-313 992v20h-8q0 -2 1 -10t1 -10zM522 1628.5q0 -26.5 17.5 -44t44 -17.5t44 17.5t17.5 44t-17.5 44t-44 17.5t-44 -17.5t-17.5 -44zM913 317h-657l-96 -307q-4 -10 -15 -10h-22q-10 0 -6 10l444 1413q0 10 12 11h21q10 0 14 -11l445 -1413q0 -10 -9 -10
h-20q-12 0 -12 10zM481 1628q0 43 30 73t73 30t72.5 -30t29.5 -73q0 -41 -29.5 -71.5t-72.5 -30.5t-73 30.5t-30 71.5z" />
    <glyph glyph-name="AE" unicode="&#xc6;" 
d="M238 358h403v957q0 8 4 20h-4q0 -2 -1 -9t-3 -9zM641 317h-420l-129 -307q-4 -10 -14 -10h-23q-10 0 -6 10l588 1413q4 10 14 11h441q10 0 10 -11v-20q0 -10 -10 -10h-410v-701h328q10 0 10 -10v-20q0 -10 -10 -11h-328v-610h410q10 0 10 -10v-21q0 -10 -10 -10h-441
q-10 0 -10 10v307z" />
    <glyph glyph-name="Ccedilla" unicode="&#xc7;" 
d="M672 -162v-28q0 -33 -19.5 -52.5t-52.5 -19.5h-94q-10 0 -10 10v21q0 10 10 10h94q31 0 31 31v28q0 31 -31 31h-63q-12 0 -9 10l19 115h-137q-92 0 -148.5 56t-56.5 149v1036q0 92 56 148.5t149 56.5h348q92 0 148.5 -56.5t56.5 -148.5v-160q0 -10 -11 -10h-20
q-10 0 -10 10v160q0 74 -45.5 119t-118.5 45h-348q-74 0 -119 -45t-45 -119v-1036q0 -74 45 -119t119 -45h348q74 0 119 45t45 119v159q0 10 10 11h20q10 0 11 -11v-159q0 -92 -56.5 -148.5t-148.5 -56.5h-170l-15 -84h27q33 0 52.5 -19.5t19.5 -52.5z" />
    <glyph glyph-name="Egrave" unicode="&#xc8;" 
d="M205 10v1413q0 10 10 11h737q10 0 11 -11v-20q0 -10 -11 -10h-706v-701h522q10 0 10 -10v-20q0 -10 -10 -11h-522v-610h706q10 0 11 -10v-21q0 -10 -11 -10h-737q-10 0 -10 10zM494 1700l90 -164h-21q-12 0 -16 8l-103 162z" />
    <glyph glyph-name="Eacute" unicode="&#xc9;" 
d="M205 10v1413q0 10 10 11h737q10 0 11 -11v-20q0 -10 -11 -10h-706v-701h522q10 0 10 -10v-20q0 -10 -10 -11h-522v-610h706q10 0 11 -10v-21q0 -10 -11 -10h-737q-10 0 -10 10zM561 1542l92 158q6 6 15 6l41 -8l-107 -154q-8 -8 -16 -8z" />
    <glyph glyph-name="Ecircumflex" unicode="&#xca;" 
d="M205 10v1413q0 10 10 11h737q10 0 11 -11v-20q0 -10 -11 -10h-706v-701h522q10 0 10 -10v-20q0 -10 -10 -11h-522v-610h706q10 0 11 -10v-21q0 -10 -11 -10h-737q-10 0 -10 10zM602 1688l100 -152h-20q-8 0 -16 8l-93 115l-90 -115q-8 -8 -16 -8l-25 6l103 146q4 8 16 8
h27q10 0 14 -8z" />
    <glyph glyph-name="Edieresis" unicode="&#xcb;" 
d="M205 10v1413q0 10 10 11h737q10 0 11 -11v-20q0 -10 -11 -10h-706v-701h522q10 0 10 -10v-20q0 -10 -10 -11h-522v-610h706q10 0 11 -10v-21q0 -10 -11 -10h-737q-10 0 -10 10zM680 1581v59q0 25 25 25h59q25 0 24 -25v-59q0 -25 -24 -25h-59q-25 0 -25 25zM360 1581v59
q0 25 25 25h59q25 0 25 -25v-59q0 -25 -25 -25h-59q-25 0 -25 25z" />
    <glyph glyph-name="Igrave" unicode="&#xcc;" 
d="M195 10v21q0 10 10 10h358v1352h-358q-10 0 -10 10v20q0 10 10 11h758q10 0 10 -11v-20q0 -10 -10 -10h-359v-1352h359q10 0 10 -10v-21q0 -10 -10 -10h-758q-10 0 -10 10zM504 1700l90 -164h-21q-12 0 -16 8l-102 162z" />
    <glyph glyph-name="Iacute" unicode="&#xcd;" 
d="M195 10v21q0 10 10 10h358v1352h-358q-10 0 -10 10v20q0 10 10 11h758q10 0 10 -11v-20q0 -10 -10 -10h-359v-1352h359q10 0 10 -10v-21q0 -10 -10 -10h-758q-10 0 -10 10zM571 1542l93 158q6 6 14 6l41 -8l-107 -154q-8 -8 -16 -8z" />
    <glyph glyph-name="Icircumflex" unicode="&#xce;" 
d="M195 10v21q0 10 10 10h358v1352h-358q-10 0 -10 10v20q0 10 10 11h758q10 0 10 -11v-20q0 -10 -10 -10h-359v-1352h359q10 0 10 -10v-21q0 -10 -10 -10h-758q-10 0 -10 10zM612 1688l101 -152h-21q-8 0 -16 8l-92 115l-90 -115q-8 -8 -17 -8l-24 6l102 146q4 8 16 8h27
q10 0 14 -8z" />
    <glyph glyph-name="Idieresis" unicode="&#xcf;" 
d="M195 10v21q0 10 10 10h358v1352h-358q-10 0 -10 10v20q0 10 10 11h758q10 0 10 -11v-20q0 -10 -10 -10h-359v-1352h359q10 0 10 -10v-21q0 -10 -10 -10h-758q-10 0 -10 10zM371 1581v59q0 25 24 25h60q25 0 24 -25v-59q0 -25 -24 -25h-60q-24 0 -24 25zM690 1581v59
q0 25 25 25h59q25 0 25 -25v-59q0 -25 -25 -25h-59q-25 0 -25 25z" />
    <glyph glyph-name="Eth" unicode="&#xd0;" 
d="M553 737h-307v-696h512q74 0 119 45t45 119v1024q0 74 -45.5 119t-118.5 45h-512v-615h307q10 0 10 -10v-20q0 -11 -10 -11zM51 748v20q0 10 10 10h144v645q0 10 10 11h543q92 0 148.5 -56.5t56.5 -148.5v-1024q0 -92 -56.5 -148.5t-148.5 -56.5h-543q-10 0 -10 10v727
h-144q-10 1 -10 11z" />
    <glyph glyph-name="Ntilde" unicode="&#xd1;" 
d="M246 1333v-1323q0 -10 -10 -10h-21q-10 0 -10 10v1413q0 10 10 11h21q10 0 14 -9l668 -1327q2 -4 2 -18l8 2q0 2 -2 6q-4 8 -4 12v1323q0 10 10 11h20q10 0 11 -11v-1413q0 -10 -11 -10h-20q-10 0 -14 8l-668 1327q-2 4 -2 19l-8 -2q0 -2 2 -6q4 -9 4 -13zM420 1571v26
q0 18 47 35t69.5 17t36.5 -9l62 -32q8 -4 16 -4q18 0 62.5 15t54.5 15v-24q0 -20 -43 -33.5t-70 -13.5q-23 0 -39 8l-61 33q-8 4 -16 4q-37 0 -109 -41q-2 -2 -6 -2t-4 6z" />
    <glyph glyph-name="Ograve" unicode="&#xd2;" 
d="M225 1235v-1036q0 -74 45 -119t119 -45h389q74 0 119 45t45 119v1036q0 74 -45 119t-119 45h-389q-74 0 -119 -45t-45 -119zM184 199v1036q0 92 56.5 148.5t148.5 56.5h389q92 0 148.5 -56.5t56.5 -148.5v-1036q0 -92 -56.5 -148.5t-148.5 -56.5h-389q-92 0 -148.5 56.5
t-56.5 148.5zM504 1700l90 -164h-21q-12 0 -16 8l-102 162z" />
    <glyph glyph-name="Oacute" unicode="&#xd3;" 
d="M225 1235v-1036q0 -74 45 -119t119 -45h389q74 0 119 45t45 119v1036q0 74 -45 119t-119 45h-389q-74 0 -119 -45t-45 -119zM184 199v1036q0 92 56.5 148.5t148.5 56.5h389q92 0 148.5 -56.5t56.5 -148.5v-1036q0 -92 -56.5 -148.5t-148.5 -56.5h-389q-92 0 -148.5 56.5
t-56.5 148.5zM571 1542l93 158q6 6 14 6l41 -8l-107 -154q-8 -8 -16 -8z" />
    <glyph glyph-name="Ocircumflex" unicode="&#xd4;" 
d="M225 1235v-1036q0 -74 45 -119t119 -45h389q74 0 119 45t45 119v1036q0 74 -45 119t-119 45h-389q-74 0 -119 -45t-45 -119zM184 199v1036q0 92 56.5 148.5t148.5 56.5h389q92 0 148.5 -56.5t56.5 -148.5v-1036q0 -92 -56.5 -148.5t-148.5 -56.5h-389q-92 0 -148.5 56.5
t-56.5 148.5zM612 1688l101 -152h-21q-8 0 -16 8l-92 115l-90 -115q-8 -8 -17 -8l-24 6l102 146q4 8 16 8h27q10 0 14 -8z" />
    <glyph glyph-name="Otilde" unicode="&#xd5;" 
d="M225 1235v-1036q0 -74 45 -119t119 -45h389q74 0 119 45t45 119v1036q0 74 -45 119t-119 45h-389q-74 0 -119 -45t-45 -119zM184 199v1036q0 92 56.5 148.5t148.5 56.5h389q92 0 148.5 -56.5t56.5 -148.5v-1036q0 -92 -56.5 -148.5t-148.5 -56.5h-389q-92 0 -148.5 56.5
t-56.5 148.5zM420 1571v26q0 18 47 35t69.5 17t36.5 -9l62 -32q8 -4 16 -4q18 0 62.5 15t54.5 15v-24q0 -20 -43 -33.5t-70 -13.5q-23 0 -39 8l-61 33q-8 4 -16 4q-37 0 -109 -41q-2 -2 -6 -2t-4 6z" />
    <glyph glyph-name="Odieresis" unicode="&#xd6;" 
d="M225 1235v-1036q0 -74 45 -119t119 -45h389q74 0 119 45t45 119v1036q0 74 -45 119t-119 45h-389q-74 0 -119 -45t-45 -119zM184 199v1036q0 92 56.5 148.5t148.5 56.5h389q92 0 148.5 -56.5t56.5 -148.5v-1036q0 -92 -56.5 -148.5t-148.5 -56.5h-389q-92 0 -148.5 56.5
t-56.5 148.5zM690 1581v59q0 25 25 25h59q25 0 25 -25v-59q0 -25 -25 -25h-59q-25 0 -25 25zM371 1581v59q0 25 24 25h60q25 0 24 -25v-59q0 -25 -24 -25h-60q-24 0 -24 25z" />
    <glyph glyph-name="multiply" unicode="&#xd7;" 
d="M332 999l252 -251l254 251q4 4 8 5q2 0 6 -5l14 -14q6 -6 0 -14l-252 -254l250 -250q8 -8 0 -14l-14 -15q-2 -2 -6 -2q-6 0 -8 2l-252 250l-250 -252q-2 -2 -8 -2q-4 0 -7 2l-16 17q-6 6 0 14l252 250l-254 252q-6 6 0 14l16 16q4 4 7 5q4 -1 8 -5z" />
    <glyph glyph-name="Oslash" unicode="&#xd8;" 
d="M381 35l362 1364h-356q-74 0 -118 -45t-44 -119v-1036q0 -72 43 -117t113 -47zM784 1399l-358 -1364h354q72 0 117 45t45 119v1036q0 72 -43 117t-115 47zM819 1522l-24 -82q86 -6 137 -61.5t51 -143.5v-1036q0 -92 -56.5 -148.5t-148.5 -56.5h-362l-35 -96l-31 16l21 80
q-84 6 -135.5 61.5t-51.5 143.5v1036q0 92 56.5 148.5t148.5 56.5h365l24 90q0 6 6 6h7z" />
    <glyph glyph-name="Ugrave" unicode="&#xd9;" 
d="M932 1434h20q10 0 11 -11v-1224q0 -92 -56.5 -148.5t-148.5 -56.5h-348q-92 0 -148.5 56t-56.5 149v1224q0 10 10 11h21q10 0 10 -11v-1224q0 -74 45 -119t119 -45h348q74 0 119 45t45 119v1224q0 11 10 11zM492 1706l104 -164l-23 -6q-12 0 -16 8l-106 154z" />
    <glyph glyph-name="Uacute" unicode="&#xda;" 
d="M932 1434h20q10 0 11 -11v-1224q0 -92 -56.5 -148.5t-148.5 -56.5h-348q-92 0 -148.5 56t-56.5 149v1224q0 10 10 11h21q10 0 10 -11v-1224q0 -74 45 -119t119 -45h348q74 0 119 45t45 119v1224q0 11 10 11zM575 1536l89 164q6 6 14 6h37l-103 -162q-8 -8 -16 -8h-21z
" />
    <glyph glyph-name="Ucircumflex" unicode="&#xdb;" 
d="M932 1434h20q10 0 11 -11v-1224q0 -92 -56.5 -148.5t-148.5 -56.5h-348q-92 0 -148.5 56t-56.5 149v1224q0 10 10 11h21q10 0 10 -11v-1224q0 -74 45 -119t119 -45h348q74 0 119 45t45 119v1224q0 11 10 11zM612 1688l105 -146l-25 -6q-8 0 -16 8l-92 115l-90 -115
q-8 -8 -17 -8h-20l98 152q4 8 16 8h27q10 0 14 -8z" />
    <glyph glyph-name="Udieresis" unicode="&#xdc;" 
d="M932 1434h20q10 0 11 -11v-1224q0 -92 -56.5 -148.5t-148.5 -56.5h-348q-92 0 -148.5 56t-56.5 149v1224q0 10 10 11h21q10 0 10 -11v-1224q0 -74 45 -119t119 -45h348q74 0 119 45t45 119v1224q0 11 10 11zM690 1581v59q0 25 25 25h59q25 0 25 -25v-59q0 -25 -25 -25
h-59q-25 0 -25 25zM371 1581v59q0 25 24 25h60q25 0 24 -25v-59q0 -25 -24 -25h-60q-24 0 -24 25z" />
    <glyph glyph-name="Yacute" unicode="&#xdd;" 
d="M1038 1425l-432 -831v-584q0 -10 -10 -10h-21q-10 0 -10 10v584l-428 840h25q10 0 14 -9l404 -772q4 -4 4 -18h4q0 14 2 18l403 772q8 8 17 9zM573 1542l93 158q6 6 14 6l41 -8l-107 -154q-8 -8 -16 -8z" />
    <glyph glyph-name="Thorn" unicode="&#xde;" 
d="M758 1100h-512v-764h512q74 0 119 45t45 119v436q0 74 -45 119t-119 45zM758 295h-512v-285q0 -10 -10 -10h-21q-10 0 -10 10v1413q0 10 10 11h21q10 0 10 -11v-282h512q92 0 148.5 -56.5t56.5 -148.5v-436q0 -92 -56.5 -148.5t-148.5 -56.5z" />
    <glyph glyph-name="germandbls" unicode="&#xdf;" 
d="M410 1434h307q92 0 148.5 -50.5t56.5 -130.5v-227q0 -127 -101 -178q66 -18 104 -69.5t38 -125.5v-465q0 -84 -56.5 -136t-148.5 -52h-246q-10 0 -10 10v21q0 10 10 10h246q74 0 119 41t45 111v462q0 74 -45.5 119t-118.5 45h-246q-10 0 -10 10v21q0 10 10 10h205
q74 0 119 45t45 119v229q0 61 -45 100.5t-119 39.5h-307q-74 0 -119 -45t-45 -119v-1219q0 -10 -10 -10h-21q-10 0 -10 10v1219q0 92 56.5 148.5t148.5 56.5z" />
    <glyph glyph-name="agrave" unicode="&#xe0;" 
d="M922 174v371q-258 57 -410 57q-127 0 -196.5 -55t-69.5 -150v-174q0 -86 61.5 -139t163.5 -53q175 0 451 143zM205 223v174q0 111 84 178.5t217 67.5q41 0 108.5 -7t122 -16.5t114.5 -18.5t71 -11v338q0 74 -45.5 119t-118.5 45h-338q-74 0 -119 -45.5t-45 -118.5v-78
q0 -10 -10 -10h-21q-10 0 -10 10v78q0 92 56.5 148.5t148.5 56.5h338q92 0 148.5 -56.5t56.5 -148.5v-918q0 -10 -11 -10h-20q-10 0 -10 10v115q-270 -135 -447 -135q-123 0 -196.5 64.5t-73.5 168.5zM512 1399l104 -164l-22 -6q-12 0 -16 8l-107 154z" />
    <glyph glyph-name="aacute" unicode="&#xe1;" 
d="M922 174v371q-258 57 -410 57q-127 0 -196.5 -55t-69.5 -150v-174q0 -86 61.5 -139t163.5 -53q175 0 451 143zM205 223v174q0 111 84 178.5t217 67.5q41 0 108.5 -7t122 -16.5t114.5 -18.5t71 -11v338q0 74 -45.5 119t-118.5 45h-338q-74 0 -119 -45.5t-45 -118.5v-78
q0 -10 -10 -10h-21q-10 0 -10 10v78q0 92 56.5 148.5t148.5 56.5h338q92 0 148.5 -56.5t56.5 -148.5v-918q0 -10 -11 -10h-20q-10 0 -10 10v115q-270 -135 -447 -135q-123 0 -196.5 64.5t-73.5 168.5zM596 1229l88 164q6 6 14 6h37l-102 -162q-8 -8 -17 -8h-20z" />
    <glyph glyph-name="acircumflex" unicode="&#xe2;" 
d="M922 174v371q-258 57 -410 57q-127 0 -196.5 -55t-69.5 -150v-174q0 -86 61.5 -139t163.5 -53q175 0 451 143zM205 223v174q0 111 84 178.5t217 67.5q41 0 108.5 -7t122 -16.5t114.5 -18.5t71 -11v338q0 74 -45.5 119t-118.5 45h-338q-74 0 -119 -45.5t-45 -118.5v-78
q0 -10 -10 -10h-21q-10 0 -10 10v78q0 92 56.5 148.5t148.5 56.5h338q92 0 148.5 -56.5t56.5 -148.5v-918q0 -10 -11 -10h-20q-10 0 -10 10v115q-270 -135 -447 -135q-123 0 -196.5 64.5t-73.5 168.5zM633 1380l104 -145l-24 -6q-8 0 -17 8l-92 115l-90 -115q-8 -8 -16 -8
h-21l98 151q4 8 17 9h26q11 -1 15 -9z" />
    <glyph glyph-name="atilde" unicode="&#xe3;" 
d="M922 174v371q-258 57 -410 57q-127 0 -196.5 -55t-69.5 -150v-174q0 -86 61.5 -139t163.5 -53q175 0 451 143zM205 223v174q0 111 84 178.5t217 67.5q41 0 108.5 -7t122 -16.5t114.5 -18.5t71 -11v338q0 74 -45.5 119t-118.5 45h-338q-74 0 -119 -45.5t-45 -118.5v-78
q0 -10 -10 -10h-21q-10 0 -10 10v78q0 92 56.5 148.5t148.5 56.5h338q92 0 148.5 -56.5t56.5 -148.5v-918q0 -10 -11 -10h-20q-10 0 -10 10v115q-270 -135 -447 -135q-123 0 -196.5 64.5t-73.5 168.5zM440 1264v26q0 18 47.5 34.5t70 16.5t36.5 -8l61 -33q8 -4 17 -4
q35 0 108 37l8 -30q0 -20 -43 -34t-69 -14q-23 0 -39 9l-62 32q-8 4 -16 4q-37 0 -108 -40q-2 -2 -6.5 -2t-4.5 6z" />
    <glyph glyph-name="adieresis" unicode="&#xe4;" 
d="M922 174v371q-258 57 -410 57q-127 0 -196.5 -55t-69.5 -150v-174q0 -86 61.5 -139t163.5 -53q175 0 451 143zM205 223v174q0 111 84 178.5t217 67.5q41 0 108.5 -7t122 -16.5t114.5 -18.5t71 -11v338q0 74 -45.5 119t-118.5 45h-338q-74 0 -119 -45.5t-45 -118.5v-78
q0 -10 -10 -10h-21q-10 0 -10 10v78q0 92 56.5 148.5t148.5 56.5h338q92 0 148.5 -56.5t56.5 -148.5v-918q0 -10 -11 -10h-20q-10 0 -10 10v115q-270 -135 -447 -135q-123 0 -196.5 64.5t-73.5 168.5zM391 1274v59q0 25 25 25h59q25 0 25 -25v-59q0 -25 -25 -25h-59
q-25 0 -25 25zM711 1274v59q0 25 24 25h60q25 0 24 -25v-59q0 -25 -24 -25h-60q-24 0 -24 25z" />
    <glyph glyph-name="aring" unicode="&#xe5;" 
d="M922 174v371q-258 57 -410 57q-127 0 -196.5 -55t-69.5 -150v-174q0 -86 61.5 -139t163.5 -53q175 0 451 143zM543 1321q0 -27 17.5 -44t44 -17t44 17t17.5 44t-17.5 44t-44 17t-44 -17t-17.5 -44zM205 223v174q0 111 84 178.5t217 67.5q41 0 108.5 -7t122 -16.5
t114.5 -18.5t71 -11v338q0 74 -45.5 119t-118.5 45h-338q-74 0 -119 -45.5t-45 -118.5v-78q0 -10 -10 -10h-21q-10 0 -10 10v78q0 92 56.5 148.5t148.5 56.5h338q92 0 148.5 -56.5t56.5 -148.5v-918q0 -10 -11 -10h-20q-10 0 -10 10v115q-270 -135 -447 -135
q-123 0 -196.5 64.5t-73.5 168.5zM502 1321q0 43 29.5 72.5t72.5 29.5t73 -29.5t30 -72.5q0 -41 -30 -71.5t-73 -30.5t-72.5 30.5t-29.5 71.5z" />
    <glyph glyph-name="ae" unicode="&#xe6;" 
d="M569 199v354q-184 49 -295 49q-70 0 -112.5 -45t-42.5 -119v-256q0 -68 43 -109.5t112 -41.5q113 0 297 127q-2 14 -2 41zM887 1092h-113q-74 0 -119 -44t-45 -116v-361h441v361q0 72 -45 116t-119 44zM1081 530h-471v-327q0 -76 45 -122t119 -46h113q74 0 119 45t45 119
v77q0 10 10 11h20q10 0 11 -11v-77q0 -92 -56.5 -148.5t-148.5 -56.5h-113q-147 0 -192 125q-180 -129 -312 -129q-82 0 -137 53t-55 139v256q0 90 55 147.5t137 57.5q123 0 299 -47v332q0 74 -45 119t-118 45h-113q-74 0 -119 -45.5t-45 -118.5v-78q0 -10 -10 -10h-21
q-10 0 -10 10v78q0 92 56.5 148.5t148.5 56.5h113q131 0 184 -107q49 106 184 107h113q92 0 148.5 -55.5t56.5 -145.5v-391q-1 -11 -11 -11z" />
    <glyph glyph-name="ccedilla" unicode="&#xe7;" 
d="M672 -162v-28q0 -33 -19.5 -52.5t-52.5 -19.5h-94q-10 0 -10 10v21q0 10 10 10h94q31 0 31 31v28q0 31 -31 31h-63q-12 0 -9 10l19 115h-137q-92 0 -148.5 56t-56.5 149v729q0 92 56 148.5t149 56.5h348q92 0 148.5 -56.5t56.5 -148.5v-78q0 -10 -11 -10h-20
q-10 0 -10 10v78q0 74 -45.5 119t-118.5 45h-348q-74 0 -119 -45.5t-45 -118.5v-729q0 -74 45 -119t119 -45h348q74 0 119 45t45 119v77q0 10 10 11h20q10 0 11 -11v-77q0 -92 -56.5 -148.5t-148.5 -56.5h-170l-15 -84h27q33 0 52.5 -19.5t19.5 -52.5z" />
    <glyph glyph-name="egrave" unicode="&#xe8;" 
d="M758 1092h-348q-74 0 -119 -44t-45 -116v-361h676v361q0 72 -45 116t-119 44zM952 530h-706v-327q0 -76 45 -122t119 -46h348q74 0 119 45t45 119v77q0 10 10 11h20q10 0 11 -11v-77q0 -92 -56.5 -148.5t-148.5 -56.5h-348q-92 0 -148.5 56t-56.5 149v729q0 92 56 148.5
t149 56.5h348q92 0 148.5 -55.5t56.5 -145.5v-391q-1 -11 -11 -11zM494 1393l90 -164h-21q-12 0 -16 8l-103 162z" />
    <glyph glyph-name="eacute" unicode="&#xe9;" 
d="M758 1092h-348q-74 0 -119 -44t-45 -116v-361h676v361q0 72 -45 116t-119 44zM952 530h-706v-327q0 -76 45 -122t119 -46h348q74 0 119 45t45 119v77q0 10 10 11h20q10 0 11 -11v-77q0 -92 -56.5 -148.5t-148.5 -56.5h-348q-92 0 -148.5 56t-56.5 149v729q0 92 56 148.5
t149 56.5h348q92 0 148.5 -55.5t56.5 -145.5v-391q-1 -11 -11 -11zM561 1235l92 158q6 6 15 6l41 -8l-107 -154q-8 -8 -16 -8z" />
    <glyph glyph-name="ecircumflex" unicode="&#xea;" 
d="M758 1092h-348q-74 0 -119 -44t-45 -116v-361h676v361q0 72 -45 116t-119 44zM952 530h-706v-327q0 -76 45 -122t119 -46h348q74 0 119 45t45 119v77q0 10 10 11h20q10 0 11 -11v-77q0 -92 -56.5 -148.5t-148.5 -56.5h-348q-92 0 -148.5 56t-56.5 149v729q0 92 56 148.5
t149 56.5h348q92 0 148.5 -55.5t56.5 -145.5v-391q-1 -11 -11 -11zM602 1380l100 -151h-20q-8 0 -16 8l-93 115l-90 -115q-8 -8 -16 -8l-25 6l103 145q4 8 16 9h27q10 -1 14 -9z" />
    <glyph glyph-name="edieresis" unicode="&#xeb;" 
d="M758 1092h-348q-74 0 -119 -44t-45 -116v-361h676v361q0 72 -45 116t-119 44zM952 530h-706v-327q0 -76 45 -122t119 -46h348q74 0 119 45t45 119v77q0 10 10 11h20q10 0 11 -11v-77q0 -92 -56.5 -148.5t-148.5 -56.5h-348q-92 0 -148.5 56t-56.5 149v729q0 92 56 148.5
t149 56.5h348q92 0 148.5 -55.5t56.5 -145.5v-391q-1 -11 -11 -11zM360 1274v59q0 25 25 25h59q25 0 25 -25v-59q0 -25 -25 -25h-59q-25 0 -25 25zM680 1274v59q0 25 25 25h59q25 0 24 -25v-59q0 -25 -24 -25h-59q-25 0 -25 25z" />
    <glyph glyph-name="igrave" unicode="&#xec;" 
d="M215 1096v20q0 10 10 10h369q10 0 10 -10v-1075h338q10 0 10 -10v-21q0 -10 -10 -10h-717q-10 0 -10 10v21q0 10 10 10h338v1044h-338q-10 1 -10 11zM432 1393l90 -164h-20q-12 0 -17 8l-102 162z" />
    <glyph glyph-name="iacute" unicode="&#xed;" 
d="M215 1096v20q0 10 10 10h369q10 0 10 -10v-1075h338q10 0 10 -10v-21q0 -10 -10 -10h-717q-10 0 -10 10v21q0 10 10 10h338v1044h-338q-10 1 -10 11zM500 1235l92 158q6 6 14 6l41 -8l-106 -154q-8 -8 -17 -8z" />
    <glyph glyph-name="icircumflex" unicode="&#xee;" 
d="M215 1096v20q0 10 10 10h369q10 0 10 -10v-1075h338q10 0 10 -10v-21q0 -10 -10 -10h-717q-10 0 -10 10v21q0 10 10 10h338v1044h-338q-10 1 -10 11zM541 1380l100 -151h-20q-8 0 -17 8l-92 115l-90 -115q-8 -8 -16 -8l-25 6l102 145q4 8 17 9h26q11 -1 15 -9z" />
    <glyph glyph-name="idieresis" unicode="&#xef;" 
d="M215 1096v20q0 10 10 10h369q10 0 10 -10v-1075h338q10 0 10 -10v-21q0 -10 -10 -10h-717q-10 0 -10 10v21q0 10 10 10h338v1044h-338q-10 1 -10 11zM299 1274v59q0 25 25 25h59q25 0 25 -25v-59q0 -25 -25 -25h-59q-25 0 -25 25zM618 1274v59q0 25 25 25h59q25 0 25 -25
v-59q0 -25 -25 -25h-59q-25 0 -25 25z" />
    <glyph glyph-name="eth" unicode="&#xf0;" 
d="M922 199v772q-287 125 -473 125q-90 0 -146.5 -56.5t-56.5 -148.5v-701q0 -70 45 -112.5t119 -42.5h348q74 0 119 45t45 119zM524 1241l56 113l-256 39q-10 4 -11 12v22q0 12 11 9l276 -43l70 120l24 -24l-51 -103l39 -6q131 -20 206 -88.5t75 -158.5v-934
q0 -92 -56.5 -148.5t-148.5 -56.5h-348q-92 0 -148.5 54t-56.5 142v701q0 111 67.5 178.5t178.5 67.5q184 0 471 -119v117q0 74 -65.5 132t-174.5 72l-57 9l-76 -131z" />
    <glyph glyph-name="ntilde" unicode="&#xf1;" 
d="M215 1126h21q10 0 10 -10v-115q281 135 448 136q123 0 196 -68t73 -178v-881q0 -10 -11 -10h-20q-10 0 -10 10v881q0 92 -60.5 148.5t-163.5 56.5q-176 0 -452 -144v-942q0 -10 -10 -10h-21q-10 0 -10 10v1106q0 10 10 10zM399 1264v26q0 18 47.5 34.5t70 16.5t36.5 -8
l61 -33q8 -4 17 -4q18 0 62 15.5t55 15.5v-24q0 -20 -43 -34t-70 -14q-23 0 -39 9l-61 32q-8 4 -17 4q-37 0 -108 -40q-2 -2 -6.5 -2t-4.5 6z" />
    <glyph glyph-name="ograve" unicode="&#xf2;" 
d="M246 928v-729q0 -74 45 -119t119 -45h348q74 0 119 45t45 119v729q0 74 -45.5 119t-118.5 45h-348q-74 0 -119 -45t-45 -119zM205 199v729q0 92 56 148.5t149 56.5h348q92 0 148.5 -56.5t56.5 -148.5v-729q0 -92 -56.5 -148.5t-148.5 -56.5h-348q-92 0 -148.5 56.5
t-56.5 148.5zM504 1393l90 -164h-21q-12 0 -16 8l-102 162z" />
    <glyph glyph-name="oacute" unicode="&#xf3;" 
d="M246 928v-729q0 -74 45 -119t119 -45h348q74 0 119 45t45 119v729q0 74 -45.5 119t-118.5 45h-348q-74 0 -119 -45t-45 -119zM205 199v729q0 92 56 148.5t149 56.5h348q92 0 148.5 -56.5t56.5 -148.5v-729q0 -92 -56.5 -148.5t-148.5 -56.5h-348q-92 0 -148.5 56.5
t-56.5 148.5zM571 1235l93 158q6 6 14 6l41 -8l-107 -154q-8 -8 -16 -8z" />
    <glyph glyph-name="ocircumflex" unicode="&#xf4;" 
d="M246 928v-729q0 -74 45 -119t119 -45h348q74 0 119 45t45 119v729q0 74 -45.5 119t-118.5 45h-348q-74 0 -119 -45t-45 -119zM205 199v729q0 92 56 148.5t149 56.5h348q92 0 148.5 -56.5t56.5 -148.5v-729q0 -92 -56.5 -148.5t-148.5 -56.5h-348q-92 0 -148.5 56.5
t-56.5 148.5zM612 1380l101 -151h-21q-8 0 -16 8l-92 115l-90 -115q-8 -8 -17 -8l-24 6l102 145q4 8 16 9h27q10 -1 14 -9z" />
    <glyph glyph-name="otilde" unicode="&#xf5;" 
d="M246 928v-729q0 -74 45 -119t119 -45h348q74 0 119 45t45 119v729q0 74 -45.5 119t-118.5 45h-348q-74 0 -119 -45t-45 -119zM205 199v729q0 92 56 148.5t149 56.5h348q92 0 148.5 -56.5t56.5 -148.5v-729q0 -92 -56.5 -148.5t-148.5 -56.5h-348q-92 0 -148.5 56.5
t-56.5 148.5zM420 1264v26q0 18 47 34.5t69.5 16.5t36.5 -8l62 -33q8 -4 16 -4q18 0 62.5 15.5t54.5 15.5v-24q0 -20 -43 -34t-70 -14q-23 0 -39 9l-61 32q-8 4 -16 4q-37 0 -109 -40q-2 -2 -6 -2t-4 6z" />
    <glyph glyph-name="odieresis" unicode="&#xf6;" 
d="M246 928v-729q0 -74 45 -119t119 -45h348q74 0 119 45t45 119v729q0 74 -45.5 119t-118.5 45h-348q-74 0 -119 -45t-45 -119zM205 199v729q0 92 56 148.5t149 56.5h348q92 0 148.5 -56.5t56.5 -148.5v-729q0 -92 -56.5 -148.5t-148.5 -56.5h-348q-92 0 -148.5 56.5
t-56.5 148.5zM690 1274v59q0 25 25 25h59q25 0 25 -25v-59q0 -25 -25 -25h-59q-25 0 -25 25zM371 1274v59q0 25 24 25h60q25 0 24 -25v-59q0 -25 -24 -25h-60q-24 0 -24 25z" />
    <glyph glyph-name="divide" unicode="&#xf7;" 
d="M297 707v20q0 10 10 10h553q10 0 10 -10v-20q0 -10 -10 -11h-553q-10 1 -10 11zM543 1020v49q0 16 16 16h49q16 0 17 -16v-49q0 -16 -17 -16h-49q-16 0 -16 16zM543 365v49q0 16 16 16h49q16 0 17 -16v-49q0 -16 -17 -17h-49q-16 1 -16 17z" />
    <glyph glyph-name="oslash" unicode="&#xf8;" 
d="M371 39l383 1053h-344q-72 0 -118 -45.5t-46 -118.5v-729q0 -63 34 -106.5t91 -53.5zM797 1087l-383 -1052h344q74 0 119 45t45 119v729q0 63 -34 106t-91 53zM328 -82l28 82q-70 16 -110.5 68.5t-40.5 130.5v729q0 92 56 148.5t149 56.5h358l35 90q0 6 8 6h6l19 -6
q10 -4 6 -13l-31 -84q70 -16 111 -68t41 -130v-729q0 -92 -56.5 -148.5t-148.5 -56.5h-359l-32 -90q-4 -10 -13 -6l-20 8q-10 4 -6 12z" />
    <glyph glyph-name="ugrave" unicode="&#xf9;" 
d="M952 0h-20q-10 0 -10 10v115q-281 -135 -449 -135q-123 0 -195.5 67.5t-72.5 178.5v880q0 10 10 10h21q10 0 10 -10v-880q0 -92 60.5 -148.5t162.5 -56.5q176 0 453 143v942q0 10 10 10h20q10 0 11 -10v-1106q-1 -10 -11 -10zM504 1393l90 -164h-21q-12 0 -16 8l-102 162
z" />
    <glyph glyph-name="uacute" unicode="&#xfa;" 
d="M952 0h-20q-10 0 -10 10v115q-281 -135 -449 -135q-123 0 -195.5 67.5t-72.5 178.5v880q0 10 10 10h21q10 0 10 -10v-880q0 -92 60.5 -148.5t162.5 -56.5q176 0 453 143v942q0 10 10 10h20q10 0 11 -10v-1106q-1 -10 -11 -10zM571 1235l93 158q6 6 14 6l41 -8l-107 -154
q-8 -8 -16 -8z" />
    <glyph glyph-name="ucircumflex" unicode="&#xfb;" 
d="M952 0h-20q-10 0 -10 10v115q-281 -135 -449 -135q-123 0 -195.5 67.5t-72.5 178.5v880q0 10 10 10h21q10 0 10 -10v-880q0 -92 60.5 -148.5t162.5 -56.5q176 0 453 143v942q0 10 10 10h20q10 0 11 -10v-1106q-1 -10 -11 -10zM612 1380l101 -151h-21q-8 0 -16 8l-92 115
l-90 -115q-8 -8 -17 -8l-24 6l102 145q4 8 16 9h27q10 -1 14 -9z" />
    <glyph glyph-name="udieresis" unicode="&#xfc;" 
d="M952 0h-20q-10 0 -10 10v115q-281 -135 -449 -135q-123 0 -195.5 67.5t-72.5 178.5v880q0 10 10 10h21q10 0 10 -10v-880q0 -92 60.5 -148.5t162.5 -56.5q176 0 453 143v942q0 10 10 10h20q10 0 11 -10v-1106q-1 -10 -11 -10zM371 1274v59q0 25 24 25h60q25 0 24 -25v-59
q0 -25 -24 -25h-60q-24 0 -24 25zM690 1274v59q0 25 25 25h59q25 0 25 -25v-59q0 -25 -25 -25h-59q-25 0 -25 25z" />
    <glyph glyph-name="yacute" unicode="&#xfd;" 
d="M440 -297l117 299l-434 1114q-4 10 8 10h21q10 0 14 -10l409 -1046q2 -4 3 -31h4q0 27 2 31l417 1046q4 10 15 10h20q8 0 8 -10l-561 -1413q-4 -10 -12 -10h-22q-13 0 -9 10zM571 1235l93 158q6 6 14 6l41 -8l-107 -154q-8 -8 -16 -8z" />
    <glyph glyph-name="thorn" unicode="&#xfe;" 
d="M246 952v-778q276 -143 448 -143q104 0 166 53t62 143v672q0 90 -61.5 143.5t-166.5 53.5q-172 -1 -448 -144zM236 -307h-21q-10 0 -10 10v1720q0 10 10 11h21q10 0 10 -11v-422q270 135 446 136q123 0 197 -64.5t74 -171.5v-674q0 -109 -74 -173t-197 -64
q-176 0 -446 135v-422q0 -10 -10 -10z" />
    <glyph glyph-name="ydieresis" unicode="&#xff;" 
d="M440 -297l117 299l-434 1114q-4 10 8 10h21q10 0 14 -10l409 -1046q2 -4 3 -31h4q0 27 2 31l417 1046q4 10 15 10h20q8 0 8 -10l-561 -1413q-4 -10 -12 -10h-22q-13 0 -9 10zM690 1274v59q0 25 25 25h59q25 0 25 -25v-59q0 -25 -25 -25h-59q-25 0 -25 25zM371 1274v59
q0 25 24 25h60q25 0 24 -25v-59q0 -25 -24 -25h-60q-24 0 -24 25z" />
    <glyph glyph-name="Amacron" unicode="&#x100;" 
d="M268 358h633l-313 992v20h-8q0 -2 1 -10t1 -10zM913 317h-657l-96 -307q-4 -10 -15 -10h-22q-10 0 -6 10l444 1413q0 10 12 11h21q10 0 14 -11l445 -1413q0 -10 -9 -10h-20q-12 0 -12 10zM453 1577v20q0 10 10 11h244q10 0 10 -11v-20q0 -10 -10 -10h-244q-10 0 -10 10z
" />
    <glyph glyph-name="amacron" unicode="&#x101;" 
d="M922 174v371q-258 57 -410 57q-127 0 -196.5 -55t-69.5 -150v-174q0 -86 61.5 -139t163.5 -53q175 0 451 143zM205 223v174q0 111 84 178.5t217 67.5q41 0 108.5 -7t122 -16.5t114.5 -18.5t71 -11v338q0 74 -45.5 119t-118.5 45h-338q-74 0 -119 -45.5t-45 -118.5v-78
q0 -10 -10 -10h-21q-10 0 -10 10v78q0 92 56.5 148.5t148.5 56.5h338q92 0 148.5 -56.5t56.5 -148.5v-918q0 -10 -11 -10h-20q-10 0 -10 10v115q-270 -135 -447 -135q-123 0 -196.5 64.5t-73.5 168.5zM473 1270v20q0 10 10 10h244q10 0 10 -10v-20q0 -10 -10 -10h-244
q-10 0 -10 10z" />
    <glyph glyph-name="Abreve" unicode="&#x102;" 
d="M268 358h633l-313 992v20h-8q0 -2 1 -10t1 -10zM913 317h-657l-96 -307q-4 -10 -15 -10h-22q-10 0 -6 10l444 1413q0 10 12 11h21q10 0 14 -11l445 -1413q0 -10 -9 -10h-20q-12 0 -12 10zM717 1649v-11q0 -45 -29 -73.5t-74 -28.5h-59q-47 0 -74.5 28.5t-27.5 73.5v11
q0 10 10 10h20q10 0 11 -10v-15q0 -57 57 -57h67q25 0 41.5 15.5t16.5 41.5v15q0 10 10 10h21q10 0 10 -10z" />
    <glyph glyph-name="abreve" unicode="&#x103;" 
d="M922 174v371q-258 57 -410 57q-127 0 -196.5 -55t-69.5 -150v-174q0 -86 61.5 -139t163.5 -53q175 0 451 143zM205 223v174q0 111 84 178.5t217 67.5q41 0 108.5 -7t122 -16.5t114.5 -18.5t71 -11v338q0 74 -45.5 119t-118.5 45h-338q-74 0 -119 -45.5t-45 -118.5v-78
q0 -10 -10 -10h-21q-10 0 -10 10v78q0 92 56.5 148.5t148.5 56.5h338q92 0 148.5 -56.5t56.5 -148.5v-918q0 -10 -11 -10h-20q-10 0 -10 10v115q-270 -135 -447 -135q-123 0 -196.5 64.5t-73.5 168.5zM737 1341v-10q0 -45 -28.5 -73.5t-73.5 -28.5h-60q-47 0 -74.5 28.5
t-27.5 73.5v10q0 10 10 11h21q10 0 10 -11v-14q0 -57 57 -57h68q25 0 41 15t16 42v14q0 10 11 11h20q10 -1 10 -11z" />
    <glyph glyph-name="Aogonek" unicode="&#x104;" 
d="M268 358h633l-313 992q-2 6 -2 20h-4v-20zM1016 0l-101 317h-659l-96 -307q-4 -10 -15 -10h-22q-10 0 -6 10l444 1413q0 10 12 11h21q10 0 14 -11l449 -1423q-57 -96 -58 -170q0 -35 31 -35h94q10 0 11 -10v-21q0 -10 -11 -10h-100q-29 0 -47.5 18.5t-18.5 47.5
q1 98 58 180z" />
    <glyph glyph-name="aogonek" unicode="&#x105;" 
d="M922 174v371q-258 57 -410 57q-127 0 -196.5 -56.5t-69.5 -148.5v-174q0 -86 61.5 -139t163.5 -53q175 0 451 143zM963 928v-928q-57 -96 -58 -170q0 -35 31 -35h94q10 0 10 -10v-21q0 -10 -10 -10h-100q-29 0 -47.5 18.5t-18.5 47.5q0 98 58 180v125
q-270 -135 -447 -135q-123 0 -196.5 64.5t-73.5 168.5v174q0 111 84 178.5t217 67.5q41 0 108.5 -7t122 -16.5t114.5 -18.5t71 -11v338q0 74 -45.5 119t-118.5 45h-338q-74 0 -119 -45.5t-45 -118.5v-78q0 -10 -10 -10h-21q-10 0 -10 10v78q0 92 56.5 148.5t148.5 56.5h338
q92 0 148.5 -56.5t56.5 -148.5z" />
    <glyph glyph-name="Cacute" unicode="&#x106;" 
d="M932 369h20q10 0 11 -11v-159q0 -92 -56.5 -148.5t-148.5 -56.5h-348q-92 0 -148.5 56t-56.5 149v1036q0 92 56 148.5t149 56.5h348q92 0 148.5 -56.5t56.5 -148.5v-160q0 -10 -11 -10h-20q-10 0 -10 10v160q0 74 -45.5 119t-118.5 45h-348q-74 0 -119 -45t-45 -119
v-1036q0 -74 45 -119t119 -45h348q74 0 119 45t45 119v159q0 11 10 11zM571 1542l93 158q6 6 14 6l41 -8l-107 -154q-8 -8 -16 -8z" />
    <glyph glyph-name="cacute" unicode="&#x107;" 
d="M410 35h348q74 0 119 45t45 119v77q0 10 10 11h20q10 0 11 -11v-77q0 -92 -56.5 -148.5t-148.5 -56.5h-348q-92 0 -148.5 56t-56.5 149v729q0 92 56 148.5t149 56.5h348q92 0 148.5 -56.5t56.5 -148.5v-78q0 -10 -11 -10h-20q-10 0 -10 10v78q0 74 -45.5 119t-118.5 45
h-348q-74 0 -119 -45.5t-45 -118.5v-729q0 -74 45 -119t119 -45zM590 1229l88 164q6 6 14 6h37l-102 -162q-8 -8 -17 -8h-20z" />
    <glyph glyph-name="Ccircumflex" unicode="&#x108;" 
d="M932 369h20q10 0 11 -11v-159q0 -92 -56.5 -148.5t-148.5 -56.5h-348q-92 0 -148.5 56t-56.5 149v1036q0 92 56 148.5t149 56.5h348q92 0 148.5 -56.5t56.5 -148.5v-160q0 -10 -11 -10h-20q-10 0 -10 10v160q0 74 -45.5 119t-118.5 45h-348q-74 0 -119 -45t-45 -119
v-1036q0 -74 45 -119t119 -45h348q74 0 119 45t45 119v159q0 11 10 11zM612 1688l101 -152h-21q-8 0 -16 8l-92 115l-90 -115q-8 -8 -17 -8l-24 6l102 146q4 8 16 8h27q10 0 14 -8z" />
    <glyph glyph-name="ccircumflex" unicode="&#x109;" 
d="M410 35h348q74 0 119 45t45 119v77q0 10 10 11h20q10 0 11 -11v-77q0 -92 -56.5 -148.5t-148.5 -56.5h-348q-92 0 -148.5 56t-56.5 149v729q0 92 56 148.5t149 56.5h348q92 0 148.5 -56.5t56.5 -148.5v-78q0 -10 -11 -10h-20q-10 0 -10 10v78q0 74 -45.5 119t-118.5 45
h-348q-74 0 -119 -45.5t-45 -118.5v-729q0 -74 45 -119t119 -45zM627 1380l104 -145l-24 -6q-8 0 -17 8l-92 115l-90 -115q-8 -8 -16 -8h-21l98 151q4 8 17 9h26q11 -1 15 -9z" />
    <glyph glyph-name="Cdotaccent" unicode="&#x10a;" 
d="M932 369h20q10 0 11 -11v-159q0 -92 -56.5 -148.5t-148.5 -56.5h-348q-92 0 -148.5 56t-56.5 149v1036q0 92 56 148.5t149 56.5h348q92 0 148.5 -56.5t56.5 -148.5v-160q0 -10 -11 -10h-20q-10 0 -10 10v160q0 74 -45.5 119t-118.5 45h-348q-74 0 -119 -45t-45 -119
v-1036q0 -74 45 -119t119 -45h348q74 0 119 45t45 119v159q0 11 10 11zM530 1581v59q0 25 25 25h57q25 0 25 -25v-59q0 -25 -25 -25h-57q-25 0 -25 25z" />
    <glyph glyph-name="cdotaccent" unicode="&#x10b;" 
d="M410 35h348q74 0 119 45t45 119v77q0 10 10 11h20q10 0 11 -11v-77q0 -92 -56.5 -148.5t-148.5 -56.5h-348q-92 0 -148.5 56t-56.5 149v729q0 92 56 148.5t149 56.5h348q92 0 148.5 -56.5t56.5 -148.5v-78q0 -10 -11 -10h-20q-10 0 -10 10v78q0 74 -45.5 119t-118.5 45
h-348q-74 0 -119 -45.5t-45 -118.5v-729q0 -74 45 -119t119 -45zM545 1274v59q0 25 24 25h58q25 0 24 -25v-59q0 -25 -24 -25h-58q-24 0 -24 25z" />
    <glyph glyph-name="Ccaron" unicode="&#x10c;" 
d="M932 369h20q10 0 11 -11v-159q0 -92 -56.5 -148.5t-148.5 -56.5h-348q-92 0 -148.5 56t-56.5 149v1036q0 92 56 148.5t149 56.5h348q92 0 148.5 -56.5t56.5 -148.5v-160q0 -10 -11 -10h-20q-10 0 -10 10v160q0 74 -45.5 119t-118.5 45h-348q-74 0 -119 -45t-45 -119
v-1036q0 -74 45 -119t119 -45h348q74 0 119 45t45 119v159q0 11 10 11zM717 1690l-105 -146q-4 -8 -14 -8h-27q-12 0 -16 8l-98 152h20q8 0 17 -8l90 -115l92 115q8 8 16 8z" />
    <glyph glyph-name="ccaron" unicode="&#x10d;" 
d="M410 35h348q74 0 119 45t45 119v77q0 10 10 11h20q10 0 11 -11v-77q0 -92 -56.5 -148.5t-148.5 -56.5h-348q-92 0 -148.5 56t-56.5 149v729q0 92 56 148.5t149 56.5h348q92 0 148.5 -56.5t56.5 -148.5v-78q0 -10 -11 -10h-20q-10 0 -10 10v78q0 74 -45.5 119t-118.5 45
h-348q-74 0 -119 -45.5t-45 -118.5v-729q0 -74 45 -119t119 -45zM727 1389l-100 -152q-4 -8 -15 -8h-26q-12 0 -17 8l-102 145l25 7q8 0 16 -9l90 -114l92 114q8 8 17 9h20z" />
    <glyph glyph-name="Dcaron" unicode="&#x10e;" 
d="M246 1393v-1352h512q74 0 119 45t45 119v1024q0 74 -45.5 119t-118.5 45h-512zM205 10v1413q0 10 10 11h543q92 0 148.5 -56.5t56.5 -148.5v-1024q0 -92 -56.5 -148.5t-148.5 -56.5h-543q-10 0 -10 10zM676 1690l-105 -146q-4 -8 -14 -8h-27q-12 0 -16 8l-98 152h20
q8 0 17 -8l90 -115l92 115q8 8 16 8z" />
    <glyph glyph-name="dcaron" unicode="&#x10f;" 
d="M840 172v782q-252 141 -394 142q-92 0 -146 -56.5t-54 -148.5v-655q0 -92 54 -148.5t146 -56.5q142 0 394 141zM850 1434h20q10 0 11 -11v-1413q0 -10 -11 -10h-20q-10 0 -10 10v115q-231 -135 -394 -135q-111 0 -176 67.5t-65 178.5v655q0 111 65.5 178.5t175.5 67.5
q162 0 394 -136v422q0 11 10 11zM1032 1255l25 162q4 16 18 17h60q18 0 12 -17l-53 -162q-6 -16 -23 -16h-27q-16 0 -12 16z" />
    <glyph glyph-name="Dcroat" unicode="&#x110;" 
d="M553 737h-307v-696h512q74 0 119 45t45 119v1024q0 74 -45.5 119t-118.5 45h-512v-615h307q10 0 10 -10v-20q0 -11 -10 -11zM51 748v20q0 10 10 10h144v645q0 10 10 11h543q92 0 148.5 -56.5t56.5 -148.5v-1024q0 -92 -56.5 -148.5t-148.5 -56.5h-543q-10 0 -10 10v727
h-144q-10 1 -10 11z" />
    <glyph glyph-name="dcroat" unicode="&#x111;" 
d="M922 174v778q-276 143 -449 144q-104 0 -165.5 -56.5t-61.5 -148.5v-655q0 -92 61.5 -148.5t165.5 -56.5q173 0 449 143zM553 1260v20q0 10 10 10h359v133q0 10 10 11h20q10 0 11 -11v-133h153q10 0 10 -10v-20q0 -10 -10 -11h-153v-1239q0 -10 -11 -10h-20q-10 0 -10 10
v115q-270 -135 -445 -135q-125 0 -198.5 67.5t-73.5 178.5v655q0 111 73.5 178.5t198.5 67.5q174 0 445 -136v248h-359q-10 1 -10 11z" />
    <glyph glyph-name="Emacron" unicode="&#x112;" 
d="M205 10v1413q0 10 10 11h737q10 0 11 -11v-20q0 -10 -11 -10h-706v-701h522q10 0 10 -10v-20q0 -10 -10 -11h-522v-610h706q10 0 11 -10v-21q0 -10 -11 -10h-737q-10 0 -10 10zM442 1577v20q0 10 11 11h243q10 0 11 -11v-20q0 -10 -11 -10h-243q-11 0 -11 10z" />
    <glyph glyph-name="emacron" unicode="&#x113;" 
d="M758 1092h-348q-74 0 -119 -44t-45 -116v-361h676v361q0 72 -45 116t-119 44zM952 530h-706v-327q0 -76 45 -122t119 -46h348q74 0 119 45t45 119v77q0 10 10 11h20q10 0 11 -11v-77q0 -92 -56.5 -148.5t-148.5 -56.5h-348q-92 0 -148.5 56t-56.5 149v729q0 92 56 148.5
t149 56.5h348q92 0 148.5 -55.5t56.5 -145.5v-391q-1 -11 -11 -11zM442 1270v20q0 10 11 10h243q10 0 11 -10v-20q0 -10 -11 -10h-243q-11 0 -11 10z" />
    <glyph glyph-name="Ebreve" unicode="&#x114;" 
d="M205 10v1413q0 10 10 11h737q10 0 11 -11v-20q0 -10 -11 -10h-706v-701h522q10 0 10 -10v-20q0 -10 -10 -11h-522v-610h706q10 0 11 -10v-21q0 -10 -11 -10h-737q-10 0 -10 10zM707 1649v-11q0 -45 -28 -73.5t-75 -28.5h-59q-45 0 -74 28.5t-29 73.5v11q0 10 11 10h20
q10 0 10 -10v-15q0 -57 58 -57h67q25 0 41.5 15.5t16.5 41.5v15q0 10 10 10h20q11 0 11 -10z" />
    <glyph glyph-name="ebreve" unicode="&#x115;" 
d="M758 1092h-348q-74 0 -119 -44t-45 -116v-361h676v361q0 72 -45 116t-119 44zM952 530h-706v-327q0 -76 45 -122t119 -46h348q74 0 119 45t45 119v77q0 10 10 11h20q10 0 11 -11v-77q0 -92 -56.5 -148.5t-148.5 -56.5h-348q-92 0 -148.5 56t-56.5 149v729q0 92 56 148.5
t149 56.5h348q92 0 148.5 -55.5t56.5 -145.5v-391q-1 -11 -11 -11zM707 1341v-10q0 -45 -28 -73.5t-75 -28.5h-59q-45 0 -74 28.5t-29 73.5v10q0 10 11 11h20q10 0 10 -11v-14q0 -57 58 -57h67q25 0 41.5 15t16.5 42v14q0 10 10 11h20q11 -1 11 -11z" />
    <glyph glyph-name="Edotaccent" unicode="&#x116;" 
d="M205 10v1413q0 10 10 11h737q10 0 11 -11v-20q0 -10 -11 -10h-706v-701h522q10 0 10 -10v-20q0 -10 -10 -11h-522v-610h706q10 0 11 -10v-21q0 -10 -11 -10h-737q-10 0 -10 10zM520 1581v59q0 25 25 25h57q25 0 25 -25v-59q0 -25 -25 -25h-57q-25 0 -25 25z" />
    <glyph glyph-name="edotaccent" unicode="&#x117;" 
d="M758 1092h-348q-74 0 -119 -44t-45 -116v-361h676v361q0 72 -45 116t-119 44zM952 530h-706v-327q0 -76 45 -122t119 -46h348q74 0 119 45t45 119v77q0 10 10 11h20q10 0 11 -11v-77q0 -92 -56.5 -148.5t-148.5 -56.5h-348q-92 0 -148.5 56t-56.5 149v729q0 92 56 148.5
t149 56.5h348q92 0 148.5 -55.5t56.5 -145.5v-391q-1 -11 -11 -11zM520 1274v59q0 25 25 25h57q25 0 25 -25v-59q0 -25 -25 -25h-57q-25 0 -25 25z" />
    <glyph glyph-name="Eogonek" unicode="&#x118;" 
d="M842 0h-627q-10 0 -10 10v1413q0 10 10 11h737q10 0 11 -11v-20q0 -10 -11 -10h-706v-701h522q10 0 10 -10v-20q0 -10 -10 -11h-522v-610h706q10 0 11 -10v-21q0 -10 -11 -10h-69q-55 -94 -56 -166q0 -35 31 -35h94q10 0 11 -10v-20q0 -10 -11 -11h-100q-29 0 -47.5 18.5
t-18.5 47.5q1 92 56 176z" />
    <glyph glyph-name="eogonek" unicode="&#x119;" 
d="M758 1092h-348q-74 0 -119 -44t-45 -116v-361h676v361q0 72 -45 116t-119 44zM715 -6h-305q-92 0 -148.5 56t-56.5 149v729q0 92 56 148.5t149 56.5h348q92 0 148.5 -55.5t56.5 -145.5v-391q0 -10 -11 -11h-706v-327q0 -76 45 -122t119 -46h348q74 0 119 45t45 119v77
q0 10 10 11h20q10 0 11 -11v-77q0 -92 -56.5 -148.5t-148.5 -56.5h-2q-51 -92 -51 -160q0 -35 30 -35h94q10 0 11 -10v-20q0 -10 -11 -11h-100q-29 0 -47 18.5t-18 47.5q0 86 51 170z" />
    <glyph glyph-name="Ecaron" unicode="&#x11a;" 
d="M205 10v1413q0 10 10 11h737q10 0 11 -11v-20q0 -10 -11 -10h-706v-701h522q10 0 10 -10v-20q0 -10 -10 -11h-522v-610h706q10 0 11 -10v-21q0 -10 -11 -10h-737q-10 0 -10 10zM707 1690l-105 -146q-4 -8 -14 -8h-27q-12 0 -16 8l-99 152h21q8 0 16 -8l90 -115l93 115
q8 8 16 8z" />
    <glyph glyph-name="ecaron" unicode="&#x11b;" 
d="M758 1092h-348q-74 0 -119 -44t-45 -116v-361h676v361q0 72 -45 116t-119 44zM952 530h-706v-327q0 -76 45 -122t119 -46h348q74 0 119 45t45 119v77q0 10 10 11h20q10 0 11 -11v-77q0 -92 -56.5 -148.5t-148.5 -56.5h-348q-92 0 -148.5 56t-56.5 149v729q0 92 56 148.5
t149 56.5h348q92 0 148.5 -55.5t56.5 -145.5v-391q-1 -11 -11 -11zM707 1382l-105 -145q-4 -8 -14 -8h-27q-12 0 -16 8l-99 152h21q8 0 16 -9l90 -114l93 114q8 8 16 9z" />
    <glyph glyph-name="Gcircumflex" unicode="&#x11c;" 
d="M655 662v20q0 10 11 10h286q10 0 11 -10v-483q0 -92 -56.5 -148.5t-148.5 -56.5h-348q-92 0 -148.5 56t-56.5 149v1036q0 92 56 148.5t149 56.5h348q92 0 148.5 -56.5t56.5 -148.5v-160q0 -10 -11 -10h-20q-10 0 -10 10v160q0 74 -45.5 119t-118.5 45h-348
q-74 0 -119 -45t-45 -119v-1036q0 -74 45 -119t119 -45h348q74 0 119 45t45 119v452h-256q-11 1 -11 11zM612 1688l101 -152h-21q-8 0 -16 8l-92 115l-90 -115q-8 -8 -17 -8l-24 6l102 146q4 8 16 8h27q10 0 14 -8z" />
    <glyph glyph-name="gcircumflex" unicode="&#x11d;" 
d="M922 174v778q-276 143 -449 144q-104 0 -165.5 -56.5t-61.5 -148.5v-655q0 -92 61.5 -148.5t165.5 -56.5q173 0 449 143zM922 1001v115q0 10 10 10h20q10 0 11 -10v-1163q0 -125 -98.5 -197.5t-286.5 -72.5q-63 0 -192.5 15t-129.5 38v22q0 6 6 6t8 -2q117 -39 301 -38
q176 0 263.5 61t87.5 168v172q-270 -135 -445 -135q-125 0 -198.5 67.5t-73.5 178.5v655q0 111 73.5 178.5t198.5 67.5q175 -1 445 -136zM633 1380l100 -151h-20q-8 0 -17 8l-92 115l-90 -115q-8 -8 -16 -8l-25 6l102 145q4 8 17 9h26q11 -1 15 -9z" />
    <glyph glyph-name="Gbreve" unicode="&#x11e;" 
d="M655 662v20q0 10 11 10h286q10 0 11 -10v-483q0 -92 -56.5 -148.5t-148.5 -56.5h-348q-92 0 -148.5 56t-56.5 149v1036q0 92 56 148.5t149 56.5h348q92 0 148.5 -56.5t56.5 -148.5v-160q0 -10 -11 -10h-20q-10 0 -10 10v160q0 74 -45.5 119t-118.5 45h-348
q-74 0 -119 -45t-45 -119v-1036q0 -74 45 -119t119 -45h348q74 0 119 45t45 119v452h-256q-11 1 -11 11zM717 1649v-11q0 -45 -29 -73.5t-74 -28.5h-59q-47 0 -74.5 28.5t-27.5 73.5v11q0 10 10 10h20q10 0 11 -10v-15q0 -57 57 -57h67q25 0 41.5 15.5t16.5 41.5v15
q0 10 10 10h21q10 0 10 -10z" />
    <glyph glyph-name="gbreve" unicode="&#x11f;" 
d="M922 174v778q-276 143 -449 144q-104 0 -165.5 -56.5t-61.5 -148.5v-655q0 -92 61.5 -148.5t165.5 -56.5q173 0 449 143zM922 1001v115q0 10 10 10h20q10 0 11 -10v-1163q0 -125 -98.5 -197.5t-286.5 -72.5q-63 0 -192.5 15t-129.5 38v22q0 6 6 6t8 -2q117 -39 301 -38
q176 0 263.5 61t87.5 168v172q-270 -135 -445 -135q-125 0 -198.5 67.5t-73.5 178.5v655q0 111 73.5 178.5t198.5 67.5q175 -1 445 -136zM737 1341v-10q0 -45 -28.5 -73.5t-73.5 -28.5h-60q-47 0 -74.5 28.5t-27.5 73.5v10q0 10 10 11h21q10 0 10 -11v-14q0 -57 57 -57h68
q25 0 41 15t16 42v14q0 10 11 11h20q10 -1 10 -11z" />
    <glyph glyph-name="Gdotaccent" unicode="&#x120;" 
d="M655 662v20q0 10 11 10h286q10 0 11 -10v-483q0 -92 -56.5 -148.5t-148.5 -56.5h-348q-92 0 -148.5 56t-56.5 149v1036q0 92 56 148.5t149 56.5h348q92 0 148.5 -56.5t56.5 -148.5v-160q0 -10 -11 -10h-20q-10 0 -10 10v160q0 74 -45.5 119t-118.5 45h-348
q-74 0 -119 -45t-45 -119v-1036q0 -74 45 -119t119 -45h348q74 0 119 45t45 119v452h-256q-11 1 -11 11zM530 1581v59q0 25 25 25h57q25 0 25 -25v-59q0 -25 -25 -25h-57q-25 0 -25 25z" />
    <glyph glyph-name="gdotaccent" unicode="&#x121;" 
d="M922 174v778q-276 143 -449 144q-104 0 -165.5 -56.5t-61.5 -148.5v-655q0 -92 61.5 -148.5t165.5 -56.5q173 0 449 143zM922 1001v115q0 10 10 10h20q10 0 11 -10v-1163q0 -125 -98.5 -197.5t-286.5 -72.5q-63 0 -192.5 15t-129.5 38v22q0 6 6 6t8 -2q117 -39 301 -38
q176 0 263.5 61t87.5 168v172q-270 -135 -445 -135q-125 0 -198.5 67.5t-73.5 178.5v655q0 111 73.5 178.5t198.5 67.5q175 -1 445 -136zM551 1274v59q0 25 24 25h58q25 0 24 -25v-59q0 -25 -24 -25h-58q-24 0 -24 25z" />
    <glyph glyph-name="uni0122" unicode="&#x122;" 
d="M655 662v20q0 10 11 10h286q10 0 11 -10v-483q0 -92 -56.5 -148.5t-148.5 -56.5h-348q-92 0 -148.5 56t-56.5 149v1036q0 92 56 148.5t149 56.5h348q92 0 148.5 -56.5t56.5 -148.5v-160q0 -10 -11 -10h-20q-10 0 -10 10v160q0 74 -45.5 119t-118.5 45h-348
q-74 0 -119 -45t-45 -119v-1036q0 -74 45 -119t119 -45h348q74 0 119 45t45 119v452h-256q-11 1 -11 11zM526 -270l25 161q4 16 18 17h60q18 0 12 -17l-53 -161q-6 -16 -23 -17h-26q-17 1 -13 17z" />
    <glyph glyph-name="uni0123" unicode="&#x123;" 
d="M922 174v778q-276 143 -449 144q-104 0 -165.5 -56.5t-61.5 -148.5v-655q0 -92 61.5 -148.5t165.5 -56.5q173 0 449 143zM922 1001v115q0 10 10 10h20q10 0 11 -10v-1163q0 -125 -98.5 -197.5t-286.5 -72.5q-63 0 -192.5 15t-129.5 38v22q0 6 6 6t8 -2q117 -39 301 -38
q176 0 263.5 61t87.5 168v172q-270 -135 -445 -135q-125 0 -198.5 67.5t-73.5 178.5v655q0 111 73.5 178.5t198.5 67.5q175 -1 445 -136zM684 1407l-25 -162q-4 -16 -18 -16h-59q-18 0 -13 16l54 162q6 16 22 16h27q16 0 12 -16z" />
    <glyph glyph-name="Hcircumflex" unicode="&#x124;" 
d="M205 10v1413q0 10 10 11h21q10 0 10 -11v-731h676v731q0 10 10 11h20q10 0 11 -11v-1413q0 -10 -11 -10h-20q-10 0 -10 10v641h-676v-641q0 -10 -10 -10h-21q-10 0 -10 10zM612 1688l101 -152h-21q-8 0 -16 8l-92 115l-90 -115q-8 -8 -17 -8l-24 6l102 146q4 8 16 8h27
q10 0 14 -8z" />
    <glyph glyph-name="hcircumflex" unicode="&#x125;" 
d="M215 1434h21q10 0 10 -11v-422q281 135 448 136q123 0 196 -68t73 -178v-881q0 -10 -11 -10h-20q-10 0 -10 10v881q0 92 -60.5 148.5t-163.5 56.5q-176 0 -452 -144v-942q0 -10 -10 -10h-21q-10 0 -10 10v1413q0 11 10 11zM248 1667l100 -151h-20q-8 0 -17 8l-92 114
l-90 -114q-8 -8 -16 -8l-25 6l102 145q4 8 17 8h26q11 0 15 -8z" />
    <glyph glyph-name="Hbar" unicode="&#x126;" 
d="M922 692v475h-676v-475h676zM932 1434h20q10 0 11 -11v-215h153q10 0 10 -10v-20q0 -10 -10 -11h-153v-1157q0 -10 -11 -10h-20q-10 0 -10 10v641h-676v-641q0 -10 -10 -10h-21q-10 0 -10 10v1157h-154q-10 0 -10 11v20q0 10 10 10h154v215q0 10 10 11h21q10 0 10 -11
v-215h676v215q0 11 10 11z" />
    <glyph glyph-name="hbar" unicode="&#x127;" 
d="M41 1260v20q0 10 10 10h154v133q0 10 10 11h21q10 0 10 -11v-133h358q10 0 10 -10v-20q0 -10 -10 -11h-358v-248q281 135 448 136q123 0 196 -68t73 -178v-881q0 -10 -11 -10h-20q-10 0 -10 10v881q0 92 -60.5 148.5t-163.5 56.5q-176 0 -452 -144v-942q0 -10 -10 -10
h-21q-10 0 -10 10v1239h-154q-10 1 -10 11z" />
    <glyph glyph-name="Itilde" unicode="&#x128;" 
d="M195 10v21q0 10 10 10h358v1352h-358q-10 0 -10 10v20q0 10 10 11h758q10 0 10 -11v-20q0 -10 -10 -10h-359v-1352h359q10 0 10 -10v-21q0 -10 -10 -10h-758q-10 0 -10 10zM420 1571v26q0 18 47 35t69.5 17t36.5 -9l62 -32q8 -4 16 -4q18 0 62.5 15t54.5 15v-24
q0 -20 -43 -33.5t-70 -13.5q-23 0 -39 8l-61 33q-8 4 -16 4q-37 0 -109 -41q-2 -2 -6 -2t-4 6z" />
    <glyph glyph-name="itilde" unicode="&#x129;" 
d="M215 1096v20q0 10 10 10h369q10 0 10 -10v-1075h338q10 0 10 -10v-21q0 -10 -10 -10h-717q-10 0 -10 10v21q0 10 10 10h338v1044h-338q-10 1 -10 11zM348 1264v26q0 18 47 34.5t69.5 16.5t37.5 -8l61 -33q8 -4 17 -4q18 0 62 15.5t54 15.5v-24q0 -20 -43 -34t-69 -14
q-23 0 -39 9l-62 32q-8 4 -16 4q-37 0 -109 -40q-2 -2 -6 -2t-4 6z" />
    <glyph glyph-name="Imacron" unicode="&#x12a;" 
d="M195 10v21q0 10 10 10h358v1352h-358q-10 0 -10 10v20q0 10 10 11h758q10 0 10 -11v-20q0 -10 -10 -10h-359v-1352h359q10 0 10 -10v-21q0 -10 -10 -10h-758q-10 0 -10 10zM453 1577v20q0 10 10 11h244q10 0 10 -11v-20q0 -10 -10 -10h-244q-10 0 -10 10z" />
    <glyph glyph-name="imacron" unicode="&#x12b;" 
d="M215 1096v20q0 10 10 10h369q10 0 10 -10v-1075h338q10 0 10 -10v-21q0 -10 -10 -10h-717q-10 0 -10 10v21q0 10 10 10h338v1044h-338q-10 1 -10 11zM381 1270v20q0 10 10 10h244q10 0 10 -10v-20q0 -10 -10 -10h-244q-10 0 -10 10z" />
    <glyph glyph-name="Ibreve" unicode="&#x12c;" 
d="M195 10v21q0 10 10 10h358v1352h-358q-10 0 -10 10v20q0 10 10 11h758q10 0 10 -11v-20q0 -10 -10 -10h-359v-1352h359q10 0 10 -10v-21q0 -10 -10 -10h-758q-10 0 -10 10zM717 1649v-11q0 -45 -29 -73.5t-74 -28.5h-59q-47 0 -74.5 28.5t-27.5 73.5v11q0 10 10 10h20
q10 0 11 -10v-15q0 -57 57 -57h67q25 0 41.5 15.5t16.5 41.5v15q0 10 10 10h21q10 0 10 -10z" />
    <glyph glyph-name="ibreve" unicode="&#x12d;" 
d="M215 1096v20q0 10 10 10h369q10 0 10 -10v-1075h338q10 0 10 -10v-21q0 -10 -10 -10h-717q-10 0 -10 10v21q0 10 10 10h338v1044h-338q-10 1 -10 11zM645 1341v-10q0 -45 -27.5 -73.5t-74.5 -28.5h-60q-45 0 -73.5 28.5t-28.5 73.5v10q0 10 10 11h21q10 0 10 -11v-14
q0 -57 57 -57h68q25 0 41 15t16 42v14q0 10 10 11h21q10 -1 10 -11z" />
    <glyph glyph-name="Iogonek" unicode="&#x12e;" 
d="M563 0h-358q-10 0 -10 10v21q0 10 10 10h358v1352h-358q-10 0 -10 10v20q0 10 10 11h758q10 0 10 -11v-20q0 -10 -10 -10h-359v-1352h359q10 0 10 -10v-21q0 -10 -10 -10h-359q-57 -96 -57 -170q0 -35 31 -35h94q10 0 10 -10v-21q0 -10 -10 -10h-101q-29 0 -47 18.5
t-18 47.5q0 98 57 180z" />
    <glyph glyph-name="iogonek" unicode="&#x12f;" 
d="M563 0h-338q-10 0 -10 10v21q0 10 10 10h338v1044h-338q-10 0 -10 11v20q0 10 10 10h369q10 0 10 -10v-1075h338q10 0 10 -10v-21q0 -10 -10 -10h-338q-55 -94 -55 -166q0 -35 31 -35h94q10 0 10 -10v-20q0 -10 -10 -11h-101q-29 0 -47 18.5t-18 47.5q0 92 55 176z
M451 1337v121q0 16 16 17h121q16 0 16 -17v-121q0 -16 -16 -16h-121q-16 0 -16 16z" />
    <glyph glyph-name="Idotaccent" unicode="&#x130;" 
d="M195 10v21q0 10 10 10h358v1352h-358q-10 0 -10 10v20q0 10 10 11h758q10 0 10 -11v-20q0 -10 -10 -10h-359v-1352h359q10 0 10 -10v-21q0 -10 -10 -10h-758q-10 0 -10 10zM530 1581v59q0 25 25 25h57q25 0 25 -25v-59q0 -25 -25 -25h-57q-25 0 -25 25z" />
    <glyph glyph-name="dotlessi" unicode="&#x131;" 
d="M215 1096v20q0 10 10 10h369q10 0 10 -10v-1075h338q10 0 10 -10v-21q0 -10 -10 -10h-717q-10 0 -10 10v21q0 10 10 10h338v1044h-338q-10 1 -10 11z" />
    <glyph glyph-name="IJ" unicode="&#x132;" 
d="M666 1434h286q10 0 11 -11v-1224q0 -92 -57.5 -149.5t-149.5 -57.5h-213q-92 0 -149.5 56t-57.5 149v98q0 10 10 10h21q10 0 10 -10v-96q0 -74 46 -120t120 -46h213q74 0 120 46t46 120v1194h-256q-10 0 -11 10v20q1 11 11 11zM377 1423v-862q0 -10 -10 -10h-21
q-10 0 -10 10v832h-256q-10 0 -10 10v20q0 10 10 11h287q10 -1 10 -11z" />
    <glyph glyph-name="ij" unicode="&#x133;" 
d="M674 -297v21q0 10 10 10h102q74 0 119 45t45 119v1187h-215q-10 0 -10 11v20q0 10 10 10h242q14 0 14 -10v-1218q0 -92 -56 -148.5t-149 -56.5h-102q-10 0 -10 10zM610 0h-467q-12 0 -12 10v21q0 10 10 10h215v1044h-215q-10 0 -10 11v20q0 10 10 10h242q14 0 14 -10
v-1075h215q10 0 11 -10v-21q-1 -10 -13 -10zM244 1337v121q0 16 16 17h121q16 0 16 -17v-121q0 -16 -16 -16h-121q-16 0 -16 16zM838 1337v121q0 16 16 17h121q16 0 16 -17v-121q0 -16 -16 -16h-121q-16 0 -16 16z" />
    <glyph glyph-name="Jcircumflex" unicode="&#x134;" 
d="M512 1403v20q0 10 10 11h430q10 0 11 -11v-1224q0 -92 -56.5 -148.5t-148.5 -56.5h-359q-92 0 -148 56t-56 149v98q0 10 10 10h20q10 0 11 -10v-98q0 -74 45 -119t118 -45h359q74 0 119 45t45 119v1194h-400q-10 0 -10 10zM760 1688l104 -146l-24 -6q-8 0 -17 8l-92 115
l-90 -115q-8 -8 -16 -8h-21l98 152q4 8 17 8h26q11 0 15 -8z" />
    <glyph glyph-name="jcircumflex" unicode="&#x135;" 
d="M360 1126h490q10 0 10 -10v-1163q0 -125 -98 -197.5t-287 -72.5q-63 0 -192 15t-129 38v22q0 6 6 6t8 -2q117 -39 301 -38q176 0 263 62t87 169v1130h-459q-10 0 -10 11v20q0 10 10 10zM649 1380l101 -151h-21q-8 0 -16 8l-92 115l-91 -115q-8 -8 -16 -8l-25 6l103 145
q4 8 16 9h27q10 -1 14 -9z" />
    <glyph glyph-name="uni0136" unicode="&#x136;" 
d="M565 707h-319v-697q0 -10 -10 -10h-21q-10 0 -10 10v1413q0 10 10 11h21q10 0 10 -11v-675h319l412 677q8 8 16 9l33 -9l-426 -698l451 -727h-31q-8 0 -16 8zM526 -270l25 161q4 16 18 17h60q18 0 12 -17l-53 -161q-6 -16 -23 -17h-26q-17 1 -13 17z" />
    <glyph glyph-name="uni0137" unicode="&#x137;" 
d="M510 553h-264v-543q0 -10 -10 -10h-21q-10 0 -10 10v1413q0 10 10 11h21q10 0 10 -11v-829h262l444 524q8 8 17 8l37 -8l-459 -545l481 -573h-31q-8 0 -16 8zM526 -270l25 161q4 16 18 17h60q18 0 12 -17l-53 -161q-6 -16 -23 -17h-26q-17 1 -13 17z" />
    <glyph glyph-name="Lacute" unicode="&#x139;" 
d="M276 41h717q10 0 11 -10v-21q0 -10 -11 -10h-747q-10 0 -10 10v1413q0 10 10 11h20q10 0 10 -11v-1382zM248 1534l92 158q6 6 14 6l41 -8l-106 -154q-8 -8 -17 -8z" />
    <glyph glyph-name="lacute" unicode="&#x13a;" 
d="M215 1403v20q0 10 10 11h369q10 0 10 -11v-1382h338q10 0 10 -10v-21q0 -10 -10 -10h-717q-10 0 -10 10v21q0 10 10 10h338v1352h-338q-10 0 -10 10zM428 1542l92 158q6 6 15 6l40 -8l-106 -154q-8 -8 -16 -8z" />
    <glyph glyph-name="uni013B" unicode="&#x13b;" 
d="M276 41h717q10 0 11 -10v-21q0 -10 -11 -10h-747q-10 0 -10 10v1413q0 10 10 11h20q10 0 10 -11v-1382zM526 -270l25 161q4 16 18 17h60q18 0 12 -17l-53 -161q-6 -16 -23 -17h-26q-17 1 -13 17z" />
    <glyph glyph-name="uni013C" unicode="&#x13c;" 
d="M215 1403v20q0 10 10 11h369q10 0 10 -11v-1382h338q10 0 10 -10v-21q0 -10 -10 -10h-717q-10 0 -10 10v21q0 10 10 10h338v1352h-338q-10 0 -10 10zM526 -270l25 161q4 16 18 17h60q18 0 12 -17l-53 -161q-6 -16 -23 -17h-26q-17 1 -13 17z" />
    <glyph glyph-name="Lcaron" unicode="&#x13d;" 
d="M276 41h717q10 0 11 -10v-21q0 -10 -11 -10h-747q-10 0 -10 10v1413q0 10 10 11h20q10 0 10 -11v-1382zM731 1255l25 162q4 16 18 17h60q18 0 12 -17l-53 -162q-6 -16 -23 -16h-27q-16 0 -12 16z" />
    <glyph glyph-name="lcaron" unicode="&#x13e;" 
d="M215 1403v20q0 10 10 11h369q10 0 10 -11v-1382h338q10 0 10 -10v-21q0 -10 -10 -10h-717q-10 0 -10 10v21q0 10 10 10h338v1352h-338q-10 0 -10 10zM930 1255l24 162q4 16 19 17h59q18 0 12 -17l-53 -162q-6 -16 -22 -16h-27q-16 0 -12 16z" />
    <glyph glyph-name="Ldot" unicode="&#x13f;" 
d="M276 41h717q10 0 11 -10v-21q0 -10 -11 -10h-747q-10 0 -10 10v1413q0 10 10 11h20q10 0 10 -11v-1382zM758 651v131q0 16 16 17h131q16 0 17 -17v-131q0 -16 -17 -16h-131q-16 0 -16 16z" />
    <glyph glyph-name="ldot" unicode="&#x140;" 
d="M215 1403v20q0 10 10 11h369q10 0 10 -11v-1382h338q10 0 10 -10v-21q0 -10 -10 -10h-717q-10 0 -10 10v21q0 10 10 10h338v1352h-338q-10 0 -10 10zM1085 651v131q0 16 17 17h131q16 0 16 -17v-131q0 -16 -16 -16h-131q-17 0 -17 16z" />
    <glyph glyph-name="Lslash" unicode="&#x141;" 
d="M63 508l-10 18q-6 6 4 15l179 102v780q0 10 10 11h20q10 0 10 -11v-755l220 127q2 2 6 2t8 -4l10 -19q4 -8 -4 -14l-240 -139v-580h717q10 0 11 -10v-21q0 -10 -11 -10h-747q-10 0 -10 10v588l-158 -92q-2 -2 -6.5 -2t-8.5 4z" />
    <glyph glyph-name="lslash" unicode="&#x142;" 
d="M369 530l-9 19q-4 8 7 14l196 96v734h-338q-10 0 -10 10v20q0 10 10 11h369q10 0 10 -11v-743l178 86l4 2q4 0 9 -4l8 -19q4 -8 -6 -14l-193 -94v-596h338q10 0 10 -10v-21q0 -10 -10 -10h-717q-10 0 -10 10v21q0 10 10 10h338v575l-182 -88l-4 -2q-4 0 -8 4z" />
    <glyph glyph-name="Nacute" unicode="&#x143;" 
d="M246 1333v-1323q0 -10 -10 -10h-21q-10 0 -10 10v1413q0 10 10 11h21q10 0 14 -9l668 -1327q2 -4 2 -18l8 2q0 2 -2 6q-4 8 -4 12v1323q0 10 10 11h20q10 0 11 -11v-1413q0 -10 -11 -10h-20q-10 0 -14 8l-668 1327q-2 4 -2 19l-8 -2q0 -2 2 -6q4 -9 4 -13zM571 1542
l93 158q6 6 14 6l41 -8l-107 -154q-8 -8 -16 -8z" />
    <glyph glyph-name="nacute" unicode="&#x144;" 
d="M215 1126h21q10 0 10 -10v-115q281 135 448 136q123 0 196 -68t73 -178v-881q0 -10 -11 -10h-20q-10 0 -10 10v881q0 92 -60.5 148.5t-163.5 56.5q-176 0 -452 -144v-942q0 -10 -10 -10h-21q-10 0 -10 10v1106q0 10 10 10zM551 1235l92 158q6 6 14 6l41 -8l-106 -154
q-8 -8 -17 -8z" />
    <glyph glyph-name="uni0145" unicode="&#x145;" 
d="M246 1333v-1323q0 -10 -10 -10h-21q-10 0 -10 10v1413q0 10 10 11h21q10 0 14 -9l668 -1327q2 -4 2 -18l8 2q0 2 -2 6q-4 8 -4 12v1323q0 10 10 11h20q10 0 11 -11v-1413q0 -10 -11 -10h-20q-10 0 -14 8l-668 1327q-2 4 -2 19l-8 -2q0 -2 2 -6q4 -9 4 -13zM526 -270
l25 161q4 16 18 17h60q18 0 12 -17l-53 -161q-6 -16 -23 -17h-26q-17 1 -13 17z" />
    <glyph glyph-name="uni0146" unicode="&#x146;" 
d="M215 1126h21q10 0 10 -10v-115q281 135 448 136q123 0 196 -68t73 -178v-881q0 -10 -11 -10h-20q-10 0 -10 10v881q0 92 -60.5 148.5t-163.5 56.5q-176 0 -452 -144v-942q0 -10 -10 -10h-21q-10 0 -10 10v1106q0 10 10 10zM526 -270l25 161q4 16 18 17h60q18 0 12 -17
l-53 -161q-6 -16 -23 -17h-26q-17 1 -13 17z" />
    <glyph glyph-name="Ncaron" unicode="&#x147;" 
d="M246 1333v-1323q0 -10 -10 -10h-21q-10 0 -10 10v1413q0 10 10 11h21q10 0 14 -9l668 -1327q2 -4 2 -18l8 2q0 2 -2 6q-4 8 -4 12v1323q0 10 10 11h20q10 0 11 -11v-1413q0 -10 -11 -10h-20q-10 0 -14 8l-668 1327q-2 4 -2 19l-8 -2q0 -2 2 -6q4 -9 4 -13zM717 1690
l-105 -146q-4 -8 -14 -8h-27q-12 0 -16 8l-98 152h20q8 0 17 -8l90 -115l92 115q8 8 16 8z" />
    <glyph glyph-name="ncaron" unicode="&#x148;" 
d="M215 1126h21q10 0 10 -10v-115q281 135 448 136q123 0 196 -68t73 -178v-881q0 -10 -11 -10h-20q-10 0 -10 10v881q0 92 -60.5 148.5t-163.5 56.5q-176 0 -452 -144v-942q0 -10 -10 -10h-21q-10 0 -10 10v1106q0 10 10 10zM696 1382l-104 -145q-4 -8 -14 -8h-27
q-12 0 -16 8l-99 152h21q8 0 16 -9l90 -114l92 114q8 8 17 9z" />
    <glyph glyph-name="Eng" unicode="&#x14a;" 
d="M758 -307h-185q-10 0 -10 10v21q0 10 10 10h185q74 0 119 45t45 119v106l-672 1325q-2 6 -2 21h-4q0 -2 1 -8.5t1 -10.5v-1321q0 -10 -10 -10h-21q-10 0 -10 10v1413q0 10 10 11h21q8 0 12 -11l670 -1321q2 -6 2 -20h4q0 4 -1 10t-1 10v1321q0 10 10 11h20q10 0 11 -11
v-1525q0 -92 -56.5 -148.5t-148.5 -56.5z" />
    <glyph glyph-name="eng" unicode="&#x14b;" 
d="M215 1126h21q10 0 10 -10v-115q281 135 448 136q123 0 196 -68t73 -178v-1000q0 -90 -56.5 -144t-148.5 -54h-199q-10 0 -10 10v21q0 10 10 10h199q74 0 119 43t45 114v1000q0 92 -60.5 148.5t-163.5 56.5q-176 0 -452 -144v-942q0 -10 -10 -10h-21q-10 0 -10 10v1106
q0 10 10 10z" />
    <glyph glyph-name="Omacron" unicode="&#x14c;" 
d="M225 1235v-1036q0 -74 45 -119t119 -45h389q74 0 119 45t45 119v1036q0 74 -45 119t-119 45h-389q-74 0 -119 -45t-45 -119zM184 199v1036q0 92 56.5 148.5t148.5 56.5h389q92 0 148.5 -56.5t56.5 -148.5v-1036q0 -92 -56.5 -148.5t-148.5 -56.5h-389q-92 0 -148.5 56.5
t-56.5 148.5zM453 1577v20q0 10 10 11h244q10 0 10 -11v-20q0 -10 -10 -10h-244q-10 0 -10 10z" />
    <glyph glyph-name="omacron" unicode="&#x14d;" 
d="M246 928v-729q0 -74 45 -119t119 -45h348q74 0 119 45t45 119v729q0 74 -45.5 119t-118.5 45h-348q-74 0 -119 -45t-45 -119zM205 199v729q0 92 56 148.5t149 56.5h348q92 0 148.5 -56.5t56.5 -148.5v-729q0 -92 -56.5 -148.5t-148.5 -56.5h-348q-92 0 -148.5 56.5
t-56.5 148.5zM453 1270v20q0 10 10 10h244q10 0 10 -10v-20q0 -10 -10 -10h-244q-10 0 -10 10z" />
    <glyph glyph-name="Obreve" unicode="&#x14e;" 
d="M225 1235v-1036q0 -74 45 -119t119 -45h389q74 0 119 45t45 119v1036q0 74 -45 119t-119 45h-389q-74 0 -119 -45t-45 -119zM184 199v1036q0 92 56.5 148.5t148.5 56.5h389q92 0 148.5 -56.5t56.5 -148.5v-1036q0 -92 -56.5 -148.5t-148.5 -56.5h-389q-92 0 -148.5 56.5
t-56.5 148.5zM717 1649v-11q0 -45 -29 -73.5t-74 -28.5h-59q-47 0 -74.5 28.5t-27.5 73.5v11q0 10 10 10h20q10 0 11 -10v-15q0 -57 57 -57h67q25 0 41.5 15.5t16.5 41.5v15q0 10 10 10h21q10 0 10 -10z" />
    <glyph glyph-name="obreve" unicode="&#x14f;" 
d="M246 928v-729q0 -74 45 -119t119 -45h348q74 0 119 45t45 119v729q0 74 -45.5 119t-118.5 45h-348q-74 0 -119 -45t-45 -119zM205 199v729q0 92 56 148.5t149 56.5h348q92 0 148.5 -56.5t56.5 -148.5v-729q0 -92 -56.5 -148.5t-148.5 -56.5h-348q-92 0 -148.5 56.5
t-56.5 148.5zM717 1341v-10q0 -45 -29 -73.5t-74 -28.5h-59q-47 0 -74.5 28.5t-27.5 73.5v10q0 10 10 11h20q10 0 11 -11v-14q0 -57 57 -57h67q25 0 41.5 15t16.5 42v14q0 10 10 11h21q10 -1 10 -11z" />
    <glyph glyph-name="Ohungarumlaut" unicode="&#x150;" 
d="M225 1235v-1036q0 -74 45 -119t119 -45h389q74 0 119 45t45 119v1036q0 74 -45 119t-119 45h-389q-74 0 -119 -45t-45 -119zM184 199v1036q0 92 56.5 148.5t148.5 56.5h389q92 0 148.5 -56.5t56.5 -148.5v-1036q0 -92 -56.5 -148.5t-148.5 -56.5h-389q-92 0 -148.5 56.5
t-56.5 148.5zM645 1542l94 148q2 6 13 6l41 -8l-107 -144q-8 -8 -16 -8zM475 1542l94 148q4 6 13 6l41 -8l-107 -144q-8 -8 -16 -8z" />
    <glyph glyph-name="ohungarumlaut" unicode="&#x151;" 
d="M246 928v-729q0 -74 45 -119t119 -45h348q74 0 119 45t45 119v729q0 74 -45.5 119t-118.5 45h-348q-74 0 -119 -45t-45 -119zM205 199v729q0 92 56 148.5t149 56.5h348q92 0 148.5 -56.5t56.5 -148.5v-729q0 -92 -56.5 -148.5t-148.5 -56.5h-348q-92 0 -148.5 56.5
t-56.5 148.5zM645 1235l94 147q2 6 13 7l41 -9l-107 -143q-8 -8 -16 -8zM475 1235l94 147q4 6 13 7l41 -9l-107 -143q-8 -8 -16 -8z" />
    <glyph glyph-name="OE" unicode="&#x152;" 
d="M133 1235v-1036q0 -74 45 -119t119 -45h195q74 0 118.5 45t44.5 119v1036q0 74 -45 119t-118 45h-195q-74 0 -119 -45t-45 -119zM666 1434h440q10 0 10 -11v-20q0 -10 -10 -10h-410v-701h328q10 0 10 -10v-20q0 -10 -10 -11h-328v-610h410q10 0 10 -10v-21q0 -10 -10 -10
h-440q-10 0 -11 10v58q-55 -74 -163 -74h-195q-92 0 -148.5 56t-56.5 149v1036q0 92 56.5 148.5t148.5 56.5h195q109 0 163 -74v57q1 11 11 11z" />
    <glyph glyph-name="oe" unicode="&#x153;" 
d="M584 199v729q0 74 -45 119t-119 45h-133q-74 0 -119 -45.5t-45 -118.5v-729q0 -74 45 -119t119 -45h133q74 0 119 45t45 119zM881 1092h-105q-68 0 -109.5 -44t-41.5 -116v-361h419v361q0 72 -44.5 116t-118.5 44zM1075 530h-450v-327q0 -76 42 -122t109 -46h105
q74 0 118.5 45t44.5 119v77q0 10 11 11h20q10 0 10 -11v-77q0 -92 -56 -148.5t-148 -56.5h-105q-125 0 -172 106q-53 -106 -184 -106h-133q-92 0 -148.5 56t-56.5 149v729q0 92 56.5 148.5t148.5 56.5h133q131 0 184 -107q47 106 172 107h105q92 0 148 -55.5t56 -145.5v-391
q0 -11 -10 -11z" />
    <glyph glyph-name="Racute" unicode="&#x154;" 
d="M766 1393h-520v-723h520q74 0 119 45t45 119v395q0 74 -45 119t-119 45zM969 10l-273 619h-450v-619q0 -10 -10 -10h-21q-10 0 -10 10v1413q0 10 10 11h551q92 0 148.5 -56.5t56.5 -148.5v-395q0 -92 -56.5 -148.5t-148.5 -56.5h-27l267 -629h-23q-10 0 -14 10zM506 1542
l92 158q6 6 14 6l41 -8l-106 -154q-8 -8 -17 -8z" />
    <glyph glyph-name="racute" unicode="&#x155;" 
d="M829 31v-21q0 -10 -10 -10h-594q-10 0 -10 10v21q0 10 10 10h246v1044h-246q-10 0 -10 11v20q0 10 10 10h277q10 0 10 -10v-174q276 195 500 195q10 0 10 -11v-20q0 -10 -10 -10q-92 0 -210 -47.5t-179.5 -86t-110.5 -73.5v-848h307q10 0 10 -10zM586 1235l92 158
q6 6 14 6l41 -8l-106 -154q-8 -8 -17 -8z" />
    <glyph glyph-name="uni0156" unicode="&#x156;" 
d="M766 1393h-520v-723h520q74 0 119 45t45 119v395q0 74 -45 119t-119 45zM969 10l-273 619h-450v-619q0 -10 -10 -10h-21q-10 0 -10 10v1413q0 10 10 11h551q92 0 148.5 -56.5t56.5 -148.5v-395q0 -92 -56.5 -148.5t-148.5 -56.5h-27l267 -629h-23q-10 0 -14 10zM526 -270
l25 161q4 16 18 17h60q18 0 12 -17l-53 -161q-6 -16 -23 -17h-26q-17 1 -13 17z" />
    <glyph glyph-name="uni0157" unicode="&#x157;" 
d="M829 31v-21q0 -10 -10 -10h-594q-10 0 -10 10v21q0 10 10 10h246v1044h-246q-10 0 -10 11v20q0 10 10 10h277q10 0 10 -10v-174q276 195 500 195q10 0 10 -11v-20q0 -10 -10 -10q-92 0 -210 -47.5t-179.5 -86t-110.5 -73.5v-848h307q10 0 10 -10zM444 -270l25 161
q4 16 18 17h60q18 0 12 -17l-53 -161q-6 -16 -23 -17h-26q-17 1 -13 17z" />
    <glyph glyph-name="Rcaron" unicode="&#x158;" 
d="M766 1393h-520v-723h520q74 0 119 45t45 119v395q0 74 -45 119t-119 45zM969 10l-273 619h-450v-619q0 -10 -10 -10h-21q-10 0 -10 10v1413q0 10 10 11h551q92 0 148.5 -56.5t56.5 -148.5v-395q0 -92 -56.5 -148.5t-148.5 -56.5h-27l267 -629h-23q-10 0 -14 10zM651 1690
l-104 -146q-4 -8 -15 -8h-26q-12 0 -17 8l-98 152h21q8 0 16 -8l90 -115l92 115q8 8 17 8z" />
    <glyph glyph-name="rcaron" unicode="&#x159;" 
d="M829 31v-21q0 -10 -10 -10h-594q-10 0 -10 10v21q0 10 10 10h246v1044h-246q-10 0 -10 11v20q0 10 10 10h277q10 0 10 -10v-174q276 195 500 195q10 0 10 -11v-20q0 -10 -10 -10q-92 0 -210 -47.5t-179.5 -86t-110.5 -73.5v-848h307q10 0 10 -10zM731 1382l-104 -145
q-4 -8 -15 -8h-26q-12 0 -17 8l-98 152h21q8 0 16 -9l90 -114l92 114q8 8 17 9z" />
    <glyph glyph-name="Sacute" unicode="&#x15a;" 
d="M199 1055v180q0 92 56 148.5t148 56.5h361q92 0 148.5 -56.5t56.5 -148.5v-160q0 -10 -11 -10h-20q-10 0 -10 10v160q0 74 -45 119t-119 45h-361q-74 0 -118.5 -45t-44.5 -119v-172q0 -94 77 -141l570 -357q92 -57 92 -166v-200q0 -92 -56.5 -148.5t-148.5 -56.5h-381
q-92 0 -148.5 56t-56.5 149v159q0 10 11 11h20q10 0 10 -11v-159q0 -74 45 -119t119 -45h381q74 0 119 45t45 119v194q0 94 -78 142l-569 354q-92 57 -92 166zM569 1542l93 158q6 6 14 6l41 -8l-107 -154q-8 -8 -16 -8z" />
    <glyph glyph-name="sacute" unicode="&#x15b;" 
d="M963 309v-110q0 -92 -56.5 -148.5t-148.5 -56.5h-348q-92 0 -148.5 56t-56.5 149v77q0 10 10 11h21q10 0 10 -11v-77q0 -74 45 -119t119 -45h348q74 0 119 45t45 119v129q0 51 -24 97t-64 58l-496 158q-57 18 -90 82.5t-33 134.5v70q0 92 56.5 148.5t148.5 56.5h328
q92 0 148 -56.5t56 -148.5v-78q0 -10 -10 -10h-20q-10 0 -11 10v78q0 74 -45 119t-118 45h-328q-74 0 -119 -45.5t-45 -118.5v-88q0 -51 23.5 -97.5t64.5 -58.5l496 -158q57 -18 90 -82.5t33 -134.5zM571 1235l93 158q6 6 14 6l41 -8l-107 -154q-8 -8 -16 -8z" />
    <glyph glyph-name="Scircumflex" unicode="&#x15c;" 
d="M199 1055v180q0 92 56 148.5t148 56.5h361q92 0 148.5 -56.5t56.5 -148.5v-160q0 -10 -11 -10h-20q-10 0 -10 10v160q0 74 -45 119t-119 45h-361q-74 0 -118.5 -45t-44.5 -119v-172q0 -94 77 -141l570 -357q92 -57 92 -166v-200q0 -92 -56.5 -148.5t-148.5 -56.5h-381
q-92 0 -148.5 56t-56.5 149v159q0 10 11 11h20q10 0 10 -11v-159q0 -74 45 -119t119 -45h381q74 0 119 45t45 119v194q0 94 -78 142l-569 354q-92 57 -92 166zM610 1688l101 -152h-21q-8 0 -16 8l-92 115l-90 -115q-8 -8 -17 -8l-24 6l102 146q4 8 16 8h27q10 0 14 -8z" />
    <glyph glyph-name="scircumflex" unicode="&#x15d;" 
d="M963 309v-110q0 -92 -56.5 -148.5t-148.5 -56.5h-348q-92 0 -148.5 56t-56.5 149v77q0 10 10 11h21q10 0 10 -11v-77q0 -74 45 -119t119 -45h348q74 0 119 45t45 119v129q0 51 -24 97t-64 58l-496 158q-57 18 -90 82.5t-33 134.5v70q0 92 56.5 148.5t148.5 56.5h328
q92 0 148 -56.5t56 -148.5v-78q0 -10 -10 -10h-20q-10 0 -11 10v78q0 74 -45 119t-118 45h-328q-74 0 -119 -45.5t-45 -118.5v-88q0 -51 23.5 -97.5t64.5 -58.5l496 -158q57 -18 90 -82.5t33 -134.5zM612 1380l101 -151h-21q-8 0 -16 8l-92 115l-90 -115q-8 -8 -17 -8l-24 6
l102 145q4 8 16 9h27q10 -1 14 -9z" />
    <glyph glyph-name="Scedilla" unicode="&#x15e;" 
d="M672 -162v-28q0 -33 -19.5 -52.5t-52.5 -19.5h-94q-10 0 -10 10v21q0 10 10 10h94q31 0 31 31v28q0 31 -31 31h-63q-12 0 -9 10l19 115h-154q-92 0 -148.5 56t-56.5 149v159q0 10 11 11h20q10 0 10 -11v-159q0 -74 45 -119t119 -45h381q74 0 119 45t45 119v194
q0 94 -78 142l-569 354q-92 57 -92 166v180q0 92 56 148.5t148 56.5h361q92 0 148.5 -56.5t56.5 -148.5v-160q0 -10 -11 -10h-20q-10 0 -10 10v160q0 74 -45 119t-119 45h-361q-74 0 -118.5 -45t-44.5 -119v-172q0 -94 77 -141l570 -357q92 -57 92 -166v-200
q0 -92 -56.5 -148.5t-148.5 -56.5h-186l-15 -84h27q33 0 52.5 -19.5t19.5 -52.5z" />
    <glyph glyph-name="scedilla" unicode="&#x15f;" 
d="M672 -162v-28q0 -33 -19.5 -52.5t-52.5 -19.5h-94q-10 0 -10 10v21q0 10 10 10h94q31 0 31 31v28q0 31 -31 31h-63q-12 0 -9 10l19 115h-137q-92 0 -148.5 56t-56.5 149v77q0 10 10 11h21q10 0 10 -11v-77q0 -74 45 -119t119 -45h348q74 0 119 45t45 119v129q0 51 -24 97
t-64 58l-496 158q-57 18 -90 82.5t-33 134.5v70q0 92 56.5 148.5t148.5 56.5h328q92 0 148 -56.5t56 -148.5v-78q0 -10 -10 -10h-20q-10 0 -11 10v78q0 74 -45 119t-118 45h-328q-74 0 -119 -45.5t-45 -118.5v-88q0 -51 23.5 -97.5t64.5 -58.5l496 -158q57 -18 90 -82.5
t33 -134.5v-110q0 -92 -56.5 -148.5t-148.5 -56.5h-170l-15 -84h27q33 0 52.5 -19.5t19.5 -52.5z" />
    <glyph glyph-name="Scaron" unicode="&#x160;" 
d="M199 1055v180q0 92 56 148.5t148 56.5h361q92 0 148.5 -56.5t56.5 -148.5v-160q0 -10 -11 -10h-20q-10 0 -10 10v160q0 74 -45 119t-119 45h-361q-74 0 -118.5 -45t-44.5 -119v-172q0 -94 77 -141l570 -357q92 -57 92 -166v-200q0 -92 -56.5 -148.5t-148.5 -56.5h-381
q-92 0 -148.5 56t-56.5 149v159q0 10 11 11h20q10 0 10 -11v-159q0 -74 45 -119t119 -45h381q74 0 119 45t45 119v194q0 94 -78 142l-569 354q-92 57 -92 166zM715 1690l-105 -146q-4 -8 -14 -8h-27q-12 0 -16 8l-98 152h20q8 0 17 -8l90 -115l92 115q8 8 16 8z" />
    <glyph glyph-name="scaron" unicode="&#x161;" 
d="M963 309v-110q0 -92 -56.5 -148.5t-148.5 -56.5h-348q-92 0 -148.5 56t-56.5 149v77q0 10 10 11h21q10 0 10 -11v-77q0 -74 45 -119t119 -45h348q74 0 119 45t45 119v129q0 51 -24 97t-64 58l-496 158q-57 18 -90 82.5t-33 134.5v70q0 92 56.5 148.5t148.5 56.5h328
q92 0 148 -56.5t56 -148.5v-78q0 -10 -10 -10h-20q-10 0 -11 10v78q0 74 -45 119t-118 45h-328q-74 0 -119 -45.5t-45 -118.5v-88q0 -51 23.5 -97.5t64.5 -58.5l496 -158q57 -18 90 -82.5t33 -134.5zM717 1382l-105 -145q-4 -8 -14 -8h-27q-12 0 -16 8l-98 152h20q8 0 17 -9
l90 -114l92 114q8 8 16 9z" />
    <glyph glyph-name="uni0162" unicode="&#x162;" 
d="M1065 1423v-20q0 -10 -10 -10h-451v-1383q0 -10 -10 -10h-21q-10 0 -10 10v1383h-450q-10 0 -11 10v20q0 10 11 11h942q10 -1 10 -11zM508 -270l24 161q4 16 19 17h59q18 0 13 -17l-54 -161q-6 -16 -22 -17h-27q-16 1 -12 17z" />
    <glyph glyph-name="uni0163" unicode="&#x163;" 
d="M205 1096v20q0 10 10 10h256v195q0 10 10 10h21q10 0 10 -10v-195h440q10 0 11 -10v-20q0 -10 -11 -11h-440v-886q0 -74 45 -119t119 -45h276q10 0 11 -10v-21q0 -10 -11 -10h-276q-92 0 -148.5 56t-56.5 149v886h-256q-10 1 -10 11zM649 -270l25 161q4 16 18 17h60
q18 0 12 -17l-53 -161q-6 -16 -23 -17h-26q-17 1 -13 17z" />
    <glyph glyph-name="Tcaron" unicode="&#x164;" 
d="M1065 1423v-20q0 -10 -10 -10h-451v-1383q0 -10 -10 -10h-21q-10 0 -10 10v1383h-450q-10 0 -11 10v20q0 10 11 11h942q10 -1 10 -11zM717 1690l-105 -146q-4 -8 -14 -8h-27q-12 0 -16 8l-98 152h20q8 0 17 -8l90 -115l92 115q8 8 16 8z" />
    <glyph glyph-name="tcaron" unicode="&#x165;" 
d="M205 1096v20q0 10 10 10h256v195q0 10 10 10h21q10 0 10 -10v-195h440q10 0 11 -10v-20q0 -10 -11 -11h-440v-886q0 -74 45 -119t119 -45h276q10 0 11 -10v-21q0 -10 -11 -10h-276q-92 0 -148.5 56t-56.5 149v886h-256q-10 1 -10 11zM866 1253l25 162q4 16 18 17h60
q18 0 12 -17l-53 -162q-6 -16 -23 -16h-26q-17 0 -13 16z" />
    <glyph glyph-name="Tbar" unicode="&#x166;" 
d="M328 758h235v635h-450q-10 0 -11 10v20q0 10 11 11h942q10 0 10 -11v-20q0 -10 -10 -10h-451v-635h236q10 0 10 -10v-21q0 -10 -10 -10h-236v-707q0 -10 -10 -10h-21q-10 0 -10 10v707h-235q-10 0 -11 10v21q1 10 11 10z" />
    <glyph glyph-name="tbar" unicode="&#x167;" 
d="M276 752v20q0 10 15 10h180v303h-256q-10 0 -10 11v20q0 10 10 10h256v195q0 10 10 10h21q10 0 10 -10v-195h440q10 0 11 -10v-20q0 -10 -11 -11h-440v-303h297q10 0 10 -10v-20q0 -10 -10 -11h-297v-542q0 -74 45 -119t119 -45h276q10 0 11 -10v-21q0 -10 -11 -10h-276
q-92 0 -148.5 56t-56.5 149v542h-180q-15 1 -15 11z" />
    <glyph glyph-name="Utilde" unicode="&#x168;" 
d="M932 1434h20q10 0 11 -11v-1224q0 -92 -56.5 -148.5t-148.5 -56.5h-348q-92 0 -148.5 56t-56.5 149v1224q0 10 10 11h21q10 0 10 -11v-1224q0 -74 45 -119t119 -45h348q74 0 119 45t45 119v1224q0 11 10 11zM420 1571v26q0 18 47 35t69.5 17t36.5 -9l62 -32q8 -4 16 -4
q35 0 109 36l8 -30q0 -20 -43 -33.5t-70 -13.5q-23 0 -39 8l-61 33q-8 4 -16 4q-37 0 -109 -41q-2 -2 -6 -2t-4 6z" />
    <glyph glyph-name="utilde" unicode="&#x169;" 
d="M952 0h-20q-10 0 -10 10v115q-281 -135 -449 -135q-123 0 -195.5 67.5t-72.5 178.5v880q0 10 10 10h21q10 0 10 -10v-880q0 -92 60.5 -148.5t162.5 -56.5q176 0 453 143v942q0 10 10 10h20q10 0 11 -10v-1106q-1 -10 -11 -10zM420 1264v26q0 18 47 34.5t69.5 16.5
t36.5 -8l62 -33q8 -4 16 -4q18 0 62.5 15.5t54.5 15.5v-24q0 -20 -43 -34t-70 -14q-23 0 -39 9l-61 32q-8 4 -16 4q-37 0 -109 -40q-2 -2 -6 -2t-4 6z" />
    <glyph glyph-name="Umacron" unicode="&#x16a;" 
d="M932 1434h20q10 0 11 -11v-1224q0 -92 -56.5 -148.5t-148.5 -56.5h-348q-92 0 -148.5 56t-56.5 149v1224q0 10 10 11h21q10 0 10 -11v-1224q0 -74 45 -119t119 -45h348q74 0 119 45t45 119v1224q0 11 10 11zM453 1577v20q0 10 10 11h244q10 0 10 -11v-20q0 -10 -10 -10
h-244q-10 0 -10 10z" />
    <glyph glyph-name="umacron" unicode="&#x16b;" 
d="M952 0h-20q-10 0 -10 10v115q-281 -135 -449 -135q-123 0 -195.5 67.5t-72.5 178.5v880q0 10 10 10h21q10 0 10 -10v-880q0 -92 60.5 -148.5t162.5 -56.5q176 0 453 143v942q0 10 10 10h20q10 0 11 -10v-1106q-1 -10 -11 -10zM453 1270v20q0 10 10 10h244q10 0 10 -10
v-20q0 -10 -10 -10h-244q-10 0 -10 10z" />
    <glyph glyph-name="Ubreve" unicode="&#x16c;" 
d="M932 1434h20q10 0 11 -11v-1224q0 -92 -56.5 -148.5t-148.5 -56.5h-348q-92 0 -148.5 56t-56.5 149v1224q0 10 10 11h21q10 0 10 -11v-1224q0 -74 45 -119t119 -45h348q74 0 119 45t45 119v1224q0 11 10 11zM717 1649v-11q0 -45 -29 -73.5t-74 -28.5h-59
q-47 0 -74.5 28.5t-27.5 73.5v11q0 10 10 10h20q10 0 11 -10v-15q0 -57 57 -57h67q25 0 41.5 15.5t16.5 41.5v15q0 10 10 10h21q10 0 10 -10z" />
    <glyph glyph-name="ubreve" unicode="&#x16d;" 
d="M952 0h-20q-10 0 -10 10v115q-281 -135 -449 -135q-123 0 -195.5 67.5t-72.5 178.5v880q0 10 10 10h21q10 0 10 -10v-880q0 -92 60.5 -148.5t162.5 -56.5q176 0 453 143v942q0 10 10 10h20q10 0 11 -10v-1106q-1 -10 -11 -10zM717 1341v-10q0 -45 -29 -73.5t-74 -28.5
h-59q-47 0 -74.5 28.5t-27.5 73.5v10q0 10 10 11h20q10 0 11 -11v-14q0 -57 57 -57h67q25 0 41.5 15t16.5 42v14q0 10 10 11h21q10 -1 10 -11z" />
    <glyph glyph-name="Uring" unicode="&#x16e;" 
d="M932 1434h20q10 0 11 -11v-1224q0 -92 -56.5 -148.5t-148.5 -56.5h-348q-92 0 -148.5 56t-56.5 149v1224q0 10 10 11h21q10 0 10 -11v-1224q0 -74 45 -119t119 -45h348q74 0 119 45t45 119v1224q0 11 10 11zM481 1628q0 43 30 73t73 30t72.5 -30t29.5 -73
q0 -41 -29.5 -71.5t-72.5 -30.5t-73 30.5t-30 71.5zM522 1628.5q0 -26.5 17.5 -44t44 -17.5t44 17.5t17.5 44t-17.5 44t-44 17.5t-44 -17.5t-17.5 -44z" />
    <glyph glyph-name="uring" unicode="&#x16f;" 
d="M522 1321q0 -27 17.5 -44t44 -17t44 17t17.5 44t-17.5 44t-44 17t-44 -17t-17.5 -44zM952 0h-20q-10 0 -10 10v115q-281 -135 -449 -135q-123 0 -195.5 67.5t-72.5 178.5v880q0 10 10 10h21q10 0 10 -10v-880q0 -92 60.5 -148.5t162.5 -56.5q176 0 453 143v942
q0 10 10 10h20q10 0 11 -10v-1106q-1 -10 -11 -10zM481 1321q0 43 30 72.5t73 29.5t72.5 -29.5t29.5 -72.5q0 -41 -29.5 -71.5t-72.5 -30.5t-73 30.5t-30 71.5z" />
    <glyph glyph-name="Uhungarumlaut" unicode="&#x170;" 
d="M932 1434h20q10 0 11 -11v-1224q0 -92 -56.5 -148.5t-148.5 -56.5h-348q-92 0 -148.5 56t-56.5 149v1224q0 10 10 11h21q10 0 10 -11v-1224q0 -74 45 -119t119 -45h348q74 0 119 45t45 119v1224q0 11 10 11zM649 1536l90 154q2 6 13 6h36l-102 -152q-8 -8 -16 -8h-21z
M479 1536l90 154q4 6 13 6h36l-102 -152q-8 -8 -16 -8h-21z" />
    <glyph glyph-name="uhungarumlaut" unicode="&#x171;" 
d="M952 0h-20q-10 0 -10 10v115q-281 -135 -449 -135q-123 0 -195.5 67.5t-72.5 178.5v880q0 10 10 10h21q10 0 10 -10v-880q0 -92 60.5 -148.5t162.5 -56.5q176 0 453 143v942q0 10 10 10h20q10 0 11 -10v-1106q-1 -10 -11 -10zM475 1235l94 147q4 6 13 7l41 -9l-107 -143
q-8 -8 -16 -8zM645 1235l94 147q2 6 13 7l41 -9l-107 -143q-8 -8 -16 -8z" />
    <glyph glyph-name="Uogonek" unicode="&#x172;" 
d="M758 -6h-2q-51 -92 -51 -160q0 -35 30 -35h94q10 0 11 -10v-20q0 -10 -11 -11h-100q-29 0 -47 18.5t-18 47.5q0 86 51 170h-305q-92 0 -148.5 56t-56.5 149v1224q0 10 10 11h21q10 0 10 -11v-1224q0 -74 45 -119t119 -45h348q74 0 119 45t45 119v1224q0 10 10 11h20
q10 0 11 -11v-1224q0 -92 -56.5 -148.5t-148.5 -56.5z" />
    <glyph glyph-name="uogonek" unicode="&#x173;" 
d="M922 0v125q-281 -135 -449 -135q-123 0 -195.5 67.5t-72.5 178.5v880q0 10 10 10h21q10 0 10 -10v-880q0 -92 60.5 -148.5t162.5 -56.5q176 0 453 143v942q0 10 10 10h20q10 0 11 -10v-1116q-57 -96 -58 -170q0 -35 31 -35h94q10 0 10 -10v-21q0 -10 -10 -10h-100
q-29 0 -47.5 18.5t-18.5 47.5q1 98 58 180z" />
    <glyph glyph-name="Wcircumflex" unicode="&#x174;" 
d="M602 1423l189 -1300v-21h4v21l231 1300q4 10 12 11h21q12 0 8 -11l-252 -1413q-4 -10 -12 -10h-21q-12 0 -12 10l-190 1288q-2 4 0 11.5t2 9.5h-9q0 -2 2.5 -9t-0.5 -12l-188 -1288q0 -10 -12 -10h-21q-8 0 -12 10l-252 1413q0 10 8 11h21q8 0 12 -11l229 -1300v-21h5v21
l190 1300q4 10 12 11h23q8 -1 12 -11zM608 1688l101 -152h-21q-8 0 -16 8l-92 115l-91 -115q-8 -8 -16 -8l-24 6l102 146q4 8 16 8h27q10 0 14 -8z" />
    <glyph glyph-name="wcircumflex" unicode="&#x175;" 
d="M580 993l-211 -983q-4 -10 -13 -10h-24q-8 0 -13 10l-237 1106q-4 10 8 10h21q10 0 14 -10l215 -1016q2 -10 2 -30h4q0 20 2 30l213 1016q4 10 12 10h19q8 0 12 -10l215 -1016q2 -10 2 -30h4q0 20 2 30l215 1016q4 10 15 10h20q12 0 8 -10l-237 -1106q-4 -10 -12 -10h-25
q-8 0 -12 10l-213 983v17.5t-2 15.5h-4q4 -17 0 -33zM612 1380l101 -151h-21q-8 0 -16 8l-92 115l-90 -115q-8 -8 -17 -8l-24 6l102 145q4 8 16 9h27q10 -1 14 -9z" />
    <glyph glyph-name="Ycircumflex" unicode="&#x176;" 
d="M1038 1425l-432 -831v-584q0 -10 -10 -10h-21q-10 0 -10 10v584l-428 840h25q10 0 14 -9l404 -772q4 -4 4 -18h4q0 14 2 18l403 772q8 8 17 9zM614 1688l101 -152h-21q-8 0 -16 8l-92 115l-90 -115q-8 -8 -17 -8l-24 6l102 146q4 8 16 8h27q10 0 14 -8z" />
    <glyph glyph-name="ycircumflex" unicode="&#x177;" 
d="M440 -297l117 299l-434 1114q-4 10 8 10h21q10 0 14 -10l409 -1046q2 -4 3 -31h4q0 27 2 31l417 1046q4 10 15 10h20q8 0 8 -10l-561 -1413q-4 -10 -12 -10h-22q-13 0 -9 10zM612 1380l101 -151h-21q-8 0 -16 8l-92 115l-90 -115q-8 -8 -17 -8l-24 6l102 145q4 8 16 9h27
q10 -1 14 -9z" />
    <glyph glyph-name="Ydieresis" unicode="&#x178;" 
d="M1038 1425l-432 -831v-584q0 -10 -10 -10h-21q-10 0 -10 10v584l-428 840h25q10 0 14 -9l404 -772q4 -4 4 -18h4q0 14 2 18l403 772q8 8 17 9zM692 1581v59q0 25 25 25h59q25 0 25 -25v-59q0 -25 -25 -25h-59q-25 0 -25 25zM373 1581v59q0 25 24 25h60q25 0 24 -25v-59
q0 -25 -24 -25h-60q-24 0 -24 25z" />
    <glyph glyph-name="Zacute" unicode="&#x179;" 
d="M973 31v-21q0 -10 -10 -10h-758q-10 0 -10 10v21q0 10 4 18l725 1344h-715q-10 0 -10 10v20q0 10 10 11h749q10 0 11 -11v-20q0 -10 -4 -19l-725 -1343h723q10 0 10 -10zM571 1542l93 158q6 6 14 6l41 -8l-107 -154q-8 -8 -16 -8z" />
    <glyph glyph-name="zacute" unicode="&#x17a;" 
d="M190 55l738 1030h-733q-10 0 -11 11v20q0 10 11 10h768q10 0 10 -10v-26q0 -12 -6 -19l-738 -1030h744q10 0 10 -10v-21q0 -10 -10 -10h-778q-10 0 -11 10v27q0 12 6 18zM571 1235l93 158q6 6 14 6l41 -8l-107 -154q-8 -8 -16 -8z" />
    <glyph glyph-name="Zdotaccent" unicode="&#x17b;" 
d="M973 31v-21q0 -10 -10 -10h-758q-10 0 -10 10v21q0 10 4 18l725 1344h-715q-10 0 -10 10v20q0 10 10 11h749q10 0 11 -11v-20q0 -10 -4 -19l-725 -1343h723q10 0 10 -10zM530 1581v59q0 25 25 25h57q25 0 25 -25v-59q0 -25 -25 -25h-57q-25 0 -25 25z" />
    <glyph glyph-name="zdotaccent" unicode="&#x17c;" 
d="M190 55l738 1030h-733q-10 0 -11 11v20q0 10 11 10h768q10 0 10 -10v-26q0 -12 -6 -19l-738 -1030h744q10 0 10 -10v-21q0 -10 -10 -10h-778q-10 0 -11 10v27q0 12 6 18zM530 1274v59q0 25 25 25h57q25 0 25 -25v-59q0 -25 -25 -25h-57q-25 0 -25 25z" />
    <glyph glyph-name="Zcaron" unicode="&#x17d;" 
d="M973 31v-21q0 -10 -10 -10h-758q-10 0 -10 10v21q0 10 4 18l725 1344h-715q-10 0 -10 10v20q0 10 10 11h749q10 0 11 -11v-20q0 -10 -4 -19l-725 -1343h723q10 0 10 -10zM717 1690l-105 -146q-4 -8 -14 -8h-27q-12 0 -16 8l-98 152h20q8 0 17 -8l90 -115l92 115q8 8 16 8
z" />
    <glyph glyph-name="zcaron" unicode="&#x17e;" 
d="M190 55l738 1030h-733q-10 0 -11 11v20q0 10 11 10h768q10 0 10 -10v-26q0 -12 -6 -19l-738 -1030h744q10 0 10 -10v-21q0 -10 -10 -10h-778q-10 0 -11 10v27q0 12 6 18zM717 1382l-105 -145q-4 -8 -14 -8h-27q-12 0 -16 8l-98 152h20q8 0 17 -9l90 -114l92 114q8 8 16 9
z" />
    <glyph glyph-name="uni018F" unicode="&#x18f;" 
d="M410 35h348q74 0 119 44t45 116v477h-676v-477q0 -72 45 -116t119 -44zM215 713h707v512q0 76 -45.5 122t-118.5 46h-348q-74 0 -119 -45t-45 -119v-78q0 -10 -10 -10h-21q-10 0 -10 10v78q0 92 56 148.5t149 56.5h348q92 0 148.5 -56.5t56.5 -148.5v-1030
q0 -92 -56.5 -148.5t-148.5 -56.5h-348q-92 0 -148.5 55t-56.5 146v507q0 11 10 11z" />
    <glyph glyph-name="florin" unicode="&#x192;" 
d="M303 891l4 20q0 10 10 11h252l56 307q14 92 81.5 148.5t159.5 56.5h121q10 0 10 -11l-6 -20q0 -10 -12 -10h-121q-74 0 -127 -45t-65 -119l-56 -307h271q10 0 10 -11l-4 -20q-4 -10 -13 -10h-270l-209 -1178q0 -10 -10 -10h-20q-10 0 -11 10l209 1178h-252q-12 0 -8 10z
" />
    <glyph glyph-name="uni01DD" unicode="&#x1dd;" 
d="M412 35h346q74 0 119 44t45 116v360h-674v-360q0 -72 45 -116t119 -44zM217 596h705v328q0 76 -45.5 122t-118.5 46h-348q-72 0 -118 -45.5t-46 -118.5v-78q0 -10 -10 -10h-19q-12 0 -12 10v78q0 92 57 148.5t148 56.5h348q92 0 148.5 -56.5t56.5 -148.5v-729
q0 -92 -56.5 -148.5t-148.5 -56.5h-348q-90 0 -147.5 55t-57.5 146v391q0 10 12 10z" />
    <glyph glyph-name="Aringacute" unicode="&#x1fa;" 
d="M268 358h633l-313 992v20h-8q0 -2 1 -10t1 -10zM522 1587.5q0 -26.5 17.5 -44t44 -17.5t44 17.5t17.5 44t-17.5 44t-44 17.5t-44 -17.5t-17.5 -44zM913 317h-657l-96 -307q-4 -10 -15 -10h-22q-10 0 -6 10l444 1413q0 10 12 11h21q10 0 14 -11l445 -1413q0 -10 -9 -10
h-20q-12 0 -12 10zM678 1630q8 -29 8 -43q0 -41 -29.5 -71.5t-72.5 -30.5t-73 30.5t-30 71.5q0 43 30 73t73 30t71 -29l76 125q6 6 14 6l41 -8z" />
    <glyph glyph-name="aringacute" unicode="&#x1fb;" 
d="M922 174v371q-258 57 -410 57q-127 0 -196.5 -55t-69.5 -150v-174q0 -86 61.5 -139t163.5 -53q175 0 451 143zM543 1321q0 -27 17.5 -44t44 -17t44 17t17.5 44t-17.5 44t-44 17t-44 -17t-17.5 -44zM205 223v174q0 111 84 178.5t217 67.5q41 0 108.5 -7t122 -16.5
t114.5 -18.5t71 -11v338q0 74 -45.5 119t-118.5 45h-338q-74 0 -119 -45.5t-45 -118.5v-78q0 -10 -10 -10h-21q-10 0 -10 10v78q0 92 56.5 148.5t148.5 56.5h338q92 0 148.5 -56.5t56.5 -148.5v-918q0 -10 -11 -10h-20q-10 0 -10 10v115q-270 -135 -447 -135
q-123 0 -196.5 64.5t-73.5 168.5zM672 1399l76 127q6 6 14 6h37l-105 -162q12 -23 13 -49q0 -41 -30 -71.5t-73 -30.5t-72.5 30.5t-29.5 71.5q0 43 29.5 72.5t72.5 29.5q37 1 68 -24z" />
    <glyph glyph-name="AEacute" unicode="&#x1fc;" 
d="M238 358h403v957q0 8 4 20h-4q0 -2 -1 -9t-3 -9zM641 317h-420l-129 -307q-4 -10 -14 -10h-23q-10 0 -6 10l588 1413q4 10 14 11h441q10 0 10 -11v-20q0 -10 -10 -10h-410v-701h328q10 0 10 -10v-20q0 -10 -10 -11h-328v-610h410q10 0 10 -10v-21q0 -10 -10 -10h-441
q-10 0 -10 10v307zM680 1542l92 158q6 6 14 6l41 -8l-106 -154q-8 -8 -16 -8z" />
    <glyph glyph-name="aeacute" unicode="&#x1fd;" 
d="M569 199v354q-184 49 -295 49q-70 0 -112.5 -45t-42.5 -119v-256q0 -68 43 -109.5t112 -41.5q113 0 297 127q-2 14 -2 41zM887 1092h-113q-74 0 -119 -44t-45 -116v-361h441v361q0 72 -45 116t-119 44zM1081 530h-471v-327q0 -76 45 -122t119 -46h113q74 0 119 45t45 119
v77q0 10 10 11h20q10 0 11 -11v-77q0 -92 -56.5 -148.5t-148.5 -56.5h-113q-147 0 -192 125q-180 -129 -312 -129q-82 0 -137 53t-55 139v256q0 90 55 147.5t137 57.5q123 0 299 -47v332q0 74 -45 119t-118 45h-113q-74 0 -119 -45.5t-45 -118.5v-78q0 -10 -10 -10h-21
q-10 0 -10 10v78q0 92 56.5 148.5t148.5 56.5h113q131 0 184 -107q49 106 184 107h113q92 0 148.5 -55.5t56.5 -145.5v-391q-1 -11 -11 -11zM571 1235l95 158q6 6 14 6l41 -8l-109 -154q-4 -8 -16 -8z" />
    <glyph glyph-name="Oslashacute" unicode="&#x1fe;" 
d="M381 35l362 1364h-356q-74 0 -118 -45t-44 -119v-1036q0 -72 43 -117t113 -47zM784 1399l-358 -1364h354q72 0 117 45t45 119v1036q0 72 -43 117t-115 47zM819 1522l-24 -82q86 -6 137 -61.5t51 -143.5v-1036q0 -92 -56.5 -148.5t-148.5 -56.5h-362l-35 -96l-31 16l21 80
q-84 6 -135.5 61.5t-51.5 143.5v1036q0 92 56.5 148.5t148.5 56.5h365l24 90q0 6 6 6h7zM571 1542l93 158q6 6 14 6l41 -8l-107 -154q-8 -8 -16 -8z" />
    <glyph glyph-name="oslashacute" unicode="&#x1ff;" 
d="M371 39l383 1053h-344q-72 0 -118 -45.5t-46 -118.5v-729q0 -63 34 -106.5t91 -53.5zM797 1087l-383 -1052h344q74 0 119 45t45 119v729q0 63 -34 106t-91 53zM328 -82l28 82q-70 16 -110.5 68.5t-40.5 130.5v729q0 92 56 148.5t149 56.5h358l35 90q0 6 8 6h6l19 -6
q10 -4 6 -13l-31 -84q70 -16 111 -68t41 -130v-729q0 -92 -56.5 -148.5t-148.5 -56.5h-359l-32 -90q-4 -10 -13 -6l-20 8q-10 4 -6 12zM571 1235l93 158q6 6 14 6l41 -8l-107 -154q-8 -8 -16 -8z" />
    <glyph glyph-name="uni0218" unicode="&#x218;" 
d="M199 1055v180q0 92 56 148.5t148 56.5h361q92 0 148.5 -56.5t56.5 -148.5v-160q0 -10 -11 -10h-20q-10 0 -10 10v160q0 74 -45 119t-119 45h-361q-74 0 -118.5 -45t-44.5 -119v-172q0 -94 77 -141l570 -357q92 -57 92 -166v-200q0 -92 -56.5 -148.5t-148.5 -56.5h-381
q-92 0 -148.5 56t-56.5 149v159q0 10 11 11h20q10 0 10 -11v-159q0 -74 45 -119t119 -45h381q74 0 119 45t45 119v194q0 94 -78 142l-569 354q-92 57 -92 166zM526 -270l25 161q4 16 18 17h60q18 0 12 -17l-53 -161q-6 -16 -23 -17h-26q-17 1 -13 17z" />
    <glyph glyph-name="uni0219" unicode="&#x219;" 
d="M963 309v-110q0 -92 -56.5 -148.5t-148.5 -56.5h-348q-92 0 -148.5 56t-56.5 149v77q0 10 10 11h21q10 0 10 -11v-77q0 -74 45 -119t119 -45h348q74 0 119 45t45 119v129q0 51 -24 97t-64 58l-496 158q-57 18 -90 82.5t-33 134.5v70q0 92 56.5 148.5t148.5 56.5h328
q92 0 148 -56.5t56 -148.5v-78q0 -10 -10 -10h-20q-10 0 -11 10v78q0 74 -45 119t-118 45h-328q-74 0 -119 -45.5t-45 -118.5v-88q0 -51 23.5 -97.5t64.5 -58.5l496 -158q57 -18 90 -82.5t33 -134.5zM526 -270l25 161q4 16 18 17h60q18 0 12 -17l-53 -161q-6 -16 -23 -17
h-26q-17 1 -13 17z" />
    <glyph glyph-name="uni021A" unicode="&#x21a;" 
d="M1065 1423v-20q0 -10 -10 -10h-451v-1383q0 -10 -10 -10h-21q-10 0 -10 10v1383h-450q-10 0 -11 10v20q0 10 11 11h942q10 -1 10 -11zM508 -270l24 161q4 16 19 17h59q18 0 13 -17l-54 -161q-6 -16 -22 -17h-27q-16 1 -12 17z" />
    <glyph glyph-name="uni021B" unicode="&#x21b;" 
d="M205 1096v20q0 10 10 10h256v195q0 10 10 10h21q10 0 10 -10v-195h440q10 0 11 -10v-20q0 -10 -11 -11h-440v-886q0 -74 45 -119t119 -45h276q10 0 11 -10v-21q0 -10 -11 -10h-276q-92 0 -148.5 56t-56.5 149v886h-256q-10 1 -10 11zM649 -270l25 161q4 16 18 17h60
q18 0 12 -17l-53 -161q-6 -16 -23 -17h-26q-17 1 -13 17z" />
    <glyph glyph-name="uni0237" unicode="&#x237;" 
d="M360 1126h490q10 0 10 -10v-1163q0 -125 -98 -197.5t-287 -72.5q-63 0 -192 15t-129 38v22q0 6 6 6t8 -2q117 -39 301 -38q176 0 263 62t87 169v1130h-459q-10 0 -10 11v20q0 10 10 10z" />
    <glyph glyph-name="uni0259" unicode="&#x259;" 
d="M412 35h346q74 0 119 44t45 116v360h-674v-360q0 -72 45 -116t119 -44zM217 596h705v328q0 76 -45.5 122t-118.5 46h-348q-72 0 -118 -45.5t-46 -118.5v-78q0 -10 -10 -10h-19q-12 0 -12 10v78q0 92 57 148.5t148 56.5h348q92 0 148.5 -56.5t56.5 -148.5v-729
q0 -92 -56.5 -148.5t-148.5 -56.5h-348q-90 0 -147.5 55t-57.5 146v391q0 10 12 10z" />
    <glyph glyph-name="circumflex" unicode="&#x2c6;" 
d="M612 1585l101 -151h-21q-8 0 -16 8l-92 114l-90 -114q-8 -8 -17 -8l-24 6l102 145q4 8 16 8h27q10 0 14 -8z" />
    <glyph glyph-name="caron" unicode="&#x2c7;" 
d="M713 1593l-101 -151q-4 -8 -14 -8h-27q-12 0 -16 8l-102 145l24 6q8 0 17 -8l90 -115l92 115q8 8 16 8h21z" />
    <glyph glyph-name="breve" unicode="&#x2d8;" 
d="M717 1546v-10q0 -45 -29 -73.5t-74 -28.5h-59q-47 0 -74.5 28.5t-27.5 73.5v10q0 10 10 10h20q10 0 11 -10v-14q0 -57 57 -57h67q25 0 41.5 15t16.5 42v14q0 10 10 10h21q10 0 10 -10z" />
    <glyph glyph-name="dotaccent" unicode="&#x2d9;" 
d="M530 1479v59q0 25 25 25h57q25 0 25 -25v-59q0 -25 -25 -25h-57q-25 0 -25 25z" />
    <glyph glyph-name="ring" unicode="&#x2da;" 
d="M481 1526q0 43 30 72.5t73 29.5t72.5 -29.5t29.5 -72.5q0 -41 -29.5 -72t-72.5 -31t-73 31t-30 72zM522 1525.5q0 -26.5 17.5 -44t44 -17.5t44 17.5t17.5 44t-17.5 44t-44 17.5t-44 -17.5t-17.5 -44z" />
    <glyph glyph-name="ogonek" unicode="&#x2db;" 
d="M553 4h41q-57 -96 -57 -170q0 -35 30 -35h95q10 0 10 -10v-20q0 -10 -10 -11h-101q-29 0 -47 18.5t-18 47.5q0 98 57 180z" />
    <glyph glyph-name="tilde" unicode="&#x2dc;" 
d="M410 1468v27q0 18 47 34.5t69.5 16.5t36.5 -8l62 -33q8 -4 16 -4q35 0 109 37l8 -31q0 -20 -43 -33.5t-70 -13.5q-23 0 -39 8l-61 33q-8 4 -17 4q-37 0 -108 -41q-2 -2 -6 -2t-4 6z" />
    <glyph glyph-name="hungarumlaut" unicode="&#x2dd;" 
d="M598 1434l90 153q4 6 12 6h37l-102 -151q-8 -8 -17 -8h-20zM428 1434l90 153q2 6 12 6h37l-102 -151q-8 -8 -16 -8h-21z" />
    <glyph glyph-name="uni0400" unicode="&#x400;" 
d="M205 10v1413q0 10 10 11h737q10 0 11 -11v-20q0 -10 -11 -10h-706v-701h522q10 0 10 -10v-20q0 -10 -10 -11h-522v-610h706q10 0 11 -10v-21q0 -10 -11 -10h-737q-10 0 -10 10zM494 1700l90 -164h-21q-12 0 -16 8l-103 162z" />
    <glyph glyph-name="uni0401" unicode="&#x401;" 
d="M205 10v1413q0 10 10 11h737q10 0 11 -11v-20q0 -10 -11 -10h-706v-701h522q10 0 10 -10v-20q0 -10 -10 -11h-522v-610h706q10 0 11 -10v-21q0 -10 -11 -10h-737q-10 0 -10 10zM680 1581v59q0 25 25 25h59q25 0 24 -25v-59q0 -25 -24 -25h-59q-25 0 -25 25zM360 1581v59
q0 25 25 25h59q25 0 25 -25v-59q0 -25 -25 -25h-59q-25 0 -25 25z" />
    <glyph glyph-name="uni0402" unicode="&#x402;" 
d="M891 0h-174q-10 0 -10 10v21q0 10 10 10h174q74 0 119 45t45 119v393q0 74 -45 119t-119 45h-420v-752q0 -10 -10 -10h-21q-10 0 -10 10v1383h-317q-10 0 -11 10v20q0 10 11 11h675q10 0 11 -11v-20q0 -10 -11 -10h-317v-590h420q92 0 148.5 -56.5t56.5 -148.5v-393
q0 -92 -56.5 -148.5t-148.5 -56.5z" />
    <glyph glyph-name="uni0403" unicode="&#x403;" 
d="M276 1434h656q10 0 10 -11v-20q0 -10 -10 -10h-625v-1383q0 -10 -10 -10h-21q-10 0 -10 10v1413q0 11 10 11zM592 1542l92 158q6 6 14 6l41 -8l-106 -154q-8 -8 -17 -8z" />
    <glyph glyph-name="uni0404" unicode="&#x404;" 
d="M963 1075q0 -10 -11 -10h-20q-10 0 -10 10v160q0 74 -45.5 119t-118.5 45h-348q-74 0 -119 -45t-45 -119v-487h512q10 0 10 -11v-20q0 -10 -10 -10h-512v-508q0 -74 45 -119t119 -45h348q74 0 119 45t45 119v159q0 10 10 11h20q10 0 11 -11v-159q0 -92 -56.5 -148.5
t-148.5 -56.5h-348q-92 0 -148.5 56t-56.5 149v1036q0 92 56 148.5t149 56.5h348q92 0 148.5 -56.5t56.5 -148.5v-160z" />
    <glyph glyph-name="uni0405" unicode="&#x405;" 
d="M199 1055v180q0 92 56 148.5t148 56.5h361q92 0 148.5 -56.5t56.5 -148.5v-160q0 -10 -11 -10h-20q-10 0 -10 10v160q0 74 -45 119t-119 45h-361q-74 0 -118.5 -45t-44.5 -119v-172q0 -94 77 -141l570 -357q92 -57 92 -166v-200q0 -92 -56.5 -148.5t-148.5 -56.5h-381
q-92 0 -148.5 56t-56.5 149v159q0 10 11 11h20q10 0 10 -11v-159q0 -74 45 -119t119 -45h381q74 0 119 45t45 119v194q0 94 -78 142l-569 354q-92 57 -92 166z" />
    <glyph glyph-name="uni0406" unicode="&#x406;" 
d="M195 10v21q0 10 10 10h358v1352h-358q-10 0 -10 10v20q0 10 10 11h758q10 0 10 -11v-20q0 -10 -10 -10h-359v-1352h359q10 0 10 -10v-21q0 -10 -10 -10h-758q-10 0 -10 10z" />
    <glyph glyph-name="uni0407" unicode="&#x407;" 
d="M195 10v21q0 10 10 10h358v1352h-358q-10 0 -10 10v20q0 10 10 11h758q10 0 10 -11v-20q0 -10 -10 -10h-359v-1352h359q10 0 10 -10v-21q0 -10 -10 -10h-758q-10 0 -10 10zM371 1581v59q0 25 24 25h60q25 0 24 -25v-59q0 -25 -24 -25h-60q-24 0 -24 25zM690 1581v59
q0 25 25 25h59q25 0 25 -25v-59q0 -25 -25 -25h-59q-25 0 -25 25z" />
    <glyph glyph-name="uni0408" unicode="&#x408;" 
d="M512 1403v20q0 10 10 11h430q10 0 11 -11v-1224q0 -92 -56.5 -148.5t-148.5 -56.5h-359q-92 0 -148 56t-56 149v98q0 10 10 10h20q10 0 11 -10v-98q0 -74 45 -119t118 -45h359q74 0 119 45t45 119v1194h-400q-10 0 -10 10z" />
    <glyph glyph-name="uni0409" unicode="&#x409;" 
d="M922 743h-244v-702h244q74 0 118.5 45t44.5 119v375q0 74 -44.5 118.5t-118.5 44.5zM678 1423v-639h244q92 0 148 -56t56 -148v-375q0 -92 -56 -148.5t-148 -56.5h-275q-10 0 -10 10v1383h-322l-79 -1194q-14 -205 -185 -205h-20q-10 0 -11 10v21q0 10 11 10h20
q133 0 144 164l81 1224q0 10 11 11h381q10 -1 10 -11z" />
    <glyph glyph-name="uni040A" unicode="&#x40a;" 
d="M920 723h-267v-682h267q74 0 118.5 45t44.5 119v354q0 74 -44.5 119t-118.5 45zM653 1423v-659h267q94 0 150 -56.5t56 -148.5v-354q0 -92 -56 -148.5t-150 -56.5h-295q-12 0 -13 10v713h-499v-713q0 -10 -11 -10h-20q-10 0 -10 10v1413q0 10 10 11h20q10 0 11 -11v-659
h499v659q0 10 13 11h18q10 -1 10 -11z" />
    <glyph glyph-name="uni040B" unicode="&#x40b;" 
d="M1055 10v588q0 74 -45 119t-119 45h-420v-752q0 -10 -10 -10h-21q-10 0 -10 10v1383h-317q-10 0 -11 10v20q0 10 11 11h675q10 0 11 -11v-20q0 -10 -11 -10h-317v-590h420q92 0 148.5 -56.5t56.5 -148.5v-588q0 -10 -11 -10h-20q-10 0 -10 10z" />
    <glyph glyph-name="uni040C" unicode="&#x40c;" 
d="M246 707v-697q0 -10 -10 -10h-21q-10 0 -10 10v1413q0 10 10 11h21q10 0 10 -11v-675h319l412 677q8 8 16 9l33 -9l-426 -698l451 -727h-31q-8 0 -16 8l-439 699h-319zM557 1542l92 158q6 6 15 6l41 -8l-107 -154q-8 -8 -16 -8z" />
    <glyph glyph-name="uni040D" unicode="&#x40d;" 
d="M215 1434h21q10 0 10 -11v-1321q0 -8 -4 -20h4q0 2 1 9t3 9l668 1325q4 8 14 9h20q10 0 11 -11v-1413q0 -10 -11 -10h-20q-10 0 -10 10v1323q0 8 4 21h-4q0 -2 -1 -9.5t-3 -9.5l-668 -1327q-4 -8 -14 -8h-21q-10 0 -10 10v1413q0 11 10 11zM492 1706l104 -164l-23 -6
q-12 0 -16 8l-106 154z" />
    <glyph glyph-name="uni040E" unicode="&#x40e;" 
d="M649 338l361 1085q4 10 14 11h23q10 0 6 -11l-406 -1224q-43 -127 -72 -160q-41 -45 -112 -45h-94q-10 0 -11 10v21q0 10 11 10h92q35 0 58.5 10t39.5 40t22.5 46t22.5 68l23 73l-504 1151q-4 10 8 11h25q8 0 12 -11l473 -1085q2 -6 2 -21h4q0 15 2 21zM442 1700
q10 0 11 -10v-56q0 -57 57 -57h190q57 0 58 57v56q0 10 10 10h20q10 0 11 -10v-52q0 -45 -29 -73.5t-74 -28.5h-182q-47 0 -74.5 28.5t-27.5 73.5v52q0 10 10 10h20z" />
    <glyph glyph-name="uni040F" unicode="&#x40f;" 
d="M954 0h-350v-256q0 -10 -10 -10h-21q-10 0 -10 10v256h-348q-10 0 -10 10v1413q0 10 10 11h21q10 0 10 -11v-1382h678v1382q0 10 10 11h20q8 0 9 -11v-1413q-1 -10 -9 -10z" />
    <glyph glyph-name="uni0410" unicode="&#x410;" 
d="M268 358h633l-313 992v20h-8q0 -2 1 -10t1 -10zM913 317h-657l-96 -307q-4 -10 -15 -10h-22q-10 0 -6 10l444 1413q0 10 12 11h21q10 0 14 -11l445 -1413q0 -10 -9 -10h-20q-12 0 -12 10z" />
    <glyph glyph-name="uni0411" unicode="&#x411;" 
d="M246 743v-702h512q74 0 119 45t45 119v375q0 74 -45.5 118.5t-118.5 44.5h-512zM215 1434h647q10 0 10 -11v-20q0 -10 -10 -10h-616v-609h512q92 0 148.5 -56t56.5 -148v-375q0 -92 -56.5 -148.5t-148.5 -56.5h-543q-10 0 -10 10v1413q0 11 10 11z" />
    <glyph glyph-name="uni0412" unicode="&#x412;" 
d="M922 205v364q0 74 -45.5 119t-118.5 45h-512v-692h512q74 0 119 45t45 119zM713 1393h-467v-623h467q74 0 119 45t45 119v295q0 74 -45 119t-119 45zM963 567v-364q0 -90 -56.5 -146.5t-148.5 -56.5h-543q-10 0 -10 10v1413q0 10 10 11h498q92 0 148.5 -56.5t56.5 -146.5
v-295q0 -121 -93 -174q63 -18 100.5 -69.5t37.5 -125.5z" />
    <glyph glyph-name="uni0413" unicode="&#x413;" 
d="M276 1434h656q10 0 10 -11v-20q0 -10 -10 -10h-625v-1383q0 -10 -10 -10h-21q-10 0 -10 10v1413q0 11 10 11z" />
    <glyph glyph-name="uni0414" unicode="&#x414;" 
d="M233 41h678v1352h-534l-80 -1188q-7 -113 -64 -164zM51 -256v287q0 10 10 10h99q86 25 96 158l82 1224q0 10 10 11h594q10 0 10 -11v-1382h154q10 0 10 -10v-287q0 -10 -10 -10h-21q-10 0 -10 10v256h-983v-256q0 -10 -10 -10h-21q-10 0 -10 10z" />
    <glyph glyph-name="uni0415" unicode="&#x415;" 
d="M205 10v1413q0 10 10 11h737q10 0 11 -11v-20q0 -10 -11 -10h-706v-701h522q10 0 10 -10v-20q0 -10 -10 -11h-522v-610h706q10 0 11 -10v-21q0 -10 -11 -10h-737q-10 0 -10 10z" />
    <glyph glyph-name="uni0416" unicode="&#x416;" 
d="M563 707h-102l-344 -699q-4 -8 -15 -8l-30 8l354 719l-320 707h25q10 0 14 -11l318 -675h100v675q0 10 10 11h21q10 0 10 -11v-675h103l315 675q4 10 14 11l31 -11l-326 -696l349 -727h-25q-10 0 -14 8l-344 699h-103v-697q0 -10 -10 -10h-21q-10 0 -10 10v697z" />
    <glyph glyph-name="uni0417" unicode="&#x417;" 
d="M221 375h21q10 0 10 -10v-160q0 -74 45 -119t119 -45h334q74 0 118.5 45t44.5 119v358q0 74 -45 119t-118 45h-295q-10 0 -11 10v17q0 10 11 10h288q74 0 119 45t45 119v301q0 74 -45 119t-119 45h-317q-74 0 -119 -45t-45 -119v-160q0 -10 -10 -10h-21q-10 0 -10 10v160
q0 92 56.5 148.5t148.5 56.5h317q92 0 148.5 -56.5t56.5 -146.5v-301q0 -133 -108 -182q115 -49 114 -187v-358q0 -90 -56 -146.5t-148 -56.5h-334q-92 0 -148.5 56.5t-56.5 148.5v160q0 10 10 10z" />
    <glyph glyph-name="uni0418" unicode="&#x418;" 
d="M215 1434h21q10 0 10 -11v-1321q0 -8 -4 -20h4q0 2 1 9t3 9l668 1325q4 8 14 9h20q10 0 11 -11v-1413q0 -10 -11 -10h-20q-10 0 -10 10v1323q0 8 4 21h-4q0 -2 -1 -9.5t-3 -9.5l-668 -1327q-4 -8 -14 -8h-21q-10 0 -10 10v1413q0 11 10 11z" />
    <glyph glyph-name="uni0419" unicode="&#x419;" 
d="M215 1434h21q10 0 10 -11v-1321q0 -8 -4 -20h4q0 2 1 9t3 9l668 1325q4 8 14 9h20q10 0 11 -11v-1413q0 -10 -11 -10h-20q-10 0 -10 10v1323q0 8 4 21h-4q0 -2 -1 -9.5t-3 -9.5l-668 -1327q-4 -8 -14 -8h-21q-10 0 -10 10v1413q0 11 10 11zM406 1700h20q10 0 10 -10v-56
q0 -57 58 -57h190q57 0 57 57v56q0 10 11 10h20q10 0 10 -10v-52q0 -45 -28.5 -73.5t-73.5 -28.5h-182q-47 0 -75 28.5t-28 73.5v52q1 10 11 10z" />
    <glyph glyph-name="uni041A" unicode="&#x41a;" 
d="M246 707v-697q0 -10 -10 -10h-21q-10 0 -10 10v1413q0 10 10 11h21q10 0 10 -11v-675h319l412 677q8 8 16 9l33 -9l-426 -698l451 -727h-31q-8 0 -16 8l-439 699h-319z" />
    <glyph glyph-name="uni041B" unicode="&#x41b;" 
d="M952 0h-20q-10 0 -10 10v1383h-555l-80 -1194q-14 -205 -185 -205h-41q-10 0 -10 10v21q0 10 10 10h41q133 0 144 164l82 1224q0 10 10 11h614q10 0 11 -11v-1413q-1 -10 -11 -10z" />
    <glyph glyph-name="uni041C" unicode="&#x41c;" 
d="M205 1307v-1297q0 -10 -10 -10h-21q-10 0 -10 10v1413q0 10 10 11h21q10 0 14 -11l371 -977v-6v-8v-6h8v6v8v6l370 977q4 10 15 11h20q10 0 11 -11v-1413q0 -10 -11 -10h-20q-10 0 -10 10v1299q0 2 6 20h-8q-2 -2 -2.5 -10t-0.5 -10l-348 -922q-4 -10 -14 -10h-23
q-10 0 -14 10l-350 920v10t-2 10h-8q6 -18 6 -20z" />
    <glyph glyph-name="uni041D" unicode="&#x41d;" 
d="M205 10v1413q0 10 10 11h21q10 0 10 -11v-731h676v731q0 10 10 11h20q10 0 11 -11v-1413q0 -10 -11 -10h-20q-10 0 -10 10v641h-676v-641q0 -10 -10 -10h-21q-10 0 -10 10z" />
    <glyph glyph-name="uni041E" unicode="&#x41e;" 
d="M225 1235v-1036q0 -74 45 -119t119 -45h389q74 0 119 45t45 119v1036q0 74 -45 119t-119 45h-389q-74 0 -119 -45t-45 -119zM184 199v1036q0 92 56.5 148.5t148.5 56.5h389q92 0 148.5 -56.5t56.5 -148.5v-1036q0 -92 -56.5 -148.5t-148.5 -56.5h-389q-92 0 -148.5 56.5
t-56.5 148.5z" />
    <glyph glyph-name="uni041F" unicode="&#x41f;" 
d="M205 10v1413q0 10 10 11h737q10 0 11 -11v-1413q0 -10 -11 -10h-20q-10 0 -10 10v1383h-676v-1383q0 -10 -10 -10h-21q-10 0 -10 10z" />
    <glyph glyph-name="uni0420" unicode="&#x420;" 
d="M725 1393h-479v-764h479q74 0 119 45t45 119v436q0 74 -45 119t-119 45zM725 588h-479v-578q0 -10 -10 -10h-21q-10 0 -10 10v1413q0 10 10 11h510q92 0 148.5 -56.5t56.5 -148.5v-436q0 -92 -56.5 -148.5t-148.5 -56.5z" />
    <glyph glyph-name="uni0421" unicode="&#x421;" 
d="M932 369h20q10 0 11 -11v-159q0 -92 -56.5 -148.5t-148.5 -56.5h-348q-92 0 -148.5 56t-56.5 149v1036q0 92 56 148.5t149 56.5h348q92 0 148.5 -56.5t56.5 -148.5v-160q0 -10 -11 -10h-20q-10 0 -10 10v160q0 74 -45.5 119t-118.5 45h-348q-74 0 -119 -45t-45 -119
v-1036q0 -74 45 -119t119 -45h348q74 0 119 45t45 119v159q0 11 10 11z" />
    <glyph glyph-name="uni0422" unicode="&#x422;" 
d="M1065 1423v-20q0 -10 -10 -10h-451v-1383q0 -10 -10 -10h-21q-10 0 -10 10v1383h-450q-10 0 -11 10v20q0 10 11 11h942q10 -1 10 -11z" />
    <glyph glyph-name="uni0423" unicode="&#x423;" 
d="M649 338l361 1085q4 10 14 11h23q10 0 6 -11l-406 -1224q-43 -127 -72 -160q-41 -45 -112 -45h-94q-10 0 -11 10v21q0 10 11 10h92q35 0 58.5 10t39.5 40t22.5 46t22.5 68l23 73l-504 1151q-4 10 8 11h25q8 0 12 -11l473 -1085v-21h8v21z" />
    <glyph glyph-name="uni0424" unicode="&#x424;" 
d="M563 178v1077h-256q-74 0 -119 -45t-45 -118v-750q0 -74 45 -119t119 -45h256zM604 1255v-1077h256q74 0 119 45t45 119v750q0 74 -45 118.5t-119 44.5h-256zM573 1440h21q10 0 10 -10v-134h256q92 0 148.5 -56t56.5 -148v-750q0 -92 -56.5 -148.5t-148.5 -56.5h-256
v-133q0 -10 -10 -10h-21q-10 0 -10 10v133h-256q-92 0 -148.5 56.5t-56.5 148.5v750q0 92 56.5 148t148.5 56h256v134q0 10 10 10z" />
    <glyph glyph-name="uni0425" unicode="&#x425;" 
d="M993 1434l31 -9l-418 -675l441 -750h-27q-12 0 -16 8l-416 690v19h-8q0 -14 -2 -19l-416 -690q-4 -8 -15 -8l-32 8l448 742l-416 684h27q10 0 14 -9l390 -626q2 -4 2 -19h8v19l389 626q4 9 16 9z" />
    <glyph glyph-name="uni0426" unicode="&#x426;" 
d="M246 1423v-1382h665v1382q0 10 11 11h20q10 0 10 -11v-1382h154q10 0 10 -10v-287q0 -10 -10 -10h-21q-10 0 -10 10v256h-860q-10 0 -10 10v1413q0 10 10 11h21q10 -1 10 -11z" />
    <glyph glyph-name="uni0427" unicode="&#x427;" 
d="M952 0h-20q-10 0 -10 10v621h-533q-92 0 -148.5 56t-56.5 149v587q0 10 11 11h20q10 0 10 -11v-587q0 -74 45 -119t119 -45h533v751q0 10 10 11h20q10 0 11 -11v-1413q-1 -10 -11 -10z" />
    <glyph glyph-name="uni0428" unicode="&#x428;" 
d="M143 1423v-1382h420v1382q0 10 10 11h21q10 0 10 -11v-1382h420v1382q0 10 10 11h21q10 0 10 -11v-1413q0 -10 -10 -10h-942q-10 0 -11 10v1413q0 10 11 11h20q10 -1 10 -11z" />
    <glyph glyph-name="uni0429" unicode="&#x429;" 
d="M82 10v1413q0 10 10 11h21q10 0 10 -11v-1382h389v1382q0 10 10 11h21q10 0 10 -11v-1382h389v1382q0 10 10 11h21q10 0 10 -11v-1382h143q10 0 11 -10v-287q0 -10 -11 -10h-20q-10 0 -10 10v256h-1004q-10 0 -10 10z" />
    <glyph glyph-name="uni042A" unicode="&#x42a;" 
d="M430 743v-702h356q74 0 119 45t45 119v375q0 74 -45 118.5t-119 44.5h-356zM51 1403v20q0 10 10 11h359q10 0 10 -11v-639h356q92 0 148.5 -56t56.5 -148v-375q0 -92 -56 -148.5t-149 -56.5h-387q-10 0 -10 10v1383h-328q-10 0 -10 10z" />
    <glyph glyph-name="uni042B" unicode="&#x42b;" 
d="M154 743v-702h415q74 0 119 45t45 119v375q0 74 -45 118.5t-119 44.5h-415zM154 1423v-639h415q92 0 148.5 -56t56.5 -148v-375q0 -92 -56 -148.5t-149 -56.5h-446q-10 0 -10 10v1413q0 10 10 11h20q11 -1 11 -11zM1051 1423v-1413q0 -10 -11 -10h-20q-10 0 -10 10v1413
q0 10 10 11h20q11 -1 11 -11z" />
    <glyph glyph-name="uni042C" unicode="&#x42c;" 
d="M246 743v-702h520q74 0 119 45t45 119v375q0 74 -45 118.5t-119 44.5h-520zM246 1423v-639h520q92 0 148.5 -56t56.5 -148v-375q0 -92 -56.5 -148.5t-148.5 -56.5h-551q-10 0 -10 10v1413q0 10 10 11h21q10 -1 10 -11z" />
    <glyph glyph-name="uni042D" unicode="&#x42d;" 
d="M205 1075v160q0 92 56 148.5t149 56.5h348q92 0 148.5 -56.5t56.5 -148.5v-1036q0 -92 -56.5 -148.5t-148.5 -56.5h-348q-92 0 -148.5 56t-56.5 149v159q0 10 10 11h21q10 0 10 -11v-159q0 -74 45 -119t119 -45h348q74 0 119 45t45 119v508h-471q-10 0 -11 10v20
q0 10 11 11h471v487q0 74 -45.5 119t-118.5 45h-348q-74 0 -119 -45t-45 -119v-160q0 -10 -10 -10h-21q-10 0 -10 10z" />
    <glyph glyph-name="uni042E" unicode="&#x42e;" 
d="M492 1235v-1036q0 -74 45 -119t118 -45h205q74 0 119 45t45 119v1036q0 74 -45 119t-119 45h-205q-74 0 -118.5 -45t-44.5 -119zM451 199v452h-308v-641q0 -10 -10 -10h-20q-10 0 -11 10v1413q0 10 11 11h20q10 0 10 -11v-731h308v543q0 92 56 148.5t148 56.5h205
q92 0 148.5 -56.5t56.5 -148.5v-1036q0 -92 -56.5 -148.5t-148.5 -56.5h-205q-92 0 -148 56.5t-56 148.5z" />
    <glyph glyph-name="uni042F" unicode="&#x42f;" 
d="M922 670v723h-541q-74 0 -119 -45t-45 -119v-395q0 -74 45 -119t119 -45h541zM518 629l-325 -621q-4 -8 -15 -8h-26l319 629h-90q-92 0 -148.5 56t-56.5 149v395q0 92 56.5 148.5t148.5 56.5h571q10 0 11 -11v-1413q0 -10 -11 -10h-20q-10 0 -10 10v619h-404z" />
    <glyph glyph-name="uni0430" unicode="&#x430;" 
d="M922 174v371q-258 57 -410 57q-127 0 -196.5 -56.5t-69.5 -148.5v-174q0 -86 61.5 -139t163.5 -53q175 0 451 143zM205 223v174q0 111 84 178.5t217 67.5q41 0 108.5 -7t122 -16.5t114.5 -18.5t71 -11v338q0 74 -45.5 119t-118.5 45h-338q-74 0 -119 -45.5t-45 -118.5
v-78q0 -10 -10 -10h-21q-10 0 -10 10v78q0 92 56.5 148.5t148.5 56.5h338q92 0 148.5 -56.5t56.5 -148.5v-918q0 -10 -11 -10h-20q-10 0 -10 10v115q-270 -135 -447 -135q-123 0 -196.5 64.5t-73.5 168.5z" />
    <glyph glyph-name="uni0431" unicode="&#x431;" 
d="M246 948v-762q0 -68 47 -109.5t123 -41.5h332q74 0 118.5 45t44.5 119v723q0 74 -44 118.5t-115 44.5q-119 0 -506 -137zM756 1126q84 0 140 -57t56 -147v-723q0 -92 -56 -148.5t-148 -56.5h-332q-96 0 -153.5 52t-57.5 138v949q0 92 56 156.5t147 78.5q33 6 223 35
t231 35q10 4 10 -8v-23q0 -8 -10 -12q-80 -10 -448 -66q-76 -10 -122 -64.5t-46 -129.5v-140q393 131 510 131z" />
    <glyph glyph-name="uni0432" unicode="&#x432;" 
d="M768 553h-522v-512h522q74 0 119 41t45 111v196q0 74 -45 119t-119 45zM717 1085h-471v-491h471q74 0 119 45t45 119v188q0 61 -45 100t-119 39zM825 584q68 -16 108 -68.5t40 -128.5v-199q0 -84 -56.5 -136t-148.5 -52h-553q-10 0 -10 10v1106q0 10 10 10h502
q92 0 148.5 -49t56.5 -129v-188q-1 -123 -97 -176z" />
    <glyph glyph-name="uni0433" unicode="&#x433;" 
d="M922 1085h-615v-1075q0 -10 -10 -10h-21q-10 0 -10 10v1106q0 10 10 10h646q10 0 10 -10v-20q0 -11 -10 -11z" />
    <glyph glyph-name="uni0434" unicode="&#x434;" 
d="M264 41h627v1044h-510l-59 -886q-7 -105 -58 -158zM102 41h99q72 43 80 158l61 917q0 10 10 10h570q10 0 10 -10v-1075h143q10 0 10 -10v-287q0 -10 -10 -10h-20q-10 0 -11 10v256h-911v-256q0 -10 -10 -10h-21q-10 0 -10 10v287q0 10 10 10z" />
    <glyph glyph-name="uni0435" unicode="&#x435;" 
d="M758 1092h-348q-74 0 -119 -44t-45 -116v-361h676v361q0 72 -45 116t-119 44zM952 530h-706v-327q0 -76 45 -122t119 -46h348q74 0 119 45t45 119v77q0 10 10 11h20q10 0 11 -11v-77q0 -92 -56.5 -148.5t-148.5 -56.5h-348q-92 0 -148.5 56t-56.5 149v729q0 92 56 148.5
t149 56.5h348q92 0 148.5 -55.5t56.5 -145.5v-391q-1 -11 -11 -11z" />
    <glyph glyph-name="uni0436" unicode="&#x436;" 
d="M563 553h-82l-344 -545q-8 -8 -16 -8l-31 8l354 565l-321 553h27q8 0 16 -8l315 -524h82v522q0 10 10 10h21q10 0 10 -10v-522h82l318 524q4 8 14 8l33 -8l-328 -545l350 -573h-26q-8 0 -17 8l-344 545h-82v-543q0 -10 -10 -10h-21q-10 0 -10 10v543z" />
    <glyph glyph-name="uni0437" unicode="&#x437;" 
d="M461 604h287q74 0 118.5 45t44.5 119v178q0 61 -45 100t-118 39h-328q-74 0 -119 -45t-45 -118v-78q0 -10 -10 -10h-21q-10 0 -10 10v78q0 92 56.5 148t148.5 56h328q92 0 148 -49t56 -129v-178q0 -135 -112 -184q123 -47 123 -189v-209q0 -84 -56.5 -136t-148.5 -52
h-348q-92 0 -148.5 56.5t-56.5 148.5v78q0 10 10 10h21q10 0 10 -10v-78q0 -74 45 -119t119 -45h348q74 0 119 41t45 111v206q0 74 -45.5 119t-118.5 45h-297q-10 0 -10 10v21q0 10 10 10z" />
    <glyph glyph-name="uni0438" unicode="&#x438;" 
d="M225 0h-10q-10 0 -10 10v1106q0 10 10 10h21q10 0 10 -10v-1018l-6 -18l6 -2q0 2 1 6t2 7t3 5l674 1022q8 8 16 8h10q10 0 11 -10v-1106q0 -10 -11 -10h-20q-10 0 -10 10v1016l6 18l-6 3q0 -2 -1 -6.5t-2 -7.5t-4 -5l-673 -1020q-9 -8 -17 -8z" />
    <glyph glyph-name="uni0439" unicode="&#x439;" 
d="M225 0h-10q-10 0 -10 10v1106q0 10 10 10h21q10 0 10 -10v-1018q0 -4 -2 -10t-2 -8l4 -2q0 12 6 18l674 1022q8 8 16 8h10q10 0 11 -10v-1106q0 -10 -11 -10h-20q-10 0 -10 10v1016q0 4 2 11t2 10h-4q0 -12 -7 -19l-673 -1020q-9 -8 -17 -8zM778 1382v-51
q0 -45 -28.5 -73.5t-73.5 -28.5h-182q-47 0 -75 28.5t-28 73.5v51q0 10 10 11h21q10 0 10 -11v-55q0 -57 57 -57h191q57 0 57 57v55q0 10 11 11h20q10 -1 10 -11z" />
    <glyph glyph-name="uni043A" unicode="&#x43a;" 
d="M510 553h-264v-545q0 -8 -10 -8h-21q-10 0 -10 8v1108q0 10 10 10h21q10 0 10 -10v-522h262l444 524q8 8 17 8l37 -8l-459 -545l481 -573h-31q-8 0 -16 8z" />
    <glyph glyph-name="uni043B" unicode="&#x43b;" 
d="M922 1085h-514l-60 -886q-14 -205 -184 -205h-41q-10 0 -10 10v21q0 10 10 10h41q133 0 143 164l62 917q0 10 10 10h573q10 0 11 -10v-1106q0 -10 -11 -10h-20q-10 0 -10 10v1075z" />
    <glyph glyph-name="uni043C" unicode="&#x43c;" 
d="M983 1126h21q10 0 10 -10v-1106q0 -10 -10 -10h-21q-10 0 -10 10v1008q0 6 6 18l-8 2v-9t-2 -11l-365 -764q-4 -10 -14 -10h-12q-10 0 -15 10l-364 764q-2 4 -2 11v9l-9 -2q6 -12 7 -18v-1008q0 -10 -11 -10h-20q-10 0 -10 10v1106q0 10 10 10h20q10 0 15 -10l381 -801
v-6v-8v-6h8v6v8v6l381 801q4 10 14 10z" />
    <glyph glyph-name="uni043D" unicode="&#x43d;" 
d="M922 553h-676v-543q0 -10 -10 -10h-21q-10 0 -10 10v1106q0 10 10 10h21q10 0 10 -10v-522h676v522q0 10 10 10h20q10 0 11 -10v-1106q0 -10 -11 -10h-20q-10 0 -10 10v543z" />
    <glyph glyph-name="uni043E" unicode="&#x43e;" 
d="M246 928v-729q0 -74 45 -119t119 -45h348q74 0 119 45t45 119v729q0 74 -45.5 119t-118.5 45h-348q-74 0 -119 -45t-45 -119zM205 199v729q0 92 56 148.5t149 56.5h348q92 0 148.5 -56.5t56.5 -148.5v-729q0 -92 -56.5 -148.5t-148.5 -56.5h-348q-92 0 -148.5 56.5
t-56.5 148.5z" />
    <glyph glyph-name="uni043F" unicode="&#x43f;" 
d="M952 0h-20q-10 0 -10 10v1075h-676v-1075q0 -10 -10 -10h-21q-10 0 -10 10v1106q0 10 10 10h737q10 0 11 -10v-1106q-1 -10 -11 -10z" />
    <glyph glyph-name="uni0440" unicode="&#x440;" 
d="M246 952v-778q276 -143 448 -143q104 0 166 56t62 149v655q0 92 -61.5 148.5t-166.5 56.5q-172 -1 -448 -144zM236 -307h-21q-10 0 -10 10v1413q0 10 10 10h21q10 0 10 -10v-115q270 135 444 136q125 0 199 -68t74 -178v-655q0 -111 -74 -178.5t-199 -67.5
q-174 0 -444 135v-422q0 -10 -10 -10z" />
    <glyph glyph-name="uni0441" unicode="&#x441;" 
d="M410 35h348q74 0 119 45t45 119v77q0 10 10 11h20q10 0 11 -11v-77q0 -92 -56.5 -148.5t-148.5 -56.5h-348q-92 0 -148.5 56t-56.5 149v729q0 92 56 148.5t149 56.5h348q92 0 148.5 -56.5t56.5 -148.5v-78q0 -10 -11 -10h-20q-10 0 -10 10v78q0 74 -45.5 119t-118.5 45
h-348q-74 0 -119 -45.5t-45 -118.5v-729q0 -74 45 -119t119 -45z" />
    <glyph glyph-name="uni0442" unicode="&#x442;" 
d="M563 10v1075h-430q-10 0 -10 11v20q0 10 10 10h901q10 0 10 -10v-20q0 -10 -10 -11h-430v-1075q0 -10 -10 -10h-21q-10 0 -10 10z" />
    <glyph glyph-name="uni0443" unicode="&#x443;" 
d="M440 -297l117 299l-434 1114q-4 10 8 10h21q10 0 14 -10l409 -1046q2 -4 3 -31h4q0 27 2 31l417 1046q4 10 15 10h20q8 0 8 -10l-561 -1413q-4 -10 -12 -10h-22q-13 0 -9 10z" />
    <glyph glyph-name="uni0444" unicode="&#x444;" 
d="M328 31q96 0 237 112v840q-141 113 -237 113q-70 0 -113 -45t-43 -119v-737q0 -74 43 -119t113 -45zM995 195v737q0 74 -43 119t-112 45q-88 0 -234 -109v-848q145 -109 234 -108q70 0 112.5 45t42.5 119zM606 94v-391q0 -10 -10 -10h-21q-10 0 -10 10v393
q-147 -106 -241 -106q-82 0 -137.5 57t-55.5 148v737q0 90 55.5 147.5t137.5 57.5q94 0 241 -107v393q0 10 10 11h21q10 0 10 -11v-391q139 104 238 105q82 0 137 -57.5t55 -147.5v-737q0 -90 -55 -147.5t-137 -57.5q-99 0 -238 104z" />
    <glyph glyph-name="uni0445" unicode="&#x445;" 
d="M596 616l383 502q4 8 14 8l37 -8l-418 -547l406 -561q4 -10 -6 -10h-31q-8 0 -14 10l-373 516q-2 2 -2 19h-4q0 -16 -2 -19l-396 -518q-8 -8 -16 -8l-35 8l428 565l-399 543q-4 10 6 10h31q8 0 14 -10l367 -500q2 -4 2 -18h4q0 14 4 18z" />
    <glyph glyph-name="uni0446" unicode="&#x446;" 
d="M891 41v1075q0 10 10 10h21q10 0 10 -10v-1075h174q10 0 10 -10v-287q0 -10 -10 -10h-21q-10 0 -10 10v256h-860q-10 0 -10 10v1106q0 10 10 10h21q10 0 10 -10v-1075h645z" />
    <glyph glyph-name="uni0447" unicode="&#x447;" 
d="M952 0h-20q-10 0 -10 10v537q-254 -117 -439 -117q-125 0 -201.5 61.5t-76.5 163.5v461q0 10 10 10h21q10 0 10 -10v-461q0 -84 62.5 -134t168.5 -50q168 0 445 123v522q0 10 10 10h20q10 0 11 -10v-1106q-1 -10 -11 -10z" />
    <glyph glyph-name="uni0448" unicode="&#x448;" 
d="M1024 41v1075q0 10 10 10h21q10 0 10 -10v-1106q0 -10 -10 -10h-942q-10 0 -11 10v1106q0 10 11 10h20q10 0 10 -10v-1075h420v1075q0 10 10 10h21q10 0 10 -10v-1075h420z" />
    <glyph glyph-name="uni0449" unicode="&#x449;" 
d="M993 41h133q10 0 11 -10v-287q0 -10 -11 -10h-20q-10 0 -10 10v256h-994q-10 0 -10 10v1106q0 10 10 10h21q10 0 10 -10v-1075h389v1075q0 10 10 10h21q10 0 10 -10v-1075h389v1075q0 10 11 10h20q10 0 10 -10v-1075z" />
    <glyph glyph-name="uni044A" unicode="&#x44a;" 
d="M758 584h-307v-543h307q74 0 119 45t45 119v215q0 74 -45 119t-119 45zM61 1096v20q0 10 11 10h368q10 0 11 -10v-491h307q92 0 148.5 -56.5t56.5 -148.5v-215q0 -92 -56.5 -148.5t-148.5 -56.5h-338q-10 0 -10 10v1075h-338q-11 1 -11 11z" />
    <glyph glyph-name="uni044B" unicode="&#x44b;" 
d="M512 584h-287v-543h287q74 0 119 45t45 119v215q0 74 -45 119t-119 45zM195 1126h20q10 0 10 -10v-491h287q92 0 148.5 -56.5t56.5 -148.5v-215q0 -92 -56.5 -148.5t-148.5 -56.5h-317q-10 0 -11 10v1106q1 10 11 10zM973 0h-21q-10 0 -10 10v1106q0 10 10 10h21
q10 0 10 -10v-1106q0 -10 -10 -10z" />
    <glyph glyph-name="uni044C" unicode="&#x44c;" 
d="M737 584h-491v-543h491q74 0 119 45t45 119v215q0 74 -45 119t-119 45zM737 0h-522q-10 0 -10 10v1106q0 10 10 10h21q10 0 10 -10v-491h491q92 0 148.5 -56.5t56.5 -148.5v-215q0 -92 -56.5 -148.5t-148.5 -56.5z" />
    <glyph glyph-name="uni044D" unicode="&#x44d;" 
d="M236 840h-21q-10 0 -10 10v78q0 92 56 148.5t149 56.5h348q92 0 148.5 -56.5t56.5 -148.5v-729q0 -92 -56.5 -148.5t-148.5 -56.5h-348q-92 0 -148.5 56t-56.5 149v77q0 10 10 11h21q10 0 10 -11v-77q0 -74 45 -119t119 -45h348q74 0 119 45t45 119v354h-516
q-10 0 -11 10v21q0 10 11 10h516v334q0 74 -45.5 119t-118.5 45h-348q-74 0 -119 -45.5t-45 -118.5v-78q0 -10 -10 -10z" />
    <glyph glyph-name="uni044E" unicode="&#x44e;" 
d="M512 928v-729q0 -74 45 -119t119 -45h153q74 0 119 45t45 119v729q0 74 -45 119t-119 45h-153q-74 0 -119 -45t-45 -119zM471 199v354h-287v-543q0 -10 -10 -10h-20q-10 0 -11 10v1106q0 10 11 10h20q10 0 10 -10v-522h287v334q0 92 56.5 148.5t148.5 56.5h153
q92 0 148.5 -56.5t56.5 -148.5v-729q0 -92 -56 -148.5t-149 -56.5h-153q-92 0 -148.5 56.5t-56.5 148.5z" />
    <glyph glyph-name="uni044F" unicode="&#x44f;" 
d="M410 543h491v542h-491q-74 0 -119 -47t-45 -125v-206q0 -74 45 -119t119 -45zM193 8l309 494h-92q-92 0 -148.5 56t-56.5 149v204q0 96 56 155.5t149 59.5h522q10 0 10 -10v-1106q0 -10 -10 -10h-21q-10 0 -10 10v492h-348l-311 -494q-4 -8 -15 -8z" />
    <glyph glyph-name="uni0450" unicode="&#x450;" 
d="M758 1092h-348q-74 0 -119 -44t-45 -116v-361h676v361q0 72 -45 116t-119 44zM952 530h-706v-327q0 -76 45 -122t119 -46h348q74 0 119 45t45 119v77q0 10 10 11h20q10 0 11 -11v-77q0 -92 -56.5 -148.5t-148.5 -56.5h-348q-92 0 -148.5 56t-56.5 149v729q0 92 56 148.5
t149 56.5h348q92 0 148.5 -55.5t56.5 -145.5v-391q-1 -11 -11 -11zM494 1393l90 -164h-21q-12 0 -16 8l-103 162z" />
    <glyph glyph-name="uni0451" unicode="&#x451;" 
d="M758 1092h-348q-74 0 -119 -44t-45 -116v-361h676v361q0 72 -45 116t-119 44zM952 530h-706v-327q0 -76 45 -122t119 -46h348q74 0 119 45t45 119v77q0 10 10 11h20q10 0 11 -11v-77q0 -92 -56.5 -148.5t-148.5 -56.5h-348q-92 0 -148.5 56t-56.5 149v729q0 92 56 148.5
t149 56.5h348q92 0 148.5 -55.5t56.5 -145.5v-391q-1 -11 -11 -11zM360 1274v59q0 25 25 25h59q25 0 25 -25v-59q0 -25 -25 -25h-59q-25 0 -25 25zM680 1274v59q0 25 25 25h59q25 0 24 -25v-59q0 -25 -24 -25h-59q-25 0 -25 25z" />
    <glyph glyph-name="uni0452" unicode="&#x452;" 
d="M236 0h-21q-10 0 -10 10v1239h-133q-10 0 -11 11v20q0 10 11 10h133v133q0 10 10 11h21q10 0 10 -11l-2 -133h360q10 0 10 -10v-20q0 -10 -10 -11h-358l-2 -245q276 133 448 133q123 0 197 -68t74 -178v-1000q0 -90 -55.5 -144t-147.5 -54h-185q-10 0 -10 10v21
q0 10 10 10h185q74 0 119 43t45 114v1000q0 92 -61.5 148.5t-166.5 56.5q-178 0 -452 -142l2 -944q0 -10 -10 -10z" />
    <glyph glyph-name="uni0453" unicode="&#x453;" 
d="M922 1085h-615v-1075q0 -10 -10 -10h-21q-10 0 -10 10v1106q0 10 10 10h646q10 0 10 -10v-20q0 -11 -10 -11zM588 1235l92 158q6 6 14 6l41 -8l-106 -154q-8 -8 -17 -8z" />
    <glyph glyph-name="uni0454" unicode="&#x454;" 
d="M952 840h-20q-10 0 -10 10v78q0 74 -45.5 119t-118.5 45h-348q-74 0 -119 -45.5t-45 -118.5v-334h516q10 0 10 -10v-21q0 -10 -10 -10h-516v-354q0 -74 45 -119t119 -45h348q74 0 119 45t45 119v77q0 10 10 11h20q10 0 11 -11v-77q0 -92 -56.5 -148.5t-148.5 -56.5h-348
q-92 0 -148.5 56t-56.5 149v729q0 92 56 148.5t149 56.5h348q92 0 148.5 -56.5t56.5 -148.5v-78q-1 -10 -11 -10z" />
    <glyph glyph-name="uni0455" unicode="&#x455;" 
d="M963 309v-110q0 -92 -56.5 -148.5t-148.5 -56.5h-348q-92 0 -148.5 56t-56.5 149v77q0 10 10 11h21q10 0 10 -11v-77q0 -74 45 -119t119 -45h348q74 0 119 45t45 119v129q0 51 -24 97t-64 58l-496 158q-57 18 -90 82.5t-33 134.5v70q0 92 56.5 148.5t148.5 56.5h328
q92 0 148 -56.5t56 -148.5v-78q0 -10 -10 -10h-20q-10 0 -11 10v78q0 74 -45 119t-118 45h-328q-74 0 -119 -45.5t-45 -118.5v-88q0 -51 23.5 -97.5t64.5 -58.5l496 -158q57 -18 90 -82.5t33 -134.5z" />
    <glyph glyph-name="uni0456" unicode="&#x456;" 
d="M215 1096v20q0 10 10 10h369q10 0 10 -10v-1075h338q10 0 10 -10v-21q0 -10 -10 -10h-717q-10 0 -10 10v21q0 10 10 10h338v1044h-338q-10 1 -10 11zM451 1337v121q0 16 16 17h121q16 0 16 -17v-121q0 -16 -16 -16h-121q-16 0 -16 16z" />
    <glyph glyph-name="uni0457" unicode="&#x457;" 
d="M215 1096v20q0 10 10 10h369q10 0 10 -10v-1075h338q10 0 10 -10v-21q0 -10 -10 -10h-717q-10 0 -10 10v21q0 10 10 10h338v1044h-338q-10 1 -10 11zM299 1274v59q0 25 25 25h59q25 0 25 -25v-59q0 -25 -25 -25h-59q-25 0 -25 25zM618 1274v59q0 25 25 25h59q25 0 25 -25
v-59q0 -25 -25 -25h-59q-25 0 -25 25z" />
    <glyph glyph-name="uni0458" unicode="&#x458;" 
d="M360 1126h490q10 0 10 -10v-1163q0 -125 -98 -197.5t-287 -72.5q-63 0 -192 15t-129 38v22q0 6 6 6t8 -2q117 -39 301 -38q176 0 263 62t87 169v1130h-459q-10 0 -10 11v20q0 10 10 10zM727 1475h121q16 0 16 -17v-121q0 -16 -16 -16h-121q-16 0 -16 16v121q0 17 16 17z
" />
    <glyph glyph-name="uni0459" unicode="&#x459;" 
d="M1096 205v215q0 74 -45 119t-119 45h-260v-543h260q74 0 119 45t45 119zM1137 420v-215q0 -92 -56.5 -148.5t-148.5 -56.5h-291q-10 0 -10 10v1075h-326l-59 -886q-14 -205 -185 -205h-20q-10 0 -10 10v21q0 10 10 10h20q133 0 144 164l61 917q0 10 10 10h386
q10 0 10 -10v-491h260q92 0 148.5 -56.5t56.5 -148.5z" />
    <glyph glyph-name="uni045A" unicode="&#x45a;" 
d="M1075 205v198q0 74 -45 119t-119 45h-256v-526h256q74 0 119 45t45 119zM655 1116v-508h254q94 0 150.5 -56t56.5 -149v-198q0 -92 -56 -148.5t-151 -56.5h-286q-8 0 -9 10v557h-473v-557q0 -10 -10 -10h-20q-10 0 -11 10v1106q0 10 11 10h20q10 0 10 -10v-508h473v508
q0 10 9 10h20q12 0 12 -10z" />
    <glyph glyph-name="uni045B" unicode="&#x45b;" 
d="M41 1260v20q0 10 10 10h154v133q0 10 10 11h21q10 0 10 -11v-133h358q10 0 10 -10v-20q0 -10 -10 -11h-358v-248q281 135 448 136q123 0 196 -68t73 -178v-881q0 -10 -11 -10h-20q-10 0 -10 10v881q0 92 -60.5 148.5t-163.5 56.5q-176 0 -452 -144v-942q0 -10 -10 -10
h-21q-10 0 -10 10v1239h-154q-10 1 -10 11z" />
    <glyph glyph-name="uni045C" unicode="&#x45c;" 
d="M510 553h-264v-545q0 -8 -10 -8h-21q-10 0 -10 8v1108q0 10 10 10h21q10 0 10 -10v-522h262l444 524q8 8 17 8l37 -8l-459 -545l481 -573h-31q-8 0 -16 8zM506 1235l92 158q6 6 14 6l41 -8l-106 -154q-8 -8 -17 -8z" />
    <glyph glyph-name="uni045D" unicode="&#x45d;" 
d="M225 0h-10q-10 0 -10 10v1106q0 10 10 10h21q10 0 10 -10v-1018l-6 -18l6 -2q0 2 1 6t2 7t3 5l674 1022q8 8 16 8h10q10 0 11 -10v-1106q0 -10 -11 -10h-20q-10 0 -10 10v1016l6 18l-6 3q0 -2 -1 -6.5t-2 -7.5t-4 -5l-673 -1020q-9 -8 -17 -8zM504 1393l90 -164h-21
q-12 0 -16 8l-102 162z" />
    <glyph glyph-name="uni045E" unicode="&#x45e;" 
d="M440 -297l117 299l-434 1114q-4 10 8 10h21q10 0 14 -10l409 -1046q2 -4 3 -31h4q0 27 2 31l417 1046q4 10 15 10h20q8 0 8 -10l-561 -1413q-4 -10 -12 -10h-22q-13 0 -9 10zM778 1382v-51q0 -45 -28.5 -73.5t-73.5 -28.5h-182q-47 0 -75 28.5t-28 73.5v51q0 10 10 11h21
q10 0 10 -11v-55q0 -57 57 -57h191q57 0 57 57v55q0 10 11 11h20q10 -1 10 -11z" />
    <glyph glyph-name="uni045F" unicode="&#x45f;" 
d="M205 10v1106q0 10 10 10h21q10 0 10 -10v-1075h655v1075q0 10 10 10h21q10 0 10 -10v-1106q0 -10 -10 -10h-330v-256q0 -10 -10 -10h-21q-10 0 -10 10v256h-346q-10 0 -10 10z" />
    <glyph glyph-name="uni0490" unicode="&#x490;" 
d="M932 1669v-266q0 -10 -10 -10h-615v-1383q0 -10 -10 -10h-21q-10 0 -10 10v1413q0 10 10 11h615v235q0 10 10 10h21q10 0 10 -10z" />
    <glyph glyph-name="uni0491" unicode="&#x491;" 
d="M829 1341v-245q0 -10 -10 -11h-510v-1075q0 -10 -10 -10h-20q-12 0 -13 10v1106q0 10 13 10h509v215q0 10 11 11h20q10 -1 10 -11z" />
    <glyph glyph-name="uni04D8" unicode="&#x4d8;" 
d="M410 35h348q74 0 119 44t45 116v477h-676v-477q0 -72 45 -116t119 -44zM215 713h707v512q0 76 -45.5 122t-118.5 46h-348q-74 0 -119 -45t-45 -119v-78q0 -10 -10 -10h-21q-10 0 -10 10v78q0 92 56 148.5t149 56.5h348q92 0 148.5 -56.5t56.5 -148.5v-1030
q0 -92 -56.5 -148.5t-148.5 -56.5h-348q-92 0 -148.5 55t-56.5 146v507q0 11 10 11z" />
    <glyph glyph-name="uni04D9" unicode="&#x4d9;" 
d="M412 35h346q74 0 119 44t45 116v360h-674v-360q0 -72 45 -116t119 -44zM217 596h705v328q0 76 -45.5 122t-118.5 46h-348q-72 0 -118 -45.5t-46 -118.5v-78q0 -10 -10 -10h-19q-12 0 -12 10v78q0 92 57 148.5t148 56.5h348q92 0 148.5 -56.5t56.5 -148.5v-729
q0 -92 -56.5 -148.5t-148.5 -56.5h-348q-90 0 -147.5 55t-57.5 146v391q0 10 12 10z" />
    <glyph glyph-name="Wgrave" unicode="&#x1e80;" 
d="M602 1423l189 -1300v-21h4v21l231 1300q4 10 12 11h21q12 0 8 -11l-252 -1413q-4 -10 -12 -10h-21q-12 0 -12 10l-190 1288q-2 4 0 11.5t2 9.5h-9q0 -2 2.5 -9t-0.5 -12l-188 -1288q0 -10 -12 -10h-21q-8 0 -12 10l-252 1413q0 10 8 11h21q8 0 12 -11l229 -1300v-21h5v21
l190 1300q4 10 12 11h23q8 -1 12 -11zM500 1700l90 -164h-21q-12 0 -16 8l-102 162z" />
    <glyph glyph-name="wgrave" unicode="&#x1e81;" 
d="M580 993l-211 -983q-4 -10 -13 -10h-24q-8 0 -13 10l-237 1106q-4 10 8 10h21q10 0 14 -10l215 -1016q2 -10 2 -30h4q0 20 2 30l213 1016q4 10 12 10h19q8 0 12 -10l215 -1016q2 -10 2 -30h4q0 20 2 30l215 1016q4 10 15 10h20q12 0 8 -10l-237 -1106q-4 -10 -12 -10h-25
q-8 0 -12 10l-213 983v17.5t-2 15.5h-4q4 -17 0 -33zM504 1393l90 -164h-21q-12 0 -16 8l-102 162z" />
    <glyph glyph-name="Wacute" unicode="&#x1e82;" 
d="M602 1423l189 -1300v-21h4v21l231 1300q4 10 12 11h21q12 0 8 -11l-252 -1413q-4 -10 -12 -10h-21q-12 0 -12 10l-190 1288q-2 4 0 11.5t2 9.5h-9q0 -2 2.5 -9t-0.5 -12l-188 -1288q0 -10 -12 -10h-21q-8 0 -12 10l-252 1413q0 10 8 11h21q8 0 12 -11l229 -1300v-21h5v21
l190 1300q4 10 12 11h23q8 -1 12 -11zM567 1542l92 158q6 6 15 6l41 -8l-107 -154q-8 -8 -16 -8z" />
    <glyph glyph-name="wacute" unicode="&#x1e83;" 
d="M580 993l-211 -983q-4 -10 -13 -10h-24q-8 0 -13 10l-237 1106q-4 10 8 10h21q10 0 14 -10l215 -1016q2 -10 2 -30h4q0 20 2 30l213 1016q4 10 12 10h19q8 0 12 -10l215 -1016q2 -10 2 -30h4q0 20 2 30l215 1016q4 10 15 10h20q12 0 8 -10l-237 -1106q-4 -10 -12 -10h-25
q-8 0 -12 10l-213 983v17.5t-2 15.5h-4q4 -17 0 -33zM571 1235l93 158q6 6 14 6l41 -8l-107 -154q-8 -8 -16 -8z" />
    <glyph glyph-name="Wdieresis" unicode="&#x1e84;" 
d="M602 1423l189 -1300v-21h4v21l231 1300q4 10 12 11h21q12 0 8 -11l-252 -1413q-4 -10 -12 -10h-21q-12 0 -12 10l-190 1288q-2 4 0 11.5t2 9.5h-9q0 -2 2.5 -9t-0.5 -12l-188 -1288q0 -10 -12 -10h-21q-8 0 -12 10l-252 1413q0 10 8 11h21q8 0 12 -11l229 -1300v-21h5v21
l190 1300q4 10 12 11h23q8 -1 12 -11zM686 1581v59q0 25 25 25h59q25 0 25 -25v-59q0 -25 -25 -25h-59q-25 0 -25 25zM367 1581v59q0 25 24 25h60q25 0 24 -25v-59q0 -25 -24 -25h-60q-24 0 -24 25z" />
    <glyph glyph-name="wdieresis" unicode="&#x1e85;" 
d="M580 993l-211 -983q-4 -10 -13 -10h-24q-8 0 -13 10l-237 1106q-4 10 8 10h21q10 0 14 -10l215 -1016q2 -10 2 -30h4q0 20 2 30l213 1016q4 10 12 10h19q8 0 12 -10l215 -1016q2 -10 2 -30h4q0 20 2 30l215 1016q4 10 15 10h20q12 0 8 -10l-237 -1106q-4 -10 -12 -10h-25
q-8 0 -12 10l-213 983v17.5t-2 15.5h-4q4 -17 0 -33zM690 1274v59q0 25 25 25h59q25 0 25 -25v-59q0 -25 -25 -25h-59q-25 0 -25 25zM371 1274v59q0 25 24 25h60q25 0 24 -25v-59q0 -25 -24 -25h-60q-24 0 -24 25z" />
    <glyph glyph-name="uni1E9E" unicode="&#x1e9e;" 
d="M561 842l299 551h-450q-74 0 -119 -45t-45 -119v-1219q0 -10 -10 -10h-21q-10 0 -10 10v1219q0 92 56 148.5t149 56.5h499q10 0 6 -11l-313 -592h146q92 0 148 -56t56 -146v-426q0 -90 -56 -146.5t-148 -56.5h-220q-10 0 -10 10v21q0 10 10 10h220q74 0 118.5 45
t44.5 119v426q0 74 -45 119t-118 45h-179q-10 0 -10 10v16q0 15 2 21z" />
    <glyph glyph-name="Ygrave" unicode="&#x1ef2;" 
d="M1038 1425l-432 -831v-584q0 -10 -10 -10h-21q-10 0 -10 10v584l-428 840h25q10 0 14 -9l404 -772q4 -4 4 -18h4q0 14 2 18l403 772q8 8 17 9zM506 1700l90 -164h-21q-12 0 -16 8l-102 162z" />
    <glyph glyph-name="ygrave" unicode="&#x1ef3;" 
d="M440 -297l117 299l-434 1114q-4 10 8 10h21q10 0 14 -10l409 -1046q2 -4 3 -31h4q0 27 2 31l417 1046q4 10 15 10h20q8 0 8 -10l-561 -1413q-4 -10 -12 -10h-22q-13 0 -9 10zM504 1393l90 -164h-21q-12 0 -16 8l-102 162z" />
    <glyph glyph-name="figuredash" unicode="&#x2012;" 
d="M297 707v20q0 10 10 10h553q10 0 10 -10v-20q0 -10 -10 -11h-553q-10 1 -10 11z" />
    <glyph glyph-name="endash" unicode="&#x2013;" 
d="M205 614v21q0 10 10 10h737q10 0 11 -10v-21q0 -10 -11 -10h-737q-10 0 -10 10z" />
    <glyph glyph-name="emdash" unicode="&#x2014;" 
d="M51 614v21q0 10 10 10h1045q10 0 10 -10v-21q0 -10 -10 -10h-1045q-10 0 -10 10z" />
    <glyph glyph-name="quoteleft" unicode="&#x2018;" 
d="M592 1434h47q16 0 12 -17l-73 -377q-4 -16 -21 -16h-100q-16 0 -11 16l123 377q7 17 23 17z" />
    <glyph glyph-name="quoteright" unicode="&#x2019;" 
d="M504 1024h-47q-16 0 -13 16l74 377q4 16 21 17h100q16 0 10 -17l-123 -377q-6 -16 -22 -16z" />
    <glyph glyph-name="quotesinglbase" unicode="&#x201a;" 
d="M504 -256h-47q-16 0 -13 16l74 377q4 16 21 17h100q16 0 12 -17l-125 -377q-6 -16 -22 -16z" />
    <glyph glyph-name="quotedblleft" unicode="&#x201c;" 
d="M791 1434h47q16 0 12 -17l-74 -377q-4 -16 -20 -16h-101q-16 0 -10 16l123 377q7 17 23 17zM520 1434h47q16 0 13 -17l-76 -377q-4 -16 -19 -16h-100q-16 0 -12 16l125 377q6 17 22 17z" />
    <glyph glyph-name="quotedblright" unicode="&#x201d;" 
d="M432 1024h-47q-16 0 -12 16l73 377q4 16 21 17h100q16 0 11 -17l-123 -377q-7 -16 -23 -16zM702 1024h-47q-16 0 -12 16l76 377q4 16 18 17h101q16 0 12 -17l-125 -377q-7 -16 -23 -16z" />
    <glyph glyph-name="quotedblbase" unicode="&#x201e;" 
d="M432 -256h-47q-16 0 -12 16l73 377q4 16 21 17h100q16 0 11 -17l-123 -377q-7 -16 -23 -16zM702 -256h-47q-16 0 -12 16l76 377q4 16 18 17h101q16 0 12 -17l-125 -377q-7 -16 -23 -16z" />
    <glyph glyph-name="dagger" unicode="&#x2020;" 
d="M256 1096v20q0 10 10 10h297v400q0 10 10 10h21q10 0 10 -10v-400h297q10 0 10 -10v-20q0 -10 -10 -11h-297v-1382q0 -10 -10 -10h-21q-10 0 -10 10v1382h-297q-10 1 -10 11z" />
    <glyph glyph-name="daggerdbl" unicode="&#x2021;" 
d="M256 92v21q0 10 10 10h297v983h-297q-10 0 -10 10v21q0 10 10 10h297v379q0 10 10 10h21q10 0 10 -10v-379h297q10 0 10 -10v-21q0 -10 -10 -10h-297v-983h297q10 0 10 -10v-21q0 -10 -10 -10h-297v-379q0 -10 -10 -10h-21q-10 0 -10 10v379h-297q-10 0 -10 10z" />
    <glyph glyph-name="bullet" unicode="&#x2022;" 
d="M440 553v143q0 33 19.5 52.5t52.5 19.5h143q33 0 52.5 -19.5t19.5 -52.5v-143q0 -33 -19.5 -52.5t-52.5 -19.5h-143q-33 0 -52.5 19.5t-19.5 52.5z" />
    <glyph glyph-name="ellipsis" unicode="&#x2026;" 
d="M502 16v131q0 16 16 17h131q16 0 17 -17v-131q0 -16 -17 -16h-131q-16 0 -16 16zM164 16v131q0 16 16 17h131q16 0 17 -17v-131q0 -16 -17 -16h-131q-16 0 -16 16zM819 16v131q0 16 17 17h131q16 0 16 -17v-131q0 -16 -16 -16h-131q-17 0 -17 16z" />
    <glyph glyph-name="perthousand" unicode="&#x2030;" 
d="M16 594l1125 332q8 2 12 -8l6 -19q6 -10 -8 -14l-1124 -332q-8 -2 -13 8l-6 19q-6 10 8 14zM102 1235v-217q0 -74 40 -119t106 -45h16q66 0 106 45t40 119v217q0 74 -40 119t-106 45h-16q-66 0 -106 -45t-40 -119zM61 1018v217q0 92 51.5 148.5t133.5 56.5h20
q82 0 133.5 -56.5t51.5 -148.5v-217q0 -92 -51.5 -148.5t-133.5 -56.5h-20q-82 0 -133.5 56.5t-51.5 148.5zM799 199v135q0 92 45 148.5t121 56.5h16q76 0 121 -56.5t45 -148.5v-135q0 -92 -45 -148.5t-121 -56.5h-16q-76 0 -121 56.5t-45 148.5zM840 334v-135
q0 -74 33.5 -119t91.5 -45h16q57 0 91 45t34 119v135q0 74 -35 119t-92 45h-12q-57 0 -92 -45t-35 -119zM342 199v135q0 92 45 148.5t121 56.5h16q76 0 121 -56.5t45 -148.5v-135q0 -92 -45 -148.5t-121 -56.5h-16q-76 0 -121 56.5t-45 148.5zM383 334v-135q0 -74 35 -119
t92 -45h12q57 0 92 45t35 119v135q0 74 -34.5 119t-92.5 45h-12q-57 0 -92 -45t-35 -119z" />
    <glyph glyph-name="guilsinglleft" unicode="&#x2039;" 
d="M803 975l-377 -350l377 -349q8 -6 2 -14l-17 -14q-2 -4 -6 -4q-6 0 -8 2l-389 362q-8 6 -8 16.5t8 16.5l389 363q2 2 8 2q4 0 9 -5l12 -12q8 -8 0 -14z" />
    <glyph glyph-name="guilsinglright" unicode="&#x203a;" 
d="M741 625l-376 350q-6 6 0 14l14 12q2 4 8 5q4 0 6 -2l391 -363q6 -6 6.5 -16.5t-6.5 -16.5l-391 -362q-2 -2 -6 -2q-6 0 -8 4l-14 14q-6 8 0 14z" />
    <glyph glyph-name="fraction" unicode="&#x2044;" 
d="M4 -76l1126 1606q2 4 9 4q4 0 6 -2l16 -10q6 -4 2 -15l-1126 -1605q-2 -4 -8 -4q-4 0 -6 2l-17 10q-10 6 -2 14z" />
    <glyph glyph-name="Euro" unicode="&#x20ac;" 
d="M92 584v20q0 10 10 10h154v205h-154q-10 0 -10 10v21q0 10 10 10h154v375q0 92 56.5 148.5t148.5 56.5h297q92 0 148.5 -56.5t56.5 -148.5v-160q0 -10 -11 -10h-20q-10 0 -10 10v160q0 74 -45.5 119t-118.5 45h-297q-74 0 -119 -45t-45 -119v-375h471q10 0 10 -10v-21
q0 -10 -10 -10h-471v-205h471q10 0 10 -10v-20q0 -10 -10 -11h-471v-374q0 -74 45 -119t119 -45h297q74 0 119 45t45 119v159q0 10 10 11h20q10 0 11 -11v-159q0 -92 -56.5 -148.5t-148.5 -56.5h-297q-92 0 -148.5 56t-56.5 149v374h-154q-10 1 -10 11z" />
    <glyph glyph-name="uni20B4" unicode="&#x20b4;" 
d="M164 584v20q0 10 10 10h197l307 205h-504q-10 0 -10 10v21q0 10 10 10h565l80 53q92 61 92 230v92q0 74 -45 119t-118 45h-328q-74 0 -119 -45t-45 -119v-119q0 -10 -10 -10h-21q-10 0 -10 10v119q0 92 56.5 148.5t148.5 56.5h328q92 0 148 -56.5t56 -148.5v-92
q0 -76 -25.5 -149.5t-76.5 -108.5l-37 -25h145q10 0 11 -10v-21q0 -10 -11 -10h-206l-308 -205h514q10 0 11 -10v-20q0 -10 -11 -11h-575l-45 -30q-92 -78 -92 -230v-114q0 -74 45 -119t119 -45h348q74 0 119 45t45 119v118q0 10 10 11h20q10 0 11 -11v-118
q0 -92 -56.5 -148.5t-148.5 -56.5h-348q-92 0 -148.5 56t-56.5 149v114q0 72 26.5 143.5t75.5 114.5l2 2h-135q-10 1 -10 11z" />
    <glyph glyph-name="uni2116" unicode="&#x2116;" 
d="M825 1235v-176q0 -74 35 -119t92 -45h13q57 0 92 45t35 119v176q0 74 -35 119t-92 45h-13q-57 0 -92 -45t-35 -119zM92 1315v-1305q0 -10 -10 -10h-21q-10 0 -10 10v1413q0 10 10 11h21q10 0 14 -11l525 -1304q2 -2 2 -9.5v-11.5h8q-6 18 -6 21v1304q0 10 10 11h20
q10 0 11 -11v-1413q0 -10 -11 -10h-20q-10 0 -14 10l-525 1305q-2 4 -2 10v10h-8q6 -18 6 -20zM784 653v19q0 10 11 10h327q10 0 11 -10v-19q0 -10 -11 -10h-327q-11 0 -11 10zM784 1059v176q0 92 45 148.5t121 56.5h17q76 0 121 -56.5t45 -148.5v-176q0 -92 -45.5 -148.5
t-120.5 -56.5h-17q-76 0 -121 56.5t-45 148.5z" />
    <glyph glyph-name="trademark" unicode="&#x2122;" 
d="M539 1425v-24q0 -8 -11 -8h-209v-668q0 -8 -10 -8l-30 8v668l-222 8l9 33h462q11 -1 11 -9zM705 1315l-9 -598l-30 8l8 709h26q8 0 13 -11l164 -444q2 -6 2 -23h4q0 16 2 25l164 444q4 8 12 9l35 -9l-9 -708l-30 8v592q0 6 4 22h-4q0 -4 -1 -11t-3 -11l-164 -420h-15
q-8 0 -12 8l-153 410q0 2 -2 11t-2 11h-5q5 -12 5 -22z" />
    <glyph glyph-name="arrowleft" unicode="&#x2190;" 
d="M1098 696h-967l315 -293q8 -6 3 -14l-17 -14q-4 -4 -6 -4q-6 0 -8 2l-350 327q-8 6 -8.5 16.5t8.5 16.5l350 330q2 2 8 2q4 0 8 -4l12 -12q8 -8 0 -15l-315 -297h967q10 0 10 -10v-20q0 -11 -10 -11z" />
    <glyph glyph-name="arrowup" unicode="&#x2191;" 
d="M563 205v966l-293 -317q-4 -4 -8 -4q-2 0 -6 4l-16 14q-6 8 0 15l325 352q8 8 19 8q8 0 16 -8l328 -352q6 -6 0 -15l-15 -14q-4 -4 -6 -4q-4 0 -8 4l-295 317v-966q0 -10 -10 -10h-21q-10 0 -10 10z" />
    <glyph glyph-name="arrowright" unicode="&#x2192;" 
d="M1036 696h-966q-10 0 -11 11v20q0 10 11 10h966l-315 297q-8 6 0 15l12 12q4 4 8 4q6 0 9 -2l350 -330q8 -6 8 -16t-8 -17l-350 -327q-2 -2 -9 -2q-2 0 -6 4l-16 14q-6 8 2 14z" />
    <glyph glyph-name="arrowdown" unicode="&#x2193;" 
d="M606 1233v-969l291 318q4 4 8 4q2 0 6 -4l17 -15q6 -6 0 -14l-326 -352q-6 -6 -18 -6q-10 0 -17 6l-327 352q-6 8 0 14l14 15q4 4 6 4q4 0 8 -4l297 -318v969q0 10 10 10h21q10 0 10 -10z" />
    <glyph glyph-name="uni2196" unicode="&#x2196;" 
d="M932 340l-684 682l18 -430q0 -10 -10 -10h-23q-10 0 -10 10l-18 479q0 10 8 16q8 8 16 9l482 -19q10 0 10 -10v-20q0 -12 -10 -9l-435 15l685 -684q6 -8 0 -15l-15 -14q-4 -4 -6 -4q-4 0 -8 4z" />
    <glyph glyph-name="uni2197" unicode="&#x2197;" 
d="M205 369l684 684l-430 -17q-10 0 -10 11l-3 20q0 10 11 10l479 19q25 0 25 -25l-17 -479q0 -10 -10 -10h-21q-10 0 -10 10l15 432l-685 -684q-2 -2 -6 -2q-6 0 -8 2l-14 14q-8 7 0 15z" />
    <glyph glyph-name="uni2198" unicode="&#x2198;" 
d="M236 1096l684 -682l-19 430q0 10 10 10h23q10 0 10 -10l19 -479q0 -10 -9 -17q-8 -8 -16 -8l-481 18q-10 0 -11 11v20q0 12 11 8l434 -14l-684 684q-6 6 0 14l14 15q4 4 6 4q5 0 9 -4z" />
    <glyph glyph-name="uni2199" unicode="&#x2199;" 
d="M963 1067l-684 -684l430 16q10 0 10 -10l2 -20q0 -10 -10 -11l-480 -18q-25 0 -24 25l16 479q0 10 10 10h21q10 0 10 -10l-14 -432l684 684q2 2 6 2q6 0 8 -2l15 -15q8 -8 0 -14z" />
    <glyph glyph-name="minus" unicode="&#x2212;" 
d="M297 707v20q0 10 10 10h553q10 0 10 -10v-20q0 -10 -10 -11h-553q-10 1 -10 11z" />
    <glyph glyph-name="approxequal" unicode="&#x2248;" 
d="M315 754l-8 32q0 8 8 17l82 55q27 16 58 16q18 0 32 -6l211 -80q12 -4 21 -4q18 0 33 11l100 67l8 -33q0 -8 -8 -16l-82 -53q-27 -16 -57 -17q-16 0 -33 7l-211 79q-12 4 -18 5q-23 0 -35 -13zM315 528l-8 33q0 8 8 17l82 55q27 16 58 16q18 0 32 -6l211 -80q12 -4 21 -4
q18 0 33 10l100 68l8 -33q0 -8 -8 -16l-82 -53q-27 -16 -57 -17q-16 0 -33 6l-211 80q-12 4 -18 4q-23 0 -35 -12z" />
    <glyph glyph-name="notequal" unicode="&#x2260;" 
d="M621 881l67 184q2 6 14 6l19 -6q10 -4 6 -12l-63 -172h196q10 0 10 -11v-20q0 -10 -10 -10h-211l-92 -246h303q10 0 10 -10v-21q0 -10 -10 -10h-317l-70 -188q-4 -10 -12 -7l-21 9q-10 2 -6 12l64 174h-191q-10 0 -10 10v21q0 10 10 10h207l90 246h-297q-10 0 -10 10v20
q0 10 10 11h314z" />
    <glyph glyph-name="lessequal" unicode="&#x2264;" 
d="M864 1090l-504 -291l504 -291q8 -6 4 -14l-10 -19q-4 -4 -8 -4t-6 2l-539 311q-8 4 -8 14.5t8 14.5l539 313q2 2 6 2q6 0 8 -6l10 -18q4 -10 -4 -14zM297 256v20q0 10 10 11h553q10 0 10 -11v-20q0 -10 -10 -10h-553q-10 0 -10 10z" />
    <glyph glyph-name="greaterequal" unicode="&#x2265;" 
d="M807 799l-504 291q-8 4 -4 14l10 18q2 6 8 6q4 0 7 -2l538 -313q8 -4 8 -14.5t-8 -14.5l-538 -311q-2 -2 -6.5 -2t-8.5 4l-10 19q-4 8 4 14zM870 276v-20q0 -10 -10 -10h-553q-10 0 -10 10v20q0 10 10 11h553q10 -1 10 -11z" />
    <glyph glyph-name="uniFB01" unicode="&#xfb01;" 
d="M61 1096v20q0 10 11 10h235v103q0 92 56.5 148.5t148.5 56.5h215q10 0 10 -11v-20q0 -10 -10 -10h-215q-74 0 -119 -45t-45 -119v-103h379q10 0 10 -10v-20q0 -10 -10 -11h-379v-1075q0 -10 -10 -10h-21q-10 0 -10 10v1075h-235q-11 1 -11 11zM932 1126h20q10 0 11 -10
v-1106q0 -10 -11 -10h-20q-10 0 -10 10v1106q0 10 10 10zM866 1337v121q0 16 17 17h121q16 0 16 -17v-121q0 -16 -16 -16h-121q-17 0 -17 16z" />
    <glyph glyph-name="uniFB02" unicode="&#xfb02;" 
d="M61 1096v20q0 10 11 10h235v103q0 92 56.5 148.5t148.5 56.5h215q10 0 10 -11v-20q0 -10 -10 -10h-215q-74 0 -119 -45t-45 -119v-103h379q10 0 10 -10v-20q0 -10 -10 -11h-379v-1075q0 -10 -10 -10h-21q-10 0 -10 10v1075h-235q-11 1 -11 11zM932 1434h20q10 0 11 -11
v-1413q0 -10 -11 -10h-20q-10 0 -10 10v1413q0 11 10 11z" />
    <glyph glyph-name="glyph485" 
d="M526 -270l25 161q4 16 18 17h60q18 0 12 -17l-53 -161q-6 -16 -23 -17h-26q-17 1 -13 17z" />
    <glyph glyph-name="a.sc" 
d="M291 291h586l-291 768q-2 6 -2 22h-2q0 -16 -2 -20zM891 250h-615l-90 -240q-4 -10 -14 -10h-22q-10 0 -7 10l418 1129q0 8 12 8h19q10 0 14 -8l418 -1129q0 -10 -8 -10h-21q-12 0 -12 8z" />
    <glyph glyph-name="aacute.sc" 
d="M291 291h586l-291 768q-2 6 -2 22h-2q0 -16 -2 -20zM891 250h-615l-90 -240q-4 -10 -14 -10h-22q-10 0 -7 10l418 1129q0 8 12 8h19q10 0 14 -8l418 -1129q0 -10 -8 -10h-21q-12 0 -12 8zM571 1255l93 158q6 6 14 6l41 -8l-107 -154q-8 -8 -16 -8z" />
    <glyph glyph-name="abreve.sc" 
d="M291 291h586l-291 768q-2 6 -2 22h-2q0 -16 -2 -20zM891 250h-615l-90 -240q-4 -10 -14 -10h-22q-10 0 -7 10l418 1129q0 8 12 8h19q10 0 14 -8l418 -1129q0 -10 -8 -10h-21q-12 0 -12 8zM717 1362v-10q0 -45 -29 -74t-74 -29h-59q-47 0 -74.5 29t-27.5 74v10q0 10 10 10
h20q10 0 11 -10v-14q0 -57 57 -58h67q25 0 41.5 15.5t16.5 42.5v14q0 10 10 10h21q10 0 10 -10z" />
    <glyph glyph-name="acircumflex.sc" 
d="M291 291h586l-291 768q-2 6 -2 22h-2q0 -16 -2 -20zM891 250h-615l-90 -240q-4 -10 -14 -10h-22q-10 0 -7 10l418 1129q0 8 12 8h19q10 0 14 -8l418 -1129q0 -10 -8 -10h-21q-12 0 -12 8zM612 1401l101 -152h-21q-8 0 -16 8l-92 115l-90 -115q-8 -8 -17 -8l-24 6l102 146
q4 8 16 8h27q10 0 14 -8z" />
    <glyph glyph-name="agrave.sc" 
d="M291 291h586l-291 768q-2 6 -2 22h-2q0 -16 -2 -20zM891 250h-615l-90 -240q-4 -10 -14 -10h-22q-10 0 -7 10l418 1129q0 8 12 8h19q10 0 14 -8l418 -1129q0 -10 -8 -10h-21q-12 0 -12 8zM504 1413l90 -164h-21q-12 0 -16 8l-102 162z" />
    <glyph glyph-name="adieresis.sc" 
d="M291 291h586l-291 768q-2 6 -2 22h-2q0 -16 -2 -20zM891 250h-615l-90 -240q-4 -10 -14 -10h-22q-10 0 -7 10l418 1129q0 8 12 8h19q10 0 14 -8l418 -1129q0 -10 -8 -10h-21q-12 0 -12 8zM371 1294v60q0 25 24 24h60q25 0 24 -24v-60q0 -25 -24 -24h-60q-24 -1 -24 24z
M690 1294v60q0 25 25 24h59q25 0 25 -24v-60q0 -25 -25 -24h-59q-25 -1 -25 24z" />
    <glyph glyph-name="amacron.sc" 
d="M291 291h586l-291 768q-2 6 -2 22h-2q0 -16 -2 -20zM891 250h-615l-90 -240q-4 -10 -14 -10h-22q-10 0 -7 10l418 1129q0 8 12 8h19q10 0 14 -8l418 -1129q0 -10 -8 -10h-21q-12 0 -12 8zM453 1290v21q0 10 10 10h244q10 0 10 -10v-21q0 -10 -10 -10h-244q-10 0 -10 10z
" />
    <glyph glyph-name="aogonek.sc" 
d="M291 291h583l-288 768q-2 6 -2 22h-2q0 -16 -2 -20zM985 0l-94 250h-615l-90 -240q-4 -10 -14 -10h-22q-10 0 -7 10l418 1129q0 8 12 8h19q10 0 14 -8l420 -1139q-57 -96 -57 -170q0 -35 30 -35h95q10 0 10 -10v-21q0 -10 -10 -10h-101q-29 0 -47 18.5t-18 47.5
q0 98 57 180z" />
    <glyph glyph-name="aring.sc" 
d="M291 291h586l-291 768q-2 6 -2 22h-2q0 -16 -2 -20zM522 1321q0 -27 17.5 -44t44 -17t44 17t17.5 44t-17.5 44t-44 17t-44 -17t-17.5 -44zM891 250h-615l-90 -240q-4 -10 -14 -10h-22q-10 0 -7 10l418 1129q0 8 12 8h19q10 0 14 -8l418 -1129q0 -10 -8 -10h-21
q-12 0 -12 8zM481 1321q0 43 30 72.5t73 29.5t72.5 -29.5t29.5 -72.5q0 -41 -29.5 -71.5t-72.5 -30.5t-73 30.5t-30 71.5z" />
    <glyph glyph-name="atilde.sc" 
d="M291 291h586l-291 768q-2 6 -2 22h-2q0 -16 -2 -20zM891 250h-615l-90 -240q-4 -10 -14 -10h-22q-10 0 -7 10l418 1129q0 8 12 8h19q10 0 14 -8l418 -1129q0 -10 -8 -10h-21q-12 0 -12 8zM420 1284v27q0 18 47 34.5t69.5 16.5t36.5 -8l62 -33q8 -4 16 -4q18 0 62.5 15.5
t54.5 15.5v-25q0 -20 -43 -33.5t-70 -13.5q-23 0 -39 8l-61 33q-8 4 -16 4q-37 0 -109 -41q-2 -2 -6 -2t-4 6z" />
    <glyph glyph-name="ae.sc" 
d="M262 291h375v747q0 8 4 21h-4q-2 -2 -2 -9.5v-9.5zM637 250h-395l-117 -240q-4 -10 -14 -10h-23q-10 0 -6 10l551 1129q4 8 14 8h414q10 0 10 -10v-21q0 -10 -10 -10h-383v-549h307q10 0 10 -10v-21q0 -10 -10 -10h-307v-475h383q10 0 10 -10v-21q0 -10 -10 -10h-414
q-10 0 -10 10v240z" />
    <glyph glyph-name="aeacute.sc" 
d="M262 291h375v747q0 8 4 21h-4q-2 -2 -2 -9.5v-9.5zM637 250h-395l-117 -240q-4 -10 -14 -10h-23q-10 0 -6 10l551 1129q4 8 14 8h414q10 0 10 -10v-21q0 -10 -10 -10h-383v-549h307q10 0 10 -10v-21q0 -10 -10 -10h-307v-475h383q10 0 10 -10v-21q0 -10 -10 -10h-414
q-10 0 -10 10v240zM666 1255l92 158q6 6 14 6l41 -8l-106 -154q-8 -8 -17 -8z" />
    <glyph glyph-name="b.sc" 
d="M901 168v287q0 57 -42 92t-111 35h-480v-541h480q70 0 111.5 35t41.5 92zM707 1106h-439v-488h439q70 0 110.5 35t40.5 92v234q0 57 -40.5 92t-110.5 35zM942 451v-283q0 -76 -53 -122t-141 -46h-510q-10 0 -11 10v1127q0 10 11 10h469q88 0 140 -46t52 -120v-229
q0 -100 -86 -144q59 -16 94 -58t35 -99z" />
    <glyph glyph-name="c.sc" 
d="M422 1153h326q88 0 141 -47t53 -123v-125q0 -10 -10 -10h-21q-10 0 -10 10v127q0 57 -42 92t-111 35h-326q-70 0 -112 -35t-42 -92v-821q0 -57 42 -92t112 -35h326q70 0 111.5 34.5t41.5 92.5v125q0 10 10 10h21q10 0 10 -10v-125q0 -76 -53 -123t-141 -47h-326
q-88 0 -141.5 47t-53.5 123v819q0 76 53.5 123t141.5 47z" />
    <glyph glyph-name="cacute.sc" 
d="M422 1153h326q88 0 141 -47t53 -123v-125q0 -10 -10 -10h-21q-10 0 -10 10v127q0 57 -42 92t-111 35h-326q-70 0 -112 -35t-42 -92v-821q0 -57 42 -92t112 -35h326q70 0 111.5 34.5t41.5 92.5v125q0 10 10 10h21q10 0 10 -10v-125q0 -76 -53 -123t-141 -47h-326
q-88 0 -141.5 47t-53.5 123v819q0 76 53.5 123t141.5 47zM571 1255l93 158q6 6 14 6l41 -8l-107 -154q-8 -8 -16 -8z" />
    <glyph glyph-name="ccaron.sc" 
d="M422 1153h326q88 0 141 -47t53 -123v-125q0 -10 -10 -10h-21q-10 0 -10 10v127q0 57 -42 92t-111 35h-326q-70 0 -112 -35t-42 -92v-821q0 -57 42 -92t112 -35h326q70 0 111.5 34.5t41.5 92.5v125q0 10 10 10h21q10 0 10 -10v-125q0 -76 -53 -123t-141 -47h-326
q-88 0 -141.5 47t-53.5 123v819q0 76 53.5 123t141.5 47zM717 1403l-105 -146q-4 -8 -14 -8h-27q-12 0 -16 8l-98 152h20q8 0 17 -8l90 -115l92 115q8 8 16 8z" />
    <glyph glyph-name="ccedilla.sc" 
d="M672 -162v-28q0 -33 -19.5 -52.5t-52.5 -19.5h-94q-10 0 -10 10v21q0 10 10 10h94q31 0 31 31v28q0 31 -31 31h-63q-12 0 -9 10l19 115h-125q-88 0 -141.5 47t-53.5 123v819q0 76 53.5 123t141.5 47h326q88 0 141 -47t53 -123v-125q0 -10 -10 -10h-21q-10 0 -10 10v127
q0 57 -42 92t-111 35h-326q-70 0 -112 -35t-42 -92v-821q0 -57 42 -92t112 -35h326q70 0 111.5 34.5t41.5 92.5v125q0 10 10 10h21q10 0 10 -10v-125q0 -76 -53 -123t-141 -47h-160l-15 -84h27q33 0 52.5 -19.5t19.5 -52.5z" />
    <glyph glyph-name="ccircumflex.sc" 
d="M422 1153h326q88 0 141 -47t53 -123v-125q0 -10 -10 -10h-21q-10 0 -10 10v127q0 57 -42 92t-111 35h-326q-70 0 -112 -35t-42 -92v-821q0 -57 42 -92t112 -35h326q70 0 111.5 34.5t41.5 92.5v125q0 10 10 10h21q10 0 10 -10v-125q0 -76 -53 -123t-141 -47h-326
q-88 0 -141.5 47t-53.5 123v819q0 76 53.5 123t141.5 47zM612 1401l101 -152h-21q-8 0 -16 8l-92 115l-90 -115q-8 -8 -17 -8l-24 6l102 146q4 8 16 8h27q10 0 14 -8z" />
    <glyph glyph-name="cdotaccent.sc" 
d="M422 1153h326q88 0 141 -47t53 -123v-125q0 -10 -10 -10h-21q-10 0 -10 10v127q0 57 -42 92t-111 35h-326q-70 0 -112 -35t-42 -92v-821q0 -57 42 -92t112 -35h326q70 0 111.5 34.5t41.5 92.5v125q0 10 10 10h21q10 0 10 -10v-125q0 -76 -53 -123t-141 -47h-326
q-88 0 -141.5 47t-53.5 123v819q0 76 53.5 123t141.5 47zM530 1294v60q0 25 25 24h57q25 0 25 -24v-60q0 -25 -25 -24h-57q-25 -1 -25 24z" />
    <glyph glyph-name="d.sc" 
d="M268 1106v-1065h480q70 0 111.5 35t41.5 92v811q0 57 -42 92t-111 35h-480zM227 10v1127q0 10 11 10h510q88 0 141 -46t53 -122v-811q0 -76 -53 -122t-141 -46h-510q-11 0 -11 10z" />
    <glyph glyph-name="dcaron.sc" 
d="M268 1106v-1065h480q70 0 111.5 35t41.5 92v811q0 57 -42 92t-111 35h-480zM227 10v1127q0 10 11 10h510q88 0 141 -46t53 -122v-811q0 -76 -53 -122t-141 -46h-510q-11 0 -11 10zM696 1403l-104 -146q-4 -8 -14 -8h-27q-12 0 -16 8l-99 152h21q8 0 16 -8l90 -115l92 115
q8 8 17 8z" />
    <glyph glyph-name="dcroat.sc" 
d="M551 586h-289v-545h479q70 0 112 35t42 92v811q0 57 -42 92t-112 35h-479v-481h289q8 0 8 -11zM78 594v20q0 10 10 11h133v512q0 10 10 10h510q88 0 141.5 -46t53.5 -122v-811q0 -76 -53.5 -122t-141.5 -46h-510q-10 0 -10 10v576h-133q-10 0 -10 8z" />
    <glyph glyph-name="eth.sc" 
d="M551 586h-289v-545h479q70 0 112 35t42 92v811q0 57 -42 92t-112 35h-479v-481h289q8 0 8 -11zM78 594v20q0 10 10 11h133v512q0 10 10 10h510q88 0 141.5 -46t53.5 -122v-811q0 -76 -53.5 -122t-141.5 -46h-510q-10 0 -10 10v576h-133q-10 0 -10 8z" />
    <glyph glyph-name="thorn.sc" 
d="M748 874h-480v-598h480q70 0 111.5 35t41.5 92v345q0 57 -41.5 91.5t-111.5 34.5zM268 915h480q88 0 141 -47t53 -123v-339q0 -76 -53 -123t-141 -47h-480v-226q0 -10 -10 -10h-20q-10 0 -11 10v1127q0 10 11 10h20q10 0 10 -10v-222z" />
    <glyph glyph-name="e.sc" 
d="M227 10v1127q0 10 11 10h694q10 0 10 -10v-21q0 -10 -10 -10h-664v-549h490q10 0 10 -10v-21q0 -10 -10 -10h-490v-475h664q10 0 10 -10v-21q0 -10 -10 -10h-694q-11 0 -11 10z" />
    <glyph glyph-name="eacute.sc" 
d="M227 10v1127q0 10 11 10h694q10 0 10 -10v-21q0 -10 -10 -10h-664v-549h490q10 0 10 -10v-21q0 -10 -10 -10h-490v-475h664q10 0 10 -10v-21q0 -10 -10 -10h-694q-11 0 -11 10zM571 1255l93 158q6 6 14 6l41 -8l-107 -154q-8 -8 -16 -8z" />
    <glyph glyph-name="ebreve.sc" 
d="M227 10v1127q0 10 11 10h694q10 0 10 -10v-21q0 -10 -10 -10h-664v-549h490q10 0 10 -10v-21q0 -10 -10 -10h-490v-475h664q10 0 10 -10v-21q0 -10 -10 -10h-694q-11 0 -11 10zM717 1362v-10q0 -45 -29 -74t-74 -29h-59q-47 0 -74.5 29t-27.5 74v10q0 10 10 10h20
q10 0 11 -10v-14q0 -57 57 -58h67q25 0 41.5 15.5t16.5 42.5v14q0 10 10 10h21q10 0 10 -10z" />
    <glyph glyph-name="ecaron.sc" 
d="M227 10v1127q0 10 11 10h694q10 0 10 -10v-21q0 -10 -10 -10h-664v-549h490q10 0 10 -10v-21q0 -10 -10 -10h-490v-475h664q10 0 10 -10v-21q0 -10 -10 -10h-694q-11 0 -11 10zM717 1403l-105 -146q-4 -8 -14 -8h-27q-12 0 -16 8l-98 152h20q8 0 17 -8l90 -115l92 115
q8 8 16 8z" />
    <glyph glyph-name="ecircumflex.sc" 
d="M227 10v1127q0 10 11 10h694q10 0 10 -10v-21q0 -10 -10 -10h-664v-549h490q10 0 10 -10v-21q0 -10 -10 -10h-490v-475h664q10 0 10 -10v-21q0 -10 -10 -10h-694q-11 0 -11 10zM612 1401l101 -152h-21q-8 0 -16 8l-92 115l-90 -115q-8 -8 -17 -8l-24 6l102 146q4 8 16 8
h27q10 0 14 -8z" />
    <glyph glyph-name="edieresis.sc" 
d="M227 10v1127q0 10 11 10h694q10 0 10 -10v-21q0 -10 -10 -10h-664v-549h490q10 0 10 -10v-21q0 -10 -10 -10h-490v-475h664q10 0 10 -10v-21q0 -10 -10 -10h-694q-11 0 -11 10zM690 1294v60q0 25 25 24h59q25 0 25 -24v-60q0 -25 -25 -24h-59q-25 -1 -25 24zM371 1294v60
q0 25 24 24h60q25 0 24 -24v-60q0 -25 -24 -24h-60q-24 -1 -24 24z" />
    <glyph glyph-name="edotaccent.sc" 
d="M227 10v1127q0 10 11 10h694q10 0 10 -10v-21q0 -10 -10 -10h-664v-549h490q10 0 10 -10v-21q0 -10 -10 -10h-490v-475h664q10 0 10 -10v-21q0 -10 -10 -10h-694q-11 0 -11 10zM530 1294v60q0 25 25 24h57q25 0 25 -24v-60q0 -25 -25 -24h-57q-25 -1 -25 24z" />
    <glyph glyph-name="egrave.sc" 
d="M227 10v1127q0 10 11 10h694q10 0 10 -10v-21q0 -10 -10 -10h-664v-549h490q10 0 10 -10v-21q0 -10 -10 -10h-490v-475h664q10 0 10 -10v-21q0 -10 -10 -10h-694q-11 0 -11 10zM504 1413l90 -164h-21q-12 0 -16 8l-102 162z" />
    <glyph glyph-name="emacron.sc" 
d="M227 10v1127q0 10 11 10h694q10 0 10 -10v-21q0 -10 -10 -10h-664v-549h490q10 0 10 -10v-21q0 -10 -10 -10h-490v-475h664q10 0 10 -10v-21q0 -10 -10 -10h-694q-11 0 -11 10zM453 1290v21q0 10 10 10h244q10 0 10 -10v-21q0 -10 -10 -10h-244q-10 0 -10 10z" />
    <glyph glyph-name="eogonek.sc" 
d="M819 0h-581q-10 0 -11 10v1127q0 10 11 10h694q10 0 10 -10v-21q0 -10 -10 -10h-664v-549h490q10 0 10 -10v-21q0 -10 -10 -10h-490v-475h664q10 0 10 -10v-21q0 -10 -10 -10h-72q-53 -96 -53 -166q0 -35 31 -35h94q10 0 10 -10v-20q0 -10 -10 -11h-101q-31 0 -48 18.5
t-17 47.5q0 94 53 176z" />
    <glyph glyph-name="f.sc" 
d="M268 557h490q10 0 10 -10v-21q0 -10 -10 -10h-490v-506q0 -10 -10 -10h-20q-10 0 -11 10v1127q0 10 11 10h694q10 0 10 -10v-21q0 -10 -10 -10h-664v-549z" />
    <glyph glyph-name="g.sc" 
d="M659 557h273q10 0 10 -8v-385q0 -76 -53 -123t-141 -47h-326q-88 0 -141.5 47t-53.5 123v819q0 76 53.5 123t141.5 47h326q88 0 141 -47t53 -123v-125q0 -10 -10 -10h-21q-10 0 -10 10v127q0 57 -42 92t-111 35h-326q-70 0 -112 -35t-42 -92v-821q0 -57 42 -92t112 -35
h326q70 0 111.5 34.5t41.5 92.5v352h-242q-10 0 -10 10v23q0 8 10 8z" />
    <glyph glyph-name="gbreve.sc" 
d="M659 557h273q10 0 10 -8v-385q0 -76 -53 -123t-141 -47h-326q-88 0 -141.5 47t-53.5 123v819q0 76 53.5 123t141.5 47h326q88 0 141 -47t53 -123v-125q0 -10 -10 -10h-21q-10 0 -10 10v127q0 57 -42 92t-111 35h-326q-70 0 -112 -35t-42 -92v-821q0 -57 42 -92t112 -35
h326q70 0 111.5 34.5t41.5 92.5v352h-242q-10 0 -10 10v23q0 8 10 8zM717 1362v-10q0 -45 -29 -74t-74 -29h-59q-47 0 -74.5 29t-27.5 74v10q0 10 10 10h20q10 0 11 -10v-14q0 -57 57 -58h67q25 0 41.5 15.5t16.5 42.5v14q0 10 10 10h21q10 0 10 -10z" />
    <glyph glyph-name="gcircumflex.sc" 
d="M659 557h273q10 0 10 -8v-385q0 -76 -53 -123t-141 -47h-326q-88 0 -141.5 47t-53.5 123v819q0 76 53.5 123t141.5 47h326q88 0 141 -47t53 -123v-125q0 -10 -10 -10h-21q-10 0 -10 10v127q0 57 -42 92t-111 35h-326q-70 0 -112 -35t-42 -92v-821q0 -57 42 -92t112 -35
h326q70 0 111.5 34.5t41.5 92.5v352h-242q-10 0 -10 10v23q0 8 10 8zM612 1401l101 -152h-21q-8 0 -16 8l-92 115l-90 -115q-8 -8 -17 -8l-24 6l102 146q4 8 16 8h27q10 0 14 -8z" />
    <glyph glyph-name="uni0123.sc" 
d="M659 557h273q10 0 10 -8v-385q0 -76 -53 -123t-141 -47h-326q-88 0 -141.5 47t-53.5 123v819q0 76 53.5 123t141.5 47h326q88 0 141 -47t53 -123v-125q0 -10 -10 -10h-21q-10 0 -10 10v127q0 57 -42 92t-111 35h-326q-70 0 -112 -35t-42 -92v-821q0 -57 42 -92t112 -35
h326q70 0 111.5 34.5t41.5 92.5v352h-242q-10 0 -10 10v23q0 8 10 8zM526 -270l25 161q4 16 18 17h60q18 0 12 -17l-53 -161q-6 -16 -23 -17h-26q-17 1 -13 17z" />
    <glyph glyph-name="gdotaccent.sc" 
d="M659 557h273q10 0 10 -8v-385q0 -76 -53 -123t-141 -47h-326q-88 0 -141.5 47t-53.5 123v819q0 76 53.5 123t141.5 47h326q88 0 141 -47t53 -123v-125q0 -10 -10 -10h-21q-10 0 -10 10v127q0 57 -42 92t-111 35h-326q-70 0 -112 -35t-42 -92v-821q0 -57 42 -92t112 -35
h326q70 0 111.5 34.5t41.5 92.5v352h-242q-10 0 -10 10v23q0 8 10 8zM530 1294v60q0 25 25 24h57q25 0 25 -24v-60q0 -25 -25 -24h-57q-25 -1 -25 24z" />
    <glyph glyph-name="h.sc" 
d="M227 10v1127q0 10 11 10h20q10 0 10 -10v-580h633v580q0 10 10 10h21q10 0 10 -10v-1127q0 -10 -10 -10h-21q-10 0 -10 10v506h-633v-506q0 -10 -10 -10h-20q-11 0 -11 10z" />
    <glyph glyph-name="hbar.sc" 
d="M901 557v369h-633v-369h633zM911 1147h21q10 0 10 -10v-170h143q10 0 11 -11v-20q0 -10 -11 -10h-143v-916q0 -10 -10 -10h-21q-10 0 -10 10v506h-633v-506q0 -10 -10 -10h-20q-10 0 -11 10v916h-143q-10 0 -10 10v20q0 10 10 11h143v170q0 10 11 10h20q10 0 10 -10v-170
h633v170q0 10 10 10z" />
    <glyph glyph-name="hcircumflex.sc" 
d="M227 10v1127q0 10 11 10h20q10 0 10 -10v-580h633v580q0 10 10 10h21q10 0 10 -10v-1127q0 -10 -10 -10h-21q-10 0 -10 10v506h-633v-506q0 -10 -10 -10h-20q-11 0 -11 10zM612 1401l101 -152h-21q-8 0 -16 8l-92 115l-90 -115q-8 -8 -17 -8l-24 6l102 146q4 8 16 8h27
q10 0 14 -8z" />
    <glyph glyph-name="dotlessi.sc" 
d="M217 10v21q0 10 10 10h336v1065h-336q-10 0 -10 10v21q0 10 10 10h713q10 0 10 -10v-21q0 -10 -10 -10h-336v-1065h336q10 0 10 -10v-21q0 -10 -10 -10h-713q-10 0 -10 10z" />
    <glyph glyph-name="iacute.sc" 
d="M217 10v21q0 10 10 10h336v1065h-336q-10 0 -10 10v21q0 10 10 10h713q10 0 10 -10v-21q0 -10 -10 -10h-336v-1065h336q10 0 10 -10v-21q0 -10 -10 -10h-713q-10 0 -10 10zM571 1255l93 158q6 6 14 6l41 -8l-107 -154q-8 -8 -16 -8z" />
    <glyph glyph-name="ibreve.sc" 
d="M217 10v21q0 10 10 10h336v1065h-336q-10 0 -10 10v21q0 10 10 10h713q10 0 10 -10v-21q0 -10 -10 -10h-336v-1065h336q10 0 10 -10v-21q0 -10 -10 -10h-713q-10 0 -10 10zM717 1362v-10q0 -45 -29 -74t-74 -29h-59q-47 0 -74.5 29t-27.5 74v10q0 10 10 10h20
q10 0 11 -10v-14q0 -57 57 -58h67q25 0 41.5 15.5t16.5 42.5v14q0 10 10 10h21q10 0 10 -10z" />
    <glyph glyph-name="icircumflex.sc" 
d="M217 10v21q0 10 10 10h336v1065h-336q-10 0 -10 10v21q0 10 10 10h713q10 0 10 -10v-21q0 -10 -10 -10h-336v-1065h336q10 0 10 -10v-21q0 -10 -10 -10h-713q-10 0 -10 10zM612 1401l101 -152h-21q-8 0 -16 8l-92 115l-90 -115q-8 -8 -17 -8l-24 6l102 146q4 8 16 8h27
q10 0 14 -8z" />
    <glyph glyph-name="idieresis.sc" 
d="M217 10v21q0 10 10 10h336v1065h-336q-10 0 -10 10v21q0 10 10 10h713q10 0 10 -10v-21q0 -10 -10 -10h-336v-1065h336q10 0 10 -10v-21q0 -10 -10 -10h-713q-10 0 -10 10zM371 1294v60q0 25 24 24h60q25 0 24 -24v-60q0 -25 -24 -24h-60q-24 -1 -24 24zM690 1294v60
q0 25 25 24h59q25 0 25 -24v-60q0 -25 -25 -24h-59q-25 -1 -25 24z" />
    <glyph glyph-name="i.sc" 
d="M217 10v21q0 10 10 10h336v1065h-336q-10 0 -10 10v21q0 10 10 10h713q10 0 10 -10v-21q0 -10 -10 -10h-336v-1065h336q10 0 10 -10v-21q0 -10 -10 -10h-713q-10 0 -10 10zM530 1294v60q0 25 25 24h57q25 0 25 -24v-60q0 -25 -25 -24h-57q-25 -1 -25 24z" />
    <glyph glyph-name="igrave.sc" 
d="M217 10v21q0 10 10 10h336v1065h-336q-10 0 -10 10v21q0 10 10 10h713q10 0 10 -10v-21q0 -10 -10 -10h-336v-1065h336q10 0 10 -10v-21q0 -10 -10 -10h-713q-10 0 -10 10zM504 1413l90 -164h-21q-12 0 -16 8l-102 162z" />
    <glyph glyph-name="imacron.sc" 
d="M217 10v21q0 10 10 10h336v1065h-336q-10 0 -10 10v21q0 10 10 10h713q10 0 10 -10v-21q0 -10 -10 -10h-336v-1065h336q10 0 10 -10v-21q0 -10 -10 -10h-713q-10 0 -10 10zM453 1290v21q0 10 10 10h244q10 0 10 -10v-21q0 -10 -10 -10h-244q-10 0 -10 10z" />
    <glyph glyph-name="iogonek.sc" 
d="M561 0h-334q-10 0 -10 10v21q0 10 10 10h336v1065h-336q-10 0 -10 10v21q0 10 10 10h713q10 0 10 -10v-21q0 -10 -10 -10h-336v-1065h336q10 0 10 -10v-21q0 -10 -10 -10h-338q-55 -100 -55 -166q0 -35 31 -35h94q10 0 10 -10v-20q0 -10 -10 -11h-101q-29 0 -47 18.5
t-18 47.5q0 92 55 176z" />
    <glyph glyph-name="itilde.sc" 
d="M217 10v21q0 10 10 10h336v1065h-336q-10 0 -10 10v21q0 10 10 10h713q10 0 10 -10v-21q0 -10 -10 -10h-336v-1065h336q10 0 10 -10v-21q0 -10 -10 -10h-713q-10 0 -10 10zM420 1284v27q0 18 47 34.5t69.5 16.5t36.5 -8l62 -33q8 -4 16 -4q18 0 62.5 15.5t54.5 15.5v-25
q0 -20 -43 -33.5t-70 -13.5q-23 0 -39 8l-61 33q-8 4 -16 4q-37 0 -109 -41q-2 -2 -6 -2t-4 6z" />
    <glyph glyph-name="ij.sc" 
d="M655 1147h271q10 0 10 -10v-973q0 -76 -54.5 -123t-140.5 -47h-200q-88 0 -141.5 46t-53.5 122v78q0 10 8 10h23q10 0 10 -10v-76q0 -57 42 -93t112 -36h200q68 0 111 35.5t43 93.5v942h-240q-8 0 -8 10v21q0 10 8 10zM106 1147h271q10 0 10 -10v-684q0 -10 -10 -11h-21
q-10 0 -10 11v653h-240q-10 0 -10 10v21q0 10 10 10z" />
    <glyph glyph-name="j.sc" 
d="M524 1147h406q10 0 10 -10v-973q0 -76 -53 -123t-142 -47h-333q-88 0 -141.5 47t-53.5 123v78q0 8 10 8h21q10 0 10 -8v-78q0 -57 42 -92t112 -35h336q68 0 109.5 34.5t41.5 92.5v942h-375q-10 0 -10 10v21q0 10 10 10z" />
    <glyph glyph-name="jcircumflex.sc" 
d="M524 1147h406q10 0 10 -10v-973q0 -76 -53 -123t-142 -47h-333q-88 0 -141.5 47t-53.5 123v78q0 8 10 8h21q10 0 10 -8v-78q0 -57 42 -92t112 -35h336q68 0 109.5 34.5t41.5 92.5v942h-375q-10 0 -10 10v21q0 10 10 10zM758 1401l100 -152h-20q-8 0 -17 8l-92 115
l-90 -115q-8 -8 -16 -8l-25 6l102 146q4 8 17 8h26q11 0 15 -8z" />
    <glyph glyph-name="k.sc" 
d="M571 563h-301v-553q0 -10 -10 -10h-20q-10 0 -11 10v1127q0 10 11 10h20q10 0 10 -10v-535h299l385 537q8 8 17 8l33 -8l-402 -557l424 -582h-31q-8 0 -16 8z" />
    <glyph glyph-name="uni0137.sc" 
d="M571 563h-301v-553q0 -10 -10 -10h-20q-10 0 -11 10v1127q0 10 11 10h20q10 0 10 -10v-535h299l385 537q8 8 17 8l33 -8l-402 -557l424 -582h-31q-8 0 -16 8zM506 -270l24 161q4 16 19 17h59q18 0 13 -17l-54 -161q-6 -16 -22 -17h-27q-16 1 -12 17z" />
    <glyph glyph-name="l.sc" 
d="M268 1147h21q10 0 10 -10v-1096h672q10 0 10 -10v-21q0 -10 -10 -10h-703q-10 0 -10 10v1127q0 10 10 10z" />
    <glyph glyph-name="lacute.sc" 
d="M268 1147h21q10 0 10 -10v-1096h672q10 0 10 -10v-21q0 -10 -10 -10h-703q-10 0 -10 10v1127q0 10 10 10zM260 1255l92 158q6 6 15 6l41 -8l-107 -154q-8 -8 -16 -8z" />
    <glyph glyph-name="lcaron.sc" 
d="M268 1147h21q10 0 10 -10v-1096h672q10 0 10 -10v-21q0 -10 -10 -10h-703q-10 0 -10 10v1127q0 10 10 10zM733 963l25 161q4 16 18 17h60q18 0 12 -17l-53 -161q-4 -16 -23 -17h-27q-16 1 -12 17z" />
    <glyph glyph-name="uni013C.sc" 
d="M268 1147h21q10 0 10 -10v-1096h672q10 0 10 -10v-21q0 -10 -10 -10h-703q-10 0 -10 10v1127q0 10 10 10zM526 -270l25 161q4 16 18 17h60q18 0 12 -17l-53 -161q-6 -16 -23 -17h-26q-17 1 -13 17z" />
    <glyph glyph-name="ldot.sc" 
d="M268 1147h21q10 0 10 -10v-1096h672q10 0 10 -10v-21q0 -10 -10 -10h-703q-10 0 -10 10v1127q0 10 10 10zM760 508v131q0 16 16 16h131q16 0 17 -16v-131q0 -16 -17 -16h-131q-16 0 -16 16z" />
    <glyph glyph-name="lslash.sc" 
d="M86 436l166 82v619q0 10 10 10h21q10 0 10 -10v-598l219 100l10 -18q4 -8 -4 -15l-225 -112v-453h674q10 0 10 -10v-21q0 -10 -10 -10h-705q-10 0 -10 10v463l-146 -72q-2 -2 -6 -2q-8 0 -8 7l-10 16q-6 6 4 14z" />
    <glyph glyph-name="m.sc" 
d="M199 1147h20q10 0 14 -8l347 -766q2 -6 2 -21h4q0 14 2 21l346 764q4 10 14 10h21q10 0 10 -10v-1127q0 -10 -10 -10h-21q-10 0 -10 10v1014q0 10 4 23h-4q0 -2 -2 -10.5t-2 -12.5l-324 -717q-2 -8 -14 -8h-23q-8 0 -12 8l-328 717q0 4 -2 10t-2 10h-4q4 -12 4 -20v-1014
q0 -10 -10 -10h-20q-10 0 -11 10v1127q1 10 11 10z" />
    <glyph glyph-name="n.sc" 
d="M238 1147h20q12 0 12 -6l627 -1041q2 -2 3 -9t1 -9h4q-4 12 -4 20v1035q0 10 10 10h21q10 0 10 -10v-1127q0 -10 -10 -10h-21q-8 0 -14 6l-625 1041q-2 2 -3 9t-1 9h-4q4 -12 4 -21v-1034q0 -10 -10 -10h-20q-10 0 -11 10v1127q1 10 11 10z" />
    <glyph glyph-name="nacute.sc" 
d="M238 1147h20q12 0 12 -6l627 -1041q2 -2 3 -9t1 -9h4q-4 12 -4 20v1035q0 10 10 10h21q10 0 10 -10v-1127q0 -10 -10 -10h-21q-8 0 -14 6l-625 1041q-2 2 -3 9t-1 9h-4q4 -12 4 -21v-1034q0 -10 -10 -10h-20q-10 0 -11 10v1127q1 10 11 10zM571 1255l93 158q6 6 14 6
l41 -8l-107 -154q-8 -8 -16 -8z" />
    <glyph glyph-name="ncaron.sc" 
d="M238 1147h20q12 0 12 -6l627 -1041q2 -2 3 -9t1 -9h4q-4 12 -4 20v1035q0 10 10 10h21q10 0 10 -10v-1127q0 -10 -10 -10h-21q-8 0 -14 6l-625 1041q-2 2 -3 9t-1 9h-4q4 -12 4 -21v-1034q0 -10 -10 -10h-20q-10 0 -11 10v1127q1 10 11 10zM717 1403l-105 -146
q-4 -8 -14 -8h-27q-12 0 -16 8l-98 152h20q8 0 17 -8l90 -115l92 115q8 8 16 8z" />
    <glyph glyph-name="uni0146.sc" 
d="M238 1147h20q12 0 12 -6l627 -1041q2 -2 3 -9t1 -9h4q-4 12 -4 20v1035q0 10 10 10h21q10 0 10 -10v-1127q0 -10 -10 -10h-21q-8 0 -14 6l-625 1041q-2 2 -3 9t-1 9h-4q4 -12 4 -21v-1034q0 -10 -10 -10h-20q-10 0 -11 10v1127q1 10 11 10zM526 -270l25 161q4 16 18 17
h60q18 0 12 -17l-53 -161q-6 -16 -23 -17h-26q-17 1 -13 17z" />
    <glyph glyph-name="ntilde.sc" 
d="M238 1147h20q12 0 12 -6l627 -1041q2 -2 3 -9t1 -9h4q-4 12 -4 20v1035q0 10 10 10h21q10 0 10 -10v-1127q0 -10 -10 -10h-21q-8 0 -14 6l-625 1041q-2 2 -3 9t-1 9h-4q4 -12 4 -21v-1034q0 -10 -10 -10h-20q-10 0 -11 10v1127q1 10 11 10zM420 1284v27q0 18 47 34.5
t69.5 16.5t36.5 -8l62 -33q8 -4 16 -4q18 0 62.5 15.5t54.5 15.5v-25q0 -20 -43 -33.5t-70 -13.5q-23 0 -39 8l-61 33q-8 4 -16 4q-37 0 -109 -41q-2 -2 -6 -2t-4 6z" />
    <glyph glyph-name="eng.sc" 
d="M238 1147h20q6 0 12 -10l625 -1035q4 -6 4 -20h4q0 2 -1 10t-1 12v1033q0 10 10 10h21q10 0 10 -10v-1215q0 -76 -53 -122t-141 -46h-173q-10 0 -10 10v21q0 10 10 10h173q70 0 111.5 35t41.5 92v86l-629 1034q-2 6 -2 23h-4q0 -4 1 -10t1 -11v-1034q0 -10 -10 -10h-20
q-10 0 -11 10v1127q1 10 11 10z" />
    <glyph glyph-name="o.sc" 
d="M209 983q0 76 53 123t141 47h365q86 0 139.5 -47t53.5 -123v-819q0 -76 -53.5 -123t-139.5 -47h-365q-88 0 -141 47t-53 123v819zM250 985v-821q0 -57 42 -92t111 -35h365q68 0 110 34.5t42 92.5v821q0 57 -42 92t-110 35h-365q-70 0 -111.5 -35t-41.5 -92z" />
    <glyph glyph-name="oacute.sc" 
d="M209 983q0 76 53 123t141 47h365q86 0 139.5 -47t53.5 -123v-819q0 -76 -53.5 -123t-139.5 -47h-365q-88 0 -141 47t-53 123v819zM250 985v-821q0 -57 42 -92t111 -35h365q68 0 110 34.5t42 92.5v821q0 57 -42 92t-110 35h-365q-70 0 -111.5 -35t-41.5 -92zM571 1255
l93 158q6 6 14 6l41 -8l-107 -154q-8 -8 -16 -8z" />
    <glyph glyph-name="obreve.sc" 
d="M250 985v-821q0 -57 42 -92t111 -35h365q68 0 110 34.5t42 92.5v821q0 57 -42 92t-110 35h-365q-70 0 -111.5 -35t-41.5 -92zM209 164v819q0 76 53 123t141 47h365q86 0 139.5 -47t53.5 -123v-819q0 -76 -53.5 -123t-139.5 -47h-365q-88 0 -141 47t-53 123zM717 1362v-10
q0 -45 -29 -74t-74 -29h-59q-47 0 -74.5 29t-27.5 74v10q0 10 10 10h20q10 0 11 -10v-14q0 -57 57 -58h67q25 0 41.5 15.5t16.5 42.5v14q0 10 10 10h21q10 0 10 -10z" />
    <glyph glyph-name="ocircumflex.sc" 
d="M250 985v-821q0 -57 42 -92t111 -35h365q68 0 110 34.5t42 92.5v821q0 57 -42 92t-110 35h-365q-70 0 -111.5 -35t-41.5 -92zM209 164v819q0 76 53 123t141 47h365q86 0 139.5 -47t53.5 -123v-819q0 -76 -53.5 -123t-139.5 -47h-365q-88 0 -141 47t-53 123zM612 1401
l101 -152h-21q-8 0 -16 8l-92 115l-90 -115q-8 -8 -17 -8l-24 6l102 146q4 8 16 8h27q10 0 14 -8z" />
    <glyph glyph-name="odieresis.sc" 
d="M209 983q0 76 53 123t141 47h365q86 0 139.5 -47t53.5 -123v-819q0 -76 -53.5 -123t-139.5 -47h-365q-88 0 -141 47t-53 123v819zM250 985v-821q0 -57 42 -92t111 -35h365q68 0 110 34.5t42 92.5v821q0 57 -42 92t-110 35h-365q-70 0 -111.5 -35t-41.5 -92zM690 1294v60
q0 25 25 24h59q25 0 25 -24v-60q0 -25 -25 -24h-59q-25 -1 -25 24zM371 1294v60q0 25 24 24h60q25 0 24 -24v-60q0 -25 -24 -24h-60q-24 -1 -24 24z" />
    <glyph glyph-name="ograve.sc" 
d="M209 983q0 76 53 123t141 47h365q86 0 139.5 -47t53.5 -123v-819q0 -76 -53.5 -123t-139.5 -47h-365q-88 0 -141 47t-53 123v819zM250 985v-821q0 -57 42 -92t111 -35h365q68 0 110 34.5t42 92.5v821q0 57 -42 92t-110 35h-365q-70 0 -111.5 -35t-41.5 -92zM504 1413
l90 -164h-21q-12 0 -16 8l-102 162z" />
    <glyph glyph-name="ohungarumlaut.sc" 
d="M209 983q0 76 53 123t141 47h365q86 0 139.5 -47t53.5 -123v-819q0 -76 -53.5 -123t-139.5 -47h-365q-88 0 -141 47t-53 123v819zM250 985v-821q0 -57 42 -92t111 -35h365q68 0 110 34.5t42 92.5v821q0 57 -42 92t-110 35h-365q-70 0 -111.5 -35t-41.5 -92zM645 1255
l94 148q2 6 13 6l41 -8l-107 -144q-8 -8 -16 -8zM475 1255l94 148q4 6 13 6l41 -8l-107 -144q-8 -8 -16 -8z" />
    <glyph glyph-name="omacron.sc" 
d="M209 983q0 76 53 123t141 47h365q86 0 139.5 -47t53.5 -123v-819q0 -76 -53.5 -123t-139.5 -47h-365q-88 0 -141 47t-53 123v819zM250 985v-821q0 -57 42 -92t111 -35h365q68 0 110 34.5t42 92.5v821q0 57 -42 92t-110 35h-365q-70 0 -111.5 -35t-41.5 -92zM453 1290v21
q0 10 10 10h244q10 0 10 -10v-21q0 -10 -10 -10h-244q-10 0 -10 10z" />
    <glyph glyph-name="oslash.sc" 
d="M397 37l336 1075h-332q-70 0 -110.5 -35t-40.5 -92v-821q0 -57 40.5 -91t106.5 -36zM774 1112l-336 -1075h332q68 0 109 34.5t41 92.5v821q0 55 -40 90t-106 37zM365 -66l18 60q-80 6 -127 52t-47 118v819q0 76 53 123t141 47h342l23 70q0 6 8 6h4l27 -12l-21 -64
q78 -6 126.5 -52t48.5 -118v-819q0 -76 -53.5 -123t-139.5 -47h-344l-31 -76z" />
    <glyph glyph-name="oslashacute.sc" 
d="M397 37l336 1075h-332q-70 0 -110.5 -35t-40.5 -92v-821q0 -57 40.5 -91t106.5 -36zM774 1112l-336 -1075h332q68 0 109 34.5t41 92.5v821q0 55 -40 90t-106 37zM365 -66l18 60q-80 6 -127 52t-47 118v819q0 76 53 123t141 47h342l23 70q0 6 8 6h4l27 -12l-21 -64
q78 -6 126.5 -52t48.5 -118v-819q0 -76 -53.5 -123t-139.5 -47h-344l-31 -76zM571 1255l93 158q6 6 14 6l41 -8l-107 -154q-8 -8 -16 -8z" />
    <glyph glyph-name="otilde.sc" 
d="M250 985v-821q0 -57 42 -92t111 -35h365q68 0 110 34.5t42 92.5v821q0 57 -42 92t-110 35h-365q-70 0 -111.5 -35t-41.5 -92zM209 164v819q0 76 53 123t141 47h365q86 0 139.5 -47t53.5 -123v-819q0 -76 -53.5 -123t-139.5 -47h-365q-88 0 -141 47t-53 123zM420 1284v27
q0 18 47 34.5t69.5 16.5t36.5 -8l62 -33q8 -4 16 -4q18 0 62.5 15.5t54.5 15.5v-25q0 -20 -43 -33.5t-70 -13.5q-23 0 -39 8l-61 33q-8 4 -16 4q-37 0 -109 -41q-2 -2 -6 -2t-4 6z" />
    <glyph glyph-name="oe.sc" 
d="M651 164v821q0 57 -42 92t-109 35h-183q-70 0 -111.5 -35t-41.5 -92v-821q0 -57 42 -92t111 -35h183q68 0 109.5 35t41.5 92zM1075 1106h-383v-549h307q10 0 11 -10v-21q0 -10 -11 -10h-307v-475h383q10 0 10 -10v-21q0 -10 -10 -10h-413q-10 0 -11 10v43
q-55 -59 -151 -59h-183q-88 0 -141 47t-53 123v819q0 76 53 123t141 47h183q96 0 151 -59v43q0 10 11 10h413q10 0 10 -10v-21q0 -10 -10 -10z" />
    <glyph glyph-name="p.sc" 
d="M715 1106h-449v-596h449q70 0 111.5 35t41.5 92v342q0 57 -41.5 92t-111.5 35zM236 1147h479q88 0 141 -46t53 -122v-342q0 -76 -53 -122t-141 -46h-449v-459q0 -10 -10 -10h-20q-10 0 -11 10v1127q1 10 11 10z" />
    <glyph glyph-name="q.sc" 
d="M250 985v-821q0 -57 42 -92t111 -35h365q68 0 110 34.5t42 92.5v821q0 57 -42 92t-110 35h-365q-70 0 -111.5 -35t-41.5 -92zM836 -188v-21q0 -8 -11 -8h-49q-98 0 -164.5 32.5t-66.5 102.5v78h-142q-88 0 -141 46t-53 122v819q0 76 53 123t141 47h365q86 0 139.5 -47
t53.5 -123v-819q0 -76 -53.5 -122t-139.5 -46h-182v-78q0 -96 190 -96h49q11 0 11 -10z" />
    <glyph glyph-name="r.sc" 
d="M758 1106h-488v-565h488q70 0 111.5 34.5t41.5 92.5v311q0 57 -41.5 92t-111.5 35zM946 10l-254 490h-422v-490q0 -10 -10 -10h-20q-10 0 -11 10v1127q0 10 11 10h518q88 0 141 -46t53 -122v-311q0 -76 -53 -122t-141 -46h-23l254 -490q4 -10 -6 -10h-22q-11 0 -15 10z
" />
    <glyph glyph-name="racute.sc" 
d="M758 1106h-488v-565h488q70 0 111.5 34.5t41.5 92.5v311q0 57 -41.5 92t-111.5 35zM946 10l-254 490h-422v-490q0 -10 -10 -10h-20q-10 0 -11 10v1127q0 10 11 10h518q88 0 141 -46t53 -122v-311q0 -76 -53 -122t-141 -46h-23l254 -490q4 -10 -6 -10h-22q-11 0 -15 10z
M535 1255l92 158q6 6 14 6l41 -8l-107 -154q-8 -8 -16 -8z" />
    <glyph glyph-name="rcaron.sc" 
d="M758 1106h-488v-565h488q70 0 111.5 34.5t41.5 92.5v311q0 57 -41.5 92t-111.5 35zM946 10l-254 490h-422v-490q0 -10 -10 -10h-20q-10 0 -11 10v1127q0 10 11 10h518q88 0 141 -46t53 -122v-311q0 -76 -53 -122t-141 -46h-23l254 -490q4 -10 -6 -10h-22q-11 0 -15 10z
M680 1403l-105 -146q-4 -8 -14 -8h-26q-12 0 -17 8l-98 152h20q8 0 17 -8l90 -115l92 115q8 8 16 8z" />
    <glyph glyph-name="uni0157.sc" 
d="M758 1106h-488v-565h488q70 0 111.5 34.5t41.5 92.5v311q0 57 -41.5 92t-111.5 35zM946 10l-254 490h-422v-490q0 -10 -10 -10h-20q-10 0 -11 10v1127q0 10 11 10h518q88 0 141 -46t53 -122v-311q0 -76 -53 -122t-141 -46h-23l254 -490q4 -10 -6 -10h-22q-11 0 -15 10z
M526 -270l25 161q4 16 18 17h60q18 0 12 -17l-53 -161q-6 -16 -23 -17h-26q-17 1 -13 17z" />
    <glyph glyph-name="s.sc" 
d="M223 842v141q0 76 53.5 123t139.5 47h338q88 0 141 -47t53 -123v-125q0 -10 -10 -10h-20q-10 0 -11 10v127q0 57 -42 92t-111 35h-338q-68 0 -110 -35t-42 -92v-135q0 -74 74 -111l532 -282q86 -47 86 -135v-158q0 -76 -53 -123t-139 -47h-356q-88 0 -141.5 47t-53.5 123
v125q0 10 10 10h21q10 0 10 -10v-125q0 -57 42 -92t112 -35h356q70 0 110.5 34.5t40.5 92.5v151q0 74 -71 111l-535 281q-86 49 -86 135z" />
    <glyph glyph-name="sacute.sc" 
d="M223 842v141q0 76 53.5 123t139.5 47h338q88 0 141 -47t53 -123v-125q0 -10 -10 -10h-20q-10 0 -11 10v127q0 57 -42 92t-111 35h-338q-68 0 -110 -35t-42 -92v-135q0 -74 74 -111l532 -282q86 -47 86 -135v-158q0 -76 -53 -123t-139 -47h-356q-88 0 -141.5 47t-53.5 123
v125q0 10 10 10h21q10 0 10 -10v-125q0 -57 42 -92t112 -35h356q70 0 110.5 34.5t40.5 92.5v151q0 74 -71 111l-535 281q-86 49 -86 135zM561 1255l92 158q6 6 15 6l41 -8l-107 -154q-8 -8 -16 -8z" />
    <glyph glyph-name="scaron.sc" 
d="M223 842v141q0 76 53.5 123t139.5 47h338q88 0 141 -47t53 -123v-125q0 -10 -10 -10h-20q-10 0 -11 10v127q0 57 -42 92t-111 35h-338q-68 0 -110 -35t-42 -92v-135q0 -74 74 -111l532 -282q86 -47 86 -135v-158q0 -76 -53 -123t-139 -47h-356q-88 0 -141.5 47t-53.5 123
v125q0 10 10 10h21q10 0 10 -10v-125q0 -57 42 -92t112 -35h356q70 0 110.5 34.5t40.5 92.5v151q0 74 -71 111l-535 281q-86 49 -86 135zM707 1403l-105 -146q-4 -8 -14 -8h-27q-12 0 -16 8l-99 152h21q8 0 16 -8l90 -115l93 115q8 8 16 8z" />
    <glyph glyph-name="scedilla.sc" 
d="M672 -162v-28q0 -33 -19.5 -52.5t-52.5 -19.5h-94q-10 0 -10 10v21q0 10 10 10h94q31 0 31 31v28q0 31 -31 31h-63q-12 0 -9 10l19 115h-139q-88 0 -141.5 47t-53.5 123v125q0 10 10 10h21q10 0 10 -10v-125q0 -57 42 -92t112 -35h356q70 0 110.5 34.5t40.5 92.5v151
q0 74 -71 111l-535 281q-86 49 -86 135v141q0 76 53.5 123t139.5 47h338q88 0 141 -47t53 -123v-125q0 -10 -10 -10h-20q-10 0 -11 10v127q0 57 -42 92t-111 35h-338q-68 0 -110 -35t-42 -92v-135q0 -74 74 -111l532 -282q86 -47 86 -135v-158q0 -76 -53 -123t-139 -47h-176
l-15 -84h27q33 0 52.5 -19.5t19.5 -52.5z" />
    <glyph glyph-name="scircumflex.sc" 
d="M223 842v141q0 76 53.5 123t139.5 47h338q88 0 141 -47t53 -123v-125q0 -10 -10 -10h-20q-10 0 -11 10v127q0 57 -42 92t-111 35h-338q-68 0 -110 -35t-42 -92v-135q0 -74 74 -111l532 -282q86 -47 86 -135v-158q0 -76 -53 -123t-139 -47h-356q-88 0 -141.5 47t-53.5 123
v125q0 10 10 10h21q10 0 10 -10v-125q0 -57 42 -92t112 -35h356q70 0 110.5 34.5t40.5 92.5v151q0 74 -71 111l-535 281q-86 49 -86 135zM602 1401l100 -152h-20q-8 0 -16 8l-93 115l-90 -115q-8 -8 -16 -8l-25 6l103 146q4 8 16 8h27q10 0 14 -8z" />
    <glyph glyph-name="uni0219.sc" 
d="M223 842v141q0 76 53.5 123t139.5 47h338q88 0 141 -47t53 -123v-125q0 -10 -10 -10h-20q-10 0 -11 10v127q0 57 -42 92t-111 35h-338q-68 0 -110 -35t-42 -92v-135q0 -74 74 -111l532 -282q86 -47 86 -135v-158q0 -76 -53 -123t-139 -47h-356q-88 0 -141.5 47t-53.5 123
v125q0 10 10 10h21q10 0 10 -10v-125q0 -57 42 -92t112 -35h356q70 0 110.5 34.5t40.5 92.5v151q0 74 -71 111l-535 281q-86 49 -86 135zM526 -270l25 161q4 16 18 17h60q18 0 12 -17l-53 -161q-6 -16 -23 -17h-26q-17 1 -13 17z" />
    <glyph glyph-name="t.sc" 
d="M141 1147h885q10 0 10 -10v-21q0 -10 -10 -10h-422v-1096q0 -10 -10 -10h-21q-10 0 -10 10v1096h-422q-10 0 -10 10v21q0 10 10 10z" />
    <glyph glyph-name="tbar.sc" 
d="M342 610h221v496h-422q-10 0 -10 10v21q0 10 10 10h885q10 0 10 -10v-21q0 -10 -10 -10h-422v-496h221q10 0 11 -10v-20q0 -8 -11 -9h-221v-561q0 -10 -10 -10h-21q-10 0 -10 10v561h-221q-10 0 -10 9v20q0 10 10 10z" />
    <glyph glyph-name="tcaron.sc" 
d="M141 1147h885q10 0 10 -10v-21q0 -10 -10 -10h-422v-1096q0 -10 -10 -10h-21q-10 0 -10 10v1096h-422q-10 0 -10 10v21q0 10 10 10zM717 1403l-105 -146q-4 -8 -14 -8h-27q-12 0 -16 8l-98 152h20q8 0 17 -8l90 -115l92 115q8 8 16 8z" />
    <glyph glyph-name="uni0163.sc" 
d="M141 1147h885q10 0 10 -10v-21q0 -10 -10 -10h-422v-1096q0 -10 -10 -10h-21q-10 0 -10 10v1096h-422q-10 0 -10 10v21q0 10 10 10zM506 -270l24 161q4 16 19 17h59q18 0 13 -17l-54 -161q-6 -16 -22 -17h-27q-16 1 -12 17z" />
    <glyph glyph-name="uni021B.sc" 
d="M141 1147h885q10 0 10 -10v-21q0 -10 -10 -10h-422v-1096q0 -10 -10 -10h-21q-10 0 -10 10v1096h-422q-10 0 -10 10v21q0 10 10 10zM506 -270l24 161q4 16 19 17h59q18 0 13 -17l-54 -161q-6 -16 -22 -17h-27q-16 1 -12 17z" />
    <glyph glyph-name="u.sc" 
d="M238 1147h20q10 0 10 -10v-973q0 -57 42 -92t112 -35h326q70 0 111.5 34.5t41.5 92.5v973q0 10 10 10h21q10 0 10 -10v-973q0 -76 -53 -123t-141 -47h-326q-88 0 -141.5 47t-53.5 123v973q1 10 11 10z" />
    <glyph glyph-name="uacute.sc" 
d="M238 1147h20q10 0 10 -10v-973q0 -57 42 -92t112 -35h326q70 0 111.5 34.5t41.5 92.5v973q0 10 10 10h21q10 0 10 -10v-973q0 -76 -53 -123t-141 -47h-326q-88 0 -141.5 47t-53.5 123v973q1 10 11 10zM571 1255l93 158q6 6 14 6l41 -8l-107 -154q-8 -8 -16 -8z" />
    <glyph glyph-name="ubreve.sc" 
d="M238 1147h20q10 0 10 -10v-973q0 -57 42 -92t112 -35h326q70 0 111.5 34.5t41.5 92.5v973q0 10 10 10h21q10 0 10 -10v-973q0 -76 -53 -123t-141 -47h-326q-88 0 -141.5 47t-53.5 123v973q1 10 11 10zM717 1362v-10q0 -45 -29 -74t-74 -29h-59q-47 0 -74.5 29t-27.5 74
v10q0 10 10 10h20q10 0 11 -10v-14q0 -57 57 -58h67q25 0 41.5 15.5t16.5 42.5v14q0 10 10 10h21q10 0 10 -10z" />
    <glyph glyph-name="ucircumflex.sc" 
d="M238 1147h20q10 0 10 -10v-973q0 -57 42 -92t112 -35h326q70 0 111.5 34.5t41.5 92.5v973q0 10 10 10h21q10 0 10 -10v-973q0 -76 -53 -123t-141 -47h-326q-88 0 -141.5 47t-53.5 123v973q1 10 11 10zM612 1401l101 -152h-21q-8 0 -16 8l-92 115l-90 -115q-8 -8 -17 -8
l-24 6l102 146q4 8 16 8h27q10 0 14 -8z" />
    </font>
</defs>
</svg>
