<?xml version="1.0" encoding="utf-8"?>
<!-- Generator: Adobe Illustrator 23.0.1, SVG Export Plug-In . SVG Version: 6.00 Build 0)  -->
<svg version="1.1" id="Layer_1" xmlns="http://www.w3.org/2000/svg" xmlns:xlink="http://www.w3.org/1999/xlink" x="0px" y="0px"
	 viewBox="0 0 450 218" style="enable-background:new 0 0 450 218;" xml:space="preserve">
<style type="text/css">
	.st0{fill:#2D22B4;}
	.st1{fill:#FFFFFF;}
</style>
<rect class="st0" width="450" height="218"/>
<g>
	<path class="st1" d="M206.4,75.6V81c0.6,1,2.1,1.7,3.4,1.7c2.3,0,3.8-1.8,3.8-4.3c0-2.6-1.5-4.4-3.8-4.4
		C208.5,73.8,207,74.6,206.4,75.6z"/>
	<polygon class="st1" points="179.1,100.2 175.9,109.2 182.3,109.2 	"/>
	<path class="st1" d="M222,177.8c-1.4,0-2.1,1.2-2.2,2.2h4.2C224.1,179,223.5,177.8,222,177.8z"/>
	<path class="st1" d="M214.5,177.9c-0.8,0-1.6,0.5-1.9,1v3c0.3,0.6,1.1,1,1.9,1c1.3,0,2.1-1,2.1-2.6
		C216.6,178.9,215.8,177.9,214.5,177.9z"/>
	<path class="st1" d="M192.1,79c-1.5,0-2.8,0.8-2.8,2.2c0,1.4,1.3,2.2,2.8,2.2c1.3,0,2.6-0.4,3.2-1.3v-1.8
		C194.6,79.4,193.4,79,192.1,79z"/>
	<path class="st1" d="M259.5,54.7V21.9H158v174.2H292V54.7H259.5L259.5,54.7z M239.9,39.5c4.5,0,7.5,3.4,7.5,8.2v0.9h-11.2
		c0.2,1.9,1.8,3.5,4.3,3.5c1.3,0,3-0.6,4-1.5l1.8,2.6c-1.5,1.4-3.8,2.1-6.2,2.1c-4.6,0-8-3.1-8-7.9C232.1,43,235.3,39.5,239.9,39.5z
		 M221.5,39.9h2.5v-4.1h4v4.1h3v3.4h-3v6.8c0,1,0.5,1.7,1.4,1.7c0.6,0,1.1-0.2,1.4-0.4l0.9,3c-0.6,0.6-1.7,1-3.3,1
		c-2.8,0-4.2-1.4-4.2-4.1v-7.8h-2.5L221.5,39.9C221.6,39.9,221.5,39.9,221.5,39.9z M227,70.3c4.5,0,7.5,3.4,7.5,8.2v0.9h-11.2
		c0.2,1.9,1.8,3.5,4.3,3.5c1.3,0,3-0.6,4-1.5l1.8,2.6c-1.5,1.4-3.8,2.1-6.2,2.1c-4.6,0-8-3.1-8-7.9C219.2,73.8,222.4,70.3,227,70.3z
		 M216.1,113.8c1.3,0,3-0.6,4-1.5l1.8,2.6c-1.5,1.4-3.8,2.1-6.2,2.1c-4.6,0-8-3.1-8-7.9c0-4.3,3.2-7.8,7.8-7.8
		c4.5,0,7.5,3.4,7.5,8.2v0.9h-11.2C212.1,112.2,213.6,113.8,216.1,113.8z M216.5,169.5c0.7,0,1.5-0.3,2-0.8l0.5,0.6
		c-0.6,0.6-1.5,1-2.6,1c-1.9,0-3.4-1.4-3.4-3.4c0-1.9,1.4-3.4,3.2-3.4c2,0,3.1,1.5,3.1,3.5v0.2h-5.3
		C214.3,168.5,215.1,169.5,216.5,169.5z M216,54.9v-15h3.9v15H216z M217.9,33.6c1.3,0,2.4,1,2.4,2.3c0,1.3-1,2.4-2.4,2.4
		c-1.3,0-2.4-1-2.4-2.4C215.5,34.6,216.6,33.6,217.9,33.6z M217.6,78.2c0,5-2.9,7.8-6.6,7.8c-1.8,0-3.4-0.8-4.6-2.3v1.9h-3.9V64.9
		h3.9v7.7c1.2-1.5,2.9-2.3,4.6-2.3C214.9,70.3,217.6,73.3,217.6,78.2z M196.7,116.4c-3.8,0-6.6-2.6-6.6-7.7c0-4.9,2.8-7.7,6.6-7.7
		c1.8,0,3.4,0.8,4.6,2.3v-1.9h4v14c0,5.8-4.4,7.1-8.2,7.1c-2.6,0-4.6-0.6-6.5-2.2l1.8-2.9c1.2,1.4,2.8,1.8,4.7,1.8
		c1.9,0,4.2-0.9,4.2-3.8V114C200.1,115.6,198.5,116.4,196.7,116.4z M198.5,34.1h3.9v7.7c1-1.1,2.8-2.3,5.3-2.3
		c3.3,0,4.9,1.8,4.9,4.7v10.6h-3.9v-9.1c0-2.1-1.1-2.7-2.8-2.7c-1.5,0-2.7,0.9-3.4,1.8v10.1h-3.9V34.1L198.5,34.1z M199.2,76v9.7
		h-3.9v-1.6c-1,1.2-2.8,1.9-4.8,1.9c-2.4,0-5.2-1.6-5.2-5c0-3.5,2.8-4.9,5.2-4.9c2,0,3.8,0.6,4.8,1.8v-2c0-1.5-1.3-2.6-3.3-2.6
		c-1.6,0-3.1,0.6-4.4,1.8l-1.5-2.6c1.8-1.6,4.2-2.4,6.6-2.4C196.1,70.3,199.2,71.7,199.2,76z M173.5,34.1l3.7,15l3.9-15h3.4l3.9,15
		l3.6-15h5L191,54.9h-4.7l-3.7-14.2L179,54.9h-4.7l-5.9-20.8C168.4,34.1,173.5,34.1,173.5,34.1z M183.8,81.8v3.9h-13.2V65h4.4v16.9
		H183.8z M176.3,95.8h5.5l8,20.8h-5l-1.3-3.5h-8.9l-1.3,3.5h-5L176.3,95.8z M188,166.9c0,1.9-1.3,3.4-3.2,3.4c-2,0-3.2-1.5-3.2-3.4
		s1.3-3.4,3.2-3.4C186.7,163.5,188,165,188,166.9z M173.6,183.6h-3v-9h3c2.8,0,4.6,1.9,4.6,4.5C178.2,181.7,176.3,183.6,173.6,183.6
		z M177.4,170.1l-2-7.3l-2,7.3h-1.2l-2.6-9h1.3l2,7.5l2.1-7.5h1l2.1,7.5l2-7.5h1.3l-2.6,9H177.4z M185.8,180.7h-5.3
		c0.1,1.2,1,2.2,2.3,2.2c0.7,0,1.5-0.3,2-0.8l0.5,0.6c-0.6,0.6-1.5,1-2.6,1c-1.9,0-3.4-1.4-3.4-3.4c0-1.9,1.4-3.4,3.2-3.4
		c2,0,3.1,1.5,3.1,3.5L185.8,180.7L185.8,180.7L185.8,180.7z M190,183.6h-1.1l-2.7-6.5h1.1l2.2,5.4l2.2-5.4h1.1L190,183.6z
		 M192.7,164.5c-0.2,0-0.2-0.1-0.4-0.1c-0.6,0-1.4,0.5-1.8,1v4.6h-1v-6.5h1v1c0.6-0.7,1.3-1.2,2.2-1.2V164.5z M199.4,180.7h-5.3
		c0.1,1.2,1,2.2,2.3,2.2c0.7,0,1.5-0.3,2-0.8l0.5,0.6c-0.6,0.6-1.5,1-2.6,1c-1.9,0-3.4-1.4-3.4-3.4c0-1.9,1.4-3.4,3.2-3.4
		c2,0,3.1,1.5,3.1,3.5L199.4,180.7L199.4,180.7L199.4,180.7z M199.5,170.1h-1v-1c-0.5,0.6-1.3,1.1-2.2,1.1c-1.7,0-2.9-1.3-2.9-3.4
		c0-2.1,1.2-3.4,2.9-3.4c0.9,0,1.7,0.4,2.2,1.1v-3.4h1V170.1z M202,183.6h-1v-9h1V183.6z M202.7,170.1h-1.1v-9h3.6
		c1.8,0,2.8,1.3,2.8,2.7c0,1.4-1,2.7-2.8,2.7h-2.5V170.1z M206.8,183.8c-2,0-3.2-1.5-3.2-3.4c0-1.9,1.3-3.4,3.2-3.4
		c2,0,3.2,1.5,3.2,3.4C210,182.3,208.8,183.8,206.8,183.8z M210.3,165.6v4.6h-1v-6.5h1v1c0.6-0.7,1.3-1.2,2.2-1.2v1
		c-0.2,0-0.2-0.1-0.4-0.1C211.4,164.5,210.6,165,210.3,165.6z M214.8,183.8c-0.9,0-1.7-0.4-2.2-1.1v3.4h-1v-9h1v1
		c0.5-0.6,1.3-1.1,2.2-1.1c1.7,0,2.9,1.3,2.9,3.4S216.4,183.8,214.8,183.8z M225.2,180.7h-5.3c0.1,1.2,1,2.2,2.3,2.2
		c0.7,0,1.5-0.3,2-0.8l0.5,0.6c-0.6,0.6-1.5,1-2.6,1c-1.9,0-3.4-1.4-3.4-3.4c0-1.9,1.4-3.4,3.2-3.4c2,0,3.1,1.5,3.1,3.5L225.2,180.7
		L225.2,180.7L225.2,180.7z M223,170.3c-1,0-2-0.3-2.6-1l0.6-0.7c0.4,0.5,1.3,1,2.2,1c1,0,1.5-0.5,1.5-1.1c0-1.6-4-0.6-4-3
		c0-1,0.9-1.8,2.4-1.8c1.1,0,1.9,0.4,2.4,1l-0.5,0.7c-0.4-0.5-1.1-0.8-1.9-0.8c-0.9,0-1.4,0.5-1.4,1c0,1.4,4,0.5,4,3
		C225.6,169.4,224.7,170.3,223,170.3z M226.8,165.3c0-1,0.9-1.8,2.4-1.8c1.1,0,1.9,0.4,2.4,1l-0.5,0.7c-0.4-0.5-1.1-0.8-1.9-0.8
		c-0.9,0-1.4,0.5-1.4,1c0,1.4,4,0.5,4,3c0,1.1-0.9,2-2.6,2c-1,0-2-0.3-2.6-1l0.6-0.7c0.4,0.5,1.3,1,2.2,1c1,0,1.5-0.5,1.5-1.1
		C230.8,166.8,226.8,167.8,226.8,165.3z M229.9,178c-0.2,0-0.2-0.1-0.4-0.1c-0.6,0-1.4,0.5-1.8,1v4.6h-1v-6.5h1v1
		c0.6-0.7,1.3-1.2,2.2-1.2V178z M233.2,183.8c-1,0-2-0.3-2.6-1l0.6-0.7c0.4,0.5,1.3,1,2.2,1c1,0,1.5-0.5,1.5-1.1c0-1.6-4-0.6-4-3
		c0-1,0.9-1.8,2.4-1.8c1.1,0,1.9,0.4,2.4,1l-0.5,0.7c-0.4-0.5-1.1-0.8-1.9-0.8c-0.9,0-1.4,0.5-1.4,1c0,1.4,4,0.5,4,3
		C235.8,182.9,234.9,183.8,233.2,183.8z M239.4,116.5h-3.9v-9.1c0-2.1-1.1-2.8-2.8-2.8c-1.5,0-2.8,0.9-3.4,1.8v10.1h-3.9v-15h3.9v2
		c1-1.1,2.8-2.3,5.3-2.3c3.3,0,4.9,1.8,4.9,4.8V116.5L239.4,116.5z M240.8,85.7h-3.9V65h3.9V85.7z M249.9,113.4
		c1.4,0,2.5-0.6,3.2-1.6l2.6,2.4c-1,1.4-2.9,2.7-5.9,2.7c-4.6,0-8-3.3-8-7.9s3.4-7.8,8-7.8c3.1,0,5,1.4,5.9,2.7l-2.6,2.4
		c-0.7-1-1.8-1.6-3.2-1.6c-2.4,0-4.1,1.8-4.1,4.3C245.8,111.6,247.5,113.4,249.9,113.4z M265.3,119c-1.1,2.8-3.1,3.6-5.7,3.7
		c-0.5,0-1.4-0.1-2-0.2l0.6-3.5c0.3,0.2,0.9,0.2,1.3,0.2c1,0,1.7-0.3,2.1-1.1l0.6-1.3l-6.1-15.3h4.2l3.9,10.5l3.9-10.5h4.2
		L265.3,119z"/>
	<path class="st1" d="M239.9,42.7c-2.5,0-3.5,1.8-3.7,3.4h7.4C243.5,44.5,242.5,42.7,239.9,42.7z"/>
	<path class="st1" d="M182.6,166.9c0,1.4,0.8,2.6,2.2,2.6s2.2-1.2,2.2-2.6s-0.8-2.5-2.2-2.5S182.6,165.6,182.6,166.9z"/>
	<polygon class="st1" points="262.9,26 262.9,51.2 288.1,51.2 	"/>
	<path class="st1" d="M216.3,164.3c-1.4,0-2.1,1.2-2.2,2.2h4.2C218.4,165.5,217.8,164.3,216.3,164.3z"/>
	<path class="st1" d="M227,73.4c-2.5,0-3.5,1.8-3.7,3.4h7.4C230.6,75.4,229.6,73.4,227,73.4z"/>
	<path class="st1" d="M215.5,104.3c-2.5,0-3.5,1.8-3.7,3.4h7.4C219.1,106.2,218,104.3,215.5,104.3z"/>
	<path class="st1" d="M201.3,106.4c-0.6-1-2.1-1.7-3.4-1.7c-2.2,0-3.8,1.5-3.8,4.2c0,2.6,1.5,4.2,3.8,4.2c1.3,0,2.7-0.7,3.4-1.7
		V106.4z"/>
	<path class="st1" d="M206.9,163.9c0-1-0.7-1.7-1.8-1.7h-2.4v3.4h2.4C206.1,165.6,206.9,164.9,206.9,163.9z"/>
	<path class="st1" d="M196.3,177.8c-1.4,0-2.1,1.2-2.2,2.2h4.2C198.5,179,197.8,177.8,196.3,177.8z"/>
	<path class="st1" d="M182.6,177.8c-1.4,0-2.1,1.2-2.2,2.2h4.2C184.7,179,184.1,177.8,182.6,177.8z"/>
	<path class="st1" d="M206.8,177.9c-1.4,0-2.2,1.2-2.2,2.5c0,1.4,0.8,2.6,2.2,2.6s2.2-1.2,2.2-2.6
		C208.9,179.1,208.1,177.9,206.8,177.9z"/>
	<path class="st1" d="M173.6,175.6h-1.9v7h1.9c2.2,0,3.4-1.6,3.4-3.5C177.1,177.2,175.8,175.6,173.6,175.6z"/>
	<path class="st1" d="M196.6,164.4c-1.3,0-2.1,1-2.1,2.6c0,1.4,0.8,2.5,2.1,2.5c0.8,0,1.6-0.5,1.9-1v-3
		C198.1,164.9,197.3,164.4,196.6,164.4z"/>
</g>
</svg>
