<?xml version="1.0" encoding="utf-8"?>
<!-- Generator: Adobe Illustrator 23.0.1, SVG Export Plug-In . SVG Version: 6.00 Build 0)  -->
<svg version="1.1" id="Слой_1" xmlns="http://www.w3.org/2000/svg" xmlns:xlink="http://www.w3.org/1999/xlink" x="0px" y="0px"
	 viewBox="0 0 645 645" style="enable-background:new 0 0 645 645;" xml:space="preserve">
<style type="text/css">
	.st0{clip-path:url(#SVGID_2_);fill:none;stroke:#313131;stroke-width:0.25;stroke-linecap:round;stroke-linejoin:round;}
	.st1{fill:none;stroke:#313131;stroke-width:0.25;stroke-linecap:round;stroke-linejoin:round;}
</style>
<g>
	<defs>
		<rect id="SVGID_1_" width="645" height="645"/>
	</defs>
	<clipPath id="SVGID_2_">
		<use xlink:href="#SVGID_1_"  style="overflow:visible;"/>
	</clipPath>
	<polyline class="st0" points="645.4,107.3 409.2,264.7 409.2,380.4 645.4,538.1 	"/>
	<polyline class="st0" points="645.4,483.9 438.2,380.4 438.2,264.7 645.4,161.1 	"/>
	<polyline class="st0" points="-0.4,0.2 264.7,264.7 264.7,380.4 -0.3,645.4 	"/>
	<polyline class="st0" points="160.7,-0.4 293.6,264.7 293.6,380.4 161,645.4 	"/>
	<polyline class="st0" points="483.9,-0.4 351.4,264.7 351.4,380.4 483.5,645.4 	"/>
	<polyline class="st0" points="322.3,-0.4 322.5,264.7 322.5,380.3 322.3,645.4 	"/>
	<polyline class="st0" points="645.4,-0.3 380.3,264.7 380.3,380.4 644.8,645.4 	"/>
	<polyline class="st0" points="-0.4,161.1 206.7,264.7 206.7,380.4 -0.4,483.9 	"/>
	<polyline class="st0" points="-0.4,107.5 235.8,264.7 235.8,380.4 -0.4,537.9 	"/>
	<polyline class="st0" points="-0.4,161.1 206.7,264.7 206.7,380.4 -0.4,483.9 	"/>
	<polyline class="st0" points="645.4,161.1 438.2,264.7 438.2,380.4 645.4,483.9 	"/>
	<polyline class="st0" points="645.4,403.5 438.2,351.4 206.7,351.4 -0.4,403.4 	"/>
	<polyline class="st0" points="645.4,241.9 438.2,293.6 206.7,293.6 -0.4,242 	"/>
	<polyline class="st0" points="645.4,322.7 438.2,322.5 206.7,322.5 -0.4,322.7 	"/>
	<line class="st0" x1="645.4" y1="160.3" x2="-0.4" y2="160.3"/>
	<line class="st0" x1="645.4" y1="138" x2="-0.4" y2="138"/>
	<line class="st0" x1="645.4" y1="507.5" x2="-0.4" y2="507.5"/>
	<line class="st0" x1="645.4" y1="536.9" x2="-0.4" y2="536.9"/>
	<line class="st0" x1="645.4" y1="577.5" x2="-0.4" y2="577.5"/>
	<line class="st0" x1="645.4" y1="637" x2="-0.4" y2="637"/>
	<line class="st0" x1="645.4" y1="108.7" x2="-0.4" y2="108.7"/>
	<line class="st0" x1="645.4" y1="68.2" x2="-0.4" y2="68.2"/>
	<line class="st0" x1="645.4" y1="8.8" x2="-0.4" y2="8.8"/>
	<line class="st0" x1="645.4" y1="485.1" x2="-0.4" y2="485.1"/>
</g>
<rect x="206.7" y="264.7" class="st1" width="231.4" height="115.7"/>
<rect x="201.7" y="262.2" class="st1" width="241.5" height="120.8"/>
<rect x="196" y="259.4" class="st1" width="252.9" height="126.4"/>
<rect x="189.8" y="256.2" class="st1" width="265.4" height="132.7"/>
<rect x="182.9" y="252.8" class="st1" width="279.1" height="139.6"/>
<rect x="175.3" y="249" class="st1" width="294.4" height="147.2"/>
<rect x="166.7" y="244.7" class="st1" width="311.4" height="155.7"/>
<rect x="157.2" y="239.9" class="st1" width="330.6" height="165.3"/>
<rect x="146.4" y="234.5" class="st1" width="352.2" height="176.1"/>
<rect x="134" y="228.3" class="st1" width="376.9" height="188.4"/>
<rect x="119.8" y="221.2" class="st1" width="405.3" height="202.6"/>
<rect x="103.3" y="213" class="st1" width="438.3" height="219.1"/>
<rect x="83.9" y="203.2" class="st1" width="477.1" height="238.6"/>
<rect x="60.7" y="191.6" class="st1" width="523.8" height="261.9"/>
<rect x="32.6" y="177.6" class="st1" width="579.7" height="289.8"/>
</svg>
