<svg version="1.1" xmlns="http://www.w3.org/2000/svg" xmlns:xlink="http://www.w3.org/1999/xlink">

<symbol id="icon_services" viewBox="0 0 512 512">
	<path d="m279.714844 177c13.4375 0 23.160156 12.726562 19.511718 25.554688l-45.421874 159.796874c-2.464844 8.664063-10.4375 14.648438-19.519532 14.648438-13.4375 0-23.160156-12.726562-19.511718-25.554688l45.421874-159.796874c2.464844-8.664063 10.4375-14.648438 19.519532-14.648438zm-154.324219 95.792969 49.460937-41.46875c8.460938-7.09375 9.570313-19.710938 2.476563-28.175781-7.097656-8.460938-19.710937-9.570313-28.175781-2.476563l-49.527344 41.523437c-.03125.027344-.066406.054688-.097656.082032-10.503906 8.921875-16.527344 21.941406-16.527344 35.722656s6.023438 26.800781 16.527344 35.722656c.03125.023438.0625.054688.097656.082032l49.523438 41.519531c3.75 3.144531 8.304687 4.675781 12.839843 4.675781 5.710938 0 11.382813-2.433594 15.335938-7.148438 7.097656-8.464843 5.988281-21.082031-2.476563-28.175781l-49.457031-41.46875c-2.078125-1.785156-2.390625-4.027343-2.390625-5.207031s.3125-3.421875 2.390625-5.207031zm260.132813 10.488281-48.527344 41.523438c-8.390625 7.179687-9.375 19.804687-2.191406 28.199218 3.957031 4.621094 9.5625 6.996094 15.207031 6.996094 4.597656 0 9.222656-1.578125 12.992187-4.804688l48.46875-41.476562c10.503906-8.917969 16.527344-21.9375 16.527344-35.71875s-6.023438-26.800781-16.472656-35.671875l-48.523438-41.523437c-8.394531-7.183594-21.019531-6.199219-28.199218 2.191406-7.183594 8.394531-6.199219 21.019531 2.191406 28.199218l48.582031 41.570313c2.105469 1.789063 2.421875 4.046875 2.421875 5.234375 0 1.183594-.3125 3.441406-2.476562 5.28125zm126.476562-223.28125v232c0 11.046875-8.953125 20-20 20s-20-8.953125-20-20v-171h-432v271c0 22.054688 17.945312 40 40 40h352c22.054688 0 40-17.945312 40-40 0-11.046875 8.953125-20 20-20s20 8.953125 20 20c0 44.113281-35.886719 80-80 80h-352c-44.113281 0-80-35.886719-80-80v-332c0-33.085938 26.914062-60 60-60h392c33.085938 0 60 26.914062 60 60zm-161 0c0 11.027344 8.972656 20 20 20s20-8.972656 20-20-8.972656-20-20-20-20 8.972656-20 20zm100-20c-11.027344 0-20 8.972656-20 20s8.972656 20 20 20 20-8.972656 20-20-8.972656-20-20-20zm-411 41h274.800781c-2.453125-6.539062-3.800781-13.613281-3.800781-21 0-7.011719 1.21875-13.738281 3.441406-20h-254.441406c-11.027344 0-20 8.972656-20 20zm0 0"/>
</symbol>

<symbol id="icon_skills" viewBox="0 0 511.999 511.999">
	<path d="M434.014,25.877c-9.556-9.525-20.821-17.532-33.484-23.797c-6.188-3.061-13.518-2.709-19.382,0.933     c-5.865,3.641-9.432,10.054-9.432,16.958v86.723l-29.656,18.482l-29.229-18.42V19.96c0-6.898-3.562-13.307-9.42-16.95     c-5.858-3.642-13.181-4.003-19.368-0.953c-13.489,6.649-24.986,14.663-34.173,23.82C225.74,49.93,209.2,81.566,204.492,112.675     c-5.67,37.454,5.199,72.027,30.605,97.351c10.306,10.271,28.551,21.334,46.795,26.999v214.092     c-0.001,15.982,6.142,30.994,17.298,42.272c11.238,11.359,26.266,17.615,42.309,17.614h0.011c16.012,0,31.072-6.22,42.404-17.515     c11.446-11.408,17.746-26.455,17.743-42.371c-0.002-11.022-8.939-19.956-19.961-19.956h-0.004     c-11.024,0.003-19.959,8.942-19.957,19.965c0.001,5.225-2.132,10.227-6.003,14.087c-3.798,3.785-8.848,5.869-14.228,5.869H341.5     c-5.302,0-10.249-2.047-13.93-5.769c-3.713-3.753-5.757-8.794-5.757-14.194V220.794c0-10.49-8.121-19.19-18.587-19.913     c-12.351-0.853-31.953-11.164-39.947-19.132c-16.174-16.123-23.035-38.533-19.315-63.101c3.121-20.62,13.55-41.782,28.944-59.056     v58.175c0,6.856,3.518,13.232,9.318,16.887l49.131,30.963c6.472,4.08,14.707,4.1,21.201,0.054l49.676-30.96     c5.849-3.646,9.404-10.049,9.404-16.941V60.349c18.243,20.856,28.943,47.114,28.943,71.695c0,13.591-3.466,33.248-19.976,49.704     c-8.239,8.211-27.856,18.59-39.858,19.161c-10.643,0.507-19.012,9.284-19.012,19.939v129.466     c0,11.024,8.937,19.961,19.961,19.961c11.023,0,19.961-8.938,19.961-19.961V237.247c18.217-5.563,36.58-16.705,47.131-27.223     c20.747-20.68,31.715-47.644,31.715-77.978C480.503,94.581,463.124,54.893,434.014,25.877z" />
	<path d="M153.506,124.371c4.866-4.938,6.82-12.048,5.162-18.78l-21.957-89.16c-2.197-8.92-10.196-15.188-19.382-15.188H73.414     c-9.186,0-17.185,6.269-19.382,15.188l-21.957,89.16c-1.658,6.732,0.296,13.842,5.162,18.78l39.171,39.765v96.028     c-23.236,8.239-39.922,30.44-39.922,56.462v135.486c-0.004,15.997,6.225,31.035,17.539,42.35     C65.335,505.772,80.368,512,96.354,511.999c0.005-0.001,0.012,0,0.017,0c15.997,0,31.034-6.229,42.344-17.538     c11.311-11.311,17.54-26.352,17.538-42.347V316.627c0-15.997-6.23-31.034-17.541-42.345     c-6.426-6.426-14.057-11.212-22.381-14.146V162.11L153.506,124.371z M116.33,316.627v135.489     c0.001,5.334-2.075,10.347-5.845,14.116c-3.769,3.769-8.781,5.845-14.119,5.845H96.36c-5.328,0-10.338-2.076-14.106-5.845     c-3.77-3.771-5.846-8.781-5.845-14.114V316.627c0-11.005,8.954-19.96,19.96-19.961c5.332,0,10.345,2.076,14.115,5.846     c3.77,3.772,5.847,8.784,5.847,14.115H116.33z M95.372,126.498l-21.864-22.196l15.549-63.139h12.63l15.55,63.139L95.372,126.498z"/>
</symbol>

<symbol id="icon_portfolio" viewBox="0 0 512 512">
	<path d="M492,332.018c11.046,0,20-8.954,20-20v-132c0-44.112-35.888-79.999-80-79.999h-86.074V73.944    c0-30.307-24.656-54.963-54.963-54.963h-69.926c-30.307,0-54.963,24.656-54.963,54.963v26.074H80c-44.112,0-80,35.888-80,80v233    c0,44.112,35.888,80,80,80h352c44.112,0,80-35.888,80-80c0-11.046-8.954-20-20-20c-11.046,0-20,8.954-20,20    c0,22.056-17.944,40-40,40H80c-22.056,0-40-17.944-40-40V270.981h197v30.037c0,11.046,8.954,20,20,20s20-8.954,20-20v-30.037h195    v41.037C472,323.064,480.954,332.018,492,332.018z M206.074,73.944c0-8.251,6.712-14.963,14.963-14.963h69.926    c8.251,0,14.963,6.712,14.963,14.963v26.074h-99.852V73.944z M40,230.982v-50.963c0-22.056,17.944-40,40-40h352    c22.056,0,40,17.944,40,40v50.963H40z"/>
</symbol>

<symbol id="icon_blog" viewBox="0 -8 512 511">
	<path d="m69.9375 80.425781c0-11.035156 8.945312-19.980469 19.980469-19.980469 11.035156 0 19.980469 8.945313 19.980469 19.980469 0 11.039063-8.945313 19.984375-19.980469 19.984375-11.035157 0-19.980469-8.945312-19.980469-19.984375zm89.917969 19.984375c11.035156 0 19.980469-8.945312 19.980469-19.984375 0-11.035156-8.945313-19.980469-19.980469-19.980469-11.035157 0-19.984375 8.945313-19.984375 19.980469 0 11.039063 8.949218 19.984375 19.984375 19.984375zm352.144531 309.640625-84.910156 85.105469-138.027344-134.242188c-7.722656-7.726562-13.621094-17.292968-17.050781-27.664062l-.3125-.945312-21.359375-95.402344 95.148437 21.636718.914063.304688c10.320312 3.417969 19.84375 9.28125 27.550781 16.957031zm-56.878906.429688-109.328125-106.324219c-.761719-.761719-1.566407-1.484375-2.410157-2.160156l-28.242187 28.222656c.660156.824219 1.359375 1.609375 2.101563 2.359375l109.425781 106.417969zm-144.402344 29.621093 41.089844 39.960938h-291.863282c-33.054687 0-59.945312-26.890625-59.945312-59.945312v-359.671876c0-33.054687 26.890625-59.945312 59.945312-59.945312h391.644532c33.054687 0 59.945312 26.890625 59.945312 59.945312v291.410157l-39.964844-38.863281v-152.636719h-431.605468v259.761719c0 11.019531 8.960937 19.984374 19.980468 19.984374zm-270.753906-379.65625v59.945313h431.605468v-59.945313c0-11.019531-8.964843-19.980468-19.980468-19.980468h-391.644532c-11.019531 0-19.980468 8.960937-19.980468 19.980468zm0 0"/>
</symbol>

<symbol id="icon_wprocess" viewBox="0 -8 512 511">
	<path d="m456.164062 392.296875-37.691406-128.742187c22.949219-13.835938 38.335938-39.003907 38.335938-67.703126 0-43.558593-35.441406-79-79-79-54.75 0-92.835938 54.546876-74.320313 105.777344l-57.871093 39.738282c-22.636719-21.734376-53.84375-31.289063-84.566407-26.164063l-36.578125-94.347656c19.601563-14.269531 32.382813-37.378907 32.382813-63.429688 0-43.242187-35.183594-78.425781-78.429688-78.425781-43.242187 0-78.425781 35.183594-78.425781 78.425781 0 46.4375 40.4375 83.148438 87.1875 77.925781l36.582031 94.347657c-27.121093 17.601562-45.101562 48.148437-45.101562 82.820312 0 54.40625 44.261719 98.667969 98.664062 98.667969 70.601563 0 118.203125-72.273438 90.96875-136.871094l57.875-39.746094c13.859375 12 31.90625 19.285157 51.632813 19.285157.761718 0 1.515625-.039063 2.273437-.058594l37.703125 128.769531c-14.804687 10.796875-24.449218 28.265625-24.449218 47.953125 0 32.71875 26.613281 59.332031 59.332031 59.332031s59.332031-26.613281 59.332031-59.332031c0-31.539062-24.742188-57.402343-55.835938-59.222656zm-416.164062-313.871094c0-21.1875 17.238281-38.425781 38.425781-38.425781 21.191407 0 38.429688 17.238281 38.429688 38.425781s-17.238281 38.429688-38.429688 38.429688c-21.1875 0-38.425781-17.242188-38.425781-38.429688zm137.332031 313.761719c-32.347656 0-58.664062-26.316406-58.664062-58.667969 0-32.347656 26.316406-58.664062 58.664062-58.664062 32.351563 0 58.667969 26.316406 58.667969 58.664062 0 32.351563-26.316406 58.667969-58.667969 58.667969zm161.476563-196.332031c0-21.507813 17.496094-39 39-39s39 17.492187 39 39c0 21.503906-17.496094 39-39 39s-39-17.496094-39-39zm113.859375 275c-10.660157 0-19.335938-8.675781-19.335938-19.335938 0-10.660156 8.675781-19.332031 19.335938-19.332031 10.660156 0 19.332031 8.671875 19.332031 19.332031 0 10.660157-8.671875 19.335938-19.332031 19.335938zm0 0"/>
</symbol>

<symbol id="icon_about" viewBox="0 0 317.452 317.452">
	<path d="M158.726,204.076c47.096,0,79.363-34.126,79.363-79.363v-45.35C238.089,34.126,205.822,0,158.726,0 S79.363,34.126,79.363,79.363v45.35C79.363,169.95,111.63,204.076,158.726,204.076z M102.038,79.363 c0-31.859,23.537-56.688,56.688-56.688s56.688,24.829,56.688,56.688v45.35c0,31.859-23.537,56.688-56.688,56.688	s-56.688-24.829-56.688-56.688V79.363z M239.245,169.928l-2.812-0.93l-1.383,2.517c-2.88,5.215-6.349,10.272-10.294,15.034 l-3.243,3.9l4.989,1.361c36.643,10.09,65.962,66.96,67.481,103.036H23.446c1.519-36.099,27.505-92.945,64.148-103.036	l4.989-1.361l-3.22-3.9c-3.968-4.784-7.437-9.841-10.295-15.056l-1.406-2.517l-2.789,0.952C28.979,185.143,0,248.361,0,294.845 v22.607h317.452v-22.607C317.452,248.361,285.117,185.143,239.245,169.928z"/>
</symbol>

<symbol id="icon-viber">
	<svg viewBox="0 0 468.02 512"><path d="M282.77,0H185.25C83.1,0,0,83.08,0,185.21v87.85A185.57,185.57,0,0,0,117,445.3v56.95a9.74,9.74,0,0,0,5.81,8.91,9.56,9.56,0,0,0,3.94.84,9.75,9.75,0,0,0,6.55-2.53l56.54-51.2h92.93C384.91,458.27,468,375.18,468,273.06V185.21C468,83.08,384.91,0,282.77,0ZM436.05,271.71c0,86.06-70,156.07-156.12,156.07H188.86a9.17,9.17,0,0,0-6.16,2.38l-40.53,36.71v-39.3a9.16,9.16,0,0,0-6.12-8.65A156.39,156.39,0,0,1,32,271.71V189c0-86.06,70-156.08,156.11-156.08h91.85c86.09,0,156.12,70,156.12,156.08Z"/><path d="M362.87,297.32l-59.93-38.93A29.19,29.19,0,0,0,262.48,267l-2.82,4.33c-25.93-8.57-54.53-19.52-71.65-69.08l7.08-6.16h0A29.29,29.29,0,0,0,198,154.79l-46.88-53.93a9.76,9.76,0,0,0-13.76-1l-29.43,25.59C82.07,147.92,94.13,181.12,98.1,192a9.5,9.5,0,0,0,.64,1.42c1,1.83,25.47,45.45,65,85.66,39.63,40.38,111.19,77.66,113.39,78.75a48.78,48.78,0,0,0,67.43-14.34l21.23-32.7A9.77,9.77,0,0,0,362.87,297.32ZM328.15,332.9c-8.79,13.53-26.94,17.37-41.28,8.13-.71-.37-71.8-37.39-109.27-75.57-35-35.67-58.28-75.31-61.44-80.84-7.73-21.65-6.36-35,4.52-44.42L142.76,121l40.49,46.57a9.64,9.64,0,0,1-.94,13.76l-12,10.39A9.74,9.74,0,0,0,167.42,202c20.4,66.28,60.07,79.3,89,88.8l4.23,1.4a9.73,9.73,0,0,0,11.26-3.93l6.91-10.65a9.69,9.69,0,0,1,13.48-2.84l51.76,33.61Z"/><path d="M256.27,158.41a9.75,9.75,0,0,0-5.35,18.75,44.12,44.12,0,0,1,30.2,30.27,9.76,9.76,0,0,0,9.38,7.11,10.07,10.07,0,0,0,2.65-.36,9.77,9.77,0,0,0,6.74-12A63.76,63.76,0,0,0,256.27,158.41Z"/><path d="M330.47,216.64a9.73,9.73,0,0,0,9.39-12.39,123.85,123.85,0,0,0-84.72-84.92,9.75,9.75,0,0,0-5.34,18.76,104.17,104.17,0,0,1,71.29,71.45A9.76,9.76,0,0,0,330.47,216.64Z"/><path d="M250.93,73.93a9.75,9.75,0,0,0-5.34,18.76A176.51,176.51,0,0,1,366.38,213.75a9.75,9.75,0,0,0,18.77-5.29A196.18,196.18,0,0,0,250.93,73.93Z"/></svg>
</symbol>

<symbol id="icon-telegram">
	<svg viewBox="0 0 512 512"><path d="M502.55,23.79A44.16,44.16,0,0,0,467.06,6.65c-9.18,0-18.69,2.55-28.28,7.59l-408.17,214c-29,15.23-31,38.17-30.55,47.32S5,307.35,35.39,319.43l52.16,20.64A89.17,89.17,0,0,0,120.43,346c1.88,0,3.68-.25,5.55-.34-.71.92-1.58,1.63-2.23,2.59-9.72,14.54-10.2,34.26-1.4,55.49.13.36.27.67.4,1,15.43,34.18,32.58,72.75,34.66,78.12a35.13,35.13,0,0,0,32.43,22.51c22,0,28.55-10.6,64.57-69.24,2.81-4.3,9-14.29,10.11-27,4.21,1.71,8.17,3.28,11.55,4.65l57.79,23.55c11.58,4.73,21.73,8.9,27.07,11.11a36.54,36.54,0,0,0,5.23,2.63,34.75,34.75,0,0,0,12.77,2.44c26.29,0,32.59-22.77,36-35,1.67-6,4-14.39,6.45-23.61L509.5,71C516.15,46.55,508,30.93,502.55,23.79ZM225.31,417.67s-32.7,53.23-35.49,53.23c-.08,0-.11,0-.15-.11-3.21-8.63-35.53-80.23-35.53-80.23-5.95-14.36-4.88-26.65,5.36-26.65a21.49,21.49,0,0,1,8.09,1.9l25.09,13.05a69.66,69.66,0,0,0,13.8,7.32l1.27.48,2.36,1.19C229.5,398.11,235.66,401.81,225.31,417.67Zm251-355.73L388.15,385.83C383.18,404.08,379,419,379,419s-.17-.38-.17-.44-14.37-6-31.93-13.18L289,381.83c-17.56-7.1-46.36-18.61-64-25.41l-2.92-1.18-10.8-5.61c-10.7-8.2-11.64-21.73-.88-33.2L389.31,124.86c7.18-7.66,9.89-11.62,8.34-11.62-1.23,0-5.21,2.56-11.86,7.76L159.43,299.56c-9.88,7.71-24.88,12-39,12a55.7,55.7,0,0,1-20.21-3.51L48.11,287.44c-17.62-7-18.29-19.85-1.52-28.68l408.21-214c4.71-2.46,8.84-3.61,12.26-3.61C475.84,41.1,479.84,48.78,476.26,61.94Z"/></svg>
</symbol>

<symbol id="icon-skype">
	<svg viewBox="0 0 512 512"><path d="M414.77,95.41A225.72,225.72,0,0,0,388.18,73.6L369.79,99.74a197.07,197.07,0,0,1,22.82,18.75Z"/><path d="M428.46,165.12l28.1-15.35A222.32,222.32,0,0,0,437.73,121l-25.38,19.48A188.27,188.27,0,0,1,428.46,165.12Z"/><path d="M481.06,289.9a219.17,219.17,0,0,0-10.34-108.77L440.62,192a187.65,187.65,0,0,1,7.52,100.37l-1.74,8.91,6.74,6.06A79.51,79.51,0,0,1,480,366.94,82.05,82.05,0,0,1,397.17,448a83.57,83.57,0,0,1-47.39-14.64l-7.25-5-8.1,3.47A197.71,197.71,0,0,1,256,448c-107,.91-194.6-85-195.76-192a190.34,190.34,0,0,1,3.62-36.35l1.74-8.92-6.74-6.06A79.5,79.5,0,0,1,32,145.05,82,82,0,0,1,114.83,64a83.49,83.49,0,0,1,47.39,14.64l7.25,5,8.1-3.47a200,200,0,0,1,166.78,4.48L358.61,56A231.19,231.19,0,0,0,172.8,47.52a115.47,115.47,0,0,0-58-15.52A114.09,114.09,0,0,0,0,145.05a112.25,112.25,0,0,0,30.94,77A218.8,218.8,0,0,0,28.24,256C29.42,380.69,131.31,480.89,256,480a229.39,229.39,0,0,0,83.2-15.52,115.5,115.5,0,0,0,58,15.52A114.1,114.1,0,0,0,512,366.94,112.25,112.25,0,0,0,481.06,289.9Z"/><path d="M176,320v2a78.09,78.09,0,0,0,78,78h4a78,78,0,0,0,24.65-152l-43.2-14.4A46,46,0,0,1,254,144h4a46,46,0,0,1,46,46v2h32v-2a78.07,78.07,0,0,0-78-78h-4a78,78,0,0,0-24.65,152l43.2,14.4A46,46,0,0,1,258,368h-4a46,46,0,0,1-46-46v-2Z"/></svg>
</symbol>

<symbol id="icon-fmessenger">
	<svg viewBox="0 0 512 532"><path d="M512,255.24c-1.53-69.6-29-134.46-77.39-182.62S322.85-1.24,256,.05C189.12-1.26,125.7,24.52,77.39,72.62S1.54,185.64,0,255.23v.44C.35,326.6,29.58,394,80.33,441.29v64.3c0,12.48,8.39,23.36,19.94,25.86A24.19,24.19,0,0,0,118.66,528l49.75-32.29a253.73,253.73,0,0,0,87.08,15.38h.38c1.64,0,3.27.05,4.92.05,65.11,0,126.66-25.67,173.81-72.62C483,390.39,510.46,325.54,512,256v-.71ZM411.76,414.07c-41,40.8-94.46,63.11-151,63.11-1.47,0-2.94,0-4.42,0H256a222.19,222.19,0,0,1-79.87-14.65,20.84,20.84,0,0,0-19,2l-44.87,29.12V435.25a22.92,22.92,0,0,0-7.48-17C59.51,377.36,33.35,318.18,33,255.86c1.37-60.4,25.25-116.67,67.24-158.49S197.51,33.13,255.7,34.31h.59c58.23-1.19,113.43,21.21,155.47,63.06s65.83,98,67.25,158.35C477.6,316.07,453.72,372.3,411.76,414.07Z"/><path d="M392.79,171.37l-94.08,53.29-56.35-50.21a24.17,24.17,0,0,0-33.58,1.34L89.83,299.38a26.41,26.41,0,0,0,.1,36.33,23.88,23.88,0,0,0,29.26,4.35l94.08-53.29L269.68,337a24.16,24.16,0,0,0,33.58-1.33l119-123.61a26.58,26.58,0,0,0,2.21-33.5A24.27,24.27,0,0,0,392.79,171.37ZM285.52,310.54l-57.15-50.88a21.19,21.19,0,0,0-14.12-5.39A20.86,20.86,0,0,0,203.92,257l-69,39.08,91.59-95.16,57.07,50.85a21.15,21.15,0,0,0,24.48,2.68l69.15-39.18Z"/></svg>
</symbol>

<symbol id="icon-emailpopap">
	<svg viewBox="0 0 516.16 513.82"><path d="M67.7,513.82A67.88,67.88,0,0,1,0,446.13V118.92a67.88,67.88,0,0,1,67.7-67.7H179.18a17.48,17.48,0,0,1,0,35H67.7A32.83,32.83,0,0,0,35,118.93V446.12a32.83,32.83,0,0,0,32.75,32.74H420a32.83,32.83,0,0,0,32.74-32.75V334.63a17.48,17.48,0,1,1,35,0V446.12a67.88,67.88,0,0,1-67.7,67.7Z"/><path d="M151.91,380.08a15.76,15.76,0,0,1-15.18-20l29.92-108a15.75,15.75,0,0,1,4-6.93L398.19,17.69A60,60,0,0,1,440.88,0h0a60,60,0,0,1,42.7,17.69l15,15a60.55,60.55,0,0,1,0,85.39l-227.5,227.5a15.7,15.7,0,0,1-6.93,4l-108,29.92a15.78,15.78,0,0,1-4.21.58Zm22.61-38.37,56.3-15.59-40.7-40.7Zm86.12-30.32,182-181.95-55.81-55.8-181.94,182ZM464.87,107.17l11.4-11.4a29,29,0,0,0,0-40.85l-15-15a28.87,28.87,0,0,0-40.84,0l-11.4,11.4Z"/></svg>
</symbol>
</svg>