<svg version="1.1" xmlns="http://www.w3.org/2000/svg" xmlns:xlink="http://www.w3.org/1999/xlink">

<symbol id="icon_services" viewBox="0 0 512 512">
	<path d="m279.714844 177c13.4375 0 23.160156 12.726562 19.511718 25.554688l-45.421874 159.796874c-2.464844 8.664063-10.4375 14.648438-19.519532 14.648438-13.4375 0-23.160156-12.726562-19.511718-25.554688l45.421874-159.796874c2.464844-8.664063 10.4375-14.648438 19.519532-14.648438zm-154.324219 95.792969 49.460937-41.46875c8.460938-7.09375 9.570313-19.710938 2.476563-28.175781-7.097656-8.460938-19.710937-9.570313-28.175781-2.476563l-49.527344 41.523437c-.03125.027344-.066406.054688-.097656.082032-10.503906 8.921875-16.527344 21.941406-16.527344 35.722656s6.023438 26.800781 16.527344 35.722656c.03125.023438.0625.054688.097656.082032l49.523438 41.519531c3.75 3.144531 8.304687 4.675781 12.839843 4.675781 5.710938 0 11.382813-2.433594 15.335938-7.148438 7.097656-8.464843 5.988281-21.082031-2.476563-28.175781l-49.457031-41.46875c-2.078125-1.785156-2.390625-4.027343-2.390625-5.207031s.3125-3.421875 2.390625-5.207031zm260.132813 10.488281-48.527344 41.523438c-8.390625 7.179687-9.375 19.804687-2.191406 28.199218 3.957031 4.621094 9.5625 6.996094 15.207031 6.996094 4.597656 0 9.222656-1.578125 12.992187-4.804688l48.46875-41.476562c10.503906-8.917969 16.527344-21.9375 16.527344-35.71875s-6.023438-26.800781-16.472656-35.671875l-48.523438-41.523437c-8.394531-7.183594-21.019531-6.199219-28.199218 2.191406-7.183594 8.394531-6.199219 21.019531 2.191406 28.199218l48.582031 41.570313c2.105469 1.789063 2.421875 4.046875 2.421875 5.234375 0 1.183594-.3125 3.441406-2.476562 5.28125zm126.476562-223.28125v232c0 11.046875-8.953125 20-20 20s-20-8.953125-20-20v-171h-432v271c0 22.054688 17.945312 40 40 40h352c22.054688 0 40-17.945312 40-40 0-11.046875 8.953125-20 20-20s20 8.953125 20 20c0 44.113281-35.886719 80-80 80h-352c-44.113281 0-80-35.886719-80-80v-332c0-33.085938 26.914062-60 60-60h392c33.085938 0 60 26.914062 60 60zm-161 0c0 11.027344 8.972656 20 20 20s20-8.972656 20-20-8.972656-20-20-20-20 8.972656-20 20zm100-20c-11.027344 0-20 8.972656-20 20s8.972656 20 20 20 20-8.972656 20-20-8.972656-20-20-20zm-411 41h274.800781c-2.453125-6.539062-3.800781-13.613281-3.800781-21 0-7.011719 1.21875-13.738281 3.441406-20h-254.441406c-11.027344 0-20 8.972656-20 20zm0 0"/>
</symbol>

<symbol id="icon_skills" viewBox="0 0 511.999 511.999">
	<path d="M434.014,25.877c-9.556-9.525-20.821-17.532-33.484-23.797c-6.188-3.061-13.518-2.709-19.382,0.933     c-5.865,3.641-9.432,10.054-9.432,16.958v86.723l-29.656,18.482l-29.229-18.42V19.96c0-6.898-3.562-13.307-9.42-16.95     c-5.858-3.642-13.181-4.003-19.368-0.953c-13.489,6.649-24.986,14.663-34.173,23.82C225.74,49.93,209.2,81.566,204.492,112.675     c-5.67,37.454,5.199,72.027,30.605,97.351c10.306,10.271,28.551,21.334,46.795,26.999v214.092     c-0.001,15.982,6.142,30.994,17.298,42.272c11.238,11.359,26.266,17.615,42.309,17.614h0.011c16.012,0,31.072-6.22,42.404-17.515     c11.446-11.408,17.746-26.455,17.743-42.371c-0.002-11.022-8.939-19.956-19.961-19.956h-0.004     c-11.024,0.003-19.959,8.942-19.957,19.965c0.001,5.225-2.132,10.227-6.003,14.087c-3.798,3.785-8.848,5.869-14.228,5.869H341.5     c-5.302,0-10.249-2.047-13.93-5.769c-3.713-3.753-5.757-8.794-5.757-14.194V220.794c0-10.49-8.121-19.19-18.587-19.913     c-12.351-0.853-31.953-11.164-39.947-19.132c-16.174-16.123-23.035-38.533-19.315-63.101c3.121-20.62,13.55-41.782,28.944-59.056     v58.175c0,6.856,3.518,13.232,9.318,16.887l49.131,30.963c6.472,4.08,14.707,4.1,21.201,0.054l49.676-30.96     c5.849-3.646,9.404-10.049,9.404-16.941V60.349c18.243,20.856,28.943,47.114,28.943,71.695c0,13.591-3.466,33.248-19.976,49.704     c-8.239,8.211-27.856,18.59-39.858,19.161c-10.643,0.507-19.012,9.284-19.012,19.939v129.466     c0,11.024,8.937,19.961,19.961,19.961c11.023,0,19.961-8.938,19.961-19.961V237.247c18.217-5.563,36.58-16.705,47.131-27.223     c20.747-20.68,31.715-47.644,31.715-77.978C480.503,94.581,463.124,54.893,434.014,25.877z" />
	<path d="M153.506,124.371c4.866-4.938,6.82-12.048,5.162-18.78l-21.957-89.16c-2.197-8.92-10.196-15.188-19.382-15.188H73.414     c-9.186,0-17.185,6.269-19.382,15.188l-21.957,89.16c-1.658,6.732,0.296,13.842,5.162,18.78l39.171,39.765v96.028     c-23.236,8.239-39.922,30.44-39.922,56.462v135.486c-0.004,15.997,6.225,31.035,17.539,42.35     C65.335,505.772,80.368,512,96.354,511.999c0.005-0.001,0.012,0,0.017,0c15.997,0,31.034-6.229,42.344-17.538     c11.311-11.311,17.54-26.352,17.538-42.347V316.627c0-15.997-6.23-31.034-17.541-42.345     c-6.426-6.426-14.057-11.212-22.381-14.146V162.11L153.506,124.371z M116.33,316.627v135.489     c0.001,5.334-2.075,10.347-5.845,14.116c-3.769,3.769-8.781,5.845-14.119,5.845H96.36c-5.328,0-10.338-2.076-14.106-5.845     c-3.77-3.771-5.846-8.781-5.845-14.114V316.627c0-11.005,8.954-19.96,19.96-19.961c5.332,0,10.345,2.076,14.115,5.846     c3.77,3.772,5.847,8.784,5.847,14.115H116.33z M95.372,126.498l-21.864-22.196l15.549-63.139h12.63l15.55,63.139L95.372,126.498z"/>
</symbol>

<symbol id="icon_portfolio" viewBox="0 0 512 512">
	<path d="M492,332.018c11.046,0,20-8.954,20-20v-132c0-44.112-35.888-79.999-80-79.999h-86.074V73.944    c0-30.307-24.656-54.963-54.963-54.963h-69.926c-30.307,0-54.963,24.656-54.963,54.963v26.074H80c-44.112,0-80,35.888-80,80v233    c0,44.112,35.888,80,80,80h352c44.112,0,80-35.888,80-80c0-11.046-8.954-20-20-20c-11.046,0-20,8.954-20,20    c0,22.056-17.944,40-40,40H80c-22.056,0-40-17.944-40-40V270.981h197v30.037c0,11.046,8.954,20,20,20s20-8.954,20-20v-30.037h195    v41.037C472,323.064,480.954,332.018,492,332.018z M206.074,73.944c0-8.251,6.712-14.963,14.963-14.963h69.926    c8.251,0,14.963,6.712,14.963,14.963v26.074h-99.852V73.944z M40,230.982v-50.963c0-22.056,17.944-40,40-40h352    c22.056,0,40,17.944,40,40v50.963H40z"/>
</symbol>

<symbol id="icon_blog" viewBox="0 -8 512 511">
	<path d="m69.9375 80.425781c0-11.035156 8.945312-19.980469 19.980469-19.980469 11.035156 0 19.980469 8.945313 19.980469 19.980469 0 11.039063-8.945313 19.984375-19.980469 19.984375-11.035157 0-19.980469-8.945312-19.980469-19.984375zm89.917969 19.984375c11.035156 0 19.980469-8.945312 19.980469-19.984375 0-11.035156-8.945313-19.980469-19.980469-19.980469-11.035157 0-19.984375 8.945313-19.984375 19.980469 0 11.039063 8.949218 19.984375 19.984375 19.984375zm352.144531 309.640625-84.910156 85.105469-138.027344-134.242188c-7.722656-7.726562-13.621094-17.292968-17.050781-27.664062l-.3125-.945312-21.359375-95.402344 95.148437 21.636718.914063.304688c10.320312 3.417969 19.84375 9.28125 27.550781 16.957031zm-56.878906.429688-109.328125-106.324219c-.761719-.761719-1.566407-1.484375-2.410157-2.160156l-28.242187 28.222656c.660156.824219 1.359375 1.609375 2.101563 2.359375l109.425781 106.417969zm-144.402344 29.621093 41.089844 39.960938h-291.863282c-33.054687 0-59.945312-26.890625-59.945312-59.945312v-359.671876c0-33.054687 26.890625-59.945312 59.945312-59.945312h391.644532c33.054687 0 59.945312 26.890625 59.945312 59.945312v291.410157l-39.964844-38.863281v-152.636719h-431.605468v259.761719c0 11.019531 8.960937 19.984374 19.980468 19.984374zm-270.753906-379.65625v59.945313h431.605468v-59.945313c0-11.019531-8.964843-19.980468-19.980468-19.980468h-391.644532c-11.019531 0-19.980468 8.960937-19.980468 19.980468zm0 0"/>
</symbol>

<symbol id="icon_wprocess" viewBox="0 -8 512 511">
	<path d="m456.164062 392.296875-37.691406-128.742187c22.949219-13.835938 38.335938-39.003907 38.335938-67.703126 0-43.558593-35.441406-79-79-79-54.75 0-92.835938 54.546876-74.320313 105.777344l-57.871093 39.738282c-22.636719-21.734376-53.84375-31.289063-84.566407-26.164063l-36.578125-94.347656c19.601563-14.269531 32.382813-37.378907 32.382813-63.429688 0-43.242187-35.183594-78.425781-78.429688-78.425781-43.242187 0-78.425781 35.183594-78.425781 78.425781 0 46.4375 40.4375 83.148438 87.1875 77.925781l36.582031 94.347657c-27.121093 17.601562-45.101562 48.148437-45.101562 82.820312 0 54.40625 44.261719 98.667969 98.664062 98.667969 70.601563 0 118.203125-72.273438 90.96875-136.871094l57.875-39.746094c13.859375 12 31.90625 19.285157 51.632813 19.285157.761718 0 1.515625-.039063 2.273437-.058594l37.703125 128.769531c-14.804687 10.796875-24.449218 28.265625-24.449218 47.953125 0 32.71875 26.613281 59.332031 59.332031 59.332031s59.332031-26.613281 59.332031-59.332031c0-31.539062-24.742188-57.402343-55.835938-59.222656zm-416.164062-313.871094c0-21.1875 17.238281-38.425781 38.425781-38.425781 21.191407 0 38.429688 17.238281 38.429688 38.425781s-17.238281 38.429688-38.429688 38.429688c-21.1875 0-38.425781-17.242188-38.425781-38.429688zm137.332031 313.761719c-32.347656 0-58.664062-26.316406-58.664062-58.667969 0-32.347656 26.316406-58.664062 58.664062-58.664062 32.351563 0 58.667969 26.316406 58.667969 58.664062 0 32.351563-26.316406 58.667969-58.667969 58.667969zm161.476563-196.332031c0-21.507813 17.496094-39 39-39s39 17.492187 39 39c0 21.503906-17.496094 39-39 39s-39-17.496094-39-39zm113.859375 275c-10.660157 0-19.335938-8.675781-19.335938-19.335938 0-10.660156 8.675781-19.332031 19.335938-19.332031 10.660156 0 19.332031 8.671875 19.332031 19.332031 0 10.660157-8.671875 19.335938-19.332031 19.335938zm0 0"/>
</symbol>

<symbol id="icon_about" viewBox="0 0 317.452 317.452">
	<path d="M158.726,204.076c47.096,0,79.363-34.126,79.363-79.363v-45.35C238.089,34.126,205.822,0,158.726,0 S79.363,34.126,79.363,79.363v45.35C79.363,169.95,111.63,204.076,158.726,204.076z M102.038,79.363 c0-31.859,23.537-56.688,56.688-56.688s56.688,24.829,56.688,56.688v45.35c0,31.859-23.537,56.688-56.688,56.688	s-56.688-24.829-56.688-56.688V79.363z M239.245,169.928l-2.812-0.93l-1.383,2.517c-2.88,5.215-6.349,10.272-10.294,15.034 l-3.243,3.9l4.989,1.361c36.643,10.09,65.962,66.96,67.481,103.036H23.446c1.519-36.099,27.505-92.945,64.148-103.036	l4.989-1.361l-3.22-3.9c-3.968-4.784-7.437-9.841-10.295-15.056l-1.406-2.517l-2.789,0.952C28.979,185.143,0,248.361,0,294.845 v22.607h317.452v-22.607C317.452,248.361,285.117,185.143,239.245,169.928z"/>
</symbol>

<symbol id="icon-viber">
	<svg viewBox="0 0 468.02 512"><path d="M282.77,0H185.25C83.1,0,0,83.08,0,185.21v87.85A185.57,185.57,0,0,0,117,445.3v56.95a9.74,9.74,0,0,0,5.81,8.91,9.56,9.56,0,0,0,3.94.84,9.75,9.75,0,0,0,6.55-2.53l56.54-51.2h92.93C384.91,458.27,468,375.18,468,273.06V185.21C468,83.08,384.91,0,282.77,0ZM436.05,271.71c0,86.06-70,156.07-156.12,156.07H188.86a9.17,9.17,0,0,0-6.16,2.38l-40.53,36.71v-39.3a9.16,9.16,0,0,0-6.12-8.65A156.39,156.39,0,0,1,32,271.71V189c0-86.06,70-156.08,156.11-156.08h91.85c86.09,0,156.12,70,156.12,156.08Z"/><path d="M362.87,297.32l-59.93-38.93A29.19,29.19,0,0,0,262.48,267l-2.82,4.33c-25.93-8.57-54.53-19.52-71.65-69.08l7.08-6.16h0A29.29,29.29,0,0,0,198,154.79l-46.88-53.93a9.76,9.76,0,0,0-13.76-1l-29.43,25.59C82.07,147.92,94.13,181.12,98.1,192a9.5,9.5,0,0,0,.64,1.42c1,1.83,25.47,45.45,65,85.66,39.63,40.38,111.19,77.66,113.39,78.75a48.78,48.78,0,0,0,67.43-14.34l21.23-32.7A9.77,9.77,0,0,0,362.87,297.32ZM328.15,332.9c-8.79,13.53-26.94,17.37-41.28,8.13-.71-.37-71.8-37.39-109.27-75.57-35-35.67-58.28-75.31-61.44-80.84-7.73-21.65-6.36-35,4.52-44.42L142.76,121l40.49,46.57a9.64,9.64,0,0,1-.94,13.76l-12,10.39A9.74,9.74,0,0,0,167.42,202c20.4,66.28,60.07,79.3,89,88.8l4.23,1.4a9.73,9.73,0,0,0,11.26-3.93l6.91-10.65a9.69,9.69,0,0,1,13.48-2.84l51.76,33.61Z"/><path d="M256.27,158.41a9.75,9.75,0,0,0-5.35,18.75,44.12,44.12,0,0,1,30.2,30.27,9.76,9.76,0,0,0,9.38,7.11,10.07,10.07,0,0,0,2.65-.36,9.77,9.77,0,0,0,6.74-12A63.76,63.76,0,0,0,256.27,158.41Z"/><path d="M330.47,216.64a9.73,9.73,0,0,0,9.39-12.39,123.85,123.85,0,0,0-84.72-84.92,9.75,9.75,0,0,0-5.34,18.76,104.17,104.17,0,0,1,71.29,71.45A9.76,9.76,0,0,0,330.47,216.64Z"/><path d="M250.93,73.93a9.75,9.75,0,0,0-5.34,18.76A176.51,176.51,0,0,1,366.38,213.75a9.75,9.75,0,0,0,18.77-5.29A196.18,196.18,0,0,0,250.93,73.93Z"/></svg>
</symbol>

<symbol id="icon-telegram">
	<svg viewBox="0 0 512 512"><path d="M502.55,23.79A44.16,44.16,0,0,0,467.06,6.65c-9.18,0-18.69,2.55-28.28,7.59l-408.17,214c-29,15.23-31,38.17-30.55,47.32S5,307.35,35.39,319.43l52.16,20.64A89.17,89.17,0,0,0,120.43,346c1.88,0,3.68-.25,5.55-.34-.71.92-1.58,1.63-2.23,2.59-9.72,14.54-10.2,34.26-1.4,55.49.13.36.27.67.4,1,15.43,34.18,32.58,72.75,34.66,78.12a35.13,35.13,0,0,0,32.43,22.51c22,0,28.55-10.6,64.57-69.24,2.81-4.3,9-14.29,10.11-27,4.21,1.71,8.17,3.28,11.55,4.65l57.79,23.55c11.58,4.73,21.73,8.9,27.07,11.11a36.54,36.54,0,0,0,5.23,2.63,34.75,34.75,0,0,0,12.77,2.44c26.29,0,32.59-22.77,36-35,1.67-6,4-14.39,6.45-23.61L509.5,71C516.15,46.55,508,30.93,502.55,23.79ZM225.31,417.67s-32.7,53.23-35.49,53.23c-.08,0-.11,0-.15-.11-3.21-8.63-35.53-80.23-35.53-80.23-5.95-14.36-4.88-26.65,5.36-26.65a21.49,21.49,0,0,1,8.09,1.9l25.09,13.05a69.66,69.66,0,0,0,13.8,7.32l1.27.48,2.36,1.19C229.5,398.11,235.66,401.81,225.31,417.67Zm251-355.73L388.15,385.83C383.18,404.08,379,419,379,419s-.17-.38-.17-.44-14.37-6-31.93-13.18L289,381.83c-17.56-7.1-46.36-18.61-64-25.41l-2.92-1.18-10.8-5.61c-10.7-8.2-11.64-21.73-.88-33.2L389.31,124.86c7.18-7.66,9.89-11.62,8.34-11.62-1.23,0-5.21,2.56-11.86,7.76L159.43,299.56c-9.88,7.71-24.88,12-39,12a55.7,55.7,0,0,1-20.21-3.51L48.11,287.44c-17.62-7-18.29-19.85-1.52-28.68l408.21-214c4.71-2.46,8.84-3.61,12.26-3.61C475.84,41.1,479.84,48.78,476.26,61.94Z"/></svg>
</symbol>

<symbol id="icon-skype">
	<svg viewBox="0 0 512 512"><path d="M414.77,95.41A225.72,225.72,0,0,0,388.18,73.6L369.79,99.74a197.07,197.07,0,0,1,22.82,18.75Z"/><path d="M428.46,165.12l28.1-15.35A222.32,222.32,0,0,0,437.73,121l-25.38,19.48A188.27,188.27,0,0,1,428.46,165.12Z"/><path d="M481.06,289.9a219.17,219.17,0,0,0-10.34-108.77L440.62,192a187.65,187.65,0,0,1,7.52,100.37l-1.74,8.91,6.74,6.06A79.51,79.51,0,0,1,480,366.94,82.05,82.05,0,0,1,397.17,448a83.57,83.57,0,0,1-47.39-14.64l-7.25-5-8.1,3.47A197.71,197.71,0,0,1,256,448c-107,.91-194.6-85-195.76-192a190.34,190.34,0,0,1,3.62-36.35l1.74-8.92-6.74-6.06A79.5,79.5,0,0,1,32,145.05,82,82,0,0,1,114.83,64a83.49,83.49,0,0,1,47.39,14.64l7.25,5,8.1-3.47a200,200,0,0,1,166.78,4.48L358.61,56A231.19,231.19,0,0,0,172.8,47.52a115.47,115.47,0,0,0-58-15.52A114.09,114.09,0,0,0,0,145.05a112.25,112.25,0,0,0,30.94,77A218.8,218.8,0,0,0,28.24,256C29.42,380.69,131.31,480.89,256,480a229.39,229.39,0,0,0,83.2-15.52,115.5,115.5,0,0,0,58,15.52A114.1,114.1,0,0,0,512,366.94,112.25,112.25,0,0,0,481.06,289.9Z"/><path d="M176,320v2a78.09,78.09,0,0,0,78,78h4a78,78,0,0,0,24.65-152l-43.2-14.4A46,46,0,0,1,254,144h4a46,46,0,0,1,46,46v2h32v-2a78.07,78.07,0,0,0-78-78h-4a78,78,0,0,0-24.65,152l43.2,14.4A46,46,0,0,1,258,368h-4a46,46,0,0,1-46-46v-2Z"/></svg>
</symbol>

<symbol id="icon-fmessenger">
	<svg viewBox="0 0 512 532"><path d="M512,255.24c-1.53-69.6-29-134.46-77.39-182.62S322.85-1.24,256,.05C189.12-1.26,125.7,24.52,77.39,72.62S1.54,185.64,0,255.23v.44C.35,326.6,29.58,394,80.33,441.29v64.3c0,12.48,8.39,23.36,19.94,25.86A24.19,24.19,0,0,0,118.66,528l49.75-32.29a253.73,253.73,0,0,0,87.08,15.38h.38c1.64,0,3.27.05,4.92.05,65.11,0,126.66-25.67,173.81-72.62C483,390.39,510.46,325.54,512,256v-.71ZM411.76,414.07c-41,40.8-94.46,63.11-151,63.11-1.47,0-2.94,0-4.42,0H256a222.19,222.19,0,0,1-79.87-14.65,20.84,20.84,0,0,0-19,2l-44.87,29.12V435.25a22.92,22.92,0,0,0-7.48-17C59.51,377.36,33.35,318.18,33,255.86c1.37-60.4,25.25-116.67,67.24-158.49S197.51,33.13,255.7,34.31h.59c58.23-1.19,113.43,21.21,155.47,63.06s65.83,98,67.25,158.35C477.6,316.07,453.72,372.3,411.76,414.07Z"/><path d="M392.79,171.37l-94.08,53.29-56.35-50.21a24.17,24.17,0,0,0-33.58,1.34L89.83,299.38a26.41,26.41,0,0,0,.1,36.33,23.88,23.88,0,0,0,29.26,4.35l94.08-53.29L269.68,337a24.16,24.16,0,0,0,33.58-1.33l119-123.61a26.58,26.58,0,0,0,2.21-33.5A24.27,24.27,0,0,0,392.79,171.37ZM285.52,310.54l-57.15-50.88a21.19,21.19,0,0,0-14.12-5.39A20.86,20.86,0,0,0,203.92,257l-69,39.08,91.59-95.16,57.07,50.85a21.15,21.15,0,0,0,24.48,2.68l69.15-39.18Z"/></svg>
</symbol>

<symbol id="icon-emailpopap">
	<svg viewBox="0 0 516.16 513.82"><path d="M67.7,513.82A67.88,67.88,0,0,1,0,446.13V118.92a67.88,67.88,0,0,1,67.7-67.7H179.18a17.48,17.48,0,0,1,0,35H67.7A32.83,32.83,0,0,0,35,118.93V446.12a32.83,32.83,0,0,0,32.75,32.74H420a32.83,32.83,0,0,0,32.74-32.75V334.63a17.48,17.48,0,1,1,35,0V446.12a67.88,67.88,0,0,1-67.7,67.7Z"/><path d="M151.91,380.08a15.76,15.76,0,0,1-15.18-20l29.92-108a15.75,15.75,0,0,1,4-6.93L398.19,17.69A60,60,0,0,1,440.88,0h0a60,60,0,0,1,42.7,17.69l15,15a60.55,60.55,0,0,1,0,85.39l-227.5,227.5a15.7,15.7,0,0,1-6.93,4l-108,29.92a15.78,15.78,0,0,1-4.21.58Zm22.61-38.37,56.3-15.59-40.7-40.7Zm86.12-30.32,182-181.95-55.81-55.8-181.94,182ZM464.87,107.17l11.4-11.4a29,29,0,0,0,0-40.85l-15-15a28.87,28.87,0,0,0-40.84,0l-11.4,11.4Z"/></svg>
</symbol>

<symbol id="icon_github">
	<svg viewBox="0 0 512 532">
		<g>
			<path class="st0" d="M0,0v512h512V0H0z M480.3,480.3H31.7V31.7h448.7v448.6H480.3z"/>
		</g>
		<g>
		<path class="st0" d="M253.5,84c-97.4,0-176.4,79-176.4,176.4c0,77.9,50.5,144,120.6,167.3c8.8,1.6,12-3.8,12-8.5
			c0-4.2-0.2-18.1-0.2-32.8c-49.1,10.7-59.4-20.8-59.4-20.8c-8-20.4-19.6-25.8-19.6-25.8c-16-10.9,1.2-10.7,1.2-10.7
			c17.7,1.2,27,18.2,27,18.2c15.7,27,41.3,19.2,51.3,14.7c1.6-11.4,6.2-19.2,11.2-23.6c-39.2-4.5-80.3-19.6-80.3-87.2
			c0-19.3,6.9-35,18.2-47.3c-1.8-4.4-7.9-22.4,1.7-46.7c0,0,14.8-4.7,48.5,18.1c14.1-3.9,29.2-5.9,44.1-5.9c15,0.1,30.1,2,44.2,5.9
			c33.7-22.8,48.4-18.1,48.4-18.1c9.6,24.3,3.6,42.2,1.7,46.7c11.3,12.4,18.2,28.1,18.2,47.3c0,67.7-41.3,82.6-80.5,87
			c6.3,5.5,12,16.2,12,32.7c0,23.6-0.2,42.6-0.2,48.4c0,4.7,3.2,10.2,12.1,8.5c70-23.3,120.5-89.4,120.5-167.3
			C429.9,163,350.9,84,253.5,84z M143.2,335.2c-0.4,0.9-1.8,1.1-3,0.5c-1.3-0.6-2-1.8-1.6-2.6c0.4-0.9,1.8-1.2,3-0.5
			C142.9,333.1,143.6,334.3,143.2,335.2z M151.9,343c-0.8,0.8-2.5,0.4-3.6-0.8c-1.2-1.2-1.4-2.9-0.5-3.7c0.9-0.8,2.5-0.4,3.6,0.8
			C152.5,340.5,152.8,342.2,151.9,343z M157.8,352.9c-1.1,0.8-2.8,0-3.9-1.5c-1.1-1.6-1.1-3.4,0-4.2c1.1-0.8,2.8-0.1,3.9,1.5
			C158.9,350.2,158.9,352.1,157.8,352.9z M167.9,364.3c-1,1.1-3,0.8-4.5-0.7c-1.5-1.4-2-3.4-1-4.5s3-0.8,4.6,0.7
			C168.5,361.2,168.9,363.3,167.9,364.3z M180.9,368.2c-0.4,1.4-2.4,2-4.4,1.4s-3.3-2.2-2.9-3.6c0.4-1.4,2.4-2,4.4-1.4
			S181.3,366.8,180.9,368.2z M195.7,369.8c0,1.5-1.6,2.7-3.7,2.7c-2.1,0-3.8-1.1-3.8-2.6s1.7-2.7,3.8-2.7
			C194,367.2,195.7,368.4,195.7,369.8z M210.2,369.3c0.3,1.4-1.2,2.9-3.3,3.3c-2,0.4-3.9-0.5-4.2-1.9c-0.3-1.5,1.2-2.9,3.3-3.3
			S210,367.8,210.2,369.3z"/>
		</g>
	</svg>
</symbol>

<symbol id="icon_facebook">
	<svg viewBox="0 0 485 485">
	<g>
		<path d="M200.767,400h65.266V242.413h43.798c0,0,4.104-25.428,6.103-53.235h-49.647v-36.264c0-5.416,7.109-12.696,14.153-12.696   h35.564V85h-48.366c-68.478,0-66.872,53.082-66.872,61.009v43.356h-31.771v53.029h31.771V400z" fill="#FFFFFF"/>
		<path d="M0,0v485h485V0H0z M455,455H30V30h425V455z" fill="#FFFFFF"/>
	</g>
	</svg>
</symbol>

<symbol id="icon_instagram">
	<svg viewBox="0 0 485 485">
	<g>
		<path d="M120.89,400c81.071,0,162.193,0,243.264,0c1.385,0,2.769-0.102,4.166-0.254c17.807-2.083,31.651-17.667,31.651-35.576   c0-81.071,0-162.18,0-243.251c0-1.042,0.051-2.083-0.102-3.124C397.938,99.035,382.405,85,363.505,85   c-80.626,0-161.252,0-241.917,0.051c-2.185,0-4.42,0.139-6.554,0.546c-17.857,3.417-30.012,18.201-30.012,36.363v120.61   c0,40.085,0,80.22,0,120.317c0,2.032,0.152,4.115,0.445,6.147C87.803,386.448,103.286,400,120.89,400z M303.125,133.468   c0.051-6.948,5.411-12.053,12.396-12.104c11.964,0,23.865,0,35.83,0c7.087,0.051,12.345,5.258,12.345,12.409   c0.051,11.901,0.051,23.853,0,35.767c0,7.189-5.258,12.409-12.447,12.409h-17.858c-5.957,0-11.964,0-17.959,0   c-6.897,0-12.256-5.169-12.307-12.066C303.074,157.727,303.074,145.623,303.125,133.468z M242.49,181.948   c33.493,0,60.584,27.028,60.635,60.521c0,33.493-27.041,60.584-60.534,60.635c-33.531,0-60.673-27.143-60.622-60.686   C182.02,209.077,209.111,181.948,242.49,181.948z M121.385,219.797v-1.384h27.345c-6.109,24.653-3.328,48.264,8.777,70.592   c8.827,16.321,21.477,28.971,37.608,38.104c31.905,18.01,71.596,16.27,101.951-4.458c16.829-11.52,28.933-26.85,36.173-45.952   c7.188-19.052,8.091-38.498,3.074-58.336h27.383c0,0.546,0,1.042,0,1.588v130.529c0,8.192-4.954,13.197-13.146,13.197H148.679   c-4.865,0-9.678,0.051-14.543,0c-7.583,0-12.752-5.156-12.752-12.752C121.385,307.218,121.385,263.501,121.385,219.797z" fill="#FFFFFF"/>
		<path d="M0,0v485h485V0H0z M455,455H30V30h425V455z" fill="#FFFFFF"/>
	</g>
	</svg>
</symbol>

<symbol id="icon_behance">
	<svg viewBox="0 0 485 485">
	<g>
		<path d="M204.235,334.302c8.256-2.17,15.627-5.503,22.044-10.048c6.366-4.505,11.532-10.343,15.326-17.546   c3.758-7.113,5.64-15.574,5.64-25.399c0-12.122-2.881-22.46-8.766-31.101c-5.856-8.583-14.686-14.618-26.613-18.045   c8.759-4.142,15.312-9.477,19.773-15.98c4.426-6.513,6.639-14.661,6.639-24.414c0-9.017-1.48-16.644-4.434-22.734   c-3.025-6.182-7.249-11.09-12.645-14.78c-5.482-3.689-11.971-6.38-19.572-7.993c-7.645-1.656-16.008-2.458-25.277-2.458H85v193.759   h93.915C187.595,337.564,196.074,336.472,204.235,334.302z M127.665,176.809h39.913c3.772,0,7.458,0.269,10.972,0.956   c3.578,0.614,6.661,1.753,9.391,3.402c2.752,1.584,4.929,3.847,6.574,6.739c1.589,2.892,2.379,6.618,2.379,11.126   c0,8.119-2.379,14.04-7.286,17.621c-4.957,3.639-11.216,5.432-18.774,5.432h-43.168V176.809z M127.665,304.563v-53.356h46.379   c9.183,0,16.648,2.112,22.245,6.358c5.59,4.308,8.399,11.396,8.399,21.383c0,5.094-0.826,9.312-2.55,12.559   c-1.717,3.276-4.081,5.852-6.934,7.731c-2.853,1.954-6.237,3.276-10.052,4.11c-3.758,0.841-7.753,1.214-11.963,1.214H127.665z" fill="#FFFFFF"/>
		<path d="M279.111,320.797c6.272,6.517,13.73,11.518,22.654,15.085c8.931,3.524,18.875,5.313,29.926,5.313   c15.857,0,29.466-3.632,40.624-10.921c11.287-7.257,19.564-19.313,25.018-36.202h-33.935c-1.315,4.343-4.713,8.525-10.296,12.437   c-5.633,3.916-12.351,5.881-20.125,5.881c-10.807,0-19.148-2.834-24.917-8.471c-5.792-5.636-9.542-16.137-9.542-27.227h101.237   c0.726-10.885-0.157-21.282-2.68-31.234c-2.544-9.969-6.611-18.857-12.33-26.628c-5.719-7.785-12.998-14.004-21.878-18.592   c-8.91-4.652-19.307-6.937-31.176-6.937c-10.749,0-20.456,1.911-29.258,5.709c-8.802,3.811-16.36,9.031-22.733,15.645   c-6.359,6.578-11.194,14.421-14.694,23.509c-3.427,9.057-5.18,18.857-5.18,29.348c0,10.849,1.689,20.861,5.037,29.905   C268.247,306.51,272.996,314.249,279.111,320.797z M300.278,243.159c0.984-3.502,2.68-6.778,5.166-9.883   c2.5-3.054,5.77-5.648,9.757-7.731c4.081-2.112,9.175-3.147,15.332-3.147c9.463,0,17.223,2.741,21.8,7.81   c4.598,5.108,7.961,12.372,8.881,22.198h-62.697C298.697,249.669,299.287,246.572,300.278,243.159z" fill="#FFFFFF"/>
		<rect x="290.636" y="156.802" width="78.54" height="19.12" fill="#FFFFFF"/>
		<path d="M0,0v485h485V0H0z M455,455H30V30h425V455z" fill="#FFFFFF"/>
	</g>
	</svg>
</symbol>

<symbol id="icon_linkedin">
	<svg viewBox="0 0 485 485">
	<g>
		<rect x="89.016" y="189.906" width="67.506" height="203.096" fill="#FFFFFF"/>
		<path d="M122.323,162.186h0.446c23.551,0,38.194-15.601,38.194-35.101c-0.442-19.928-14.643-35.087-37.752-35.087   C100.107,91.998,85,107.157,85,127.085C85,146.585,99.678,162.186,122.323,162.186z" fill="#FFFFFF"/>
		<path d="M261.4,393.002V279.576c0-6.086,0.464-12.119,2.24-16.459c4.887-12.149,15.978-24.693,34.641-24.693   c24.439,0,34.195,18.629,34.195,45.92v108.657H400V276.535c0-62.379-33.307-91.398-77.744-91.398   c-35.871,0-51.883,19.74-60.856,33.547v0.665h-0.442c0.118-0.219,0.306-0.442,0.442-0.665v-28.779h-67.537   c0.905,19.053,0,203.096,0,203.096H261.4z" fill="#FFFFFF"/>
		<path d="M0,0v485h485V0H0z M455,455H30V30h425V455z" fill="#FFFFFF"/>
	</g>
	</svg>
</symbol>



<symbol id="icon_pdf">
<svg viewBox="0 0 512 512" style="enable-background:new 0 0 512 512;">
<g><g><path d="M494.479,138.557L364.04,3.018C362.183,1.09,359.621,0,356.945,0h-194.41c-21.757,0-39.458,17.694-39.458,39.442v137.789    H44.29c-16.278,0-29.521,13.239-29.521,29.513v147.744C14.769,370.761,28.012,384,44.29,384h78.787v88.627    c0,21.71,17.701,39.373,39.458,39.373h295.238c21.757,0,39.458-17.653,39.458-39.351V145.385    C497.231,142.839,496.244,140.392,494.479,138.557z M359.385,26.581l107.079,111.265H359.385V26.581z M44.29,364.308    c-5.42,0-9.828-4.405-9.828-9.82V206.744c0-5.415,4.409-9.821,9.828-9.821h265.882c5.42,0,9.828,4.406,9.828,9.821v147.744    c0,5.415-4.409,9.82-9.828,9.82H44.29z M477.538,472.649c0,10.84-8.867,19.659-19.766,19.659H162.535    c-10.899,0-19.766-8.828-19.766-19.68V384h167.403c16.278,0,29.521-13.239,29.521-29.512V206.744    c0-16.274-13.243-29.513-29.521-29.513H142.769V39.442c0-10.891,8.867-19.75,19.766-19.75h177.157v128    c0,5.438,4.409,9.846,9.846,9.846h128V472.649z"/></g></g>
<g><g><path d="M132.481,249.894c-3.269-4.25-7.327-7.01-12.173-8.279c-3.154-0.846-9.923-1.269-20.308-1.269H72.596v84.577h17.077    v-31.904h11.135c7.731,0,13.635-0.404,17.712-1.212c3-0.654,5.952-1.99,8.856-4.01c2.904-2.019,5.298-4.798,7.183-8.336    c1.885-3.538,2.827-7.904,2.827-13.096C137.385,259.634,135.75,254.144,132.481,249.894z M117.856,273.173    c-1.288,1.885-3.067,3.269-5.337,4.154s-6.769,1.327-13.5,1.327h-9.346v-24h8.25c6.154,0,10.25,0.192,12.288,0.577    c2.769,0.5,5.058,1.75,6.865,3.75c1.808,2,2.712,4.539,2.712,7.615C119.789,269.096,119.144,271.288,117.856,273.173z"/></g></g>
<g><g><path d="M219.481,263.452c-1.846-5.404-4.539-9.971-8.077-13.702s-7.789-6.327-12.75-7.789c-3.692-1.077-9.058-1.615-16.096-1.615    h-31.212v84.577h32.135c6.308,0,11.346-0.596,15.115-1.789c5.039-1.615,9.039-3.865,12-6.75c3.923-3.808,6.942-8.788,9.058-14.942    c1.731-5.039,2.596-11.039,2.596-18C222.25,275.519,221.327,268.856,219.481,263.452z M202.865,298.183    c-1.154,3.789-2.644,6.51-4.471,8.163c-1.827,1.654-4.125,2.827-6.894,3.519c-2.115,0.539-5.558,0.808-10.327,0.808h-12.75v0    v-56.019h7.673c6.961,0,11.635,0.269,14.019,0.808c3.192,0.692,5.827,2.019,7.904,3.981c2.077,1.962,3.692,4.692,4.846,8.192    c1.154,3.5,1.731,8.519,1.731,15.058C204.596,289.231,204.019,294.394,202.865,298.183z"/></g></g>
<g><g><polygon points="294.827,254.654 294.827,240.346 236.846,240.346 236.846,324.923 253.923,324.923 253.923,288.981     289.231,288.981 289.231,274.673 253.923,274.673 253.923,254.654"/></g></g>
</svg>
</symbol>



</svg>